<svg width="132" height="97" viewBox="0 0 132 97" fill="none" xmlns="http://www.w3.org/2000/svg">
<path d="M100.942 81.3911C98.9886 84.0647 96.0037 85.5054 93.5105 87.5388C92.501 87.5907 91.8483 88.7674 90.5691 88.4343C94.9202 82.8101 97.0044 76.4851 97.8834 69.5717C99.0887 60.1188 98.6318 50.8606 95.5686 41.823C90.6952 27.4252 77.5329 22.7875 65.7412 26.6811C58.688 29.0259 54.2498 34.4121 51.5477 41.0054C46.4525 53.4218 46.6091 66.1799 50.6775 78.7823C53.236 86.6562 58.1876 92.713 66.7159 95.0362C67.077 95.1357 67.3512 95.5424 67.6644 95.8063C60.6242 96.6023 53.5536 96.7624 46.4699 96.9916C41.9011 97.1387 39.0729 95.3433 36.8973 91.7569C46.1609 85.938 50.1031 72.6391 45.765 61.8364C41.5879 51.4533 31.4061 46.9064 20.7849 50.5362C18.7964 51.2154 17.1995 52.5176 15.2676 53.5645C16.0595 46.941 19.6971 42.4417 24.8706 41.451C27.4335 42.6753 30.1443 42.7489 32.9029 42.4763C33.4816 42.6277 34.0516 42.8181 34.6434 42.9089C38.6595 43.6141 42.0882 41.7625 43.3153 38.2495C44.5815 34.6155 43.0368 30.8949 39.3252 29.0951C31.9282 25.5087 24.2441 24.4141 16.264 27.0964C17.5694 21.6323 20.18 16.8042 23.5261 12.3265C24.2789 12.3654 24.553 12.8068 24.553 13.5033C24.553 15.0305 24.553 16.562 24.5878 18.0891C24.7009 21.9006 26.8156 23.458 30.4706 22.5106C31.2625 22.3072 31.715 21.9568 31.6106 21.1391C31.5062 20.3215 32.0457 19.1664 30.7404 19.1015C28.8824 19.0149 28.8346 17.7257 29.0956 16.6269C29.4568 15.1256 27.738 12.8846 30.5402 12.1794C31.4888 11.9372 31.6237 11.219 31.6237 10.4013C31.6237 9.58368 31.6236 8.83955 30.5446 8.70976C28.9607 8.51508 28.9868 7.4119 29.1609 6.2438C30.7578 5.99721 31.5236 4.1499 33.2466 4.1499C35.9661 8.88284 35.0915 13.8624 33.9733 18.7337C33.499 20.7887 33.7079 21.8746 35.8486 22.2553C36.8528 22.4791 37.8957 22.4672 38.8945 22.2207C39.6255 22.013 40.8221 22.6533 40.9743 21.3554C41.0962 20.3085 41.3007 19.2269 39.9692 18.4871C38.6378 17.7473 38.5507 14.0484 39.6429 13.0793C40.1563 12.6467 40.7655 12.253 41.5139 12.4607C42.445 12.7159 42.5495 13.4946 42.5756 14.282C42.6452 16.2375 42.928 18.2232 42.6931 20.1441C42.4537 22.1428 43.3066 22.5582 44.9731 22.463C45.6562 22.4197 46.3437 22.437 47.0312 22.4284C49.1545 22.3981 49.6419 20.9445 48.9022 19.5038C47.884 17.5137 47.7448 15.4674 47.649 13.3865C47.4315 8.66652 45.1384 7.20853 40.7959 9.24188C39.6733 9.76536 39.4253 9.47554 39.4297 8.41993C39.4297 6.14431 39.4297 3.86868 39.4079 1.58873C47.2792 -1.24497 54.7763 -0.206689 61.8034 4.05469C68.1997 7.94833 71.8503 13.9489 73.9302 20.9271C74.5437 22.9908 75.1702 23.4234 77.2719 22.5149C86.7748 18.4049 96.2647 17.8209 105.172 23.9815C112.569 29.0822 116.641 36.2724 117.294 45.2321C117.629 49.8483 117.438 54.4428 115.697 58.8382C112.216 58.769 108.818 59.007 105.62 60.7764C103.127 62.1565 102.013 64.0428 101.747 66.8073C101.369 70.7009 102.278 73.9932 105.328 76.576C104.958 77.16 104.584 77.7397 104.21 78.3065C101.856 77.995 101.595 79.9029 100.942 81.3911ZM59.1449 16.9297V16.8864C60.1761 16.8864 61.2073 16.8864 62.2342 16.8864C62.403 16.9057 62.574 16.8899 62.7364 16.8399C62.8987 16.79 63.0489 16.7071 63.1773 16.5965C63.3058 16.4859 63.4097 16.3499 63.4825 16.1972C63.5554 16.0446 63.5955 15.8786 63.6005 15.7097C63.9573 13.6287 62.5997 10.4576 60.7026 9.22028C59.5996 8.5533 58.324 8.22277 57.0339 8.26968C55.7438 8.31659 54.4959 8.73888 53.4448 9.48418C50.8602 11.4613 49.9639 14.9266 51.143 18.5304C52.5702 22.9562 58.7315 24.4877 62.1254 21.2863C62.7781 20.6719 63.1175 20.0792 62.5127 19.3221C62.0036 18.6861 61.4988 17.7343 60.4545 18.4352C59.5843 19.0106 58.6923 19.0193 57.7438 18.9846C56.7125 18.95 55.6247 18.552 55.6682 17.5267C55.7118 16.5014 56.9083 17.0119 57.6045 16.9167C58.1171 16.877 58.6319 16.8741 59.1449 16.9081V16.9297Z" fill="#E95F88"/>
<path d="M100.941 81.3912C101.594 79.903 101.851 77.9951 104.231 78.3629H109.583L105.345 76.6323C102.299 74.0366 101.385 70.753 101.764 66.8636C102.029 64.0992 103.143 62.2129 105.636 60.8328C108.834 59.0634 112.215 58.8254 115.714 58.8946C118.124 59.7599 120.5 60.6554 122.354 62.745C123.115 61.8408 122.937 60.5819 123.842 59.92C124.95 60.0178 126.064 60.0337 127.175 59.9675C129.35 59.6863 129.99 60.7679 129.611 62.6196C129.202 64.6572 129.825 66.656 129.642 68.6763C129.546 69.7276 129.981 70.2944 131.078 70.2857C131.421 71.5836 130.799 71.934 129.59 71.8864C127.88 71.8172 126.165 71.8864 124.22 71.8864C124.812 72.8901 125.756 73.0502 126.544 73.3876C130.603 75.1182 132.231 78.2504 131.974 82.5637C131.748 86.3751 129.833 88.8584 126.404 90.3942C120.892 92.8645 114.36 91.8176 110.24 87.7249C109.748 87.024 108.965 85.9944 108.308 86.6347C107.734 87.2101 107.394 88.7372 108.995 89.2867C109.217 89.3986 109.42 89.5446 109.596 89.7193C109.631 90.3942 109.439 90.8658 108.634 90.8615C106.594 90.8615 104.549 90.8398 102.508 90.8615C101.202 90.8615 101.342 90.0741 101.294 89.1699C101.155 86.5611 101.79 83.9437 100.941 81.3912ZM113.66 66.1152C112.516 66.219 112.015 66.8896 112.189 67.9668C112.376 69.1522 113.281 69.2647 114.278 69.1523C116.948 70.2665 119.715 71.1354 122.545 71.748C121.431 68.2091 117.946 66.6214 114.339 67.8241C113.599 67.4736 113.69 66.7988 113.695 66.1628L113.799 65.9248L113.66 66.1152ZM109.883 78.6052C110.559 80.0313 111.702 81.1864 113.125 81.8807C114.549 82.575 116.167 82.767 117.715 82.4252C118.259 82.3171 119.06 82.3733 119.073 81.56C119.073 80.9716 118.411 80.7769 117.963 80.6558C115.435 79.9766 112.877 79.3579 109.883 78.6052Z" fill="#219DC0"/>
<path d="M0.133707 62.8099C-0.301411 58.687 0.38608 54.6808 1.32158 50.6963C3.47434 50.7485 5.62469 50.5201 7.71781 50.0171C9.81507 49.4979 12.2126 47.9881 14.5056 49.7922C14.0705 52.3057 13.3308 54.7847 13.3743 57.5795C13.8486 57.2896 14.0618 57.1468 14.2707 57.03C14.501 56.917 14.7135 56.7713 14.9016 56.5974C20.123 50.2983 26.876 49.2903 34.1294 51.9207C38.9854 53.6815 42.71 57.0819 44.1807 62.347C41.4742 63.9693 38.7765 64.8778 35.5915 63.3766C33.2549 62.2777 30.7442 61.1443 28.077 62.6455C24.2218 61.0664 20.8671 62.5287 17.5689 64.3371C15.7196 63.9391 13.8573 64.0256 11.9907 64.1467H4.39785C2.74876 64.4193 1.49127 63.4545 0.133707 62.8099Z" fill="#EC632C"/>
<path d="M5.40365 84.398C3.22806 81.9017 2.16638 78.9469 1.76172 75.7151C3.79807 74.8758 5.76916 73.1194 8.02307 75.2825C8.17971 76.9438 9.48942 76.3511 10.3771 76.3987C12.3612 76.5112 14.428 76.0569 16.1728 77.45C17.3955 78.1984 17.7305 79.7256 19.0881 80.4481C24.6533 83.4073 31.837 80.7769 32.8552 73.4265C37.1194 73.5693 41.2661 72.1287 45.5433 72.4921C46.1568 76.0007 45.0559 79.1026 43.2763 82.0445C42.7846 82.1743 42.2799 82.4771 41.8012 82.4208C36.1143 81.9882 30.6057 83.8572 24.9404 83.6538C24.5103 83.6272 24.0789 83.6756 23.6655 83.7966C19.397 85.1897 14.8414 84.385 10.5293 85.5271C10.073 85.6604 9.59356 85.6968 9.12211 85.6342C8.65066 85.5716 8.19767 85.4113 7.79246 85.1637C7.09192 84.6835 6.34786 84.1471 5.40365 84.398Z" fill="#F7C622"/>
<path d="M14.5063 49.7877C12.2133 47.9837 9.81576 49.4935 7.71849 50.0126C5.62537 50.5157 3.47502 50.744 1.32227 50.6919C2.32739 44.9942 4.06786 39.6037 7.9404 35.1173C8.72361 35.5889 9.48507 36.095 10.2944 36.5147C11.9348 37.3799 13.6013 37.8732 15.2112 36.4195C16.9952 36.5407 18.257 35.6105 19.4232 34.4121C20.2716 34.464 21.2811 34.2391 21.9381 34.6198C25.2755 36.532 28.9 36.6229 32.5681 36.5234C35.6618 36.4368 38.8207 35.6797 41.662 37.6136C40.5873 41.1698 37.6589 42.4893 33.7907 41.1698C30.7971 40.1488 27.8296 39.1407 24.5575 39.8719C19.1273 41.1135 16.3991 45.0072 14.5063 49.7877Z" fill="#219DC0"/>
<path d="M5.40234 84.3979C6.34655 84.147 7.09061 84.6834 7.79115 85.1247C8.19636 85.3723 8.64935 85.5326 9.1208 85.5952C9.59225 85.6578 10.0717 85.6213 10.528 85.4881C14.84 84.3632 19.3957 85.1679 23.6642 83.7575C24.0776 83.6365 24.509 83.5882 24.9391 83.6148C30.5957 83.8181 36.1129 81.9276 41.7999 82.3818C42.2786 82.4164 42.7833 82.1352 43.2706 82.0098C41.3996 87.1364 37.5837 90.3465 32.706 92.3928C26.9537 94.8198 21.084 94.5256 15.2099 92.7951C11.2634 90.7964 7.72587 88.2958 5.40234 84.3979Z" fill="#71BB6E"/>
<path d="M88.7536 90.8258C80.1241 98.4951 67.1244 97.6306 60.1904 92.5594C57.6173 90.6778 55.0067 88.7021 53.7363 85.6602C54.2491 85.7527 55.483 85.8562 55.483 85.8562L57.2173 86.0928C57.2173 86.0928 64.2908 86.0743 70.7059 86.0928C71.4913 86.0928 77.2327 86.0928 78.2023 85.8654C81.2882 84.0949 84.5127 82.9854 88.1391 83.7343C89.8022 84.081 91.3405 84.9917 93.1145 84.8253L89.6775 89.9844C89.3171 90.1878 88.7997 90.2433 88.7536 90.8258Z" fill="#71BB6E"/>
<path d="M14.6925 29.2206C18.8 27.7627 22.9598 26.7157 27.3893 27.1613C31.5112 27.5697 35.5135 28.7732 39.1723 30.7045C41.8526 32.1235 42.5836 34.4986 41.6742 37.6265C38.8329 35.6884 35.6739 36.4455 32.5802 36.532C28.9122 36.6315 25.2876 36.532 21.9503 34.6285C21.2933 34.2478 20.2838 34.4727 19.4353 34.4208C17.6513 34.304 16.0588 34.5809 15.2234 36.4282C12.5213 36.8608 11.4596 34.6977 10.002 33.1619C10.0237 32.7638 10.0411 32.3701 10.5589 32.2966C11.3334 32.3658 12.0688 32.3788 12.1558 31.3319L13.1653 30.6397C13.9267 30.4406 14.2182 29.7355 14.7099 29.2423L14.6925 29.2206Z" fill="#F7C622"/>
<path d="M39.425 1.60596C39.425 3.8859 39.4467 6.16148 39.4467 8.4371C39.4467 9.49271 39.6904 9.78258 40.813 9.2591C45.1642 7.22576 47.4485 8.68369 47.6661 13.4037C47.7618 15.4846 47.9011 17.5309 48.9192 19.521C49.6589 20.9616 49.1716 22.4153 47.0482 22.4456C46.3607 22.4456 45.6732 22.4456 44.9901 22.4802C43.3236 22.5754 42.4708 22.16 42.7101 20.1613C42.9451 18.2404 42.6622 16.2677 42.5926 14.2992C42.5665 13.5118 42.4621 12.7331 41.5309 12.4779C40.7825 12.2702 40.1733 12.6422 39.6599 13.0965C38.5678 14.0656 38.6939 17.7819 39.9862 18.5043C41.2785 19.2268 41.1132 20.3257 40.9914 21.3727C40.8391 22.6705 39.6425 22.0432 38.9115 22.2379C37.9127 22.4844 36.8699 22.4963 35.8657 22.2725C33.7249 21.8918 33.5161 20.8059 33.9903 18.751C35.1086 13.8796 35.9832 8.90001 33.2637 4.16707C33.8815 2.40628 35.1173 1.81358 36.9578 2.00394C37.7541 2.09912 38.5982 1.7444 39.425 1.60596Z" fill="#603779"/>
<path d="M8.02207 75.2606C5.76816 73.1408 3.79707 74.8756 1.76072 75.6933C0.0768127 71.5271 -0.166849 67.1834 0.133382 62.7793C1.49095 63.4326 2.74408 64.3973 4.39753 64.1032C6.86721 64.8861 9.52066 64.8861 11.9903 64.1032C13.857 63.982 15.7193 63.8955 17.5686 64.2935C13.2696 67.1661 13.3436 71.0338 15.0492 75.2692C12.6996 76.4157 10.3587 76.0653 8.02207 75.2606Z" fill="#603779"/>
<path d="M29.1916 6.27388C29.0175 7.4463 28.9914 8.54521 30.5752 8.73989C31.6369 8.86968 31.6543 9.63539 31.6543 10.4314C31.6543 11.2275 31.5194 11.9672 30.5709 12.2095C27.7687 12.9147 29.4874 15.1557 29.1263 16.6569C28.8652 17.7558 28.9131 19.045 30.771 19.1315C32.0764 19.1964 31.5325 20.4295 31.6413 21.1693C31.75 21.909 31.2932 22.3373 30.5013 22.5406C26.8463 23.4881 24.7316 21.9307 24.6185 18.1192C24.5706 16.592 24.5836 15.0605 24.5836 13.5334C24.5836 12.8368 24.3095 12.3956 23.5568 12.3566C23.1652 8.42839 24.5706 5.72447 27.3336 5.16638C28.2038 4.98468 29.2394 4.77267 29.1916 6.27388Z" fill="#603779"/>
<path d="M131.078 70.2512C129.981 70.2512 129.546 69.6931 129.642 68.6418C129.825 66.6214 129.207 64.6227 129.611 62.585C129.99 60.7334 129.359 59.6518 127.175 59.933C126.064 59.9992 124.95 59.9833 123.842 59.8854C125.874 58.9164 128.023 59.5653 130.112 59.4528C131.208 59.3922 131.226 60.2835 131.213 61.0752C131.169 64.1324 131.124 67.1911 131.078 70.2512Z" fill="#51B2CE"/>
<path d="M9.97518 33.1489C11.4459 34.6674 12.5076 36.8436 15.1966 36.4153C13.5867 37.8689 11.9202 37.3541 10.2798 36.5104C9.47045 36.0778 8.70899 35.5846 7.92578 35.1131C8.07372 33.9017 8.70899 33.2008 9.97518 33.1489Z" fill="#ECCB3F"/>
<path d="M109.595 89.6888C109.419 89.5141 109.217 89.3681 108.995 89.2562C107.394 88.7067 107.733 87.1796 108.308 86.6042C108.965 85.9422 109.748 86.9935 110.239 87.6944C110.026 88.3433 109.813 89.0182 109.595 89.6888Z" fill="#51B2CE"/>
<path d="M14.6843 29.2248C14.1926 29.718 13.9011 30.4231 13.1396 30.6222C13.0395 29.4887 13.6487 29.121 14.6843 29.2248Z" fill="#F4F2F2"/>
<path d="M12.1301 31.3148C12.0431 32.3618 11.3077 32.3488 10.5332 32.2795C10.9466 31.7647 11.3077 31.1634 12.1301 31.3148Z" fill="#ECCB3F"/>
<path d="M59.1445 16.9083C58.6318 16.8715 58.117 16.8715 57.6042 16.9083C56.908 17.0034 55.7114 16.5189 55.6679 17.5182C55.6244 18.5176 56.7122 18.9416 57.7435 18.9762C58.692 19.0108 59.597 19.0022 60.4542 18.4268C61.4985 17.7259 62.0033 18.6777 62.5124 19.3136C63.1172 20.0707 62.7778 20.6635 62.1251 21.2778C58.7312 24.4792 52.5525 22.9477 51.1427 18.522C49.981 14.9182 50.8599 11.4528 53.4445 9.47571C54.4955 8.73041 55.7434 8.30813 57.0335 8.26122C58.3237 8.21431 59.5992 8.54484 60.7022 9.21181C62.5994 10.4405 63.9569 13.6116 63.6001 15.7012C63.5952 15.8701 63.5551 16.0362 63.4822 16.1888C63.4094 16.3415 63.3055 16.4774 63.177 16.588C63.0486 16.6986 62.8984 16.7816 62.7361 16.8315C62.5737 16.8814 62.4027 16.8972 62.2339 16.878C61.207 16.878 60.1758 16.878 59.1445 16.878V16.9083ZM57.5999 14.2476C58.3135 14.1481 59.3839 14.3774 59.2707 13.2569C59.175 12.3137 58.1916 11.959 57.3344 11.959C56.4773 11.959 55.4721 12.2229 55.5679 13.2958C55.6723 14.4509 56.8079 14.1394 57.5999 14.2476Z" fill="#603779"/>
<path d="M24.8691 41.4726C27.7279 40.404 30.3299 41.3341 32.9014 42.4979C30.1428 42.7705 27.4494 42.6969 24.8691 41.4726Z" fill="#A19088"/>
<path d="M114.335 67.8068C114.335 68.2394 114.3 68.7024 114.279 69.1523C113.282 69.2734 112.377 69.1522 112.19 67.9668C112.016 66.8896 112.516 66.2364 113.661 66.1152L113.691 66.1455C113.687 66.7815 113.604 67.4563 114.335 67.8068Z" fill="#51B2CE"/>
<path d="M113.66 66.1154L113.795 65.9077L113.691 66.1456L113.66 66.1154Z" fill="#51B2CE"/>
<path d="M32.8547 73.4052C33.0461 69.0313 32.1019 65.1549 28.0684 62.6327C30.7356 61.1315 33.2463 62.265 35.5829 63.3639C38.7679 64.8651 41.4656 63.9566 44.1721 62.3342C45.7559 65.566 46.7045 68.8799 45.5296 72.475C41.2655 72.1116 37.1188 73.5609 32.8547 73.4052Z" fill="#603779"/>
<path d="M11.9912 64.1338C9.52157 64.9168 6.86812 64.9168 4.39844 64.1338H11.9912Z" fill="#E95F88"/>
<path d="M92.5112 35.2996C94.8905 38.855 96.4353 42.8986 97.0309 47.1302C95.9508 47.2872 94.7131 46.6408 93.8972 48.0169C92.2608 50.7875 89.9152 51.3047 87.055 49.7578C85.2008 48.7465 83.3233 47.7213 81.0704 48.0215C80.1155 45.865 79.3692 43.6115 77.9785 41.6582C75.0812 37.59 71.4422 37.4745 68.3178 41.3119C66.6675 43.3391 65.8053 45.7126 65.0404 48.1462C62.9173 47.7629 61.0352 48.8111 59.0141 49.0697C55.7008 49.6078 52.3036 49.262 49.168 48.0677C49.9282 43.3298 51.8798 39.0723 54.434 35.0594C54.8095 34.4683 55.2638 33.8403 56.1029 33.7757C58.4433 35.0471 61.1836 35.3776 63.7609 34.6992C65.305 34.2042 66.9067 33.9093 68.5264 33.8219C71.0575 33.7711 73.5931 33.8542 76.1288 33.8819C79.8049 33.3139 83.481 34.7547 87.157 33.8819C88.659 35.4935 90.4251 36.0061 92.5112 35.2996Z" fill="#219DC0"/>
<path d="M55.6829 86.0599C55.177 85.9758 54.4655 85.9697 53.955 85.8763C51.2328 82.7557 49.3862 74.628 49.3862 74.628C49.3862 74.628 48.9603 73.3488 49.6041 73.3301C51.2182 73.1432 53.5124 74.5448 54.8827 75.11C58.4097 76.5675 62.1989 75.6473 65.7489 76.6049C66.6158 77.3464 67.3259 78.2585 67.8366 79.2863C70.0301 84.0652 75.0516 85.0322 77.8843 81.2436C79.1948 79.4918 80.487 77.5065 80.6801 75.1334C83.9634 72.7977 87.5502 72.5267 91.0956 74.1197C92.7905 74.9496 94.734 75.0883 96.5264 74.5074C96.9265 77.3103 95.524 79.7114 94.6365 82.2013C94.2097 83.1731 93.7101 84.1101 93.142 85.0042C91.3762 85.1723 89.8449 84.2521 88.1894 83.9017C84.5796 83.1449 81.3699 84.2661 78.2981 86.0552L77.3278 86.0926H57.7154L55.6829 86.0599Z" fill="#F7C622"/>
<path d="M80.9316 47.6537C83.1991 47.3479 85.0793 48.3922 86.9549 49.4224C89.8335 50.9982 92.1943 50.4479 93.8413 47.649C94.6717 46.2378 95.9081 46.9057 96.9952 46.7458C98.5302 51.638 98.3249 56.6901 98.3295 61.7234C97.3964 61.3188 96.4633 60.9896 95.6049 60.5003C94.6438 59.95 93.8926 60.0629 93.1974 60.9002C90.0668 64.6634 86.3437 63.8496 82.5273 62.2832C82.4993 57.3487 81.7341 52.4988 80.9316 47.6537Z" fill="#EC632C"/>
<path d="M76.0525 33.8663C73.53 33.8382 71.0075 33.7541 68.4896 33.8055C66.8784 33.894 65.285 34.1926 63.749 34.6937C61.1851 35.3805 58.4591 35.0459 56.1309 33.7588C57.7956 29.5514 61.5124 27.5646 65.2524 26.2136C73.0227 23.4087 80.5256 24.3437 87.2676 29.486C88.0239 30.061 88.5634 30.9352 89.1998 31.6691C89.0749 32.2065 88.8052 32.6982 88.4209 33.0895C88.0366 33.4807 87.5528 33.7561 87.0232 33.885C85.0034 30.8838 78.824 30.8791 76.0525 33.8663Z" fill="#F7C622"/>
<path d="M49.3781 48.0353C52.5172 49.2201 55.9181 49.5631 59.235 49.0294C61.2352 48.7499 63.1193 47.7101 65.268 48.1132C64.8163 50.3884 64.3677 52.6636 63.9222 54.9388C62.7249 56.5422 63.4256 58.3883 63.356 60.1016C63.291 61.7278 62.7945 62.3416 61.1099 62.2958C56.7198 62.1859 52.3204 62.2088 47.9256 62.1813C47.6783 57.4205 48.1681 52.6503 49.3781 48.0353Z" fill="#EC632C"/>
<path d="M65.804 76.575C62.2505 75.6506 58.4489 76.5389 54.9368 75.132C53.5577 74.5864 52.1786 73.7793 50.5743 73.9417C49.232 73.6982 48.9976 72.7286 48.8964 71.5968C48.7401 69.9149 48.5011 68.242 48.2988 66.5645C48.6252 62.7362 48.6252 62.7227 52.5832 62.7317C56.2975 62.7317 60.0072 62.7678 63.7216 62.7859C63.8506 66.808 64.5484 70.7931 65.7948 74.627C66.0016 75.2763 66.4475 75.9212 65.804 76.575Z" fill="#603779"/>
<path d="M82.487 62.1941C86.3011 63.7174 90.0218 64.4813 93.1504 60.8491C93.8452 60.0348 94.5959 59.9342 95.5564 60.4603C96.419 60.9177 97.3701 61.2562 98.2793 61.6497C98.3959 66.0732 98.5218 70.5014 96.5635 74.6642C94.746 75.2331 92.7755 75.0972 91.0569 74.2845C87.4621 72.7246 83.8252 72.9762 80.4961 75.2772C81.9741 71.0366 81.9135 66.5902 82.487 62.1941Z" fill="#603779"/>
<path d="M63.2747 62.7744C59.7589 62.7744 56.2476 62.7268 52.7318 62.7225C48.9854 62.7225 48.9854 62.7225 48.6765 66.3998C48.1413 65.0327 48.2892 63.6224 48.4328 62.2163C52.5534 62.2423 56.7001 62.2163 60.7945 62.3245C62.374 62.3677 62.8396 61.788 62.9005 60.2522C62.9658 58.6342 62.3088 56.8907 63.427 55.3765C63.3791 57.8381 63.3269 60.3085 63.2747 62.7744Z" fill="#A19088"/>
<path d="M87.0234 33.7717C87.5448 33.6443 88.0213 33.3721 88.3996 32.9854C88.778 32.5987 89.0435 32.1127 89.1665 31.5815C89.8874 31.9418 90.5309 32.4444 91.0593 33.0599C91.5878 33.6755 91.9908 34.3918 92.2449 35.1672C90.2017 35.8695 88.4718 35.3566 87.0234 33.7717Z" fill="#ECCB3F"/>
<path d="M15.0506 75.2909C15.316 76.0566 16.2385 76.4806 16.1732 77.4194C14.4327 76.0264 12.3616 76.4806 10.3774 76.3681C9.50719 76.3205 8.18008 76.9132 8.02344 75.252C10.36 76.0653 12.701 76.4157 15.0506 75.2909Z" fill="#ECCB3F"/>
<path d="M15.2227 36.4064C16.0581 34.5591 17.6506 34.2822 19.4346 34.399C18.2859 35.5974 17.0066 36.5276 15.2227 36.4064Z" fill="#ECCB3F"/>
<path d="M56.6035 84.5405L58.5267 84.6054C58.7029 84.7881 58.9203 84.9265 59.1608 85.0093C59.4014 85.092 59.6583 85.1167 59.9104 85.0812H75.4572C76.0489 85.0812 76.6581 85.0812 77.0845 84.5707L78.0026 84.5361C77.8503 85.6437 76.9757 85.5052 76.236 85.5009C70.1937 85.5009 64.1499 85.4764 58.1047 85.4274C57.4259 85.436 56.6688 85.5528 56.6035 84.5405Z" fill="#DFB42A"/>
<path d="M57.6009 14.2475C56.809 14.1394 55.6733 14.4509 55.5689 13.2828C55.4731 12.2098 56.4739 11.9199 57.3355 11.9459C58.197 11.9719 59.176 12.3136 59.2717 13.2438C59.3849 14.3773 58.3145 14.148 57.6009 14.2475Z" fill="#E95F88"/>
<path d="M24.182 61.4389C28.9677 61.3841 31.6756 63.8673 32.8085 69.3272C33.8308 74.2608 31.7364 79.6714 28.3212 81.1624C27.343 81.59 27.0501 81.1624 26.5528 80.4937C23.1696 75.7522 20.211 70.7263 17.7108 65.4735C17.0697 64.1633 17.4621 63.5877 18.6281 62.9792C20.3855 62.0583 22.1705 61.3621 24.182 61.4389Z" fill="#E95F88"/>
<path d="M76 34.0077C79.0265 29.9943 85.7654 30.0006 88 34.0077C84 35.1947 80 33.2352 76 34.0077Z" fill="#ECCB3F"/>
<path d="M77.0812 84.584C76.6461 85.1161 76.0456 85.0945 75.4539 85.0945H59.9071C59.6551 85.1299 59.3981 85.1052 59.1576 85.0225C58.917 84.9397 58.6996 84.8013 58.5234 84.6186L77.0812 84.584Z" fill="#ECCB3F"/>
<path d="M82.6721 64.0945C82.6721 67.9779 82.1572 74.4502 79.5772 80.5751C79.0484 81.9118 78.3322 83.1698 77.4491 84.3128C75.0865 87.2212 72.3635 87.2436 69.7778 84.4921C65.7447 80.2109 64.4518 74.7865 63.7768 69.3172C62.6842 60.4241 62.564 51.5141 65.9564 42.9348C66.3168 42.0213 66.8088 41.1584 67.2607 40.2786C68.4849 37.8802 69.8121 35.2353 72.9813 35.493C76.0476 35.7452 77.6837 38.2949 78.9422 40.7998C82.2373 47.3113 82.6378 54.372 82.6721 64.0945Z" fill="#E95F88"/>
</svg>
