<svg width="178" height="145" viewBox="0 0 178 145" fill="none" xmlns="http://www.w3.org/2000/svg">
<path d="M139.539 87.1662C135.144 91.6996 132.104 96.9896 129.625 102.841C124.534 114.873 114.052 120.608 102.338 124.501C96.8765 126.431 91.0594 127.146 85.2933 126.594C82.1189 126.24 81.2643 127.308 81.9114 130.255C82.0862 131.315 82.1942 132.385 82.2349 133.458C81.3925 135.41 79.4756 135.667 77.7663 136.399C75.0253 137.57 72.034 137.699 69.293 138.656C67.425 139.309 65.8439 140.847 63.9759 138.809C63.6829 138.492 63.1396 137.973 62.8771 138.65C61.2105 142.982 59.2692 139.376 57.4439 138.882L56.0887 140.755C53.7811 141.176 52.2122 140.145 51.1317 138.193C49.6727 139.749 48.0794 141.036 45.7535 140.585C44.8928 140.157 45.7535 135.813 43.1041 139.431C39.7954 139.138 37.1276 136.063 33.471 137.204C33.3672 137.204 33.1413 136.893 32.9704 136.722C32.8971 134.495 32.1646 133.495 30.028 135.148C28.5751 134.837 27.2564 134.453 27.4518 132.47C27.5983 130.987 26.8413 129.864 25.3823 130.761C22.6413 132.433 22.2689 130.609 21.5059 128.705C20.3826 125.929 16.439 125.288 16.0971 121.829C16.0971 121.792 15.8651 121.731 15.7675 121.762C13.173 122.506 13.2157 120.108 12.2939 118.863L12.7701 117.033C11.0364 115.91 9.33317 114.806 10.1573 112.225C10.3526 111.615 10.2428 110.59 9.3881 110.395C6.89741 109.9 7.60555 107.954 7.44683 106.416C8.00846 103.976 6.27476 101.7 6.9768 99.2593C15.0594 99.3631 22.8489 101.639 30.8826 102.365C36.1387 102.841 41.3521 103.732 46.6021 104.311C52.6029 104.976 56.5282 101.34 56.6015 95.1957C56.1192 93.7802 54.8494 94.3049 53.8849 94.1463C50.9852 93.6704 48.0794 93.2555 45.1736 92.8162C44.3678 91.2969 43.3422 92.2671 42.3593 92.5599C39.9602 89.9424 36.3707 89.8387 33.4466 88.3377C33.8006 84.9575 31.4992 87.4164 30.5102 86.9954C28.9841 85.1649 29.2282 81.3942 25.1625 82.1935C24.7474 82.2789 23.4349 81.0587 23.3311 79.8445C24.5521 77.4039 22.9954 77.5686 21.4021 77.8066C20.1812 76.6961 17.6721 75.9762 20.2727 73.7613C21.7439 73.6149 23.0198 72.779 22.6596 71.3756C22.5685 71.054 22.411 70.755 22.1974 70.4978C21.9838 70.2405 21.7188 70.0308 21.4193 69.882C21.1198 69.7332 20.7925 69.6486 20.4584 69.6337C20.1242 69.6188 19.7907 69.6739 19.4791 69.7954C17.6111 70.4055 17.9041 69.8564 18.0567 68.1175C18.3375 64.9813 16.2864 61.9184 17.0861 58.5809C16.5824 58.3456 16.0645 58.1419 15.5355 57.9708C14.4428 57.4826 14.3634 56.4332 15.2669 56.1037C18.4718 54.9383 16.8358 53.5777 15.4806 52.4001C14.3512 51.4178 14.7297 50.228 14.5649 49.0931C14.6015 48.6843 14.6442 48.2816 14.6809 47.8728C15.1387 47.6348 16.0788 48.0315 15.9994 47.1589C15.9384 46.439 15.0532 46.6586 14.5404 46.4451C14.5404 45.1089 14.4916 43.7665 14.4611 42.4303C15.1937 41.8202 17.6355 42.1741 15.8224 40.0813C16.2314 38.8244 15.212 36.939 17.1471 36.3777C18.9297 35.859 19.3204 35.0597 18.2032 33.6198C17.7759 33.0707 17.5195 32.3995 18.0384 32.0517C21.0114 30.0321 20.4192 25.7062 23.4899 23.7781C24.7718 22.9788 24.8268 21.5999 24.9977 20.3003C30.73 21.9294 34.9178 25.932 39.1666 29.7332C44.9782 34.9316 51.1439 39.6724 57.3279 44.3767C58.1704 44.9868 58.9823 45.7983 60.1849 45.719C61.4974 48.5867 64.8916 48.8612 66.7901 50.9967C69.5189 52.333 72.382 53.4373 74.9521 55.0542C79.1276 57.6352 84.2739 57.6718 86.905 63.9563C90.873 73.4136 98.748 79.5333 110.231 78.191C113.674 77.7029 116.494 75.9701 119.241 73.9505C122.294 71.6868 125.346 68.9717 129.412 68.9046C135.174 68.813 139.063 71.9553 141.578 76.928C137.897 79.7224 137.94 83.2918 139.539 87.1662ZM131.603 78.5754C131.316 77.0927 130.468 76.1348 128.942 76.1348C128.325 76.1028 127.72 76.3135 127.257 76.7218C126.793 77.1301 126.509 77.7035 126.463 78.3191C126.323 79.8689 127.379 80.7597 128.856 80.9061C130.333 81.0526 131.231 79.997 131.652 78.5754H131.603Z" fill="#51B2CE"/>
<path d="M70.6855 37.61L68.207 35.0291C68.4756 32.4177 70.7099 32.0882 73.0908 31.4293C70.6855 29.9466 70.9847 28.0734 71.3082 26.1942L74.971 25.7915L73.6035 23.113C76.6558 20.9408 77.3884 17.1335 79.7082 14.4306C82.3088 14.6075 80.8681 12.6307 81.2099 11.5995C84.8727 10.8185 86.6003 7.49933 89.3291 5.49805C92.6012 12.3256 94.3227 19.7205 97.1186 26.7311C101.337 37.3294 105.268 48.0435 107.735 59.2214C107.997 60.4051 108.956 61.662 107.93 62.9311C106.935 63.407 106.526 65.2436 104.878 64.2978C98.1137 60.3441 90.5012 57.3971 85.996 50.5451C83.6091 46.9208 80.0378 45.426 76.5216 43.9128C74.3605 42.9793 72.3032 41.7956 70.1361 41.0085C68.2131 40.313 69.8004 39.5869 69.6294 38.9341C69.5745 38.147 70.3742 38.0494 70.6855 37.61Z" fill="#51B2CE"/>
<path d="M69.6467 38.9219C69.8176 39.5747 68.2304 40.3008 70.1534 40.9964C72.3205 41.7835 74.3778 42.9672 76.5388 43.9007C80.0551 45.4139 83.6263 46.9087 86.0132 50.533C90.5185 57.3849 98.131 60.3319 104.895 64.2857C106.513 65.2314 106.922 63.3948 107.947 62.9189C110.005 67.8001 110.059 73.0047 110.279 78.1726C98.7964 79.5149 90.9214 73.3951 86.9534 63.9379C84.3223 57.6534 79.1761 57.6168 75.0005 55.0359C72.4304 53.4373 69.5673 52.3146 66.8386 50.9784C67.6322 51.0943 68.4502 51.3018 69.024 50.4537L65.8496 48.0131C66.6493 46.2253 67.5162 44.5047 70.0374 44.4742C67.3086 41.6004 66.7714 40.8133 66.9851 40.1117C67.4307 38.7266 68.6699 39.111 69.6467 38.9219Z" fill="#219DC0"/>
<path d="M149.246 78.1973C152.299 73.1758 152.097 68.7034 148.532 63.6331C145.541 59.3621 146.743 54.1392 148.611 49.3923C149.222 47.8059 149.771 46.9517 151.474 48.8309C154.936 52.6932 157.127 56.8849 156.431 62.5043C158.654 61.3878 158.806 59.4536 159.282 57.7391C161.211 50.7651 165.564 46.305 172.67 44.5355C175.112 43.9254 176.424 43.8766 175.484 47.092C173.842 52.6871 171.034 57.1473 165.332 59.3438C162.89 60.2773 160.174 61.0339 160.039 64.4202L159.539 64.6642C159.606 64.7436 159.667 64.829 159.734 64.9144L160.1 64.4934C165.265 62.425 170.478 61.76 175.802 63.8833C178.243 64.8717 178.897 65.7991 176.497 67.7028C171.382 71.7663 165.772 73.7066 159.404 71.4003C156.395 70.3081 154.972 71.2416 153.91 73.9385C153.19 75.836 152.231 77.6421 151.383 79.4908L149.246 78.1973Z" fill="#71BB6E"/>
<path d="M25.0158 20.2638C24.8449 21.5634 24.7899 22.9423 23.5079 23.7416C20.4556 25.6697 21.0294 29.9956 18.0565 32.0152C17.5376 32.3691 17.794 33.0342 18.2213 33.5833C19.3385 35.0232 18.9478 35.8225 17.1652 36.3412C15.2422 36.9025 16.2495 38.7818 15.8405 40.0448C11.5184 36.9269 10.3463 34.5107 11.8969 31.8017C12.8736 30.0689 14.7233 29.7211 16.3349 29.1475C18.5265 28.3604 18.8989 27.3171 17.5193 25.4866C15.8038 23.162 14.9675 20.337 17.5864 18.4822C20.2053 16.6273 23.0501 17.5181 25.0158 20.2638Z" fill="#ECCB3F"/>
<path d="M57.4453 138.858C59.2767 139.352 61.2119 142.958 62.8785 138.626C63.141 137.949 63.6843 138.467 63.9773 138.785C65.8453 140.822 67.4264 139.285 69.2944 138.632C72.0354 137.674 75.0267 137.546 77.7677 136.375C79.477 135.642 81.3938 135.386 82.2363 133.434C81.1313 136.429 80.9116 139.871 77.6578 141.683C75.6677 142.793 73.8241 142.671 72.1209 141.231C70.8999 140.225 70.1186 139.974 68.9282 141.433C64.6122 146.71 61.1081 146.119 58.0497 139.749C57.8673 139.439 57.6654 139.142 57.4453 138.858Z" fill="#ECCB3F"/>
<path d="M12.2944 118.839C13.2162 120.059 13.1735 122.5 15.768 121.737C15.8657 121.737 16.0977 121.768 16.0977 121.804C16.4395 125.264 20.3709 125.904 21.5064 128.681C22.2695 130.584 22.6418 132.409 25.3828 130.737C26.8479 129.84 27.5988 130.963 27.4523 132.445C27.2569 134.428 28.5756 134.812 30.0285 135.124C28.0811 135.935 26.213 137.65 24.0154 136.734C21.1279 135.514 19.9558 133.196 20.8348 130.023C21.079 129.144 21.7994 128.077 20.9142 127.338C20.029 126.6 19.0828 127.411 18.2526 127.814C15.2003 129.321 12.5448 127.893 11.0247 125.764C9.50464 123.635 9.64502 120.743 12.2944 118.839Z" fill="#ECCB3F"/>
<path d="M81.1984 11.5994C80.8565 12.6306 82.2973 14.6074 79.6967 14.4305C77.2548 13.0821 74.7275 12.2706 72.5603 14.6318C70.8205 16.5355 71.3394 18.7747 72.5237 20.8797C72.9266 21.5997 73.244 22.3685 73.6042 23.1129L74.9717 25.7914L71.3089 26.188L66.9379 26.2734C66.6266 24.5223 66.7548 23.1922 69.1112 23.2227C71.2722 23.2227 71.3394 22.161 70.5092 20.416C68.3298 15.8399 70.6068 11.9167 75.6004 11.7214C78.3414 11.6177 79.2633 10.5744 78.7138 7.85312C77.8042 3.05737 81.8516 -0.658431 86.7536 0.0981502C88.7743 0.409325 88.4324 1.71506 88.4813 2.98417C83.1763 1.64795 81.0458 3.30753 81.1068 8.73173C81.1068 9.68966 81.1618 10.6476 81.1984 11.5994Z" fill="#F4F2F2"/>
<path d="M149.246 78.1968L151.425 79.5148C154.942 81.4428 152.078 82.236 150.754 83.2976C149.399 81.5953 148.184 80.4727 147.25 83.676C147.097 84.1946 146.334 84.6644 146.267 85.4088C143.892 85.5064 141.499 85.5247 139.552 87.1721C137.952 83.2916 137.91 79.7222 141.609 76.9155C143.862 79.0083 146.639 78.1236 149.246 78.1968Z" fill="#E95F88"/>
<path d="M20.2905 73.7368C17.6899 75.9272 20.2172 76.6716 21.4199 77.7821C19.8884 77.9619 18.3462 78.0333 16.8047 77.9956C12.2629 77.599 10.7001 74.5788 12.8184 70.5458C13.7707 68.7153 14.8818 67.1228 16.9635 66.4883C15.7425 69.4475 15.7425 71.882 19.68 72.6325C19.9364 72.6813 20.0891 73.3524 20.2905 73.7368Z" fill="#ECCB3F"/>
<path d="M20.2914 73.7365C20.09 73.3522 19.9434 72.681 19.6809 72.6322C15.7557 71.8817 15.774 69.4472 16.9644 66.488L13.8571 64.6576C14.553 63.4373 14.2356 61.8265 15.4077 60.7893C16.0182 60.2584 15.9449 59.6971 15.133 59.569C12.4042 59.1358 13.2344 57.0735 13.149 55.4139C15.9449 54.1387 14.6446 53.0526 12.9902 51.9787C13.1917 50.8195 12.6667 49.2758 14.5835 49.0439C14.7484 50.1849 14.3699 51.3747 15.4992 52.357C16.8545 53.5346 18.4905 54.8952 15.2856 56.0606C14.3821 56.3901 14.4615 57.4396 15.5542 57.9277C16.0832 58.0988 16.601 58.3026 17.1048 58.5378C16.3051 61.8753 18.3257 64.9383 18.0754 68.0744C17.9228 69.8133 17.6298 70.3381 19.4978 69.7523C19.8094 69.6308 20.1429 69.5757 20.477 69.5906C20.8112 69.6055 21.1385 69.6901 21.438 69.8389C21.7375 69.9877 22.0025 70.1975 22.2161 70.4547C22.4297 70.7119 22.5872 71.0109 22.6783 71.3326C23.0385 72.7542 21.7687 73.5901 20.2914 73.7365Z" fill="#71BB6E"/>
<path d="M69.6471 38.9217C68.6704 39.1108 67.4311 38.7264 66.9733 40.0992C66.7413 40.8131 67.2785 41.588 70.0256 44.4618C67.5044 44.4618 66.6375 46.2129 65.8439 48.0006C61.2593 45.6821 60.6794 44.0591 62.7061 39.2756C65.0259 37.0668 68.0904 38.3786 70.7093 37.5977C70.3735 38.0492 69.5738 38.1468 69.6471 38.9217Z" fill="#ECCB3F"/>
<path d="M7.44798 106.386C7.6067 107.942 6.89856 109.87 9.38926 110.364C10.2439 110.529 10.3538 111.535 10.1584 112.194C9.33432 114.775 11.0375 115.855 12.7713 117.002C10.8056 116.563 8.60178 116.563 6.93521 115.611C3.54713 113.689 3.11982 110.614 4.84743 107.203L7.44798 106.386Z" fill="#ECCB3F"/>
<path d="M23.3493 79.8198C23.4347 81.0401 24.7472 82.2604 25.1806 82.1689C29.2463 81.3696 29.0021 85.1281 30.5283 86.9707C27.8606 88.3558 24.9792 89.1428 22.9036 86.4399C21.3469 84.4508 21.1027 81.876 23.3493 79.8198Z" fill="#ECCB3F"/>
<path d="M81.1988 11.5993C81.1622 10.6474 81.1072 9.68951 81.095 8.73768C81.034 3.31348 83.1645 1.65386 88.4694 2.99008C88.7503 3.82598 89.0372 4.6558 89.318 5.4917C86.5892 7.49908 84.8494 10.8183 81.1988 11.5993Z" fill="#ECCB3F"/>
<path d="M45.1741 92.7915C48.0799 93.2308 50.9857 93.6457 53.8854 94.1217C54.8499 94.2803 56.1197 93.7555 56.602 95.1711C55.0514 95.3297 54.3799 96.8124 53.1284 97.4714C50.9796 98.6062 48.8552 99.0028 46.7308 97.8496C44.6064 96.6965 45.1131 94.6586 45.1741 92.7915Z" fill="#ECCB3F"/>
<path d="M33.4468 88.3135C36.371 89.8144 39.9605 89.9182 42.3596 92.5357C40.1986 94.5309 37.7018 96.1294 34.8936 94.3661C32.8364 93.0482 31.4628 90.9066 33.4468 88.3135Z" fill="#ECCB3F"/>
<path d="M13.1499 55.4141C13.2354 57.0737 12.4051 59.136 15.1339 59.5692C15.9458 59.6973 16.0008 60.2586 15.4086 60.7894C14.2365 61.8267 14.554 63.4436 13.858 64.6578C11.1781 65.2191 9.9999 62.9982 9.18799 61.3935C8.44932 59.9352 8.26008 57.6411 10.4089 56.3903L13.1499 55.4141Z" fill="#ECCB3F"/>
<path d="M66.942 26.2734L71.3129 26.188C70.9894 28.0733 70.7025 29.9465 73.0955 31.4292C70.7269 32.0881 68.4926 32.4176 68.2118 35.029C65.2938 33.3694 65.0312 30.6909 65.4158 27.7561C65.6122 27.7545 65.8064 27.7142 65.9873 27.6376C66.1681 27.561 66.3321 27.4496 66.4698 27.3096C66.6076 27.1697 66.7164 27.004 66.7901 26.822C66.8638 26.64 66.9009 26.4453 66.8993 26.249L66.942 26.2734Z" fill="#ECCB3F"/>
<path d="M13.1483 55.4141L10.3768 56.3903C10.9385 55.0175 12.373 53.2481 9.11316 53.5958C8.99433 53.6197 8.87087 53.6003 8.76519 53.541C6.10356 51.4115 8.00212 48.495 7.51375 45.9812C7.17799 44.2545 8.12419 43.0342 9.77855 42.479C10.0203 42.8354 10.2249 43.2157 10.389 43.6139L10.273 44.8342C8.18523 46.3656 8.1486 47.8849 10.273 49.453C10.2571 49.5428 10.2591 49.6349 10.279 49.7239C10.2989 49.8129 10.3363 49.8971 10.389 49.9716C10.6332 51.442 12.0312 51.4054 12.9835 51.9546C14.644 53.0528 15.9443 54.1389 13.1483 55.4141Z" fill="#F4F2F2"/>
<path d="M7.44764 106.386L4.84709 107.173C5.17064 105.44 3.80318 104.329 3.25986 102.902C4.43806 102.786 6.12905 103.512 6.04969 101.266C6.04969 100.461 5.72004 99.8815 4.82876 99.8509C2.67382 99.7777 3.19273 101.413 3.05232 102.633C1.09273 102.163 2.20378 99.8815 0 98.9723C2.94855 98.3622 4.98747 98.2829 6.98979 99.192C6.27555 101.675 8.00927 103.945 7.44764 106.386Z" fill="#C2C2C1"/>
<path d="M146.266 85.4087C146.333 84.6643 147.096 84.1884 147.249 83.6759C148.183 80.4726 149.398 81.5952 150.753 83.2975C149.434 84.4751 149.257 86.1775 148.708 87.7089C148.342 88.7462 148.39 90.3814 146.675 89.9909C144.789 89.5516 145.888 88.1604 146.065 87.1415C146.181 86.5741 146.205 85.9883 146.266 85.4087Z" fill="#71BB6E"/>
<path d="M62.6701 39.2695C60.6434 44.0531 61.2234 45.676 65.8079 47.9946L68.9763 50.4352C68.4024 51.2833 67.5844 51.0453 66.7908 50.9599C64.8922 48.8244 61.498 48.5193 60.1855 45.6822C61.5042 44.5534 60.796 43.028 60.9425 41.6735C61.0829 40.5203 60.8387 39.1841 62.6701 39.2695Z" fill="#F4F2F2"/>
<path d="M10.2793 44.8587L10.3953 43.6384C11.8848 43.6384 12.8371 41.9239 14.4793 42.4181C14.5119 43.7604 14.5383 45.1007 14.5587 46.439C13.118 45.9264 12.0313 44.4743 10.2793 44.8587Z" fill="#ECCB3F"/>
<path d="M66.8933 26.2488C66.8949 26.4451 66.8579 26.6398 66.7842 26.8218C66.7105 27.0038 66.6016 27.1695 66.4639 27.3094C66.3261 27.4494 66.1622 27.5608 65.9813 27.6374C65.8005 27.714 65.6063 27.7543 65.4099 27.7559C65.3366 26.6942 65.7945 26.1573 66.8933 26.2488Z" fill="#F4F2F2"/>
<path d="M131.652 78.5751C131.261 79.9967 130.431 81.0157 128.887 80.8815C127.342 80.7472 126.353 79.8442 126.494 78.2945C126.55 77.6831 126.842 77.1176 127.308 76.7178C127.774 76.318 128.377 76.1154 128.991 76.1528C130.486 76.1345 131.335 77.0985 131.652 78.5751Z" fill="#603779"/>
<path d="M10.2796 44.8585C12.0316 44.4741 13.1183 45.9262 14.5528 46.4082C15.0656 46.6218 15.9508 46.4082 16.0119 47.1221C16.0912 47.9946 15.1511 47.598 14.6932 47.836C12.4162 46.8841 12.0133 49.6664 10.42 49.9959C10.3673 49.9214 10.3299 49.8372 10.31 49.7482C10.2901 49.6592 10.288 49.5671 10.304 49.4773C9.9195 47.9616 9.9195 46.3741 10.304 44.8585H10.2796Z" fill="#F7C622"/>
<path d="M10.3965 49.9963C12.0203 49.6607 12.4232 46.8846 14.6697 47.8364C14.6331 48.2391 14.5904 48.6418 14.5537 49.0567C12.6369 49.2824 13.1619 50.8261 12.9604 51.9854C12.0386 51.4302 10.6407 51.4729 10.3965 49.9963Z" fill="#ECCB3F"/>
<path d="M73.6032 23.113C73.243 22.3686 72.9256 21.5998 72.5227 20.8798C71.3567 18.7748 70.8195 16.5356 72.5593 14.6319C74.7265 12.2706 77.2721 13.0821 79.6956 14.4305C77.3881 17.1335 76.6616 20.9652 73.6032 23.113Z" fill="#ECCB3F"/>
<path d="M160.101 64.4932L159.734 64.9142C159.667 64.8288 159.606 64.7433 159.539 64.664L160.04 64.4199L160.101 64.4932Z" fill="#FDFDFC"/>
<path d="M10.2984 44.8584C9.91386 46.374 9.91386 47.9616 10.2984 49.4772C8.17394 47.9274 8.21057 46.3899 10.2984 44.8584Z" fill="#ECCB3F"/>
<path d="M3.02148 102.652C3.16189 101.432 2.64302 99.7963 4.79796 99.8696C5.71976 99.8696 6.01889 100.48 6.01889 101.285C6.09825 103.543 4.40726 102.804 3.22906 102.92C3.17272 102.822 3.10284 102.731 3.02148 102.652Z" fill="#ECCB3F"/>
</svg>
