<svg width="222" height="222" viewBox="0 0 222 222" fill="none" xmlns="http://www.w3.org/2000/svg">
<path d="M198.556 44.0024C205.267 52.0433 210.455 61.2404 213.866 71.1425C209.725 70.8006 205.566 71.5523 201.806 73.3224C186.956 80.4824 171.086 84.9925 155.926 91.3225C154.656 91.8525 152.626 92.0224 153.166 93.6324C153.926 95.8724 155.686 94.2225 157.036 93.7925C168.036 90.2825 178.876 86.1524 189.956 82.7424C198.276 80.1824 206.956 78.2024 214.506 73.3724C226.006 104.432 223.716 134.822 207.936 163.552C184.856 205.552 142.376 226.433 94.8563 220.443C92.7467 220.042 90.6656 219.505 88.6263 218.832C90.0263 217.222 91.7463 215.832 92.0463 213.492C94.0463 197.572 97.6863 181.962 101.046 166.302C101.816 162.732 103.906 158.712 101.356 153.422C100.356 156.422 99.6863 158.133 99.1863 159.943C94.5663 176.723 90.0163 193.522 85.3663 210.292C84.3663 214.012 85.0463 216.862 88.5963 218.722C76.5063 217.542 65.7363 212.802 55.4863 206.612C58.2763 206.352 59.8163 204.612 61.4863 202.462C63.8863 199.462 64.4864 195.772 66.4064 192.552C70.9164 184.822 75.7163 177.242 79.4663 169.032C82.7563 161.802 87.0863 155.032 90.9663 148.082C92.2563 148.552 93.5663 148.962 94.8263 149.492C112.216 156.832 131.826 150.262 142.466 137.722C153.106 125.182 153.906 111.162 150.076 96.1324V93.7224C150.166 93.5524 150.256 93.3924 150.336 93.2224L150.046 93.6925H148.906L143.776 84.3025C162.799 71.9375 181.089 58.4816 198.556 44.0024Z" fill="#373433"/>
<path d="M20.4758 174.692C-23.3342 113.842 5.77583 24.3821 82.8358 3.83214C105.086 -2.10786 127.286 -1.28788 148.926 7.31212C147.386 8.31212 145.226 10.4521 144.126 9.50212C139.576 5.50212 140.126 9.97213 139.516 12.0721C134.409 30.1255 129.356 48.1955 124.356 66.2822C123.886 67.9821 123.946 69.8921 121.596 70.2021C117.866 70.0221 114.136 69.8822 110.416 69.6622C99.3558 69.0222 90.1558 73.2222 82.1958 80.5522C69.4458 92.2922 64.1958 113.182 75.5558 133.982C74.4258 135.752 72.2859 134.882 70.7759 135.882C57.0659 144.952 43.1059 153.682 29.6459 163.112C25.7159 165.852 19.6558 167.822 20.4758 174.692Z" fill="#373433"/>
<path d="M20.4762 174.693C19.6762 167.823 25.7362 165.852 29.6462 163.112C43.1062 153.682 57.0662 144.952 70.7762 135.882C72.2862 134.882 74.4261 135.752 75.5561 133.982C79.9261 139.552 85.4261 143.872 91.0461 148.062C87.1661 155.062 82.8361 161.782 79.5461 169.012C75.7961 177.222 70.9962 184.802 66.4862 192.532C64.6062 195.752 63.9661 199.453 61.5661 202.443C59.8661 204.543 58.3261 206.332 55.5661 206.592C44.9234 201.055 35.5589 193.35 28.0761 183.972C27.6061 179.222 25.1461 176.082 20.5661 174.662L20.4762 174.693Z" fill="#4A4949"/>
<path d="M121.576 70.202C123.926 69.892 123.866 67.982 124.336 66.282C129.35 48.1887 134.403 30.1187 139.496 12.072C140.086 9.97202 139.556 5.53201 144.106 9.50201C145.206 10.452 147.366 8.31201 148.906 7.31201C157.034 9.66238 164.654 13.5044 171.376 18.642C172.516 23.642 168.856 26.902 166.566 30.122C155.766 45.292 145.026 60.502 134.676 75.972L121.576 70.202Z" fill="#4A4949"/>
<path d="M198.555 44.0021C181.116 58.4715 162.856 71.9207 143.865 84.2821C141.745 83.3421 140.045 82.0021 139.465 79.6021C144.565 73.4821 149.465 67.2121 154.795 61.2621C164.575 50.2621 174.565 39.5021 184.465 28.6421C189.972 32.9548 194.732 38.1441 198.555 44.0021Z" fill="#4A4949"/>
<path d="M184.476 28.6421C174.576 39.5021 164.586 50.2921 154.806 61.2621C149.516 67.2621 144.576 73.4821 139.476 79.6021C138.443 79.4304 137.467 79.0104 136.633 78.3781C135.798 77.7457 135.13 76.92 134.686 75.972C145.036 60.502 155.776 45.2921 166.576 30.1221C168.866 26.9021 172.576 23.5921 171.386 18.6421C176.225 21.3011 180.638 24.672 184.476 28.6421Z" fill="#373433"/>
<path d="M88.625 218.702C85.075 216.842 84.365 213.992 85.395 210.272C90.045 193.502 94.595 176.702 99.215 159.922C99.715 158.112 100.395 156.362 101.385 153.402C103.935 158.692 101.845 162.712 101.075 166.282C97.685 181.942 94.075 197.552 92.075 213.472C91.775 215.852 90.0751 217.202 88.6551 218.812L88.625 218.702Z" fill="#4A4949"/>
<path d="M214.476 73.3525C206.956 78.1825 198.246 80.1624 189.926 82.7224C178.846 86.1324 168.036 90.2625 157.006 93.7725C155.656 94.2025 153.896 95.8524 153.136 93.6124C152.596 92.0024 154.626 91.8325 155.896 91.3025C171.056 84.9925 186.896 80.4824 201.776 73.3024C205.536 71.5323 209.695 70.7806 213.836 71.1224C214.076 71.8824 214.296 72.6425 214.476 73.3525Z" fill="#4A4949"/>
<path d="M20.4766 174.642C25.0566 176.062 27.4766 179.202 27.9866 183.952C24.9959 181.276 22.4596 178.131 20.4766 174.642Z" fill="#373433"/>
<path d="M134.676 75.9721C135.116 76.9288 135.784 77.7632 136.621 78.4029C137.457 79.0426 138.437 79.468 139.476 79.6422C140.056 82.0422 141.756 83.3822 143.876 84.3222L149.006 93.7121C148.929 94.1863 148.996 94.6727 149.2 95.108C149.403 95.5432 149.733 95.9072 150.146 96.1522C153.976 111.152 153.216 125.152 142.536 137.742C131.856 150.332 112.286 156.852 94.896 149.512C93.636 148.982 92.326 148.572 91.036 148.102C85.416 143.912 79.9159 139.592 75.5459 134.022C64.1459 113.222 69.4359 92.3321 82.1859 80.5921C90.1859 73.2621 99.346 69.0622 110.406 69.7022C114.126 69.9222 117.856 70.0621 121.586 70.2421L134.676 75.9721ZM115.676 110.852C115.589 109.613 115.045 108.451 114.148 107.591C113.252 106.732 112.068 106.236 110.826 106.202C107.556 105.872 106.266 107.912 106.166 110.902C106.066 113.892 107.736 115.552 110.366 115.672C112.996 115.792 115.326 114.482 115.666 110.852H115.676Z" fill="#219DC0"/>
<path d="M150.136 96.1123C149.723 95.8673 149.393 95.5035 149.19 95.0682C148.986 94.633 148.919 94.1465 148.996 93.6724H150.136V96.1123Z" fill="#4A4949"/>
<path d="M150.137 93.6423L150.427 93.1724C150.347 93.3424 150.257 93.5024 150.167 93.6724L150.137 93.6423Z" fill="#4A4949"/>
<path d="M115.666 110.852C115.326 114.482 113.106 115.852 110.356 115.672C107.606 115.492 106.066 113.782 106.156 110.902C106.246 108.022 107.546 105.902 110.816 106.202C112.058 106.236 113.242 106.731 114.139 107.591C115.035 108.451 115.579 109.613 115.666 110.852Z" fill="#373433"/>
</svg>
