<svg width="89" height="204" viewBox="0 0 89 204" fill="none" xmlns="http://www.w3.org/2000/svg">
<path d="M26.6066 103.07C25.04 105.236 24.7835 107.818 24.9188 110.319C25.0963 113.684 25.5029 117.032 26.1357 120.34C27.1195 125.493 24.7369 129.707 21.4031 133.52C17.5938 137.9 12.782 141.212 9.32231 145.975C1.32594 157.003 -0.0961609 174.077 9.5741 185.391C11.0615 187.133 12.9172 188.545 14.6004 190.111C17.5472 190.803 19.6034 193.069 22.1025 194.549C25.9305 196.085 29.6653 197.965 33.6052 199.096C41.6575 201.411 49.9244 201.454 58.1679 200.313C72.9064 198.285 81.425 186.789 82.8797 173.213C83.6677 165.726 82.0917 158.663 78.8932 151.954C74.832 143.446 74.2585 135.495 80.9354 127.731C83.6444 124.582 85.4954 120.297 84.9406 115.802C84.1666 109.526 80.6463 105.069 75.3449 101.848C72.4541 100.092 69.2369 99.2046 66.3181 97.5917C66.3169 97.5575 66.3073 97.5241 66.2903 97.4946C66.2732 97.4651 66.2492 97.4405 66.2205 97.4229C66.1917 97.4054 66.1592 97.3955 66.1257 97.3941C66.0923 97.3927 66.059 97.4 66.029 97.4151C64.8261 97.2433 63.9215 97.4628 64.0194 99.0137L63.4459 99.7439C64.0707 100.951 63.4459 101.944 62.933 102.965L62.8771 103.705C63.0496 104.926 62.8771 106.048 61.9446 106.921C61.9073 107.193 61.8746 107.465 61.8373 107.737C61.8047 108.314 61.7674 108.887 61.7348 109.464L61.8373 110.605C61.8 111.249 61.8373 111.927 61.0447 112.18L60.7649 112.938C61.3524 113.993 60.5038 115.009 60.695 116.05C61.044 116.353 61.3712 116.681 61.6741 117.033C65.6094 122.282 65.4369 131.969 56.3075 135.901C56.2655 136.459 56.438 137.228 56.1443 137.538C54.8621 138.907 55.0765 140.816 54.3445 142.405C53.4539 144.343 54.0414 146.557 55.7433 148.16C56.8996 148.447 58.0746 148.766 59.2216 149.01C60.9235 149.358 61.7814 150.074 61.3058 152.116C60.8302 154.159 59.7298 154.12 58.2378 153.777C50.5445 152.006 42.8512 150.26 35.1579 148.466C34.4165 148.294 33.3348 148.375 33.2695 147.211C33.2042 146.046 33.2695 144.853 34.1694 144.066C35.0693 143.278 36.3002 143.98 37.3679 143.818L40.38 143.741C41.0281 143.718 41.9093 143.684 41.8347 142.863C41.6669 140.916 42.8698 139.332 42.9957 137.547C43.1123 135.863 43.7324 133.925 42.4362 132.441C41.14 130.957 40.6597 128.944 40.0349 127.192C39.5687 125.827 38.6362 123.546 40.8649 122.287C42.0399 117.992 44.567 114.914 48.6328 113.22C48.8892 112.051 48.0873 110.548 49.6632 109.794C49.7285 109.083 49.7891 108.362 49.8498 107.651C49.9896 107.307 50.1295 106.964 50.2647 106.62C50.3999 106.277 50.6144 105.785 50.7869 105.365L50.9128 104.191C51.7288 101.977 51.3185 99.3669 52.997 97.4342L53.1322 96.7136L53.5985 94.2179L50.9641 93.9077C47.5045 93.9077 44.0448 93.9077 40.5898 93.9984C37.9468 94.0638 35.3735 94.8799 33.1576 96.3557C31.3547 98.9517 29.1405 101.221 26.6066 103.07ZM76.1376 164.075C75.2987 165.483 74.9016 167.12 74.9999 168.766C74.9579 169.849 75.2936 170.889 74.5802 171.996C72.8924 174.611 72.967 174.707 76.0816 175.389C76.5774 175.473 77.0395 175.699 77.4136 176.043C77.7878 176.386 78.0584 176.831 78.1938 177.326C78.5761 178.648 77.1447 178.577 76.5852 179.197C75.6247 180.256 74.0814 179.426 72.9343 180.385C73.542 181 74.093 181.671 74.5802 182.39C75.275 183.668 75.5501 185.219 74.5336 186.288C73.9275 186.932 72.6406 186.866 71.8153 185.926C69.6845 183.506 68.7846 184.399 68.2997 187.171C68.1412 188.063 67.5957 189.237 66.4347 189.28C65.2737 189.323 65.0126 187.973 64.3691 187.247C64.1127 186.956 64.1453 186.355 64.136 185.892C64.1034 184.112 63.2035 184.403 62.187 185.028C61.6895 185.277 61.2204 185.581 60.7882 185.935C59.9863 186.718 59.2542 186.799 58.3823 186.054C57.5104 185.31 57.24 184.399 57.8461 183.339C58.4523 182.28 59.0258 181.33 59.5853 180.376C58.9092 179.679 58.2238 179.97 57.6223 179.832C56.2235 179.502 54.7502 178.648 54.6056 177.355C54.4424 175.871 56.0044 175.446 57.3612 175.375C57.7256 175.374 58.0807 175.257 58.3777 175.041C59.0211 174.449 60.0236 173.9 58.8439 172.841C57.7342 171.853 56.8017 170.326 57.8275 169.2C58.9279 167.993 60.5924 168.46 62.0238 169.467C63.3014 170.359 64.0754 169.734 64.108 168.174C63.3387 166.265 63.3946 164.442 64.7561 162.791C65.3343 162.09 65.1105 161.216 65.2224 160.405C64.7841 158.372 68.309 157.571 66.761 155.199C67.2273 154.994 67.5957 154.149 68.1225 154.579C69.5213 155.719 69.7032 154.55 70.2347 153.662C70.7662 152.775 72.2396 152.307 72.3002 152.765C72.58 154.75 73.4053 155.509 75.2843 154.526C75.9604 156.363 77.6156 159.384 77.1493 159.813C75.5407 161.226 76.366 162.677 76.1376 164.075ZM45.6534 184.422C45.2354 184.43 44.8251 184.306 44.4777 184.068C44.1302 183.83 43.862 183.489 43.7091 183.091C43.1589 181.636 42.6833 181.297 41.1167 181.974C39.8251 182.533 39.6666 181.325 40.1842 180.299C40.4546 179.751 41.2519 179.178 40.1842 178.791C38.3191 178.109 37.4938 176.615 39.4568 175.809C41.9793 174.769 38.6688 173.046 40.2914 172.311C40.8136 172.073 41.3964 171.982 41.8254 172.45C42.6647 173.366 43.033 172.979 43.2242 171.972C43.4107 171.08 44.0261 170.579 44.7722 170.145C45.8259 170.894 45.8772 173.39 47.3319 172.698C49.4907 171.667 49.7518 172.311 49.5607 174.225C49.4441 175.403 50.4932 175.761 51.0294 176.439C52.0085 177.641 52.1111 178.496 50.3067 178.582C48.5022 178.667 48.6095 179.35 49.4861 180.591C49.7705 180.987 49.6493 181.679 49.7192 182.237C49.8069 182.259 49.8956 182.276 49.985 182.289C52.1671 182.537 53.2861 185.978 56.0464 184.399C55.6034 186.622 56.9789 188.135 57.7902 189.967C58.4569 191.499 55.9857 190.76 55.2351 191.681C55.3118 191.934 55.4199 192.176 55.5568 192.401C56.2469 193.255 56.7178 194.31 56.0231 195.202C55.3283 196.095 54.5916 195.202 53.8782 194.83C52.4795 194.119 52.4515 195.532 52.0412 196.219C51.6961 196.796 51.4723 197.436 50.6657 197.311C50.3902 197.271 50.1391 197.127 49.9603 196.909C49.7814 196.691 49.6873 196.413 49.6959 196.128C49.5886 194.367 48.9172 193.957 47.4905 195.073C46.9683 195.484 46.2875 195.761 45.7327 195.255C45.0799 194.663 45.2664 193.895 45.7327 193.231C46.8284 191.752 46.3202 191.246 44.6742 191.06C43.7884 190.96 42.5248 189.748 43.6485 189.309C46.3854 188.259 45.5508 186.26 45.6534 184.422Z" fill="#F7C622"/>
<path d="M66.2942 97.5723C69.213 99.1852 72.4302 100.073 75.321 101.829C80.6224 105.05 84.1426 109.507 84.9166 115.782C85.4715 120.282 83.6204 124.567 80.9115 127.712C74.2346 135.476 74.8081 143.426 78.8692 151.935C82.0678 158.644 83.6437 165.706 82.8558 173.194C81.4243 186.77 72.9057 198.266 58.1439 200.294C49.8911 201.434 41.6336 201.391 33.5813 199.077C29.6414 197.946 25.9066 196.066 22.0786 194.529C21.5051 194.491 20.899 193.708 20.3628 194.605C27.0676 199.048 34.3273 202.207 42.2444 203.252C50.4693 204.336 58.7454 204.565 66.7884 201.706C76.5286 198.242 82.147 190.898 84.9726 181.12C87.6956 171.643 85.989 162.543 82.1983 153.672C80.8462 150.503 79.6852 147.268 79.191 143.755C78.8886 141.85 78.9714 139.901 79.4342 138.03C79.8969 136.159 80.7298 134.404 81.8813 132.875C83.9002 130.069 85.8305 127.201 87.1034 123.961C89.817 117.032 88.0359 110.91 83.0796 105.923C78.4822 101.304 72.6959 98.6698 66.2942 97.5723Z" fill="#EC632C"/>
<path d="M53.5695 94.1987L53.1032 96.6992L63.9764 98.9898C63.8785 97.4436 64.7831 97.2241 65.986 97.3959L72.9799 61.2101C73.3157 59.3777 73.6001 57.5357 73.9871 55.7176C75.4605 48.8746 76.4256 41.9266 78.2534 35.1647C78.3186 34.7973 78.3793 34.4346 78.4445 34.0672C78.9947 30.1303 79.088 26.0598 81.5918 22.686L80.4961 21.5073C79.6615 22.3615 79.6242 23.7836 78.5051 24.4325C78.1741 24.6998 78.8875 25.8641 77.6099 25.3869C76.0946 24.8143 74.4906 24.4803 72.924 24.0413C73.0965 26.3652 72.3179 28.4887 71.6231 30.6313C73.1758 31.5857 75.2553 31.1706 76.8592 32.5735C75.9267 33.318 75.1574 32.5735 74.4393 32.7549C73.5068 34.7973 73.3063 37.0496 72.7748 39.1875C73.5768 40.0273 76.4303 39.4117 74.7564 41.9552C73.6234 39.6933 71.2128 40.5666 69.4737 39.8078C69.6788 42.127 68.0749 44.1026 68.3406 46.4504C70.1777 45.7346 71.9076 48.1015 73.8285 46.8656C74.1316 47.8199 73.5954 48.8507 73.2364 49.9053C72.91 51.7791 72.5821 53.6529 72.2526 55.5267C72.2908 55.7617 72.2639 56.003 72.1749 56.2232C72.0859 56.4433 71.9383 56.6335 71.749 56.7722C71.5842 60.6429 70.7802 64.4571 69.3711 68.0531C69.4923 69.1697 70.1451 70.2578 67.9164 69.437C63.3656 67.7525 63.0999 68.0531 62.0788 71.8707C61.928 71.0323 62.0038 70.1677 62.2979 69.3702C62.6056 68.3871 62.1161 67.8909 61.2208 67.9386C59.4817 68.0245 59.5889 69.5611 59.5609 70.6586C59.5376 71.6416 58.302 73.1782 60.3396 73.6124C62.6709 74.0896 64.9603 74.6527 67.2916 74.9677C68.8302 75.1776 68.6204 75.6167 67.7578 76.4374C68.1541 77.869 67.2916 79.1145 67.2076 80.4745C67.1517 82.3833 65.7809 81.5291 65.0442 81.3764C62.9553 80.9326 60.8991 80.3218 58.8569 79.6728C56.437 78.9045 57.5281 81.2905 56.8193 82.0588C56.1106 82.8271 56.395 83.7767 57.5887 83.7958C59.6915 83.8292 61.5892 84.6834 63.5522 85.2274C65.24 85.7046 65.7389 84.8504 66.0886 83.4093C65.6457 84.5832 66.6108 85.6473 66.1352 86.7497C64.466 88.9686 65.9301 91.9988 64.2375 94.3037C63.8692 94.7809 64.7038 96.265 63.5475 96.5799C62.7222 96.8042 62.531 95.4585 61.799 95.1483C61.6638 94.9431 61.5239 94.7379 61.398 94.528C61.398 94.528 61.5286 94.4278 61.5938 94.3705L61.841 95.1102C63.8086 93.836 65.1374 89.0116 64.1723 86.6256C64.0061 86.4391 63.7972 86.2979 63.5644 86.2146C63.3316 86.1313 63.0823 86.1086 62.8388 86.1484C62.4331 87.4511 62.0275 88.7491 61.6265 90.0519C61.7524 91.0062 61.3094 91.178 60.5028 91.0062C59.2719 90.7104 58.0269 90.4813 56.796 90.1807C55.7796 89.9326 54.9962 90.0614 54.6652 91.2401C54.3015 92.5428 55.1035 92.8769 56.0873 93.0725C56.2576 93.1296 56.435 93.1618 56.6142 93.168C57.3509 93.1012 58.1668 93.2061 57.9104 94.1224C57.6773 94.9718 57.1038 94.5137 56.4696 94.1939C56.0108 93.9949 55.5174 93.8928 55.0191 93.8936C54.5207 93.8944 54.0277 93.9982 53.5695 94.1987ZM74.2948 43.5729C74.4096 43.7719 74.4678 43.9997 74.4628 44.2307C74.4579 44.4618 74.39 44.6868 74.2668 44.8804C74.1531 44.6811 74.0955 44.4534 74.1005 44.2226C74.1054 43.9918 74.1727 43.767 74.2948 43.5729Z" fill="#EC632C"/>
<path d="M78.5396 24.4322C79.6586 23.7833 79.6959 22.3612 80.5305 21.507L80.6984 19.4169C81.0776 17.8613 81.4537 16.3056 81.8267 14.7499L82.293 13.0225C82.4795 11.9345 82.6691 10.8465 82.8618 9.75845C82.8618 9.02357 82.8339 8.29823 82.0785 7.89738C81.2253 8.031 80.2648 8.42707 79.7472 7.3152C79.6723 7.1109 79.6463 6.89118 79.6714 6.67447C79.6966 6.45775 79.7721 6.25038 79.8918 6.06973C80.4932 5.48755 81.2626 5.24894 82.0366 5.88361C82.638 5.88361 83.2908 7.01457 83.841 5.80726C84.1161 4.80515 83.7477 3.67419 84.4238 2.7532C81.7382 1.29298 78.6655 1.32162 75.8073 0.462665C72.9491 -0.396289 73.6532 2.67208 72.8978 4.0989L72.8699 5.81681C73.3361 7.2484 71.9373 9.31944 73.7278 10.1116C75.3271 10.8226 75.397 11.7579 74.8422 12.908C74.1008 14.4493 73.0284 13.1704 72.2451 12.908C71.2286 13.7812 72.5668 15.5993 70.7764 15.9859L70.5526 17.0882C70.5852 17.6465 70.6225 18.2001 70.6598 18.7584C70.5665 20.7722 70.8883 22.6666 73.3268 22.6571C75.3457 22.6523 76.8797 23.6353 78.5396 24.4322ZM76.2736 19.8273C76.2176 18.9588 76.4601 18.348 77.4299 18.3003C77.6326 18.2766 77.8378 18.2952 78.0332 18.3552C78.2286 18.4151 78.4101 18.515 78.5666 18.6489C78.7232 18.7828 78.8515 18.9478 78.9438 19.134C79.0362 19.3201 79.0906 19.5235 79.1038 19.7319C79.082 20.1947 78.8828 20.6302 78.5494 20.9438C78.2159 21.2573 77.7752 21.4237 77.3227 21.4068C76.2782 21.4116 76.3155 20.5622 76.2782 19.8273H76.2736ZM77.6397 13.1465C78.106 12.6073 78.4603 11.8104 79.253 11.8724C80.0456 11.9345 80.6518 12.3496 80.5678 13.304C80.5684 13.4918 80.5294 13.6774 80.4535 13.8484C80.3777 14.0193 80.2668 14.1716 80.1283 14.2947C79.9898 14.4179 79.8271 14.5091 79.6511 14.5621C79.4751 14.6151 79.29 14.6287 79.1085 14.602C78.3018 14.54 77.9708 13.8337 77.6397 13.1465ZM73.3128 20.3331C73.1232 20.3549 72.9312 20.335 72.7496 20.2748C72.5681 20.2146 72.4012 20.1155 72.26 19.9841C72.1188 19.8527 72.0066 19.692 71.9309 19.5128C71.8551 19.3335 71.8176 19.1398 71.8208 18.9445C71.7742 18.2478 71.5923 17.3793 72.6507 17.1979C73.7091 17.0166 74.1661 17.7849 74.2687 18.6295C74.3449 18.9843 74.2892 19.3554 74.1125 19.6704C73.9358 19.9854 73.6506 20.2217 73.3128 20.3331ZM73.9982 5.43505C73.9283 4.68585 74.3712 4.31842 75.1172 4.28024C75.9892 4.23252 76.516 4.69063 76.516 5.57822C76.516 6.24152 76.2363 6.85709 75.3923 6.84755C74.5484 6.838 74.0448 6.42284 73.9982 5.43505Z" fill="#F7C622"/>
<path d="M61.3576 61.3579C61.6794 62.5509 60.9846 63.491 60.6116 64.5122C60.9007 65.2614 60.2852 66.5975 61.2877 66.7502C63.9174 67.1511 66.3513 68.8881 69.1629 68.0196C68.7805 66.2826 69.8949 64.7174 69.6944 63.0042L61.3576 61.3579Z" fill="#EC632C"/>
<path d="M64.2141 48.3067C63.9623 49.5793 63.7136 50.8518 63.4681 52.1243C63.7618 54.6725 65.9905 53.9376 67.4173 54.5628C69.4642 52.9117 69.5201 50.4923 69.7812 48.1492C67.9162 47.925 66.0185 45.8826 64.2141 48.3067Z" fill="#EC632C"/>
<path d="M69.1442 68.0196C66.3466 68.8881 63.8987 67.1511 61.269 66.7503C60.2665 66.5976 60.882 65.2614 60.5929 64.5122C58.9722 68.6993 57.9104 73.0909 57.4363 77.5683C57.7021 77.3154 58.2057 77.0529 58.1963 76.8143C58.0658 73.8652 59.7024 74.2327 61.5348 74.8769C62.0477 75.0535 62.5885 75.1489 63.1201 75.2825C63.8243 75.214 64.5312 75.3815 65.1343 75.7597L66.4072 75.9267L67.7827 76.4469C68.6546 75.6261 68.8644 75.1871 67.3164 74.9771C64.9851 74.6622 62.6538 74.1134 60.3645 73.6219C58.3269 73.1876 59.5625 71.6511 59.5858 70.668C59.6138 69.5705 59.5065 68.0339 61.2457 67.948C62.1409 67.9051 62.6445 68.4014 62.3228 69.3796C62.0286 70.1772 61.9529 71.0417 62.1036 71.8801C63.1247 68.0626 63.3905 67.7619 67.9412 69.4464C70.1699 70.2672 69.5172 69.1792 69.3959 68.0626L69.1442 68.0196Z" fill="#C2C2C1"/>
<path d="M66.16 86.745C66.6263 85.6332 65.6704 84.569 66.1134 83.4046C65.7637 84.8362 65.2648 85.6856 63.5769 85.2228C61.614 84.6788 59.7163 83.8246 57.6134 83.7912C56.4198 83.7912 56.1867 82.77 56.8441 82.0542C57.5015 81.3384 56.4618 78.8999 58.8817 79.6682C60.9239 80.3172 62.9801 80.928 65.069 81.3718C65.8057 81.5245 67.1765 82.3882 67.2324 80.4699C65.7171 80.5367 64.3416 79.9927 62.9801 79.4201C61.0265 79.4201 59.2174 78.752 57.385 78.1221C56.4525 80.2695 55.5199 82.4169 55.6785 84.8601C57.8 85.0462 59.9261 85.2371 61.9077 86.139H62.8402C63.0837 86.0992 63.3331 86.1219 63.5659 86.2052C63.7987 86.2885 64.0075 86.4298 64.1737 86.6162L66.16 86.745Z" fill="#C2C2C1"/>
<path d="M61.9258 86.1342C59.9395 85.2276 57.8134 85.0367 55.6919 84.8506V84.884L55.3189 85.5473L54.7034 88.2244C55.953 89.4937 57.6362 89.3267 59.1795 89.656C61.7486 89.8421 61.2823 87.5324 61.9258 86.1342Z" fill="#EC632C"/>
<path d="M57.3994 78.1123C59.2178 78.7422 61.0269 79.3912 62.9945 79.4103C63.6566 78.0551 63.3955 76.6712 63.1344 75.2826C62.6029 75.1489 62.062 75.0535 61.5491 74.8769C59.7167 74.2327 58.0801 73.8653 58.2107 76.8143C58.2107 77.0529 57.7164 77.2915 57.4507 77.5683C57.4642 77.7513 57.4469 77.9354 57.3994 78.1123Z" fill="#EC632C"/>
<path d="M70.7944 15.986C72.5848 15.5994 71.2606 13.7813 72.2631 12.908C73.0464 13.1705 74.1281 14.4494 74.8602 12.908C75.415 11.758 75.3264 10.8227 73.7458 10.1117C71.946 9.31952 73.3308 7.24848 72.8879 5.81689L71.6756 5.85029C72.1739 7.45874 72.0675 9.19966 71.3772 10.732C72.1372 11.6864 71.3166 11.9346 70.6965 12.2686C70.7198 12.7124 70.6965 13.1228 70.109 13.1514H70.1416C71.242 13.872 70.5146 15.0507 70.7944 15.986Z" fill="#ECCB3F"/>
<path d="M59.1655 89.6416C57.6222 89.3266 55.939 89.4936 54.6894 88.21C54.3117 89.5557 53.1134 90.6246 53.4398 92.2184C53.589 92.939 53.272 93.1728 52.5306 93.0344C51.7893 92.896 51.0153 92.7052 50.9313 93.8743L53.5704 94.1845C54.0321 93.9814 54.5295 93.8766 55.0321 93.8766C55.5347 93.8766 56.0321 93.9814 56.4938 94.1845C57.128 94.5042 57.7015 94.9623 57.9346 94.1129C58.191 93.1585 57.3751 93.0678 56.6384 93.1585C56.4592 93.1523 56.2818 93.1202 56.1115 93.0631C55.1277 92.8674 54.3257 92.5334 54.6894 91.2306C55.0205 90.0519 55.8038 89.9231 56.8202 90.1712C58.0512 90.4719 59.2961 90.7009 60.527 90.9968C61.3336 91.1877 61.7766 90.9968 61.6507 90.0424C60.8068 89.9947 59.9255 90.1856 59.1655 89.6416Z" fill="#C2C2C1"/>
<path d="M66.3123 39.7455C65.8988 41.6033 65.487 43.4628 65.0767 45.3239C65.3359 45.6969 65.6908 45.9892 66.1022 46.1686C66.5137 46.348 66.9656 46.4074 67.408 46.3403L68.9746 39.8218C68.1074 39.0965 67.2215 39.0106 66.3123 39.7455Z" fill="#EC632C"/>
<path d="M78.5391 24.4324C76.8792 23.6355 75.3452 22.6525 73.3449 22.6573C70.9064 22.6573 70.5846 20.7724 70.6779 18.7586C69.7454 18.5677 69.0879 19.2978 68.272 19.4935C70.6872 20.0661 69.2558 22.4378 70.137 23.7214C70.7338 23.1631 71.2607 23.2872 71.7456 23.8837C71.9063 23.882 72.0654 23.9162 72.2119 23.9839L72.9439 24.0316C74.5106 24.4706 76.1145 24.8047 77.6298 25.3773C78.9214 25.8545 78.208 24.6997 78.5391 24.4324Z" fill="#ECCB3F"/>
<path d="M71.7692 23.8836C71.3029 23.2871 70.7574 23.163 70.1606 23.7213C69.601 25.8162 68.6405 27.8014 68.5193 30.0203C69.4518 30.7839 70.5429 30.7791 71.6572 30.6216C72.352 28.479 73.1306 26.3555 72.9581 24.0315L72.2308 23.9838C71.6759 26.0262 71.7132 28.3167 69.7036 29.7674C70.1605 27.725 69.9787 25.4774 71.7692 23.8836Z" fill="#E95F88"/>
<path d="M68.3789 31.2465L67.3018 35.7322L67.4836 38.1611C68.8218 38.1372 69.3161 37.1828 69.6285 36.0757C70.0201 34.6776 70.3558 33.2698 70.7148 31.8621C70.0137 31.4228 69.2001 31.2084 68.3789 31.2465Z" fill="#EC632C"/>
<path d="M67.4185 46.3359C66.9765 46.4052 66.5244 46.3472 66.1126 46.1686C65.7009 45.9899 65.3459 45.6976 65.0872 45.3242C64.7047 45.7032 64.4242 46.177 64.2731 46.6995C64.122 47.222 64.1053 47.7756 64.2247 48.3067C66.0104 45.8825 67.9268 47.9249 69.7918 48.1301C70.7943 48.3783 71.9506 47.7579 72.8412 48.6789L73.0743 49.9053H73.2795C73.6385 48.8507 74.1747 47.8295 73.8716 46.8656C71.9506 48.1015 70.2208 45.7346 68.3837 46.4504L67.4185 46.3359Z" fill="#C2C2C1"/>
<path d="M67.4829 38.1711L67.3011 35.7422C65.8743 36.7968 66.3079 38.3286 66.3126 39.7554C67.2451 39.0205 68.1077 39.1064 68.9796 39.8318C69.1457 39.7547 69.3344 39.7462 69.5065 39.8079C71.2456 40.5667 73.6562 39.6934 74.7892 41.9553C76.4631 39.4118 73.6096 40.0465 72.8076 39.1876L71.8751 39.0778L69.9587 38.6006C69.1195 38.5004 68.2149 38.8917 67.4829 38.1711Z" fill="#C2C2C1"/>
<path d="M71.6758 5.85069L72.888 5.8173L72.916 4.09938C72.5764 3.97754 72.2607 3.79496 71.9835 3.56015C71.3774 2.79186 70.6593 1.98539 69.7921 2.85389C69.3889 3.23582 69.1279 3.74931 69.0539 4.30645C68.9799 4.8636 69.0975 5.42975 69.3864 5.90796C70.0812 7.00552 70.9251 6.46627 71.6758 5.85069Z" fill="#71BB6E"/>
<path d="M26.6071 103.07C29.1327 101.219 31.3388 98.9495 33.1348 96.3555C30.0714 97.6725 27.3624 99.3666 26.6071 103.07Z" fill="#ECCB3F"/>
<path d="M70.6833 12.2686C71.3034 11.9346 72.124 11.696 71.364 10.7321C70.5201 10.2549 70.2357 8.57512 68.7903 9.35295C68.0629 9.73948 68.0676 10.5555 67.9883 11.2951C67.7971 13.0321 69.2425 12.7267 70.1284 13.1371H70.0958C69.9932 12.6408 70.3056 12.4261 70.6833 12.2686Z" fill="#71BB6E"/>
<path d="M67.4187 54.5434C65.992 53.9183 63.7632 54.6532 63.4695 52.105C62.6116 52.8876 63.0312 53.9517 62.882 54.887C63.7446 54.93 64.6398 54.8154 65.3485 55.4931L66.1551 55.536L68.0202 55.641L70.1464 56.3854L71.2514 56.729C71.4218 56.6875 71.6004 56.6991 71.7643 56.7624C71.9545 56.6255 72.1031 56.4364 72.193 56.217C72.2829 55.9975 72.3104 55.7565 72.2725 55.5217C72.099 55.5318 71.9262 55.4922 71.7736 55.4072C70.9343 55.6267 70.2023 55.3117 69.4843 54.93C68.7709 54.992 68.0295 55.1256 67.4187 54.5434Z" fill="#C2C2C1"/>
<path d="M61.357 61.3578L69.6751 62.985C70.23 62.7655 70.7382 62.4506 69.8756 62.0306C69.081 61.6857 68.2648 61.3956 67.4324 61.1621C66.5931 61.1621 65.7165 61.3959 65.0218 60.6849L64.1359 60.5752C62.7371 60.9044 62.3362 60.098 62.3501 58.8716C60.984 59.2581 61.2358 60.3366 61.357 61.3578Z" fill="#C2C2C1"/>
<path d="M20.3857 194.61C20.9219 193.713 21.5281 194.496 22.1016 194.534C19.6024 193.055 17.5462 190.788 14.5994 190.096C15.9516 192.377 18.2316 193.413 20.3857 194.61Z" fill="#DFB42A"/>
<path d="M62.3496 58.8622C62.3496 60.0934 62.7226 60.8951 64.1354 60.5658C63.5619 58.657 65.1705 57.2255 65.3477 55.4932C64.6389 54.8156 63.7437 54.9302 62.8811 54.8872L62.6713 55.9704C62.8345 56.4476 63.0863 56.8962 62.4055 57.1539L62.3496 58.8622Z" fill="#EC632C"/>
<path d="M68.2718 19.4937C69.0878 19.298 69.7499 18.5679 70.6777 18.7588C70.6404 18.2005 70.6031 17.6469 70.5705 17.0886C69.7266 16.5303 68.8826 15.1178 67.8569 16.2774C67.0782 17.1745 66.6679 18.6061 68.2718 19.4937Z" fill="#71BB6E"/>
<path d="M68.3794 31.247C69.1991 31.2098 70.0109 31.4242 70.7107 31.8626C70.8825 31.8374 71.0577 31.8588 71.2189 31.9246L72.9674 32.4018C73.4943 32.4018 74.0491 32.292 74.4688 32.7692C75.1868 32.607 75.9608 33.3323 76.8887 32.5879C75.2847 31.1849 73.2052 31.6335 71.6526 30.6457C70.5382 30.8032 69.4565 30.8079 68.5146 30.0444L68.3794 31.247Z" fill="#C2C2C1"/>
<path d="M85.5658 5.8311C85.6871 4.64765 86.8107 3.26855 84.9457 2.49072L84.4421 2.77227C83.7661 3.69326 84.1344 4.82421 83.8593 5.82155C83.8826 6.16513 83.9013 6.50394 83.9199 6.84275C84.7732 7.01455 84.9923 6.11742 85.5658 5.8311Z" fill="#EC632C"/>
<path d="M62.4061 57.1537C63.0868 56.896 62.835 56.4236 62.6719 55.9702C62.1683 56.2661 61.6088 56.5524 62.4061 57.1537Z" fill="#C2C2C1"/>
<path d="M55.295 85.5471L55.668 84.8838L55.295 85.5471Z" fill="#C2C2C1"/>
<path d="M64.117 168.169C64.0844 169.729 63.3104 170.354 62.0328 169.462C60.5874 168.455 58.9229 167.988 57.8365 169.195C56.8107 170.321 57.7432 171.848 58.8529 172.836C60.0373 173.895 59.0348 174.444 58.3867 175.036C58.0898 175.252 57.7346 175.369 57.3702 175.37C55.9714 175.427 54.4514 175.847 54.6146 177.35C54.7592 178.643 56.2279 179.498 57.6313 179.827C58.2328 179.965 58.9182 179.674 59.5943 180.371C59.0348 181.325 58.438 182.327 57.8598 183.339C57.2816 184.351 57.4821 185.248 58.396 186.054C59.3099 186.861 59.9999 186.718 60.8019 185.935C61.234 185.581 61.7032 185.277 62.2007 185.028C63.2311 184.403 64.117 184.112 64.1497 185.892C64.1497 186.369 64.1264 186.956 64.3828 187.247C65.0262 187.973 65.2361 189.323 66.4483 189.28C67.6606 189.237 68.1688 188.063 68.3134 187.171C68.7796 184.398 69.7122 183.506 71.829 185.925C72.6543 186.88 73.9412 186.932 74.5473 186.288C75.5638 185.219 75.2887 183.668 74.5939 182.389C74.1067 181.671 73.5557 181 72.948 180.385C74.095 179.431 75.6384 180.256 76.5989 179.197C77.1584 178.577 78.5898 178.648 78.2075 177.326C78.0721 176.831 77.8015 176.386 77.4273 176.043C77.0531 175.699 76.591 175.473 76.0953 175.389C72.9807 174.707 72.9061 174.611 74.5939 171.996C75.3073 170.889 74.9716 169.849 75.0136 168.765C72.5237 167.844 70.9524 170.197 68.719 170.774C68.6304 169.982 68.5325 169.343 68.4952 168.727C68.4113 167.267 68.029 165.711 66.6069 165.387C64.8864 164.976 64.9656 166.971 64.3082 167.964C64.2483 168.036 64.1844 168.104 64.117 168.169ZM66.3784 179.994C64.4154 180.108 63.0726 179.159 63.1146 177.174C63.1659 175.026 65.1148 174.52 66.7188 174.353C68.3227 174.186 69.4837 175.341 69.5163 177.064C69.549 179.097 68.3507 180.075 66.3784 179.994Z" fill="#E95F88"/>
<path d="M37.359 143.798C36.2913 143.961 35.0837 143.207 34.1605 144.046C33.2373 144.886 33.1953 146.06 33.2606 147.191C33.3259 148.322 34.4076 148.274 35.1489 148.446C42.8376 150.24 50.5356 151.987 58.2289 153.757C59.7209 154.101 60.8353 154.072 61.2969 152.097C61.7585 150.121 60.9145 149.339 59.2127 148.99C58.047 148.747 56.8814 148.427 55.7344 148.141C52.9928 147.158 49.7942 148.141 47.3044 146.094L46.3998 145.936C43.3272 145.492 40.2685 144.982 37.359 143.798Z" fill="#4A4949"/>
<path d="M47.3035 146.094C49.7933 148.155 52.9919 147.158 55.7335 148.141C54.013 146.538 53.4255 144.323 54.3347 142.386C55.0668 140.797 54.8523 138.888 56.1345 137.519C56.4282 137.208 56.2557 136.44 56.2977 135.882L55.575 135.748L54.8896 135.887C53.999 136.645 52.9499 136.364 51.9428 136.364L50.7072 136.283L48.2314 135.629C48.1463 135.645 48.0588 135.642 47.9751 135.619C47.8914 135.597 47.8135 135.556 47.7468 135.5C47.6802 135.444 47.6264 135.373 47.5893 135.293C47.5522 135.213 47.5326 135.126 47.532 135.037C47.0612 134.98 46.6084 134.818 46.2056 134.563C45.8027 134.307 45.4597 133.964 45.2007 133.558C44.7577 133.558 44.3754 133.505 44.3334 132.938C41.3074 130.031 40.636 126.324 40.8784 122.301C38.645 123.561 39.5636 125.842 40.0485 127.206C40.6733 128.948 41.1209 130.929 42.4497 132.456C43.7786 133.983 43.1258 135.877 43.0092 137.562C42.8834 139.346 41.6804 140.931 41.8483 142.878C41.9229 143.698 41.0416 143.732 40.3935 143.756L37.3815 143.832C40.2909 145.015 43.3496 145.526 46.4223 145.97C47.1543 144.677 47.7465 143.369 47.5133 141.794C47.2429 139.943 48.3573 138.659 49.439 137.352C49.1986 140.137 48.8032 142.906 48.2547 145.645C48.1894 145.827 47.6252 145.936 47.3035 146.094ZM51.1735 145.693C49.7747 142.734 51.8309 140.286 52.0454 137.619C52.0827 137.142 52.6655 137.013 53.1504 137.051C53.6353 137.089 53.9617 137.399 53.7472 137.733C52.2086 140.148 53.8964 143.56 51.1735 145.693Z" fill="#ECCB3F"/>
<path d="M45.6536 184.422C45.551 186.259 46.3856 188.24 43.6906 189.323C42.567 189.762 43.8305 190.974 44.7164 191.074C46.3623 191.26 46.8706 191.766 45.7748 193.245C45.3086 193.909 45.1267 194.677 45.7748 195.269C46.3297 195.775 47.0104 195.498 47.5327 195.087C48.9594 193.971 49.6308 194.381 49.7381 196.142C49.7295 196.427 49.8236 196.705 50.0024 196.923C50.1813 197.141 50.4324 197.285 50.7079 197.325C51.5145 197.45 51.7383 196.81 52.0834 196.233C52.4937 195.546 52.5263 194.133 53.9204 194.844C54.6338 195.207 55.4171 196.085 56.0652 195.216C56.7133 194.348 56.2657 193.269 55.599 192.415C55.4621 192.19 55.354 191.948 55.2773 191.695C56.0279 190.774 58.4991 191.513 57.8324 189.981C57.0351 188.149 55.6456 186.641 56.0885 184.413C53.291 185.992 52.1859 182.551 50.0272 182.303C49.9378 182.29 49.849 182.273 49.7614 182.251V182.203C50.3395 185.844 48.2134 184.727 46.4136 184.188L45.6536 184.422ZM49.0527 189.609C49.2065 188.502 49.8173 187.796 51.0529 187.872C51.2853 187.873 51.5152 187.922 51.7293 188.015C51.9433 188.107 52.1372 188.243 52.2998 188.413C52.4624 188.583 52.5905 188.784 52.6766 189.005C52.7627 189.226 52.8051 189.462 52.8014 189.7C52.862 190.931 52.0461 191.609 50.9364 191.685C49.6541 191.757 49.1459 190.874 49.0527 189.609Z" fill="#603779"/>
<path d="M45.6527 184.422L46.3754 184.188C46.0956 182.318 45.8765 180.547 48.6367 182.127C48.9212 182.289 49.3594 182.184 49.7231 182.203V182.251C49.6532 181.693 49.7744 181.001 49.49 180.605C48.6134 179.364 48.5015 178.696 50.3106 178.596C52.1197 178.495 52.0125 177.641 51.0333 176.453C50.4831 175.775 49.448 175.417 49.5646 174.239C49.7558 172.33 49.4947 171.681 47.3359 172.712C45.8811 173.404 45.8298 170.908 44.7761 170.159C44.0301 170.593 43.4146 171.113 43.2281 171.986C43.0183 172.979 42.6499 173.365 41.8293 172.464C41.4004 171.986 40.8175 172.087 40.2953 172.325C38.6727 173.06 41.9832 174.783 39.4607 175.823C37.4978 176.629 38.3137 178.123 40.1881 178.805C41.2512 179.192 40.4538 179.76 40.1881 180.313C39.6938 181.339 39.8524 182.547 41.1206 181.988C42.6872 181.311 43.1628 181.65 43.713 183.105C43.8679 183.5 44.1363 183.837 44.4827 184.072C44.829 184.308 45.2371 184.43 45.6527 184.422ZM44.86 178.815C43.8063 178.872 43.0416 178.648 43.0276 177.355C43.0276 176.195 43.2514 175.37 44.6269 175.346C45.8811 175.346 46.45 175.823 46.422 177.15C46.4033 178.276 46.0163 178.944 44.86 178.815Z" fill="#71BB6E"/>
<path d="M55.5563 135.748L56.279 135.882C65.4084 131.95 65.5809 122.258 61.6457 117.013C61.3439 116.662 61.0166 116.335 60.6665 116.035L59.6361 116.145C58.2746 122.679 56.9147 129.214 55.5563 135.748Z" fill="#4A4949"/>
<path d="M76.137 164.075C76.3655 162.677 75.5402 161.212 77.1441 159.823C77.6384 159.393 75.9738 156.373 75.2791 154.536C73.414 155.519 72.5748 154.76 72.295 152.775C72.2344 152.298 70.7796 152.775 70.2295 153.672C69.6793 154.569 69.5161 155.729 68.1173 154.588C67.5904 154.159 67.2221 155.003 66.7558 155.208C68.3038 157.594 64.7789 158.382 65.2171 160.415C68.3318 160.51 67.4972 162.085 66.2849 163.755C66.8444 163.86 67.3107 164.084 67.7163 163.998C69.1571 163.688 70.719 162.739 70.8962 165.487C70.9522 166.337 71.6422 165.75 72.1038 165.487C73.0364 164.943 72.4628 163.693 73.4327 162.968C73.9456 164.266 75.0739 164.099 76.137 164.075ZM73.0037 159.46C72.7519 160.205 73.3487 161.703 71.8194 161.679C70.4206 161.679 69.5534 160.658 69.4881 159.174C69.4228 157.995 69.8658 157.299 71.2086 157.265C72.71 157.241 73.0737 158.043 73.013 159.46H73.0037Z" fill="#219DC0"/>
<path d="M40.8421 122.277C40.5996 126.3 41.271 130.008 44.2924 132.914C45.9989 126.409 47.6868 119.896 48.8711 113.258L48.61 113.201C44.5722 114.904 42.031 117.982 40.8421 122.277Z" fill="#4A4949"/>
<path d="M62.9105 102.946C63.4048 101.925 64.0482 100.932 63.4234 99.7247C59.8908 99.195 56.3969 98.4234 52.9652 97.415C51.2866 99.3477 51.6969 101.958 50.881 104.172C54.4945 105.313 58.3691 105.379 61.8941 106.902C62.8546 106.028 63.0038 104.907 62.8266 103.685C60.4254 103.251 58.0288 102.807 55.6275 102.402C55.0913 102.311 54.7556 102.082 54.8162 101.528C54.8629 101.051 55.1566 101.085 55.5856 101.194C58.0334 101.81 60.4766 102.368 62.9105 102.946Z" fill="#EC632C"/>
<path d="M76.1387 164.075C75.0756 164.075 73.9706 164.266 73.453 162.977C72.4832 163.703 73.0567 164.953 72.1242 165.497C71.6579 165.769 70.9725 166.356 70.9165 165.497C70.7394 162.748 69.1774 163.698 67.7366 164.008C67.331 164.094 66.8647 163.87 66.3052 163.765C67.5175 162.075 68.3521 160.501 65.2375 160.424C65.1209 161.221 65.3447 162.095 64.7712 162.81C63.4097 164.461 63.3724 166.275 64.1231 168.193C64.186 168.125 64.2452 168.053 64.3003 167.978C64.9577 166.986 64.8785 164.991 66.599 165.401C67.9978 165.736 68.4034 167.31 68.4873 168.742C68.5246 169.372 68.6225 169.997 68.7111 170.789C70.9445 170.212 72.5158 167.859 75.0057 168.78C74.9031 167.13 75.2986 165.487 76.1387 164.075Z" fill="#ECCB3F"/>
<path d="M48.6229 113.201L48.884 113.258C49.0818 113.209 49.2905 113.241 49.4651 113.348C49.6396 113.456 49.7659 113.629 49.8165 113.831L51.9334 114.341C52.1062 114.237 52.3103 114.202 52.507 114.241C52.7037 114.281 52.8795 114.393 53.0011 114.556L55.393 115.31C55.752 115.038 55.752 114.222 56.4608 114.542C56.526 114.575 56.3722 115.114 56.3209 115.42L58.5589 115.601C59.0998 115.41 59.5194 115.472 59.65 116.145L60.6804 116.035C60.4893 114.99 61.3378 113.974 60.7504 112.919C58.1206 112.332 55.5003 111.664 52.8472 111.192C51.6489 110.982 50.3807 111.158 49.6953 109.808L49.6673 109.774C48.0774 110.528 48.8793 112.032 48.6229 113.201Z" fill="#EC632C"/>
<path d="M49.8397 107.637C49.779 108.348 49.7184 109.068 49.6532 109.775L49.6811 109.808C53.5651 110.047 57.2672 111.24 61.016 112.161C61.7899 111.908 61.7713 111.23 61.8086 110.586L49.8397 107.637Z" fill="#EC632C"/>
<path d="M50.7768 105.346C50.6043 105.766 50.4318 106.186 50.2546 106.601C53.9568 108.032 57.9293 108.333 61.706 109.464C61.7387 108.887 61.776 108.314 61.8086 107.736L50.7768 105.346Z" fill="#EC632C"/>
<path d="M50.777 105.346L61.8088 107.732C61.8461 107.46 61.8787 107.188 61.916 106.916C58.3911 105.394 54.5164 105.327 50.9029 104.187L50.777 105.346Z" fill="#C2C2C1"/>
<path d="M61.7057 109.445C57.929 108.333 53.9564 108.042 50.2543 106.582C50.1191 106.926 49.9792 107.269 49.8393 107.613L61.8223 110.586C61.7756 110.228 61.7383 109.827 61.7057 109.445Z" fill="#C2C2C1"/>
<path d="M52.9643 97.4151C56.3959 98.4251 59.8899 99.1983 63.4226 99.7295L63.9961 98.9994L53.1229 96.7041C53.0809 96.9332 53.0343 97.1766 52.9643 97.4151Z" fill="#C2C2C1"/>
<path d="M61.0176 112.16C57.2875 111.23 53.5574 110.046 49.6828 109.808C50.3682 111.158 51.6364 110.982 52.8347 111.191C55.4877 111.669 58.1081 112.332 60.7378 112.919L61.0176 112.16Z" fill="#C2C2C1"/>
<path d="M62.9102 102.946C60.4763 102.368 58.0331 101.81 55.6132 101.194C55.1842 101.085 54.8905 101.056 54.8438 101.528C54.7832 102.082 55.1189 102.311 55.6551 102.402C58.0564 102.807 60.453 103.251 62.8542 103.685L62.9102 102.946Z" fill="#C2C2C1"/>
<path d="M67.4174 61.1672C68.2498 61.4007 69.066 61.6908 69.8606 62.0357C70.7232 62.47 70.2149 62.7849 69.6601 62.9901C69.8606 64.7032 68.7276 66.2684 69.1285 68.0054L69.3896 68.0293C70.7988 64.4333 71.6028 60.6191 71.7676 56.7484C71.6021 56.6852 71.422 56.6736 71.25 56.7149C71.0495 57.8077 70.7838 58.891 70.6719 59.9933C70.5739 60.7711 70.2849 61.2149 69.4876 61.1911C69.3255 61.208 69.1618 61.1839 69.011 61.1208C68.8602 61.0578 68.7268 60.9577 68.6227 60.8295C68.5186 60.7012 68.4469 60.5487 68.414 60.3854C68.381 60.2221 68.3878 60.0531 68.4338 59.8931C68.6436 58.5569 68.5923 57.0299 70.145 56.3714L68.0188 55.627C67.9396 57.4976 67.1516 59.2727 67.4174 61.1672Z" fill="#E95F88"/>
<path d="M63.119 75.2824C63.3801 76.6711 63.6412 78.0549 62.9791 79.4102C64.3406 80.0067 65.716 80.5268 67.2314 80.46C67.3013 79.1 68.1639 77.8497 67.7816 76.4229L66.4061 75.9028C66.3781 76.5518 66.3408 77.196 66.3315 77.845C66.3315 78.8328 65.9585 79.6011 64.8861 79.2766C63.4407 78.7994 64.8068 78.222 64.9094 77.6732C65.026 77.0433 65.0633 76.3943 65.1332 75.7644C64.5306 75.3845 63.8237 75.2153 63.119 75.2824Z" fill="#E95F88"/>
<path d="M66.1602 86.7448L64.1972 86.6064C65.1624 88.9924 63.8335 93.8169 61.8659 95.091L61.8239 95.1244C62.556 95.4537 62.7564 96.7994 63.5724 96.556C64.7101 96.241 63.8941 94.7761 64.2625 94.2798C65.955 92.0035 64.4909 88.9638 66.1602 86.7448Z" fill="#E95F88"/>
<path d="M81.626 22.6862C84.4235 21.8225 83.6915 20.1475 82.5818 18.3914C81.7285 18.3055 81.6493 19.7324 80.7167 19.427L80.5489 21.5171L81.626 22.6862Z" fill="#71BB6E"/>
<path d="M74.4727 32.745C74.053 32.2678 73.4982 32.3776 72.9713 32.3776C73.2744 34.7254 72.4351 36.8728 71.8709 39.0583L72.8034 39.1681C73.3396 37.0255 73.5355 34.7874 74.4727 32.745Z" fill="#E95F88"/>
<path d="M69.5071 39.7981C69.335 39.7364 69.1463 39.745 68.9802 39.822L67.4183 46.3405L68.3788 46.4407C68.1176 44.112 69.7123 42.1173 69.5071 39.7981Z" fill="#E95F88"/>
<path d="M71.7868 55.4071C71.9394 55.4921 72.1122 55.5318 72.2857 55.5216C72.6152 53.6447 72.9431 51.7693 73.2695 49.8955H73.0644C71.8894 51.5562 71.6842 53.4411 71.7868 55.4071Z" fill="#E95F88"/>
<path d="M59.1658 89.6414C59.9258 90.1997 60.8071 89.9945 61.651 90.047C62.052 88.7443 62.4576 87.4463 62.8633 86.1436H61.9308C61.2827 87.5322 61.7489 89.8418 59.1658 89.6414Z" fill="#E95F88"/>
<path d="M74.2965 43.5728C74.1744 43.7668 74.1071 43.9917 74.1022 44.2225C74.0972 44.4532 74.1548 44.6809 74.2686 44.8803C74.3917 44.6866 74.4596 44.4616 74.4646 44.2306C74.4695 43.9996 74.4113 43.7717 74.2965 43.5728Z" fill="#C2C2C1"/>
<path d="M61.8652 95.0908L61.6181 94.3511C61.5528 94.4083 61.4176 94.499 61.4223 94.5086C61.5482 94.7185 61.6881 94.9237 61.8233 95.1289L61.8652 95.0908Z" fill="#E95F88"/>
<path d="M83.0389 16.0767C84.1113 16.2915 85.1744 16.5539 85.4961 14.9696C85.7619 13.6335 85.7526 12.5407 84.0274 12.4644L82.2882 13.0227C82.1344 13.5953 81.9805 14.1727 81.822 14.7501C82.7032 14.7358 82.8058 15.4468 83.0389 16.0767Z" fill="#71BB6E"/>
<path d="M76.2772 19.8274C76.3192 20.5622 76.2772 21.4117 77.3263 21.4212C77.7788 21.4381 78.2196 21.2717 78.553 20.9581C78.8864 20.6446 79.0856 20.2091 79.1074 19.7462C79.0942 19.5379 79.0398 19.3345 78.9475 19.1483C78.8551 18.9622 78.7268 18.7972 78.5703 18.6633C78.4137 18.5294 78.2323 18.4295 78.0369 18.3695C77.8415 18.3096 77.6362 18.291 77.4335 18.3147C76.4591 18.3481 76.2166 18.9589 76.2772 19.8274Z" fill="#C2C2C1"/>
<path d="M77.6397 13.1468C77.9707 13.8387 78.3018 14.5402 79.1084 14.607C79.29 14.6338 79.475 14.6202 79.651 14.5671C79.827 14.5141 79.9898 14.4229 80.1282 14.2998C80.2667 14.1766 80.3776 14.0244 80.4535 13.8534C80.5293 13.6825 80.5683 13.4968 80.5678 13.3091C80.6704 12.3547 79.9943 11.9347 79.2529 11.8775C78.5116 11.8202 78.1199 12.6076 77.6397 13.1468Z" fill="#F4F2F2"/>
<path d="M73.3126 20.3332C73.6494 20.2219 73.9338 19.9864 74.1104 19.6724C74.2871 19.3584 74.3434 18.9885 74.2684 18.6344C74.1658 17.785 73.7462 17.0072 72.6505 17.2028C71.5548 17.3985 71.7739 18.2527 71.8205 18.9494C71.818 19.1443 71.8561 19.3375 71.9321 19.5161C72.0081 19.6948 72.1204 19.8549 72.2615 19.9858C72.4026 20.1167 72.5693 20.2153 72.7505 20.2752C72.9317 20.3351 73.1233 20.3549 73.3126 20.3332Z" fill="#C2C2C1"/>
<path d="M73.9971 5.4355C74.0437 6.4233 74.5286 6.83846 75.3958 6.86709C76.2631 6.89572 76.5055 6.26105 76.5195 5.59775C76.5195 4.71016 75.988 4.25205 75.1207 4.29977C74.3701 4.31886 73.9458 4.6863 73.9971 5.4355Z" fill="#F4F2F2"/>
<path d="M82.0491 5.88366C81.2798 5.24899 80.5104 5.4876 79.9089 6.06978C79.7893 6.25043 79.7137 6.4578 79.6886 6.67452C79.6634 6.89123 79.6894 7.11095 79.7644 7.31525C80.2586 8.42712 81.2191 8.03105 82.0957 7.89743C82.0677 7.22459 82.0584 6.55651 82.0491 5.88366Z" fill="#F4F2F2"/>
<path d="M82.2869 13.0225L84.0261 12.4642C84.2639 11.4191 84.4924 10.3693 84.7441 9.31944C84.4364 8.87564 84.1287 8.42708 83.8116 7.97852L82.8418 9.75845C82.6584 10.8465 82.4734 11.9345 82.2869 13.0225Z" fill="#EC632C"/>
<path d="M83.0371 16.0768C82.8273 15.4469 82.7014 14.7359 81.8202 14.7502C81.4472 16.3059 81.0726 17.8615 80.6965 19.4172C81.6663 19.7226 81.7269 18.2958 82.5615 18.3817C82.7294 17.6134 82.8832 16.8451 83.0371 16.0768Z" fill="#EC632C"/>
<path d="M82.8559 9.75868C83.1776 9.16696 83.4993 8.57047 83.8257 7.97875C83.8583 7.59222 83.891 7.21046 83.9189 6.82393C83.9469 6.4374 83.8816 6.14632 83.8583 5.80273C83.3081 7.01481 82.6554 5.87908 82.0539 5.88385C82.0539 6.5567 82.0539 7.22477 82.0539 7.89762C82.8046 8.29847 82.8512 9.0238 82.8559 9.75868Z" fill="#ECCB3F"/>
<path d="M83.9195 6.82395C83.8916 7.21048 83.8589 7.59224 83.8263 7.97877C84.1294 8.42734 84.4371 8.8759 84.7588 9.31969C85.7706 9.96868 86.6798 10.0069 87.1787 8.70888C87.7848 7.12936 86.843 6.36585 85.5794 5.8457C84.9919 6.11771 84.7728 7.01483 83.9195 6.82395Z" fill="#71BB6E"/>
<path d="M67.4187 54.5434C68.0295 55.1256 68.7709 54.992 69.4983 54.9347C69.088 53.3313 70.7012 52.2433 70.5846 50.7879C70.4354 48.9363 71.3447 48.5594 72.832 48.6787C71.9415 47.7577 70.7851 48.378 69.7827 48.1299C69.5216 50.4729 69.4656 52.8923 67.4187 54.5434Z" fill="#E95F88"/>
<path d="M65.1334 75.7358C65.0634 76.3753 65.0261 77.0243 64.9095 77.6446C64.807 78.1934 63.4408 78.7899 64.8862 79.248C65.9586 79.5916 66.3177 78.8233 66.3316 77.8164C66.3316 77.1675 66.3783 76.5232 66.4062 75.8742L65.1334 75.7358Z" fill="#EC632C"/>
<path d="M70.6831 12.2686C70.2915 12.426 69.9791 12.6408 70.0956 13.1514C70.6831 13.1227 70.7204 12.7123 70.6831 12.2686Z" fill="#FDFDFC"/>
<path d="M71.7689 23.8838C69.9784 25.4776 70.1603 27.7252 69.7033 29.7676C71.7129 28.336 71.6756 26.0264 72.2305 23.984C72.0851 23.9181 71.9279 23.884 71.7689 23.8838Z" fill="#EC632C"/>
<path d="M71.2227 31.9243C71.0615 31.8585 70.8862 31.8372 70.7144 31.8623C70.3554 33.2939 70.0197 34.6777 69.628 36.0759C69.3156 37.183 68.8214 38.1374 67.4832 38.1612C68.2153 38.8914 69.1198 38.5001 69.9544 38.5717C70.3772 36.3575 70.7999 34.1417 71.2227 31.9243Z" fill="#E95F88"/>
<path d="M72.8313 48.669C71.3439 48.5497 70.4347 48.9267 70.5839 50.7782C70.7005 52.2098 69.0872 53.3216 69.4976 54.925C70.2156 55.302 70.9476 55.617 71.7869 55.4022C71.6843 53.4409 71.8895 51.5513 73.0645 49.9002C72.9852 49.4993 72.9106 49.0889 72.8313 48.669Z" fill="#EC632C"/>
<path d="M71.2236 31.9243C70.804 34.1512 70.3812 36.367 69.9554 38.5717L71.867 39.0489C72.4359 36.8538 73.2658 34.7064 72.9721 32.3681L71.2236 31.9243Z" fill="#EC632C"/>
<path d="M67.4181 61.167C67.1383 59.2583 67.9263 57.4974 68.0195 55.6411L66.1545 55.5361C65.7753 57.2509 65.396 58.964 65.0168 60.6755C65.7162 61.4009 66.5928 61.1861 67.4181 61.167Z" fill="#EC632C"/>
<path d="M70.1606 56.3853C68.6079 57.0581 68.6592 58.5708 68.4494 59.907C68.4034 60.0669 68.3966 60.236 68.4296 60.3993C68.4625 60.5626 68.5342 60.7151 68.6383 60.8434C68.7424 60.9716 68.8758 61.0717 69.0266 61.1347C69.1774 61.1978 69.3411 61.2219 69.5032 61.205C70.3005 61.2288 70.5895 60.785 70.6875 60.0072C70.818 58.9049 71.0651 57.8216 71.2656 56.7289L70.1606 56.3853Z" fill="#EC632C"/>
<path d="M65.0225 60.6755C65.3986 58.964 65.7778 57.2509 66.1602 55.5361L65.3489 55.4932C65.1717 57.2445 63.5631 58.6331 64.1366 60.5658L65.0225 60.6755Z" fill="#E95F88"/>
<path d="M66.379 179.994C68.3699 180.075 69.5496 179.097 69.5169 177.064C69.4889 175.341 68.3559 174.201 66.7193 174.354C65.0828 174.506 63.1664 175.026 63.1152 177.174C63.0732 179.159 64.416 180.109 66.379 179.994Z" fill="#71BB6E"/>
<path d="M47.3031 146.094C47.6248 145.936 48.189 145.826 48.2356 145.616C48.7841 142.877 49.1795 140.108 49.4199 137.323C48.3382 138.63 47.2238 139.914 47.4943 141.765C47.7274 143.34 47.1352 144.629 46.4032 145.941L47.3031 146.094Z" fill="#F7C622"/>
<path d="M58.5586 115.601L56.3205 115.419C54.7772 122.377 53.0008 129.258 51.9377 136.34C52.9448 136.34 53.9939 136.645 54.8845 135.863C55.2388 133.854 55.6025 131.849 55.9475 129.84C56.7495 125.102 58.2695 120.468 58.5586 115.601Z" fill="#4A4949"/>
<path d="M55.3809 115.31L52.9889 114.556C52.8211 115.085 52.6159 115.606 52.4994 116.14C51.0633 122.63 49.635 129.118 48.2144 135.605L50.6903 136.259C52.2538 129.279 53.8173 122.296 55.3809 115.31Z" fill="#4A4949"/>
<path d="M51.9199 114.341L49.8031 113.831C48.2489 120.403 46.7071 126.971 45.1778 133.534C45.4368 133.94 45.7798 134.283 46.1827 134.539C46.5855 134.795 47.0383 134.957 47.5091 135.013C47.6909 134.011 47.8541 133.004 48.0686 132.012C49.3493 126.12 50.633 120.23 51.9199 114.341Z" fill="#4A4949"/>
<path d="M51.9206 114.341C50.6368 120.23 49.3546 126.115 48.0739 131.998C47.8594 132.99 47.6962 133.997 47.5144 134.999C47.515 135.088 47.5345 135.175 47.5717 135.255C47.6088 135.335 47.6626 135.406 47.7292 135.462C47.7959 135.518 47.8738 135.559 47.9575 135.581C48.0412 135.604 48.1287 135.607 48.2138 135.591C49.6405 129.101 51.0688 122.613 52.4987 116.126C52.6153 115.592 52.8204 115.071 52.9883 114.542C52.8647 114.381 52.688 114.272 52.4914 114.235C52.2948 114.198 52.0918 114.236 51.9206 114.341Z" fill="#A19088"/>
<path d="M55.3793 115.31C53.8251 122.293 52.2615 129.276 50.6887 136.259L51.9243 136.34C52.9874 129.282 54.7638 122.377 56.3071 115.419C56.3584 115.114 56.5123 114.575 56.447 114.541C55.7383 114.222 55.7383 115.038 55.3793 115.31Z" fill="#A19088"/>
<path d="M58.5593 115.601C58.2842 120.468 56.7642 125.102 55.9483 129.864C55.6032 131.873 55.2396 133.877 54.8852 135.886L55.5706 135.748C56.929 129.214 58.2889 122.679 59.6504 116.145C59.4919 115.477 59.0862 115.41 58.5593 115.601Z" fill="#A19088"/>
<path d="M45.1774 133.534C46.7316 126.968 48.2734 120.4 49.8027 113.83C49.7521 113.629 49.6258 113.455 49.4513 113.348C49.2768 113.241 49.068 113.209 48.8702 113.258C47.6859 119.896 45.998 126.409 44.2915 132.914C44.3521 133.481 44.7345 133.558 45.1774 133.534Z" fill="#A19088"/>
<path d="M51.1742 145.693C53.9112 143.56 52.2093 140.148 53.748 137.733C53.9625 137.399 53.5708 137.084 53.1512 137.051C52.7315 137.017 52.0834 137.118 52.0461 137.619C51.8316 140.291 49.7568 142.734 51.1742 145.693Z" fill="#F7C622"/>
<path d="M49.053 189.609C49.1463 190.893 49.6545 191.757 50.9181 191.685C52.0511 191.623 52.8671 190.931 52.7831 189.7C52.7868 189.462 52.7444 189.226 52.6583 189.005C52.5722 188.784 52.4442 188.583 52.2816 188.413C52.1189 188.243 51.925 188.108 51.711 188.015C51.497 187.922 51.2671 187.874 51.0347 187.872C49.8177 187.796 49.2069 188.488 49.053 189.609Z" fill="#ECCB3F"/>
<path d="M49.7007 182.203C49.337 182.203 48.8988 182.289 48.6143 182.127C45.8541 180.547 46.0732 182.318 46.353 184.188C48.1761 184.728 50.3022 185.844 49.7007 182.203Z" fill="#F7C622"/>
<path d="M44.8609 178.815C46.0172 178.925 46.4042 178.276 46.4228 177.15C46.4508 175.847 45.882 175.327 44.6277 175.346C43.2523 175.346 43.0191 176.195 43.0285 177.355C43.0425 178.648 43.8071 178.872 44.8609 178.815Z" fill="#A19088"/>
<path d="M73.0134 159.46C73.0833 158.029 72.7196 157.241 71.2089 157.27C69.8661 157.298 69.4232 157.995 69.4884 159.179C69.563 160.663 70.421 161.665 71.8197 161.684C73.3491 161.703 72.7523 160.205 73.0134 159.46Z" fill="#A19088"/>
</svg>
