<svg width="272" height="158" viewBox="0 0 272 158" fill="none" xmlns="http://www.w3.org/2000/svg">
<path d="M40.911 154.557C32.911 152.557 27.011 148.097 23.691 140.427C23.331 138.137 21.551 138.237 19.901 138.277C16.281 138.377 12.651 138.557 9.03098 138.707C-0.529016 134.707 -2.58901 128.097 3.28099 119.847C4.40704 118.411 4.95629 116.607 4.82102 114.787C3.82102 101.067 4.29102 87.0471 1.50102 73.7071C-1.28898 60.3671 4.72103 50.1171 9.14103 39.4671C14.201 27.2871 24.141 18.5771 36.141 12.4671C45.141 7.92714 54.561 6.16715 64.451 5.59715C84.641 4.42715 104.811 2.76715 125.011 1.84715C134.461 1.41715 144.011 1.60713 153.371 0.51713C169.131 -1.31287 184.021 1.93712 198.791 6.75712C208.281 9.85712 215.791 16.2371 223.971 21.5671C224.272 21.6388 224.581 21.6757 224.891 21.6771L224.801 21.6072C231.641 28.9672 239.051 35.8071 244.961 44.0071C245.261 44.4271 246.181 44.4071 246.811 44.5871L250.931 46.6371C252.311 50.7371 251.011 55.2271 252.811 59.2771C258.221 71.4682 261.011 84.6594 261.001 97.9971C260.922 99.3928 261.118 100.791 261.58 102.11C262.042 103.43 262.759 104.645 263.691 105.687C265.264 107.298 266.305 109.352 266.673 111.573C267.042 113.794 266.72 116.075 265.751 118.107C263.651 122.977 259.751 124.427 254.991 124.637C249.681 124.877 244.381 125.217 239.071 125.507C237.191 125.607 235.521 125.797 234.651 127.957C229.201 141.547 218.931 146.957 204.651 145.497C196.861 142.907 189.531 139.727 186.411 131.197C184.581 126.047 180.341 128.867 177.491 129.007C146.241 130.707 115.051 132.707 83.861 134.407C77.391 134.757 72.631 134.987 69.111 142.507C63.791 153.827 52.721 156.097 40.911 154.557ZM26.641 132.707C27.091 133.947 27.551 135.187 28.011 136.427C29.1781 139.595 31.103 142.429 33.6178 144.682C36.1325 146.935 39.1606 148.537 42.4375 149.35C45.7144 150.163 49.1404 150.161 52.4164 149.345C55.6924 148.529 58.7187 146.923 61.231 144.667C65.731 140.667 67.231 135.287 68.351 129.667C85.201 128.857 102.051 128.107 118.881 126.827C132.741 125.777 146.671 125.697 160.521 124.557C170.081 123.767 179.741 124.557 189.201 122.557C192.341 134.057 199.541 140.447 209.491 140.557C220.941 140.677 228.221 133.917 230.871 120.657C239.171 119.327 247.601 120.097 255.931 118.887C259.491 118.377 261.631 117.127 261.741 113.607C261.861 109.867 259.641 107.927 255.951 107.607C255.951 95.1272 255.821 82.6671 250.951 70.8371C250.621 65.9071 248.071 61.7571 246.131 57.4071C245.866 56.795 245.405 56.2887 244.82 55.9681C244.235 55.6476 243.56 55.5311 242.901 55.6371C229.568 56.4971 216.234 57.3338 202.901 58.1471C178.981 59.4805 155.064 60.8138 131.151 62.1471C91.771 64.3771 52.401 66.6871 13.021 68.8071C9.07098 69.0171 7.55102 69.9072 7.88102 74.2372C9.07102 89.9972 9.88102 105.787 10.881 121.567C7.99102 122.877 5.46103 124.567 6.39103 128.277C7.32103 131.987 10.181 132.837 13.721 132.677C18.001 132.527 22.321 132.707 26.641 132.707ZM28.241 25.5271C27.4404 25.7414 26.678 26.0788 25.981 26.5271C16.151 35.5271 10.551 46.8171 8.26103 59.8471C7.71103 62.9471 9.68101 62.8471 11.931 62.7571C22.401 62.1671 32.931 61.7571 43.361 61.1271C79.261 59.0604 115.158 56.9605 151.051 54.8271C177.481 53.2971 203.921 51.9072 230.331 50.2372C233.721 50.0172 239.191 51.2971 240.111 48.8971C241.381 45.5471 236.971 42.4571 234.591 39.6571C225.891 29.4371 216.041 20.5971 203.321 15.5371C189.691 7.95715 174.871 5.25712 159.561 5.94712C129.801 7.29712 100.051 9.11712 70.311 10.9471C63.861 11.3571 57.311 11.1871 50.991 13.0671C42.541 15.5771 34.151 18.2872 28.241 25.4872V25.5271Z" fill="#F3F1F3"/>
<path d="M204.621 145.527C218.921 147.027 229.191 141.527 234.621 127.987C235.491 125.827 237.161 125.637 239.041 125.537C244.351 125.247 249.651 124.907 254.961 124.667C259.761 124.457 263.621 123.007 265.721 118.137C266.695 116.106 267.021 113.824 266.656 111.601C266.292 109.378 265.253 107.321 263.681 105.707C262.749 104.665 262.032 103.45 261.57 102.13C261.109 100.811 260.912 99.4129 260.991 98.0172C261.002 84.6795 258.211 71.4883 252.801 59.2972C251.001 55.2472 252.301 50.7572 250.921 46.6572C252.409 46.995 253.724 47.8614 254.622 49.0955C255.519 50.3295 255.938 51.8474 255.801 53.3672C255.611 57.5672 257.061 61.1172 258.621 64.8072C263.561 76.4672 264.621 88.8972 265.621 101.317C265.688 103.63 266.587 105.842 268.151 107.547C271.221 110.887 272.961 114.747 270.931 119.397C268.901 124.047 265.591 126.917 260.191 126.757C259.028 126.773 257.869 126.904 256.731 127.147C245.961 128.957 240.401 132.147 233.071 139.827C225.741 147.507 216.931 149.927 206.681 147.507C206.2 147.374 205.76 147.124 205.4 146.778C205.041 146.432 204.773 146.003 204.621 145.527Z" fill="#A5A5A5"/>
<path d="M40.911 154.557C52.721 156.097 63.791 153.827 69.091 142.507C72.611 134.987 77.371 134.757 83.841 134.407C115.051 132.737 146.241 130.657 177.461 129.037C180.311 128.897 184.551 126.037 186.381 131.227C174.451 131.977 162.531 132.777 150.601 133.477C127.211 134.857 103.821 136.267 80.411 137.477C76.821 137.657 76.1011 139.977 75.0011 142.347C68.9011 155.577 55.3211 160.687 41.0011 155.997C40.6811 155.897 40.2411 155.777 40.1311 155.537C39.8011 154.777 40.521 154.777 40.911 154.557Z" fill="#A5A5A5"/>
<path d="M246.801 44.6172C246.171 44.4372 245.251 44.4572 244.951 44.0372C239.041 35.8372 231.631 29.0372 224.791 21.6372C232.141 24.6372 236.511 30.9972 241.551 36.5272C243.661 38.8472 246.591 40.9372 246.801 44.6172Z" fill="#A5A5A5"/>
<path d="M9.03125 138.707C12.6512 138.557 16.2812 138.377 19.9012 138.277C21.5512 138.277 23.3313 138.137 23.6913 140.427C18.7513 140.347 13.5613 142.347 9.03125 138.707Z" fill="#A5A5A5"/>
<path d="M224.861 21.7072C224.552 21.7057 224.243 21.6688 223.941 21.5972L224.861 21.7072Z" fill="#A5A5A5"/>
<path d="M10.8621 121.617C9.8621 105.837 9.0921 90.0473 7.8621 74.2873C7.5321 69.9573 9.05212 69.0673 13.0021 68.8573C52.3821 66.7373 91.7521 64.4273 131.132 62.1973C155.045 60.8639 178.962 59.5306 202.882 58.1973C206.762 59.0473 210.642 59.9273 214.532 60.7273C226.912 63.2773 238.942 67.0673 250.972 70.8873C255.792 82.7173 255.972 95.1773 255.912 107.657C246.722 108.587 237.422 108.167 228.272 109.657C220.672 100.437 212.482 97.5573 203.042 100.657C197.292 102.557 193.872 106.997 190.652 111.657C189.002 111.657 187.342 111.657 185.652 111.717C169.265 112.657 152.875 113.607 136.482 114.567C112.795 115.954 89.1088 117.361 65.4221 118.787C63.5921 116.887 61.9721 114.707 59.8921 113.137C49.2021 105.087 37.0421 108.027 28.1321 120.667L10.8621 121.617ZM222.782 74.7873L222.642 73.4073C221.982 68.5473 218.642 67.5373 214.642 68.4073C212.562 68.8673 211.272 68.8573 209.902 67.1673C208.818 65.8729 207.294 65.0252 205.622 64.7873C201.982 64.1073 200.022 66.5373 198.022 68.8973C196.442 73.4173 197.472 77.2773 200.932 80.5273C200.882 81.7973 200.762 83.0973 202.372 83.5973C202.387 84.2851 202.57 84.9586 202.907 85.5586C203.244 86.1585 203.723 86.6664 204.302 87.0373C204.732 88.1073 205.132 89.2573 206.552 89.2873C211.152 89.3973 221.452 81.4773 222.872 76.7573C222.862 76.1073 222.862 75.4473 222.772 74.7873H222.782ZM44.8621 90.7073C44.7988 90.9943 44.7995 91.2918 44.8642 91.5785C44.9289 91.8652 45.056 92.1341 45.2364 92.3661C45.4169 92.5982 45.6462 92.7876 45.9082 92.9208C46.1702 93.0541 46.4583 93.128 46.7521 93.1373C50.5921 92.8073 48.9221 85.6873 54.2421 86.7973C54.2421 86.7973 54.9521 85.3273 54.7321 85.0873C52.5921 82.7573 51.2321 80.5273 52.3221 76.9673C52.7521 75.5573 50.2421 75.3173 48.7421 75.9073C47.7421 76.3073 46.8121 77.3973 45.7421 75.9573C42.7421 71.8573 42.2521 73.3873 39.6321 77.0873C37.1321 80.6073 33.5221 82.1673 38.1221 86.2673C35.4521 92.8373 39.1221 91.5773 42.9821 90.2673C43.4921 90.0573 44.2321 90.5173 44.8621 90.7073ZM66.7321 100.647C65.0321 103.497 64.5421 106.207 67.6221 108.517C69.5621 109.967 71.6221 110.197 73.6221 108.677C76.4921 106.427 76.4321 103.677 74.6221 100.767L76.1221 100.287C79.3221 100.997 77.9821 105.287 80.8521 106.287C87.7921 108.737 93.3921 108.147 95.2321 99.5373C95.7421 97.1273 93.8321 92.8173 91.4421 91.9073C89.4884 90.9903 87.4853 90.1824 85.4421 89.4873C85.5421 87.3673 85.6388 85.2473 85.7321 83.1273C86.4773 83.9956 87.175 84.9036 87.8221 85.8473C88.4107 86.9279 89.3589 87.7684 90.5022 88.2232C91.6456 88.678 92.9121 88.7184 94.0821 88.3373C95.4001 88.0591 96.5648 87.294 97.3434 86.1948C98.1219 85.0955 98.4572 83.7429 98.2821 82.4073C98.1729 81.1645 97.654 79.9932 96.8069 79.0774C95.9599 78.1615 94.8326 77.553 93.6021 77.3473C92.4125 76.9848 91.1283 77.1034 90.0251 77.6774C88.922 78.2514 88.088 79.2351 87.7021 80.4173C87.3283 81.523 86.6316 82.4913 85.7021 83.1973C85.0321 82.0673 84.3521 80.9473 83.7021 79.8173C82.1082 77.1573 79.6913 75.0889 76.817 73.9252C73.9427 72.7614 70.7676 72.5655 67.7721 73.3672C64.8459 74.1315 62.2494 75.8306 60.3775 78.2061C58.5056 80.5816 57.4608 83.5035 57.4021 86.5273C57.1821 93.3673 61.1921 97.5273 66.7421 100.627L66.7321 100.647ZM123.522 103.007C121.632 102.917 120.182 102.427 120.212 100.187C120.212 98.7973 120.112 97.5173 118.402 97.0773C117.562 96.8573 116.812 96.2873 117.082 95.3073C117.136 95.0604 117.246 94.829 117.401 94.6299C117.557 94.4308 117.755 94.2692 117.982 94.1569C118.208 94.0447 118.457 93.9846 118.71 93.9812C118.962 93.9778 119.213 94.0311 119.442 94.1373C120.892 94.6373 121.782 94.5173 121.532 92.7373C121.352 91.5273 121.812 89.9473 119.892 89.5673C116.962 88.9873 111.542 92.7173 111.142 95.7873C110.256 95.0476 109.282 94.4195 108.242 93.9173C105.552 93.0073 101.662 95.1373 101.912 97.4173C102.292 100.897 103.012 104.327 102.602 107.847C102.402 109.577 103.542 109.847 104.802 109.627C106.062 109.407 108.502 110.037 108.152 108.727C106.952 104.267 111.452 103.997 112.582 101.327C113.07 102.275 113.311 103.331 113.282 104.397C112.862 108.807 114.832 109.637 118.892 108.977C122.952 108.317 127.782 109.457 131.582 107.977C136.372 106.177 143.852 112.157 146.092 102.107C146.092 109.287 150.672 106.357 153.482 106.797C155.482 107.107 155.962 105.997 155.782 104.107C155.602 102.217 155.272 101.357 153.112 102.457C151.742 103.157 150.392 101.727 151.672 100.847C155.282 98.3773 151.322 97.1173 151.092 95.8473C152.092 93.3273 154.612 97.5073 155.092 94.3273C155.422 91.8873 153.202 91.8073 151.682 90.8573C149.022 89.1873 145.922 90.4173 143.322 88.9773C139.262 86.7273 136.572 87.9272 135.092 92.4272C134.482 94.2472 135.092 96.4273 133.412 98.0273C132.262 96.3773 132.222 94.5373 131.912 92.7473C131.502 90.4673 132.122 87.9073 127.912 88.1573C123.442 88.4173 124.392 90.9673 124.312 93.5073C124.142 96.7073 124.462 99.8773 123.532 102.987L123.522 103.007ZM127.362 76.0073C127.848 76.1535 128.281 76.4371 128.609 76.8239C128.937 77.2107 129.147 77.6842 129.212 78.1873C129.962 82.9973 133.922 83.0873 137.152 82.9073C140.382 82.7273 138.882 79.1573 139.782 77.2173C140.562 75.5273 140.392 73.3773 141.952 72.0373C142.451 72.282 142.849 72.6914 143.08 73.1961C143.312 73.7008 143.362 74.2699 143.222 74.8073C141.392 83.7273 147.282 86.1373 154.072 87.8073C154.382 87.8178 154.69 87.7562 154.972 87.6273C154.852 82.5673 154.862 82.3773 153.582 81.8573C152.302 81.3373 149.062 82.3673 151.402 79.7573C153.072 77.8973 149.752 75.5573 152.632 74.7573C155.232 74.0473 154.372 72.2973 153.952 70.8073C153.362 68.7273 151.532 69.4773 150.162 69.5473C147.022 69.6973 143.902 70.1273 140.762 70.2073C137.302 70.2973 133.762 70.0573 134.212 75.8473C132.632 69.1973 129.522 69.5173 125.632 72.8473C124.892 73.4773 124.482 72.7873 123.942 72.5673C115.942 69.4573 114.322 70.2972 112.122 78.9272C111.928 79.9043 111.393 80.7806 110.613 81.3998C109.833 82.0189 108.858 82.3405 107.862 82.3073C105.862 82.2473 105.862 79.9673 105.862 78.3073C105.847 76.8137 105.927 75.3207 106.102 73.8373C106.412 70.5773 103.942 71.7273 102.372 71.4373C100.242 71.0473 99.6421 72.0673 100.072 73.9773C101.072 78.3973 100.932 82.8873 100.832 87.3773C100.832 88.5373 100.912 90.2873 102.552 89.3773C105.792 87.6073 110.292 88.3773 112.452 84.5373C112.592 84.1695 112.861 83.8652 113.209 83.6812C113.556 83.4971 113.959 83.446 114.342 83.5373C123.392 84.5073 124.352 83.9373 127.372 75.9973L127.362 76.0073ZM187.102 77.0873C182.432 75.2573 185.022 70.1973 182.632 68.7973C180.242 67.3973 176.962 64.5773 174.932 64.9373C172.122 65.4273 168.132 66.0373 166.402 67.7873C164.672 69.5373 161.952 73.6773 162.452 75.8973C163.452 80.2573 164.452 85.7173 170.512 86.9673C171.392 87.1573 172.372 89.1173 173.322 88.4673C175.912 86.6973 179.412 86.9173 181.532 85.4073C183.652 83.8973 183.212 79.4873 187.112 77.0773L187.102 77.0873ZM42.3421 100.807C42.4021 98.2773 36.5521 92.8073 33.6521 92.6473C30.9521 92.5173 25.1721 98.5573 25.2021 101.467C25.2021 103.817 31.1121 109.387 33.7921 109.597C36.4721 109.807 42.2621 103.897 42.3421 100.807ZM238.862 91.5773C238.499 93.4179 238.72 95.3259 239.495 97.0345C240.269 98.7432 241.559 100.167 243.182 101.107C243.975 101.585 244.902 101.793 245.824 101.699C246.745 101.605 247.611 101.215 248.292 100.587C251.902 97.7373 252.292 93.8473 251.572 89.7673C251.403 87.9317 250.654 86.1978 249.432 84.8173C247.902 83.2973 246.362 81.4573 243.932 82.2373C241.292 83.0673 239.262 84.7873 238.932 87.7873C238.837 89.0483 238.814 90.3136 238.862 91.5773ZM191.032 83.8873C186.902 83.6373 183.092 87.3773 182.822 91.9473C182.612 95.4973 186.752 100.197 190.332 100.487C194.262 100.797 199.332 96.7673 199.532 93.1873C199.862 87.7773 196.602 84.2173 191.062 83.8873H191.032ZM165.102 91.1373C162.642 92.1373 161.832 95.5873 161.772 97.4773C161.712 99.6373 165.042 103.017 167.142 102.407C169.082 101.827 173.302 101.727 173.222 97.9373C173.162 93.1273 170.592 90.9973 165.132 91.1373H165.102ZM194.352 73.7773C194.542 70.9573 193.012 70.0673 190.672 69.9973C188.162 69.9173 187.462 72.1272 187.392 73.6172C187.402 74.0732 187.504 74.5224 187.693 74.9373C187.882 75.3522 188.154 75.7241 188.492 76.0303C188.83 76.3364 189.227 76.5704 189.659 76.7177C190.09 76.8651 190.547 76.9228 191.002 76.8873C192.412 76.7073 194.732 76.1073 194.382 73.7773H194.352Z" fill="#329CA7"/>
<path d="M203.321 15.5068C216.041 20.5668 225.891 29.4068 234.591 39.6268C236.971 42.4268 241.381 45.5168 240.111 48.8668C239.191 51.2668 233.721 49.9868 230.331 50.2068C203.921 51.8768 177.481 53.2669 151.051 54.7969C115.151 56.8769 79.2545 58.9769 43.3611 61.0969C32.8911 61.7069 22.3611 62.0969 11.9311 62.7269C9.68113 62.8569 7.71115 62.9168 8.26115 59.8168C10.5511 46.8168 16.1511 35.5068 25.9811 26.4968C26.6781 26.0484 27.4405 25.7111 28.2411 25.4968C29.4011 25.4968 30.5711 25.6268 31.7311 25.5668L128.221 19.9268L203.321 15.5068ZM188.861 45.5568C198.001 45.1168 207.151 44.7968 216.271 44.1768C219.091 43.9868 222.541 44.4168 223.811 40.6368C225.021 37.0268 223.151 34.4469 220.731 32.2869C212.531 24.9569 204.051 18.2869 191.841 21.2869C189.621 21.8169 187.201 21.5368 184.841 21.6868C179.231 22.0368 177.101 24.2068 177.031 29.8268C177.031 31.6468 177.291 33.4669 177.431 35.2969C178.241 45.2069 179.191 46.0868 188.861 45.5568ZM154.731 47.5568C155.561 47.4868 156.381 47.3369 157.211 47.3369C174.111 47.3369 172.351 43.1568 171.531 30.7468C171.171 25.2968 168.601 22.7469 163.291 22.9169C157.291 23.0435 151.321 23.3769 145.381 23.9169C140.481 24.3269 137.981 27.3569 138.021 32.2369C138.131 47.4069 139.491 48.7069 154.721 47.6069L154.731 47.5568ZM99.3311 38.0469C99.4111 38.8669 99.5111 39.6969 99.5611 40.5269C100.021 48.8669 102.341 50.7668 110.911 49.9568C113.381 49.7268 115.911 49.6768 118.371 49.6268C132.531 49.3168 133.731 48.0069 132.731 33.8969C132.271 27.3769 129.331 24.7569 122.731 25.1069C118.431 25.3369 114.131 25.6968 109.831 25.9968C100.331 26.7068 98.5311 28.7069 99.3211 38.0969L99.3311 38.0469ZM76.9811 52.0469C80.2911 51.8569 83.6211 51.7868 86.9211 51.4468C91.3111 50.9968 94.4111 48.5169 93.9811 44.0369C93.4411 38.3269 96.1711 31.2569 88.6711 27.7769C87.8849 27.5042 87.0453 27.4219 86.2211 27.5369C79.5911 27.8669 72.9511 28.1069 66.3411 28.6569C62.4711 28.9669 60.0611 31.6568 60.2411 35.3168C60.9111 48.8368 58.7311 54.0669 76.4911 52.1069L76.9811 52.0469ZM31.7411 54.9769V54.7068C37.2011 54.3468 42.6611 54.0669 48.1111 53.6069C52.7311 53.2169 55.1111 50.4869 55.1111 45.6669C55.3311 34.6669 53.6711 30.6668 48.5811 29.8168C42.1586 28.7696 35.5758 30.1377 30.1025 33.6573C24.6291 37.177 20.6531 42.5987 18.9411 48.8768C17.9411 52.4368 19.5411 54.7869 23.2411 54.9669C26.0911 55.1269 28.9211 55.0168 31.7311 55.0168L31.7411 54.9769Z" fill="#F3BF2F"/>
<path d="M203.322 15.5069L128.222 19.9169L31.7322 25.5569C30.5722 25.6169 29.4022 25.557 28.2422 25.487C34.1522 18.287 42.5422 15.5769 50.9922 13.0569C57.2822 11.1769 63.8622 11.3469 70.3122 10.9369C100.052 9.0869 129.802 7.2669 159.562 5.9369C174.862 5.2269 189.692 7.92691 203.322 15.5069Z" fill="#23CDCE"/>
<path d="M65.4805 118.797C89.1671 117.384 112.854 115.977 136.54 114.577C152.934 113.604 169.324 112.654 185.71 111.727C187.37 111.637 189.03 111.727 190.71 111.667C190.217 115.287 189.724 118.91 189.23 122.537C179.77 124.537 170.11 123.747 160.55 124.537C146.7 125.677 132.77 125.757 118.91 126.807C102.08 128.087 85.2305 128.807 68.3805 129.647C67.8681 125.924 66.8939 122.279 65.4805 118.797Z" fill="#D8D8D8"/>
<path d="M189.201 122.537C189.695 118.917 190.188 115.294 190.681 111.667C193.901 106.967 197.321 102.527 203.071 100.667C212.511 97.5471 220.701 100.427 228.301 109.667C229.72 113.179 230.587 116.89 230.871 120.667C228.221 133.927 220.941 140.667 209.491 140.567C199.541 140.427 192.341 134.037 189.201 122.537ZM197.341 119.957C197.341 127.607 202.501 132.957 210.031 132.957C213.474 132.955 216.778 131.595 219.224 129.172C221.671 126.75 223.064 123.46 223.101 120.017C222.989 116.568 221.538 113.297 219.055 110.9C216.572 108.503 213.253 107.167 209.801 107.177C208.139 107.182 206.495 107.518 204.964 108.166C203.434 108.814 202.048 109.761 200.888 110.951C199.728 112.141 198.816 113.55 198.207 115.097C197.598 116.643 197.304 118.295 197.341 119.957Z" fill="#422513"/>
<path d="M65.4818 118.797C66.885 122.28 67.8491 125.925 68.3518 129.647C67.2618 135.247 65.7318 140.647 61.2318 144.647C58.7195 146.902 55.6931 148.508 52.4171 149.325C49.1411 150.141 45.7151 150.143 42.4383 149.33C39.1614 148.517 36.1333 146.914 33.6186 144.662C31.1038 142.409 29.1789 139.575 28.0118 136.407C27.5518 135.167 27.0918 133.927 26.6418 132.687C26.5143 128.63 27.0375 124.578 28.1918 120.687C37.1018 108.047 49.2618 105.107 59.9518 113.157C62.0318 114.707 63.6518 116.897 65.4818 118.797ZM47.4818 116.667C45.7727 116.605 44.0687 116.889 42.4718 117.501C40.875 118.113 39.4181 119.041 38.1884 120.23C36.9587 121.418 35.9816 122.843 35.3155 124.418C34.6494 125.993 34.308 127.687 34.3118 129.397C34.2654 132.845 35.5905 136.17 37.9956 138.64C40.4008 141.111 43.689 142.525 47.1368 142.572C50.5846 142.618 53.9096 141.293 56.3804 138.888C58.8512 136.483 60.2654 133.195 60.3118 129.747C60.3437 128.046 60.0362 126.356 59.4072 124.775C58.7782 123.194 57.8404 121.754 56.6487 120.54C55.4569 119.326 54.035 118.362 52.4662 117.704C50.8974 117.045 49.2131 116.707 47.5118 116.707L47.4818 116.667Z" fill="#422513"/>
<path d="M230.861 120.627C230.577 116.85 229.71 113.139 228.291 109.627C237.441 108.157 246.741 108.627 255.931 107.627C259.631 107.897 261.851 109.837 261.731 113.627C261.621 117.147 259.481 118.397 255.921 118.907C247.601 120.067 239.171 119.297 230.861 120.627Z" fill="#D8D8D8"/>
<path d="M251.002 70.8573C239.002 67.0373 226.942 63.2473 214.562 60.6973C210.672 59.8973 206.792 59.0173 202.912 58.1673C216.245 57.334 229.579 56.4973 242.912 55.6573C243.571 55.5513 244.246 55.6677 244.831 55.9882C245.416 56.3088 245.877 56.8151 246.142 57.4273C248.122 61.7773 250.672 65.9273 251.002 70.8573Z" fill="#23CDCE"/>
<path d="M28.1911 120.707C27.0368 124.599 26.5135 128.65 26.6411 132.707C22.3211 132.707 18.0011 132.567 13.6911 132.767C10.1511 132.927 7.30105 132.077 6.36105 128.367C5.42105 124.657 7.96104 122.967 10.851 121.657L28.1911 120.707Z" fill="#D8D8D8"/>
<path d="M123.532 102.987C124.462 99.877 124.142 96.7069 124.242 93.5669C124.322 91.0269 123.372 88.4769 127.842 88.2169C132.092 87.9669 131.472 90.5269 131.842 92.8069C132.152 94.5969 132.192 96.4369 133.342 98.0869C135.032 96.5069 134.412 94.307 135.022 92.487C136.502 87.987 139.192 86.7869 143.252 89.0369C145.852 90.4769 148.952 89.247 151.612 90.917C153.132 91.867 155.352 91.9169 155.022 94.3869C154.582 97.5669 152.022 93.3869 151.022 95.9069C151.252 97.1469 155.212 98.4069 151.602 100.907C150.322 101.787 151.672 103.217 153.042 102.517C155.202 101.417 155.532 102.167 155.712 104.167C155.892 106.167 155.442 107.167 153.412 106.857C150.602 106.417 146.062 109.347 146.022 102.167C143.782 112.217 136.302 106.237 131.512 108.037C127.712 109.467 123.012 108.297 118.822 109.037C114.632 109.777 112.822 108.867 113.212 104.457C113.241 103.391 113 102.335 112.512 101.387C111.382 104.057 106.882 104.327 108.082 108.787C108.432 110.097 105.922 109.467 104.732 109.687C103.542 109.907 102.332 109.687 102.532 107.907C102.942 104.387 102.222 100.907 101.842 97.477C101.592 95.197 105.482 93.067 108.172 93.977C109.211 94.4792 110.185 95.1072 111.072 95.8469C111.472 92.7769 116.892 89.0469 119.822 89.6269C121.742 90.0069 121.282 91.627 121.462 92.797C121.712 94.577 120.822 94.6969 119.372 94.1969C119.142 94.0908 118.892 94.0375 118.639 94.0409C118.386 94.0443 118.138 94.1043 117.911 94.2166C117.685 94.3288 117.486 94.4905 117.331 94.6895C117.175 94.8886 117.066 95.1201 117.012 95.3669C116.742 96.3669 117.492 96.9169 118.332 97.1369C120.042 97.5769 120.162 98.8569 120.142 100.247C120.192 102.407 121.642 102.897 123.532 102.987ZM146.132 95.3169C144.922 98.1969 140.022 94.4869 140.272 98.6369C140.412 100.937 144.362 100.307 145.592 100.257C147.962 100.147 146.452 97.3569 146.132 95.3169ZM118.862 104.097C119.178 104.123 119.493 104.026 119.74 103.827C119.987 103.628 120.149 103.342 120.192 103.027C120.256 102.881 120.288 102.723 120.284 102.563C120.281 102.404 120.243 102.247 120.172 102.104C120.102 101.961 120 101.835 119.876 101.735C119.751 101.636 119.607 101.565 119.452 101.527C119.267 101.455 119.068 101.432 118.872 101.458C118.676 101.485 118.49 101.56 118.331 101.678C118.172 101.796 118.046 101.952 117.964 102.132C117.882 102.312 117.846 102.51 117.862 102.707C117.832 103.02 117.916 103.334 118.1 103.59C118.284 103.845 118.555 104.026 118.862 104.097ZM129.862 105.707C129.818 105.295 129.7 104.895 129.512 104.527C129.002 103.877 128.702 104.527 128.632 104.877C128.541 105.302 128.616 105.746 128.842 106.117C129.322 106.777 129.492 106.057 129.862 105.707Z" fill="#F3BF2F"/>
<path d="M127.371 75.9971C124.371 83.9371 123.371 84.5071 114.311 83.5671C113.928 83.4758 113.525 83.527 113.177 83.711C112.829 83.8951 112.56 84.1993 112.421 84.5671C110.261 88.3871 105.761 87.6371 102.521 89.4071C100.881 90.3071 100.781 88.5571 100.801 87.4071C100.901 82.9171 101.021 78.4071 100.041 74.0071C99.6106 72.0971 100.211 71.0771 102.341 71.4671C103.911 71.7571 106.341 70.6071 106.071 73.8671C105.896 75.3505 105.815 76.8435 105.831 78.3371C105.831 79.9571 105.831 82.2371 107.831 82.3371C108.826 82.3704 109.801 82.0488 110.581 81.4297C111.362 80.8105 111.897 79.9342 112.091 78.9571C114.291 70.3271 115.921 69.4871 123.911 72.5971C124.451 72.8171 124.861 73.5071 125.601 72.8771C129.491 69.5371 132.601 69.2171 134.181 75.8771C133.761 70.0871 137.271 70.3272 140.731 70.2372C143.871 70.1572 146.991 69.7271 150.131 69.5771C151.501 69.5071 153.331 68.7571 153.921 70.8371C154.341 72.3271 155.201 74.0771 152.601 74.7871C149.721 75.5671 153.041 77.9071 151.371 79.7871C149.031 82.3971 152.371 81.4271 153.551 81.8871C154.731 82.3471 154.821 82.5972 154.941 87.6672C154.656 87.7881 154.349 87.8461 154.041 87.8371C147.251 86.1771 141.361 83.7671 143.191 74.8371C143.33 74.2998 143.28 73.7306 143.049 73.2259C142.818 72.7212 142.419 72.3119 141.921 72.0671C140.361 73.4071 140.531 75.5571 139.751 77.2471C138.851 79.1871 140.211 82.7771 137.121 82.9371C134.031 83.0971 129.931 83.0271 129.181 78.2171C129.126 77.7118 128.926 77.2331 128.604 76.8391C128.283 76.4451 127.855 76.1526 127.371 75.9971Z" fill="#F3BF2F"/>
<path d="M85.6917 83.0971C85.5984 85.2171 85.5017 87.337 85.4017 89.457C83.6117 89.797 83.1717 93.007 80.6117 91.697C78.9117 90.567 76.6117 88.697 75.2517 90.697C74.9894 91.1948 74.8613 91.7523 74.8799 92.3147C74.8985 92.8771 75.0632 93.4249 75.3579 93.9042C75.6526 94.3836 76.067 94.778 76.5604 95.0485C77.0538 95.319 77.6091 95.4563 78.1717 95.447C79.2717 97.847 75.6117 98.1771 76.0617 100.297L74.5617 100.777C73.4182 99.9811 72.0632 99.5445 70.6701 99.5231C69.2769 99.5017 67.9091 99.8965 66.7417 100.657C61.1917 97.557 57.1817 93.397 57.3717 86.527C57.4304 83.5032 58.4752 80.5814 60.3471 78.2059C62.2189 75.8304 64.8155 74.1312 67.7417 73.367C70.7372 72.5653 73.9123 72.7612 76.7866 73.9249C79.6608 75.0887 82.0778 77.1571 83.6717 79.817C84.3517 80.947 85.0317 82.067 85.6717 83.197L85.6917 83.0971ZM73.0917 76.447C71.4817 76.447 70.6217 76.6171 70.4617 77.9771C69.9517 82.0771 76.1917 87.9771 80.4617 87.4171C81.7417 87.2371 81.9217 86.5571 81.8817 85.4171C81.7217 81.3171 76.5717 76.317 73.0917 76.447ZM60.8617 87.017C61.2717 89.107 61.0717 91.6571 63.0417 92.4871C65.5917 93.5571 65.7817 90.267 67.3017 89.247C67.7057 88.9313 68.0451 88.5409 68.3017 88.0971C70.3917 84.9671 67.7917 82.437 67.1717 79.647C66.9617 78.707 66.2417 78.177 65.3317 78.647C64.3297 79.248 63.4637 80.0508 62.7888 81.0046C62.114 81.9584 61.645 83.0421 61.4117 84.187C61.0517 85.167 60.9617 86.177 60.8617 87.017ZM69.8617 91.5971C68.9817 92.8171 67.4217 94.047 67.2517 95.447C67.0217 97.307 69.1917 97.307 70.5517 97.557C71.9117 97.807 73.0717 97.367 72.6117 95.707C72.1617 94.237 72.2817 92.3171 69.8617 91.5971Z" fill="#F3F1F3"/>
<path d="M187.112 77.077C183.212 79.487 183.722 83.837 181.542 85.397C179.362 86.957 175.922 86.687 173.332 88.457C172.332 89.107 171.402 87.147 170.522 86.957C164.422 85.707 163.442 80.247 162.462 75.887C161.962 73.667 164.532 69.667 166.412 67.777C168.292 65.887 172.132 65.417 174.942 64.927C176.942 64.567 180.172 67.337 182.642 68.787C185.112 70.237 182.442 75.247 187.112 77.077ZM181.502 76.667C181.502 74.067 177.172 69.127 174.852 69.037C171.852 68.927 166.852 73.647 166.852 76.447C166.852 79.247 171.612 84.327 173.932 84.147C176.512 83.947 181.512 78.997 181.502 76.707V76.667Z" fill="#F6317E"/>
<path d="M44.8615 90.7072C44.2215 90.5372 43.4815 90.0771 42.9615 90.2471C39.1115 91.5471 35.4315 92.8071 38.1015 86.2471C33.5015 82.1471 37.1015 80.5872 39.6115 77.0672C42.2315 73.3672 42.6915 71.8372 45.7215 75.9372C46.7815 77.3772 47.7215 76.2872 48.7215 75.8872C50.2215 75.2972 52.7215 75.5372 52.3015 76.9472C51.2115 80.5072 52.5715 82.7372 54.7115 85.0672C54.9315 85.3072 54.2715 86.7872 54.2215 86.7772C48.9015 85.6672 50.5715 92.7771 46.7315 93.1171C46.4416 93.1045 46.1578 93.0289 45.9 92.8956C45.6422 92.7623 45.4165 92.5744 45.2385 92.3451C45.0606 92.1158 44.9348 91.8506 44.8697 91.5677C44.8045 91.2849 44.8018 90.9912 44.8615 90.7072C48.7515 91.0672 48.7515 91.0671 46.4015 85.6171C46.9919 85.1794 47.4136 84.5517 47.5957 83.8397C47.7778 83.1276 47.7092 82.3746 47.4015 81.7072C48.9615 80.8972 50.7615 80.2771 50.7215 78.0571C50.7215 77.7971 50.0015 77.2772 49.7215 77.3372C47.9015 77.7772 47.3215 79.3372 46.8415 80.8772C42.4215 80.5872 41.4816 81.2072 42.1316 84.0072C41.9501 84.9653 41.4323 85.8271 40.6715 86.4372C39.9415 87.1772 38.4516 88.1872 39.5116 89.1572C40.9516 90.4672 41.6915 88.7172 42.3615 87.6972C42.6637 87.1227 42.9082 86.5198 43.0915 85.8972L44.7315 86.0472L44.8615 90.7072Z" fill="#EA9B49"/>
<path d="M205.621 64.7969C207.293 65.0348 208.817 65.8824 209.901 67.1768C211.271 68.8668 212.561 68.8769 214.641 68.4169C218.641 67.5369 221.971 68.5469 222.641 73.4169C214.431 72.8069 206.761 73.8669 200.941 80.5469C197.481 77.2969 196.451 73.4368 198.031 68.9268L199.291 74.4968C199.061 69.7568 203.861 68.2969 205.621 64.7969Z" fill="#F6317E"/>
<path d="M76.062 100.267C75.612 98.147 79.272 97.8171 78.172 95.4171C78.272 93.7071 78.792 92.277 80.612 91.697C83.172 93.007 83.612 89.797 85.402 89.457C87.4452 90.1521 89.4483 90.96 91.402 91.877C93.792 92.787 95.702 97.097 95.192 99.507C93.352 108.117 87.752 108.707 80.812 106.257C77.922 105.247 79.262 100.977 76.062 100.267ZM91.952 98.947C91.322 95.947 90.112 93.427 86.222 93.537C82.742 93.637 80.222 95.2771 80.222 98.7371C80.222 101.977 81.402 104.867 85.772 104.807C89.722 104.757 91.462 102.787 91.952 98.947Z" fill="#F6317E"/>
<path d="M42.3411 100.807C42.2611 103.897 36.5111 109.807 33.7911 109.597C31.0711 109.387 25.2312 103.817 25.2012 101.467C25.2012 98.557 30.9511 92.467 33.6511 92.647C36.5511 92.777 42.4011 98.2769 42.3411 100.807ZM29.9811 102.627C30.2811 106.297 32.5211 106.997 35.4811 105.857C38.4411 104.717 39.9311 102.127 38.4011 99.087C37.0111 96.347 34.4611 94.797 31.4011 96.667C29.1811 97.997 26.9411 99.827 29.9811 102.627Z" fill="#F6317E"/>
<path d="M238.861 91.5771C238.789 90.3147 238.789 89.0494 238.861 87.7871C239.231 84.7871 241.261 83.0671 243.861 82.2371C246.291 81.4571 247.861 83.297 249.361 84.817C250.582 86.1976 251.332 87.9315 251.501 89.7671C252.181 93.8471 251.831 97.7671 248.221 100.587C247.54 101.215 246.674 101.605 245.753 101.699C244.831 101.793 243.904 101.585 243.111 101.107C241.5 100.157 240.226 98.7287 239.464 97.0208C238.702 95.3129 238.492 93.4102 238.861 91.5771ZM249.101 92.247C248.621 89.537 248.501 86.247 244.741 86.247C241.741 86.247 241.231 88.817 241.251 91.247C241.251 94.077 241.421 97.3971 245.091 97.6071C248.261 97.7571 248.661 94.757 249.131 92.247H249.101Z" fill="#23CDCE"/>
<path d="M191.061 83.8868C196.601 84.2168 199.861 87.7768 199.561 93.1868C199.371 96.7668 194.291 100.797 190.361 100.487C186.781 100.197 182.641 95.4868 182.851 91.9468C183.121 87.3768 186.931 83.6368 191.061 83.8868ZM185.611 92.5068C185.881 95.5068 187.711 97.7069 191.231 97.7069C194.461 97.7069 196.431 95.7069 196.681 92.4769C196.721 91.6893 196.596 90.9021 196.314 90.1656C196.032 89.4291 195.6 88.7595 195.045 88.1995C194.49 87.6396 193.824 87.2016 193.09 86.9136C192.355 86.6256 191.569 86.4939 190.781 86.5269C187.491 86.7869 185.721 88.7068 185.611 92.5068Z" fill="#EA9B49"/>
<path d="M165.132 91.1373C170.592 90.9973 173.132 93.1373 173.252 97.9373C173.332 101.727 169.112 101.827 167.172 102.407C165.072 103.017 161.742 99.6373 161.802 97.4773C161.862 95.5873 162.672 92.1073 165.132 91.1373Z" fill="#EA9B49"/>
<path d="M222.861 76.7671C221.441 81.4871 211.141 89.4071 206.541 89.2971C205.121 89.2971 204.721 88.1171 204.291 87.0471C206.474 84.1081 209.26 81.6701 212.463 79.897C215.666 78.1239 219.212 77.0567 222.861 76.7671Z" fill="#F6317E"/>
<path d="M66.7412 100.627C67.9086 99.8665 69.2765 99.4716 70.6696 99.493C72.0627 99.5144 73.4177 99.951 74.5612 100.747C76.3912 103.647 76.4512 106.407 73.5612 108.657C71.6312 110.177 69.5612 109.947 67.5612 108.497C64.5512 106.187 65.0412 103.477 66.7412 100.627Z" fill="#EA9B49"/>
<path d="M85.6914 83.0971V83.1671C86.6209 82.4611 87.3175 81.4928 87.6914 80.3871C88.0772 79.2049 88.9113 78.2212 90.0144 77.6472C91.1176 77.0731 92.4018 76.9546 93.5914 77.3171C94.8218 77.5228 95.9491 78.1314 96.7962 79.0472C97.6433 79.9631 98.1621 81.1343 98.2714 82.3771C98.4464 83.7127 98.1112 85.0653 97.3326 86.1645C96.5541 87.2638 95.3895 88.0289 94.0714 88.3071C92.9014 88.6881 91.6349 88.6478 90.4916 88.193C89.3482 87.7382 88.4 86.8977 87.8114 85.8171C87.1546 84.8726 86.4469 83.9646 85.6914 83.0971ZM92.6914 79.7471C91.86 79.7337 91.0543 80.0358 90.4365 80.5923C89.8187 81.1489 89.4346 81.9188 89.3614 82.7471C89.3129 83.1563 89.3492 83.5711 89.468 83.9656C89.5869 84.3602 89.7857 84.726 90.0522 85.0403C90.3186 85.3546 90.647 85.6107 91.0167 85.7925C91.3865 85.9743 91.7898 86.078 92.2014 86.0971C94.2814 86.2871 95.5814 84.7871 95.7314 82.8271C95.8814 80.8671 94.4514 80.0171 92.6714 79.7071L92.6914 79.7471Z" fill="#9934A6"/>
<path d="M222.861 76.7671C219.212 77.0567 215.667 78.1239 212.464 79.897C209.261 81.6701 206.474 84.1081 204.291 87.0471C203.712 86.6762 203.233 86.1684 202.896 85.5684C202.56 84.9685 202.376 84.2949 202.361 83.6071C207.741 77.3771 214.801 75.0371 222.761 74.7871C222.861 75.4471 222.861 76.1071 222.861 76.7671Z" fill="#EA9B49"/>
<path d="M222.772 74.7869C214.772 75.0369 207.772 77.3769 202.372 83.6069C200.762 83.1069 200.882 81.8069 200.932 80.5369C206.752 73.8569 214.422 72.7969 222.632 73.4069C222.682 73.8669 222.732 74.3269 222.772 74.7869Z" fill="#23CDCE"/>
<path d="M194.382 73.7773C194.732 76.1073 192.382 76.7072 191.032 76.8872C190.577 76.9227 190.12 76.8651 189.689 76.7177C189.257 76.5703 188.86 76.3364 188.522 76.0302C188.184 75.7241 187.912 75.3522 187.723 74.9373C187.534 74.5224 187.431 74.0731 187.422 73.6172C187.492 72.1272 188.192 69.9172 190.702 69.9972C193.042 70.0672 194.572 70.9573 194.382 73.7773Z" fill="#EA9B49"/>
<path d="M205.622 64.7972C203.892 68.2972 199.061 69.7972 199.281 74.4872L198.021 68.9172C200.021 66.5472 201.982 64.1172 205.622 64.7972Z" fill="#A5A5A5"/>
<path d="M188.86 45.5569C179.2 46.0869 178.25 45.2069 177.47 35.2769C177.33 33.4469 177.041 31.6269 177.071 29.8069C177.141 24.1869 179.271 22.017 184.881 21.667C187.201 21.517 189.621 21.7969 191.881 21.2669C204.091 18.3169 212.57 24.9569 220.77 32.2669C223.19 34.4269 225.06 37.0069 223.85 40.6169C222.58 44.3969 219.131 43.9669 216.311 44.1569C207.141 44.7969 197.99 45.1169 188.86 45.5569Z" fill="#422513"/>
<path d="M154.722 47.617C139.492 48.667 138.132 47.407 138.012 32.247C138.012 27.367 140.472 24.337 145.372 23.927C151.325 23.427 157.295 23.0936 163.282 22.927C168.592 22.807 171.162 25.307 171.522 30.757C172.342 43.167 174.102 47.337 157.202 47.347C156.372 47.387 155.552 47.537 154.722 47.617Z" fill="#422513"/>
<path d="M99.3206 38.097C98.5306 28.747 100.321 26.687 109.801 26.097C114.101 25.797 118.401 25.437 122.701 25.207C129.321 24.857 132.261 27.477 132.701 33.997C133.701 48.107 132.501 49.417 118.341 49.727C115.851 49.727 113.341 49.827 110.881 50.057C102.311 50.867 99.9906 48.967 99.5306 40.627C99.5006 39.707 99.4006 38.917 99.3206 38.097Z" fill="#422513"/>
<path d="M76.9721 52.0768L76.4821 52.1468C58.7221 54.1468 60.9021 48.8768 60.2321 35.3568C60.0521 31.6668 62.4621 29.0068 66.3321 28.6968C72.9421 28.1468 79.5821 27.9068 86.2121 27.5768C87.0362 27.4619 87.8759 27.5441 88.6621 27.8168C96.1621 31.2968 93.4321 38.3668 93.9721 44.0768C94.4021 48.5568 91.3021 51.0768 86.9121 51.4868C83.6121 51.8268 80.2821 51.8968 76.9721 52.0768Z" fill="#422513"/>
<path d="M31.7317 55.0172C28.9217 55.0172 26.0917 55.1272 23.2817 55.0172C19.5817 54.8372 17.9917 52.4872 18.9817 48.9272C20.6936 42.6491 24.6697 37.2274 30.1431 33.7077C35.6164 30.1881 42.1992 28.8199 48.6217 29.8672C53.7117 30.6972 55.3717 34.7173 55.1517 45.7173C55.0617 50.5373 52.7317 53.2673 48.1517 53.6573C42.7017 54.1173 37.2417 54.3972 31.7817 54.7572L31.7317 55.0172Z" fill="#422513"/>
<path d="M197.342 119.957C197.299 118.292 197.59 116.635 198.196 115.084C198.803 113.533 199.713 112.119 200.874 110.925C202.035 109.73 203.423 108.78 204.956 108.13C206.489 107.479 208.137 107.142 209.802 107.137C213.253 107.127 216.573 108.463 219.056 110.86C221.539 113.257 222.99 116.527 223.102 119.977C223.065 123.42 221.672 126.709 219.225 129.132C216.779 131.554 213.475 132.914 210.032 132.917C202.502 132.917 197.302 127.607 197.342 119.957ZM215.882 120.097C215.572 116.097 213.292 113.927 209.722 114.197C206.152 114.467 203.842 116.777 204.072 120.557C204.084 121.316 204.25 122.065 204.558 122.758C204.867 123.452 205.312 124.076 205.868 124.593C206.424 125.11 207.078 125.51 207.792 125.769C208.505 126.027 209.264 126.139 210.022 126.097C213.472 126.037 215.752 123.707 215.862 120.097H215.882Z" fill="#F3F1F3"/>
<path d="M47.5108 116.707C49.2121 116.702 50.8973 117.035 52.4681 117.689C54.0389 118.342 55.4637 119.302 56.6592 120.512C57.8547 121.723 58.7969 123.159 59.4307 124.738C60.0646 126.317 60.3774 128.006 60.3508 129.707C60.3044 133.155 58.8902 136.443 56.4195 138.848C53.9487 141.253 50.6236 142.579 47.1758 142.532C43.728 142.486 40.4398 141.072 38.0347 138.601C35.6295 136.13 34.3044 132.805 34.3508 129.357C34.3578 127.655 34.7068 125.971 35.377 124.406C36.0473 122.84 37.0252 121.426 38.2526 120.246C39.4801 119.066 40.9322 118.145 42.5225 117.537C44.1129 116.929 45.8093 116.647 47.5108 116.707ZM52.9608 129.707C53.2608 125.897 51.3108 123.937 47.7608 123.707C44.3608 123.527 41.9308 124.947 41.7608 128.797C41.6008 132.487 43.1708 135.107 46.9508 135.407C50.7308 135.707 52.6108 133.277 52.9608 129.707Z" fill="#F3F1F3"/>
<path d="M146.131 95.3169C146.451 97.3169 147.961 100.147 145.591 100.257C144.361 100.307 140.411 100.937 140.271 98.6369C140.021 94.4869 144.921 98.1969 146.131 95.3169Z" fill="#329CA7"/>
<path d="M118.861 104.087C118.552 104.02 118.279 103.841 118.094 103.584C117.91 103.327 117.827 103.011 117.861 102.697C117.845 102.497 117.881 102.296 117.966 102.114C118.05 101.932 118.18 101.775 118.343 101.657C118.505 101.54 118.695 101.466 118.895 101.443C119.094 101.42 119.296 101.449 119.481 101.527C119.636 101.565 119.781 101.636 119.905 101.736C120.03 101.835 120.131 101.961 120.202 102.104C120.272 102.247 120.311 102.404 120.314 102.563C120.317 102.723 120.286 102.881 120.221 103.027C120.181 103.348 120.015 103.64 119.76 103.838C119.505 104.037 119.182 104.127 118.861 104.087Z" fill="#329CA7"/>
<path d="M129.861 105.707C129.511 106.057 129.341 106.777 128.861 106.117C128.635 105.746 128.56 105.302 128.651 104.877C128.721 104.547 129.021 103.877 129.531 104.527C129.712 104.897 129.824 105.297 129.861 105.707Z" fill="#329CA7"/>
<path d="M73.0915 76.4468C76.5715 76.3168 81.7215 81.3168 81.8415 85.3768C81.8415 86.5568 81.7016 87.2368 80.4216 87.3768C76.1916 87.9768 69.9516 82.0368 70.4216 77.9368C70.6216 76.6168 71.4815 76.4668 73.0915 76.4468Z" fill="#329CA7"/>
<path d="M60.8613 87.0171C61.0113 86.1771 61.1013 85.1671 61.3613 84.2171C61.5946 83.0723 62.0636 81.9885 62.7385 81.0347C63.4133 80.0809 64.2793 79.278 65.2813 78.6771C66.1913 78.1771 66.9113 78.6771 67.1213 79.6771C67.7413 82.4671 70.3413 84.9971 68.2513 88.1271C67.9948 88.571 67.6553 88.9614 67.2513 89.2771C65.7313 90.2771 65.5413 93.5871 62.9913 92.5171C61.0213 91.7071 61.2213 89.1071 60.8613 87.0171Z" fill="#329CA7"/>
<path d="M69.8605 91.5972C72.3205 92.3172 72.2005 94.2372 72.6105 95.7072C73.0705 97.3672 71.7905 97.7771 70.5505 97.5571C69.3105 97.3371 67.0205 97.3071 67.2505 95.4471C67.3805 94.0471 68.9405 92.8172 69.8605 91.5972Z" fill="#40BEC8"/>
<path d="M80.6105 91.7073C78.7905 92.2873 78.2705 93.7073 78.1705 95.4273C77.6079 95.4366 77.0526 95.2992 76.5592 95.0287C76.0658 94.7582 75.6514 94.3639 75.3568 93.8845C75.0621 93.4052 74.8974 92.8574 74.8787 92.295C74.8601 91.7326 74.9882 91.1751 75.2506 90.6773C76.6106 88.7073 78.9105 90.5673 80.6105 91.7073Z" fill="#329CA7"/>
<path d="M181.502 76.7071C181.502 79.0371 176.502 83.9871 173.952 84.1871C171.632 84.3671 166.952 79.2471 166.872 76.4871C166.792 73.7271 171.872 68.9671 174.872 69.0771C177.172 69.1271 181.482 74.0671 181.502 76.7071Z" fill="#9934A6"/>
<path d="M44.6918 85.9971L43.0418 85.8471C42.7318 85.2171 42.4118 84.5871 42.0918 83.9571C41.4418 81.1571 42.3818 80.5371 46.8018 80.8271C46.9141 81.1447 47.103 81.4298 47.3518 81.6571C47.6595 82.3246 47.7281 83.0776 47.5459 83.7896C47.3638 84.5017 46.9421 85.1293 46.3518 85.5671L44.6918 85.9971Z" fill="#9934A6"/>
<path d="M44.6914 85.9969L46.3814 85.5669C48.7314 91.0169 48.7314 91.0169 44.8414 90.6569L44.6914 85.9969Z" fill="#F6317E"/>
<path d="M47.3508 81.7068C47.102 81.4795 46.9131 81.1944 46.8008 80.8768C47.2808 79.3068 47.8608 77.7768 49.6808 77.3368C49.9508 77.2768 50.6808 77.7968 50.6808 78.0568C50.7108 80.2268 48.9108 80.8468 47.3508 81.7068Z" fill="#F6317E"/>
<path d="M42.0921 83.957C42.4121 84.587 42.7321 85.217 43.0421 85.847C42.8666 86.4709 42.6253 87.0743 42.3222 87.647C41.6522 88.647 40.9121 90.4171 39.4721 89.1071C38.4121 88.1071 39.9022 87.107 40.6322 86.387C41.393 85.777 41.9107 84.9152 42.0921 83.957Z" fill="#F6317E"/>
<path d="M91.9512 98.9472C91.4612 102.787 89.7212 104.757 85.7612 104.807C81.3912 104.867 80.1912 101.977 80.2112 98.7372C80.2112 95.2772 82.7412 93.6372 86.2112 93.5372C90.1112 93.4272 91.3212 95.9172 91.9512 98.9472ZM85.8512 95.5972C84.2312 96.2172 82.6412 97.0872 82.7312 99.3172C82.7179 99.7376 82.7884 100.157 82.9386 100.549C83.0888 100.942 83.3157 101.302 83.6061 101.606C83.8965 101.91 84.2446 102.154 84.63 102.322C85.0155 102.491 85.4306 102.581 85.8512 102.587C86.3109 102.641 86.7767 102.594 87.2169 102.451C87.657 102.309 88.0612 102.072 88.4019 101.759C88.7426 101.446 89.0118 101.063 89.1912 100.637C89.3705 100.21 89.4558 99.7497 89.4412 99.2872C89.6012 97.0372 88.0012 96.1372 85.8612 95.5972H85.8512Z" fill="#EA9B49"/>
<path d="M29.9815 102.627C26.9815 99.827 29.1815 97.997 31.3815 96.627C34.4415 94.757 36.9915 96.3071 38.3815 99.0471C39.9115 102.047 38.5515 104.617 35.4615 105.817C32.3715 107.017 30.2615 106.257 29.9615 102.587C30.2715 102.647 30.6815 102.587 30.8715 102.797C32.8715 104.727 34.8715 105.347 36.5415 102.577C36.8129 102.199 36.9886 101.761 37.0536 101.3C37.1185 100.839 37.0708 100.369 36.9145 99.9306C36.7582 99.4922 36.498 99.0982 36.1561 98.7824C35.8142 98.4665 35.4009 98.2382 34.9515 98.117C31.8215 96.987 30.9515 99.3171 30.4115 101.727C30.3022 102.042 30.1579 102.344 29.9815 102.627Z" fill="#EA9B49"/>
<path d="M249.131 92.247C248.661 94.757 248.261 97.757 245.131 97.567C241.461 97.357 241.321 94.037 241.291 91.207C241.291 88.797 241.791 86.207 244.781 86.207C248.531 86.267 248.651 89.537 249.131 92.247Z" fill="#F3F1F3"/>
<path d="M185.611 92.5069C185.721 88.6969 187.491 86.7869 190.781 86.5069C191.569 86.4739 192.355 86.6057 193.089 86.8937C193.824 87.1817 194.489 87.6197 195.045 88.1796C195.6 88.7396 196.032 89.4092 196.314 90.1457C196.596 90.8822 196.721 91.6694 196.681 92.4569C196.431 95.7169 194.461 97.6869 191.231 97.6869C187.711 97.7069 185.861 95.5169 185.611 92.5069ZM193.611 91.6269C193.181 90.6269 192.491 89.6769 191.161 89.8069C190.79 89.8041 190.423 89.876 190.08 90.0185C189.738 90.161 189.427 90.3711 189.168 90.6362C188.908 90.9013 188.705 91.216 188.57 91.5615C188.435 91.907 188.371 92.2761 188.381 92.6469C188.359 92.978 188.412 93.3097 188.538 93.6168C188.664 93.9239 188.858 94.1982 189.106 94.4184C189.354 94.6386 189.65 94.7989 189.97 94.887C190.29 94.9752 190.625 94.9888 190.951 94.9269C191.7 94.7503 192.369 94.3308 192.854 93.7337C193.339 93.1367 193.612 92.3958 193.631 91.6269H193.611Z" fill="#9934A6"/>
<path d="M92.6721 79.7068C94.4521 79.9768 95.8721 80.8668 95.6721 82.8068C95.4721 84.7468 94.2221 86.2668 92.1421 86.0768C91.7305 86.0577 91.3272 85.954 90.9575 85.7722C90.5877 85.5904 90.2594 85.3343 89.9929 85.02C89.7265 84.7057 89.5276 84.3399 89.4087 83.9454C89.2899 83.5508 89.2536 83.136 89.3021 82.7268C89.3709 81.8879 89.7586 81.1072 90.3854 80.5454C91.0123 79.9837 91.8307 79.6835 92.6721 79.7068Z" fill="#422513"/>
<path d="M215.862 120.097C215.732 123.737 213.452 126.037 210.002 126.097C209.244 126.139 208.485 126.027 207.772 125.769C207.058 125.51 206.403 125.111 205.848 124.593C205.292 124.076 204.847 123.452 204.538 122.758C204.23 122.065 204.064 121.316 204.052 120.557C203.822 116.777 206.282 114.457 209.702 114.197C213.122 113.937 215.572 116.137 215.862 120.097Z" fill="#A5A5A5"/>
<path d="M52.9612 129.707C52.6112 133.307 50.8012 135.707 46.9612 135.457C43.1212 135.207 41.6112 132.537 41.7712 128.847C41.9312 124.997 44.3612 123.577 47.7712 123.757C51.3112 123.907 53.2612 125.867 52.9612 129.707Z" fill="#A5A5A5"/>
<path d="M85.8608 95.5972C88.0108 96.1372 89.6108 97.0372 89.4508 99.2872C89.4654 99.7497 89.3801 100.21 89.2008 100.637C89.0214 101.063 88.7522 101.446 88.4115 101.759C88.0708 102.072 87.6666 102.309 87.2265 102.451C86.7863 102.594 86.3205 102.641 85.8608 102.587C85.4402 102.581 85.0251 102.491 84.6396 102.322C84.2542 102.154 83.9061 101.91 83.6157 101.606C83.3253 101.301 83.0984 100.942 82.9482 100.549C82.798 100.157 82.7275 99.7376 82.7408 99.3171C82.6408 97.0871 84.2308 96.2172 85.8608 95.5972Z" fill="#329CA7"/>
<path d="M29.981 102.627C30.1561 102.35 30.3003 102.055 30.4109 101.747C30.9909 99.3369 31.821 97.0069 34.951 98.1369C35.4004 98.258 35.8137 98.4864 36.1556 98.8022C36.4975 99.1181 36.7577 99.512 36.914 99.9505C37.0703 100.389 37.118 100.859 37.053 101.32C36.9881 101.78 36.8124 102.219 36.541 102.597C34.881 105.367 32.861 104.747 30.871 102.817C30.681 102.627 30.2709 102.667 29.9609 102.607L29.981 102.627Z" fill="#40BEC8"/>
<path d="M193.632 91.6269C193.613 92.3931 193.343 93.1318 192.862 93.7285C192.381 94.3252 191.716 94.7465 190.972 94.9269C190.646 94.9888 190.31 94.9752 189.99 94.887C189.67 94.7988 189.375 94.6385 189.126 94.4183C188.878 94.1981 188.684 93.9239 188.558 93.6168C188.433 93.3097 188.379 92.9779 188.402 92.6469C188.391 92.2761 188.455 91.9069 188.59 91.5614C188.725 91.216 188.929 90.9012 189.188 90.6361C189.448 90.371 189.758 90.1609 190.1 90.0185C190.443 89.876 190.811 89.804 191.182 89.8069C192.512 89.7069 193.202 90.6169 193.632 91.6269Z" fill="#F6317E"/>
</svg>
