<svg width="245" height="215" viewBox="0 0 245 215" fill="none" xmlns="http://www.w3.org/2000/svg">
<g opacity="0.6">
<path style="mix-blend-mode:screen" opacity="0.5" d="M153.588 119.248C153.78 118.993 153.945 118.718 154.078 118.428C154.112 118.095 154.112 117.76 154.078 117.428C154.333 117.62 154.608 117.784 154.898 117.918C155.214 117.952 155.532 117.952 155.848 117.918C155.655 118.169 155.491 118.44 155.358 118.728C155.323 119.043 155.323 119.362 155.358 119.678C155.108 119.485 154.836 119.324 154.548 119.198C154.227 119.179 153.905 119.196 153.588 119.248Z" fill="url(#paint0_radial_821_1331)"/>
<path style="mix-blend-mode:screen" opacity="0.5" d="M154.918 163.297C155.111 163.046 155.275 162.775 155.408 162.487C155.442 162.155 155.442 161.82 155.408 161.487C155.663 161.68 155.938 161.844 156.228 161.977C156.544 162.012 156.862 162.012 157.178 161.977C156.985 162.228 156.821 162.5 156.688 162.787C156.653 163.103 156.653 163.422 156.688 163.737C156.437 163.545 156.165 163.38 155.878 163.247C155.557 163.228 155.235 163.245 154.918 163.297Z" fill="url(#paint1_radial_821_1331)"/>
<path style="mix-blend-mode:screen" opacity="0.5" d="M197.537 120.828C197.772 120.608 197.939 120.326 198.019 120.014C198.098 119.702 198.087 119.374 197.987 119.068C198.243 119.257 198.518 119.418 198.807 119.548C199.123 119.583 199.441 119.583 199.757 119.548C199.565 119.803 199.4 120.078 199.267 120.368C199.232 120.684 199.232 121.003 199.267 121.318C199.012 121.126 198.737 120.962 198.447 120.828C198.145 120.796 197.84 120.796 197.537 120.828Z" fill="url(#paint2_radial_821_1331)"/>
<path style="mix-blend-mode:screen" opacity="0.6" d="M185.529 137.308C185.557 137.356 185.576 137.41 185.585 137.466C185.593 137.522 185.59 137.579 185.576 137.634C185.562 137.689 185.537 137.74 185.503 137.785C185.47 137.831 185.427 137.869 185.379 137.898C185.28 137.956 185.163 137.973 185.053 137.945C184.942 137.917 184.847 137.846 184.789 137.748C184.76 137.699 184.741 137.645 184.732 137.589C184.724 137.533 184.727 137.476 184.741 137.422C184.755 137.367 184.78 137.315 184.814 137.27C184.847 137.225 184.89 137.187 184.939 137.158C185.037 137.102 185.154 137.086 185.264 137.114C185.374 137.142 185.469 137.211 185.529 137.308ZM188.809 129.868C188.659 129.954 188.538 130.082 188.461 130.237C188.385 130.392 188.356 130.566 188.378 130.737C188.401 130.908 188.474 131.069 188.588 131.198C188.703 131.328 188.853 131.42 189.02 131.464C189.187 131.508 189.363 131.501 189.526 131.445C189.689 131.388 189.832 131.284 189.936 131.146C190.04 131.008 190.1 130.842 190.11 130.67C190.119 130.497 190.077 130.326 189.989 130.178C189.932 130.08 189.856 129.994 189.766 129.925C189.676 129.856 189.573 129.806 189.463 129.777C189.353 129.748 189.239 129.742 189.127 129.757C189.014 129.773 188.906 129.81 188.809 129.868ZM177.809 133.338C177.516 133.511 177.281 133.767 177.134 134.073C176.987 134.38 176.934 134.723 176.982 135.059C177.03 135.396 177.176 135.71 177.402 135.964C177.629 136.217 177.925 136.398 178.254 136.483C178.583 136.568 178.93 136.554 179.251 136.442C179.572 136.33 179.853 136.125 180.058 135.854C180.262 135.583 180.382 135.257 180.402 134.918C180.422 134.578 180.34 134.241 180.169 133.948C179.937 133.564 179.566 133.285 179.132 133.172C178.699 133.058 178.239 133.117 177.849 133.338H177.809ZM184.809 147.518C184.659 147.604 184.538 147.732 184.461 147.887C184.385 148.042 184.356 148.216 184.378 148.387C184.401 148.558 184.474 148.719 184.588 148.848C184.703 148.978 184.853 149.07 185.02 149.114C185.187 149.158 185.363 149.151 185.526 149.094C185.689 149.038 185.832 148.934 185.936 148.796C186.04 148.658 186.1 148.492 186.11 148.32C186.119 148.147 186.077 147.976 185.989 147.828C185.875 147.648 185.698 147.517 185.493 147.459C185.288 147.402 185.069 147.423 184.879 147.518H184.809Z" fill="url(#paint3_radial_821_1331)"/>
</g>
<path style="mix-blend-mode:screen" opacity="0.5" d="M40.7988 90.7678C40.9916 90.5168 41.156 90.2451 41.2888 89.9578C41.3235 89.6421 41.3235 89.3235 41.2888 89.0078C41.5408 89.1965 41.8123 89.3575 42.0988 89.4878C42.4311 89.5263 42.7666 89.5263 43.0988 89.4878C42.9065 89.7427 42.7422 90.0176 42.6088 90.3078C42.5741 90.6235 42.5741 90.9421 42.6088 91.2578C42.3578 91.065 42.0861 90.9007 41.7988 90.7678C41.4666 90.7294 41.1311 90.7294 40.7988 90.7678Z" fill="url(#paint4_radial_821_1331)"/>
<path opacity="0.6" d="M94.959 88.5278C95.9565 88.989 96.9019 89.5556 97.779 90.2178C98.3665 91.1429 98.8526 92.1286 99.229 93.1578C99.6908 92.1637 100.257 91.2217 100.919 90.3478C101.864 89.7586 102.87 89.2725 103.919 88.8978C102.922 88.4378 101.979 87.8676 101.109 87.1978C100.515 86.2747 100.026 85.2887 99.649 84.2578C99.1894 85.2531 98.6227 86.1953 97.959 87.0678C97.0158 87.6634 96.0097 88.1531 94.959 88.5278Z" fill="url(#paint5_radial_821_1331)"/>
<path opacity="0.6" d="M100.548 155.878C99.6197 155.666 98.6708 155.555 97.7183 155.548C96.8223 155.871 95.964 156.29 95.1583 156.798C95.3716 155.87 95.4823 154.921 95.4883 153.968C95.1653 153.072 94.7462 152.214 94.2383 151.408C95.1668 151.621 96.1158 151.731 97.0683 151.738C97.9643 151.415 98.8226 150.996 99.6283 150.488C99.4159 151.417 99.3052 152.366 99.2983 153.318C99.6212 154.214 100.04 155.073 100.548 155.878Z" fill="url(#paint6_radial_821_1331)"/>
<path style="mix-blend-mode:screen" opacity="0.5" d="M120.898 45.518C121.064 45.7862 121.202 46.0711 121.308 46.368C121.306 46.6877 121.27 47.0063 121.198 47.318C121.468 47.1462 121.757 47.0053 122.058 46.898C122.375 46.9005 122.69 46.9373 122.998 47.008C122.779 46.7698 122.632 46.4732 122.577 46.1538C122.522 45.8344 122.561 45.506 122.688 45.208C122.421 45.3781 122.136 45.5189 121.838 45.628C121.522 45.6255 121.207 45.5887 120.898 45.518Z" fill="url(#paint7_radial_821_1331)"/>
<path style="mix-blend-mode:screen" opacity="0.6" d="M111.228 62.6676C111.301 62.7102 111.36 62.7736 111.398 62.8497C111.435 62.9259 111.449 63.0114 111.438 63.0955C111.427 63.1796 111.392 63.2586 111.336 63.3225C111.28 63.3864 111.206 63.4324 111.125 63.4546C111.043 63.4768 110.956 63.4743 110.876 63.4473C110.795 63.4204 110.724 63.3703 110.672 63.3032C110.62 63.2362 110.589 63.1553 110.583 63.0707C110.577 62.986 110.596 62.9015 110.638 62.8277C110.666 62.7782 110.703 62.7348 110.748 62.6999C110.793 62.665 110.845 62.6394 110.899 62.6245C110.954 62.6096 111.012 62.6058 111.068 62.6132C111.124 62.6206 111.179 62.6391 111.228 62.6676ZM106.168 55.6676C106.078 55.8153 106.034 55.9863 106.042 56.159C106.05 56.3317 106.109 56.4981 106.211 56.6371C106.314 56.7761 106.456 56.8814 106.619 56.9394C106.781 56.9975 106.958 57.0058 107.125 56.9632C107.293 56.9206 107.444 56.8291 107.559 56.7003C107.674 56.5715 107.749 56.4113 107.773 56.2402C107.797 56.069 107.769 55.8946 107.693 55.7392C107.618 55.5838 107.497 55.4544 107.348 55.3677C107.249 55.311 107.14 55.2746 107.027 55.2605C106.913 55.2464 106.799 55.255 106.689 55.2857C106.579 55.3164 106.476 55.3686 106.387 55.4393C106.298 55.5101 106.223 55.5979 106.168 55.6976V55.6676ZM115.958 59.4277C115.844 59.6246 115.769 59.8422 115.739 60.0679C115.709 60.2936 115.724 60.523 115.782 60.7431C115.841 60.9632 115.942 61.1696 116.08 61.3505C116.218 61.5315 116.391 61.6834 116.588 61.7977C116.785 61.9119 117.002 61.9862 117.228 62.0164C117.454 62.0466 117.683 62.032 117.903 61.9735C118.123 61.915 118.33 61.8137 118.511 61.6755C118.692 61.5372 118.844 61.3646 118.958 61.1676C119.187 60.7722 119.251 60.302 119.135 59.8597C119.019 59.4175 118.732 59.0392 118.338 58.8076C118.141 58.6889 117.922 58.6112 117.694 58.5792C117.466 58.5472 117.234 58.5615 117.012 58.6212C116.789 58.681 116.582 58.785 116.401 58.927C116.219 59.069 116.069 59.2461 115.958 59.4476V59.4277ZM110.118 73.3176C110.033 73.4646 109.993 73.6335 110.004 73.803C110.014 73.9725 110.075 74.1351 110.178 74.2702C110.281 74.4053 110.421 74.5069 110.582 74.5622C110.743 74.6174 110.916 74.6239 111.08 74.5807C111.245 74.5376 111.393 74.4467 111.505 74.3197C111.618 74.1926 111.691 74.035 111.714 73.8667C111.737 73.6985 111.71 73.5271 111.636 73.3742C111.562 73.2213 111.444 73.0938 111.298 73.0076C111.096 72.8967 110.859 72.8702 110.638 72.9339C110.416 72.9976 110.23 73.1464 110.118 73.3476V73.3176Z" fill="url(#paint8_radial_821_1331)"/>
<path style="mix-blend-mode:overlay" d="M189.918 197.178C175.688 198.508 162.918 210.438 149.918 214.448H221.478C213.908 203.698 202.668 195.988 189.918 197.178Z" fill="url(#paint9_radial_821_1331)"/>
<path d="M172.244 152.311C200.284 124.272 200.284 78.8104 172.244 50.7707C144.205 22.7311 98.7435 22.7311 70.7039 50.7708C42.6642 78.8104 42.6642 124.272 70.7039 152.311C98.7435 180.351 144.205 180.351 172.244 152.311Z" fill="url(#paint10_radial_821_1331)"/>
<path d="M172.235 152.416C200.274 124.376 200.274 78.9149 172.235 50.8753C144.195 22.8356 98.7337 22.8356 70.6941 50.8752C42.6545 78.9149 42.6545 124.376 70.6941 152.416C98.7338 180.455 144.195 180.455 172.235 152.416Z" fill="url(#paint11_radial_821_1331)"/>
<path style="mix-blend-mode:multiply" opacity="0.25" d="M141.538 122.268C123.45 117.926 107.753 106.734 97.7526 91.0485C87.7525 75.363 84.2305 56.4086 87.9283 38.1777C77.3215 43.7882 68.2902 51.9679 61.6599 61.969C55.0296 71.9701 51.0119 83.4735 49.9741 95.4278C48.9363 107.382 50.9114 119.406 55.719 130.4C60.5266 141.394 68.0131 151.008 77.4944 158.362C86.9757 165.717 98.1491 170.577 109.993 172.5C121.838 174.422 133.975 173.345 145.296 169.367C156.616 165.389 166.759 158.637 174.797 149.727C182.835 140.818 188.512 130.037 191.308 118.368C191.498 117.548 191.658 116.728 191.828 115.898C176.405 124.09 158.517 126.356 141.538 122.268Z" fill="url(#paint12_radial_821_1331)"/>
<path style="mix-blend-mode:screen" opacity="0.25" d="M188.339 107.498C187.36 118.786 183.757 129.689 177.819 139.338C175.619 142.968 172.819 146.488 169.019 148.338C164.129 150.658 158.119 149.768 153.509 146.928C148.899 144.088 145.569 139.518 143.249 134.628C139.249 126.238 138.059 116.878 135.659 107.918C133.259 98.958 129.219 89.828 121.509 84.688C114.569 80.058 105.369 79.168 99.3192 73.428C93.2692 67.688 92.0092 58.198 95.1292 50.588C97.5958 44.9405 101.865 40.2701 107.269 37.308C113.269 33.858 120.649 34.208 127.429 34.818C141.554 36.0684 154.917 41.7678 165.597 51.0959C176.276 60.4241 183.721 72.8999 186.859 86.728C188.403 93.5361 188.903 100.54 188.339 107.498Z" fill="url(#paint13_radial_821_1331)"/>
<path style="mix-blend-mode:screen" opacity="0.25" d="M128.478 149.548C121.588 145.758 114.598 141.188 110.408 134.338C108.559 131.076 107.318 127.505 106.748 123.798C106.168 120.798 105.988 116.688 103.828 114.348C101.208 111.528 95.4881 111.208 91.9581 110.138C88.619 109.185 85.4036 107.842 82.3781 106.138C75.0781 101.818 69.7481 94.4482 66.5681 86.7182C64.1872 80.8367 63.1916 74.4862 63.6581 68.1582C55.9476 81.1691 52.8659 96.4061 54.9144 111.391C56.9628 126.375 64.0208 140.226 74.9404 150.69C85.86 161.154 99.9988 167.616 115.057 169.025C130.115 170.433 145.207 166.706 157.878 158.448C147.628 157.988 137.328 154.448 128.478 149.548Z" fill="url(#paint14_radial_821_1331)"/>
<path style="mix-blend-mode:screen" opacity="0.25" d="M98.0182 153.038C92.5282 147.038 92.1382 139.548 97.6282 133.428C102.708 127.768 110.228 126.268 116.928 123.348C125.288 119.718 126.608 112.278 132.368 106.008C138.668 99.1684 146.238 100.118 154.598 98.3184C165.598 95.9684 159.738 86.7884 165.758 80.7984C170.948 75.6384 177.118 80.2384 179.408 85.5884C182.408 92.7184 184.248 101.458 185.888 108.968C186.546 112.037 187.047 115.138 187.388 118.258C189.807 108.718 190.125 98.7666 188.322 89.0912C186.519 79.4158 182.637 70.2471 176.945 62.2184C171.252 54.1898 163.885 47.4924 155.351 42.5891C146.817 37.6858 137.321 34.6933 127.518 33.8184C125.808 33.6684 124.108 33.5984 122.418 33.5684C130.981 34.8106 138.957 38.65 145.268 44.5684C157.668 56.0884 163.878 81.5084 144.398 89.1884C140.508 90.7284 136.338 91.4784 132.398 93.0184C127.799 95.0185 123.546 97.7356 119.798 101.068C111.948 107.648 107.078 117.738 96.7982 120.998C80.3182 126.218 65.0182 113.608 59.9082 98.7084C58.0124 92.9352 56.9483 86.9215 56.7482 80.8484C53.2695 91.7489 52.5976 103.351 54.7948 114.58C56.992 125.809 61.9873 136.303 69.3179 145.088C76.6486 153.873 86.0777 160.667 96.7319 164.84C107.386 169.012 118.921 170.429 130.268 168.958C117.998 167.008 106.348 162.088 98.0182 153.038Z" fill="url(#paint15_radial_821_1331)"/>
<path style="mix-blend-mode:screen" opacity="0.89" d="M172.748 76.1378C169.428 78.6678 162.928 75.7278 158.228 69.5778C153.528 63.4278 152.428 56.3778 155.748 53.8478C159.068 51.3178 165.578 54.2478 170.268 60.3978C174.958 66.5478 176.048 73.5978 172.748 76.1378Z" fill="url(#paint16_radial_821_1331)"/>
<path style="mix-blend-mode:screen" opacity="0.89" d="M180.209 94.6878C177.959 95.1978 175.369 92.2478 174.419 88.0778C173.469 83.9078 174.529 80.1279 176.779 79.6179C179.029 79.1079 181.619 82.0578 182.559 86.2278C183.499 90.3978 182.459 94.1778 180.209 94.6878Z" fill="url(#paint17_radial_821_1331)"/>
<path style="mix-blend-mode:multiply" opacity="0.25" d="M84.4181 139.628C84.3558 140.336 84.0849 141.01 83.6396 141.563C83.1944 142.117 82.5948 142.526 81.9169 142.739C81.239 142.952 80.5132 142.958 79.8314 142.758C79.1496 142.558 78.5425 142.161 78.0869 141.615C77.6314 141.07 77.3479 140.402 77.2723 139.695C77.1967 138.989 77.3325 138.276 77.6624 137.647C77.9924 137.017 78.5016 136.5 79.1257 136.16C79.7497 135.821 80.4605 135.674 81.1681 135.738C82.1144 135.825 82.9878 136.283 83.597 137.012C84.2062 137.741 84.5015 138.682 84.4181 139.628Z" fill="url(#paint18_radial_821_1331)"/>
<path style="mix-blend-mode:multiply" opacity="0.25" d="M87.6378 146.728C87.6089 147.055 87.4837 147.366 87.2781 147.622C87.0725 147.878 86.7956 148.067 86.4826 148.165C86.1695 148.264 85.8342 148.267 85.5192 148.175C85.2041 148.083 84.9234 147.9 84.7124 147.649C84.5015 147.397 84.3699 147.089 84.3341 146.763C84.2983 146.436 84.3601 146.107 84.5116 145.816C84.663 145.525 84.8974 145.285 85.1851 145.127C85.4727 144.969 85.8008 144.9 86.1278 144.928C86.3452 144.947 86.5567 145.009 86.7503 145.109C86.9439 145.21 87.1157 145.348 87.256 145.515C87.3962 145.682 87.5021 145.875 87.5677 146.084C87.6332 146.292 87.657 146.511 87.6378 146.728Z" fill="url(#paint19_radial_821_1331)"/>
<path style="mix-blend-mode:multiply" opacity="0.25" d="M106.063 146.395C107.017 143.285 105.269 139.991 102.159 139.037C99.0493 138.083 95.755 139.831 94.8012 142.941C93.8474 146.051 95.5953 149.345 98.7053 150.299C101.815 151.253 105.11 149.505 106.063 146.395Z" fill="url(#paint20_radial_821_1331)"/>
<path style="mix-blend-mode:multiply" opacity="0.25" d="M111.149 157.058C111.111 157.484 110.947 157.889 110.679 158.223C110.411 158.556 110.05 158.802 109.643 158.931C109.235 159.06 108.798 159.066 108.387 158.947C107.976 158.829 107.609 158.592 107.333 158.265C107.056 157.939 106.882 157.538 106.833 157.114C106.783 156.689 106.861 156.259 107.055 155.878C107.249 155.496 107.551 155.181 107.924 154.971C108.297 154.762 108.723 154.667 109.149 154.698C109.437 154.718 109.718 154.796 109.975 154.926C110.232 155.056 110.461 155.237 110.647 155.457C110.834 155.677 110.974 155.932 111.06 156.207C111.147 156.482 111.177 156.771 111.149 157.058Z" fill="url(#paint21_radial_821_1331)"/>
<path style="mix-blend-mode:multiply" opacity="0.25" d="M67.4187 102.368C67.3282 103.375 66.9414 104.333 66.307 105.121C65.6727 105.909 64.8193 106.491 63.8544 106.795C62.8895 107.098 61.8564 107.108 60.8854 106.825C59.9145 106.542 59.0492 105.978 58.3987 105.203C57.7482 104.429 57.3416 103.479 57.2303 102.473C57.119 101.468 57.3079 100.453 57.7733 99.5545C58.2386 98.6565 58.9595 97.9164 59.845 97.4276C60.7304 96.9388 61.7408 96.7232 62.7487 96.8081C63.4211 96.8647 64.0757 97.0537 64.6748 97.3641C65.2739 97.6746 65.8058 98.1004 66.2398 98.6171C66.6738 99.1338 67.0013 99.7312 67.2037 100.375C67.406 101.019 67.4791 101.696 67.4187 102.368Z" fill="url(#paint22_radial_821_1331)"/>
<path style="mix-blend-mode:multiply" opacity="0.25" d="M69.1585 111.778C69.1132 112.282 68.9196 112.761 68.6021 113.155C68.2847 113.549 67.8576 113.84 67.3749 113.991C66.8922 114.142 66.3754 114.147 65.8899 114.005C65.4044 113.863 64.9718 113.58 64.6468 113.193C64.3219 112.805 64.1191 112.33 64.064 111.827C64.009 111.324 64.1042 110.816 64.3376 110.367C64.5711 109.918 64.9322 109.549 65.3756 109.305C65.8189 109.061 66.3245 108.954 66.8285 108.998C67.1643 109.027 67.491 109.122 67.79 109.277C68.089 109.433 68.3544 109.646 68.5708 109.904C68.7873 110.162 68.9507 110.461 69.0515 110.782C69.1524 111.104 69.1887 111.442 69.1585 111.778Z" fill="url(#paint23_radial_821_1331)"/>
<path style="mix-blend-mode:multiply" opacity="0.25" d="M83.9885 72.3379C83.9015 73.323 83.5244 74.2603 82.9048 75.0311C82.2852 75.8019 81.451 76.3716 80.5075 76.6682C79.5641 76.9649 78.5539 76.9751 77.6047 76.6975C76.6555 76.42 75.8099 75.8672 75.1748 75.1091C74.5398 74.351 74.1438 73.4215 74.0371 72.4384C73.9303 71.4552 74.1174 70.4624 74.5749 69.5856C75.0323 68.7088 75.7395 67.9874 76.607 67.5125C77.4745 67.0377 78.4634 66.8307 79.4485 66.9179C80.7692 67.0347 81.9894 67.6714 82.8408 68.6878C83.6922 69.7042 84.105 71.0172 83.9885 72.3379Z" fill="url(#paint24_radial_821_1331)"/>
<path style="mix-blend-mode:multiply" opacity="0.25" d="M81.9294 86.6781C83.4868 86.6781 84.7494 85.4155 84.7494 83.8581C84.7494 82.3007 83.4868 81.0381 81.9294 81.0381C80.3719 81.0381 79.1094 82.3007 79.1094 83.8581C79.1094 85.4155 80.3719 86.6781 81.9294 86.6781Z" fill="url(#paint25_radial_821_1331)"/>
<path style="mix-blend-mode:multiply" opacity="0.25" d="M90.4581 80.4985C90.4143 80.8874 90.2572 81.255 90.0065 81.5556C89.7557 81.8562 89.4223 82.0766 89.0475 82.1895C88.6727 82.3023 88.273 82.3028 87.898 82.1907C87.523 82.0786 87.1891 81.8589 86.9377 81.5589C86.6863 81.2588 86.5285 80.8916 86.4838 80.5028C86.4391 80.1139 86.5095 79.7204 86.6863 79.3712C86.8631 79.0219 87.1384 78.7323 87.4783 78.538C87.8181 78.3438 88.2075 78.2535 88.5981 78.2785C88.8684 78.2957 89.1323 78.3677 89.3739 78.49C89.6156 78.6123 89.8298 78.7824 90.0037 78.99C90.1777 79.1976 90.3076 79.4383 90.3857 79.6976C90.4638 79.9569 90.4885 80.2294 90.4581 80.4985Z" fill="url(#paint26_radial_821_1331)"/>
<path style="mix-blend-mode:multiply" opacity="0.25" d="M152.75 143.448C152.673 144.307 152.343 145.124 151.802 145.796C151.261 146.467 150.533 146.963 149.709 147.221C148.886 147.479 148.005 147.487 147.178 147.243C146.35 147 145.613 146.517 145.06 145.855C144.507 145.193 144.163 144.382 144.072 143.524C143.98 142.666 144.145 141.801 144.545 141.037C144.945 140.273 145.563 139.645 146.32 139.232C147.078 138.819 147.941 138.64 148.8 138.718C149.949 138.825 151.01 139.382 151.75 140.268C152.49 141.154 152.85 142.298 152.75 143.448Z" fill="url(#paint27_radial_821_1331)"/>
<path style="mix-blend-mode:multiply" opacity="0.25" d="M159.539 139.378C159.5 139.833 159.326 140.267 159.041 140.623C158.755 140.98 158.37 141.244 157.934 141.382C157.498 141.519 157.032 141.525 156.593 141.397C156.154 141.27 155.763 141.015 155.469 140.665C155.175 140.315 154.991 139.886 154.942 139.432C154.892 138.977 154.978 138.518 155.188 138.113C155.399 137.708 155.726 137.374 156.126 137.154C156.527 136.934 156.984 136.838 157.439 136.878C158.049 136.931 158.613 137.225 159.007 137.693C159.4 138.162 159.592 138.768 159.539 139.378Z" fill="url(#paint28_radial_821_1331)"/>
<path style="mix-blend-mode:multiply" opacity="0.25" d="M157.098 149.448C157.069 149.804 156.934 150.143 156.712 150.422C156.49 150.701 156.19 150.908 155.85 151.016C155.51 151.124 155.146 151.129 154.803 151.03C154.461 150.931 154.155 150.732 153.926 150.459C153.696 150.186 153.553 149.851 153.515 149.496C153.476 149.141 153.543 148.783 153.709 148.467C153.874 148.151 154.129 147.891 154.443 147.72C154.756 147.55 155.113 147.476 155.468 147.508C155.94 147.552 156.377 147.78 156.682 148.143C156.987 148.506 157.137 148.976 157.098 149.448Z" fill="url(#paint29_radial_821_1331)"/>
<path d="M192.748 97.1783C193.264 98.8728 193.582 100.621 193.698 102.388C210.638 106.338 220.908 110.828 220.628 114.998C220.048 123.608 174.738 127.558 119.438 123.828C64.1383 120.098 19.7483 110.098 20.3283 101.498C20.6183 97.1983 32.0783 94.0683 50.3283 92.4983C50.4183 90.9983 50.5983 89.4983 50.8183 88.0283C20.4283 89.7583 0.468329 94.4983 0.00832945 101.328C-0.771671 112.768 53.3283 125.728 120.828 130.278C188.328 134.828 243.678 129.278 244.448 117.818C244.938 110.718 224.418 103.058 192.748 97.1783Z" fill="url(#paint30_radial_821_1331)"/>
<g style="mix-blend-mode:screen">
<path style="mix-blend-mode:screen" d="M193.688 102.389C209.168 105.999 219.058 110.059 220.428 113.919C220.844 113.45 221.103 112.862 221.168 112.239C221.448 108.069 211.168 103.579 194.248 99.6287C194.188 98.8887 194.088 98.1487 193.968 97.4087L192.738 97.1787C193.254 98.8732 193.572 100.621 193.688 102.389Z" fill="url(#paint31_radial_821_1331)"/>
<path style="mix-blend-mode:screen" d="M20.8778 98.7283C20.8686 99.1006 20.9331 99.471 21.0678 99.8183C23.8678 96.3783 34.5578 93.8183 50.3378 92.4683C50.3378 91.5583 50.4878 90.6483 50.5978 89.7383C32.5178 91.3383 21.1678 94.4483 20.8778 98.7283Z" fill="url(#paint32_radial_821_1331)"/>
<path style="mix-blend-mode:screen" d="M244.458 117.788C244.474 117.473 244.451 117.157 244.388 116.848C238.108 127.038 185.188 131.788 121.388 127.488C55.6881 123.058 2.74809 110.658 0.638094 99.4482C0.283445 100.001 0.0705062 100.633 0.0180951 101.288C-0.761905 112.728 53.3381 125.688 120.838 130.238C188.338 134.788 243.688 129.218 244.458 117.788Z" fill="url(#paint33_radial_821_1331)"/>
</g>
<path style="mix-blend-mode:multiply" d="M120.838 130.248C113.918 129.778 107.138 129.248 100.538 128.588L107.638 122.918C111.498 123.258 115.428 123.561 119.428 123.828C124.761 124.188 129.995 124.478 135.128 124.698L140.988 131.318C134.428 131.068 127.748 130.708 120.838 130.248ZM20.328 101.498C20.548 98.248 27.148 95.668 38.228 93.918L27.748 90.168C10.748 92.578 0.34804 96.448 0.0180397 101.298C-0.25196 105.298 6.09804 109.418 17.308 113.298L31.848 109.668C24.338 106.988 20.148 104.178 20.328 101.498ZM83.508 120.358C72.098 118.898 61.728 117.198 52.828 115.358L41.908 119.948C51.578 122.018 62.588 123.948 74.598 125.578L83.508 120.358ZM182.188 124.628C174.348 125.078 165.568 125.278 156.108 125.218L165.738 131.828C176.528 131.828 186.598 131.548 195.678 130.978L182.188 124.628ZM244.458 117.788C244.838 112.178 232.028 106.218 210.938 101.048L197.038 103.198C211.958 106.948 220.878 111.118 220.618 114.998C220.438 117.658 215.978 119.868 208.278 121.548L228.548 126.768C238.458 124.448 244.218 121.448 244.458 117.788Z" fill="url(#paint34_radial_821_1331)"/>
<path d="M179.939 142.979C179.303 144.633 178.481 146.21 177.489 147.679C188.399 161.169 193.739 171.009 190.969 174.129C185.229 180.569 147.129 155.939 105.859 119.129C64.5889 82.3185 35.7489 47.2385 41.5289 40.7885C44.3889 37.5785 55.3289 42.1285 70.6889 52.0485C71.6889 50.9185 72.6889 49.8485 73.8189 48.8085C48.8189 31.5685 30.1989 23.0885 25.6489 28.1985C18.0289 36.7585 52.6489 80.1285 103.049 125.059C153.449 169.989 200.409 199.489 208.049 190.929C212.749 185.639 201.279 167.029 179.939 142.979Z" fill="url(#paint35_radial_821_1331)"/>
<g style="mix-blend-mode:screen">
<path style="mix-blend-mode:screen" d="M177.488 147.679C187.488 160.009 192.758 169.269 191.488 173.159C192.104 173.041 192.667 172.733 193.098 172.279C195.878 169.169 190.538 159.279 179.628 145.829C180.038 145.209 180.408 144.569 180.768 143.909L179.948 142.979C179.31 144.634 178.484 146.21 177.488 147.679Z" fill="url(#paint36_radial_821_1331)"/>
<path style="mix-blend-mode:screen" d="M43.6587 38.9486C43.4182 39.2424 43.2411 39.5829 43.1387 39.9486C47.4487 38.9486 57.4187 43.4986 70.6887 52.0786C71.2887 51.3886 71.9287 50.7286 72.5687 50.0786C57.3487 40.2386 46.4987 35.7486 43.6587 38.9486Z" fill="url(#paint37_radial_821_1331)"/>
<path style="mix-blend-mode:screen" d="M208.029 190.928C208.234 190.69 208.409 190.428 208.549 190.148C197.359 194.348 152.769 165.688 105.169 123.218C56.1689 79.4779 22.0289 37.2179 27.2689 27.1279C26.6479 27.3435 26.0909 27.7114 25.6489 28.1979C18.0289 36.7579 52.6489 80.1279 103.049 125.058C153.449 169.988 200.409 199.448 208.029 190.928Z" fill="url(#paint38_radial_821_1331)"/>
</g>
<path style="mix-blend-mode:multiply" d="M103.049 125.059C97.876 120.445 92.876 115.865 88.0493 111.319L97.1093 111.189C99.9493 113.815 102.856 116.462 105.829 119.129C109.843 122.675 113.816 126.115 117.749 129.449L118.299 138.269C113.266 134.035 108.183 129.632 103.049 125.059ZM41.5293 40.7886C43.6893 38.3686 50.4693 40.3686 60.2693 45.7886L54.3293 36.4486C39.4293 27.8986 28.9093 24.5686 25.6493 28.2386C22.9993 31.2386 25.4593 38.3786 31.8793 48.3386L45.5593 54.3386C41.3093 47.5886 39.7493 42.7986 41.5293 40.7886ZM79.7493 94.3886C71.6593 86.2486 64.5393 78.5486 58.6693 71.6286L47.2393 68.6286C53.5893 76.1886 61.0893 84.4286 69.5293 93.0886L79.7493 94.3886ZM154.839 158.199C148.389 153.749 141.349 148.529 133.939 142.689L137.469 153.809C145.959 160.429 154.069 166.359 161.569 171.469L154.839 158.199ZM208.069 190.929C211.799 186.739 205.369 174.179 191.939 157.189L179.669 150.369C189.119 162.469 193.589 171.219 191.009 174.129C189.229 176.129 184.359 175.129 177.269 171.749L190.029 188.279C199.209 192.519 205.609 193.649 208.029 190.929H208.069Z" fill="url(#paint39_radial_821_1331)"/>
<defs>
<radialGradient id="paint0_radial_821_1331" cx="0" cy="0" r="1" gradientUnits="userSpaceOnUse" gradientTransform="translate(131.173 172.915) rotate(-120.669) scale(101.195 101.195)">
<stop offset="0.06" stop-color="#FCE085"/>
<stop offset="0.96" stop-color="#E988FD"/>
</radialGradient>
<radialGradient id="paint1_radial_821_1331" cx="0" cy="0" r="1" gradientUnits="userSpaceOnUse" gradientTransform="translate(125.492 127.717) rotate(-120.669) scale(101.195 101.195)">
<stop offset="0.06" stop-color="#FCE085"/>
<stop offset="0.96" stop-color="#E988FD"/>
</radialGradient>
<radialGradient id="paint2_radial_821_1331" cx="0" cy="0" r="1" gradientUnits="userSpaceOnUse" gradientTransform="translate(125.491 127.718) rotate(-120.669) scale(101.185 101.185)">
<stop offset="0.06" stop-color="#FCE085"/>
<stop offset="0.96" stop-color="#E988FD"/>
</radialGradient>
<radialGradient id="paint3_radial_821_1331" cx="0" cy="0" r="1" gradientUnits="userSpaceOnUse" gradientTransform="translate(183.559 139.438) scale(8.26999 8.26999)">
<stop offset="0.06" stop-color="#FCE085"/>
<stop offset="0.96" stop-color="#E988FD"/>
</radialGradient>
<radialGradient id="paint4_radial_821_1331" cx="0" cy="0" r="1" gradientUnits="userSpaceOnUse" gradientTransform="translate(-31.2834 98.0632) rotate(-120.669) scale(101.195 101.195)">
<stop offset="0.06" stop-color="#FCE085"/>
<stop offset="0.96" stop-color="#E988FD"/>
</radialGradient>
<radialGradient id="paint5_radial_821_1331" cx="0" cy="0" r="1" gradientUnits="userSpaceOnUse" gradientTransform="translate(99.409 88.7078) rotate(180) scale(4.45 4.45)">
<stop offset="0.06" stop-color="#FCE085"/>
<stop offset="0.96" stop-color="#E988FD"/>
</radialGradient>
<radialGradient id="paint6_radial_821_1331" cx="0" cy="0" r="1" gradientUnits="userSpaceOnUse" gradientTransform="translate(97.3883 153.648) rotate(180) scale(3.16 3.16)">
<stop offset="0.06" stop-color="#FCE085"/>
<stop offset="0.96" stop-color="#E988FD"/>
</radialGradient>
<radialGradient id="paint7_radial_821_1331" cx="0" cy="0" r="1" gradientUnits="userSpaceOnUse" gradientTransform="translate(45.4382 32.6824) rotate(125.31) scale(101.22 101.22)">
<stop offset="0.06" stop-color="#FCE085"/>
<stop offset="0.96" stop-color="#E988FD"/>
</radialGradient>
<radialGradient id="paint8_radial_821_1331" cx="0" cy="0" r="1" gradientUnits="userSpaceOnUse" gradientTransform="translate(112.608 64.9577) scale(8.27 8.27)">
<stop offset="0.06" stop-color="#FCE085"/>
<stop offset="0.96" stop-color="#E988FD"/>
</radialGradient>
<radialGradient id="paint9_radial_821_1331" cx="0" cy="0" r="1" gradientUnits="userSpaceOnUse" gradientTransform="translate(185.688 205.748) scale(26.04 26.04)">
<stop offset="0.08" stop-color="#F128C5"/>
<stop offset="1" stop-color="#C11BB9"/>
</radialGradient>
<radialGradient id="paint10_radial_821_1331" cx="0" cy="0" r="1" gradientUnits="userSpaceOnUse" gradientTransform="translate(119.313 48.4615) rotate(5.26769) scale(170.763)">
<stop offset="0.02" stop-color="#732FA4"/>
<stop offset="0.35" stop-color="#702DA1"/>
<stop offset="0.62" stop-color="#682797"/>
<stop offset="0.86" stop-color="#591D86"/>
<stop offset="1" stop-color="#51167B"/>
</radialGradient>
<radialGradient id="paint11_radial_821_1331" cx="0" cy="0" r="1" gradientUnits="userSpaceOnUse" gradientTransform="translate(156.084 61.855) rotate(5.2677) scale(130.423)">
<stop offset="0.02" stop-color="#732FA4"/>
<stop offset="0.35" stop-color="#702DA1"/>
<stop offset="0.62" stop-color="#682797"/>
<stop offset="0.86" stop-color="#591D86"/>
<stop offset="1" stop-color="#51167B"/>
</radialGradient>
<radialGradient id="paint12_radial_821_1331" cx="0" cy="0" r="1" gradientUnits="userSpaceOnUse" gradientTransform="translate(159.207 80.6312) rotate(13.48) scale(115.88 115.88)">
<stop offset="0.02" stop-color="#732FA4"/>
<stop offset="0.35" stop-color="#702DA1"/>
<stop offset="0.62" stop-color="#682797"/>
<stop offset="0.86" stop-color="#591D86"/>
<stop offset="1" stop-color="#51167B"/>
</radialGradient>
<radialGradient id="paint13_radial_821_1331" cx="0" cy="0" r="1" gradientUnits="userSpaceOnUse" gradientTransform="translate(139.858 51.6121) rotate(5.14277) scale(128.768 128.768)">
<stop offset="0.02" stop-color="#732FA4"/>
<stop offset="0.35" stop-color="#702DA1"/>
<stop offset="0.62" stop-color="#682797"/>
<stop offset="0.77" stop-color="#60218D"/>
<stop offset="1" stop-color="#51167B"/>
</radialGradient>
<radialGradient id="paint14_radial_821_1331" cx="0" cy="0" r="1" gradientUnits="userSpaceOnUse" gradientTransform="translate(120.377 53.4379) rotate(5.14277) scale(159.874 159.874)">
<stop offset="0.02" stop-color="#732FA4"/>
<stop offset="0.35" stop-color="#702DA1"/>
<stop offset="0.62" stop-color="#682797"/>
<stop offset="0.77" stop-color="#60218D"/>
<stop offset="1" stop-color="#51167B"/>
</radialGradient>
<radialGradient id="paint15_radial_821_1331" cx="0" cy="0" r="1" gradientUnits="userSpaceOnUse" gradientTransform="translate(120.421 52.0609) rotate(5.14277) scale(162.153 162.153)">
<stop offset="0.02" stop-color="#732FA4"/>
<stop offset="0.35" stop-color="#702DA1"/>
<stop offset="0.62" stop-color="#682797"/>
<stop offset="0.77" stop-color="#60218D"/>
<stop offset="1" stop-color="#51167B"/>
</radialGradient>
<radialGradient id="paint16_radial_821_1331" cx="0" cy="0" r="1" gradientUnits="userSpaceOnUse" gradientTransform="translate(170.277 38.1683) rotate(52.67) scale(39.31 39.31)">
<stop offset="0.02" stop-color="#732FA4"/>
<stop offset="0.35" stop-color="#702DA1"/>
<stop offset="0.62" stop-color="#682797"/>
<stop offset="0.77" stop-color="#60218D"/>
<stop offset="1" stop-color="#51167B"/>
</radialGradient>
<radialGradient id="paint17_radial_821_1331" cx="0" cy="0" r="1" gradientUnits="userSpaceOnUse" gradientTransform="translate(187.653 75.0729) rotate(77.16) scale(21.69 21.69)">
<stop offset="0.02" stop-color="#732FA4"/>
<stop offset="0.35" stop-color="#702DA1"/>
<stop offset="0.62" stop-color="#682797"/>
<stop offset="0.77" stop-color="#60218D"/>
<stop offset="1" stop-color="#51167B"/>
</radialGradient>
<radialGradient id="paint18_radial_821_1331" cx="0" cy="0" r="1" gradientUnits="userSpaceOnUse" gradientTransform="translate(82.5187 139.066) rotate(5.14276) scale(6.53631 6.53631)">
<stop offset="0.02" stop-color="#732FA4"/>
<stop offset="0.35" stop-color="#702DA1"/>
<stop offset="0.62" stop-color="#682797"/>
<stop offset="0.86" stop-color="#591D86"/>
<stop offset="1" stop-color="#51167B"/>
</radialGradient>
<radialGradient id="paint19_radial_821_1331" cx="0" cy="0" r="1" gradientUnits="userSpaceOnUse" gradientTransform="translate(86.7129 147.458) rotate(5.14277) scale(3.0322 3.03221)">
<stop offset="0.02" stop-color="#732FA4"/>
<stop offset="0.35" stop-color="#702DA1"/>
<stop offset="0.62" stop-color="#682797"/>
<stop offset="0.86" stop-color="#591D86"/>
<stop offset="1" stop-color="#51167B"/>
</radialGradient>
<radialGradient id="paint20_radial_821_1331" cx="0" cy="0" r="1" gradientUnits="userSpaceOnUse" gradientTransform="translate(103.312 141.314) rotate(5.1) scale(10.69)">
<stop offset="0.02" stop-color="#732FA4"/>
<stop offset="0.35" stop-color="#702DA1"/>
<stop offset="0.62" stop-color="#682797"/>
<stop offset="0.86" stop-color="#591D86"/>
<stop offset="1" stop-color="#51167B"/>
</radialGradient>
<radialGradient id="paint21_radial_821_1331" cx="0" cy="0" r="1" gradientUnits="userSpaceOnUse" gradientTransform="translate(110.054 157.513) rotate(5.14277) scale(3.96596 3.96596)">
<stop offset="0.02" stop-color="#732FA4"/>
<stop offset="0.35" stop-color="#702DA1"/>
<stop offset="0.62" stop-color="#682797"/>
<stop offset="0.86" stop-color="#591D86"/>
<stop offset="1" stop-color="#51167B"/>
</radialGradient>
<radialGradient id="paint22_radial_821_1331" cx="0" cy="0" r="1" gradientUnits="userSpaceOnUse" gradientTransform="translate(64.7079 100.627) rotate(5.14278) scale(9.32754 9.32757)">
<stop offset="0.02" stop-color="#732FA4"/>
<stop offset="0.35" stop-color="#702DA1"/>
<stop offset="0.62" stop-color="#682797"/>
<stop offset="0.86" stop-color="#591D86"/>
<stop offset="1" stop-color="#51167B"/>
</radialGradient>
<radialGradient id="paint23_radial_821_1331" cx="0" cy="0" r="1" gradientUnits="userSpaceOnUse" gradientTransform="translate(67.7275 111.766) rotate(5.14277) scale(4.6688 4.6688)">
<stop offset="0.02" stop-color="#732FA4"/>
<stop offset="0.35" stop-color="#702DA1"/>
<stop offset="0.62" stop-color="#682797"/>
<stop offset="0.86" stop-color="#591D86"/>
<stop offset="1" stop-color="#51167B"/>
</radialGradient>
<radialGradient id="paint24_radial_821_1331" cx="0" cy="0" r="1" gradientUnits="userSpaceOnUse" gradientTransform="translate(81.4347 70.5786) rotate(5.14277) scale(9.09661 9.09662)">
<stop offset="0.02" stop-color="#732FA4"/>
<stop offset="0.35" stop-color="#702DA1"/>
<stop offset="0.62" stop-color="#682797"/>
<stop offset="0.86" stop-color="#591D86"/>
<stop offset="1" stop-color="#51167B"/>
</radialGradient>
<radialGradient id="paint25_radial_821_1331" cx="0" cy="0" r="1" gradientUnits="userSpaceOnUse" gradientTransform="translate(83.2674 83.8288) rotate(5.14275) scale(5.13065 5.13064)">
<stop offset="0.02" stop-color="#732FA4"/>
<stop offset="0.35" stop-color="#702DA1"/>
<stop offset="0.62" stop-color="#682797"/>
<stop offset="0.86" stop-color="#591D86"/>
<stop offset="1" stop-color="#51167B"/>
</radialGradient>
<radialGradient id="paint26_radial_821_1331" cx="0" cy="0" r="1" gradientUnits="userSpaceOnUse" gradientTransform="translate(89.4028 80.7221) rotate(5.14279) scale(3.73504 3.73505)">
<stop offset="0.02" stop-color="#732FA4"/>
<stop offset="0.35" stop-color="#702DA1"/>
<stop offset="0.62" stop-color="#682797"/>
<stop offset="0.86" stop-color="#591D86"/>
<stop offset="1" stop-color="#51167B"/>
</radialGradient>
<radialGradient id="paint27_radial_821_1331" cx="0" cy="0" r="1" gradientUnits="userSpaceOnUse" gradientTransform="translate(150.73 142.402) rotate(5.14278) scale(7.93193 7.93194)">
<stop offset="0.02" stop-color="#732FA4"/>
<stop offset="0.35" stop-color="#702DA1"/>
<stop offset="0.62" stop-color="#682797"/>
<stop offset="0.86" stop-color="#591D86"/>
<stop offset="1" stop-color="#51167B"/>
</radialGradient>
<radialGradient id="paint28_radial_821_1331" cx="0" cy="0" r="1" gradientUnits="userSpaceOnUse" gradientTransform="translate(158.572 139.721) rotate(5.14277) scale(4.19689 4.19689)">
<stop offset="0.02" stop-color="#732FA4"/>
<stop offset="0.35" stop-color="#702DA1"/>
<stop offset="0.62" stop-color="#682797"/>
<stop offset="0.86" stop-color="#591D86"/>
<stop offset="1" stop-color="#51167B"/>
</radialGradient>
<radialGradient id="paint29_radial_821_1331" cx="0" cy="0" r="1" gradientUnits="userSpaceOnUse" gradientTransform="translate(156.371 150.169) rotate(5.14275) scale(3.26315 3.26313)">
<stop offset="0.02" stop-color="#732FA4"/>
<stop offset="0.35" stop-color="#702DA1"/>
<stop offset="0.62" stop-color="#682797"/>
<stop offset="0.86" stop-color="#591D86"/>
<stop offset="1" stop-color="#51167B"/>
</radialGradient>
<radialGradient id="paint30_radial_821_1331" cx="0" cy="0" r="1" gradientUnits="userSpaceOnUse" gradientTransform="translate(122.243 109.556) rotate(36.59) scale(87.87 87.87)">
<stop stop-color="#8EE1EE"/>
<stop offset="0.94" stop-color="#5E8DEC"/>
</radialGradient>
<radialGradient id="paint31_radial_821_1331" cx="0" cy="0" r="1" gradientUnits="userSpaceOnUse" gradientTransform="translate(206.073 106.238) rotate(27.3324) scale(11.6815 11.6815)">
<stop stop-color="#8EE1EE"/>
<stop offset="0.94" stop-color="#5E8DEC"/>
</radialGradient>
<radialGradient id="paint32_radial_821_1331" cx="0" cy="0" r="1" gradientUnits="userSpaceOnUse" gradientTransform="translate(35.0217 95.249) rotate(27.3323) scale(11.5313 11.5313)">
<stop stop-color="#8EE1EE"/>
<stop offset="0.94" stop-color="#5E8DEC"/>
</radialGradient>
<radialGradient id="paint33_radial_821_1331" cx="0" cy="0" r="1" gradientUnits="userSpaceOnUse" gradientTransform="translate(120.85 111.405) rotate(27.3324) scale(87.6016 87.6016)">
<stop stop-color="#8EE1EE"/>
<stop offset="0.94" stop-color="#5E8DEC"/>
</radialGradient>
<radialGradient id="paint34_radial_821_1331" cx="0" cy="0" r="1" gradientUnits="userSpaceOnUse" gradientTransform="translate(121.499 110.149) rotate(27.3324) scale(88.0224 88.0224)">
<stop stop-color="#8EE1EE"/>
<stop offset="0.94" stop-color="#5E8DEC"/>
</radialGradient>
<radialGradient id="paint35_radial_821_1331" cx="0" cy="0" r="1" gradientUnits="userSpaceOnUse" gradientTransform="translate(117.491 109.819) rotate(74.2914) scale(87.628 87.628)">
<stop stop-color="#5E8DEC"/>
<stop offset="0.84" stop-color="#5E59EC"/>
</radialGradient>
<radialGradient id="paint36_radial_821_1331" cx="0" cy="0" r="1" gradientUnits="userSpaceOnUse" gradientTransform="translate(184.329 158.008) rotate(65.2249) scale(11.6862 11.6862)">
<stop stop-color="#5E8DEC"/>
<stop offset="0.84" stop-color="#5E59EC"/>
</radialGradient>
<radialGradient id="paint37_radial_821_1331" cx="0" cy="0" r="1" gradientUnits="userSpaceOnUse" gradientTransform="translate(56.0216 44.2438) rotate(65.2249) scale(11.5359 11.5359)">
<stop stop-color="#5E8DEC"/>
<stop offset="0.84" stop-color="#5E59EC"/>
</radialGradient>
<radialGradient id="paint38_radial_821_1331" cx="0" cy="0" r="1" gradientUnits="userSpaceOnUse" gradientTransform="translate(113.86 109.72) rotate(65.2249) scale(87.6465 87.6465)">
<stop stop-color="#5E8DEC"/>
<stop offset="0.84" stop-color="#5E59EC"/>
</radialGradient>
<radialGradient id="paint39_radial_821_1331" cx="0" cy="0" r="1" gradientUnits="userSpaceOnUse" gradientTransform="translate(115.144 109.128) rotate(65.2249) scale(88.0575)">
<stop offset="0.08" stop-color="#F128C5"/>
<stop offset="1" stop-color="#C11BB9"/>
</radialGradient>
</defs>
</svg>
