<svg width="108" height="94" viewBox="0 0 108 94" fill="none" xmlns="http://www.w3.org/2000/svg">
<path d="M34.1119 4.59961C33.7153 5.55252 33.2192 6.4609 32.6319 7.30962C31.7832 7.89697 30.8748 8.39305 29.9219 8.78961C30.8768 9.18203 31.7856 9.67836 32.6319 10.2696C33.2207 11.1139 33.7169 12.0191 34.1119 12.9696C34.5027 12.0171 34.9992 11.1115 35.5919 10.2696C36.4369 9.67632 37.346 9.17986 38.3019 8.78961C37.3479 8.39519 36.4394 7.89898 35.5919 7.30962C35.0006 6.46332 34.5043 5.5545 34.1119 4.59961Z" fill="white"/>
<path style="mix-blend-mode:screen" opacity="0.5" d="M53.1913 39.9498C52.9728 39.4217 52.6979 38.9188 52.3713 38.4498C51.9 38.1185 51.3936 37.8401 50.8613 37.6198C51.3938 37.404 51.9004 37.1289 52.3713 36.7998C52.6979 36.3308 52.9728 35.8279 53.1913 35.2998C53.4098 35.8279 53.6847 36.3308 54.0113 36.7998C54.4823 37.1289 54.9888 37.404 55.5213 37.6198C54.989 37.8401 54.4826 38.1185 54.0113 38.4498C53.6847 38.9188 53.4098 39.4217 53.1913 39.9498Z" fill="url(#paint0_radial_821_9271)"/>
<path style="mix-blend-mode:screen" d="M15.3917 41.0699C15.4718 40.9379 15.5893 40.8326 15.7292 40.7674C15.8691 40.7022 16.0253 40.68 16.1778 40.7036C16.3304 40.7272 16.4725 40.7955 16.5863 40.9C16.7 41.0044 16.7801 41.1402 16.8166 41.2902C16.853 41.4403 16.8441 41.5977 16.791 41.7427C16.7379 41.8877 16.643 42.0136 16.5183 42.1046C16.3936 42.1956 16.2446 42.2475 16.0904 42.2538C15.9361 42.2601 15.7835 42.2204 15.6517 42.1399C15.4757 42.0322 15.3494 41.8591 15.3007 41.6586C15.2519 41.458 15.2847 41.2463 15.3917 41.0699ZM0.761729 42.0699C1.02439 42.2325 1.32941 42.3134 1.63813 42.3024C1.94685 42.2915 2.24539 42.1891 2.49586 42.0083C2.74633 41.8275 2.93748 41.5764 3.04508 41.2869C3.15269 40.9973 3.17191 40.6823 3.10029 40.3818C3.02868 40.0813 2.86947 39.8088 2.64283 39.5989C2.41619 39.389 2.13232 39.2511 1.82722 39.2027C1.52212 39.1543 1.20954 39.1976 0.929057 39.327C0.648577 39.4565 0.412851 39.6663 0.251749 39.9299C0.137385 40.106 0.0597161 40.3033 0.0234474 40.5101C-0.0128213 40.7169 -0.00696163 40.9289 0.0406593 41.1334C0.0882803 41.3379 0.176705 41.5307 0.300608 41.7002C0.424511 41.8697 0.581339 42.0124 0.761729 42.1199V42.0699ZM15.5517 56.6999C16.0742 57.0249 16.6813 57.1876 17.2962 57.1675C17.9112 57.1474 18.5063 56.9454 19.0064 56.5869C19.5065 56.2285 19.889 55.7298 20.1056 55.1539C20.3221 54.578 20.363 53.9508 20.223 53.3516C20.083 52.7525 19.7685 52.2083 19.3192 51.788C18.8698 51.3677 18.3059 51.0901 17.6988 50.9904C17.0916 50.8906 16.4686 50.9732 15.9084 51.2276C15.3482 51.4821 14.8761 51.897 14.5517 52.4199C14.1173 53.1202 13.9786 53.9643 14.1661 54.7668C14.3536 55.5693 14.852 56.2645 15.5517 56.6999ZM32.2317 33.4899C32.4938 33.6478 32.7967 33.7246 33.1023 33.7107C33.4079 33.6968 33.7026 33.5927 33.9492 33.4116C34.1958 33.2305 34.3833 32.9805 34.488 32.6931C34.5928 32.4056 34.6102 32.0936 34.5379 31.7963C34.4657 31.499 34.3071 31.2298 34.0821 31.0224C33.8571 30.8151 33.5758 30.679 33.2736 30.6313C32.9714 30.5836 32.6619 30.6263 32.3839 30.7542C32.106 30.8821 31.8721 31.0893 31.7117 31.3499C31.5044 31.6995 31.4428 32.1166 31.54 32.5113C31.6373 32.9059 31.8857 33.2466 32.2317 33.4599V33.4899Z" fill="url(#paint1_radial_821_9271)"/>
<path style="mix-blend-mode:screen" d="M60.3519 93.86C86.2706 93.86 107.282 72.8487 107.282 46.93C107.282 21.0113 86.2706 0 60.3519 0C34.4332 0 13.4219 21.0113 13.4219 46.93C13.4219 72.8487 34.4332 93.86 60.3519 93.86Z" fill="url(#paint2_radial_821_9271)"/>
<path d="M99.9706 53.4684C103.567 31.6045 88.7576 10.9652 66.8937 7.36914C45.0298 3.77311 24.3904 18.5821 20.7944 40.446C17.1984 62.31 32.0074 82.9493 53.8713 86.5454C75.7352 90.1414 96.3746 75.3323 99.9706 53.4684Z" fill="url(#paint3_radial_821_9271)"/>
<path style="mix-blend-mode:screen" d="M99.9706 53.4684C103.567 31.6045 88.7576 10.9652 66.8937 7.36914C45.0298 3.77311 24.3904 18.5821 20.7944 40.446C17.1984 62.31 32.0074 82.9493 53.8713 86.5454C75.7352 90.1414 96.3746 75.3323 99.9706 53.4684Z" fill="url(#paint4_radial_821_9271)"/>
<path style="mix-blend-mode:screen" d="M77.3216 62.3395C77.6985 61.8204 77.892 61.1907 77.8716 60.5495C77.7116 59.3095 76.2316 58.7295 74.9816 58.7195C71.9816 58.7195 69.3016 60.2995 66.9816 62.0795C64.6616 63.8595 62.3416 65.8795 59.5616 66.8895C56.7816 67.8995 53.2416 67.5695 51.4216 65.2395C49.6016 62.9095 50.1616 59.2395 48.8616 56.3695C48.7156 55.9695 48.4547 55.6216 48.1116 55.3695C47.2516 54.8295 46.1616 55.4395 45.3216 56.0095C40.5616 59.2595 35.2516 62.0095 29.5216 62.6095C27.4645 62.8396 25.3845 62.7587 23.3516 62.3695C26.4706 69.8802 31.7907 76.2706 38.6116 80.6995C38.7178 80.2426 38.8686 79.7971 39.0616 79.3695C41.1916 74.8295 47.2016 74.0695 52.2016 73.6995C56.97 73.4898 61.6842 72.6009 66.2016 71.0595C70.7834 69.486 74.7009 66.4139 77.3216 62.3395Z" fill="url(#paint5_radial_821_9271)"/>
<path style="mix-blend-mode:screen" d="M100.172 51.7598C97.4618 51.8298 94.8118 52.0198 92.5818 53.4598C88.8818 55.8598 87.8318 60.9098 88.4118 65.2798C88.6953 66.4037 88.6607 67.5844 88.3118 68.6898C87.9806 69.3187 87.5165 69.8681 86.9518 70.2998C81.8618 74.6598 75.3718 76.9498 69.5718 80.2998C67.0418 81.7598 64.3618 83.9798 64.3418 86.8398C73.4099 85.93 81.8983 81.9607 88.4104 75.5849C94.9225 69.2091 99.0704 60.8066 100.172 51.7598Z" fill="url(#paint6_radial_821_9271)"/>
<path style="mix-blend-mode:screen" d="M20.2227 46.9306C20.2227 47.1606 20.2227 47.3906 20.2227 47.6206C20.8723 48.1179 21.5984 48.5063 22.3727 48.7706C24.1327 49.3806 26.1727 49.4206 27.6127 50.6106C28.3927 51.2706 28.9027 52.2006 29.6827 52.8606C31.6127 54.5006 34.6827 53.9606 36.6827 52.3706C38.6827 50.7806 39.7927 48.3706 40.9027 46.1206C42.0127 43.8706 43.2427 41.4906 45.3127 40.0406C46.1783 39.4415 47.1554 39.0222 48.186 38.8075C49.2166 38.5928 50.2798 38.5871 51.3127 38.7906C53.1327 39.1606 54.8727 40.1806 56.7127 39.9406C59.1127 39.6306 60.7927 37.1406 60.8727 34.7206C60.7931 32.2841 59.9304 29.9382 58.4127 28.0306C57.6661 27.0969 57.0473 26.0678 56.5727 24.9706C55.4927 21.9706 57.3027 18.6206 59.5727 16.2906C61.8427 13.9606 64.5727 12.0606 66.1027 9.22059C66.4312 8.63124 66.6514 7.9877 66.7527 7.32059C64.64 6.97796 62.503 6.80741 60.3627 6.81059C55.0924 6.80796 49.8732 7.84377 45.0033 9.85881C40.1334 11.8739 35.7082 14.8286 31.9806 18.5544C28.253 22.2801 25.296 26.7038 23.2785 31.5727C21.2611 36.4416 20.2227 41.6603 20.2227 46.9306Z" fill="url(#paint7_radial_821_9271)"/>
<path style="mix-blend-mode:screen" d="M76.8922 16.8102C77.6222 19.2201 79.1222 21.3102 80.2022 23.5802C81.2822 25.8502 81.9322 28.5801 80.8622 30.8501C79.5522 33.6401 76.2622 34.7402 73.4622 36.0202C70.9309 37.1704 68.5743 38.6719 66.4622 40.4801C64.1322 42.4801 61.9822 45.3001 62.4622 48.3201C62.9422 51.3401 66.2522 53.4401 69.3522 54.2601C71.284 54.9113 73.3833 54.8617 75.2822 54.1201C78.7322 52.4701 79.6822 47.6101 83.1322 45.9501C85.9022 44.6101 89.1322 45.8302 92.2122 46.0802C95.0153 46.2683 97.815 45.6654 100.292 44.3401C99.826 37.0955 97.4023 30.1131 93.2795 24.1377C89.1568 18.1622 83.4896 13.4178 76.8822 10.4102C76.2606 12.4987 76.2641 14.7235 76.8922 16.8102Z" fill="url(#paint8_radial_821_9271)"/>
<path style="mix-blend-mode:multiply" opacity="0.25" d="M86.5621 16.5703C88.0351 22.4848 88.1417 28.6572 86.874 34.619C85.6062 40.5809 82.9974 46.1758 79.2454 50.9793C75.4934 55.7828 70.6967 59.6688 65.2192 62.3424C59.7417 65.0161 53.7273 66.4072 47.6321 66.4103C38.0077 66.4385 28.6967 62.9904 21.4121 56.7003C22.9359 62.8245 25.8825 68.503 30.0128 73.2746C34.143 78.0462 39.3404 81.7765 45.1829 84.1624C51.0254 86.5484 57.3482 87.5228 63.6379 87.0065C69.9277 86.4902 76.007 84.4977 81.3822 81.1909C86.7574 77.8842 91.2769 73.3563 94.5737 67.975C97.8705 62.5937 99.8517 56.5107 100.356 50.22C100.861 43.9293 99.8749 37.6083 97.4781 31.7702C95.0813 25.9322 91.3414 20.7417 86.5621 16.6203V16.5703Z" fill="url(#paint9_radial_821_9271)"/>
<path style="mix-blend-mode:screen" opacity="0.34" d="M93.5413 30.1299C96.7263 39.0649 96.3903 48.8773 92.6017 57.5736C88.8131 66.2699 81.8561 73.1977 73.144 76.9497C64.4318 80.7017 54.6181 80.9963 45.6965 77.7738C36.775 74.5512 29.4148 68.0532 25.1113 59.5999C26.7987 64.4412 29.4652 68.883 32.9447 72.6484C36.4242 76.4138 40.642 79.4222 45.3352 81.4859C50.0284 83.5497 55.0964 84.6245 60.2232 84.6435C65.3501 84.6625 70.4259 83.6252 75.1343 81.5964C79.8427 79.5675 84.0827 76.5905 87.5899 72.8509C91.0972 69.1114 93.7966 64.6894 95.5198 59.8608C97.243 55.0322 97.9531 49.9003 97.6058 44.7852C97.2586 39.6701 95.8614 34.6813 93.5013 30.1299H93.5413Z" fill="url(#paint10_radial_821_9271)"/>
<g style="mix-blend-mode:screen" opacity="0.45">
<path d="M22.7116 50.4902C22.7103 42.136 25.317 33.9899 30.1678 27.1883C35.0186 20.3868 41.8717 15.2692 49.7708 12.5495C57.6698 9.8299 66.2208 9.64393 74.2307 12.0175C82.2405 14.3912 89.3096 19.206 94.4516 25.7902C91.5803 21.1556 87.7945 17.1549 83.3254 14.0323C78.8563 10.9097 73.7977 8.73072 68.4583 7.62841C63.119 6.5261 57.611 6.52358 52.2707 7.62101C46.9303 8.71845 41.8697 10.8928 37.3978 14.0113C32.9258 17.1299 29.1364 21.1271 26.2608 25.759C23.3853 30.391 21.484 35.5604 20.673 40.9516C19.8619 46.3429 20.1582 51.8429 21.5438 57.1158C22.9293 62.3888 25.375 67.324 28.7316 71.6202C24.7885 65.2783 22.7029 57.9578 22.7116 50.4902Z" fill="#E0A326"/>
</g>
<path style="mix-blend-mode:screen" d="M26.1123 54.9999C24.9223 50.2399 26.7923 42.9999 27.7523 39.5599C29.9308 31.3589 34.775 24.1154 41.5223 18.9699C59.3723 5.66991 79.9323 15.3699 85.3923 21.3199C90.8523 27.2699 84.3923 33.6899 74.5623 33.5399C64.7323 33.3899 54.9923 33.2199 49.3523 38.2299C43.7123 43.2399 44.1823 55.9299 36.6723 58.5899C34.1823 59.4699 30.5923 60.3199 28.2423 58.5899C27.1393 57.6749 26.3868 56.4065 26.1123 54.9999Z" fill="url(#paint11_radial_821_9271)"/>
<g style="mix-blend-mode:screen" opacity="0.45">
<path d="M43.9715 24.2502C46.1415 26.1602 45.1515 30.8402 41.7515 34.6902C38.3515 38.5402 33.8415 40.1302 31.6715 38.2102C29.5015 36.2902 30.4915 31.6302 33.8915 27.7702C37.2915 23.9102 41.8015 22.3402 43.9715 24.2502Z" fill="#E0A326"/>
</g>
<g style="mix-blend-mode:screen" opacity="0.45">
<path d="M55.5314 16.7896C56.3214 18.2996 54.8014 20.6596 52.1314 22.0696C49.4614 23.4796 46.6414 23.4096 45.8514 21.9096C45.0614 20.4096 46.5814 18.0396 49.2514 16.6196C51.9214 15.1996 54.7314 15.2896 55.5314 16.7896Z" fill="#E0A326"/>
</g>
<defs>
<radialGradient id="paint0_radial_821_9271" cx="0" cy="0" r="1" gradientUnits="userSpaceOnUse" gradientTransform="translate(-33.6287 59.1798) rotate(180) scale(182.67 182.67)">
<stop offset="0.06" stop-color="#0A1656"/>
<stop offset="0.89" stop-color="#4478AF"/>
</radialGradient>
<radialGradient id="paint1_radial_821_9271" cx="0" cy="0" r="1" gradientUnits="userSpaceOnUse" gradientTransform="translate(17.3117 43.8499) rotate(180) scale(15.41 15.41)">
<stop offset="0.06" stop-color="#E47E99"/>
<stop offset="0.53" stop-color="#E43D99"/>
<stop offset="0.99" stop-color="#B30058"/>
</radialGradient>
<radialGradient id="paint2_radial_821_9271" cx="0" cy="0" r="1" gradientUnits="userSpaceOnUse" gradientTransform="translate(61.2419 47.59) scale(46.01 46.01)">
<stop stop-color="#F20074"/>
<stop offset="0.38" stop-color="#F10174" stop-opacity="0.99"/>
<stop offset="0.51" stop-color="#ED0376" stop-opacity="0.96"/>
<stop offset="0.61" stop-color="#E70679" stop-opacity="0.92"/>
<stop offset="0.69" stop-color="#DF0B7D" stop-opacity="0.85"/>
<stop offset="0.75" stop-color="#D31182" stop-opacity="0.75"/>
<stop offset="0.81" stop-color="#C51988" stop-opacity="0.64"/>
<stop offset="0.87" stop-color="#B42290" stop-opacity="0.51"/>
<stop offset="0.92" stop-color="#A02D98" stop-opacity="0.35"/>
<stop offset="0.96" stop-color="#8B39A2" stop-opacity="0.18"/>
<stop offset="1" stop-color="#7446AC" stop-opacity="0"/>
</radialGradient>
<radialGradient id="paint3_radial_821_9271" cx="0" cy="0" r="1" gradientUnits="userSpaceOnUse" gradientTransform="translate(54.178 8.29056) scale(117.66 117.66)">
<stop stop-color="#4A289C"/>
<stop offset="0.96" stop-color="#00092B"/>
</radialGradient>
<radialGradient id="paint4_radial_821_9271" cx="0" cy="0" r="1" gradientUnits="userSpaceOnUse" gradientTransform="translate(54.178 8.29056) scale(117.66 117.66)">
<stop stop-color="#4A289C"/>
<stop offset="0.96" stop-color="#00092B"/>
</radialGradient>
<radialGradient id="paint5_radial_821_9271" cx="0" cy="0" r="1" gradientUnits="userSpaceOnUse" gradientTransform="translate(44.3216 19.4095) scale(61.87 61.87)">
<stop stop-color="#F20074"/>
<stop offset="0.14" stop-color="#ED0376"/>
<stop offset="0.31" stop-color="#DF0B7D"/>
<stop offset="0.49" stop-color="#C71887"/>
<stop offset="0.67" stop-color="#A62A96"/>
<stop offset="0.87" stop-color="#7B42A9"/>
<stop offset="0.9" stop-color="#7446AC"/>
</radialGradient>
<radialGradient id="paint6_radial_821_9271" cx="0" cy="0" r="1" gradientUnits="userSpaceOnUse" gradientTransform="translate(44.3218 19.4098) scale(61.91 61.91)">
<stop stop-color="#F20074"/>
<stop offset="0.14" stop-color="#ED0376"/>
<stop offset="0.31" stop-color="#DF0B7D"/>
<stop offset="0.49" stop-color="#C71887"/>
<stop offset="0.67" stop-color="#A62A96"/>
<stop offset="0.87" stop-color="#7B42A9"/>
<stop offset="0.9" stop-color="#7446AC"/>
</radialGradient>
<radialGradient id="paint7_radial_821_9271" cx="0" cy="0" r="1" gradientUnits="userSpaceOnUse" gradientTransform="translate(44.3227 19.4106) scale(61.87 61.87)">
<stop stop-color="#F20074"/>
<stop offset="0.14" stop-color="#ED0376"/>
<stop offset="0.31" stop-color="#DF0B7D"/>
<stop offset="0.49" stop-color="#C71887"/>
<stop offset="0.67" stop-color="#A62A96"/>
<stop offset="0.87" stop-color="#7B42A9"/>
<stop offset="0.9" stop-color="#7446AC"/>
</radialGradient>
<radialGradient id="paint8_radial_821_9271" cx="0" cy="0" r="1" gradientUnits="userSpaceOnUse" gradientTransform="translate(44.3222 19.4102) scale(61.87 61.87)">
<stop stop-color="#F20074"/>
<stop offset="0.14" stop-color="#ED0376"/>
<stop offset="0.31" stop-color="#DF0B7D"/>
<stop offset="0.49" stop-color="#C71887"/>
<stop offset="0.67" stop-color="#A62A96"/>
<stop offset="0.87" stop-color="#7B42A9"/>
<stop offset="0.9" stop-color="#7446AC"/>
</radialGradient>
<radialGradient id="paint9_radial_821_9271" cx="0" cy="0" r="1" gradientUnits="userSpaceOnUse" gradientTransform="translate(54.8121 17.8903) scale(106.72 106.72)">
<stop stop-color="#4A289C"/>
<stop offset="0.96" stop-color="#00092B"/>
</radialGradient>
<radialGradient id="paint10_radial_821_9271" cx="0" cy="0" r="1" gradientUnits="userSpaceOnUse" gradientTransform="translate(55.8113 31.1499) scale(87.47 87.47)">
<stop stop-color="#F20074"/>
<stop offset="0.14" stop-color="#ED0376"/>
<stop offset="0.31" stop-color="#DF0B7D"/>
<stop offset="0.49" stop-color="#C71887"/>
<stop offset="0.67" stop-color="#A62A96"/>
<stop offset="0.87" stop-color="#7B42A9"/>
<stop offset="0.9" stop-color="#7446AC"/>
</radialGradient>
<radialGradient id="paint11_radial_821_9271" cx="0" cy="0" r="1" gradientUnits="userSpaceOnUse" gradientTransform="translate(51.8123 13.1899) scale(75.32 75.32)">
<stop stop-color="#4A289C"/>
<stop offset="0.96" stop-color="#00092B"/>
</radialGradient>
</defs>
</svg>
