<svg width="211" height="187" viewBox="0 0 211 187" fill="none" xmlns="http://www.w3.org/2000/svg">
<path d="M123.568 163.882C111.194 166.081 98.5239 166.038 86.165 163.755C76.6557 161.981 67.4216 158.966 58.7007 154.787C57.8636 154.396 57.0371 153.984 56.2001 153.571L54.7696 152.82C35.6972 151.266 22.9823 147.089 15.0248 143.303C14.7708 143.376 14.5125 143.432 14.2513 143.472C14.0076 143.472 13.7533 143.557 13.5096 143.578C10.7594 143.873 8.00351 143.075 5.83828 141.357C4.73781 140.435 3.84863 139.287 3.23079 137.991C2.61294 136.696 2.28084 135.284 2.2569 133.849C0.911855 131.267 0.165878 128.415 0.0741702 125.506L0 122.894C0 122.894 20.8631 96.4571 45.5619 83.1859C43.3197 68.0639 46.8436 52.6528 55.4372 39.9987C64.7297 26.1035 79.6909 15.8566 94.4615 13.2447C103.086 11.7102 111.911 11.6708 120.548 13.1284C126.264 7.78459 133.107 3.78798 140.574 1.43273C141.823 1.02998 143.097 0.712015 144.389 0.481007C152.437 -0.722586 160.661 0.343278 168.134 3.55825C169.265 3.0689 170.449 2.71397 171.662 2.50078C173.5 2.17162 175.384 2.2145 177.205 2.62687C179.025 3.03925 180.743 3.8127 182.258 4.90124C185.09 7.0152 187.057 10.0832 187.794 13.5354C188.531 16.9875 187.987 20.5892 186.263 23.6714C184.102 27.1557 180.647 29.6455 176.653 30.5978C176.335 30.6824 176.007 30.7564 175.657 30.8199C171.525 31.5495 165.602 30.418 162.37 26.2199C160.866 24.2322 159.837 21.9284 159.361 19.4838C156.068 18.8234 152.681 18.7697 149.369 19.3252L148.627 19.4626C146.645 19.8637 144.727 20.5325 142.927 21.4507C153.914 28.3242 165.008 40.4852 170.009 62.1316C198.724 66.9748 217.775 77.9091 226.814 84.201L228.816 85.5969L229.494 87.9339C229.78 88.9174 230.607 92.5551 229.219 98.1597L228.986 99.122L228.488 99.9785C227.428 101.84 216.832 118.4 179.302 133.204L178.677 133.892C177.151 135.573 175.572 137.202 174.004 138.703C169.211 143.299 163.944 147.375 158.291 150.864C147.656 157.345 135.889 161.762 123.611 163.882H123.568Z" fill="white"/>
<path d="M27.5801 123.275C43.4628 140.177 64.3551 151.555 87.192 155.739C110.047 159.747 134.534 155.739 154.401 143.758C174.268 131.777 189.166 111.907 193.807 89.6787" fill="url(#paint0_linear_821_1245)"/>
<path d="M82.6895 141.336C90.8801 153.37 107.791 159.44 121.894 156.733C122.265 156.659 122.106 156.13 121.746 156.183C107.844 158.087 91.4417 152.852 83.0074 141.156C82.8803 140.977 82.573 141.156 82.7001 141.336H82.6895Z" fill="#661D91"/>
<path d="M105.502 140.194C107.452 148.865 112.856 154.946 121.746 156.712C121.808 156.723 121.872 156.711 121.926 156.678C121.98 156.645 122.02 156.592 122.037 156.531C122.054 156.47 122.048 156.405 122.02 156.349C121.991 156.292 121.943 156.248 121.883 156.225C118.079 154.978 114.371 153.55 111.51 150.663C108.649 147.776 107.176 143.906 106.043 140.088C106.023 140.017 105.976 139.956 105.911 139.919C105.846 139.883 105.77 139.873 105.698 139.893C105.627 139.912 105.566 139.96 105.529 140.024C105.492 140.089 105.483 140.165 105.502 140.236V140.194Z" fill="#661D91"/>
<path d="M132.818 134.674C133.109 138.879 132.225 143.081 130.264 146.814C128.145 150.642 124.829 153.381 121.597 156.247C121.353 156.469 121.682 156.902 121.957 156.712C129.629 151.488 134.068 144.022 133.411 134.674C133.411 134.294 132.807 134.283 132.818 134.674Z" fill="#661D91"/>
<path d="M155.068 128.118C154.687 130.402 153.203 132.528 151.889 134.4C149.634 137.559 147.072 140.488 144.239 143.145C137.882 149.225 130.348 154.079 121.734 156.215C121.405 156.3 121.554 156.744 121.872 156.702C130.677 155.507 138.613 149.765 144.864 143.758C147.67 141.101 150.208 138.175 152.44 135.024C153.818 133.046 155.365 130.794 155.725 128.309C155.799 127.875 155.142 127.685 155.058 128.118H155.068Z" fill="#661D91"/>
<path d="M154.403 143.758C134.536 155.707 110.049 159.747 87.1942 155.739C64.4068 151.566 43.5529 140.231 27.6777 123.391H27.6035C43.3277 140.501 64.5193 152.767 87.4168 156.976C110.314 161.185 134.801 157.156 154.626 144.984C174.451 132.813 189.274 112.457 193.83 89.6787C189.168 111.907 174.27 131.808 154.403 143.758Z" fill="#20E8C1"/>
<g style="mix-blend-mode:multiply" opacity="0.45">
<path style="mix-blend-mode:multiply" opacity="0.45" d="M41.9805 136.493C48.1947 141.26 54.8967 145.357 61.9747 148.717C74.0751 151.276 92.8403 152.408 120.75 147.66C142.566 143.948 158.142 138.798 169.172 133.743C175.511 127.676 180.901 120.693 185.161 113.027L41.9805 136.493Z" fill="url(#paint1_linear_821_1245)"/>
</g>
<path d="M222.819 89.8584C223.239 92.0714 223.119 94.3529 222.469 96.5099C222.469 96.5099 204.35 127.6 119.255 142.076C34.1606 156.553 8.91086 131.343 8.91086 131.343C7.10957 129.228 6.98242 125.252 6.98242 125.252" fill="url(#paint2_linear_821_1245)"/>
<path d="M222.819 89.8584C223.239 92.0714 223.119 94.3529 222.469 96.5099C222.469 96.5099 204.149 126.468 119.054 140.924C33.9593 155.379 8.91086 131.322 8.91086 131.322C7.10957 129.207 6.98242 125.231 6.98242 125.231" fill="#AA21B5"/>
<path d="M106.403 69.7032C43.9723 80.7432 19.9199 109.718 6.98242 125.252C6.98242 125.252 32.7726 148.728 117.878 134.325C202.983 119.923 222.776 89.9115 222.776 89.9115C208.557 79.9184 168.833 58.6526 106.403 69.7032Z" fill="url(#paint3_radial_821_1245)"/>
<path d="M13.6568 130.857C11.8555 130.339 10.478 130.741 9.66215 131.915C9.26346 132.549 9.10221 133.303 9.20692 134.044C9.31163 134.785 9.67554 135.465 10.2343 135.965C10.9975 136.531 11.9503 136.781 12.8939 136.663C13.4155 136.595 13.9122 136.399 14.3394 136.093C14.7666 135.786 15.1109 135.379 15.3415 134.907C15.7759 133.596 15.4157 131.375 13.6568 130.857Z" fill="#F2DA00"/>
<g style="mix-blend-mode:multiply">
<g style="mix-blend-mode:multiply">
<path d="M13.3076 135.901C12.8401 135.965 12.3645 135.936 11.9081 135.816C11.4517 135.697 11.0235 135.488 10.6481 135.203C10.1773 134.783 9.84219 134.233 9.68557 133.623C9.52895 133.013 9.55787 132.37 9.76865 131.776C9.76865 131.84 9.67329 131.882 9.6309 131.946C9.23221 132.58 9.07096 133.334 9.17567 134.075C9.28038 134.816 9.64429 135.496 10.2031 135.996C10.9663 136.562 11.9191 136.812 12.8626 136.694C13.3931 136.628 13.8985 136.43 14.3318 136.117C14.7652 135.805 15.1127 135.388 15.342 134.906C15.342 134.906 15.342 134.843 15.342 134.811C14.8102 135.398 14.0914 135.783 13.3076 135.901Z" fill="#F4C500"/>
</g>
</g>
<path d="M12.2705 132.855C12.3675 132.755 12.4284 132.627 12.4438 132.489C12.4591 132.351 12.428 132.212 12.3553 132.093C12.2701 131.984 12.1504 131.907 12.0158 131.875C11.8811 131.842 11.7394 131.856 11.6136 131.914C11.4651 132.01 11.3561 132.156 11.3063 132.326C11.2681 132.449 11.2737 132.582 11.3222 132.702C11.3707 132.821 11.4591 132.921 11.5724 132.983C11.6857 133.045 11.8171 133.066 11.9443 133.043C12.0715 133.02 12.1867 132.953 12.2705 132.855Z" fill="#FFEFAE"/>
<path d="M14.6551 133.416C14.6504 133.156 14.5749 132.903 14.4368 132.683C14.2986 132.463 14.103 132.285 13.871 132.168C13.4472 131.978 13.0022 131.935 12.8856 132.39C12.8009 132.675 13.3624 133.151 13.5002 133.447C13.6379 133.744 13.8604 134.304 14.1571 134.336C14.4538 134.367 14.7187 134.061 14.6551 133.416Z" fill="#FFEFAE"/>
<path d="M45.5619 138.523C43.6864 138.65 42.5527 139.496 42.1818 140.913C42.0251 141.644 42.1315 142.406 42.4823 143.065C42.8332 143.725 43.4059 144.24 44.0997 144.519C45.0124 144.798 45.9981 144.706 46.844 144.266C47.3299 144.039 47.7491 143.692 48.0609 143.256C48.3728 142.821 48.5668 142.313 48.6241 141.781C48.5075 140.374 47.4267 138.407 45.5619 138.523Z" fill="#F2DA00"/>
<g style="mix-blend-mode:multiply">
<g style="mix-blend-mode:multiply">
<path d="M46.982 143.367C46.137 143.799 45.1566 143.887 44.2483 143.61C43.6691 143.375 43.1722 142.975 42.8198 142.46C42.4674 141.944 42.275 141.337 42.2669 140.713C42.2394 140.778 42.2181 140.845 42.2033 140.914C42.0466 141.644 42.153 142.406 42.5038 143.066C42.8546 143.725 43.4273 144.24 44.1212 144.52C45.0338 144.798 46.0196 144.707 46.8655 144.266C47.3474 144.037 47.7623 143.688 48.0703 143.253C48.3783 142.818 48.5691 142.311 48.6244 141.781C48.6244 141.781 48.6244 141.717 48.6244 141.686C48.2844 142.416 47.7051 143.009 46.982 143.367Z" fill="#F4C500"/>
</g>
</g>
<path d="M44.9675 140.871C45.0262 140.744 45.0404 140.601 45.0078 140.465C44.9751 140.328 44.8974 140.207 44.7874 140.12C44.6696 140.043 44.5281 140.011 44.3884 140.028C44.2486 140.045 44.1196 140.112 44.0245 140.216C43.9173 140.354 43.868 140.528 43.8867 140.702C43.8928 140.801 43.9255 140.896 43.9814 140.978C44.0374 141.06 44.1145 141.126 44.2046 141.167C44.3455 141.225 44.5034 141.227 44.6454 141.172C44.7874 141.116 44.9028 141.009 44.9675 140.871Z" fill="#FFEFAE"/>
<path d="M47.395 140.585C47.3051 140.342 47.1496 140.129 46.9458 139.968C46.742 139.808 46.4978 139.706 46.24 139.676C45.7738 139.676 45.3394 139.76 45.3818 140.215C45.4242 140.67 46.1023 140.776 46.3248 141.008C46.5473 141.241 46.9605 141.685 47.2466 141.622C47.5327 141.558 47.6811 141.167 47.395 140.585Z" fill="#FFEFAE"/>
<path d="M92.4054 138.354C90.8372 139.411 90.2862 140.669 90.6253 142.086C90.8487 142.801 91.3179 143.413 91.9499 143.816C92.582 144.218 93.3363 144.385 94.0795 144.286C94.992 144.068 95.7874 143.513 96.3047 142.731C96.6002 142.293 96.7812 141.787 96.8311 141.261C96.8811 140.734 96.7985 140.204 96.5907 139.718C95.8808 138.512 93.9736 137.328 92.4054 138.354Z" fill="#F2DA00"/>
<g style="mix-blend-mode:multiply">
<g style="mix-blend-mode:multiply">
<path d="M96.0294 141.886C95.5085 142.678 94.6989 143.235 93.7725 143.441C93.1468 143.524 92.5104 143.42 91.9443 143.141C91.3781 142.863 90.908 142.422 90.5938 141.876V142.087C90.8171 142.801 91.2863 143.414 91.9184 143.816C92.5505 144.219 93.3048 144.385 94.048 144.287C94.9721 144.076 95.78 143.52 96.3049 142.732C96.6004 142.293 96.7814 141.788 96.8314 141.262C96.8813 140.735 96.7987 140.205 96.591 139.718L96.5274 139.634C96.6272 140.419 96.4512 141.215 96.0294 141.886Z" fill="#F4C500"/>
</g>
</g>
<path d="M93.0413 140.681C93.0305 140.541 92.972 140.409 92.8756 140.307C92.7792 140.205 92.6507 140.139 92.5115 140.12C92.3733 140.111 92.2361 140.151 92.1238 140.232C92.0116 140.313 91.9313 140.431 91.897 140.565C91.8694 140.739 91.9112 140.917 92.0135 141.062C92.0672 141.146 92.1429 141.214 92.2325 141.259C92.3221 141.304 92.4223 141.323 92.5221 141.315C92.7764 141.252 93.1261 141.019 93.0413 140.681Z" fill="#FFEFAE"/>
<path d="M95.0222 139.242C94.8214 139.077 94.5793 138.969 94.3218 138.929C94.0644 138.89 93.8011 138.922 93.56 139.02C93.1362 139.221 92.8183 139.528 93.0832 139.908C93.3481 140.289 93.9838 140.046 94.2911 140.141C94.5984 140.236 95.1812 140.416 95.3507 140.225C95.5202 140.035 95.552 139.612 95.0222 139.242Z" fill="#FFEFAE"/>
<path d="M187.63 113.398C189.431 112.869 190.808 113.282 191.624 114.455C192.024 115.088 192.187 115.842 192.085 116.583C191.982 117.324 191.62 118.005 191.063 118.505C190.301 119.074 189.347 119.324 188.403 119.203C187.875 119.148 187.37 118.958 186.936 118.653C186.502 118.347 186.154 117.936 185.924 117.459C185.5 116.137 185.839 113.927 187.63 113.398Z" fill="#F2DA00"/>
<g style="mix-blend-mode:multiply">
<g style="mix-blend-mode:multiply">
<path d="M187.96 118.441C188.904 118.562 189.858 118.312 190.62 117.743C191.093 117.323 191.429 116.771 191.586 116.159C191.742 115.547 191.712 114.902 191.499 114.307L191.626 114.476C192.026 115.109 192.189 115.862 192.087 116.603C191.984 117.344 191.622 118.025 191.065 118.526C190.303 119.094 189.349 119.344 188.405 119.224C187.877 119.168 187.372 118.978 186.938 118.673C186.504 118.368 186.156 117.957 185.926 117.479C185.926 117.479 185.926 117.416 185.926 117.384C186.465 117.955 187.182 118.327 187.96 118.441Z" fill="#F4C500"/>
</g>
</g>
<path d="M188.998 115.396C188.895 115.298 188.83 115.167 188.814 115.026C188.799 114.885 188.834 114.742 188.913 114.624C188.996 114.512 189.116 114.433 189.252 114.402C189.388 114.371 189.531 114.39 189.655 114.455C189.729 114.501 189.794 114.561 189.845 114.632C189.896 114.702 189.932 114.783 189.951 114.868C189.979 114.963 189.981 115.065 189.957 115.161C189.933 115.258 189.883 115.346 189.814 115.417C189.701 115.519 189.553 115.573 189.401 115.569C189.25 115.565 189.105 115.503 188.998 115.396Z" fill="#FFEFAE"/>
<path d="M186.613 115.968C186.612 115.707 186.684 115.451 186.821 115.229C186.958 115.007 187.153 114.827 187.387 114.709C187.821 114.508 188.255 114.477 188.383 114.921C188.51 115.365 187.895 115.693 187.768 115.978C187.641 116.264 187.408 116.835 187.111 116.867C186.814 116.898 186.549 116.602 186.613 115.968Z" fill="#FFEFAE"/>
<path d="M143.583 129.302C145.406 129.715 146.391 130.74 146.529 132.2C146.564 132.945 146.335 133.68 145.882 134.274C145.428 134.868 144.779 135.283 144.049 135.446C143.107 135.574 142.152 135.327 141.39 134.759C140.957 134.453 140.61 134.042 140.382 133.564C140.154 133.086 140.052 132.558 140.087 132.03C140.373 130.677 141.761 128.879 143.583 129.302Z" fill="#F2DA00"/>
<g style="mix-blend-mode:multiply">
<g style="mix-blend-mode:multiply">
<path d="M141.39 133.849C142.152 134.418 143.107 134.665 144.05 134.537C144.666 134.401 145.228 134.085 145.664 133.629C146.1 133.174 146.39 132.599 146.498 131.978C146.503 132.048 146.503 132.119 146.498 132.189C146.533 132.935 146.304 133.669 145.851 134.263C145.397 134.857 144.748 135.272 144.018 135.436C143.076 135.564 142.12 135.317 141.359 134.748C140.926 134.442 140.579 134.031 140.351 133.553C140.123 133.076 140.021 132.548 140.055 132.02C140.05 131.988 140.05 131.956 140.055 131.925C140.263 132.701 140.735 133.382 141.39 133.849Z" fill="#F4C500"/>
</g>
</g>
<path d="M143.786 131.734C143.747 131.6 143.755 131.457 143.809 131.328C143.863 131.199 143.96 131.092 144.082 131.026C144.21 130.97 144.353 130.96 144.486 130.999C144.62 131.038 144.736 131.122 144.814 131.237C144.858 131.313 144.886 131.397 144.897 131.485C144.908 131.572 144.901 131.66 144.877 131.745C144.855 131.841 144.809 131.93 144.742 132.002C144.675 132.074 144.59 132.128 144.496 132.157C144.231 132.168 143.828 132.051 143.786 131.734Z" fill="#FFEFAE"/>
<path d="M141.433 131.036C141.563 130.811 141.752 130.625 141.979 130.498C142.207 130.372 142.465 130.309 142.725 130.317C143.191 130.317 143.594 130.55 143.478 130.994C143.361 131.438 142.683 131.427 142.418 131.628C142.153 131.829 141.687 132.199 141.422 132.083C141.157 131.967 141.051 131.565 141.433 131.036Z" fill="#FFEFAE"/>
<g opacity="0.35">
<path opacity="0.35" d="M118.727 26.5688C123.675 17.3899 132.755 11.1931 142.673 7.93613C152.591 4.67912 169.766 8.64464 175.52 17.76C175.52 17.76 175.52 19.949 173.401 19.5049C168.749 13.3715 156.956 10.5798 147.144 12.6525C142.239 13.7382 137.672 16.0016 133.841 19.2466C130.01 22.4916 127.029 26.6202 125.158 31.2745" fill="url(#paint4_linear_821_1245)"/>
</g>
<path d="M95.6174 19.9905C70.7385 24.3896 41.261 54.9717 55.5018 94.849C55.5018 94.849 64.9002 108.596 115.05 99.745C165.2 90.894 165.189 75.4232 165.189 75.4232C159.786 22.9092 120.496 15.5915 95.6174 19.9905Z" fill="url(#paint5_linear_821_1245)"/>
<g style="mix-blend-mode:color-dodge" opacity="0.35">
<path style="mix-blend-mode:color-dodge" opacity="0.35" d="M124.671 35.6522C120.136 25.1938 106.658 24.3584 97.4401 25.9869C88.7833 27.5096 78.4948 34.4466 77.52 43.4246C76.969 48.511 81.9702 52.54 88.8681 52.5611C93.9725 52.4924 99.0607 51.9723 104.073 51.0066C108.259 50.3181 112.391 49.3357 116.438 48.0669C123.092 45.8779 126.716 40.3791 124.671 35.6522Z" fill="url(#paint6_linear_821_1245)"/>
</g>
<path d="M134.185 37.6198C133.849 38.3188 133.34 38.9206 132.706 39.3684C132.072 39.8162 131.333 40.0952 130.561 40.1789C129.176 40.3515 127.779 39.9715 126.673 39.1215C125.857 38.3931 125.325 37.4011 125.17 36.3199C125.015 35.2387 125.247 34.1376 125.825 33.2102C127.054 31.4442 129.004 30.852 131.674 31.6134C134.344 32.3748 134.81 35.6424 134.185 37.6198ZM152.336 64.5537C152.06 56.2842 148.775 50.098 143.795 44.5886C141.422 41.9555 133.623 38.3601 134.1 44.9587C134.291 47.6447 140.542 50.3624 143.891 62.1532C145.703 68.498 144.325 69.7353 146.211 70.7504C148.977 72.2309 152.558 71.3215 152.336 64.5537Z" fill="url(#paint7_linear_821_1245)"/>
<path d="M64.4026 44.9266C58.808 52.0222 56.2756 61.8461 56.2227 70.0415C56.2227 73.933 60.0583 75.1809 62.2623 72.8756C64.2861 70.7606 62.3576 66.5307 66.0555 55.2475C68.3336 48.2682 72.413 44.3344 71.6607 42.1349C70.6117 38.9307 67.6979 40.7284 64.4026 44.9266Z" fill="url(#paint8_linear_821_1245)"/>
<path style="mix-blend-mode:multiply" d="M165.94 74.8215C167.402 83.1015 152.875 95.6643 113.258 102.749C81.5339 108.417 55.2034 103.437 54.5888 95.0509C54.0696 88.1139 76.6705 78.29 107.939 72.7594C139.207 67.2288 164.817 68.519 165.94 74.8215Z" fill="url(#paint9_linear_821_1245)"/>
<path style="mix-blend-mode:multiply" d="M107.96 72.7594C76.692 78.29 54.0911 88.1139 54.6103 95.0509C54.7693 97.2716 56.7295 99.2808 60.1413 100.856C60.0261 100.543 59.9513 100.216 59.9188 99.8836C59.4526 93.5387 80.2945 84.4233 109.136 79.3157C137.978 74.2082 161.607 75.4137 162.634 81.2192C162.74 81.8812 162.74 82.5558 162.634 83.2178C165.358 80.2146 166.375 77.3171 165.94 74.8215C164.817 68.519 139.197 67.2288 107.96 72.7594Z" fill="url(#paint10_linear_821_1245)"/>
<g style="mix-blend-mode:multiply">
<path style="mix-blend-mode:multiply" d="M140.809 80.3517C138.69 81.4091 135.087 90.5245 132.926 91.6349C129.842 93.1691 126.289 93.4753 122.987 92.4914C126.399 90.8629 130.944 86.1466 132.163 82.6358C134.473 75.9631 136.941 59.3714 121.567 47.9084C110.706 39.8399 84.4287 48.2151 82.6274 65.7797C81.5679 76.4496 86.3254 86.834 91.4113 90.8735C96.4973 94.913 98.6695 95.9282 101.212 96.0234C99.7943 97.2722 98.2244 98.338 96.5397 99.1958C93.7106 100.581 90.2776 101.089 87.4167 99.7668C84.1003 98.2335 84.5665 90.8101 83.0089 90.6832C81.4513 90.5563 79.4063 95.3783 80.0315 98.2018C80.3136 99.7076 80.7248 101.186 81.2606 102.622C89.6736 102.939 100.672 102.262 115.019 99.7245C124.334 98.1905 133.5 95.8663 142.419 92.777C142.419 92.5232 142.547 92.2799 142.589 92.0261C142.632 90.4029 142.888 88.7923 143.352 87.2358C144.045 85.7254 145.276 84.5266 146.806 83.873C148.3 83.1751 151.998 84.994 151.606 82.8156C151.214 80.6372 145.778 77.8983 140.809 80.3517Z" fill="url(#paint11_linear_821_1245)"/>
</g>
<g style="mix-blend-mode:multiply">
<path style="mix-blend-mode:multiply" d="M97.6401 54.9512C91.3674 62.2055 90.3925 69.428 94.2388 75.8892C98.0851 82.3503 107.611 85.1526 114.371 81.8216C118.8 79.6432 122.741 76.714 124.31 72.2197C125.878 67.7255 124.098 58.9591 120.4 55.6492C115.017 50.7954 103.913 47.6864 97.6401 54.9512Z" fill="url(#paint12_linear_821_1245)"/>
</g>
<path d="M113.65 54.8766C105.905 52.6242 100.045 54.3902 96.4429 59.5718C92.8403 64.7534 94.0271 72.9911 98.9329 76.9989C102.213 79.4515 106.323 80.5291 110.387 80.0022C114.36 79.632 119.807 76.4385 121.057 72.4624C122.879 66.6569 121.385 57.1185 113.65 54.8766Z" fill="url(#paint13_linear_821_1245)"/>
<g style="mix-blend-mode:multiply">
<path style="mix-blend-mode:multiply" d="M116.438 70.8775C116.089 66.2247 113.938 63.4118 110.388 62.5024C108.555 62.1307 106.65 62.417 105.008 63.3109C103.366 64.2047 102.093 65.6487 101.414 67.3879C100.739 69.6637 100.987 72.1127 102.102 74.2086C103.162 76.3235 105.949 78.5865 108.364 78.4385C111.84 78.2693 116.724 75.5304 116.438 70.8775Z" fill="url(#paint14_linear_821_1245)"/>
</g>
<path d="M112.717 73.2461C112.558 71.1312 111.552 69.7776 109.909 69.3547C109.047 69.1666 108.146 69.2924 107.369 69.7094C106.592 70.1263 105.99 70.8069 105.671 71.6282C105.358 72.6866 105.472 73.825 105.989 74.8006C106.283 75.3586 106.716 75.831 107.247 76.172C107.778 76.513 108.389 76.7109 109.019 76.7464C110.609 76.7464 112.876 75.414 112.717 73.2461Z" fill="white"/>
<g style="mix-blend-mode:color-dodge" opacity="0.35">
<path style="mix-blend-mode:color-dodge" opacity="0.35" d="M145.597 56.5588C136.739 31.8457 113.746 28.3772 98.4248 31.1055C83.9298 33.6645 67.2732 48.4903 66.6374 69.1744C66.4471 74.8053 68.448 80.291 72.2207 84.4821C75.9935 88.6732 81.2453 91.2442 86.8754 91.6563C93.1057 92.1004 101.413 91.7303 112.443 89.7846C119.454 88.6439 126.337 86.8307 132.999 84.3703C138.319 82.2905 142.614 78.2183 144.967 73.0225C147.321 67.8267 147.547 61.9186 145.597 56.5588Z" fill="url(#paint15_linear_821_1245)"/>
</g>
<g style="mix-blend-mode:screen" opacity="0.15">
<g style="mix-blend-mode:screen" opacity="0.15">
<path d="M168.357 11.3099C171.981 8.6451 175.393 8.45476 178.275 10.4851C179.7 11.5868 180.688 13.1573 181.062 14.9173C181.437 16.6773 181.174 18.5129 180.32 20.0975C179.067 22.0255 177.102 23.3821 174.852 23.8727C172.733 24.4437 169.226 23.8093 167.806 21.9693C165.74 19.2621 164.68 13.9748 168.357 11.3099Z" fill="#F4C500"/>
</g>
</g>
<path d="M169.108 12.1136C172.181 9.86121 175.084 9.69201 177.521 11.4157C178.728 12.3494 179.564 13.6793 179.883 15.1697C180.201 16.6601 179.98 18.2148 179.259 19.5582C178.228 21.1946 176.597 22.3635 174.713 22.8152C172.891 23.2911 169.945 22.7518 168.737 21.1973C166.925 18.8603 166.035 14.3555 169.108 12.1136Z" fill="#F2DA00"/>
<g style="mix-blend-mode:multiply">
<g style="mix-blend-mode:multiply">
<path d="M173.263 21.567C175.153 21.1438 176.805 20.0068 177.872 18.3946C178.479 17.2556 178.734 15.9631 178.606 14.6798C178.477 13.3964 177.972 12.1796 177.152 11.1826C177.279 11.2504 177.403 11.3245 177.523 11.4047C178.729 12.3384 179.566 13.6683 179.884 15.1587C180.202 16.6491 179.981 18.2038 179.26 19.5472C178.231 21.1876 176.6 22.3605 174.715 22.8148C172.892 23.2907 169.947 22.7514 168.739 21.1969C168.707 21.1382 168.672 21.0816 168.633 21.0277C170.072 21.7217 171.703 21.9117 173.263 21.567Z" fill="#F4C500"/>
</g>
</g>
<path d="M173.103 14.9997C172.846 14.8774 172.638 14.6718 172.513 14.4164C172.388 14.161 172.353 13.8709 172.414 13.5933C172.497 13.3217 172.673 13.088 172.911 12.9332C173.15 12.7785 173.435 12.7126 173.718 12.7473C173.893 12.7807 174.06 12.8484 174.209 12.9464C174.358 13.0444 174.486 13.1708 174.586 13.3183C174.702 13.4827 174.774 13.6735 174.797 13.8731C174.819 14.0727 174.79 14.2747 174.714 14.4604C174.568 14.7419 174.319 14.9556 174.018 15.0564C173.717 15.1571 173.389 15.1367 173.103 14.9997Z" fill="#FFEFAE"/>
<path d="M168.949 17.7494C168.772 17.2493 168.734 16.7103 168.84 16.1905C168.947 15.6706 169.193 15.1896 169.553 14.7991C170.242 14.1328 171.058 13.7416 171.609 14.5241C171.958 15.0317 171.217 16.3324 171.174 16.9986C171.132 17.6648 171.079 18.8915 170.539 19.1135C169.765 19.526 169.256 19.0184 168.949 17.7494Z" fill="#FFEFAE"/>
<path d="M193.278 99.1746C187.981 96.827 181.846 94.9447 175.997 96.1291C174.517 96.3714 173.099 96.8994 171.822 97.6836C168.083 94.3925 163.943 91.5856 159.499 89.3295C159.702 88.8392 159.791 88.3091 159.758 87.7795C159.724 87.2499 159.571 86.7348 159.308 86.2734L158.863 86.6224C159.061 86.963 159.187 87.3402 159.235 87.731C159.282 88.1218 159.249 88.5181 159.139 88.896C159.111 88.9684 159.08 89.039 159.043 89.1075C158.312 88.7373 157.581 88.399 156.85 88.05L155.907 88.6633L157.03 89.1498C157.528 89.393 158.016 89.6679 158.503 89.9217C157.189 91.3493 154.53 91.381 152.209 90.7888L151.658 91.0849C154.212 91.8992 157.327 91.8675 158.927 90.1438C163.256 92.4666 167.413 95.0959 171.366 98.0114C170.543 98.7131 169.884 99.5881 169.439 100.573C168.994 101.559 168.773 102.63 168.792 103.711C168.484 109.326 170.709 115.28 174.089 119.964L174.842 119.69C171.801 114.867 169.205 109.622 169.544 103.827C169.66 101.713 170.116 99.5341 171.949 98.3498C174.491 96.9404 177.387 96.2941 180.288 96.4886C188.765 96.6895 197.157 100.993 204.15 105.837L204.457 105.646C200.989 103.072 197.239 100.901 193.278 99.1746Z" fill="#AA21B5"/>
<path d="M201.829 78.7228L200.6 78.2152C199.553 78.4231 198.528 78.7275 197.538 79.1247C195.957 79.685 194.568 80.6825 193.533 82.001C185.927 79.1979 177.914 77.6513 169.809 77.4221C169.873 77.1652 169.873 76.8966 169.809 76.6396C169.47 75.2966 167.626 74.6093 165.793 74.3555C165.855 74.5054 165.901 74.6613 165.931 74.8208C165.931 74.8948 165.931 74.9688 165.931 75.0428C166.935 75.1506 167.895 75.5148 168.718 76.1003C168.939 76.2377 169.112 76.4416 169.211 76.6827C169.31 76.9239 169.33 77.1901 169.268 77.4433C168.124 77.4433 166.98 77.4433 165.846 77.4433C165.846 77.5279 165.846 77.6125 165.846 77.6971C165.832 77.7755 165.815 77.8531 165.793 77.9297C165.793 78.0672 165.708 78.2047 165.666 78.3421C166.726 78.3421 167.711 78.3421 168.739 78.3421C168.058 78.9626 167.258 79.4376 166.386 79.738C165.907 79.8831 165.419 79.9961 164.924 80.0764C164.839 80.235 164.765 80.3831 164.67 80.5417C165.607 80.448 166.524 80.2163 167.393 79.8543C168.171 79.5207 168.858 79.0058 169.396 78.3527C171.208 78.4056 173.019 78.5113 174.831 78.7017C181.054 79.4756 187.203 80.7595 193.215 82.5403C189.612 89.0543 202.243 99.4599 208.229 103.182L208.727 102.854C203.525 98.8465 197.718 95.029 194.476 89.1707C193.416 87.2143 192.632 84.761 193.861 82.7095C193.915 82.7304 193.975 82.7324 194.03 82.715C194.085 82.6975 194.133 82.6618 194.165 82.6137C194.197 82.5656 194.212 82.508 194.207 82.4504C194.202 82.3929 194.177 82.3388 194.137 82.2971C195.61 80.3408 198.449 79.3679 200.727 78.9237C201.077 78.8603 201.448 78.7757 201.829 78.7228Z" fill="#AA21B5"/>
<path d="M140.647 108.322C139.371 108.255 138.091 108.362 136.843 108.64C135.58 105.722 134.04 102.932 132.245 100.307C133.067 99.7552 133.662 98.925 133.919 97.9697L133.018 98.2235C132.757 98.8083 132.334 99.307 131.8 99.6617C131.577 99.355 131.333 99.0695 131.111 98.7628L130.337 98.9743L131.1 100.032C130.394 100.339 129.618 100.449 128.854 100.349C128.217 100.262 127.596 100.084 127.01 99.8203L126.205 100.011C126.965 100.549 127.846 100.891 128.771 101.005C129.696 101.12 130.635 101.003 131.503 100.666C133.271 103.267 134.898 105.96 136.377 108.735C127.265 111.209 125.379 123.539 126.947 132.655L127.731 132.507C127.127 127.167 126.745 121.773 128.854 116.645C129.886 113.958 131.852 111.732 134.393 110.373C136.933 109.014 139.879 108.612 142.692 109.242C150.575 110.871 156.467 117.787 161.002 124.343L161.394 124.227C156.7 116.793 149.484 108.745 140.647 108.322Z" fill="#AA21B5"/>
<path d="M94.5883 114.942C94.6825 112.654 94.909 110.373 95.2665 108.111C96.4839 108.021 97.6617 107.639 98.7001 106.999C99.7385 106.358 100.607 105.477 101.232 104.431L100.172 104.536C99.2864 105.744 98.0284 106.628 96.5909 107.053C96.2237 107.148 95.847 107.201 95.4678 107.212C95.6055 106.429 95.7539 105.647 95.9234 104.875L95.0016 104.928C94.8744 105.678 94.7685 106.429 94.6731 107.18C93.9544 107.106 93.2599 106.879 92.6366 106.514C92.0134 106.149 91.4757 105.655 91.0599 105.065H90.3606C90.6844 105.802 91.184 106.448 91.8156 106.947C92.4473 107.447 93.1919 107.785 93.9844 107.931C94.1734 107.969 94.3644 107.998 94.5565 108.016C94.3074 110.319 94.1836 112.635 94.1857 114.953C93.0939 115.135 92.0271 115.444 91.007 115.873C82.5939 119.415 78.5675 129.979 76.8086 138.735H77.1689C79.2032 130.804 82.2866 121.816 89.3752 117.469C91.7518 115.94 94.594 115.3 97.3983 115.662C100.203 116.024 102.788 117.365 104.697 119.447C108.861 123.814 110.334 129.588 111.69 135.309L112.41 135.203C111.012 125.781 104.697 113.61 94.5883 114.942Z" fill="#AA21B5"/>
<path d="M24.4549 108.904C26.8071 108.534 29.7528 108.47 31.8719 109.813C33.9911 111.156 34.2348 114.043 33.8851 116.38C32.9103 122.873 28.8627 128.382 25.4085 133.818L26.0018 133.998C30.2402 128.393 37.9327 115.206 33.1646 110.099C39.5031 105.997 46.0806 102.275 52.8622 98.9529L53.5297 98.6463C54.2281 99.1104 55.0346 99.3872 55.8714 99.4499C56.456 99.5134 57.0457 99.5134 57.6303 99.4499L57.0899 99.0375C56.0468 99.0713 55.0099 98.865 54.0595 98.4348L55.7019 97.7051C55.7019 97.7051 55.6171 97.6099 55.5853 97.5571C55.5432 97.5104 55.5043 97.4609 55.4687 97.409C55.384 97.2927 55.3204 97.1764 55.2462 97.0601L53.4344 97.9272C53.2843 97.7083 53.2094 97.4467 53.2208 97.1817C53.2323 96.9167 53.3295 96.6625 53.4979 96.4573C53.7747 96.0005 54.1339 95.5989 54.5575 95.2729C54.5525 95.199 54.5525 95.1248 54.5575 95.0509C54.5416 94.8679 54.5416 94.6839 54.5575 94.501C53.4132 95.2941 52.5549 96.2987 52.6715 97.3456C52.7046 97.6317 52.8103 97.9047 52.9787 98.1387L52.5443 98.3502C45.6819 101.656 39.0951 105.503 32.8467 109.855C31.3369 108.618 29.4273 107.972 27.4747 108.037C25.6871 107.987 23.9019 108.201 22.1768 108.671L21.1172 109.729C22.208 109.372 23.3236 109.097 24.4549 108.904Z" fill="#AA21B5"/>
<path d="M63.4584 138.957C65.1537 133.267 65.2915 126.637 62.9816 121.276C62.6207 120.219 62.0197 119.259 61.2256 118.472C60.4316 117.685 59.466 117.092 58.4042 116.739C61.003 113.193 63.8348 109.823 66.8808 106.651L67.4 106.164C69.5933 107.507 72.8039 106.334 75.029 104.525L74.425 104.451C72.3059 105.953 69.551 106.958 67.7497 105.826C68.4808 105.128 69.2331 104.441 69.996 103.775L68.7033 103.531C68.1311 104.06 67.5484 104.589 66.9974 105.17C66.5661 104.555 66.3844 103.799 66.4888 103.055L65.9484 102.918C65.8828 103.382 65.9098 103.855 66.028 104.308C66.1462 104.762 66.3532 105.188 66.6371 105.562C63.3486 108.924 60.4452 112.641 57.9804 116.644C56.5485 116.374 55.0785 116.374 53.6467 116.644C44.1105 118.156 35.5067 126.88 30.3359 135.16L30.7068 135.245C35.6126 128.329 41.9807 121.498 49.7792 118.41C52.2873 117.332 55.0316 116.916 57.7473 117.204C57.7585 117.231 57.7758 117.254 57.7978 117.272C57.8199 117.291 57.846 117.303 57.8739 117.31C57.9019 117.316 57.931 117.315 57.9587 117.308C57.9864 117.301 58.012 117.287 58.0333 117.268C60.1525 117.701 61.3922 119.383 62.2717 121.329C64.804 126.965 64.0306 133.13 62.7273 138.978L63.4584 138.957Z" fill="#AA21B5"/>
<path d="M182.258 150.653C181.264 148.58 180.072 146.607 178.698 144.763C178.603 144.636 178.486 144.445 178.306 144.181C177.978 143.673 177.723 143.293 177.543 143.05C174.428 138.735 170.804 138.64 168.918 138.978C167.712 139.2 166.574 139.697 165.592 140.431C164.61 141.165 163.812 142.115 163.26 143.208C163.048 143.261 162.826 143.314 162.614 143.388C161.602 143.685 160.646 144.146 159.785 144.752C159.016 145.305 158.358 145.997 157.846 146.793L157.454 146.846C156.636 146.993 155.841 147.25 155.091 147.607C154.72 147.776 154.402 147.956 154.127 148.115C152.934 148.808 151.896 149.737 151.075 150.843C150.72 150.848 150.366 150.88 150.015 150.938C149.356 151.055 148.715 151.258 148.108 151.541C147.096 152.014 146.186 152.678 145.427 153.497C145.029 153.517 144.633 153.563 144.241 153.635C143.958 153.681 143.678 153.744 143.404 153.825C142.89 153.96 142.39 154.14 141.91 154.364C141.18 154.696 140.502 155.131 139.896 155.655H139.706C139.317 155.723 138.934 155.822 138.561 155.951C137.42 156.31 136.377 156.925 135.51 157.748C134.734 157.652 133.947 157.677 133.179 157.822C132.882 157.875 132.585 157.939 132.204 158.044C131.623 158.228 131.065 158.476 130.54 158.785C129.817 158.674 129.081 158.674 128.358 158.785L128.061 158.838C127.078 159.057 126.148 159.47 125.327 160.054C124.448 159.896 123.547 159.896 122.668 160.054L122.36 160.117C121.587 160.29 120.844 160.579 120.156 160.974C119.539 161.333 118.979 161.782 118.493 162.306C117.756 161.913 116.968 161.624 116.151 161.45C115.344 161.305 114.524 161.237 113.704 161.249C113.216 161.249 112.75 161.249 112.305 161.249C111.86 161.249 111.33 161.344 110.864 161.428C109.121 161.721 107.481 162.449 106.096 163.543C105.274 162.766 104.291 162.178 103.216 161.821C102.141 161.465 101.001 161.349 99.8761 161.481H99.6854L99.1768 161.566L98.8059 161.619C97.8867 161.788 97.0066 162.125 96.21 162.613C95.4285 161.898 94.5103 161.349 93.5106 160.999C92.5108 160.648 91.4503 160.503 90.3929 160.572H90.075C89.7694 160.583 89.4649 160.614 89.1638 160.667C88.2586 160.268 87.3187 159.953 86.3559 159.726C85.5713 159.563 84.7731 159.474 83.9718 159.461C83.3989 159.44 82.8251 159.461 82.2553 159.525C81.5188 158.971 80.6851 158.558 79.7971 158.309C78.8204 158.046 77.8015 157.978 76.7985 158.108C76.0299 157.486 75.1433 157.026 74.1919 156.754C73.4261 156.546 72.6327 156.457 71.8396 156.49C71.4843 156.498 71.1301 156.534 70.7801 156.596C69.4511 156.851 68.2137 157.454 67.1937 158.342C66.1738 159.229 65.4077 160.371 64.9736 161.65C64.6854 162.452 64.4379 163.267 64.2319 164.093C64.0623 164.738 63.8398 165.701 63.5749 166.906C63.4478 167.456 63.2358 168.418 62.9286 169.835C62.7908 170.48 62.6849 170.893 62.6425 171.083V171.21C62.6425 171.21 62.5365 171.591 62.3882 172.204C61.9082 173.906 62.065 175.725 62.8292 177.32C63.5934 178.916 64.9129 180.179 66.5417 180.875C67.9496 181.567 69.5311 181.829 71.0873 181.626L71.2781 181.742C71.9514 182.179 72.6874 182.51 73.4608 182.726C74.5396 183.03 75.673 183.087 76.7773 182.895C77.249 183.169 77.7415 183.406 78.2501 183.604C78.5997 183.73 79.1189 183.91 81.2169 184.492C82.0116 184.724 82.393 184.82 82.7533 184.894C83.7865 185.083 84.8458 185.083 85.8791 184.894C86.1916 184.839 86.4997 184.761 86.8009 184.661C87.5625 185.05 88.3567 185.372 89.1743 185.623C89.9077 185.847 90.6594 186.006 91.4207 186.099C92.5297 186.21 93.6438 186.263 94.7583 186.258C95.4677 186.271 96.1769 186.222 96.8775 186.11L97.3967 186.015L97.7993 185.877L98.0006 185.803C98.8153 186.194 99.6672 186.502 100.544 186.723C101.292 186.888 102.055 186.98 102.822 186.998C103.932 187.011 105.043 186.965 106.149 186.861C106.732 186.808 107.208 186.744 107.516 186.681C108.09 186.588 108.652 186.428 109.19 186.205L109.465 186.057C109.551 186.095 109.64 186.127 109.73 186.152C110.459 186.382 111.207 186.545 111.966 186.639C112.631 186.701 113.3 186.722 113.968 186.702H114.763C115.145 186.702 115.526 186.628 115.897 186.564C116.772 186.407 117.625 186.148 118.44 185.793C119.671 185.274 120.776 184.499 121.682 183.519L122.085 183.826C123.486 184.782 125.17 185.237 126.864 185.116C127.251 185.096 127.636 185.053 128.019 184.989C129.165 184.788 130.251 184.333 131.197 183.656H131.42C132.127 183.721 132.839 183.692 133.539 183.572L133.836 183.508C135.354 183.184 136.73 182.388 137.767 181.235C139.043 181.452 140.347 181.452 141.624 181.235C142.174 181.14 142.716 181.002 143.245 180.822C144.162 180.513 145.049 180.12 145.894 179.649C146.611 179.255 147.283 178.783 147.896 178.242C148.692 178.375 149.505 178.375 150.301 178.242C150.906 178.141 151.494 177.96 152.05 177.703C152.617 177.445 153.148 177.115 153.629 176.719C153.931 176.481 154.214 176.219 154.476 175.937C154.945 175.818 155.402 175.659 155.843 175.461C156.403 175.202 156.926 174.871 157.401 174.478C157.639 174.466 157.876 174.437 158.111 174.393C158.726 174.283 159.324 174.095 159.891 173.833C160.652 173.481 161.344 172.998 161.936 172.405H162.137C162.764 172.293 163.375 172.109 163.959 171.855C164.322 171.707 164.676 171.538 165.019 171.347C165.835 170.859 166.553 170.224 167.138 169.476C168.11 169.295 169.041 168.937 169.882 168.418C170.658 167.947 171.341 167.338 171.896 166.621C172.862 166.358 173.774 165.925 174.587 165.341C175.46 164.717 176.183 163.908 176.706 162.972C177.79 162.73 178.811 162.265 179.705 161.608C180.206 161.217 180.664 160.774 181.072 160.286C181.844 159.478 182.439 158.518 182.819 157.468C183.198 156.417 183.354 155.299 183.276 154.185C183.152 152.956 182.807 151.76 182.258 150.653Z" fill="white"/>
<path d="M78.6629 166.304C78.7882 165.966 78.8176 165.6 78.7477 165.246C78.7225 165.069 78.6443 164.903 78.5233 164.771C78.4023 164.639 78.2442 164.547 78.0696 164.506C77.8915 164.468 77.7072 164.468 77.5292 164.506C77.1053 164.559 76.7345 165.003 76.4696 165.828C76.3954 166.018 76.2259 166.642 75.9504 167.689C75.9312 167.799 75.8905 167.904 75.8305 167.998C75.7705 168.092 75.6925 168.173 75.6009 168.237C75.5093 168.301 75.406 168.346 75.2969 168.37C75.1877 168.394 75.0749 168.396 74.965 168.376C74.8484 168.376 74.3928 168.239 73.6087 168.017C73.0577 167.858 72.7717 167.625 72.7399 167.329C72.7851 166.933 72.8739 166.543 73.0048 166.166C73.1519 165.678 73.2374 165.174 73.2591 164.665C73.2591 163.681 73.0366 163.121 72.4962 162.973C72.3374 162.93 72.173 162.912 72.0088 162.92C71.5743 162.92 71.2035 163.322 70.9492 164.083C70.8644 164.305 70.6949 164.876 70.4512 165.796C70.2922 166.388 70.0909 167.255 69.8366 168.419C69.7095 168.958 69.4976 169.899 69.2009 171.263C68.9996 172.204 68.8618 172.807 68.7876 173.05C68.7876 173.05 68.7135 173.346 68.5863 173.865C68.4816 174.133 68.4816 174.431 68.5863 174.7C68.7423 174.942 68.9728 175.128 69.2433 175.229C70.1651 175.662 70.7585 175.461 71.0022 174.626C71.1293 174.203 71.2671 173.621 71.426 172.86C71.5849 172.099 71.7651 171.401 71.9452 170.745C72.1253 170.089 72.4114 169.888 72.8034 170.026C73.3054 170.183 73.8192 170.3 74.3398 170.375C74.9756 170.481 75.1981 170.914 75.018 171.665L74.414 174.161C74.3019 174.568 74.2309 174.986 74.2021 175.408C74.1796 175.613 74.2143 175.82 74.3021 176.007C74.39 176.194 74.5277 176.352 74.7001 176.466C74.8458 176.566 75.0068 176.641 75.1769 176.688C75.3402 176.738 75.5132 176.747 75.6811 176.716C75.849 176.685 76.0068 176.613 76.1411 176.508C76.4089 176.284 76.6043 175.986 76.7027 175.652C76.9221 174.984 77.0782 174.297 77.1689 173.6C77.2325 173.124 77.3278 172.426 77.4656 171.485C77.4656 171.401 77.5504 171.062 77.6881 170.491L78.3133 167.773C78.2921 167.403 78.4722 166.906 78.6629 166.304Z" fill="url(#paint16_linear_821_1245)"/>
<path d="M81.841 170.343C81.933 170.014 82.0572 169.696 82.2119 169.391C82.3062 169.248 82.431 169.127 82.5776 169.037C82.7241 168.948 82.8887 168.892 83.0595 168.873C83.4694 168.799 83.8894 168.799 84.2992 168.873L85.6131 169.127C85.9604 169.208 86.3161 169.247 86.6727 169.243C86.8479 169.225 87.0172 169.169 87.1689 169.08C87.3206 168.99 87.4513 168.869 87.5522 168.725L87.6581 168.45C87.7536 168.158 87.7536 167.843 87.6581 167.551C87.5908 167.254 87.4223 166.988 87.1813 166.8C86.4763 166.427 85.7244 166.15 84.9456 165.976C84.5405 165.897 84.1292 165.854 83.7165 165.849C81.9788 165.785 80.8662 166.335 80.4 167.509C80.0612 168.362 79.7988 169.243 79.6159 170.142C79.6159 170.47 79.4994 170.851 79.4464 171.284C79.3334 172.313 79.1532 173.519 78.906 174.901C78.7426 175.477 78.8148 176.094 79.1067 176.618C79.3987 177.141 79.8866 177.527 80.4636 177.692C80.7497 177.809 81.5973 178.052 83.0066 178.443C83.5152 178.591 83.833 178.686 83.9496 178.708C84.9138 178.887 85.4648 178.602 85.6131 177.84C85.6337 177.721 85.6337 177.6 85.6131 177.481C85.539 176.931 84.9456 176.593 83.8224 176.476C83.1365 176.39 82.4639 176.219 81.8198 175.969C81.5929 175.879 81.3976 175.725 81.2583 175.525C81.1205 175.355 81.1311 175.102 81.2583 174.753C81.3854 174.404 81.6185 174.245 81.8622 174.287H82.1271C82.2384 174.308 82.3481 174.336 82.4556 174.372C82.7228 174.462 82.9953 174.536 83.2715 174.594C83.5681 174.668 84.0344 174.805 84.6595 174.996C85.1058 175.149 85.5906 175.149 86.037 174.996C86.1536 174.921 86.2544 174.824 86.3336 174.71C86.399 174.534 86.4521 174.354 86.4926 174.171C86.514 174.038 86.502 173.901 86.4577 173.774C86.4133 173.647 86.3379 173.532 86.2383 173.441C86.0499 173.249 85.8113 173.114 85.5496 173.05L84.6807 172.839C84.2795 172.737 83.8726 172.659 83.4622 172.606C83.0741 172.56 82.6911 172.478 82.3178 172.363C82.0995 172.296 81.9136 172.151 81.7961 171.956C81.6787 171.761 81.6381 171.529 81.6821 171.305C81.7563 170.861 81.8092 170.533 81.841 170.343Z" fill="url(#paint17_linear_821_1245)"/>
<path d="M96.1255 177.543C95.7569 177.373 95.3553 177.287 94.9493 177.29C94.5537 177.29 94.1299 177.258 93.6778 177.194H92.7136C92.1633 177.166 91.6397 176.949 91.2302 176.581C91.0077 176.338 90.9971 175.524 91.2302 174.212C91.2302 174.011 91.315 173.684 91.3785 173.218C91.4919 172.52 91.6548 171.831 91.8659 171.156C91.9401 170.85 92.0779 170.31 92.2686 169.528C92.3484 169.21 92.377 168.882 92.3533 168.555C92.3447 168.235 92.2764 167.919 92.152 167.624C92.0068 167.358 91.7778 167.146 91.5002 167.022C91.2226 166.897 90.9118 166.868 90.6156 166.937C90.5453 166.928 90.4741 166.928 90.4037 166.937C90.1673 166.921 89.9323 166.984 89.7362 167.117C89.323 167.349 89.0793 167.942 89.0157 168.904C89.0157 169.136 89.0157 169.528 88.9203 170.088C88.9203 170.331 88.8461 170.998 88.7508 172.087C88.7508 172.69 88.6766 173.483 88.666 174.456C88.666 174.783 88.666 175.365 88.666 176.222C88.666 176.391 88.666 176.687 88.666 177.099C88.6705 177.41 88.7278 177.717 88.8355 178.009C88.929 178.31 89.0966 178.582 89.323 178.802C89.8556 179.192 90.4607 179.472 91.103 179.627C91.4492 179.733 91.8036 179.811 92.1626 179.859C92.9149 179.933 93.7944 179.976 94.7798 179.976C95.1698 179.99 95.5603 179.965 95.9453 179.902C96.4009 179.754 96.6764 179.267 96.7718 178.432C96.7794 178.233 96.7198 178.037 96.6026 177.876C96.4854 177.715 96.3173 177.598 96.1255 177.543Z" fill="url(#paint18_linear_821_1245)"/>
<path d="M106.741 177.904C106.359 177.763 105.949 177.712 105.544 177.756C105.152 177.756 104.728 177.756 104.272 177.756L103.319 177.872C102.769 177.901 102.228 177.732 101.793 177.396C101.539 177.185 101.454 176.392 101.539 175.049C101.539 174.837 101.539 174.509 101.592 174.044C101.644 173.333 101.743 172.627 101.888 171.929C101.888 171.622 102.026 171.062 102.153 170.269C102.201 169.946 102.201 169.618 102.153 169.296C102.116 168.978 102.019 168.669 101.867 168.386C101.697 168.133 101.449 167.942 101.16 167.843C100.871 167.743 100.557 167.741 100.267 167.837H100.066C99.8292 167.843 99.6016 167.929 99.4194 168.08C99.0274 168.344 98.8473 168.958 98.8579 169.93C98.8579 170.152 98.8579 170.544 98.8579 171.104C98.8579 171.347 98.8579 172.024 98.8579 173.113C98.8579 173.727 98.8579 174.509 98.9956 175.493C98.9956 175.81 99.0592 176.392 99.1228 177.238C99.1228 177.407 99.1227 177.703 99.1969 178.115C99.2262 178.428 99.3124 178.732 99.4512 179.014C99.5721 179.302 99.7612 179.556 100.002 179.754C100.568 180.091 101.194 180.314 101.846 180.41C102.193 180.493 102.548 180.539 102.905 180.547C103.779 180.557 104.653 180.518 105.523 180.431C105.913 180.415 106.301 180.354 106.678 180.251C107.123 180.061 107.345 179.553 107.366 178.718C107.361 178.534 107.297 178.356 107.185 178.21C107.073 178.064 106.918 177.957 106.741 177.904Z" fill="url(#paint19_linear_821_1245)"/>
<path d="M116.703 169.032C116.515 168.694 116.25 168.404 115.93 168.186C115.614 167.953 115.253 167.787 114.87 167.699C114.453 167.634 114.031 167.606 113.61 167.615H112.762C110.59 167.784 109.35 168.609 109.043 170.1C108.824 171.053 108.742 172.032 108.799 173.008C108.799 173.653 108.894 174.298 108.958 174.933C109.004 175.566 109.114 176.193 109.286 176.804L109.816 178.359C109.906 178.762 110.139 179.119 110.473 179.363C110.772 179.656 111.135 179.877 111.533 180.008C111.92 180.129 112.317 180.218 112.719 180.273C113.111 180.294 113.504 180.294 113.896 180.273H114.319C114.889 180.229 115.447 180.093 115.972 179.871C116.296 179.758 116.591 179.577 116.838 179.339C117.085 179.102 117.277 178.815 117.403 178.496C117.528 178.153 117.62 177.799 117.678 177.439C117.777 176.031 117.777 174.617 117.678 173.209C117.646 172.764 117.582 172.323 117.488 171.887C117.382 171.295 117.307 170.83 117.265 170.607C117.156 170.058 116.967 169.527 116.703 169.032ZM115.252 173.526C115.252 173.96 115.252 174.446 115.252 174.975C115.252 176.466 115.019 177.375 114.648 177.693C114.345 177.931 113.973 178.064 113.588 178.073C113.401 178.089 113.214 178.089 113.027 178.073C112.349 177.999 111.861 177.375 111.586 176.202C111.438 175.576 111.338 174.939 111.289 174.298C111.252 173.714 111.252 173.127 111.289 172.543C111.353 171.284 111.649 170.565 112.2 170.428C112.679 170.257 113.196 170.22 113.694 170.322C114.182 170.417 114.563 170.872 114.839 171.697C115.056 172.286 115.195 172.901 115.252 173.526Z" fill="url(#paint20_linear_821_1245)"/>
<path d="M132.067 171.58C132.067 171.506 131.95 171.178 131.802 170.607L131.081 167.921C130.975 167.526 130.869 167.019 130.763 166.398C130.71 166.042 130.564 165.707 130.339 165.425C130.233 165.283 130.086 165.175 129.919 165.115C129.751 165.055 129.569 165.045 129.396 165.087C129.221 165.133 129.055 165.212 128.909 165.32C128.559 165.573 128.443 166.134 128.549 167.012C128.549 167.212 128.718 167.847 128.962 168.894C129.029 169.106 129.01 169.335 128.909 169.533C128.808 169.731 128.633 169.881 128.422 169.951C128.305 169.951 127.849 170.099 127.044 170.269C126.493 170.385 126.122 170.269 125.985 170.068C125.847 169.694 125.747 169.308 125.688 168.915C125.586 168.414 125.423 167.927 125.2 167.466C124.762 166.585 124.275 166.204 123.738 166.324C123.578 166.366 123.425 166.43 123.283 166.515C122.901 166.726 122.753 167.244 122.838 168.048C122.838 168.291 122.986 168.873 123.198 169.803C123.336 170.395 123.569 171.263 123.887 172.405L124.66 175.218C124.925 176.148 125.084 176.74 125.126 176.994C125.126 176.994 125.2 177.29 125.338 177.808C125.383 178.088 125.525 178.343 125.741 178.527C125.988 178.678 126.28 178.737 126.567 178.697C127.627 178.697 128.019 178.189 127.849 177.332C127.765 176.909 127.616 176.328 127.394 175.588C127.171 174.847 127.002 174.139 126.875 173.473C126.747 172.807 126.875 172.5 127.298 172.415C127.81 172.316 128.313 172.178 128.803 172.003C129.418 171.805 129.82 172.08 130.011 172.828L130.647 175.313C130.739 175.727 130.874 176.131 131.049 176.518C131.123 176.711 131.25 176.88 131.414 177.005C131.579 177.13 131.776 177.207 131.982 177.227C132.157 177.254 132.336 177.254 132.512 177.227C132.678 177.194 132.834 177.123 132.966 177.018C133.099 176.913 133.205 176.778 133.274 176.624C133.409 176.289 133.446 175.922 133.38 175.567C133.256 174.872 133.072 174.189 132.829 173.526C132.639 173.159 132.384 172.51 132.067 171.58Z" fill="url(#paint21_linear_821_1245)"/>
<path d="M143.668 167.149C143.369 166.152 143.129 165.139 142.948 164.114C142.914 163.892 142.861 163.672 142.789 163.459C142.642 162.968 142.359 162.528 141.973 162.19C141.778 162.025 141.542 161.917 141.29 161.876C141.038 161.835 140.78 161.863 140.543 161.957L140.225 162.084C139.504 162.433 139.345 163.141 139.748 164.199C140.151 165.256 140.468 166.123 140.659 166.811C140.977 167.868 141.21 168.725 141.358 169.264C141.662 170.448 141.694 171.22 141.454 171.58C141.359 171.746 141.231 171.891 141.078 172.005C140.925 172.12 140.75 172.202 140.564 172.246C140.231 172.366 139.873 172.401 139.523 172.347C139.174 172.294 138.843 172.153 138.561 171.94C138.181 171.46 137.884 170.92 137.682 170.343C137.47 169.835 137.205 169.074 136.898 168.059C136.683 167.285 136.428 166.522 136.135 165.774C135.977 165.281 135.733 164.819 135.414 164.41C135.227 164.24 134.996 164.126 134.746 164.081C134.497 164.036 134.24 164.062 134.005 164.157C133.759 164.211 133.537 164.343 133.373 164.534C133.209 164.724 133.111 164.963 133.094 165.214C133.1 165.701 133.2 166.182 133.39 166.631C133.518 166.991 133.666 167.361 133.835 167.763L135.223 170.861C135.785 172.13 136.167 172.976 136.357 173.272C136.556 173.631 136.826 173.946 137.15 174.199C137.474 174.452 137.846 174.636 138.243 174.742C139.24 175.028 140.3 175.006 141.284 174.678C141.836 174.489 142.368 174.249 142.874 173.959C143.595 173.654 144.172 173.086 144.489 172.371C144.806 171.656 144.838 170.848 144.58 170.11L143.668 167.149Z" fill="url(#paint22_linear_821_1245)"/>
<path d="M156.181 163.459L154.592 160.372C154.136 159.353 153.485 158.433 152.674 157.664C152.435 157.422 152.131 157.253 151.799 157.178C151.466 157.103 151.119 157.125 150.799 157.241C150.46 157.405 150.163 157.644 149.93 157.939C149.548 158.383 149.548 159.578 149.93 161.535C150.068 162.264 150.375 163.555 150.862 165.405C150.005 163.719 148.937 162.149 147.684 160.731C147.38 160.351 146.971 160.068 146.507 159.918C146.044 159.768 145.547 159.756 145.077 159.885C144.903 159.93 144.732 159.99 144.568 160.065C144.226 160.217 143.941 160.472 143.751 160.795C143.561 161.117 143.476 161.49 143.509 161.863C143.543 162.628 143.749 163.376 144.113 164.052C144.558 164.919 144.907 165.553 145.172 165.934C145.437 166.315 145.893 167.372 146.571 168.958C147.249 170.544 147.885 171.528 148.415 171.75C148.575 171.84 148.753 171.893 148.937 171.904C149.121 171.915 149.304 171.884 149.474 171.813C149.552 171.774 149.627 171.728 149.697 171.676C149.924 171.515 150.092 171.284 150.177 171.019C150.261 170.754 150.256 170.468 150.163 170.206C149.938 169.71 149.687 169.226 149.411 168.757C148.997 167.985 148.415 166.896 147.652 165.5C147.146 164.713 146.753 163.859 146.486 162.962C147.209 163.59 147.856 164.3 148.415 165.077L149.909 167.086C150.47 167.858 150.968 168.546 151.328 169.138C151.436 169.324 151.59 169.478 151.776 169.586C151.962 169.693 152.173 169.75 152.388 169.751C152.666 169.769 152.945 169.726 153.204 169.624C153.459 169.471 153.68 169.266 153.85 169.022C154.083 168.726 153.695 167.005 152.685 163.861C152.339 162.826 152.077 161.765 151.901 160.689C152.589 162.254 153.066 163.301 153.342 163.861C153.776 164.707 154.105 165.321 154.327 165.712C154.613 166.242 154.932 166.754 155.281 167.245C155.436 167.497 155.644 167.712 155.891 167.874C156.138 168.037 156.418 168.143 156.711 168.186C156.892 168.201 157.074 168.172 157.241 168.102C157.824 167.837 157.887 167.171 157.442 166.124C157.188 165.447 156.775 164.601 156.181 163.459Z" fill="url(#paint23_linear_821_1245)"/>
<path d="M164.605 157.262C163.715 156.204 163.079 155.401 162.687 154.999C160.886 153.169 159.265 152.609 157.813 153.296L157.368 153.529C156.84 153.829 156.387 154.245 156.043 154.745C155.698 155.241 155.558 155.851 155.651 156.447C155.833 157.358 156.088 158.253 156.414 159.123C156.733 160.077 157.104 161.012 157.527 161.925L158.586 164.04C158.846 164.622 159.205 165.155 159.646 165.616C159.866 165.843 160.152 165.996 160.464 166.053C160.775 166.11 161.097 166.068 161.384 165.933C161.486 165.89 161.585 165.841 161.68 165.785C162.401 165.351 162.507 164.728 161.988 163.829L161.786 163.554C161.49 163.159 161.002 162.454 160.324 161.439C159.994 160.974 159.71 160.478 159.476 159.958C159.349 159.71 159.296 159.43 159.325 159.152C159.353 158.875 159.461 158.611 159.635 158.393C159.89 158.13 160.187 157.912 160.515 157.748C160.907 157.537 161.574 157.928 162.337 158.911C162.798 159.479 163.216 160.08 163.588 160.709C164.107 161.555 164.509 162.147 164.785 162.507C164.984 162.803 165.28 163.02 165.622 163.12C165.973 163.168 166.329 163.081 166.618 162.877C167.031 162.634 167.148 162.126 166.946 161.354C166.813 160.791 166.592 160.252 166.29 159.757C165.782 158.891 165.219 158.057 164.605 157.262ZM159.307 156.479C159.092 156.612 158.869 156.732 158.639 156.839C158.521 156.885 158.394 156.904 158.268 156.895C158.141 156.886 158.018 156.849 157.908 156.786C157.816 156.742 157.739 156.672 157.686 156.585C157.645 156.49 157.623 156.387 157.623 156.284C157.623 156.18 157.645 156.077 157.686 155.982C157.733 155.784 157.825 155.6 157.956 155.444C158.086 155.288 158.251 155.165 158.438 155.083C159.074 154.766 159.498 154.851 159.826 155.327C159.826 155.39 159.879 155.453 159.9 155.506C159.879 155.887 159.72 156.204 159.275 156.479H159.307Z" fill="url(#paint24_linear_821_1245)"/>
<path d="M176.472 153.296C175.652 151.598 174.669 149.983 173.537 148.474C173.403 148.284 173.212 147.998 172.965 147.618C172.718 147.237 172.527 146.952 172.393 146.761C171.333 145.26 170.273 144.847 169.383 145.513C168.631 146.053 168.61 146.814 169.309 147.808C170.009 148.802 170.92 149.923 172.011 151.245C172.732 152.06 173.411 152.91 174.046 153.793C174.205 154.047 174.258 154.195 174.205 154.227C174.152 154.259 174.099 154.227 173.993 154.227C173.342 153.9 172.718 153.521 172.128 153.095L170.326 151.848C169.429 151.214 168.499 150.628 167.54 150.092C166.648 149.502 165.569 149.261 164.509 149.415C164.133 149.512 163.775 149.669 163.45 149.881C163.202 150.082 163.015 150.347 162.908 150.647C162.802 150.948 162.78 151.271 162.846 151.583C163.046 152.313 163.408 152.989 163.905 153.561C164.107 153.846 164.319 154.121 164.531 154.386C164.742 154.65 165.378 155.443 166.406 156.924C167.819 158.897 168.847 160.036 169.489 160.339C169.71 160.435 169.953 160.465 170.19 160.426C170.427 160.387 170.647 160.279 170.824 160.117C170.973 160.013 171.09 159.87 171.162 159.704C171.235 159.538 171.261 159.355 171.238 159.176C171.214 158.793 171.078 158.425 170.846 158.118C170.655 157.88 170.446 157.657 170.221 157.452C169.079 156.372 168 155.228 166.989 154.026L166.787 153.772C166.64 153.624 166.541 153.435 166.501 153.23C166.462 153.024 166.484 152.812 166.565 152.62C166.577 152.58 166.604 152.546 166.639 152.524C166.819 152.398 167.201 152.524 167.794 152.979C168.387 153.434 169.013 153.825 170.062 154.534C172.181 155.944 173.742 156.67 174.745 156.712C175.177 156.733 175.602 156.598 175.942 156.331C176.091 156.229 176.23 156.112 176.355 155.982C176.531 155.811 176.668 155.605 176.758 155.377C176.847 155.149 176.887 154.905 176.875 154.661C176.817 154.187 176.681 153.726 176.472 153.296Z" fill="url(#paint25_linear_821_1245)"/>
<defs>
<linearGradient id="paint0_linear_821_1245" x1="109.713" y1="100.981" x2="117.815" y2="146.79" gradientUnits="userSpaceOnUse">
<stop offset="0.03" stop-color="#5AB5CB"/>
<stop offset="1" stop-color="#843AA9"/>
</linearGradient>
<linearGradient id="paint1_linear_821_1245" x1="117.731" y1="148.191" x2="113.426" y2="123.854" gradientUnits="userSpaceOnUse">
<stop offset="0.03" stop-color="#5AB5CB"/>
<stop offset="1" stop-color="#D848E0"/>
</linearGradient>
<linearGradient id="paint2_linear_821_1245" x1="120.919" y1="141.785" x2="114.625" y2="106.201" gradientUnits="userSpaceOnUse">
<stop stop-color="#20E8C1"/>
<stop offset="1" stop-color="#0070B3"/>
</linearGradient>
<radialGradient id="paint3_radial_821_1245" cx="0" cy="0" r="1" gradientUnits="userSpaceOnUse" gradientTransform="translate(114.385 88.0318) rotate(78.443) scale(41.2106 83.8682)">
<stop offset="0.03" stop-color="#5AB5CB"/>
<stop offset="1" stop-color="#D848E0"/>
</radialGradient>
<linearGradient id="paint4_linear_821_1245" x1="117.971" y1="22.3459" x2="174.565" y2="12.2961" gradientUnits="userSpaceOnUse">
<stop stop-color="#20E8C1"/>
<stop offset="1" stop-color="#0070B3"/>
</linearGradient>
<linearGradient id="paint5_linear_821_1245" x1="112.669" y1="100.167" x2="98.3998" y2="19.4921" gradientUnits="userSpaceOnUse">
<stop stop-color="#20E8C1" stop-opacity="0.4"/>
<stop offset="0.02" stop-color="#1EE4C0" stop-opacity="0.43"/>
<stop offset="0.18" stop-color="#13CBBC" stop-opacity="0.64"/>
<stop offset="0.33" stop-color="#0BB7B8" stop-opacity="0.8"/>
<stop offset="0.49" stop-color="#05A8B5" stop-opacity="0.91"/>
<stop offset="0.66" stop-color="#01A0B4" stop-opacity="0.98"/>
<stop offset="0.83" stop-color="#009DB3"/>
</linearGradient>
<linearGradient id="paint6_linear_821_1245" x1="103.109" y1="51.1788" x2="98.6148" y2="25.7694" gradientUnits="userSpaceOnUse">
<stop stop-color="#20E8C1"/>
<stop offset="1" stop-color="#0070B3"/>
</linearGradient>
<linearGradient id="paint7_linear_821_1245" x1="142.809" y1="72.4131" x2="135.344" y2="30.2063" gradientUnits="userSpaceOnUse">
<stop stop-color="#45CEBA"/>
<stop offset="1" stop-color="white"/>
</linearGradient>
<linearGradient id="paint8_linear_821_1245" x1="58.8628" y1="83.1974" x2="66.5187" y2="40.3683" gradientUnits="userSpaceOnUse">
<stop stop-color="#45CEBA"/>
<stop offset="1" stop-color="white"/>
</linearGradient>
<linearGradient id="paint9_linear_821_1245" x1="112.826" y1="107.01" x2="101.615" y2="42.2529" gradientUnits="userSpaceOnUse">
<stop stop-color="#20E8C1"/>
<stop offset="1" stop-color="#0070B3"/>
</linearGradient>
<linearGradient id="paint10_linear_821_1245" x1="110.757" y1="95.1025" x2="103.458" y2="52.94" gradientUnits="userSpaceOnUse">
<stop stop-color="#20E8C1"/>
<stop offset="1" stop-color="#0070B3"/>
</linearGradient>
<linearGradient id="paint11_linear_821_1245" x1="117.406" y1="99.33" x2="107.777" y2="44.8871" gradientUnits="userSpaceOnUse">
<stop stop-color="#C741C1"/>
<stop offset="1" stop-color="#00AFD8"/>
</linearGradient>
<linearGradient id="paint12_linear_821_1245" x1="104.615" y1="82.8982" x2="112.729" y2="51.4381" gradientUnits="userSpaceOnUse">
<stop stop-color="#C741C1"/>
<stop offset="1" stop-color="#00AFD8"/>
</linearGradient>
<linearGradient id="paint13_linear_821_1245" x1="110.364" y1="80.0409" x2="105.752" y2="53.9649" gradientUnits="userSpaceOnUse">
<stop offset="0.29" stop-color="#5774D8"/>
<stop offset="1" stop-color="white" stop-opacity="0.7"/>
</linearGradient>
<linearGradient id="paint14_linear_821_1245" x1="105.358" y1="63.5806" x2="113.408" y2="77.1814" gradientUnits="userSpaceOnUse">
<stop stop-color="#C741C1"/>
<stop offset="1" stop-color="#00AFD8"/>
</linearGradient>
<linearGradient id="paint15_linear_821_1245" x1="110.842" y1="90.0631" x2="100.35" y2="30.7465" gradientUnits="userSpaceOnUse">
<stop stop-color="#20E8C1"/>
<stop offset="1" stop-color="#0070B3"/>
</linearGradient>
<linearGradient id="paint16_linear_821_1245" x1="72.3271" y1="169.329" x2="175.832" y2="151.338" gradientUnits="userSpaceOnUse">
<stop stop-color="#C41F66"/>
<stop offset="1" stop-color="#662D91"/>
</linearGradient>
<linearGradient id="paint17_linear_821_1245" x1="73.0433" y1="173.453" x2="176.548" y2="155.463" gradientUnits="userSpaceOnUse">
<stop stop-color="#C41F66"/>
<stop offset="1" stop-color="#662D91"/>
</linearGradient>
<linearGradient id="paint18_linear_821_1245" x1="73.5112" y1="176.137" x2="177.016" y2="158.146" gradientUnits="userSpaceOnUse">
<stop stop-color="#C41F66"/>
<stop offset="1" stop-color="#662D91"/>
</linearGradient>
<linearGradient id="paint19_linear_821_1245" x1="73.926" y1="178.531" x2="177.431" y2="160.541" gradientUnits="userSpaceOnUse">
<stop stop-color="#C41F66"/>
<stop offset="1" stop-color="#662D91"/>
</linearGradient>
<linearGradient id="paint20_linear_821_1245" x1="74.2039" y1="180.117" x2="177.709" y2="162.127" gradientUnits="userSpaceOnUse">
<stop stop-color="#C41F66"/>
<stop offset="1" stop-color="#662D91"/>
</linearGradient>
<linearGradient id="paint21_linear_821_1245" x1="74.2876" y1="180.604" x2="177.793" y2="162.613" gradientUnits="userSpaceOnUse">
<stop stop-color="#C41F66"/>
<stop offset="1" stop-color="#662D91"/>
</linearGradient>
<linearGradient id="paint22_linear_821_1245" x1="74.0728" y1="179.371" x2="177.578" y2="161.38" gradientUnits="userSpaceOnUse">
<stop stop-color="#C41F66"/>
<stop offset="1" stop-color="#662D91"/>
</linearGradient>
<linearGradient id="paint23_linear_821_1245" x1="73.7047" y1="177.257" x2="177.209" y2="159.267" gradientUnits="userSpaceOnUse">
<stop stop-color="#C41F66"/>
<stop offset="1" stop-color="#662D91"/>
</linearGradient>
<linearGradient id="paint24_linear_821_1245" x1="73.1551" y1="174.096" x2="176.66" y2="156.105" gradientUnits="userSpaceOnUse">
<stop stop-color="#C41F66"/>
<stop offset="1" stop-color="#662D91"/>
</linearGradient>
<linearGradient id="paint25_linear_821_1245" x1="72.3337" y1="169.37" x2="175.838" y2="151.38" gradientUnits="userSpaceOnUse">
<stop stop-color="#C41F66"/>
<stop offset="1" stop-color="#662D91"/>
</linearGradient>
</defs>
</svg>
