<svg width="764" height="325" viewBox="0 0 764 325" fill="none" xmlns="http://www.w3.org/2000/svg">
<g id="Frame 435">
<g id="Frame 434">
<g id="Frame 433">
<text id="200000" fill="white" xml:space="preserve" style="white-space: pre" font-family="Roboto" font-size="10.8754" letter-spacing="0.05em"><tspan x="0.288256" y="19.3503">200000</tspan></text>
<text id="150000" fill="white" xml:space="preserve" style="white-space: pre" font-family="Roboto" font-size="10.8754" letter-spacing="0.05em"><tspan x="0.288256" y="80.5261">150000</tspan></text>
<text id="100000" fill="white" xml:space="preserve" style="white-space: pre" font-family="Roboto" font-size="10.8754" letter-spacing="0.05em"><tspan x="0.288256" y="141.7">100000</tspan></text>
<text id="50000" fill="white" xml:space="preserve" style="white-space: pre" font-family="Roboto" font-size="10.8754" letter-spacing="0.05em"><tspan x="4.19894" y="202.875">50000</tspan></text>
</g>
<g id="Frame 429" opacity="0.2">
<rect id="Rectangle 61" x="45.9551" y="198.181" width="718.045" height="1.43609" fill="white"/>
<rect id="Rectangle 62" x="45.9551" y="137.864" width="718.045" height="1.43609" fill="white"/>
<rect id="Rectangle 63" x="45.9551" y="76.1123" width="718.045" height="1.43609" fill="white"/>
<rect id="Rectangle 64" x="45.9551" y="14.3604" width="718.045" height="1.43609" fill="white"/>
</g>
</g>
<g id="Frame 416">
<g id="Frame 418">
<g id="Frame 410">
<g id="Frame 415">
<g id="Frame 419">
<text id="2000" transform="translate(46.2227 236.541)" fill="white" xml:space="preserve" style="white-space: pre" font-family="Roboto" font-size="8.15658" letter-spacing="0.05em"><tspan x="7.12946" y="10.2648">2000</tspan></text>
<path id="Rectangle 60" d="M46.2227 255.619C46.2227 253.367 48.0486 251.541 50.3009 251.541H75.9791C78.2315 251.541 80.0574 253.367 80.0574 255.619V255.619H46.2227V255.619Z" fill="#5ECF99"/>
</g>
<g id="Frame 420">
<text id="3400" transform="translate(80.0566 233.822)" fill="white" xml:space="preserve" style="white-space: pre" font-family="Roboto" font-size="8.15658" letter-spacing="0.05em"><tspan x="7.12946" y="10.2648">3400</tspan></text>
<path id="Rectangle 60_2" d="M80.0566 255.619C80.0566 251.865 83.0998 248.822 86.8538 248.822H107.094C110.848 248.822 113.891 251.865 113.891 255.619V255.619H80.0566V255.619Z" fill="#5ECF99"/>
</g>
</g>
<g id="Frame 407">
<g id="Frame 420_2">
<text id="3800" transform="translate(127.486 231.104)" fill="white" xml:space="preserve" style="white-space: pre" font-family="Roboto" font-size="8.15658" letter-spacing="0.05em"><tspan x="7.12946" y="10.2648">3800</tspan></text>
<path id="Rectangle 60_3" d="M127.486 255.62C127.486 250.364 131.747 246.104 137.002 246.104H151.805C157.061 246.104 161.321 250.364 161.321 255.62V255.62H127.486V255.62Z" fill="#FF7880"/>
</g>
<g id="Frame 421">
<text id="2300" transform="translate(161.32 236.541)" fill="white" xml:space="preserve" style="white-space: pre" font-family="Roboto" font-size="8.15658" letter-spacing="0.05em"><tspan x="7.12946" y="10.2648">2300</tspan></text>
<path id="Rectangle 60_4" d="M161.32 255.619C161.32 253.367 163.146 251.541 165.399 251.541H191.077C193.329 251.541 195.155 253.367 195.155 255.619V255.619H161.32V255.619Z" fill="#FF7880"/>
</g>
</g>
<g id="Frame 408">
<g id="Frame 421_2">
<text id="2100" transform="translate(208.75 235.182)" fill="white" xml:space="preserve" style="white-space: pre" font-family="Roboto" font-size="8.15658" letter-spacing="0.05em"><tspan x="7.12946" y="10.2648">2100</tspan></text>
<path id="Rectangle 60_5" d="M208.75 255.619C208.75 252.616 211.185 250.182 214.188 250.182H237.147C240.15 250.182 242.585 252.616 242.585 255.619V255.619H208.75V255.619Z" fill="#FFC148"/>
</g>
<g id="Frame 422">
<text id="2500" transform="translate(242.584 235.182)" fill="white" xml:space="preserve" style="white-space: pre" font-family="Roboto" font-size="8.15658" letter-spacing="0.05em"><tspan x="7.12946" y="10.2648">2500</tspan></text>
<path id="Rectangle 60_6" d="M242.584 255.619C242.584 252.616 245.019 250.182 248.022 250.182H270.981C273.984 250.182 276.419 252.616 276.419 255.619V255.619H242.584V255.619Z" fill="#FFC148"/>
</g>
</g>
<g id="Frame 409">
<g id="Frame 422_2">
<text id="5900" transform="translate(290.014 229.744)" fill="white" xml:space="preserve" style="white-space: pre" font-family="Roboto" font-size="8.15658" letter-spacing="0.05em"><tspan x="7.12946" y="10.2648">5900</tspan></text>
<path id="Rectangle 60_7" d="M290.014 255.62C290.014 249.613 294.883 244.744 300.889 244.744H312.973C318.979 244.744 323.848 249.613 323.848 255.62V255.62H290.014V255.62Z" fill="#6FA9FF"/>
</g>
<g id="Frame 423">
<text id="6300" transform="translate(323.848 229.744)" fill="white" xml:space="preserve" style="white-space: pre" font-family="Roboto" font-size="8.15658" letter-spacing="0.05em"><tspan x="7.12946" y="10.2648">6300</tspan></text>
<path id="Rectangle 60_8" d="M323.848 255.62C323.848 249.613 328.717 244.744 334.723 244.744H346.807C352.813 244.744 357.682 249.613 357.682 255.62V255.62H323.848V255.62Z" fill="#6FA9FF"/>
</g>
</g>
<g id="Frame 410_2">
<g id="Frame 423_2">
<text id="2800" transform="translate(371.277 224.307)" fill="white" xml:space="preserve" style="white-space: pre" font-family="Roboto" font-size="8.15658" letter-spacing="0.05em"><tspan x="7.12946" y="10.2648">2800</tspan></text>
<path id="Rectangle 60_9" d="M371.277 250.182C371.277 244.176 376.146 239.307 382.153 239.307H394.237C400.243 239.307 405.112 244.176 405.112 250.182V255.62H371.277V250.182Z" fill="#CA9FF8"/>
</g>
<g id="Frame 424">
<text id="9700" transform="translate(405.111 212.071)" fill="white" xml:space="preserve" style="white-space: pre" font-family="Roboto" font-size="8.15658" letter-spacing="0.05em"><tspan x="7.12946" y="10.2648">9700</tspan></text>
<path id="Rectangle 60_10" d="M405.111 237.947C405.111 231.94 409.98 227.071 415.987 227.071H428.071C434.077 227.071 438.946 231.94 438.946 237.947V255.619H405.111V237.947Z" fill="#CA9FF8"/>
</g>
</g>
<g id="Frame 411">
<g id="Frame 424_2">
<text id="12200" transform="translate(452.541 207.992)" fill="white" xml:space="preserve" style="white-space: pre" font-family="Roboto" font-size="8.15658" letter-spacing="0.05em"><tspan x="4.6315" y="10.2648">12200</tspan></text>
<path id="Rectangle 60_11" d="M452.541 233.868C452.541 227.861 457.41 222.992 463.416 222.992H475.5C481.507 222.992 486.376 227.861 486.376 233.868V255.619H452.541V233.868Z" fill="#F99DB3"/>
</g>
<g id="Frame 425">
<text id="13300" transform="translate(486.375 199.836)" fill="white" xml:space="preserve" style="white-space: pre" font-family="Roboto" font-size="8.15658" letter-spacing="0.05em"><tspan x="4.6315" y="10.2648">13300</tspan></text>
<path id="Rectangle 60_12" d="M486.375 225.711C486.375 219.705 491.244 214.836 497.25 214.836H509.334C515.341 214.836 520.21 219.705 520.21 225.711V255.619H486.375V225.711Z" fill="#F99DB3"/>
</g>
</g>
<g id="Frame 412">
<g id="Frame 425_2">
<text id="22800" transform="translate(533.805 188.961)" fill="white" xml:space="preserve" style="white-space: pre" font-family="Roboto" font-size="8.15658" letter-spacing="0.05em"><tspan x="4.6315" y="10.2648">22800</tspan></text>
<path id="Rectangle 60_13" d="M533.805 214.836C533.805 208.83 538.674 203.961 544.68 203.961H556.764C562.77 203.961 567.639 208.83 567.639 214.836V255.619H533.805V214.836Z" fill="#FF7F48"/>
</g>
<g id="Frame 426">
<text id="49500" transform="translate(567.639 160.413)" fill="white" xml:space="preserve" style="white-space: pre" font-family="Roboto" font-size="8.15658" letter-spacing="0.05em"><tspan x="4.6315" y="10.2648">49500</tspan></text>
<path id="Rectangle 60_14" d="M567.639 186.289C567.639 180.282 572.508 175.413 578.514 175.413H590.598C596.604 175.413 601.473 180.282 601.473 186.289V255.619H567.639V186.289Z" fill="#FF7F48"/>
</g>
</g>
<g id="Frame 413">
<g id="Frame 426_2">
<text id="35800" transform="translate(615.068 190.32)" fill="white" xml:space="preserve" style="white-space: pre" font-family="Roboto" font-size="8.15658" letter-spacing="0.05em"><tspan x="4.6315" y="10.2648">35800</tspan></text>
<path id="Rectangle 60_15" d="M615.068 216.196C615.068 210.189 619.937 205.32 625.944 205.32H638.028C644.034 205.32 648.903 210.189 648.903 216.196V255.619H615.068V216.196Z" fill="#FF5348"/>
</g>
<g id="Frame 427">
<text id="105900" transform="translate(648.902 85.6445)" fill="white" xml:space="preserve" style="white-space: pre" font-family="Roboto" font-size="8.15658" letter-spacing="0.05em"><tspan x="0.216191" y="10.2648">105900</tspan></text>
<path id="Rectangle 60_16" d="M648.902 111.52C648.902 105.514 653.771 100.645 659.778 100.645H671.862C677.868 100.645 682.737 105.514 682.737 111.52V255.62H648.902V111.52Z" fill="#FF5348"/>
</g>
</g>
<g id="Frame 414">
<g id="Frame 427_2">
<text id="100000_2" transform="translate(696.332 104.676)" fill="white" xml:space="preserve" style="white-space: pre" font-family="Roboto" font-size="8.15658" letter-spacing="0.05em"><tspan x="0.216191" y="10.2648">100000</tspan></text>
<path id="Rectangle 60_17" d="M696.332 130.551C696.332 124.545 701.201 119.676 707.207 119.676H719.291C725.298 119.676 730.167 124.545 730.167 130.551V255.619H696.332V130.551Z" fill="#FF78D9"/>
</g>
<g id="Frame 428">
<text id="200000_2" transform="translate(730.166)" fill="white" xml:space="preserve" style="white-space: pre" font-family="Roboto" font-size="8.15658" letter-spacing="0.05em"><tspan x="0.216191" y="10.2648">200000</tspan></text>
<path id="Rectangle 60_18" d="M730.166 25.8754C730.166 19.8691 735.035 15 741.041 15H753.125C759.132 15 764.001 19.8691 764.001 25.8754V255.619H730.166V25.8754Z" fill="#FF78D9"/>
</g>
</g>
</g>
<rect id="Rectangle 58" x="46.2227" y="255.619" width="717.779" height="1.35943" rx="0.679715" fill="white"/>
</g>
<g id="Frame 417">
<text id="Neon T-shirt" transform="translate(43.957 299.897) rotate(-35)" fill="white" xml:space="preserve" style="white-space: pre" font-family="Roboto" font-size="8.15658" letter-spacing="0.05em"><tspan x="24.7773" y="10.2648">Neon&#10;</tspan><tspan x="22.5605" y="25.2185">T-shirt</tspan></text>
<text id="Tie Dye T-shirt" transform="translate(129.221 306.041) rotate(-35)" fill="white" xml:space="preserve" style="white-space: pre" font-family="Roboto" font-size="8.15658" letter-spacing="0.05em"><tspan x="6.65516" y="10.2648">Tie Dye T-shirt</tspan></text>
<text id="SloganT-shirt" transform="translate(210.182 306.041) rotate(-35)" fill="white" xml:space="preserve" style="white-space: pre" font-family="Roboto" font-size="8.15658" letter-spacing="0.05em"><tspan x="8.8353" y="10.2648">SloganT-shirt</tspan></text>
<text id="Brand T-shirt" transform="translate(286.842 299.897) rotate(-35)" fill="white" xml:space="preserve" style="white-space: pre" font-family="Roboto" font-size="8.15658" letter-spacing="0.05em"><tspan x="23.6095" y="10.2648">Brand&#10;</tspan><tspan x="22.5605" y="25.2185">T-shirt</tspan></text>
<text id="Anime T-shirt" transform="translate(367.803 299.897) rotate(-35)" fill="white" xml:space="preserve" style="white-space: pre" font-family="Roboto" font-size="8.15658" letter-spacing="0.05em"><tspan x="22.582" y="10.2648">Anime&#10;</tspan><tspan x="22.5605" y="25.2185">T-shirt</tspan></text>
<text id="Crop T-shirt" transform="translate(448.766 299.897) rotate(-35)" fill="white" xml:space="preserve" style="white-space: pre" font-family="Roboto" font-size="8.15658" letter-spacing="0.05em"><tspan x="25.8168" y="10.2648">Crop&#10;</tspan><tspan x="22.5605" y="25.2185">T-shirt</tspan></text>
<text id="Graphic T-shirt" transform="translate(529.727 299.897) rotate(-35)" fill="white" xml:space="preserve" style="white-space: pre" font-family="Roboto" font-size="8.15658" letter-spacing="0.05em"><tspan x="19.8562" y="10.2648">Graphic&#10;</tspan><tspan x="22.5605" y="25.2185">T-shirt</tspan></text>
<text id="Oversized T-shirt" transform="translate(610.688 299.897) rotate(-35)" fill="white" xml:space="preserve" style="white-space: pre" font-family="Roboto" font-size="8.15658" letter-spacing="0.05em"><tspan x="15.5573" y="10.2648">Oversized&#10;</tspan><tspan x="22.5605" y="25.2185">T-shirt</tspan></text>
<text id="Tank" transform="translate(695.951 306.041) rotate(-35)" fill="white" xml:space="preserve" style="white-space: pre" font-family="Roboto" font-size="8.15658" letter-spacing="0.05em"><tspan x="25.6853" y="10.2648">Tank</tspan></text>
</g>
</g>
</g>
</svg>
