<svg width="732" height="360" viewBox="0 0 732 360" fill="none" xmlns="http://www.w3.org/2000/svg">
<path d="M152.66 189.89C152.66 189.89 152.274 192.984 153.046 195.302C153.818 197.621 155.367 201.874 153.046 203.421C150.725 204.967 149.181 205.742 148.795 208.06C148.409 210.379 143.766 211.539 144.155 215.021C144.543 218.502 143.38 218.5 143.38 220.433C143.38 222.365 143.38 225.072 142.994 226.619C142.608 228.165 144.541 229.326 147.248 231.258C149.955 233.191 152.66 234.351 153.82 238.602C154.981 242.854 159.618 245.949 158.46 249.042C157.302 252.135 158.46 254.068 162.711 255.228C166.962 256.389 168.897 256 171.218 259.093C173.539 262.186 173.925 267.986 173.151 269.919C172.376 271.852 168.511 273.787 171.218 278.812C173.925 283.838 175.858 282.291 175.083 288.091C174.309 293.891 178.562 305.875 175.858 308.582C173.153 311.289 172.379 314.768 175.858 318.247C179.337 321.727 180.883 326.366 180.497 329.459C180.111 332.552 178.176 336.417 181.655 339.51C185.134 342.603 183.59 346.085 183.59 348.018C183.59 349.95 187.069 354.204 189.776 353.815C192.483 353.427 196.734 354.59 197.895 356.908C199.056 359.227 206.014 360.776 209.493 359.229C212.972 357.683 206.4 353.815 203.693 352.657C200.986 351.499 199.053 348.79 200.6 346.857C202.146 344.924 202.535 341.445 202.535 339.51C202.535 337.575 197.507 336.806 197.895 334.871C198.283 332.936 203.307 333.713 202.535 330.62C201.763 327.527 200.988 328.299 199.053 325.594C197.118 322.89 195.188 321.727 198.667 321.727C202.146 321.727 206.014 322.113 205.628 319.794C205.242 317.475 203.693 315.926 206.4 315.926C209.107 315.926 215.293 314.38 214.907 312.061C214.521 309.743 211.039 308.968 209.107 306.261C207.174 303.554 209.879 303.557 212.972 305.103C216.065 306.65 219.932 304.715 219.932 302.01C219.932 299.306 217.997 295.824 221.865 294.277C225.733 292.731 228.051 290.41 226.891 286.159C225.73 281.908 226.505 281.905 228.823 278.426C231.142 274.947 235.009 273.787 236.556 273.787C238.102 273.787 245.835 271.854 244.674 264.893C243.514 257.933 245.449 257.161 245.063 252.91C244.677 248.659 244.288 245.177 247.381 244.403C250.475 243.628 249.702 240.923 251.635 237.83C253.568 234.737 257.047 235.123 254.728 229.326C252.41 223.528 249.314 223.912 246.609 223.14C243.905 222.368 245.449 220.819 241.195 219.272C236.942 217.726 234.623 217.339 233.077 218.114C231.53 218.888 233.851 216.567 229.984 214.632C226.116 212.697 223.025 215.793 222.251 213.086C221.476 210.379 217.611 212.7 218.386 208.835C219.16 204.97 217.225 203.421 216.065 200.328C214.904 197.235 212.972 196.463 208.721 194.916C204.47 193.37 203.693 196.463 202.146 194.142C200.6 191.821 199.442 191.048 197.507 188.73C195.571 186.411 196.348 189.89 193.255 186.409C190.162 182.927 193.641 184.476 188.23 182.93C182.818 181.383 185.523 184.862 181.269 182.93C177.016 180.997 179.723 180.223 174.697 179.837C169.671 179.451 171.604 179.451 169.285 180.611C166.967 181.772 165.032 180.997 165.804 179.837C165.804 179.837 165.804 178.29 162.711 179.837C159.618 181.383 158.46 181.769 157.685 183.704C156.911 185.639 154.605 187.943 154.605 187.943C154.605 187.943 154.592 187.183 152.66 189.89Z" fill="#71B3DE"/>
<path d="M308.09 136.521C309.87 135.854 311.49 134.823 312.848 133.492C315.011 131.332 314.58 131.332 315.444 127.871C316.307 124.409 315.011 120.942 318.47 120.942C321.929 120.942 323.228 120.076 323.228 118.346C323.228 116.617 322.795 113.588 325.391 115.751C327.987 117.913 331.446 118.346 333.609 117.047C335.771 115.748 338.367 112.291 341.826 112.724C345.286 113.157 344.855 110.992 348.314 111.425C350.676 111.767 352.998 112.347 355.243 113.157C355.243 113.157 357.836 109.265 360.865 111.425C363.893 113.586 365.623 115.318 363.46 117.047C361.298 118.777 357.405 120.512 360.865 121.373C364.324 122.234 362.597 124.401 365.623 123.105C368.649 121.808 369.087 121.808 371.678 123.971C374.269 126.133 370.812 126.133 375.142 127.435C379.473 128.737 383.36 132.193 383.803 129.598C384.246 127.002 381.207 122.246 385.099 122.669C388.992 123.092 390.296 122.669 391.587 125.262C392.879 127.856 395.913 126.995 398.075 126.562C400.238 126.129 401.54 127.425 403.272 128.294C405.004 129.162 405.868 126.131 410.2 126.562C414.533 126.992 414.526 127.858 416.255 130.887C417.985 133.916 416.255 139.105 414.959 138.238C413.662 137.372 417.554 140.401 418.423 142.564C419.291 144.726 420.586 146.456 419.289 149.052C417.992 151.647 422.315 151.214 423.181 153.377C424.047 155.54 424.913 160.306 424.913 160.306C424.913 160.306 428.806 163.332 429.672 166.361C430.538 169.389 432.265 170.686 433.997 172.416C435.729 174.145 437.023 174.578 437.889 177.612C438.755 180.646 440.052 181.076 440.052 182.37C440.052 183.664 444.377 183.667 447.837 182.37C451.296 181.074 454.325 181.937 456.054 180.638C457.784 179.339 458.65 183.231 456.487 187.126C454.325 191.021 452.595 195.787 450.863 198.37C449.131 200.953 443.078 207.887 440.47 209.616C437.862 211.346 436.578 214.372 434.848 216.545C433.119 218.717 431.822 221.741 430.523 224.332C429.224 226.923 428.791 230.82 430.09 230.82C431.389 230.82 431.822 235.576 431.822 237.305C431.822 239.035 432.253 241.631 432.686 244.659C433.119 247.688 434.418 250.281 432.253 253.32C430.087 256.359 427.056 260.672 425.324 260.672C423.592 260.672 420.566 263.267 419.269 265.43C417.973 267.593 418.403 269.322 419.269 271.918C420.135 274.514 419.7 277.973 417.97 278.406C416.24 278.839 411.042 280.138 411.915 281.87C412.789 283.602 411.482 285.334 410.183 287.925C408.884 290.516 406.291 293.122 404.128 295.71C401.965 298.298 400.236 300.906 397.64 301.765C395.044 302.623 392.018 303.064 388.979 303.497C385.941 303.93 385.953 307.822 382.491 305.229C379.03 302.636 377.736 301.765 378.599 299.174C379.463 296.583 377.736 294.416 375.573 291.82C373.41 289.224 370.815 287.062 370.815 282.306C370.815 277.55 371.681 273.222 369.951 271.925C368.221 270.629 366.487 265.437 365.193 261.976C363.898 258.514 363.893 257.22 365.193 250.732C366.492 244.244 370.389 244.244 368.219 241.215C366.049 238.186 365.193 234.287 366.487 232.134C367.781 229.981 364.755 225.205 362.594 222.187C360.434 219.168 355.243 217.861 356.972 213.526C358.702 209.191 360.865 208.768 359.568 205.308C358.272 201.849 359.999 200.55 356.104 200.55C352.209 200.55 350.482 201.416 348.752 199.253C347.023 197.091 347.02 194.495 343.128 194.057C339.236 193.619 336.642 195.789 334.91 197.521C333.178 199.253 328.855 199.253 326.25 198.385C323.644 197.516 321.924 198.385 318.896 199.684C315.867 200.983 313.699 197.952 310.678 194.488C307.657 191.023 305.92 191.023 304.623 188C303.326 184.976 302.027 180.648 298.568 178.918C295.109 177.189 294.243 171.99 296.405 169.835C298.568 167.679 298.568 162.906 298.137 160.32C297.707 157.735 294.245 156.856 296.841 154.263C299.437 151.67 300.733 149.94 300.305 147.335C299.877 144.729 300.305 142.576 302.901 141.28C305.496 139.983 305.497 135.655 308.09 136.521Z" fill="#F0B547"/>
<path d="M679.658 38.9872C679.26 37.9975 677.666 36.399 675.875 35.8026C674.083 35.2063 671.097 35.0059 671.097 35.6022C671.097 36.1985 668.113 35.6022 668.113 35.6022C668.113 35.6022 665.524 34.4095 664.131 33.8107C662.738 33.2119 660.15 33.4148 657.759 32.2196C655.369 31.0245 651.987 30.4281 649.594 30.0297C647.201 29.6314 645.214 29.4334 643.024 29.04C640.834 28.6465 636.853 29.2379 635.262 29.04C633.671 28.842 632.275 28.0502 632.871 29.2379C633.468 30.4257 635.262 30.2277 636.455 31.0294C637.647 31.8311 635.66 32.8209 634.663 32.2246C633.666 31.6282 633.072 29.8343 631.877 29.8343C630.682 29.8343 629.289 30.0347 627.895 30.0347C626.502 30.0347 617.545 30.4331 616.946 29.6363C616.347 28.8395 615.553 27.4464 614.16 26.8501C612.767 26.2537 610.178 26.6496 608.387 26.4517C606.595 26.2537 603.411 27.8448 601.817 27.8448C600.224 27.8448 599.627 26.2513 597.638 25.8652C595.648 25.4792 594.852 26.0632 594.055 25.0685C593.258 24.0737 591.667 23.8733 589.675 23.4749C587.683 23.0765 585.694 23.0765 584.699 23.6754C583.704 24.2742 582.509 23.6754 580.121 23.277C577.733 22.8786 576.338 22.6782 574.945 23.6754C573.552 24.6726 575.741 26.6595 573.955 26.6595C572.168 26.6595 571.166 26.6595 569.773 26.0632C568.38 25.4669 566.391 26.6595 565.195 26.0632C564 25.4669 564.599 27.6567 563.404 27.2584C562.209 26.86 557.233 25.4669 556.834 24.4697C556.436 23.4725 554.644 22.4901 553.251 21.6834C551.858 20.8768 551.272 21.285 549.47 21.285C547.669 21.285 547.28 21.6834 545.885 20.8867C544.489 20.0899 543.497 20.6887 544.692 22.0818C545.887 23.4749 543.099 22.8786 541.903 22.8786C540.708 22.8786 537.326 23.4749 537.128 22.6782C536.93 21.8814 538.521 21.6884 534.339 21.6884C530.157 21.6884 528.17 21.4904 527.571 21.092C526.973 20.6937 526.178 19.4985 524.785 19.8969C523.392 20.2953 521.601 20.0973 520.804 21.29C520.007 22.4827 516.624 23.4799 517.221 22.4852C517.817 21.4904 519.012 19.3005 521.4 18.9022C523.788 18.5038 524.785 17.509 522.793 16.3139C520.801 15.1187 520.007 14.5224 516.226 14.5224C512.445 14.5224 509.656 14.5224 508.06 13.7256C506.464 12.9288 504.079 12.7358 502.287 13.7256C500.496 14.7154 497.908 15.9155 497.113 15.7175C496.319 15.5196 491.937 17.1107 489.747 16.7073C487.557 16.304 486.961 16.5069 484.57 17.6971C482.18 18.8873 482.591 19.887 483.776 20.0874C484.961 20.2878 480.987 21.8789 479.795 21.2801C478.602 20.6813 476.808 21.0821 475.415 21.4805C474.022 21.8789 476.011 23.8684 477.006 23.8684C478.001 23.8684 472.827 24.0663 471.832 24.2668C470.837 24.4672 470.637 26.4566 469.642 25.6599C468.647 24.8631 468.447 22.4753 467.252 23.8684C466.057 25.2615 466.059 25.4619 467.054 26.4566C468.049 27.4514 468.044 27.4464 468.447 29.0449C468.85 30.6434 468.645 30.8364 470.041 31.4328C471.436 32.0291 471.832 31.4328 471.632 33.6226C471.431 35.8125 472.428 36.6093 470.041 36.6093C467.653 36.6093 466.059 36.4089 466.059 35.4141C466.059 34.4194 470.835 34.219 469.442 32.8259C468.049 31.4328 466.059 29.4433 465.859 27.8498C465.658 26.2562 463.471 26.4566 463.27 24.6651C463.07 22.8736 461.877 22.4753 459.888 22.4753C457.898 22.4753 457.908 22.6732 456.104 24.2668C454.301 25.8603 454.912 27.6518 455.906 28.2481C456.901 28.8445 457.3 29.4433 458.495 30.2277C459.69 31.0121 462.078 32.618 460.286 32.618C458.495 32.618 455.308 31.8212 453.516 30.6261C451.725 29.4309 450.134 28.8346 447.944 29.233C445.754 29.6314 443.366 27.4415 444.16 29.6314C444.955 31.8212 446.551 33.6127 444.957 33.0164C443.363 32.4201 442.569 31.4229 440.577 32.0266C438.585 32.6304 439.587 33.8181 436.796 33.4222C434.005 33.0263 436.796 30.6335 433.612 31.8287C430.427 33.0238 431.023 34.0186 428.834 34.0186C426.644 34.0186 426.443 34.4169 424.852 36.4064C423.261 38.3959 422.264 35.4166 422.264 35.4166C422.264 35.4166 424.852 34.4268 423.459 33.2267C422.066 32.0266 419.478 30.6385 419.079 32.2369C418.681 33.8354 417.486 34.4268 418.879 35.2236C420.272 36.0204 420.67 37.6115 419.478 37.4135C418.285 37.2155 416.689 36.2183 415.895 37.4135C415.1 38.6087 413.106 38.0098 414.103 39.8013C415.1 41.5928 413.504 41.5928 412.312 41.1945C411.119 40.7961 408.927 39.2149 408.729 40.3977C408.531 41.5805 409.325 40.9965 410.122 42.1892C410.919 43.3819 408.729 43.9807 407.731 43.179C406.734 42.3772 405.752 42.1892 404.945 40.9891C404.139 39.789 405.542 38.2004 404.349 38.2004C403.156 38.2004 400.964 36.8073 401.761 36.6093C402.557 36.4113 404.349 36.4089 405.542 37.2056C406.734 38.0024 409.125 38.1954 409.723 37.604C410.322 37.0126 410.52 38.0024 412.312 37.2056C414.103 36.4089 415.496 36.0105 414.291 34.8178C413.084 33.6651 411.558 32.9021 409.911 32.6279C408.518 32.4275 407.524 31.2348 405.732 30.636C403.941 30.0372 402.347 29.6462 401.154 29.6462C400.016 29.6462 398.519 30.5444 397.69 29.7724C396.948 30.1485 396.205 30.4405 395.626 30.4405C393.976 30.4405 390.43 31.1482 391.853 32.5611C393.276 33.974 395.391 34.6842 394.684 36.0996C393.976 37.5149 393.976 38.6953 395.156 39.8731C396.337 41.0509 396.807 41.5236 396.807 43.174C396.807 44.8245 398.695 44.5894 398.93 45.7697C399.165 46.95 397.987 49.0706 396.807 49.3082C395.626 49.5457 394.699 50.241 393.983 51.5352C394.706 52.7996 394.28 53.4083 393.154 53.9552C392.855 55.3755 392.808 56.9542 393.506 57.7906C394.684 59.2059 394.921 60.3838 394.921 61.5641C394.921 62.7444 396.334 62.7419 398.222 62.9795C400.11 63.217 400.58 63.9222 401.288 65.1001C401.996 66.2779 404.826 67.4607 404.119 68.4035C403.411 69.3462 400.345 69.8189 401.761 71.2318C403.176 72.6447 405.062 72.4121 406.957 71.9395C408.852 71.4668 409.318 73.1198 409.788 74.0625C410.258 75.0053 409.788 76.8933 412.618 76.6582C415.449 76.4232 416.862 77.601 418.278 78.5438C419.693 79.4865 421.343 78.7912 421.343 80.6668C421.308 81.8636 420.896 83.0187 420.166 83.9677C420.166 83.9677 421.343 86.3259 419.918 87.7413C418.493 89.1567 417.557 88.2139 417.557 90.337C417.557 92.46 418.03 91.5148 420.388 92.4576C422.746 93.4003 423.454 94.3456 425.105 95.996C426.755 97.6465 428.643 97.6465 427.935 99.2994C427.228 100.952 427.228 102.365 424.634 102.128C422.041 101.89 421.096 102.128 418.973 101.658C416.85 101.187 416.145 100.242 414.257 99.7696C412.369 99.2969 408.598 98.8268 407.182 99.5221C405.767 100.217 404.586 100.23 402.701 100.465C400.815 100.7 400.954 100.571 398.927 100.465C396.391 100.331 395.29 100.878 394.6 102.105C394.729 102.27 394.793 102.476 394.778 102.684C394.778 104.078 396.968 104.872 396.757 106.465C396.547 108.059 397.747 108.853 396.955 109.65C396.163 110.447 397.156 112.637 398.348 112.439C399.541 112.241 399.741 111.642 400.937 112.637C402.132 113.631 403.324 115.225 404.52 114.616C405.715 114.008 404.52 112.637 406.113 112.825C407.707 113.013 408.701 114.22 410.691 114.616C412.68 115.012 414.076 115.015 414.474 114.02C414.873 113.025 416.454 112.429 416.862 114.22C417.27 116.012 417.659 116.806 417.659 118.001C417.659 119.196 416.464 119.595 416.065 120.788C415.667 121.98 416.862 124.173 415.469 125.167C414.076 126.162 413.279 126.56 413.279 127.159C413.279 127.758 411.488 127.357 413.079 128.951C414.67 130.544 415.867 130.93 415.867 132.333C415.867 133.736 415.469 135.122 416.065 135.718C416.662 136.315 418.852 138.307 419.849 139.499C420.846 140.692 419.25 141.479 421.242 142.884C423.234 144.29 421.44 145.871 423.033 146.668C424.627 147.465 426.416 148.858 426.616 150.251C426.817 151.644 427.213 154.232 426.616 154.631C426.02 155.029 427.015 155.425 428.208 156.222C429.4 157.018 430.397 157.417 430.598 159.008C430.798 160.599 430.397 159.805 431.793 161.797C433.189 163.788 433.773 164.184 434.579 164.981C435.386 165.778 435.774 165.577 435.569 166.773C435.364 167.968 436.559 167.968 436.559 168.564C436.559 169.16 435.962 171.152 436.957 172.345C437.952 173.538 438.152 174.325 438.152 175.73C438.152 177.136 439.944 177.722 441.337 176.925C442.73 176.129 443.925 174.735 445.318 175.134C446.711 175.532 448.901 174.144 448.901 174.144C448.901 174.144 453.479 171.358 455.471 171.558C457.463 171.759 459.252 171.558 459.054 169.965C458.856 168.371 459.252 166.978 461.034 166.978C462.815 166.978 465.812 166.78 465.614 165.585C465.416 164.39 466.41 162.997 467.405 163.197C468.4 163.397 468.598 160.609 469.993 160.609C471.389 160.609 469.793 159.015 471.973 157.026C474.153 155.036 475.158 153.841 475.358 152.448C475.559 151.055 475.358 148.467 474.163 149.063C472.968 149.659 469.783 147.469 468.986 146.873C468.19 146.277 467.195 145.48 467.395 143.488C467.596 141.496 468.192 141.1 466.797 140.902C465.401 140.704 463.812 140.303 464.211 141.697C464.609 143.09 464.211 143.676 463.414 144.683C462.617 145.69 460.229 145.48 459.631 146.873C459.032 148.266 456.646 147.074 456.048 146.277C455.449 145.48 456.047 144.087 455.649 143.092C455.251 142.097 454.058 140.303 453.261 140.504C452.465 140.704 450.077 140.106 450.475 138.712C450.873 137.319 449.485 138.114 448.496 136.322C447.506 134.531 445.509 132.94 446.704 131.942C447.899 130.945 449.094 130.549 449.49 131.942C449.886 133.335 450.928 132.888 451.881 133.734C453.672 135.327 452.87 136.921 455.065 137.119C457.26 137.317 457.453 136.921 457.851 138.712C458.25 140.504 459.445 141.1 460.838 140.504C462.231 139.908 462.033 140.106 462.63 140.902C463.226 141.699 464.421 140.106 465.616 139.507C466.811 138.908 467.207 139.111 467.408 139.905C467.608 140.699 468.204 142.493 469.387 142.694C470.57 142.894 473.369 142.095 473.967 143.488C474.566 144.881 476.157 145.082 477.748 144.285C479.339 143.488 481.532 142.892 482.725 143.689C483.917 144.485 484.914 145.28 486.11 144.087C487.305 142.894 487.305 142.694 488.497 143.29C489.69 143.886 490.687 143.488 491.286 144.884C491.885 146.279 493.078 148.266 494.869 149.063C496.661 149.86 498.252 148.865 498.851 150.053C499.449 151.241 499.048 152.243 497.655 152.032C496.262 151.822 498.452 152.829 499.635 154.621C500.818 156.412 501.228 156.014 502.424 155.217C503.619 154.42 503.02 152.032 504.403 152.431C505.786 152.829 506.383 155.017 505.796 156.808C505.21 158.6 504.403 159.795 505.997 161.388C507.59 162.982 506.395 167.161 507.588 168.752C508.78 170.343 510.775 172.137 511.371 173.53C511.968 174.923 512.764 175.322 512.962 177.512C513.16 179.702 513.561 181.493 514.954 182.886C516.347 184.279 515.944 183.485 516.347 185.873C516.751 188.261 518.735 191.844 519.93 190.052C521.125 188.261 520.727 185.076 522.321 185.277C523.914 185.477 524.708 183.881 524.906 182.089C525.104 180.298 524.508 178.309 525.305 176.715C526.102 175.121 525.107 174.735 524.906 172.734C524.706 170.732 522.927 168.953 525.305 168.953C527.683 168.953 528.888 169.151 529.885 166.763C530.882 164.375 531.865 162.781 533.07 162.185C534.275 161.589 534.861 159.198 536.254 158.998C537.647 158.798 539.04 158.008 538.842 156.808C538.645 155.608 539.04 153.425 540.236 153.425C541.431 153.425 544.615 154.022 545.014 153.225C545.412 152.428 547.204 154.42 548.795 153.425C550.386 152.431 549.785 156.61 551.185 156.808C552.586 157.006 553.971 157.206 554.169 158.402C554.367 159.597 554.768 160.99 555.763 161.388C556.758 161.787 556.958 162.185 556.753 163.776C556.547 165.367 556.354 166.562 556.753 168.156C557.151 169.749 556.953 168.953 558.732 169.351C560.511 169.749 560.922 167.757 561.917 167.161C562.911 166.565 563.896 166.562 564.305 168.151C564.713 169.74 566.096 174.322 567.489 174.919C568.882 175.515 567.888 175.517 568.286 177.108C568.684 178.699 570.278 177.309 570.278 178.502C570.278 179.694 569.481 182.285 568.684 183.082C567.888 183.878 568.088 186.066 568.088 186.665C568.088 187.264 566.695 187.857 568.286 189.849C569.877 191.841 569.679 190.446 570.278 191.242C570.877 192.039 572.257 194.229 573.064 194.229C573.871 194.229 573.463 197.414 573.463 198.807C573.463 200.2 574.059 200.598 574.856 202.39C575.652 204.181 574.457 204.369 576.647 205.376C578.837 206.384 579.235 206.572 580.428 207.965C581.621 209.358 582.818 210.553 582.818 210.553C582.818 210.553 585.008 208.363 583.615 206.77C582.222 205.176 581.027 204.382 581.225 203.187C581.423 201.991 581.824 199.802 581.027 198.609C580.23 197.416 579.832 194.825 578.637 194.825C577.441 194.825 576.051 193.63 575.452 193.432C574.853 193.234 571.671 192.443 572.864 191.242C574.056 190.042 572.864 189.053 572.267 188.456C571.671 187.86 572.666 185.071 570.288 186.477C570.288 186.477 570.486 184.287 571.278 182.696C572.069 181.105 572.671 180.107 572.267 179.113C571.864 178.118 570.874 176.524 572.267 176.126C573.66 175.728 573.064 178.714 574.059 178.912C575.054 179.11 576.647 178.514 577.046 179.511C577.444 180.508 578.439 182.696 579.025 182.495C579.612 182.295 580.015 182.894 580.817 183.485C581.618 184.076 582.41 183.087 583.006 183.087C583.603 183.087 583.803 185.873 583.405 186.67C583.006 187.466 583.405 189.456 584.202 188.649C584.998 187.843 585.993 186.261 586.988 186.261C587.983 186.261 588.381 184.47 588.183 183.871C587.985 183.272 589.173 182.08 589.576 183.077C589.979 184.074 589.777 183.077 591.368 182.478C592.959 181.879 593.347 180.686 593.347 178.697C593.347 176.708 594.938 174.515 593.347 173.122C591.756 171.729 591.157 170.932 590.558 169.937C589.96 168.943 590.16 165.558 587.97 165.558C585.78 165.558 584.786 164.365 584.786 163.578C584.786 162.791 583.195 162.185 582.994 160.591C582.794 158.998 583.984 157.206 584.588 156.014C585.191 154.821 585.981 153.623 586.975 154.034C587.97 154.445 590.361 153.636 590.361 153.636C590.361 153.636 591.556 154.626 591.157 155.427C590.759 156.229 592.949 158.216 593.137 156.82C593.325 155.425 592.34 154.034 593.934 153.836C595.527 153.638 596.522 152.443 597.915 152.641C599.308 152.839 600.902 151.844 602.295 151.651C603.688 151.458 606.873 149.672 607.669 148.865C608.466 148.058 612.049 145.678 611.651 144.683C611.252 143.689 611.252 142.295 612.049 141.301C612.846 140.306 614.029 136.124 614.239 134.333C614.449 132.541 615.229 131.546 614.239 131.346C613.249 131.146 610.057 131.744 611.252 130.75C612.447 129.755 613.044 128.161 612.846 128.359C612.648 128.557 612.049 125.971 610.854 124.977C609.659 123.982 608.664 122.188 608.266 121.394C607.867 120.599 608.068 119.414 606.474 118.605C604.881 117.796 603.487 118.009 604.683 116.415C605.878 114.822 605.279 113.629 607.271 112.832C609.263 112.035 608.261 110.853 607.271 111.041C606.281 111.229 606.675 112.436 605.081 110.843C603.487 109.249 603.29 109.648 603.101 111.241C602.913 112.835 601.11 111.837 600.912 110.843C600.714 109.848 599.716 108.653 598.521 108.863C597.326 109.073 595.735 107.272 597.531 107.072C599.328 106.871 598.727 104.684 600.318 104.684C601.909 104.684 599.919 103.09 601.911 102.892C603.903 102.694 604.898 103.291 604.499 104.285C604.101 105.28 603.703 106.676 605.294 107.272C606.885 107.868 606.489 106.282 607.273 105.679C608.058 105.075 608.469 104.882 610.06 105.28C611.651 105.679 613.445 105.879 612.848 107.67C612.252 109.462 612.45 109.65 613.838 109.65C615.226 109.65 616.822 109.85 617.023 111.442C617.223 113.033 618.012 113.832 618.616 114.23C619.22 114.629 620.408 116.022 620.207 117.613C620.007 119.204 622.199 118.011 623.79 117.613C625.381 117.214 626.975 116.816 626.577 115.821C626.178 114.827 624.597 114.832 624.597 113.433C624.597 112.035 626.388 110.447 624.597 109.85C622.805 109.254 621.212 109.65 620.616 109.252C620.019 108.853 617.431 107.062 617.829 106.465C618.228 105.869 616.236 105.27 618.228 104.486C620.22 103.701 620.616 102.296 619.819 101.697C619.022 101.098 618.027 99.5073 619.621 98.713C621.214 97.9187 620.611 95.7263 622.009 96.5231C623.407 97.3199 624.995 98.1142 626.19 96.9215C627.386 95.7288 626.388 94.5312 627.782 92.3413C629.175 90.1514 629.971 87.5631 629.573 86.17C629.175 84.7769 630.966 82.1886 629.774 80.7955C628.581 79.4024 627.982 78.4077 626.985 76.8141C625.988 75.2206 625.792 73.6295 625.592 72.6348C625.391 71.64 622.805 69.6481 621.61 68.6534C620.415 67.6587 617.829 65.8672 617.231 67.6636C616.632 69.4601 616.634 69.2547 615.439 68.8563C614.244 68.4579 613.459 67.4632 613.459 66.8767C613.459 66.2903 611.27 64.4864 610.074 65.0852C608.879 65.6841 607.288 63.2937 608.681 62.497C610.074 61.7002 611.468 61.1039 611.069 59.3124C610.671 57.5209 611.27 55.1305 612.663 54.7346C614.056 54.3387 617.839 53.7448 619.839 54.3362C621.838 54.9276 623.023 55.326 623.622 54.7346C624.221 54.1432 624.419 52.7551 625.812 53.1411C627.205 53.5271 628.2 54.5342 630.588 54.5342C632.975 54.5342 635.168 54.1358 634.171 52.9407C633.173 51.7455 632.379 50.7532 633.181 50.3549C633.983 49.9565 632.782 48.165 634.171 48.165C635.559 48.165 637.556 47.1752 638.55 47.9645C639.545 48.7539 639.347 49.3577 640.342 50.1544C641.337 50.9512 641.737 51.9459 642.732 50.7532C643.727 49.5606 644.922 49.1597 643.925 48.165C642.928 47.1702 643.131 45.7747 644.125 46.3735C645.12 46.9723 645.115 48.7613 646.315 49.1597C647.515 49.5581 648.107 50.9512 647.305 51.748C646.503 52.5447 646.11 53.7275 646.11 55.331C646.11 56.9344 645.513 57.5209 644.917 57.7188C644.321 57.9168 644.12 59.5103 644.917 60.1091C645.714 60.7079 646.508 62.6949 647.305 64.2885C648.102 65.882 649.285 66.8767 651.286 68.0719C652.894 69.0729 654.366 70.2772 655.666 71.6549C656.656 72.6447 657.257 75.0375 658.851 74.4411C660.444 73.8448 659.447 71.8529 659.841 70.8581C660.234 69.8634 658.851 68.6682 659.046 67.6735C659.242 66.6788 660.838 66.2804 660.637 65.4836C660.437 64.6868 656.856 63.6921 658.249 62.497C659.643 61.3018 658.447 60.3071 657.26 60.1091C656.072 59.9112 655.669 57.5209 654.872 57.7188C654.075 57.9168 652.086 57.3204 652.086 56.729C652.086 56.1376 653.281 55.1355 651.885 54.5391C650.49 53.9428 650.492 52.3493 651.687 52.7476C652.882 53.146 653.877 51.7579 654.473 51.7579C655.07 51.7579 654.872 52.7476 656.067 52.3542C657.262 51.9608 657.46 50.5627 658.455 50.7631C659.45 50.9636 658.853 52.3542 660.048 52.3542C661.244 52.3542 662.238 52.3542 662.637 52.9505C663.035 53.5469 662.238 51.159 663.431 50.3647C664.624 49.5705 666.019 48.7712 666.22 47.9744C666.42 47.1777 667.209 46.1829 668.199 46.5813C669.189 46.9797 671.186 45.985 671.186 45.985C670.131 45.2556 669.039 44.5808 667.915 43.9634C666.324 43.1691 665.935 41.9838 664.532 41.7735C663.129 41.5631 666.512 40.7837 666.123 39.982C665.735 39.1802 663.136 39.1877 663.337 38.0024C663.537 36.8171 665.128 37.604 665.725 38.2004C666.321 38.7967 667.118 39.9919 668.711 39.7939C670.305 39.596 672.096 39.1976 672.294 39.9919C672.492 40.7862 675.081 42.1818 676.078 41.5854C677.075 40.9891 678.057 41.187 679.46 41.385C680.863 41.5829 680.057 39.982 679.658 38.9872Z" fill="#BCDE55"/>
<path d="M637.887 88.6087C637.887 88.6087 636.328 86.9187 636.328 85.7507C636.328 84.5828 635.548 83.541 634.249 82.1133C632.95 80.6855 633.079 80.8142 631.527 78.4758C629.976 76.1375 631.918 77.0456 629.449 75.4867C626.979 73.9278 626.974 74.8359 626.331 73.1484C625.688 71.4608 625.811 70.81 625.423 70.0306C625.034 69.2511 623.342 68.6003 624.124 68.2118C624.906 67.8234 626.331 68.4593 627.11 69.3798C627.89 70.3003 629.585 71.3296 630.359 72.7574C631.134 74.1852 632.178 74.9671 633.346 75.8752C634.514 76.7833 634.645 76.6547 635.427 77.9562C636.209 79.2578 638.414 80.1634 637.902 80.5544C637.389 80.9454 636.993 80.1634 635.954 80.0348C634.915 79.9061 634.912 80.5544 635.563 81.5937C636.214 82.6329 636.734 83.1526 637.382 84.1918C638.03 85.2311 639.592 85.6196 639.332 86.5302C639.072 87.4408 639.973 90.42 637.887 88.6087Z" fill="#BCDE55"/>
<path d="M641.145 95.6201C641.145 95.6201 640.235 95.1005 640.626 94.321C641.017 93.5416 640.626 93.6727 639.975 92.3736C639.324 91.0746 638.547 89.6517 639.455 90.0353C640.363 90.4188 641.014 90.6836 641.93 91.5942C642.845 92.5048 643.098 93.2818 644.404 93.2818C645.711 93.2818 646.485 93.2818 647.653 93.9325C648.821 94.5833 649.083 94.18 649.472 95.3603C649.86 96.5406 648.952 96.5307 648.304 96.9192C647.656 97.3077 647.525 97.0504 647.653 97.9585C647.782 98.8666 647.913 100.168 646.485 99.1289C645.057 98.0896 643.516 97.1196 643.236 97.6987C642.717 98.7379 642.717 98.3494 643.496 99.3887C644.276 100.428 645.184 101.079 644.795 101.598C644.407 102.118 645.834 103.026 646.745 103.546C647.656 104.065 648.433 103.937 648.692 105.496C648.952 107.055 648.824 108.613 649.343 109.913C649.863 111.212 650.123 111.991 650.123 113.03C650.123 114.07 650.771 112.902 650.771 114.849C650.771 116.796 651.55 117.187 650.251 117.707C648.952 118.227 647.913 118.227 647.005 118.486C646.097 118.746 645.315 118.877 644.924 119.657C644.533 120.436 644.276 121.344 642.845 121.216C641.415 121.087 640.898 120.956 640.767 120.436C640.636 119.917 639.859 119.137 638.688 119.006C637.518 118.875 637.261 118.618 636.481 119.266C635.851 119.83 635.092 120.232 634.271 120.436C633.361 120.684 631.673 120.305 631.673 121.085C631.673 121.864 632.453 122.255 633.232 122.255C634.012 122.255 634.66 122.775 634.66 123.945C634.66 125.116 634.4 123.945 634.4 125.893C634.4 127.84 634.791 128.491 633.752 128.614C632.712 128.738 631.154 127.444 631.277 126.405C631.401 125.365 632.836 124.326 631.537 123.93C630.238 123.534 628.815 124.319 629.459 123.02C630.102 121.721 631.537 121.461 631.408 119.771C631.28 118.081 632.708 118.731 632.967 117.823C633.227 116.915 633.227 115.873 634.135 116.133C635.043 116.393 636.857 117.044 637.124 116.005C637.392 114.965 638.555 115.614 639.334 115.225C640.114 114.837 640.502 113.795 640.502 113.275C640.502 112.756 639.594 112.367 640.502 111.848C641.41 111.328 641.672 112.107 641.672 112.756C641.672 113.404 642.321 111.716 643.36 111.325C644.399 110.934 644.53 110.937 644.659 109.378C644.788 107.819 645.698 106.389 644.79 106.26C643.882 106.132 644.011 106.129 643.231 104.701C642.452 103.274 641.672 102.623 642.321 101.712C642.969 100.802 643.491 99.3738 642.972 99.6337C642.452 99.8935 641.541 100.933 641.022 100.153C640.502 99.3739 639.074 99.3739 639.203 97.9436C639.332 96.5134 639.45 95.6053 640.114 95.6053H641.153L641.145 95.6201Z" fill="#BCDE55"/>
<path d="M635.818 123.302C635.818 123.302 634.388 122.263 634.779 121.743C635.17 121.224 636.209 120.573 636.209 120.573C636.209 120.573 637.117 119.145 637.896 119.665C638.676 120.184 639.975 120.313 639.455 121.092C638.936 121.872 637.377 121.743 637.117 122.391C636.857 123.04 636.597 123.562 635.818 123.302Z" fill="#BCDE55"/>
<path d="M621.919 178.387C621.528 178.387 620.229 178.14 620.1 177.219C619.971 176.299 618.93 176.049 619.709 175.529C620.488 175.009 619.061 174.75 619.709 173.97C620.357 173.191 621.008 172.283 619.84 172.151C618.672 172.02 617.631 172.151 617.631 170.464C617.631 168.776 618.801 168.645 618.15 167.742C617.499 166.839 618.021 165.268 617.762 164.233C617.502 163.199 616.851 161.635 618.281 161.895C619.711 162.155 619.84 162.805 621.139 163.585C622.438 164.364 623.614 163.973 623.218 165.663C622.822 167.354 622.567 167.351 622.179 168.912C621.79 170.474 621.528 170.34 622.047 171.387C622.567 172.434 622.438 172.426 622.438 173.206C622.455 173.777 622.538 174.344 622.686 174.896C622.686 174.896 623.594 172.946 624.636 173.337C625.677 173.728 625.284 175.155 626.454 174.896C627.625 174.636 628.533 174.505 628.013 175.544C627.494 176.583 627.103 177.754 625.935 177.363C624.767 176.972 624.116 175.544 624.116 175.544C624.116 175.544 622.426 175.284 622.686 176.583C622.946 177.882 622.698 178.387 621.919 178.387Z" fill="#BCDE55"/>
<path d="M631.401 181.767C631.401 181.767 630.102 181.117 630.102 180.337C630.102 179.558 628.412 179.429 628.672 178.778C628.932 178.128 628.932 178.128 629.842 177.999C630.753 177.87 631.01 178.259 631.401 179.038C631.792 179.818 631.921 179.558 632.18 180.857C632.44 182.156 632.693 182.027 631.401 181.767Z" fill="#BCDE55"/>
<path d="M632.179 186.183C632.179 186.183 632.439 188.131 631.659 187.871C630.88 187.611 630.229 188.002 630.1 188.65C629.972 189.299 628.541 189.821 628.41 189.301C628.279 188.781 627.111 188.262 626.723 189.041C626.334 189.821 625.293 190.08 624.773 190.34C624.253 190.6 623.474 191.12 624.125 192.159C624.775 193.198 623.993 194.369 624.773 194.238C625.552 194.106 625.033 190.731 625.943 191.12C626.854 191.508 627.371 191.899 628.15 191.367C628.93 190.835 629.841 191.238 629.709 192.147C629.578 193.055 628.41 194.225 629.321 194.869C630.231 195.512 631.009 194.869 631.399 195.908C631.79 196.947 632.308 197.467 632.958 196.687C633.609 195.908 633.218 194.478 632.827 193.829C632.436 193.181 632.958 191.491 633.478 192.139C633.998 192.787 634.257 194.478 634.517 193.829C634.777 193.181 635.557 191.62 635.297 190.58C635.037 189.541 635.428 188.502 634.646 188.371C633.864 188.239 633.738 185.404 632.179 186.183Z" fill="#BCDE55"/>
<path d="M631.528 184.492C631.528 184.492 630.1 184.364 630.229 183.453C630.357 182.542 628.801 182.154 629.189 181.506C629.578 180.857 630.748 181.894 631.139 182.414C631.53 182.933 632.691 183.973 631.528 184.492Z" fill="#BCDE55"/>
<path d="M628.801 186.701C628.333 186.654 627.37 185.531 628.15 185.143C628.929 184.754 629.449 183.843 629.969 184.895C630.488 185.947 630.1 186.83 628.801 186.701Z" fill="#BCDE55"/>
<path d="M626.076 187.612C626.076 187.612 623.478 186.184 624.389 185.533C625.299 184.882 625.428 184.365 625.817 183.454C626.205 182.544 626.336 181.247 627.116 182.415C627.895 183.583 626.987 184.89 626.987 185.533C626.987 186.176 627.766 187.871 626.076 187.612Z" fill="#BCDE55"/>
<path d="M623.997 183.195C623.997 183.195 622.958 180.72 623.997 180.473C625.036 180.226 625.687 180.226 625.947 180.993C626.207 181.76 624.777 183.462 623.997 183.195Z" fill="#BCDE55"/>
<path d="M618.277 197.228C618.277 197.228 616.847 196.837 616.199 196.189C615.551 195.54 614.38 196.189 614.509 195.278C614.638 194.368 614.9 194.499 614.38 193.591C613.861 192.682 613.341 190.733 612.821 191.512C612.302 192.291 612.039 193.331 611.52 194.37C611 195.472 610.192 196.412 609.181 197.092C608.142 197.743 606.583 198.522 606.323 199.69C606.064 200.858 605.284 200.86 604.636 201.9C603.988 202.939 604.505 203.459 602.817 203.718C601.13 203.978 601.518 204.498 600.476 203.966C599.435 203.434 599.049 203.186 599.177 204.486C599.306 205.785 599.828 205.916 599.049 206.695C598.269 207.475 598.096 207.138 596.839 207.475C594.892 207.994 596.45 205.785 595.28 206.695C594.11 207.606 594.241 208.383 594.241 210.202C594.241 212.02 594.372 212.151 594.891 213.062C595.411 213.973 595.02 215.009 596.191 215.4C597.361 215.791 596.71 216.959 596.839 218.122C596.968 219.285 598.269 219.941 599.313 219.941C600.358 219.941 599.962 220.332 601.523 220.852C603.084 221.371 602.951 220.461 603.997 220.332C605.044 220.203 604.777 221.111 606.076 220.98C607.375 220.849 608.155 220.852 608.155 221.371C608.155 221.891 607.766 223.19 608.674 222.799C609.582 222.408 611.149 222.151 611.012 221.24C610.876 220.329 611.013 220.201 611.923 219.812C612.834 219.424 611.532 217.214 612.443 216.044C613.353 214.873 614.917 214.745 614.917 213.446C614.917 212.146 614.526 210.456 615.306 209.808C616.085 209.16 617.515 210.197 617.384 209.029C617.253 207.861 615.177 207.598 615.565 206.43C615.954 205.262 616.865 205.131 615.956 204.352C615.048 203.572 614.526 202.273 615.177 201.494C615.828 200.714 616.476 200.843 616.996 200.324C617.515 199.804 616.476 199.804 616.085 199.413C615.694 199.022 615.437 198.114 616.476 198.245C617.515 198.376 618.666 197.876 618.277 197.228Z" fill="#BCDE55"/>
<path d="M583.852 227.368C583.852 227.368 582.293 227.759 580.734 225.809C579.175 223.859 578.26 222.56 576.706 220.613C575.152 218.666 575.147 216.976 574.627 215.936C574.108 214.897 574.756 215.417 572.937 213.598C571.119 211.779 570.463 211.124 570.215 209.958C569.968 208.793 570.864 207.751 569.305 206.971C567.746 206.192 567.486 206.84 566.967 205.541C566.447 204.242 567.095 204.502 566.187 203.334C565.279 202.166 564.106 199.989 563.713 199.954C562.154 199.825 561.374 199.174 561.505 198.266C561.637 197.358 560.726 195.544 562.025 196.448C563.324 197.351 563.453 198.135 564.883 198.135C566.313 198.135 567.481 197.747 568.261 198.915C569.04 200.083 569.82 201.124 571.119 202.035C572.418 202.945 573.84 204.509 573.84 205.281C573.84 206.053 574.36 205.412 576.439 206.712C578.517 208.011 579.428 209.05 580.727 210.349C582.026 211.648 580.856 212.687 581.635 213.727C582.414 214.766 583.714 214.377 583.973 216.065C584.233 217.753 586.183 217.235 586.572 218.787C586.96 220.338 586.572 220.474 586.819 222.813C587.066 225.151 587.858 226.193 586.819 226.453C585.78 226.713 585.411 227.754 583.852 227.368Z" fill="#BCDE55"/>
<path d="M589.827 231.656C589.827 231.656 588.009 231.409 586.838 230.617C585.668 229.825 584.5 229.318 586.45 228.539C588.4 227.759 589.696 227.108 590.738 228.019C591.78 228.93 592.685 229.318 593.076 229.838C593.467 230.357 595.024 231.265 596.194 230.486C597.365 229.707 597.753 228.927 598.792 229.318C599.832 229.709 602.301 231.397 603.209 230.617C604.117 229.838 605.548 230.098 605.548 231.265C605.548 232.433 603.729 231.916 603.729 231.916C603.729 231.916 606.067 231.397 606.718 232.565C607.369 233.732 607.497 234.255 608.665 234.123C609.833 233.992 610.096 233.475 610.224 234.255C610.353 235.034 608.406 235.294 607.502 235.163C606.599 235.032 606.332 234.774 604.904 234.915C603.476 235.056 603.865 233.876 601.655 234.007C599.446 234.138 598.146 234.396 596.719 233.488C595.291 232.579 596.588 231.929 594.509 232.188C592.43 232.448 590.998 231.785 589.827 231.656Z" fill="#BCDE55"/>
<path d="M624.525 235.424C624.525 235.424 622.05 236.332 620.887 235.812C619.724 235.293 618.165 236.203 618.413 235.424C618.66 234.644 619.324 233.863 619.972 233.734C620.62 233.605 621.791 233.734 622.05 234.253C622.31 234.773 623.871 234.773 624.26 234.501C624.648 234.229 626.47 233.85 626.21 234.63C625.95 235.409 624.525 235.424 624.525 235.424Z" fill="#BCDE55"/>
<path d="M619.839 238.801L618.02 238.282C616.59 238.151 615.942 237.631 616.981 237.111C618.02 236.592 618.8 236.592 619.456 237.111C620.111 237.631 621.398 238.67 619.839 238.801Z" fill="#BCDE55"/>
<path d="M617.104 235.034C617.104 235.034 615.676 233.604 614.766 234.123C613.855 234.643 614.117 234.903 613.207 234.903C612.296 234.903 612.556 234.255 611.648 234.255C610.74 234.255 610.089 234.774 610.349 235.294C610.608 235.813 611.257 236.593 612.296 236.204C613.335 235.816 614.117 235.163 615.157 235.425C616.196 235.687 617.5 235.945 617.104 235.034Z" fill="#BCDE55"/>
<path d="M554.746 180.768C554.451 179.937 554.366 179.045 554.498 178.173C554.746 176.76 554.263 173.929 555.441 174.164C556.619 174.399 556.149 175.815 556.149 177.465C556.149 179.116 556.401 180.533 554.746 180.768Z" fill="#BCDE55"/>
<path d="M554.993 184.544C554.993 184.544 552.87 182.893 554.051 182.421C555.231 181.948 556.636 184.779 554.993 184.544Z" fill="#BCDE55"/>
<path d="M573.826 220.68C573.826 220.68 571.674 220.249 571.458 218.851C571.243 217.453 571.243 216.698 570.491 216.052C569.739 215.407 569.199 214.763 569.199 214.117C569.199 213.472 570.813 213.472 570.931 214.224C571.05 214.976 572.005 215.956 572.221 216.698C572.436 217.441 572.436 217.883 573.191 218.745C573.945 219.606 574.903 220.578 573.826 220.68Z" fill="#BCDE55"/>
<path d="M567.795 210.348L566.719 209.059C566.719 209.059 564.784 208.52 565.645 208.089C566.506 207.659 566.934 207.983 567.364 208.304C567.795 208.626 568.334 208.95 568.334 209.596C568.347 209.765 568.3 209.933 568.202 210.07C568.103 210.208 567.959 210.306 567.795 210.348Z" fill="#BCDE55"/>
<path d="M574.091 18.0373C574.091 18.0373 571.498 18.9801 570.553 18.5099C570.553 18.5099 567.725 18.9801 566.544 18.9801C565.364 18.9801 563.006 18.5099 561.595 17.3296C560.185 16.1493 561.843 15.6791 563.248 15.9142C564.654 16.1493 565.606 16.6219 566.784 16.3868C567.962 16.1518 570.323 16.3868 570.323 16.3868C570.323 16.3868 575.507 15.9142 574.091 18.0373Z" fill="#BCDE55"/>
<path d="M576.451 21.8116C575.781 22.0368 573.386 22.2842 571.735 21.8116C570.085 21.339 569.612 20.1611 570.792 20.1611C571.973 20.1611 572.678 20.6338 574.328 20.6338C575.979 20.6338 578.574 21.1039 576.451 21.8116Z" fill="#BCDE55"/>
<path d="M620.611 226.005C620.094 226.349 618.632 226.994 618.632 226.128C618.632 225.262 619.127 224.515 619.127 223.406C619.127 222.298 619.869 221.293 618.506 221.293C617.142 221.293 616.773 220.675 617.268 219.927C617.763 219.18 618.506 219.432 618.384 217.817C618.263 216.201 618.51 215.342 619.005 214.6C619.5 213.857 619.876 211.121 619.876 211.121C619.876 211.121 620.497 209.389 621.242 209.389C621.987 209.389 622.232 207.773 623.106 208.151C623.979 208.53 624.969 209.141 625.827 209.02C626.686 208.899 628.436 209.267 628.933 209.515C629.43 209.762 630.299 209.391 630.549 208.773C630.799 208.154 632.033 206.793 632.528 207.288C633.023 207.783 632.776 208.773 632.155 209.02C631.534 209.267 631.036 209.515 630.789 210.386C630.541 211.257 629.423 211.007 628.809 211.007C628.196 211.007 627.077 210.636 626.582 210.512C626.087 210.388 625.097 209.522 624.355 210.388C623.613 211.254 622.739 210.883 622.128 211.131C621.517 211.378 620.762 212.615 620.762 213.358C620.762 214.1 621.257 215.09 622.378 214.973C623.499 214.857 623.744 214.352 624.736 214.102C625.728 213.853 626.468 212.865 627.344 213.608C628.22 214.35 626.973 214.845 626.354 215.092C625.736 215.34 626.478 216.082 625.612 216.458C624.746 216.834 623.004 217.2 623.88 217.695C624.756 218.19 625.991 218.564 625.991 219.559C625.991 220.553 626.612 221.422 626.981 221.917C627.349 222.412 627.352 223.154 627.104 224.144C626.857 225.134 627.104 226.254 626.236 226.254C625.367 226.254 625.741 225.139 624.751 224.641C623.761 224.144 622.771 223.899 623.019 222.778C623.266 221.657 623.761 220.667 623.019 220.056C622.277 219.445 621.534 218.938 621.156 219.93C620.777 220.922 621.156 221.793 621.403 222.788C621.651 223.783 621.279 224.651 620.908 224.767C620.537 224.884 621.356 225.507 620.611 226.005Z" fill="#BCDE55"/>
<path d="M620.857 239.543C620.857 239.543 619.62 238.554 618.994 238.425C618.368 238.296 616.767 238.177 617.014 237.683C617.196 237.367 617.479 237.123 617.817 236.988C618.155 236.853 618.529 236.836 618.877 236.94C619.746 237.188 619.746 237.809 620.493 237.809C621.24 237.809 621.728 239.543 620.857 239.543Z" fill="#BCDE55"/>
<path d="M616.263 235.319C616.263 235.319 614.647 234.824 614.284 234.698C613.92 234.572 614.036 233.827 614.655 233.58C615.273 233.332 615.526 234.201 616.387 234.075C617.248 233.948 617.753 234.946 616.263 235.319Z" fill="#BCDE55"/>
<path d="M612.907 235.941C612.907 235.941 609.428 236.312 609.926 235.568C610.423 234.823 611.138 233.561 611.658 234.254C612.177 234.947 612.4 234.749 613.217 234.902C614.033 235.055 615.392 236.189 612.907 235.941Z" fill="#BCDE55"/>
<path d="M632.25 236.833C631.593 237 631.015 237.393 630.62 237.944C630.026 238.835 630.768 238.538 628.987 239.354C627.205 240.171 627.282 240.762 626.985 240.097C626.688 239.431 627.727 238.837 627.876 238.243C628.024 237.65 627.95 237.058 628.987 236.759C630.023 236.459 630.842 236.388 631.065 235.868C631.288 235.348 632.696 234.757 632.696 234.757C632.696 234.757 633.438 234.015 634.029 234.163C634.289 234.209 634.556 234.2 634.811 234.136C635.067 234.072 635.307 233.955 635.514 233.792C635.809 233.569 636.774 233.495 636.625 234.163C636.477 234.831 636.402 235.054 635.514 235.571C634.626 236.088 633.29 236.981 632.25 236.833Z" fill="#BCDE55"/>
<path d="M670.667 218.302V236.044C670.667 236.044 667.989 235.722 667.915 235.054C667.841 234.386 667.47 233.569 666.507 233.569C665.545 233.569 665.022 233.126 664.58 233.792C664.137 234.457 663.911 234.311 662.429 234.311C660.947 234.311 660.576 233.94 660.945 233.346C661.313 232.753 660.945 231.79 661.91 231.716C662.875 231.642 664.208 232.161 664.357 231.27C664.505 230.38 665.099 230.159 664.208 229.64C663.318 229.12 663.095 229.417 662.946 228.603C662.798 227.789 663.021 226.896 662.058 226.673C661.095 226.45 662.207 225.93 661.835 225.636C661.464 225.342 660.796 225.339 659.908 225.116C659.019 224.894 658.203 224.374 657.757 224.154C657.312 223.934 656.347 224.154 655.756 223.857C655.164 223.56 655.681 222.372 655.088 222.446C654.494 222.521 653.826 222.669 653.234 221.927C652.643 221.184 652.046 220.816 651.972 221.184C651.898 221.553 652.715 222.669 651.824 222.889C650.933 223.11 650.193 222.889 650.416 222.444C650.638 221.999 650.935 220.665 650.119 220.516C649.302 220.368 648.414 219.774 648.711 219.331C649.008 218.888 650.119 218.886 650.49 218.886C650.861 218.886 652.343 218.96 652.717 218.589C653.091 218.218 653.756 218.366 654.422 218.663C655.088 218.96 655.758 219.257 655.907 219.997C656.055 220.737 656.943 221.333 657.315 220.813C657.686 220.294 657.24 219.405 657.908 219.108C658.576 218.812 659.984 218.44 660.135 217.921C660.286 217.401 660.432 217.624 661.321 216.81C662.209 215.996 662.731 215.77 663.768 215.993C664.805 216.216 665.77 216.661 665.695 217.329C665.621 217.997 666.586 218.589 667.329 218.44C668.071 218.292 669.999 217.856 670.667 218.302Z" fill="#BCDE55"/>
<path d="M653.9 217.035C653.303 217.496 652.577 217.755 651.824 217.778C650.638 217.778 650.193 219.04 649.376 217.778C648.56 216.516 649.599 216.293 648.488 216.073C647.377 215.853 646.486 216.518 646.486 215.702C646.486 214.885 647.523 215.256 647.449 214.591C647.375 213.925 648.043 213.626 648.711 213.626C649.379 213.626 649.673 212.809 650.342 212.957C651.01 213.106 651.158 213.774 652.046 213.848C652.935 213.923 653.68 213.774 654.122 214.294C654.565 214.813 655.607 216.516 653.9 217.035Z" fill="#BCDE55"/>
<path d="M639.74 213.179C639.517 213.179 637.59 214.367 637.887 213.327C638.183 212.288 638.923 211.92 638.478 211.474C638.032 211.029 637.664 211.548 637.736 210.215C637.807 208.881 637.661 208.878 637.956 208.213C638.25 207.547 638.104 207.248 638.772 206.58C639.44 205.912 639.737 205.023 640.257 205.617C640.777 206.211 640.48 206.58 640.037 207.025C639.594 207.47 638.998 208.51 639.888 208.51C640.779 208.51 640.48 207.473 640.999 207.993C641.519 208.512 642.039 209.104 641.371 209.477C640.702 209.851 640.48 209.7 640.331 210.588C640.183 211.477 639.369 211.108 639.589 211.85C639.809 212.593 639.963 213.179 639.74 213.179Z" fill="#BCDE55"/>
<path d="M642.26 221.114C642.26 221.114 641.295 220.52 640.776 220.892C640.256 221.263 638.922 220.52 639.739 219.926C640.555 219.333 640.924 218.815 641.889 219.038C642.854 219.261 643.297 219.484 644.411 220.001C645.524 220.518 646.638 219.704 646.412 221.188C646.187 222.673 645.002 222.151 644.485 222.003C643.968 221.854 643 221.337 642.26 221.114Z" fill="#BCDE55"/>
<path d="M635.882 222.003C635.65 222.003 634.397 222.077 634.623 221.337C634.848 220.597 635.217 219.778 635.808 220.001C636.399 220.224 636.624 220.075 637.144 220.298C637.664 220.521 637.812 222.003 635.882 222.003Z" fill="#BCDE55"/>
<path d="M654.049 230.679C653.784 230.708 652.564 230.456 653.16 229.268C653.757 228.081 654.123 228.157 654.123 227.563C654.123 226.97 653.974 226.079 654.717 226.45C655.459 226.821 655.385 227.044 655.385 227.86C655.385 228.677 654.714 230.605 654.049 230.679Z" fill="#BCDE55"/>
<path d="M646.262 233.792C646.262 233.792 645.149 233.346 645.817 232.607C646.485 231.867 646.856 231.864 647.002 231.345C647.148 230.825 647.819 230.234 648.042 230.828C648.264 231.421 647.67 233.569 646.262 233.792Z" fill="#BCDE55"/>
<path d="M704.324 330.615C704.324 330.615 706.566 328.621 708.312 328.373C710.059 328.126 712.549 327.631 715.04 325.132C717.532 322.632 717.532 321.393 716.525 321.643C715.518 321.893 715.288 320.405 714.033 320.653C712.779 320.9 712.549 322.138 710.294 323.644C708.04 325.151 706.058 325.639 704.064 326.884C702.069 328.128 701.572 329.128 698.083 330.372C694.594 331.617 688.861 333.614 690.108 334.611C691.355 335.608 694.344 334.611 694.594 336.096C694.844 337.581 697.086 336.591 699.578 334.859C701.295 333.603 702.884 332.182 704.324 330.615Z" fill="#7E9045"/>
<path d="M690.371 339.089C690.371 339.089 690.866 336.595 692.116 336.845C693.365 337.095 691.866 339.846 690.371 339.089Z" fill="#7E9045"/>
<path d="M718.775 323.14C718.775 323.14 720.013 320.398 720.77 319.648C721.527 318.898 718.775 317.916 720.275 316.909C721.774 315.902 724.014 314.415 724.264 313.17C724.514 311.925 724.511 310.178 725.748 310.178C726.986 310.178 728.74 308.184 728.74 309.684C728.74 311.183 727.243 312.673 728.493 312.923C729.742 313.173 732.231 310.928 731.982 312.675C731.732 314.422 730.744 316.164 728.99 316.414C727.236 316.664 726.748 316.414 725.751 318.146C724.754 319.878 720.02 323.887 718.775 323.14Z" fill="#7E9045"/>
<path d="M725.502 308.933C725.502 308.933 724.512 305.691 725.255 305.194C725.997 304.696 727.749 305.194 727.499 306.926C727.249 308.658 726.749 309.927 725.502 308.933Z" fill="#7E9045"/>
<path d="M725.005 272.293C724.263 272.367 721.764 270.298 720.769 269.301C719.774 268.304 716.53 265.315 718.525 265.562C720.519 265.81 721.266 265.81 722.264 267.557C723.261 269.304 727.497 272.045 725.005 272.293Z" fill="#7E9045"/>
<path d="M705.322 230.924C705.322 230.924 703.328 229.934 702.83 228.432C702.333 226.93 701.593 224.693 702.83 225.441C704.067 226.188 704.562 227.173 705.322 227.935C706.082 228.697 706.567 231.424 705.322 230.924Z" fill="#7E9045"/>
<path d="M729.992 256.841C729.992 256.841 729.25 254.599 728.755 253.849C728.26 253.1 726.76 251.607 728.012 251.358C729.264 251.108 731.239 256.841 729.992 256.841Z" fill="#7E9045"/>
<path d="M727.005 268.808C727.005 268.808 723.016 266.813 724.014 266.564C725.011 266.314 728.75 268.308 727.005 268.808Z" fill="#7E9045"/>
<path d="M679.403 263.324C679.403 263.324 683.639 264.809 683.889 266.813C684.139 268.817 684.879 271.299 686.131 271.796C687.383 272.294 687.878 273.791 688.125 275.535C688.373 277.28 689.115 277.78 689.857 280.021C690.6 282.263 689.857 285.005 689.115 286.999C688.373 288.994 687.121 292.233 685.129 295.224C683.137 298.216 681.64 299.461 678.898 302.202C676.156 304.944 675.159 305.441 673.415 308.433C671.67 311.425 671.918 311.672 668.929 312.919C665.939 314.166 664.94 313.909 661.951 315.411C658.961 316.913 658.212 314.421 656.217 315.164C654.223 315.906 652.231 314.916 649.987 314.421C647.742 313.926 647.745 311.929 647.745 309.935C647.745 307.941 647.992 305.201 646.26 306.946C644.528 308.69 642.274 308.183 643.271 307.193C644.268 306.204 644.013 304.952 645.763 303.704C647.512 302.457 649.252 299.968 647.507 300.715C645.763 301.463 644.766 301.458 643.768 303.704C642.771 305.951 640.777 306.696 640.777 304.942C640.777 303.187 642.014 302.7 640.282 300.705C638.55 298.711 639.54 297.714 636.793 297.964C634.046 298.214 632.804 296.232 630.812 296.726C628.82 297.221 627.073 298.211 623.834 298.721C620.595 299.231 618.848 299.958 617.604 301.213C616.359 302.467 614.112 302.957 611.62 302.957C609.129 302.957 608.631 301.967 605.64 303.947C602.648 305.926 601.403 307.186 599.159 306.191C596.915 305.196 595.42 304.197 596.667 302.702C597.914 301.208 600.904 300.708 599.906 297.716C598.909 294.725 598.917 293.23 599.164 291.486C599.411 289.741 599.164 288.744 598.669 286.75C598.174 284.755 597.184 282.763 598.422 281.766C599.659 280.769 600.154 280.034 599.659 277.53C599.164 275.026 601.144 271.049 602.401 270.052C603.658 269.055 605.64 266.813 607.881 267.063C610.123 267.313 613.865 264.818 615.609 264.569C617.354 264.319 620.593 263.826 621.093 261.579C621.592 259.333 621.34 259.088 623.334 257.093C625.329 255.099 626.326 254.849 626.823 256.351C627.321 257.853 629.315 256.598 629.565 254.619C629.815 252.639 631.05 252.624 632.307 251.377C633.564 250.13 633.544 248.636 635.796 249.383C638.047 250.13 637.033 251.377 638.288 251.877C639.542 252.377 642.774 252.867 642.026 251.382C641.279 249.898 639.785 249.638 641.531 247.893C643.278 246.149 643.016 243.907 644.771 244.404C646.525 244.902 648.509 245.642 648.757 244.404C649.004 243.167 647.52 242.41 649.252 242.162C650.984 241.915 652.491 241.915 652.991 242.905C653.49 243.895 655.98 244.142 656.48 243.4C656.979 242.657 659.221 242.905 659.469 243.647C659.716 244.389 659.469 246.886 657.737 247.633C656.005 248.381 656.747 248.376 655.992 249.878C655.237 251.38 654.013 252.37 655.992 252.619C657.972 252.869 659.234 253.857 659.731 254.861C660.228 255.866 661.463 256.593 662.473 256.593C663.482 256.593 663.462 257.336 664.717 258.078C665.972 258.82 668.206 257.831 668.206 255.584C668.206 253.337 667.959 251.348 669.196 250.103C670.433 248.858 670.94 247.111 670.94 245.617C670.94 244.122 670.94 241.628 672.425 241.628C673.91 241.628 673.662 243.622 673.662 245.617C673.662 247.611 675.147 249.603 675.906 249.853C676.666 250.103 676.896 249.606 677.651 251.847C678.406 254.089 678.393 254.589 678.146 256.334C677.898 258.078 679.653 260.082 679.403 263.324Z" fill="#7E9045"/>
<path d="M660.21 321.89C660.21 321.89 657.966 325.629 656.968 326.126C655.971 326.624 655.979 327.116 654.227 327.859C652.475 328.601 650.988 327.116 651.735 326.126C652.482 325.137 651.735 324.394 652.477 322.637C653.22 320.881 653.467 319.646 654.472 320.905C654.666 321.171 654.911 321.394 655.192 321.563C655.474 321.732 655.787 321.843 656.112 321.889C656.437 321.935 656.768 321.916 657.086 321.832C657.403 321.748 657.701 321.601 657.961 321.4C658.963 320.643 660.21 321.89 660.21 321.89Z" fill="#7E9045"/>
<path d="M691.861 240.396C690.893 240.644 689.119 239.406 687.375 239.406C685.63 239.406 684.633 238.912 683.886 237.162C683.139 235.413 684.381 234.42 682.154 233.673C679.927 232.926 677.418 231.679 676.42 232.931C675.423 234.183 675.926 233.921 675.183 235.173C674.441 236.425 670.605 236.13 670.605 236.13V218.26C670.605 218.26 673.686 221.229 675.93 221.229C678.175 221.229 678.422 221.229 679.419 222.219C680.417 223.209 682.658 224.711 682.658 225.708C682.658 226.705 684.653 227.44 685.65 226.945C686.647 226.45 688.889 226.203 690.136 226.45C691.383 226.698 693.375 226.698 693.875 225.708C694.375 224.718 697.364 224.471 696.367 223.466C695.37 222.461 698.859 224.456 698.111 225.458C697.364 226.46 696.117 226.448 694.373 227.702C692.628 228.957 690.884 228.939 689.389 228.939C687.894 228.939 685.65 228.445 685.153 229.682C684.655 230.919 685.4 231.924 686.637 232.671C687.875 233.418 689.379 235.163 689.379 236.16C689.379 237.157 690.616 238.902 692.121 239.152C693.625 239.401 692.858 240.146 691.861 240.396Z" fill="#7E9045"/>
<path d="M710.303 235.409C709.662 235.795 706.067 232.667 707.064 232.667C708.061 232.667 711.55 234.661 710.303 235.409Z" fill="#7E9045"/>
<path d="M714.545 234.412C714.545 234.412 709.559 232.42 710.806 231.921C712.053 231.421 716.039 233.665 714.545 234.412Z" fill="#7E9045"/>
<path d="M707.56 231.173C707.56 231.173 705.568 229.44 707.065 229.44C708.562 229.44 709.305 231.422 707.56 231.173Z" fill="#7E9045"/>
<path d="M718.782 238.393C717.993 238.393 715.293 235.401 716.538 235.151C717.782 234.902 720.786 238.393 718.782 238.393Z" fill="#7E9045"/>
<path d="M714.043 238.146C714.043 238.146 712.299 236.413 713.301 236.661C714.303 236.908 716.037 237.156 714.043 238.146Z" fill="#7E9045"/>
<path d="M719.777 241.641C719.777 241.641 716.038 239.909 717.283 239.909C718.528 239.909 721.279 240.397 719.777 241.641Z" fill="#7E9045"/>
<path d="M173.462 158.223C171.888 156.125 171.757 157.83 170.317 157.83C168.877 157.83 169.661 157.83 167.563 157.961C165.464 158.092 166.91 158.223 165.336 158.223C163.762 158.223 164.811 157.437 163.893 155.996C162.975 154.556 162.844 155.081 161.797 155.081C160.751 155.081 159.57 153.376 158.128 152.983C156.685 152.589 154.325 151.409 153.54 150.1C152.756 148.791 148.953 149.051 147.248 149.182C145.543 149.313 143.971 149.706 142.922 150.624C141.873 151.542 140.824 151.933 141.217 153.114C141.611 154.294 142.529 152.196 144.234 151.28C145.939 150.365 144.889 150.756 146.592 150.624C148.294 150.493 146.592 150.624 147.116 152.458C147.641 154.292 147.903 152.196 149.343 152.72C150.784 153.245 150.521 152.851 152.882 153.376C155.243 153.901 153.275 153.769 154.06 154.95C154.844 156.13 155.24 155.605 156.683 156.259C158.125 156.912 155.371 156.914 156.552 157.701C157.732 158.488 157.338 157.701 159.959 157.832C162.579 157.964 162.71 158.619 162.71 158.619C163.272 158.902 163.765 159.305 164.153 159.8C164.94 160.715 162.582 160.584 163.235 162.158C163.888 163.732 164.678 162.945 166.251 162.551C167.825 162.158 167.954 162.682 168.872 163.338C169.79 163.994 169.79 165.172 170.577 163.469C171.364 161.767 171.364 162.551 172.804 162.158C174.244 161.764 175.298 162.677 177.144 162.544C178.99 162.41 177.668 161.888 176.488 160.317C175.308 158.746 175.036 160.314 173.462 158.223Z" fill="#FFBEB9"/>
<path d="M192.84 47.4897C192.212 47.4897 192.593 48.623 192.593 48.623C193.476 49.1179 193.855 48.2444 194.61 47.7421C195.364 47.2398 195.241 46.6063 194.115 46.3539C192.989 46.1015 193.481 47.4897 192.84 47.4897Z" fill="#FFBEB9"/>
<path d="M211.616 33.1174C210.987 32.3627 209.599 32.87 209.349 33.3648C209.099 33.8597 208.077 33.7558 207.582 34.4981C207.088 35.2405 209.094 35.3815 209.094 35.3815C210.987 35.3865 212.247 33.8746 211.616 33.1174Z" fill="#FFBEB9"/>
<path d="M189.941 45.3446C189.31 45.5921 188.177 45.7232 187.293 46.0994C186.41 46.4755 187.046 47.2351 187.046 47.2351C188.308 47.73 188.684 46.7402 189.315 46.3517C189.946 45.9633 190.7 46.5992 191.205 45.9756C191.71 45.3521 190.569 45.0923 189.941 45.3446Z" fill="#FFBEB9"/>
<path d="M8.52344 67.691C8.52344 68.515 10.8618 67.2777 10.8618 67.2777C11.0004 66.3152 8.52344 66.8645 8.52344 67.691Z" fill="#FFBEB9"/>
<path d="M6.732 67.8266C5.76944 68.1037 4.80688 68.9277 3.84185 68.7916C2.87681 68.6555 2.32996 68.5144 1.63959 69.4795C0.949218 70.4445 -0.4241 70.1674 0.127701 70.5806C0.679503 70.9938 1.77816 70.1674 3.01785 69.7541C4.25755 69.3409 3.84185 69.6156 4.94298 70.0288C6.04411 70.442 7.00914 68.9277 7.00914 68.9277C10.0354 67.9651 7.69704 67.5519 6.732 67.8266Z" fill="#FFBEB9"/>
<path d="M24.7972 53.4771C25.0868 54.4867 27.5365 52.9005 27.9695 52.9005C28.6895 52.9005 28.8355 52.1805 28.9791 51.6039C29.1226 51.0274 27.9695 50.7379 26.9599 51.6039C25.9503 52.47 25.0868 51.4579 24.2207 52.0345C23.3546 52.611 24.5102 52.4675 24.7972 53.4771Z" fill="#FFBEB9"/>
<path d="M178.041 22.3082C177.459 22.0187 176.296 21.4372 175.279 21.8727C174.262 22.3082 174.7 23.7607 175.717 23.9067C176.734 24.0527 176.878 24.7777 177.024 25.5027C177.17 26.2277 178.476 25.3592 179.498 25.2132C180.271 25.1314 181.049 25.1314 181.822 25.2132C183.554 25.3592 185.308 22.7387 185.452 21.8727C185.595 21.0066 186.469 20.8557 185.598 20.2742C184.727 19.6927 183.71 20.4202 182.547 20.4202C181.384 20.4202 180.369 20.4202 179.788 21.0017C179.206 21.5832 178.632 22.5977 178.041 22.3082Z" fill="#FFBEB9"/>
<path d="M154.658 15.9148C155.675 15.6253 156.256 16.2068 156.256 16.6423C156.256 17.0778 157.855 17.8029 158.58 17.8029C159.305 17.8029 160.903 18.5303 161.339 19.1118C161.774 19.6933 164.536 19.2554 165.545 18.9658C166.555 18.6763 169.321 18.2408 169.321 18.2408C170.774 18.6763 172.951 17.8029 173.528 18.2408C174.104 18.6788 176.143 17.3673 177.45 17.9488C178.113 18.2433 178.756 17.9488 179.484 17.2238C180.211 16.4988 178.613 16.6423 178.031 15.9148C177.45 15.1874 177.014 16.2068 176.143 15.9148C175.272 15.6229 176.433 15.1898 176.143 14.1827C175.854 13.1756 174.98 14.7642 173.817 14.6182C172.654 14.4722 172.085 15.1997 172.085 15.6352C172.085 16.0707 170.779 16.6522 169.472 16.5062C168.166 16.3603 168.455 15.4892 168.599 14.7741C168.742 14.059 168.599 13.9031 167.438 12.8861C166.278 11.8691 165.55 12.0151 165.115 12.4506C164.679 12.8861 162.353 13.1756 160.322 13.0296C158.29 12.8836 158.723 13.6111 158.288 14.1926C157.852 14.7741 155.672 14.9176 153.93 14.7741C152.188 14.6306 151.753 15.1973 151.911 15.9148C152.069 16.6324 153.643 16.2068 154.658 15.9148Z" fill="#FFBEB9"/>
<path d="M172.519 13.1582C173.101 13.5937 175.86 13.3042 176.295 12.7227C176.731 12.1412 179.346 11.2702 179.346 11.2702C180.363 9.5381 177.312 10.6887 176.731 10.3992C176.149 10.1097 175.278 10.5452 175.135 10.9807C174.991 11.4162 173.536 12.1412 172.66 11.5597C171.784 10.9782 169.901 11.8517 170.045 12.4332C170.188 13.0147 171.95 12.7252 172.519 13.1582Z" fill="#FFBEB9"/>
<path d="M188.353 10.2494L189.224 12.2834C189.951 12.7189 190.968 13.1544 191.114 12.1374C191.26 11.1204 192.275 12.4294 193.292 12.7189C194.309 13.0084 195.615 12.4294 196.197 11.2664C196.778 10.1034 195.18 10.1034 194.019 9.8139C192.877 9.51263 191.759 9.12382 190.676 8.65091C189.224 8.07437 187.336 9.67038 188.353 10.2494Z" fill="#FFBEB9"/>
<path d="M199.971 12.5763C200.853 12.6622 201.744 12.5636 202.586 12.2868C202.586 12.2868 203.747 12.2868 203.022 11.4158C202.297 10.5448 201.715 10.5448 200.547 10.3988C199.379 10.2528 198.815 9.23584 197.496 10.5448C196.177 11.8538 198.518 12.4328 199.971 12.5763Z" fill="#FFBEB9"/>
<path d="M183.122 16.4983C184.866 16.3523 184.285 17.2258 185.01 18.0968C185.735 18.9678 187.769 18.5323 188.642 17.6613C189.516 16.7903 189.513 16.7903 190.238 16.6443C190.963 16.4983 192.272 15.4813 192.272 15.4813C193 14.7563 192.272 14.3208 191.112 14.4643C189.951 14.6078 189.367 14.8998 188.35 14.6103C187.333 14.3208 186.173 14.6103 185.876 15.0458C185.579 15.4813 184.28 15.1918 183.117 14.4643C181.954 13.7368 181.956 14.6103 181.385 15.4813C180.813 16.3523 181.38 16.6443 183.122 16.4983Z" fill="#FFBEB9"/>
<path d="M257.007 2.46598C255.755 2.46598 251.993 2.25565 248.653 2.67384C245.312 3.09202 240.089 3.92837 237.372 3.30234C234.655 2.6763 232.569 2.25565 231.314 3.09201C230.06 3.92837 229.018 5.18044 228.182 4.55441C227.345 3.92837 227.971 3.51019 225.883 3.71804C223.795 3.9259 223.587 4.55441 221.924 4.55441C220.261 4.55441 220.254 4.97259 218.791 4.55441C217.329 4.13623 216.285 3.30234 215.24 4.13623C214.196 4.97012 215.033 6.01681 216.495 6.01681C217.957 6.01681 219.217 7.06103 218.373 7.68706C217.529 8.3131 217.329 7.47921 215.651 7.06103C213.974 6.64284 213.352 6.22466 212.519 5.80896C211.685 5.39325 211.056 5.59863 209.594 6.01681C208.131 6.43499 207.924 6.64284 206.251 6.85317C204.578 7.0635 202.7 7.06103 202.7 8.52342C202.7 9.98582 203.744 10.1937 204.788 10.6119C205.833 11.03 205.207 13.1185 206.877 12.2821C208.547 11.4457 209.802 11.2379 211.264 11.4482C212.726 11.6586 214.189 11.03 214.397 12.0743C214.605 13.1185 213.563 13.3263 212.1 12.9106C210.638 12.4949 209.802 13.1185 209.176 13.5367C208.55 13.9548 205.216 13.3263 204.581 13.3263C203.945 13.3263 203.744 14.1627 202.492 14.1627C201.24 14.1627 201.238 14.373 200.193 13.7445C199.149 13.116 195.806 12.7003 194.762 13.7445C193.718 14.7887 193.928 15.6251 192.255 16.4664C190.583 17.3077 189.533 18.3445 191.211 18.973C191.706 19.1537 192.144 19.3689 192.555 19.5619C190.164 19.7129 187.928 20.428 187.928 21.4005C187.25 23.093 186.28 23.4394 184.25 24.7929C182.221 26.1464 181.655 24.5034 180.212 27.0991C179.222 28.898 181.783 28.7595 181.105 30.113C180.427 31.4665 179.071 34.5076 177.042 33.1541C175.013 31.8006 179.636 29.044 176.033 28.4205C173.365 30.7761 170.121 29.6107 170.121 31.6372C170.121 33.6638 171.975 32.4761 170.616 33.1541C169.258 33.8321 164.643 35.3687 163.628 34.0177C162.614 32.6666 161.825 32.4761 160.135 32.1395C159.09 31.9565 158.019 31.9868 156.987 32.2286C157.304 32.0381 157.514 31.8179 157.851 31.7486C158.576 31.6051 159.011 31.6051 159.447 30.7341C159.882 29.8631 161.045 30.5881 162.062 31.4591C163.079 32.3301 163.515 31.4591 164.386 31.6051C165.257 31.7511 167.145 31.7486 167.58 30.8776C168.016 30.0066 168.162 29.7171 168.743 29.5711C169.325 29.4251 171.359 29.2816 171.648 28.4081C171.938 27.5346 171.067 27.8291 169.916 27.8291C168.765 27.8291 167.882 27.6831 167.736 26.6661C167.59 25.6491 169.335 25.9411 169.481 25.2136C169.626 24.4861 170.06 23.4815 170.641 23.1796C171.223 22.8777 173.115 22.1626 173.692 21.1481C174.269 20.1335 172.383 20.4206 171.218 20.5666C170.052 20.7126 169.619 21.5836 168.459 21.2916C167.298 20.9996 166.726 21.2916 166.133 21.8731C165.539 22.4546 165.262 24.6321 164.101 24.3475C162.941 24.063 164.972 23.1845 164.101 22.1675C163.23 21.1505 162.213 22.1675 162.369 22.749C162.525 23.3305 161.208 22.895 159.895 22.3135C158.581 21.732 157.717 22.603 157.281 21.4425C156.846 20.282 156.264 20.136 154.666 19.2625C153.068 18.389 152.342 18.973 151.182 19.4085C150.021 19.844 149.45 19.119 148.42 18.827C147.391 18.535 144.644 19.119 143.627 18.973C142.61 18.827 142.321 20.2795 141.895 21.007C141.47 21.7345 139.136 22.7391 137.689 22.895C136.241 23.0509 135.073 24.3475 135.957 24.3475C136.84 24.3475 136.392 25.508 136.538 26.3815C136.684 27.255 138.426 25.8 139.297 25.654C140.168 25.508 142.059 25.654 142.784 25.3645C143.509 25.075 144.09 23.766 144.964 23.62C145.804 23.4343 146.631 23.1921 147.438 22.895C148.166 22.603 147.438 24.2015 146.132 24.4935C144.825 24.7855 145.407 25.654 144.4 26.0895C143.392 26.525 145.56 27.2525 146.132 27.2525C146.703 27.2525 151.796 27.2525 152.377 27.688C152.959 28.1235 145.407 28.2695 144.244 28.1235C143.081 27.9775 143.227 28.559 143.227 29.722C143.227 30.885 145.115 30.593 146.567 30.739C148.02 30.885 146.132 31.61 147.149 32.4711C148.166 33.3322 150.343 32.1816 152.098 32.0356C153.852 31.8896 153.258 32.1816 155.146 32.4711C155.467 32.5253 155.794 32.5402 156.118 32.5157C155.433 32.76 154.845 33.2191 154.441 33.8246C153.426 35.5147 153.087 34.5002 150.383 33.8246C147.678 33.1491 145.852 36.601 144.635 34.1636C143.281 31.4566 142.747 33.0477 140.042 31.0186C137.337 28.9896 136.533 29.3137 133.361 29.7121C132.198 29.8556 129.753 30.7811 128.739 30.4421C127.724 30.1031 130.223 29.6552 126.843 28.3017C123.463 26.9482 122.142 28.1681 119.786 28.8436C117.431 29.5191 115.706 29.9299 113.001 29.9299C110.297 29.9299 110.079 31.8302 108.389 31.8302C106.699 31.8302 107.431 31.8302 105.402 30.4718C104.239 29.6973 103.175 29.3558 101.799 29.0787C100.768 28.8733 99.5502 28.7025 97.964 28.413C94.2524 27.7375 89.8479 30.4421 86.8043 28.413C83.7607 26.384 80.0391 26.384 76.9956 26.723C73.952 27.062 74.6275 27.7375 71.584 27.7375C68.5404 27.7375 68.2039 29.4276 65.4968 29.4276C62.7898 29.4276 65.4968 31.4566 61.7851 31.4566C58.0735 31.4566 54.3445 30.4421 54.6835 32.1346C55.0225 33.8271 57.727 35.5147 56.0345 36.5292C54.342 37.5437 51.3009 36.8682 48.9329 36.8682C46.5648 36.8682 46.5648 38.2217 44.1992 38.8973C41.8337 39.5728 39.1266 41.6018 40.8167 41.9408C42.5067 42.2798 46.5648 39.5728 47.2502 41.2653C47.9357 42.9578 49.9548 45.3234 46.9112 44.977C43.8677 44.6306 43.1402 45.2492 40.4356 45.2492C37.731 45.2492 32.3417 46.8699 32.0027 49.5918C31.6637 52.3137 27.6774 52.6205 32.4357 53.3406C29.3922 55.0307 30.2706 55.4785 33.6531 55.4785C37.0357 55.4785 38.6812 53.4817 38.3868 54.803C37.7112 57.8466 36.6967 58.8611 33.9921 58.8611C31.2876 58.8611 32.2996 60.2122 28.5805 60.5512C24.8614 60.8902 26.2125 61.9047 22.147 62.9192C18.0814 63.9337 11.3237 66.6309 13.6918 66.6309C16.0598 66.6309 24.176 64.2653 25.1905 63.5873C26.2051 62.9093 28.9022 62.5728 30.9387 62.5728C32.9751 62.5728 41.4229 59.5292 42.1009 58.1757C42.7789 56.8222 52.2461 52.0885 52.2461 54.7956C52.2461 54.7956 54.6142 52.0885 56.9798 52.7665C59.3453 53.4445 61.3769 54.1176 61.7159 52.0885C62.0549 50.0595 65.096 50.0595 66.1105 51.074C67.125 52.0885 69.493 53.1031 71.1856 52.4275C71.8436 52.1479 72.5493 51.9976 73.2641 51.9846C74.1302 51.997 74.8552 52.3261 75.2437 53.1031C75.9192 54.4566 78.2872 52.7665 77.9482 55.1321C77.6092 57.4977 74.5657 58.5147 76.9337 59.5292C79.3018 60.5437 78.6237 62.2338 77.6092 63.9263C76.5947 65.6188 78.2872 66.9699 80.3163 65.6163C82.3453 64.2628 80.5637 66.9699 79.9773 69.328C79.3092 72.0425 81.6747 75.0786 79.3092 75.0786C76.9436 75.0786 75.9266 75.7616 76.9337 77.8005C77.629 79.1912 79.5888 79.9459 80.4326 80.9332C80.64 81.1393 80.7739 81.4079 80.8137 81.6977C80.8535 81.9874 80.797 82.2822 80.6528 82.5366C79.6383 84.5657 79.3018 83.5511 78.6238 86.5947C77.9458 89.6383 78.2872 90.3064 75.9192 92.6819C73.5511 95.0573 73.8901 95.3864 71.8611 97.4155C69.832 99.4445 69.1565 100.462 68.8175 102.491C68.4785 104.52 65.4349 104.181 66.4495 106.885C67.464 109.59 67.803 110.268 67.1275 112.636C66.4519 115.004 69.493 113.987 69.1565 117.369C68.82 120.752 69.832 121.767 71.5221 121.427C72.6059 121.212 73.6872 121.969 74.1475 123.16C74.4274 123.904 74.4561 124.72 74.2291 125.483C73.5511 127.851 72.2001 128.19 73.8901 130.895C75.5802 133.599 77.2727 134.953 76.5947 136.306C75.9167 137.66 72.2001 136.982 74.2291 138.335C76.2582 139.689 78.6238 139.011 78.9628 141.379C79.3018 143.747 77.9482 144.423 77.6092 145.776C77.2702 147.13 79.6383 144.762 80.6528 147.127C81.6673 149.493 82.6818 151.524 83.3598 149.156C84.0378 146.788 84.0354 146.452 82.3453 142.723C80.6553 138.994 79.9773 139.34 79.3018 135.957C78.6262 132.575 76.2582 129.195 76.5947 127.841C76.9312 126.488 78.6238 125.473 80.3064 127.502C81.989 129.531 80.3064 131.899 81.9964 135.282C83.6865 138.665 86.7325 138.665 86.7325 142.045C86.7325 145.425 87.069 146.103 89.0981 148.478C91.1271 150.854 92.1417 151.861 92.1417 154.229C92.1417 156.597 89.4371 157.609 91.1271 159.638C92.8172 161.667 96.5387 162.006 98.9068 163.02C101.275 164.035 101.611 165.05 102.618 166.732C103.626 168.415 107.016 169.1 108.369 169.439C109.723 169.778 111.074 169.778 113.103 168.764C115.132 167.749 116.814 167.41 117.161 169.1C117.507 170.79 117.5 172.483 120.872 172.812C124.245 173.141 124.931 172.812 125.606 174.841C126.282 176.87 126.282 177.884 128.989 177.206C131.696 176.528 131.018 177.206 131.693 179.575C132.369 181.943 134.737 181.943 134.737 184.308C134.737 186.674 134.061 186.337 136.09 188.02C138.119 189.702 139.023 188.621 140.148 189.373C143.192 191.402 144.545 194.107 146.582 191.739C148.618 189.371 148.611 188.359 148.611 188.359C148.611 188.359 150.64 187.005 150.977 189.034C151.313 191.063 152.669 192.417 153.345 190.049C154.02 187.681 152.33 185.313 150.301 185.991C148.272 186.669 145.228 187.344 144.214 187.005C143.199 186.666 139.817 186.666 139.817 183.294C139.817 179.921 138.802 179.914 140.831 176.86C142.86 173.807 142.185 174.831 142.185 171.787C142.185 168.744 140.156 167.39 138.473 169.08C136.791 170.77 134.076 169.419 132.723 169.419C131.369 169.419 128.326 169.08 131.033 166.376C133.74 163.671 134.432 160.647 134.093 158.962C133.754 157.277 139.166 155.58 135.444 154.229C131.723 152.878 129.696 151.861 128.682 154.229C127.667 156.597 128.006 157.94 125.977 158.962C123.948 159.984 123.609 161.667 120.905 161.33C118.2 160.994 117.522 161.667 115.83 162.006C114.137 162.345 111.096 158.962 112.118 157.272C113.14 155.582 111.779 153.214 111.442 151.185C111.106 149.156 111.779 145.435 112.793 144.081C113.132 143.631 113.622 143.091 114.1 142.512C115.05 141.334 115.951 139.909 115.5 138.333C114.822 135.965 117.529 134.621 119.898 134.621C122.266 134.621 123.948 131.902 123.948 131.902C123.948 131.902 128.343 130.548 128.343 132.58C128.343 134.611 130.035 133.594 131.725 133.931C133.415 134.267 135.108 134.945 134.769 133.594C134.43 132.243 132.74 129.883 135.108 130.212C137.476 130.541 139.505 126.5 140.181 129.534C140.856 132.567 142.885 131.902 143.892 130.887C144.899 129.873 146.599 129.534 147.275 132.58C147.95 135.626 144.57 136.292 146.599 139.013C148.628 141.735 147.95 147.13 150.657 144.425C153.364 141.72 154.577 136.259 152.808 133.07C150.645 129.177 150.657 127.854 152.686 127.854C154.715 127.854 156.398 121.42 159.449 122.105C162.5 122.791 163.161 118.394 166.214 118.047C169.268 117.701 171.962 114.665 170.609 112.972C169.255 111.28 167.229 109.261 169.594 108.239C171.96 107.217 172.64 103.842 174.33 104.856C176.02 105.871 175.684 101.144 178.728 101.813C181.771 102.481 185.49 100.798 185.49 98.4325C185.49 96.0669 188.534 93.0208 190.902 93.6964C193.27 94.3719 194.099 95.5794 195.482 91.9816C195.703 91.3376 196.089 90.7626 196.6 90.3138C198.152 89.0766 199.924 90.7543 197.791 93.4217C195.084 96.8043 198.78 96.0273 199.807 93.9983C200.834 91.9692 204.529 91.2219 206.439 91.1155C211.635 90.826 213.862 86.1147 211.635 87.0797C209.619 87.9458 205.659 90.6157 204.138 88.5198C202.866 86.7679 204.435 84.5607 205.786 82.8756C207.137 81.1905 205.786 78.4785 204.096 79.8296C202.406 81.1806 198.221 80.3071 199.236 79.2926C200.25 78.2781 201.972 79.7306 202.985 78.1395C205.184 74.6753 209.616 81.0223 211.197 78.4785C212.09 77.0409 215.255 77.464 216.609 76.4495C217.962 75.4349 223.711 73.0669 223.372 74.757C223.033 76.447 222.02 75.435 220.667 78.4686C219.313 81.5023 215.933 80.4977 215.933 82.1803C215.933 83.8629 217.962 83.8728 219.991 84.2094C222.02 84.5459 223.268 86.5724 222.592 87.921C225.188 87.3445 223.76 84.1722 226.628 84.1722C229.8 84.1722 231.824 82.5144 230.137 81.1608C228.449 79.8073 227.432 77.4492 225.74 78.4563C224.047 79.4634 223.71 76.0882 226.079 74.3982C228.447 72.7081 229.79 70.6865 227.093 68.9865C224.396 67.2866 224.725 65.943 222.696 64.2529C220.667 62.5629 219.313 61.2069 221.006 59.1778C222.698 57.1488 222.696 50.7251 219.652 51.7396C216.609 52.7542 216.27 55.7977 212.89 55.7977C209.51 55.7977 208.493 55.7977 210.861 50.0471C210.861 50.0471 208.832 50.3861 207.478 48.0181C206.125 45.65 205.449 48.0181 202.405 47.0036C199.362 45.989 198.008 42.6065 197.333 46.328C196.657 50.0496 196.318 49.7106 194.626 50.7251C192.933 51.7396 195.304 53.0907 193.611 53.7687C191.919 54.4467 190.231 56.4733 191.246 57.8268C192.26 59.1803 191.246 63.2384 189.553 63.2384C187.861 63.2384 182.113 64.2529 182.113 65.943C182.113 67.633 182.791 71.0156 181.098 72.0301C179.406 73.0446 177.04 78.1173 176.025 73.7202C175.011 69.3231 173.321 70.3401 175.689 67.2866C178.057 64.2331 177.718 63.904 174.674 63.5749C171.631 63.2458 171.21 63.3052 169.599 61.8849C166.556 59.1778 159.454 62.5604 161.147 59.5168C162.839 56.4733 164.653 54.9886 162.112 55.4117C158.219 56.06 162.003 50.1263 164.707 49.7873C167.412 49.4483 170.614 45.989 170.614 45.989C170.614 45.989 173.321 44.9745 175.35 44.6355C177.379 44.2965 179.408 42.9455 182.452 41.5919C185.104 40.4141 185.71 39.2462 187.616 38.9665C187.663 39.2072 187.646 39.4561 187.567 39.6881C187.487 39.9201 187.348 40.127 187.163 40.2879C186.421 40.9189 186.156 42.1784 185.525 42.1784C184.894 42.1784 184.265 42.4258 183.508 42.9356C182.751 43.4453 183.013 44.4475 184.003 44.1951C184.993 43.9427 186.272 43.4404 185.894 44.3213C185.515 45.2022 187.405 45.3308 187.91 44.4474C188.415 43.5641 189.927 43.9526 189.927 43.3142C189.927 42.6757 190.053 42.1784 191.06 42.557C192.067 42.9356 191.944 44.1951 192.572 44.1951C193.201 44.1951 195.094 45.0784 195.598 43.7002C196.103 42.3219 193.329 41.6835 192.951 40.9263C192.572 40.1691 191.691 39.793 191.565 39.0358C191.439 38.2787 190.555 37.5239 189.927 37.6501C189.764 37.6796 189.598 37.6904 189.432 37.6823C189.467 37.3953 189.509 37.1379 189.665 37.0192C190.234 36.5886 191.753 37.3557 193.255 37.5413C195.96 37.8803 196.635 36.1902 198.328 35.8512C200.02 35.5122 199.003 32.4687 201.371 32.1395C203.739 31.8104 202.386 29.7715 200.693 29.4325C199.001 29.0935 203.061 27.7425 204.405 29.4325C205.748 31.1226 208.117 31.4615 208.802 29.7715C209.487 28.0815 209.816 29.096 212.182 30.786C214.548 32.4761 216.24 34.1686 214.55 35.8586C212.86 37.5487 211.168 35.8586 210.838 38.2267C210.509 40.5947 208.131 40.9313 205.427 40.2557C202.722 39.5802 197.986 41.2703 201.03 42.2848C204.073 43.2993 208.47 40.9313 209.146 42.9603C209.821 44.9894 210.838 46.3429 212.528 46.3429C214.219 46.3429 217.262 48.3719 218.616 47.0184C219.969 45.6649 212.528 42.9603 215.233 42.9603C217.938 42.9603 219.63 47.6964 221.667 45.6649C223.703 43.6334 225.725 42.2848 224.035 40.9313C222.345 39.5777 220.991 36.5342 223.02 36.8732C225.049 37.2122 226.613 38.0931 226.613 39.7831C226.613 41.4732 229.637 40.7086 230.651 38.3405C235.848 36.9004 232.49 34.8441 229.783 33.8296C227.076 32.8151 223.696 32.8151 225.725 31.125C227.754 29.435 229.783 29.7715 227.754 28.0815C225.725 26.3914 225.388 26.0499 223.357 26.0499C221.325 26.0499 220.313 28.418 219.977 26.0499C219.64 23.6819 222.342 23.0064 218.623 22.6698C214.904 22.3333 216.594 20.3018 214.911 22.3308C213.229 24.3599 214.233 21.3163 212.204 20.9773C210.175 20.6383 207.132 21.3163 206.117 21.9918C205.103 22.6674 199.354 25.0354 201.384 23.3454C203.413 21.6553 202.059 20.3018 200.03 20.9773C198.001 21.6528 192.159 24.7781 193.173 26.8071C194.188 28.8362 199.228 29.1158 194.282 32.1395C192.55 33.1961 188.192 36.5342 189.207 33.4906C190.221 30.447 188.87 31.4616 188.192 29.096C187.514 26.7304 188.21 26.1935 187.534 25.1789C187.195 24.6717 189.425 24.1718 190.056 22.9123C191.189 23.667 192.76 22.8381 193.943 21.9918C196.311 20.3018 198.892 20.4379 195.853 19.7648C195.49 19.687 195.122 19.63 194.752 19.5941C195.381 18.5573 196.417 18.3445 196.209 17.3028C196.002 16.261 197.672 14.3804 198.931 15.0065C200.191 15.6325 199.347 16.8871 198.095 17.3028C196.843 17.7185 195.588 20.4379 197.887 19.8094C200.186 19.1809 201.228 18.5573 203.316 18.9755C205.405 19.3937 208.329 18.5573 210.836 18.7652C213.343 18.973 218.566 17.7209 217.938 16.8871C217.938 16.8871 215.216 16.0507 213.135 16.2585C211.054 16.4664 209.374 16.6767 207.691 16.6767C206.008 16.6767 203.932 16.8871 203.304 16.2585C202.675 15.63 204.348 14.7961 204.976 14.7961C205.605 14.7961 209.361 15.6325 211.034 15.0065C212.707 14.3804 215.419 14.3804 216.255 14.7961C217.091 15.2119 219.388 14.7962 219.388 15.6325C219.388 16.4689 221.894 16.2585 221.479 15.2143C221.063 14.1701 224.401 15.6325 224.401 14.1701C224.401 12.7077 224.819 12.4999 226.492 12.0817C228.165 11.6635 230.669 12.7077 231.295 11.2453C231.921 9.78292 232.757 9.15688 234.427 9.15688C236.098 9.15688 237.562 9.36721 238.815 8.94903C240.067 8.53085 244.036 9.36721 244.036 7.69448C244.036 6.02176 246.757 6.86059 248.841 6.23208C250.924 5.60357 252.392 5.18787 255.317 4.56183C258.241 3.9358 258.261 2.46598 257.007 2.46598Z" fill="#FFBEB9"/>
<path d="M251.604 16.9053C251.604 16.9053 252.653 18.4815 253.005 20.0578C253.356 21.634 254.405 22.5099 253.356 23.0271C252.307 23.5443 249.676 23.903 250.387 24.9547C251.097 26.0063 252.839 26.7066 253.539 26.0039C254.239 25.3011 256.167 24.9547 256.508 26.0039C256.85 27.053 256.684 28.4585 254.932 27.9314C253.18 27.4044 251.963 26.8798 250.726 27.9314C249.488 28.9831 250.023 30.5593 251.775 30.5593C253.527 30.5593 254.403 29.6834 254.403 29.6834C254.403 29.6834 255.806 28.6317 255.981 29.859C256.157 31.0864 254.93 32.1355 253.702 32.1355C252.475 32.1355 251.075 30.9107 250.374 31.9623C249.674 33.014 247.405 34.5902 247.922 35.815C248.439 37.0399 248.447 38.094 248.447 38.97C248.447 39.8459 249.147 41.4221 248.098 42.1224C247.049 42.8227 247.922 45.6262 249.498 46.1533C251.075 46.6803 250.736 47.9052 251.075 48.9568C251.414 50.0085 253.178 51.0576 254.229 50.7087C255.281 50.3598 257.199 51.0576 257.558 51.5847C257.916 52.1118 259.309 52.9852 260.71 51.409C262.111 49.8328 262.638 47.3781 264.041 46.8536C265.444 46.329 268.594 45.8019 268.769 43.5254C268.945 41.2489 269.645 40.1948 271.221 39.6702C272.798 39.1456 276.304 38.97 278.397 38.2697C280.491 37.5694 283.48 36.8667 284.004 35.6394C284.529 34.412 287.508 31.4328 289.085 32.4869C290.661 33.541 291.888 33.0115 292.415 32.3112C292.942 31.611 296.095 31.7866 297.144 31.9623C298.193 32.138 300.648 30.5593 301.35 30.0347C302.053 29.5101 304.151 30.3836 304.503 29.5077C304.854 28.6317 302.051 28.6317 301.35 27.7558C300.65 26.8798 300.999 25.4793 301.699 26.1795C302.4 26.8798 303.275 28.1071 304.327 28.1071C305.379 28.1071 306.43 28.4585 306.606 27.2312C306.782 26.0039 308.534 25.655 306.955 24.9547C305.376 24.2544 306.955 24.4276 307.306 23.376C307.658 22.3244 307.482 20.9238 307.482 20.9238C307.482 20.9238 308.007 20.5724 309.759 20.9238C311.51 21.2752 312.386 20.3992 312.562 19.5233C312.738 18.6473 316.417 19.8722 314.839 18.4716C313.26 17.0711 313.849 17.5289 313.438 16.544C312.201 13.5747 313.614 13.5747 314.49 14.4408C315.366 15.3068 317.642 15.8438 317.293 14.4408C316.944 13.0378 317.293 12.34 315.89 12.1643C314.487 11.9886 312.738 12.8645 312.921 11.8129C313.104 10.7613 313.97 10.061 315.373 10.588C316.776 11.1151 318.701 10.061 318.177 9.35082C317.652 8.64066 319.753 7.42323 321.146 7.59892C322.539 7.7746 324.65 7.24754 324.825 6.72296C325.001 6.19838 329.032 6.89865 328.505 5.67132C327.978 4.44399 324.825 4.79537 322.898 4.61968C320.97 4.44399 320.621 5.14674 319.57 5.14674C318.518 5.14674 315.014 5.67132 315.89 4.44647C316.766 3.22161 316.59 2.69456 314.653 2.51888C312.715 2.34319 313.601 3.7561 311.684 3.04346C309.766 2.33082 309.756 3.04346 307.477 2.1675C305.198 1.29155 305.374 1.46723 303.271 1.29155C301.167 1.11586 293.986 0.766965 292.059 0.942651C290.131 1.11834 291.883 1.64292 290.307 2.17987C288.731 2.71683 285.051 2.00419 282.948 1.83098C280.845 1.65777 280.671 1.12823 279.979 2.17987C279.286 3.23151 279.103 4.28316 278.051 3.93178C276.999 3.58041 276.123 3.4072 274.371 3.4072C272.62 3.4072 272.795 3.4072 271.744 3.7561C270.692 4.105 269.116 4.28316 266.664 3.7561C264.211 3.22904 262.108 3.93178 260.881 4.28315C259.653 4.63452 260.356 6.03506 258.253 5.68369C256.15 5.33232 254.925 5.85938 252.473 6.21075C250.02 6.56212 249.669 7.61129 248.442 7.96266C247.214 8.31403 249.493 9.18751 248.442 9.53888C247.39 9.89025 244.938 10.2392 243.186 9.88778C241.434 9.53641 239.682 9.71456 238.631 10.4148C237.579 11.1151 234.602 10.9394 234.602 11.8154C234.602 12.6913 236.178 12.1667 235.827 13.0526C235.476 13.9384 233.023 12.8769 233.55 13.9286C234.078 14.9802 235.827 13.9286 236.354 15.3291C236.881 16.7296 240.734 16.5663 241.798 16.205C242.862 15.8438 245.302 16.205 246.351 15.6805C247.4 15.1559 246.526 16.205 247.929 16.3807C249.333 16.5564 251.777 16.2026 251.604 16.9053Z" fill="#FFF968"/>
<path d="M336.585 75.4221C336.585 75.4221 333.781 74.7219 333.432 75.771C333.083 76.8202 332.38 77.5229 331.68 77.1741C330.98 76.8252 330.629 75.5978 329.926 76.9984C329.223 78.3989 327.474 77.5229 328.35 76.9984C329.301 76.3966 330.182 75.6912 330.977 74.8951C331.68 74.1948 332.905 72.97 331.504 72.97C330.104 72.97 328.701 74.3705 329.05 73.3189C329.399 72.2672 330.668 72.2969 331.153 71.5669C331.853 70.5153 330.101 70.8667 330.277 69.9907C330.453 69.1148 328.701 67.8874 329.753 67.8874C330.804 67.8874 330.99 69.1247 332.38 68.9391C333.771 68.7535 335.184 69.2905 334.308 67.7019C333.432 66.1133 333.781 66.1256 333.256 65.2497C332.732 64.3737 330.802 66.1256 330.629 65.074C330.455 64.0224 332.729 62.4461 331.504 62.2729C330.28 62.0997 329.577 62.7975 329.226 61.9216C328.874 61.0456 329.577 60.1696 329.401 58.9522C329.226 57.7348 329.05 56.8514 330.802 56.1487C332.554 55.4459 334.308 56.5 334.481 54.9238C334.654 53.3476 335.884 53.5208 336.06 54.9238C336.236 56.3268 336.409 56.1487 335.533 56.6757C334.657 57.2028 333.256 58.2519 333.781 58.6033C334.306 58.9547 336.936 56.6757 337.109 58.0763C337.282 59.4768 337.109 60.0039 336.936 60.8798C336.763 61.7558 337.569 62.5649 338.512 63.5077C339.749 64.7449 340.789 65.4353 340.264 66.8358C339.739 68.2363 340.264 70.3396 341.501 69.6394C342.738 68.9391 343.605 67.7118 343.956 69.1148C344.307 70.5178 345.008 71.9183 343.956 72.2672C342.904 72.6161 340.987 72.4429 341.328 73.5044C341.67 74.566 342.729 74.3804 342.028 75.2564C341.328 76.1323 337.626 76.2981 336.585 75.4221Z" fill="#FFF968"/>
<path d="M327.242 72.3248C327.242 72.3248 325.052 71.9264 323.857 73.1216C322.662 74.3167 320.673 74.7126 319.678 73.7179C318.683 72.7232 319.477 71.3301 320.076 71.1296C320.675 70.9292 317.886 70.5333 318.483 69.7365C319.079 68.9398 321.469 69.1402 320.87 68.3434C320.272 67.5466 319.477 66.1535 321.071 66.1535C322.664 66.1535 324.058 66.5519 324.058 65.9556C324.058 65.3592 322.662 64.56 323.659 64.362C324.656 64.1641 326.844 64.1641 326.844 64.1641C326.844 64.1641 329.034 65.1538 329.232 66.1436C329.43 67.1334 327.839 67.3388 328.242 68.1232C328.645 68.9076 328.64 70.709 328.242 71.3078C327.971 71.7028 327.632 72.047 327.242 72.3248Z" fill="#FFF968"/>
<path d="M422.277 80.3535C422.277 78.468 420.627 79.1732 419.211 78.2304C417.796 77.2877 416.381 76.1073 413.552 76.3449C410.724 76.5824 411.192 74.6944 410.722 73.7492C410.251 72.804 409.779 71.156 407.891 71.6286C406.003 72.1012 404.117 72.3338 402.694 70.9209C401.272 69.508 404.345 69.0329 405.053 68.0901C405.76 67.1474 402.932 65.9671 402.224 64.7868C401.517 63.6064 401.044 62.9012 399.158 62.6661C397.273 62.4311 395.855 62.4187 395.855 61.2508C395.855 60.0828 395.608 58.8926 394.44 57.4772C393.744 56.6409 393.791 55.0622 394.091 53.6418C393.977 53.6987 393.843 53.7557 393.725 53.8101C392.331 54.4089 390.74 53.8101 389.347 53.8101C387.954 53.8101 386.957 53.2138 385.762 54.2085C384.567 55.2032 385.165 55.802 386.361 56.7968C387.556 57.7915 389.545 58.3903 387.952 59.1846C386.358 59.9789 385.581 57.403 384.178 58.3928C382.775 59.3826 382.785 58.1923 382.387 60.1843C381.988 62.1762 381.397 60.7806 381.988 62.7701C382.58 64.7595 380.595 66.5535 379.002 65.9572C377.408 65.3608 378.405 63.7673 375.419 64.3636C372.432 64.96 372.432 65.9572 370.044 66.7515C367.656 67.5458 367.854 66.5535 366.263 66.3555C364.672 66.1576 364.67 65.9572 363.076 66.5535C361.483 67.1498 362.282 65.3584 360.49 65.3584C358.699 65.3584 357.105 63.9652 358.1 65.9572C359.095 67.9491 358.699 67.1498 357.303 67.7487C355.908 68.3475 356.905 69.1418 354.517 68.9413C352.129 68.7409 352.725 67.1498 351.132 68.9413C349.538 70.7328 348.945 70.1365 348.744 71.7301C348.544 73.3236 346.953 73.1232 345.559 73.7096C344.166 74.2961 343.768 75.1027 343.58 76.2979C343.392 77.493 343.78 77.0946 341.192 77.8914C338.604 78.6882 340.596 79.871 338.604 79.2845C336.612 78.6981 336.016 77.2926 335.62 78.0894C335.224 78.8861 338.007 79.6829 336.609 80.2793C335.211 80.8756 333.821 80.6776 332.029 80.8756C330.238 81.0736 329.842 81.274 329.641 82.6671C329.441 84.0602 332.628 84.0602 334.021 84.2606C335.414 84.4611 334.021 85.8517 335.615 86.6485C337.208 87.4453 337.594 88.0416 337.406 89.4372C337.218 90.8328 335.813 92.6218 335.615 93.8145C335.511 94.4356 332.23 95.606 331.633 94.8043C331.037 94.0026 328.048 94.6038 327.254 94.2054C326.459 93.8071 325.274 94.8043 324.069 94.2054C322.864 93.6066 322.475 92.8123 321.679 93.8071C320.882 94.8018 319.699 93.8071 319.291 95.4006C318.882 96.9942 319.689 96.9942 319.689 98.3873C319.689 99.7804 318.296 101.371 319.09 102.168C319.885 102.965 320.08 102.767 319.489 103.762C318.897 104.756 317.509 105.353 317.898 106.548C318.286 107.743 319.877 108.54 319.291 109.136C318.704 109.733 318.096 111.923 319.291 112.123C320.486 112.323 321.481 111.326 322.275 111.524C323.069 111.722 323.47 111.725 324.069 112.917C324.423 113.589 324.561 114.354 324.465 115.107L326.655 116.302C326.655 116.302 326.655 112.917 327.85 113.118C329.045 113.318 329.829 112.719 329.829 112.128C329.829 111.536 330.819 111.331 331.809 111.729C332.799 112.128 335.79 110.933 335.79 110.136C335.79 109.339 337.582 108.743 338.379 108.156C339.175 107.57 337.78 105.17 337.98 104.573C338.181 103.977 340.893 102.126 341.365 101.587C342.758 99.9932 343.951 99.6072 344.948 98.9985C345.946 98.3897 346.928 97.0189 346.74 96.4102C346.552 95.8015 347.534 93.2256 348.719 94.0223C349.905 94.8191 351.308 96.4102 352.503 95.6134C353.698 94.8166 356.484 94.4207 356.284 93.6339C356.083 92.847 357.081 92.6441 358.263 93.2355C359.446 93.8269 361.05 94.2252 360.849 95.027C360.649 95.8287 361.646 96.0168 361.448 97.2169C361.25 98.417 362.438 100.602 363.239 99.4067C364.041 98.2116 365.219 98.0136 366.424 99.2063C367.629 100.399 367.414 101 369.21 101.597C371.007 102.193 371.799 103.188 372.595 104.185C373.392 105.182 373.988 105.578 373.192 106.971C372.395 108.364 372.595 110.554 373.392 110.156C374.189 109.757 373.79 107.37 375.184 107.37C376.577 107.37 375.78 105.578 375.382 104.583C374.983 103.589 375.382 102.393 376.775 102.99C378.168 103.586 380.16 104.383 379.761 103.388C379.363 102.393 376.775 100.204 375.184 100.204C373.592 100.204 373.79 99.8051 372.994 99.0084C372.197 98.2116 370.804 98.0186 370.007 97.8132C369.21 97.6078 368.413 96.2221 368.614 95.2274C368.814 94.2327 366.424 94.4306 366.822 93.0375C367.221 91.6444 364.633 91.0456 365.833 90.2488C367.033 89.452 367.424 91.2386 368.817 91.2386C370.21 91.2386 371.007 91.2386 371.207 92.2284C371.408 93.2181 371.007 95.215 372.4 95.413C373.793 95.6109 375.386 95.8114 375.386 96.8061C375.386 97.8008 375.785 99.1939 376.78 99.7928C377.774 100.392 379.964 101.186 380.563 100.783C381.162 100.379 382.154 101.379 381.553 102.574C380.951 103.769 381.951 105.162 382.543 105.759C383.134 106.355 383.936 106.748 384.732 107.352C385.529 107.956 384.534 108.547 383.936 109.144C383.337 109.74 383.141 110.735 384.136 110.935C385.131 111.136 386.326 110.537 386.922 111.532C387.519 112.526 389.313 113.125 389.112 113.721C388.912 114.318 390.706 111.93 389.709 111.334C388.711 110.737 389.909 109.94 390.698 110.138C391.488 110.336 392.888 108.745 392.091 108.159C391.295 107.572 390.896 106.367 390.112 106.367C389.328 106.367 389.318 104.774 388.919 104.177C388.521 103.581 390.312 104.177 391.109 103.579C391.906 102.98 391.109 101.389 392.502 101.599C393.631 101.76 395.021 101.268 395.509 101.817C396.199 100.58 397.298 100.043 399.834 100.176C399.684 99.8009 399.6 99.4024 399.587 98.9985C399.587 97.3455 398.409 97.1105 399.587 95.46C400.764 93.8095 401.237 94.7523 401.475 92.3942C401.712 90.036 401.227 89.5634 402.89 88.148C404.553 86.7326 404.775 85.7899 406.426 86.0249C408.076 86.26 405.011 88.148 406.899 88.148C407.542 88.148 408.631 88.1208 409.841 88.0367C410.041 88.4301 410.234 88.92 409.643 88.9943C408.806 89.0982 408.178 89.3085 408.388 89.7366C408.599 90.1647 408.91 90.573 409.853 90.4789C410.796 90.3849 410.793 90.7932 410.689 91.3153C410.585 91.8374 411.001 92.8841 412.048 92.6738C413.095 92.4634 412.466 91.4192 413.302 91.3153C414.139 91.2114 416.336 91.105 416.442 90.2686C416.546 89.8504 415.7 89.4322 414.871 89.4322C414.042 89.4322 412.991 89.5362 412.892 88.9101C412.793 88.2841 412.149 88.2816 412.149 87.9674C412.147 87.9226 412.135 87.8787 412.115 87.8387C413.78 87.6259 415.346 87.2869 416.094 86.7524C417.744 85.5746 417.979 85.102 418.687 84.8669C419.517 84.5728 420.319 84.206 421.085 83.7707L421.047 83.6866C421.803 82.7358 422.235 81.5675 422.277 80.3535Z" fill="#FFF968"/>
<path d="M397.748 48.9889C398.925 48.7415 400.106 46.6308 399.871 45.4505C399.636 44.2702 397.748 44.5077 397.748 42.8572C397.748 41.2068 397.275 40.7342 396.097 39.5539C394.919 38.3735 394.917 37.1957 395.625 35.7803C396.332 34.3649 394.209 33.6572 392.794 32.2443C391.378 30.8314 394.917 30.1213 396.567 30.1213C397.146 30.1213 397.896 29.8293 398.628 29.4532C398.589 29.4136 398.547 29.374 398.507 29.327C397.71 28.3372 395.521 28.5302 395.521 28.5302C395.316 27.9358 394.945 27.413 394.45 27.0245C393.956 26.6361 393.36 26.3985 392.734 26.3403C390.544 26.1424 389.748 26.3403 388.753 26.7387C387.758 27.1371 385.766 26.1424 384.574 26.3403C383.381 26.5383 382.782 26.3403 381.189 27.3301C379.595 28.3199 381.189 28.5228 377.408 28.7232C373.627 28.9236 373.226 29.52 372.629 29.713C372.033 29.906 372.231 31.6925 370.838 31.6925C369.445 31.6925 364.667 32.2914 365.661 33.0881C366.656 33.8849 367.851 33.2861 368.648 33.4865C369.445 33.6869 369.244 34.4763 367.851 35.278C366.458 36.0797 366.06 35.476 365.463 37.2576C364.867 39.0392 364.474 39.0491 362.675 41.239C360.876 43.4288 360.883 44.624 359.292 44.2256C357.701 43.8272 357.899 43.8272 356.108 44.822C354.316 45.8167 352.525 44.822 351.527 47.0118C350.53 49.2017 351.527 49.9985 351.926 51.5896C352.324 53.1806 351.527 52.9827 351.926 55.373C352.324 57.7633 353.905 54.7767 355.509 55.9693C357.112 57.162 358.696 55.9693 359.691 54.9796C360.685 53.9898 362.279 54.1828 362.279 54.1828C362.279 54.1828 362.279 56.5731 363.87 57.5678C365.461 58.5626 365.463 57.7658 365.661 59.5474C365.859 61.329 365.661 59.7478 364.07 59.9458C362.479 60.1437 361.88 59.149 361.282 58.5527C360.683 57.9563 359.49 57.5629 358.894 58.5527C358.297 59.5424 356.506 58.7506 355.907 59.9458C355.308 61.1409 358.097 60.7426 357.501 62.3361C356.904 63.9296 359.292 64.1276 360.487 64.1276C361.683 64.1276 363.672 61.5393 364.268 63.1378C364.865 64.7363 365.258 63.1378 366.857 63.7366C368.455 64.3355 368.052 61.9451 369.643 61.9451C371.234 61.9451 373.028 62.3435 373.426 60.75C373.825 59.1564 372.629 57.167 373.825 56.3702C375.02 55.5734 376.809 55.3804 377.207 53.7819C377.606 52.1834 378.197 50.9957 376.41 50.7977C374.624 50.5998 373.624 49.0063 374.221 48.009C374.817 47.0118 374.619 46.2175 376.41 45.8192C378.202 45.4208 380.392 45.2228 380.79 43.6293C381.189 42.0357 381.78 41.8378 381.985 40.4447C382.191 39.0515 382.183 38.0568 384.175 38.4651C386.167 38.8734 388.953 39.2619 388.355 40.4447C387.756 41.6274 385.967 42.4366 384.574 43.0329C383.18 43.6293 380.392 45.0125 381.189 46.8164C381.985 48.6202 382.98 49.4022 382.582 50.5973C382.183 51.7925 382.782 50.9957 384.373 51.7925C385.964 52.5892 387.956 52.9852 388.555 51.9904C389.154 50.9957 389.352 51.1937 391.341 51.0007C393.331 50.8076 394.127 49.8055 394.924 51.1986C395.639 49.9218 396.567 49.2215 397.748 48.9889Z" fill="#FFF968"/>
</svg>
