<svg width="432" height="507" viewBox="0 0 432 507" fill="none" xmlns="http://www.w3.org/2000/svg">
<path d="M95.0176 218.441C95.0176 218.441 89.391 227.685 87.5155 236.312C85.6399 244.938 56.1288 236.312 56.1288 236.312C56.1288 236.312 11.1121 214.127 4.48866 210.43C-2.13475 206.733 4.48866 194.531 4.48866 194.531L30.9533 108.834C30.9533 108.834 36.6186 87.9163 37.4973 81.3901C38.376 74.8639 47.1247 55.7546 70.8776 45.4015C94.6305 35.0485 146.536 3.74516 146.536 3.74516C146.536 3.74516 152.288 -0.56813 159.167 2.88098C166.046 6.33008 196.929 9.907 225.19 8.67463C253.451 7.44226 266.947 3.00498 270.958 3.25107C274.968 3.49716 377.622 49.7167 388.126 79.2955C398.63 108.874 421.763 198.393 421.763 198.393C421.763 198.393 423.931 203.98 425.931 206.609C427.93 209.238 429.266 216.304 429.767 218.112C430.268 219.921 357.906 244.57 344.41 245.392C344.41 245.392 344.576 239.313 340.24 234.055C335.905 228.797 332.405 226.997 332.405 226.997C332.405 226.997 334.405 259.204 330.903 271.694C327.402 284.183 338.907 303.573 339.575 325.922C340.242 348.27 333.404 360.924 337.407 369.799C341.41 378.673 350.994 408.004 347.994 442.76C347.994 442.76 347.369 456.194 348.743 465.685C350.118 475.176 348.869 477.894 350.245 482.692C351.621 487.49 350.87 490.334 346.618 490.334C342.366 490.334 311.896 495.018 295.559 500.111C279.221 505.205 176.558 505.977 145.783 502.648C115.008 499.319 74.257 491.063 74.7487 486.504C75.2403 481.944 79.2507 472.207 80.8766 446.326C82.5024 420.444 82.7927 405.942 86.6271 396.575C90.4613 387.208 84.6276 377.924 87.6277 358.204C90.6278 338.484 94.6305 330.842 94.1311 301.017C93.6318 271.192 96.6318 256.894 97.1312 245.555C97.6306 234.215 97.5183 219.427 95.0176 218.441Z"/>
<path d="M95.0176 218.441C95.0176 218.441 89.391 227.685 87.5155 236.312C85.6399 244.938 56.1288 236.312 56.1288 236.312C56.1288 236.312 11.1121 214.127 4.48866 210.43C-2.13475 206.733 4.48866 194.531 4.48866 194.531L30.9533 108.834C30.9533 108.834 36.6186 87.9163 37.4973 81.3901C38.376 74.8639 47.1247 55.7546 70.8776 45.4015C94.6305 35.0485 146.536 3.74516 146.536 3.74516C146.536 3.74516 152.288 -0.56813 159.167 2.88098C166.046 6.33008 196.929 9.907 225.19 8.67463C253.451 7.44226 266.947 3.00498 270.958 3.25107C274.968 3.49716 377.622 49.7167 388.126 79.2955C398.63 108.874 421.763 198.393 421.763 198.393C421.763 198.393 423.931 203.98 425.931 206.609C427.93 209.238 429.266 216.304 429.767 218.112C430.268 219.921 357.906 244.57 344.41 245.392C344.41 245.392 344.576 239.313 340.24 234.055C335.905 228.797 332.405 226.997 332.405 226.997C332.405 226.997 334.405 259.204 330.903 271.694C327.402 284.183 338.907 303.573 339.575 325.922C340.242 348.27 333.404 360.924 337.407 369.799C341.41 378.673 350.994 408.004 347.994 442.76C347.994 442.76 347.369 456.194 348.743 465.685C350.118 475.176 348.869 477.894 350.245 482.692C351.621 487.49 350.87 490.334 346.618 490.334C342.366 490.334 311.896 495.018 295.559 500.111C279.221 505.205 176.558 505.977 145.783 502.648C115.008 499.319 74.257 491.063 74.7487 486.504C75.2403 481.944 79.2507 472.207 80.8766 446.326C82.5024 420.444 82.7927 405.942 86.6271 396.575C90.4613 387.208 84.6276 377.924 87.6277 358.204C90.6278 338.484 94.6305 330.842 94.1311 301.017C93.6318 271.192 96.6318 256.894 97.1312 245.555C97.6306 234.215 97.5183 219.427 95.0176 218.441Z" fill="#B7EF38"/>
<path d="M207.237 506.191C180.89 506.191 157.418 505.451 145.617 504.175C130.437 502.532 112.274 499.606 98.2138 496.544C90.8297 494.932 84.9728 493.381 80.8056 491.937C75.1925 489.989 72.9918 488.371 73.2144 486.347C73.3576 485.044 73.7409 483.45 74.2712 481.242C75.7209 475.218 78.1423 465.134 79.3346 446.238C79.5726 442.442 79.7836 438.89 79.9791 435.555C81.1404 416.018 81.8295 404.225 85.2051 396.001C86.947 391.72 86.5057 387.264 85.9328 381.623C85.3231 375.613 84.5625 368.135 86.109 357.967C86.9451 352.481 87.8509 347.96 88.7239 343.587C90.9943 332.246 92.953 322.45 92.5949 301.034C92.2446 280.109 93.6246 266.635 94.6331 256.797C95.0705 252.535 95.4479 248.855 95.6008 245.482C96.1195 233.706 95.7131 225.377 94.966 221.709C93.2085 224.982 90.2762 230.984 89.049 236.627C88.7316 238.084 87.8122 239.297 86.3877 240.127C79.0559 244.418 58.0669 238.468 55.6978 237.775L55.5662 237.737L55.4442 237.676C53.6055 236.77 10.3172 215.432 3.73057 211.758C-3.79092 207.561 2.25376 195.457 3.0512 193.938L29.4577 108.413C29.6842 107.577 35.1172 87.4471 35.9553 81.1899C36.9889 73.4828 46.7324 54.2495 70.2569 43.9995C93.2995 33.9574 143.683 3.66513 145.669 2.47091C146.444 1.91959 152.56 -2.15333 159.872 1.51707C166.128 4.65522 196.282 8.40193 225.123 7.14476C243.873 6.32636 256.055 4.09245 263.333 2.75707C267.204 2.04931 269.526 1.61245 271.055 1.71547C273.624 1.8738 300.669 13.8045 327.869 28.9325C352.896 42.8587 383.918 62.7978 389.595 78.7824C399.854 107.674 422.395 194.625 423.249 197.92C423.518 198.601 425.455 203.421 427.176 205.684C428.854 207.889 429.982 212.285 430.909 216.23C431.055 216.852 431.18 217.39 431.267 217.704C431.331 217.943 431.34 218.193 431.294 218.435C431.247 218.678 431.146 218.907 430.998 219.106C430.623 219.623 430.056 220.404 418.048 224.83C410.811 227.5 401.511 230.715 391.86 233.882C382.956 236.804 353.217 246.379 344.497 246.909L342.8 247.012L342.846 245.337C342.846 245.286 342.922 239.731 339.026 235.007C337.56 233.203 335.917 231.545 334.121 230.059C334.529 238.567 335.309 261.688 332.396 272.079C330.654 278.285 332.958 286.643 335.619 296.32C338.05 305.149 340.802 315.155 341.122 325.855C341.439 336.492 340.075 344.993 338.979 351.825C337.764 359.392 336.887 364.86 338.82 369.152C343.777 380.144 352.396 409.687 349.539 442.837C349.508 443.537 348.959 456.418 350.277 465.445C350.788 468.879 351.046 472.346 351.051 475.817C351.082 478.255 351.105 480.014 351.744 482.253C352.768 485.828 352.654 488.261 351.388 489.907C350.403 491.193 348.798 491.845 346.621 491.845C342.264 491.845 312.081 496.546 296.03 501.552C284.9 505.022 239.705 505.874 226.108 506.054C219.721 506.151 213.403 506.191 207.237 506.191ZM76.3364 486.433C77.2848 487.54 83.3315 490.249 100.697 493.93C114.517 496.864 131.435 499.554 145.958 501.124C177.273 504.51 279.38 503.536 295.081 498.644C311.369 493.566 342.146 488.795 346.611 488.795C347.761 488.795 348.531 488.553 348.897 488.074C349.241 487.625 349.671 486.384 348.74 483.102C347.989 480.477 347.966 478.446 347.929 475.872C347.928 472.533 347.683 469.199 347.195 465.895C345.815 456.372 346.406 443.239 346.433 442.684V442.625C349.241 410.084 340.82 381.163 335.981 370.415C333.672 365.295 334.659 359.146 335.909 351.361C336.986 344.657 338.325 336.313 338.015 325.962C337.706 315.611 335.004 305.805 332.621 297.141C329.838 287.03 327.434 278.294 329.4 271.28C332.793 259.178 330.867 227.403 330.848 227.084L330.68 224.37L333.124 225.633C333.277 225.711 336.96 227.649 341.447 233.09C344.691 237.023 345.61 241.35 345.868 243.697C352.623 242.743 369.081 238.117 389.94 231.297C409.562 224.881 424.632 219.301 428.023 217.527C427.979 217.336 427.932 217.145 427.882 216.932C427.302 214.488 426.117 209.404 424.692 207.533C422.585 204.764 420.407 199.181 420.316 198.948L420.262 198.78C420.03 197.885 397.024 108.987 386.663 79.8087C382.449 67.9448 361.799 51.3956 326.942 31.9505C299.157 16.4448 273.105 5.21036 270.819 4.78113C269.658 4.72771 267.24 5.16267 263.9 5.77885C256.545 7.12568 244.227 9.38057 225.259 10.2066C197.269 11.418 165.828 7.94599 158.461 4.24888C152.577 1.29577 147.68 4.82119 147.473 4.96999L147.349 5.05202C146.831 5.36679 95.0899 36.5289 71.5131 46.8057C46.9898 57.4887 39.6599 76.9625 39.0406 81.5905C38.1618 88.1472 32.6881 108.371 32.4597 109.229L32.4462 109.281L5.92934 195.127L5.85579 195.258C5.79772 195.367 0.105311 206.228 5.2519 209.099C11.5985 212.641 54.0816 233.592 56.7023 234.883C62.8961 236.676 79.5997 240.536 84.787 237.502C85.4741 237.1 85.8573 236.621 85.9948 235.995C87.9013 227.22 93.4485 218.042 93.6847 217.657L94.366 216.535L95.597 217.021C97.1744 217.643 98.3067 219.755 98.7616 228.038C99.1022 234.389 98.868 241.774 98.6996 245.625C98.5467 249.088 98.1654 252.81 97.7318 257.117C96.7312 266.879 95.3608 280.25 95.7092 300.994C96.0731 322.742 94.0834 332.677 91.7801 344.19C90.911 348.528 90.0129 353.015 89.1884 358.433C87.7 368.212 88.4374 375.48 89.0316 381.325C89.6471 387.386 90.1329 392.174 88.0929 397.159C84.9167 404.918 84.2315 416.52 83.0953 435.744C82.9018 439.075 82.6889 442.631 82.4508 446.427C81.2469 465.586 78.7733 475.83 77.31 481.95C76.83 483.896 76.4913 485.346 76.3364 486.433Z" fill="#83B512"/>
<path opacity="0.2" d="M49.8748 118.117C49.811 119.266 49.8531 120.419 50.0006 121.561C50.0471 122.133 50.1419 122.696 50.2309 123.26C50.32 123.825 50.4342 124.386 50.5561 124.943L50.7361 125.78C50.798 126.057 50.8793 126.332 50.951 126.608C51.1 127.16 51.2374 127.713 51.3961 128.258L51.9323 129.884C52.0232 130.153 52.1065 130.426 52.2013 130.693L52.5168 131.488L53.1323 133.081C53.3259 133.613 53.593 134.125 53.8214 134.645L54.524 136.202C54.7756 136.711 55.0485 137.213 55.3098 137.719L56.0975 139.233C56.3588 139.739 56.6666 140.224 56.9472 140.718L57.8086 142.194C57.9537 142.438 58.0911 142.688 58.2441 142.929L58.7163 143.644C61.1377 147.515 63.9791 151.095 66.8959 154.646C68.3805 156.447 69.8747 158.242 71.2896 160.104C71.998 161.031 72.7238 161.948 73.4187 162.893L75.4761 165.731C80.8666 173.362 85.6164 181.508 89.083 190.207C89.5281 191.289 89.8978 192.401 90.3082 193.494C90.7185 194.587 91.065 195.705 91.4037 196.825L91.9127 198.5L92.3443 200.198C92.6231 201.331 92.9386 202.454 93.1379 203.605C94.0554 208.183 94.5625 212.828 94.3999 217.454C93.3837 208.252 90.6082 199.454 86.8513 191.128C83.0189 182.826 78.2323 174.98 72.9309 167.473L70.9238 164.671C70.2541 163.736 69.5379 162.833 68.8547 161.91C67.4998 160.052 66.0307 158.274 64.6236 156.45C63.9171 155.54 63.2048 154.583 62.4945 153.652C61.7842 152.721 61.0564 151.794 60.4177 150.805L58.4415 147.883L56.6492 144.846L56.2021 144.083C56.0588 143.827 55.9292 143.562 55.7937 143.303L54.9846 141.736C54.7214 141.21 54.431 140.699 54.191 140.162L53.4846 138.549C53.2523 138.009 53.0104 137.475 52.7897 136.931L52.182 135.277C51.9884 134.724 51.76 134.182 51.6013 133.619L51.0942 131.935L50.8484 131.091C50.7748 130.807 50.7148 130.519 50.6548 130.235L50.2677 128.518C50.1574 127.946 50.0742 127.364 49.9677 126.788C49.9232 126.5 49.8612 126.215 49.8322 125.923L49.7451 125.05C49.4799 122.755 49.4083 120.393 49.8748 118.117Z" fill="#111111"/>
<path opacity="0.2" d="M72.0605 99.6318C72.9684 102.036 73.6077 104.531 73.9671 107.072C74.3528 109.628 74.5096 112.213 74.4355 114.796L74.2961 118.611C74.2709 119.245 74.2671 119.876 74.2574 120.508C74.2477 121.139 74.2419 121.773 74.2574 122.404C74.2574 123.665 74.2903 124.926 74.3193 126.187C74.3348 126.816 74.3774 127.444 74.4064 128.074C74.4354 128.703 74.4645 129.331 74.5206 129.958C75.2444 139.998 77.3945 149.887 80.9079 159.337C81.1285 159.923 81.3163 160.531 81.5582 161.101L82.255 162.834L82.9518 164.566L83.0389 164.781L83.1279 164.972L83.3447 165.413L83.7667 166.292C84.8609 168.636 85.8874 171.002 86.8461 173.389C88.7775 178.163 90.4363 183.041 91.8146 187.998C92.4959 190.478 93.1327 192.971 93.6495 195.491C94.1663 198.011 94.5883 200.551 94.9096 203.099C95.2274 205.649 95.4064 208.215 95.4457 210.783C95.4917 213.344 95.352 215.904 95.0276 218.445C95.017 215.902 94.869 213.362 94.5844 210.835C94.447 209.576 94.267 208.321 94.085 207.069L93.7637 205.198C93.6573 204.574 93.5198 203.956 93.3998 203.336C92.392 198.379 91.0852 193.486 89.4862 188.683C87.8913 183.883 86.1003 179.151 84.1131 174.488C83.1183 172.162 82.0886 169.848 80.9853 167.582L80.5711 166.735L80.3621 166.323L80.2382 166.075L80.1453 165.848L79.3943 164.034L78.651 162.217C78.3936 161.613 78.2001 161.002 77.9717 160.394C76.1765 155.532 74.7752 150.538 73.7812 145.458C72.7965 140.385 72.2339 135.241 72.0993 130.077C72.0451 127.499 72.0509 124.926 72.2212 122.352C72.3915 119.779 72.6393 117.217 72.918 114.703C73.1907 112.199 73.2555 109.677 73.1115 107.163C73.0535 105.902 72.9315 104.64 72.7554 103.384C72.5952 102.122 72.3632 100.869 72.0605 99.6318Z" fill="#111111"/>
<path opacity="0.2" d="M377.814 126.867C378.281 129.143 378.211 131.505 377.983 133.823L377.894 134.696C377.865 134.986 377.803 135.269 377.758 135.561C377.658 136.133 377.565 136.717 377.458 137.291L377.071 139.008C377.003 139.294 376.943 139.58 376.878 139.864L376.632 140.707L376.125 142.392C375.956 142.964 375.738 143.497 375.544 144.05L374.934 145.704C374.714 146.247 374.472 146.782 374.241 147.321L373.533 148.935C373.293 149.471 373.003 149.983 372.739 150.507L371.932 152.075C371.795 152.335 371.665 152.6 371.522 152.856L371.075 153.619L369.283 156.656L367.308 159.578C366.668 160.567 365.936 161.486 365.23 162.425C364.523 163.363 363.809 164.313 363.101 165.223C361.695 167.047 360.226 168.825 358.871 170.683C358.186 171.606 357.47 172.509 356.8 173.443L354.774 176.242C349.472 183.741 344.686 191.588 340.853 199.897C337.091 208.217 334.313 217.015 333.305 226.224C333.144 221.597 333.651 216.945 334.569 212.374C334.762 211.229 335.082 210.1 335.362 208.967L335.794 207.269L336.301 205.594C336.64 204.474 336.975 203.352 337.397 202.263C337.819 201.174 338.171 200.058 338.622 198.976C342.088 190.277 346.838 182.131 352.231 174.5L354.286 171.662C354.975 170.708 355.699 169.8 356.415 168.873C357.828 167.011 359.318 165.216 360.807 163.415C363.724 159.865 366.565 156.284 368.986 152.413L369.459 151.698C369.612 151.457 369.749 151.207 369.894 150.963L370.756 149.487C371.036 148.993 371.346 148.508 371.605 148.002L372.393 146.488C372.654 145.982 372.927 145.481 373.181 144.962L373.883 143.407C374.11 142.886 374.369 142.375 374.571 141.843L375.186 140.25L375.502 139.454C375.596 139.187 375.681 138.914 375.771 138.645L376.307 137.02C376.465 136.474 376.603 135.921 376.752 135.37C376.823 135.093 376.905 134.818 376.969 134.542L377.149 133.704C377.271 133.147 377.396 132.588 377.472 132.022C377.547 131.455 377.665 130.891 377.704 130.322C377.846 129.176 377.883 128.02 377.814 126.867Z" fill="#111111"/>
<path opacity="0.2" d="M355.628 108.382C355.325 109.618 355.092 110.87 354.931 112.132C354.755 113.388 354.635 114.651 354.575 115.911C354.431 118.426 354.496 120.947 354.768 123.451C355.047 125.965 355.316 128.538 355.465 131.101C355.614 133.663 355.641 136.251 355.589 138.825C355.454 143.989 354.891 149.134 353.905 154.208C352.911 159.285 351.51 164.276 349.715 169.134C349.488 169.743 349.293 170.353 349.035 170.958L348.292 172.774L347.549 174.588L347.456 174.815L347.332 175.063L347.125 175.481L346.711 176.328C345.608 178.594 344.582 180.907 343.583 183.234C341.592 187.886 339.801 192.618 338.21 197.429C336.612 202.233 335.305 207.126 334.296 212.082C334.176 212.702 334.039 213.32 333.934 213.944L333.613 215.815C333.419 217.067 333.251 218.32 333.112 219.581C332.828 222.108 332.68 224.648 332.669 227.191C332.345 224.65 332.205 222.09 332.25 219.53C332.29 216.961 332.469 214.396 332.787 211.845C333.108 209.297 333.538 206.76 334.047 204.238C334.556 201.716 335.208 199.224 335.883 196.744C337.26 191.787 338.918 186.909 340.85 182.135C341.81 179.744 342.837 177.379 343.931 175.038L344.351 174.159L344.568 173.718L344.657 173.528L344.744 173.312L345.441 171.58L346.14 169.848C346.382 169.275 346.57 168.669 346.788 168.083C350.302 158.633 352.452 148.744 353.176 138.705C353.232 138.077 353.261 137.449 353.292 136.82C353.323 136.19 353.361 135.563 353.377 134.933C353.406 133.672 353.439 132.411 353.441 131.15C353.45 130.519 353.441 129.887 353.441 129.254C353.441 128.621 353.427 127.991 353.404 127.358L353.265 123.542C353.19 120.959 353.346 118.374 353.731 115.818C354.088 113.279 354.724 110.785 355.628 108.382Z" fill="#111111"/>
<path opacity="0.2" d="M129.156 199.215C128.747 200.684 128.413 202.168 128.116 203.658C127.82 205.148 127.536 206.641 127.3 208.139C126.816 211.137 126.416 214.143 126.1 217.157C125.96 218.666 125.778 220.169 125.67 221.682L125.476 223.946L125.337 226.212C125.143 229.236 125 232.26 124.927 235.287C124.826 241.375 124.439 247.497 123.903 253.584C123.318 259.671 122.53 265.737 121.538 271.783C120.492 277.814 119.267 283.823 117.719 289.75C117.318 291.23 116.923 292.713 116.48 294.184C116.261 294.92 116.054 295.658 115.828 296.391L115.131 298.586L114.784 299.685L114.411 300.775L113.654 302.963C113.116 304.403 112.58 305.843 112.009 307.27C109.708 312.972 107.044 318.562 103.686 323.745L102.411 325.678L101.056 327.549C100.827 327.86 100.607 328.175 100.372 328.482L99.6447 329.382C99.155 329.981 98.6769 330.588 98.1698 331.166C96.1436 333.485 93.9079 335.618 91.4902 337.538C92.549 336.422 93.6677 335.38 94.6277 334.19C95.6594 333.066 96.5633 331.838 97.4943 330.639C97.9472 330.031 98.3595 329.39 98.8008 328.774L99.4511 327.843C99.6601 327.526 99.8556 327.202 100.059 326.889L101.263 324.964L102.378 322.986L102.937 322L103.46 320.992L104.503 318.982L105.471 316.929L105.953 315.904L106.402 314.865L107.298 312.784L108.146 310.685C108.726 309.291 109.218 307.862 109.742 306.446C111.745 300.741 113.454 294.939 114.86 289.063C116.313 283.197 117.494 277.258 118.487 271.289C119.534 265.33 120.318 259.322 121.003 253.306C121.343 250.295 121.638 247.281 121.89 244.263C122.138 241.237 122.325 238.239 122.536 235.188C122.647 233.662 122.73 232.136 122.883 230.61C123.036 229.084 123.144 227.557 123.339 226.045L123.607 223.767L123.92 221.493C124.114 219.978 124.371 218.469 124.611 216.958C125.153 213.948 125.736 210.945 126.475 207.977C127.214 205.008 128.024 202.053 129.156 199.215Z" fill="#111111"/>
<path opacity="0.2" d="M298.068 224.662C299.203 227.501 300.019 230.456 300.766 233.418C301.514 236.381 302.088 239.389 302.63 242.402C302.87 243.911 303.126 245.42 303.323 246.936L303.635 249.208L303.904 251.486C304.098 253.012 304.225 254.529 304.361 256.051C304.496 257.574 304.597 259.104 304.707 260.63C304.916 263.682 305.106 266.681 305.352 269.705C305.598 272.728 305.901 275.737 306.238 278.747C306.918 284.764 307.7 290.766 308.754 296.731C309.745 302.7 310.926 308.639 312.38 314.507C313.788 320.382 315.496 326.183 317.499 331.888C318.022 333.303 318.517 334.732 319.096 336.127L319.942 338.225L320.84 340.304L321.287 341.346L321.769 342.37L322.737 344.421L323.78 346.434L324.303 347.441L324.862 348.425L325.977 350.404L327.181 352.329C327.374 352.649 327.579 352.975 327.789 353.282L328.439 354.215C328.88 354.832 329.292 355.471 329.747 356.079C330.676 357.277 331.582 358.506 332.612 359.631C333.58 360.82 334.693 361.861 335.749 362.977C333.332 361.058 331.096 358.926 329.07 356.608C328.559 356.035 328.085 355.421 327.597 354.824L326.869 353.922C326.635 353.616 326.412 353.3 326.184 352.991L324.829 351.117L323.555 349.187C320.197 344.002 317.532 338.414 315.233 332.712C314.652 331.283 314.124 329.85 313.587 328.402L312.836 326.222L312.465 325.133L312.116 324.034L311.422 321.838C311.193 321.105 310.986 320.367 310.769 319.631C310.324 318.162 309.931 316.68 309.531 315.197C307.969 309.264 306.749 303.253 305.696 297.223C304.696 291.183 303.908 285.117 303.331 279.026C302.795 272.94 302.408 266.816 302.305 260.727C302.234 257.699 302.083 254.676 301.897 251.652L301.756 249.386L301.562 247.121C301.454 245.609 301.272 244.107 301.132 242.596C300.815 239.582 300.416 236.576 299.934 233.579C299.69 232.081 299.425 230.585 299.115 229.097C298.806 227.609 298.477 226.131 298.068 224.662Z" fill="#111111"/>
<path opacity="0.2" d="M291.75 316.393C293.248 319.063 294.448 321.889 295.58 324.731C296.713 327.574 297.677 330.483 298.61 333.398C299.047 334.865 299.5 336.328 299.893 337.806L300.502 340.019L301.068 342.244C301.455 343.724 301.788 345.218 302.123 346.712C302.457 348.205 302.757 349.705 303.069 351.202C303.679 354.201 304.259 357.152 304.904 360.119C305.548 363.085 306.241 366.033 306.973 368.97C308.438 374.85 310.006 380.707 311.829 386.483C313.598 392.275 315.551 398.011 317.766 403.643C319.932 409.288 322.387 414.822 325.121 420.222C325.827 421.558 326.504 422.914 327.263 424.229L328.378 426.205L329.539 428.153L330.12 429.128L330.734 430.081L331.961 431.989L333.26 433.851L333.912 434.784L334.595 435.69L335.962 437.508L337.409 439.263C337.651 439.555 337.889 439.851 338.137 440.139L338.911 440.978C339.43 441.533 339.924 442.123 340.46 442.661C341.54 443.731 342.589 444.832 343.768 445.814C344.877 446.873 346.123 447.762 347.319 448.733C344.669 447.138 342.172 445.309 339.858 443.269C339.277 442.762 338.724 442.22 338.162 441.69L337.32 440.89C337.047 440.616 336.788 440.331 336.519 440.053L334.922 438.37L333.405 436.619C329.392 431.907 326.015 426.699 322.982 421.358C322.227 420.022 321.507 418.654 320.783 417.294L319.753 415.23L319.24 414.196L318.751 413.153L317.771 411.064C317.45 410.365 317.148 409.66 316.835 408.965C316.2 407.563 315.615 406.144 315.023 404.726C312.7 399.043 310.691 393.24 308.854 387.395C307.066 381.533 305.485 375.619 304.112 369.653C302.779 363.688 301.596 357.664 300.686 351.641C300.216 348.648 299.668 345.67 299.086 342.696L298.648 340.466L298.166 338.245C297.86 336.759 297.481 335.292 297.144 333.814C296.432 330.864 295.64 327.935 294.767 325.025C294.328 323.571 293.869 322.121 293.366 320.687C292.863 319.252 292.35 317.793 291.75 316.393Z" fill="#111111"/>
<path opacity="0.2" d="M143.343 260.225C142.745 261.629 142.216 263.056 141.728 264.496C141.241 265.936 140.761 267.382 140.327 268.836C139.455 271.746 138.663 274.675 137.95 277.623C137.614 279.101 137.234 280.568 136.928 282.054L136.446 284.275L136.009 286.507C135.428 289.479 134.879 292.459 134.408 295.45C133.504 301.475 132.316 307.497 130.982 313.463C129.603 319.425 128.022 325.339 126.24 331.204C124.402 337.049 122.402 342.852 120.072 348.537C119.479 349.955 118.893 351.374 118.26 352.774C117.947 353.476 117.645 354.182 117.321 354.873L116.344 356.962L115.854 358.005L115.341 359.039L114.312 361.105C113.588 362.464 112.868 363.826 112.113 365.167C109.08 370.527 105.702 375.726 101.69 380.428L100.173 382.18L98.5738 383.862C98.3067 384.143 98.0454 384.434 97.7724 384.7L96.9324 385.501C96.3692 386.031 95.8195 386.573 95.2369 387.08C92.9225 389.12 90.4251 390.948 87.7754 392.542C88.9696 391.571 90.2161 390.682 91.3271 389.625C92.4884 388.643 93.5549 387.54 94.6349 386.47C95.1653 385.924 95.6588 385.342 96.1834 384.789L96.9576 383.948C97.2053 383.662 97.4415 383.364 97.6853 383.072L99.1331 381.317L100.5 379.499L101.183 378.593L101.833 377.662L103.134 375.8L104.361 373.893L104.975 372.939L105.555 371.964L106.717 370.016L107.833 368.042C108.59 366.733 109.27 365.371 109.974 364.035C112.709 358.635 115.163 353.101 117.329 347.456C119.543 341.822 121.496 336.086 123.265 330.286C125.089 324.51 126.656 318.65 128.122 312.776C128.851 309.834 129.54 306.884 130.191 303.924C130.833 300.956 131.416 298.01 132.026 295.008C132.335 293.508 132.622 292.007 132.972 290.517C133.322 289.027 133.632 287.527 134.025 286.049L134.592 283.825L135.2 281.61C135.587 280.131 136.048 278.668 136.483 277.203C137.418 274.286 138.392 271.383 139.514 268.535C140.637 265.686 141.845 262.893 143.343 260.225Z" fill="#111111"/>
<path opacity="0.2" d="M347.319 475.368C336.517 479.132 325.556 482.444 314.512 485.479C303.448 488.445 292.296 491.171 280.934 493.028C278.104 493.537 275.238 493.879 272.381 494.27C270.948 494.432 269.512 494.546 268.078 494.687L265.926 494.878L263.775 495.027L259.473 495.317C258.038 495.418 256.606 495.468 255.172 495.546L250.883 495.78L246.582 495.941C235.116 496.336 223.654 496.454 212.193 496.513C200.732 496.513 189.275 496.414 177.822 496.217L169.23 496.027L164.935 495.924L163.865 495.897C163.507 495.885 163.187 495.897 162.798 495.864C161.924 495.796 161.262 495.712 160.538 495.635C154.83 495.004 149.151 494.283 143.47 493.516C132.115 492.015 120.787 490.298 109.486 488.365C106.662 487.888 103.848 487.343 101.03 486.839L96.8121 486.017C95.4069 485.736 93.9997 485.477 92.6003 485.164C86.9873 483.987 81.4149 482.671 75.9141 481.093C78.7128 481.698 81.4981 482.335 84.3182 482.827C87.1208 483.388 89.9448 483.846 92.7629 484.329C95.5811 484.811 98.4089 485.229 101.233 485.664C104.065 486.066 106.888 486.505 109.726 486.877C112.563 487.249 115.387 487.671 118.225 488.022C121.062 488.373 123.896 488.756 126.741 489.102L135.258 490.141L143.774 491.128L152.3 492.059C155.141 492.362 157.987 492.671 160.816 492.949L162.827 493.14C163.153 493.159 163.549 493.152 163.907 493.159L164.982 493.173L169.273 493.222L177.857 493.297C189.3 493.403 200.743 493.476 212.182 493.43C223.623 493.43 235.062 493.325 246.485 493.031L250.769 492.927L255.048 492.768C256.473 492.709 257.903 492.677 259.326 492.595L263.595 492.36L265.724 492.24L267.854 492.068L272.112 491.719C274.932 491.393 277.76 491.116 280.572 490.67L282.686 490.365L283.74 490.21L284.795 490.033L289.009 489.311C290.414 489.086 291.81 488.785 293.213 488.526C294.616 488.266 296.018 488.014 297.413 487.715C300.208 487.142 303.007 486.57 305.792 485.941C308.583 485.34 311.361 484.674 314.142 484.033C325.254 481.408 336.312 478.489 347.319 475.368Z" fill="#111111"/>
<path opacity="0.2" d="M136.273 9.84961C136.703 11.7418 137.28 13.5984 138 15.4029C138.688 17.2102 139.482 18.9765 140.379 20.6929C142.137 24.1263 144.26 27.3659 146.712 30.3573C151.551 36.3608 157.696 41.2311 164.468 44.8806L167.048 46.1816C167.918 46.5994 168.814 46.9599 169.692 47.3529C170.138 47.5437 170.569 47.7516 171.022 47.9252L172.377 48.4365L173.732 48.9478L174.407 49.2034C174.636 49.2816 174.868 49.3503 175.098 49.4228L177.862 50.2946C178.319 50.4491 178.789 50.5655 179.258 50.6761L180.663 51.0367C182.523 51.5613 184.435 51.8951 186.33 52.2843L187.043 52.4274L187.761 52.5361L189.199 52.7536C190.167 52.8967 191.113 53.0626 192.075 53.1885L194.978 53.49C195.946 53.5873 196.914 53.7132 197.882 53.7475L200.785 53.9135L202.24 53.9974L203.696 54.0089C205.631 54.0089 207.581 54.0928 209.516 53.965C217.275 53.7565 224.979 52.6123 232.456 50.5578C234.312 50.0103 236.186 49.5086 238.003 48.8409L239.376 48.3678C239.834 48.2114 240.293 48.053 240.73 47.8661L243.429 46.7921L244.108 46.5193L244.77 46.2197L246.092 45.6207C246.975 45.2201 247.863 44.8348 248.72 44.3865L251.32 43.0873L253.863 41.6833C260.623 37.8353 266.907 33.2259 272.587 27.9479C275.45 25.3111 278.161 22.5176 280.705 19.5807C281.981 18.1118 283.221 16.6086 284.396 15.0576C285.571 13.5067 286.736 11.9404 287.772 10.2884C285.917 13.7292 283.78 17.0155 281.385 20.1149C278.995 23.234 276.418 26.2084 273.666 29.0219C270.894 31.8318 267.958 34.4804 264.874 36.9541L262.525 38.7721C261.727 39.3578 260.91 39.9167 260.103 40.4986C259.296 41.0804 258.462 41.6108 257.632 42.1564C256.801 42.702 255.975 43.2514 255.115 43.7455C251.742 45.8439 248.167 47.6314 244.53 49.2606L241.77 50.4186C241.313 50.6208 240.845 50.8001 240.374 50.9604L238.969 51.4754C237.107 52.2004 235.185 52.7555 233.279 53.3545L232.563 53.5758L231.837 53.7666L230.381 54.1348L228.928 54.4991C228.442 54.6212 227.96 54.7509 227.466 54.8387L224.524 55.4225C224.033 55.5159 223.543 55.6266 223.049 55.7067L221.565 55.9242L218.596 56.3572C217.605 56.4869 216.606 56.548 215.611 56.6567C214.616 56.7655 213.621 56.8647 212.623 56.9143L209.626 57.0383C207.627 57.1565 205.63 57.0631 203.626 57.0383L202.128 57.0154L200.634 56.9219L197.647 56.7311C196.651 56.6892 195.66 56.5537 194.667 56.4488L191.688 56.1188C190.699 55.9833 189.714 55.8078 188.725 55.6552L187.246 55.411L186.506 55.2851L185.773 55.1249C183.82 54.6861 181.857 54.3045 179.937 53.7284L178.489 53.3278C178.007 53.1962 177.522 53.0684 177.051 52.8986L174.204 51.9447C170.443 50.5731 166.76 48.9649 163.295 46.958C159.824 44.9682 156.561 42.6441 153.554 40.0197C150.562 37.3892 147.863 34.4519 145.502 31.2577C143.16 28.0778 141.181 24.6524 139.603 21.0439C138.811 19.2516 138.127 17.4144 137.557 15.5422C136.982 13.6798 136.553 11.7767 136.273 9.84961Z" fill="#111111"/>
<path opacity="0.5" d="M273.952 4.25412C272.123 6.95574 270.143 9.55545 268.022 12.0413C265.916 14.5442 263.684 16.946 261.373 19.2753C259.062 21.6046 256.623 23.8175 254.101 25.9388C251.579 28.0602 248.928 30.0366 246.204 31.9176C243.461 33.7866 240.612 35.4993 237.671 37.0473C236.939 37.4422 236.178 37.7875 235.433 38.1595L234.309 38.7089C233.933 38.8883 233.546 39.0447 233.163 39.2145L230.863 40.2084L228.514 41.0955C227.739 41.4045 226.936 41.6678 226.133 41.9043C225.33 42.1409 224.538 42.4232 223.723 42.6292C222.091 43.0356 220.469 43.482 218.807 43.7567L217.564 43.9913L216.945 44.1077L216.316 44.1878L213.8 44.5045C213.382 44.5629 212.961 44.6005 212.54 44.6171L211.274 44.6953C210.432 44.7353 209.59 44.8307 208.744 44.8002L206.208 44.7678C205.997 44.7678 205.787 44.7678 205.576 44.7544L204.945 44.7029L203.681 44.598L202.419 44.4931L201.788 44.4396L201.166 44.3557L198.687 44.0142C195.397 43.4953 192.106 42.8887 188.883 41.9768C185.655 41.1041 182.493 40.0083 179.421 38.6975C178.646 38.3923 177.89 38.0222 177.131 37.6712L175.995 37.1408L174.884 36.5685C174.146 36.1736 173.401 35.8054 172.689 35.359L171.609 34.7219L171.071 34.4052L170.544 34.0618C167.713 32.2843 165.056 30.2502 162.609 27.9858C160.176 25.7194 157.977 23.2222 156.041 20.5305C155.554 19.8629 155.118 19.1589 154.661 18.4721C154.243 17.7587 153.79 17.0719 153.409 16.3393C152.602 14.9036 151.891 13.4175 151.28 11.8906C150.664 10.3708 150.164 8.80786 149.784 7.21486C149.395 5.63047 149.196 4.00687 149.189 2.37695C149.363 3.98203 149.715 5.56346 150.239 7.09277C150.737 8.62061 151.349 10.1101 152.07 11.5491C152.78 12.9911 153.573 14.3923 154.444 15.7461C154.861 16.4309 155.348 17.0719 155.799 17.7358C156.289 18.3729 156.752 19.0254 157.266 19.6435C161.279 24.6473 166.284 28.8004 171.814 32.0435C177.382 35.2493 183.386 37.6562 189.644 39.1916L190.817 39.4815C191.204 39.5788 191.591 39.6857 191.992 39.762L194.365 40.2427C195.151 40.422 195.954 40.5251 196.746 40.67C197.537 40.815 198.335 40.96 199.138 41.0516L201.546 41.3683L202.148 41.4446L202.744 41.4884L203.936 41.5781L205.13 41.6697L205.726 41.7135C205.92 41.725 206.125 41.7135 206.325 41.7135L208.717 41.7288C209.514 41.7651 210.31 41.6773 211.107 41.6468L212.303 41.5819C212.702 41.5705 213.1 41.538 213.496 41.4846L215.876 41.2004L216.471 41.1317L217.051 41.0249L218.232 40.8093C219.813 40.5613 221.362 40.1454 222.918 39.7715C223.692 39.5807 224.455 39.3175 225.223 39.0943L226.384 38.749C226.772 38.6403 227.143 38.4895 227.523 38.3675L229.795 37.5681L232.029 36.6601C232.398 36.5056 232.776 36.3625 233.141 36.1984L234.237 35.691C234.965 35.3476 235.706 35.0328 236.422 34.6646L238.573 33.5601C239.295 33.2033 239.98 32.7741 240.69 32.3945C242.115 31.6314 243.475 30.7634 244.861 29.9336C250.328 26.4395 255.498 22.5133 260.32 18.1936C262.759 16.0494 265.099 13.7945 267.381 11.4766C268.527 10.332 269.636 9.134 270.735 7.93406C271.835 6.73412 272.913 5.50366 273.952 4.25412Z" fill="#111111"/>
<path opacity="0.5" d="M154.33 16.6909C158.826 16.5478 163.332 16.9045 167.807 17.4539C170.041 17.7477 172.273 18.093 174.493 18.5127C175.607 18.7035 176.705 18.961 177.812 19.1899C178.344 19.2872 178.859 19.4017 179.399 19.4837C179.939 19.5658 180.471 19.6516 181.019 19.7126C185.386 20.2163 189.845 20.4757 194.293 20.6302C198.741 20.7848 203.208 20.8878 207.672 20.9297C216.601 21.0213 225.531 20.9514 234.463 20.7199L237.812 20.6112L241.156 20.4757C243.388 20.3803 245.62 20.2716 247.844 20.1094C248.96 20.0484 250.069 19.953 251.184 19.8672C252.299 19.7813 253.406 19.6764 254.515 19.539C256.745 19.324 258.957 18.9691 261.141 18.4765C260.618 18.6672 260.094 18.879 259.561 19.0602L257.949 19.5638C256.861 19.8538 255.77 20.1362 254.659 20.3784C252.46 20.8725 250.238 21.2541 248.014 21.6051C245.79 21.9561 243.562 22.2155 241.317 22.4788C239.072 22.7421 236.838 22.9214 234.597 23.1102C225.628 23.8294 216.633 24.0851 207.637 23.9954C203.14 23.9382 198.64 23.8046 194.144 23.5223C191.895 23.364 189.646 23.2018 187.397 22.971C185.148 22.7401 182.901 22.4769 180.65 22.0686C180.086 21.9771 179.521 21.8474 178.958 21.7367C178.395 21.6261 177.824 21.4639 177.26 21.3285C176.186 21.0461 175.12 20.739 174.044 20.4643C171.897 19.892 169.725 19.3979 167.548 18.9286C163.193 17.9773 158.787 17.2314 154.33 16.6909Z" fill="#111111"/>
</svg>
