<svg width="362" height="502" viewBox="0 0 362 502" fill="none" xmlns="http://www.w3.org/2000/svg">
<path d="M62.7981 146.555H299.012C296.098 93.969 308.921 31.4359 310.512 11.9624C303.132 10.2408 276.093 2.95382 269.5 1.5C262.006 52.2114 100.013 52.7114 92.5 2C85.9066 3.45382 61.5139 10.2408 54.2305 11.9624C55.8213 31.9141 67.4748 94.6194 62.7981 146.555Z" fill="#303030"/>
<path d="M355.546 203.33C299.5 143 308.54 46.0689 310.878 12.612C303.403 10.5461 276.101 3.63317 269.411 1.87329C251 61.4998 221.5 113.5 180.85 114.857C125.591 114.857 99.9165 62.9335 92.2881 1.87329C85.5988 3.61404 58.2962 10.527 50.8211 12.612C53.1594 46.0689 58.5 169.5 6.15321 203.33C11.4625 234.07 1.26566 416.371 0.958984 489.636C0.958984 495.374 86.3566 499.985 169.119 500.386H192.58C275.362 499.985 360.644 495.317 360.644 489.636H360.759C360.434 416.409 350.256 234.07 355.546 203.33Z" fill="black"/>
<path d="M181.002 501.305H169.061C128.811 501.113 91.531 499.908 63.9306 497.9C23.68 494.992 0.402461 491.759 0.134124 490.076C0.055038 489.949 0.00896885 489.804 0 489.655C0.115002 462.339 1.59083 420.293 3.14335 375.798C5.78839 300.525 8.52929 222.765 5.21341 203.502C5.14764 203.317 5.21341 202.928 5.21341 202.928C5.21341 202.928 59 174.5 49.7663 12.7082C49.7505 12.4983 49.8089 12.2895 49.9315 12.1182C50.0541 11.9469 50.233 11.824 50.4371 11.7708C57.9313 9.70488 65.1765 7.81109 71.9041 6.03208C92.8245 0.499964 83.5 1.99986 91 1.49991C91.9741 1.43498 93.5 1.49997 93.5 1.49997C101.167 62.7133 126.952 113.901 180.696 113.901C234.44 113.901 269 1.49986 269 1.49986C269 1.49986 269.256 1.15204 269.5 1.00002C269.741 0.850155 289.487 6.03208 289.487 6.03208C289.487 6.03208 303.479 9.68575 310.973 11.7708C311.172 11.8308 311.345 11.9561 311.463 12.1262C311.581 12.2964 311.638 12.5015 311.625 12.7082C307 127 328.676 169.5 356.197 202.948C356.254 203.128 356.254 203.322 356.197 203.502C352.9 222.631 355.622 300.525 358.267 375.798C359.839 420.293 361.296 462.339 361.43 489.655C361.428 489.841 361.368 490.022 361.257 490.172C360.874 491.893 336.926 495.069 297.48 497.823C269.88 499.736 232.542 501.037 192.368 501.228H180.868L181.002 501.305ZM1.91669 489.234C2.00037 489.352 2.04703 489.492 2.05082 489.636C3.105 492.467 61.6306 498.971 169.196 499.487H169.886H180.792H181.079H191.985H192.656C300.221 498.971 358.766 492.467 359.82 489.598C359.816 489.449 359.856 489.303 359.935 489.177C359.801 461.86 358.344 420.063 356.791 375.837C354.146 300.85 351.425 223.339 354.683 203.483C338 180 327.5 192 309.996 98.4259C308.071 70.0835 308.071 41.6435 309.996 13.3012C303.134 11.3882 276.229 4.12573 270 2.49976C249 65.9998 219.5 115.776 180.983 115.776C126.683 115.776 100.05 64.5001 92 2.99986C85.7707 4.62583 58.8322 11.4074 51.9705 13.3012C53.8834 41.644 53.8834 70.0831 51.9705 98.4259C38.5 184 29 184.5 7.28342 203.483C10.5418 223.339 7.8201 300.85 5.19423 375.837C3.39253 420.121 1.97418 461.937 1.84001 489.234H1.91669Z" fill="#1C1C1C"/>
<path opacity="0.2" d="M70.3804 178C69.972 179.469 69.6371 180.953 69.341 182.443C69.0449 183.933 68.7604 185.427 68.5242 186.924C68.0403 189.922 67.6403 192.928 67.3242 195.942C67.1848 197.451 67.0029 198.954 66.8945 200.467L66.7009 202.731L66.5616 204.998C66.368 208.021 66.2248 211.045 66.1512 214.073C66.0506 220.16 65.6635 226.282 65.1274 232.369C64.5428 238.456 63.7544 244.522 62.7621 250.569C61.7169 256.599 60.4917 262.608 58.9433 268.535C58.5427 270.016 58.1478 271.498 57.7046 272.969C57.4858 273.705 57.2787 274.443 57.0523 275.176L56.3555 277.372L56.009 278.47L55.6355 279.56L54.8787 281.748C54.3406 283.188 53.8045 284.628 53.2335 286.055C50.9321 291.758 48.2688 297.347 44.9107 302.53L43.6351 304.463L42.2803 306.334C42.0519 306.645 41.8312 306.96 41.597 307.267L40.8693 308.167C40.3796 308.767 39.9015 309.373 39.3944 309.951C37.3682 312.27 35.1325 314.403 32.7148 316.323C33.7736 315.207 34.8923 314.165 35.8524 312.975C36.884 311.851 37.7879 310.623 38.7189 309.425C39.1718 308.816 39.5841 308.175 40.0254 307.559L40.6757 306.628C40.8847 306.311 41.0802 305.987 41.2835 305.674L42.4874 303.749L43.6022 301.771L44.1616 300.785L44.6842 299.777L45.7275 297.767L46.6952 295.714L47.1772 294.69L47.6262 293.65L48.5224 291.569L49.3701 289.47C49.9508 288.076 50.4424 286.647 50.967 285.231C52.9701 279.526 54.6781 273.724 56.0845 267.848C57.5381 261.982 58.7188 256.044 59.7117 250.074C60.7588 244.115 61.5427 238.108 62.2279 232.091C62.5673 229.08 62.8628 226.066 63.1144 223.048C63.3621 220.023 63.5499 217.024 63.7609 213.973C63.8712 212.447 63.9544 210.921 64.1073 209.395C64.2602 207.869 64.3686 206.343 64.5641 204.83L64.8312 202.552L65.1448 200.278C65.3383 198.763 65.5957 197.254 65.8358 195.743C66.3777 192.733 66.9603 189.73 67.6997 186.762C68.4391 183.794 69.2481 180.839 70.3804 178Z" fill="white"/>
<path opacity="0.2" d="M289.293 203.447C290.427 206.286 291.244 209.241 291.991 212.204C292.738 215.166 293.313 218.175 293.855 221.187C294.095 222.696 294.351 224.205 294.548 225.721L294.86 227.994L295.129 230.271C295.322 231.797 295.45 233.314 295.585 234.836C295.721 236.359 295.822 237.889 295.932 239.415C296.141 242.467 296.331 245.466 296.576 248.49C296.822 251.513 297.126 254.522 297.463 257.532C298.142 263.549 298.924 269.551 299.979 275.516C300.97 281.485 302.151 287.424 303.604 293.292C305.012 299.167 306.721 304.968 308.724 310.673C309.246 312.088 309.742 313.517 310.321 314.912L311.166 317.01L312.065 319.09L312.512 320.131L312.994 321.156L313.961 323.206L315.005 325.219L315.527 326.226L316.087 327.211L317.201 329.189L318.405 331.114C318.599 331.434 318.804 331.76 319.013 332.068L319.663 333C320.105 333.617 320.517 334.256 320.972 334.864C321.901 336.062 322.807 337.291 323.836 338.416C324.804 339.605 325.917 340.647 326.974 341.763C324.556 339.843 322.321 337.711 320.294 335.393C319.783 334.82 319.309 334.206 318.822 333.609L318.094 332.707C317.86 332.401 317.637 332.085 317.409 331.776L316.054 329.902L314.78 327.972C311.422 322.787 308.757 317.199 306.457 311.497C305.877 310.068 305.348 308.635 304.812 307.188L304.061 305.007L303.689 303.918L303.341 302.819L302.646 300.623C302.418 299.891 302.211 299.152 301.994 298.416C301.549 296.947 301.156 295.465 300.755 293.982C299.193 288.05 297.974 282.038 296.921 276.008C295.921 269.968 295.132 263.903 294.556 257.811C294.02 251.725 293.632 245.602 293.53 239.512C293.458 236.485 293.307 233.461 293.121 230.437L292.98 228.171L292.787 225.907C292.678 224.394 292.496 222.892 292.357 221.381C292.039 218.367 291.64 215.361 291.159 212.364C290.915 210.866 290.65 209.371 290.34 207.883C290.03 206.395 289.701 204.916 289.293 203.447Z" fill="white"/>
<path opacity="0.2" d="M282.975 295.178C284.473 297.849 285.673 300.674 286.805 303.516C287.937 306.359 288.901 309.268 289.834 312.183C290.272 313.65 290.724 315.113 291.117 316.592L291.727 318.804L292.292 321.029C292.679 322.509 293.012 324.003 293.347 325.497C293.682 326.99 293.982 328.49 294.294 329.987C294.903 332.986 295.484 335.937 296.129 338.904C296.773 341.87 297.466 344.818 298.198 347.756C299.663 353.635 301.231 359.492 303.054 365.268C304.823 371.06 306.776 376.796 308.99 382.428C311.157 388.073 313.612 393.607 316.345 399.008C317.052 400.343 317.729 401.699 318.488 403.014L319.603 404.99L320.764 406.938L321.345 407.913L321.958 408.867L323.185 410.774L324.484 412.636L325.136 413.569L325.82 414.475L327.186 416.293L328.634 418.048C328.876 418.34 329.114 418.636 329.362 418.924L330.136 419.763C330.655 420.318 331.148 420.908 331.684 421.446C332.764 422.516 333.813 423.617 334.992 424.599C336.101 425.658 337.348 426.547 338.544 427.518C335.894 425.923 333.397 424.095 331.082 422.054C330.502 421.547 329.948 421.005 329.387 420.475L328.545 419.676C328.272 419.401 328.013 419.117 327.744 418.838L326.147 417.156L324.629 415.404C320.617 410.692 317.239 405.484 314.206 400.143C313.452 398.807 312.732 397.44 312.008 396.079L310.978 394.015L310.465 392.981L309.975 391.938L308.996 389.849C308.675 389.151 308.373 388.445 308.059 387.75C307.424 386.348 306.84 384.929 306.248 383.511C303.925 377.828 301.916 372.025 300.079 366.18C298.291 360.318 296.71 354.405 295.337 348.439C294.003 342.473 292.821 336.449 291.911 330.426C291.441 327.433 290.893 324.455 290.31 321.481L289.873 319.251L289.391 317.03C289.085 315.544 288.706 314.077 288.369 312.599C287.657 309.649 286.864 306.72 285.992 303.81C285.553 302.356 285.094 300.907 284.591 299.472C284.088 298.037 283.575 296.578 282.975 295.178Z" fill="white"/>
<path opacity="0.2" d="M84.5673 239.01C83.9692 240.414 83.4408 241.841 82.9531 243.281C82.4653 244.721 81.9853 246.167 81.5518 247.621C80.6795 250.531 79.8872 253.46 79.1749 256.408C78.8381 257.886 78.4588 259.353 78.153 260.839L77.671 263.06L77.2336 265.292C76.6529 268.264 76.1032 271.244 75.6329 274.235C74.729 280.26 73.5406 286.282 72.207 292.248C70.8276 298.21 69.2469 304.124 67.4649 309.989C65.6262 315.834 63.6267 321.638 61.2964 327.323C60.7041 328.74 60.1176 330.159 59.4847 331.56C59.1711 332.262 58.8692 332.967 58.546 333.658L57.5685 335.747L57.0788 336.79L56.5659 337.824L55.5362 339.89C54.8123 341.249 54.0923 342.611 53.3374 343.952C50.3045 349.312 46.9269 354.511 42.9146 359.213L41.3971 360.965L39.7984 362.647C39.5313 362.928 39.27 363.22 38.9971 363.485L38.157 364.286C37.5938 364.816 37.0441 365.358 36.4615 365.866C34.1472 367.905 31.6497 369.733 29 371.327C30.1942 370.356 31.4407 369.467 32.5517 368.41C33.713 367.428 34.7795 366.325 35.8595 365.255C36.3899 364.709 36.8834 364.128 37.408 363.574L38.1822 362.733C38.4299 362.447 38.6661 362.149 38.91 361.857L40.3577 360.102L41.7242 358.284L42.4075 357.378L43.0578 356.447L44.3585 354.585L45.5856 352.678L46.1992 351.724L46.7798 350.749L47.9412 348.801L49.058 346.827C49.8148 345.518 50.4941 344.156 51.1987 342.821C53.9331 337.42 56.388 331.886 58.5537 326.241C60.768 320.607 62.7209 314.871 64.49 309.072C66.3133 303.295 67.8811 297.435 69.3463 291.561C70.0753 288.619 70.765 285.669 71.4154 282.709C72.058 279.741 72.6405 276.795 73.2502 273.793C73.5599 272.293 73.8464 270.792 74.1967 269.302C74.5471 267.812 74.8567 266.313 75.2497 264.834L75.8168 262.61L76.4245 260.395C76.8116 258.917 77.2723 257.453 77.7078 255.988C78.6427 253.071 79.6162 250.168 80.7388 247.32C81.8614 244.471 83.0692 241.679 84.5673 239.01Z" fill="white"/>
</svg>
