<svg width="166" height="187" viewBox="0 0 166 187" fill="none" xmlns="http://www.w3.org/2000/svg">
<path d="M148.147 121.272L149.311 121.113C157.421 120.006 161.329 114.487 163.24 109.081C164.198 106.374 164.639 103.726 164.839 101.748C164.907 101.076 164.947 100.483 164.97 99.9955C164.374 100.232 163.602 100.529 162.674 100.867C160.32 101.723 156.961 102.84 152.935 103.883C144.896 105.966 134.14 107.772 123.39 106.594C112.67 105.428 105.348 102.435 100.684 99.7015C98.3534 98.336 96.6914 97.0381 95.6037 96.0712C95.0599 95.5878 94.6599 95.1873 94.3917 94.9026C94.2577 94.7602 94.1566 94.6468 94.087 94.5665C94.0522 94.5263 94.0253 94.4944 94.0061 94.4713L93.983 94.4432L93.9757 94.4343L93.9731 94.4311L93.9721 94.4298C93.9717 94.4293 93.9712 94.4288 94.7526 93.8046L93.9712 94.4288L93.8409 94.2656L93.7868 94.064C92.9892 91.0944 92.5784 88.0463 92.5598 84.9724M148.147 121.272L93.5598 84.965M148.147 121.272L148.489 122.394L148.147 121.272ZM92.5598 84.9724C92.5598 84.9719 92.5598 84.9715 92.5598 84.971L93.5598 84.965M92.5598 84.9724C92.5598 84.9734 92.5598 84.9743 92.5598 84.9753L93.5598 84.965M92.5598 84.9724C92.5409 83.1298 92.6666 81.1382 93.3368 79.2666M93.5598 84.965C93.5412 83.1624 93.6673 81.3098 94.2782 79.6037M93.3368 79.2666C93.3366 79.2672 93.3363 79.2678 93.3361 79.2683L94.2782 79.6037M93.3368 79.2666C93.895 77.6995 94.8804 76.2068 96.2835 75.1936M93.3368 79.2666L94.2782 79.6037M94.2782 79.6037L96.2835 75.1936M96.2835 75.1936C96.2729 75.2023 96.2624 75.2111 96.252 75.2199L96.8963 75.9846L96.3154 75.1707C96.3048 75.1783 96.2941 75.1859 96.2835 75.1936ZM96.2835 75.1936C96.5647 74.9608 96.8702 74.7643 97.1978 74.6048M96.2835 75.1936L97.6439 75.4998M97.1978 74.6048C97.1945 74.6065 97.1912 74.6081 97.188 74.6098L97.6439 75.4998M97.1978 74.6048C97.2013 74.6031 97.2048 74.6014 97.2084 74.5996L97.6439 75.4998M97.1978 74.6048C98.1969 74.0951 99.2887 73.8673 100.373 73.845M97.6439 75.4998C98.6791 74.9695 99.86 74.7865 101.034 74.8579C100.814 74.5169 100.595 74.1789 100.373 73.845M100.373 73.845C99.5177 72.5555 98.6334 71.3283 97.6156 70.2379L97.6085 70.2303C97.1669 69.7471 96.7121 69.2882 96.2282 68.8885L96.2224 68.8837L96.2167 68.8788C94.1017 67.078 91.3999 66.0043 88.8999 66.4724L88.8973 66.4729C85.6842 67.0655 83.2578 69.9866 81.6307 73.2788L81.6307 73.2789C81.1245 74.3029 80.686 75.3262 80.2358 76.3769C79.9507 77.0421 79.6609 77.7184 79.3463 78.4128C78.5577 80.1531 77.6545 81.9021 76.4032 83.4601L76.3974 83.4673C75.6945 84.3262 74.5804 85.1601 73.2944 85.3047L72.707 85.3708L72.366 84.8881L73.1827 84.311M100.373 73.845C100.788 73.8365 101.202 73.8581 101.609 73.9055C100.619 72.3811 99.5799 70.8768 98.3467 69.5556C97.8892 69.0551 97.3992 68.5586 96.865 68.1174C94.6107 66.198 91.6124 64.9471 88.7159 65.4894L73.1827 84.311M73.1827 84.311C72.366 84.8881 72.3657 84.8877 72.3654 84.8873L72.3648 84.8864L72.3629 84.8837L72.3571 84.8755L72.3377 84.8474L72.3278 84.8331C72.3123 84.8105 72.2922 84.7809 72.2677 84.7444C72.2075 84.6548 72.1208 84.5234 72.0101 84.3495C71.7886 84.0018 71.471 83.4845 71.0775 82.793C70.2903 81.4099 69.1992 79.3305 67.9654 76.5189C65.4976 70.8953 62.4596 62.3453 60.1387 50.5835C57.7851 38.6562 60.219 26.1111 63.1972 16.6097C64.6899 11.8477 66.3278 7.82405 67.5931 4.98927C68.2155 3.59489 68.7484 2.48692 69.1303 1.71885M73.1827 84.311C73.1827 84.311 65.7328 73.7676 61.1197 50.3899C57.0196 29.6115 67.7312 6.72128 70.1639 1.88785C69.8137 1.82318 69.4692 1.76694 69.1303 1.71885M73.1827 84.311C74.1232 84.2052 75.0213 83.5699 75.6235 82.8339C77.2428 80.8178 78.2703 78.422 79.298 76.0258C79.7589 74.9512 80.2198 73.8764 80.7342 72.8358L73.1827 84.311ZM150.441 121.943C150.433 121.916 150.427 121.893 150.421 121.874L150.408 121.831L150.404 121.818L150.403 121.814L150.403 121.813C150.403 121.813 150.403 121.812 149.446 122.104M150.441 121.943L149.446 122.104M150.441 121.943C164.389 119.345 165.851 103.855 165.987 99.5812L150.441 121.943ZM149.446 122.104L148.489 122.395L148.49 122.395L148.492 122.402L148.501 122.435C148.505 122.448 148.51 122.464 148.515 122.484C148.522 122.508 148.531 122.538 148.54 122.572C148.575 122.695 148.624 122.879 148.683 123.115C148.802 123.588 148.958 124.273 149.108 125.105C149.409 126.776 149.679 129.018 149.569 131.345C149.46 133.678 148.972 136.029 147.817 137.97C146.68 139.881 144.865 141.45 141.966 142.217M149.446 122.104L149.581 123.094C149.622 123.089 149.663 123.083 149.704 123.077C150.613 126.834 153.061 140.317 142.221 143.184M142.221 143.184L141.966 142.217M142.221 143.184L141.966 142.217C141.966 142.217 141.966 142.217 141.966 142.217M142.221 143.184C132.342 145.794 125.803 143.337 123.416 142.138C123.417 141.956 123.415 141.81 123.412 141.703C123.411 141.678 123.41 141.655 123.41 141.634C123.408 141.604 123.407 141.578 123.406 141.558L123.404 141.516L123.403 141.503L123.403 141.499L123.403 141.497C123.403 141.496 123.403 141.496 122.405 141.565M141.966 142.217L122.974 140.743L122.405 141.565M122.405 141.565C121.407 141.634 121.407 141.634 121.407 141.633L121.407 141.633L121.407 141.632L121.263 139.56L122.971 140.741L122.972 140.741L122.972 140.741L122.973 140.742M122.405 141.565L121.407 141.634L121.408 141.636L121.409 141.658C121.41 141.679 121.411 141.714 121.413 141.762C121.416 141.857 121.418 142.004 121.415 142.195C121.409 142.577 121.382 143.136 121.297 143.823C121.127 145.199 120.726 147.076 119.803 149.07C117.977 153.018 114.064 157.539 105.538 159.521L105.537 159.521C101.379 160.491 97.0151 159.796 92.7518 158.134C88.4889 156.473 84.387 153.868 80.7972 151.11C77.2116 148.355 74.1658 145.468 72.0149 143.268C70.9404 142.169 70.0914 141.243 69.5124 140.594C69.2229 140.27 69.0011 140.014 68.8525 139.841C68.7782 139.754 68.7222 139.688 68.6851 139.645L68.644 139.596L68.6342 139.584L68.6321 139.581L68.6318 139.581L67.8621 140.219M122.405 141.565C121.836 142.388 121.837 142.388 121.837 142.388L121.839 142.389L121.841 142.391L121.849 142.396L121.872 142.412C121.891 142.425 121.918 142.442 121.951 142.463C122.017 142.505 122.111 142.564 122.233 142.635C122.283 142.664 122.338 142.696 122.397 142.729M122.405 141.565C122.974 140.743 122.973 140.742 122.973 140.742M122.973 140.742L59.3279 143.018C59.5615 141.79 60.3486 140.956 61.2547 140.412C62.1437 139.879 63.2035 139.587 64.1642 139.421C65.136 139.254 66.0745 139.205 66.7631 139.196C67.1094 139.192 67.3972 139.198 67.6004 139.206C67.7021 139.209 67.7829 139.213 67.8395 139.216L67.8599 139.217C67.8787 139.218 67.8941 139.219 67.906 139.22L67.9249 139.221L67.9307 139.222L67.9327 139.222L67.9334 139.222C67.9337 139.222 67.934 139.222 67.8621 140.219M122.973 140.742L122.397 142.729M67.8621 140.219C68.6318 139.581 68.6318 139.581 68.6317 139.581L68.3595 139.253L67.934 139.222L67.8621 140.219ZM67.8621 140.219C67.8621 140.219 88.0968 164.617 105.764 160.495M67.8621 140.219L105.764 160.495M45.6609 128.074L45.5623 127.079L45.5627 127.079C45.5626 127.079 45.5623 127.079 45.6609 128.074ZM45.6609 128.074L44.7796 127.602L44.4845 128.152C45.2383 128.116 45.6609 128.074 45.6609 128.074ZM45.6609 128.074L45.1006 129.119C45.1514 129.116 45.1994 129.113 45.2446 129.11C45.4077 129.099 45.5341 129.089 45.6209 129.081C45.6643 129.078 45.6978 129.075 45.721 129.073L45.7481 129.07L45.7558 129.069L45.7582 129.069C45.759 129.069 45.7596 129.069 45.6609 128.074ZM10.5714 91.6242C10.5714 91.6242 -6.17551 76.7106 3.68955 63.3712M10.5714 91.6242L11.2365 90.8774L11.2356 90.8766L11.2287 90.8704L11.1975 90.8422C11.1692 90.8163 11.1259 90.7764 11.0689 90.7232C10.955 90.6166 10.7866 90.4563 10.5743 90.2463C10.1495 89.8262 9.54986 89.2082 8.85908 88.4243C7.47457 86.8534 5.73879 84.6332 4.30827 82.0198C1.4391 76.7783 -0.102174 70.181 4.49288 63.9668M10.5714 91.6242C11.2365 90.8774 11.2367 90.8776 11.2368 90.8777L10.5714 91.6242ZM3.68955 63.3712L4.49288 63.9668M3.68955 63.3712L4.49357 63.9658C4.49334 63.9661 4.49311 63.9664 4.49288 63.9668M3.68955 63.3712C11.488 52.8518 19.7681 52.9026 22.9153 53.3859C23.1274 53.7863 23.273 54.0453 23.3262 54.1397L23.3349 54.1553L24.2067 53.6654L24.4926 52.7072C24.3861 52.6754 24.0688 52.5817 23.5733 52.4853C21.0767 47.6375 12.7963 29.4025 25.1176 21.1452M4.49288 63.9668C9.15982 57.6714 13.9402 55.3463 17.5467 54.5723C21.1555 53.7978 23.6912 54.5551 23.9172 54.6226L23.9208 54.6237L26.2893 55.3304L25.0785 53.1756L25.0713 53.1628C24.7964 52.6739 21.6313 47.0465 20.2111 40.4124C18.7691 33.6758 19.1947 26.3184 25.6743 21.9759M25.6743 21.9759C25.674 21.9761 25.6736 21.9764 25.6733 21.9766L25.1176 21.1452M25.6743 21.9759C29.1319 19.6648 32.0885 18.7339 34.555 18.5811C37.018 18.4286 39.059 19.0479 40.6969 19.9439C42.3433 20.8446 43.5869 22.0284 44.4221 22.9959C44.8381 23.4779 45.1483 23.901 45.3521 24.1997C45.4539 24.3488 45.5289 24.4664 45.5769 24.5442C45.6009 24.583 45.6182 24.6119 45.6287 24.6297L45.6393 24.648L45.6399 24.6488L46.5108 24.1575M25.6743 21.9759L25.1176 21.1452M25.1176 21.1452C36.5307 13.516 43.3529 19.9832 45.6424 22.9057C45.5957 23.2635 45.5641 23.5489 45.5439 23.7491C45.5334 23.8542 45.5259 23.9358 45.521 23.9923L45.5155 24.0578L45.5141 24.076L45.5137 24.0813L45.5136 24.0831C45.5135 24.0837 45.5135 24.0842 46.5108 24.1575M46.5108 24.1575C47.5081 24.2307 47.5081 24.231 47.5081 24.2312L47.2657 27.5304L45.6409 24.6506L45.6407 24.6503L45.6403 24.6497C45.6401 24.6493 45.6399 24.6488 46.5108 24.1575ZM46.5108 24.1575L47.5081 24.2307L47.5082 24.2289L47.5092 24.2172L47.5135 24.1649C47.5176 24.1175 47.5242 24.0451 47.5339 23.9496C47.5531 23.7586 47.5845 23.4753 47.6323 23.1141C47.7279 22.3914 47.8891 21.359 48.1504 20.1316C48.6744 17.6705 49.5943 14.457 51.1747 11.3918C52.7561 8.32481 54.9704 5.4602 58.058 3.615C60.8638 1.93813 64.4668 1.05707 69.1303 1.71885M46.5108 24.1575C47.3817 23.6661 47.3814 23.6655 47.3811 23.6649L47.3803 23.6635L47.3781 23.6597L47.3719 23.6488L47.3514 23.6137C47.3341 23.5845 47.3098 23.5439 47.2784 23.493C47.2155 23.3913 47.1241 23.2481 47.004 23.0722C46.9151 22.9419 46.8102 22.7933 46.6894 22.6301C47.4909 17.0131 51.5545 -2.0296 69.6081 0.778967C69.605 0.784967 69.6018 0.791058 69.5986 0.797237C69.4935 0.998914 69.3411 1.29562 69.1495 1.68033C69.1431 1.69307 69.1367 1.70591 69.1303 1.71885M105.764 160.495C120.425 157.088 122.213 146.303 122.397 142.729M105.764 160.495L122.397 142.729M21.1896 175.846L20.1656 175.64L19.6721 176.56L20.6961 176.767L21.1896 175.846ZM65.5401 185.744L65.5501 185.801L66.4168 184.956L65.3643 184.744C65.3846 184.859 65.4037 184.969 65.4218 185.071C65.4694 185.343 65.5091 185.569 65.5401 185.744Z" fill="#F9D96F" stroke="black" stroke-width="2"/>
<path d="M36.5248 180.136C36.4847 180.136 36.4446 180.13 36.4045 180.119C36.1848 180.052 36.061 179.82 36.1272 179.601L44.1194 153.247C44.1862 153.027 44.4176 152.904 44.6373 152.97C44.857 153.036 44.9809 153.268 44.9146 153.488L36.9224 179.841C36.8678 180.02 36.7033 180.136 36.5248 180.136Z" fill="#401413"/>
<path d="M52.6051 184.019C52.5975 184.019 52.5894 184.019 52.5819 184.019C52.3528 184.006 52.1778 183.81 52.1901 183.581L53.8258 153.816C53.8386 153.587 54.0508 153.406 54.2635 153.424C54.4925 153.436 54.6675 153.633 54.6553 153.862L53.0196 183.627C53.0068 183.848 52.8237 184.019 52.6051 184.019Z" fill="#401413"/>
<path d="M67.8616 140.633C67.6511 140.633 67.4709 140.474 67.4494 140.26C67.4262 140.031 67.5924 139.828 67.8203 139.805C67.936 139.793 79.4484 138.481 86.9691 125.315C94.5515 112.042 94.5276 94.6943 94.5259 94.5205C94.5247 94.2909 94.709 94.1037 94.9386 94.1025H94.9409C95.1694 94.1025 95.3548 94.2868 95.356 94.5153C95.3571 94.6914 95.3815 112.262 87.6893 125.728C79.9466 139.281 68.0226 140.62 67.9028 140.631C67.8901 140.632 67.8755 140.633 67.8616 140.633Z" fill="black"/>
<path d="M102.335 75.0386C100.76 74.6974 99.0633 74.7706 97.6415 75.499C97.3724 75.6292 97.123 75.7908 96.894 75.9838C96.7632 75.5641 96.6946 75.1037 96.6615 74.6567C96.5533 73.0982 97.0219 70.7225 98.3449 69.5547C99.883 71.2026 101.119 73.136 102.335 75.0386Z" fill="#EE695E"/>
<path d="M92.3444 70.7757C92.4531 71.7452 91.7556 72.6195 90.786 72.7282C89.8164 72.8369 88.9421 72.1394 88.8334 71.1698C88.7247 70.2002 89.4223 69.3259 90.3919 69.2172C91.3615 69.1085 92.2357 69.8061 92.3444 70.7757Z" fill="#401413"/>
</svg>
