<svg width="150" height="149" viewBox="0 0 150 149" fill="none" xmlns="http://www.w3.org/2000/svg">
<path d="M30.3618 30.234C34.1666 24.8149 38.1532 19.8526 42.8983 15.5598C43.3243 15.2046 43.613 14.7123 43.7148 14.1675C43.8166 13.6228 43.7252 13.0597 43.4562 12.575C42.9234 11.3234 42.353 10.0719 41.7951 8.8204C41.3187 7.75034 41.0304 6.59269 42.3091 5.9857C43.5878 5.37871 44.1081 6.45502 44.6221 7.33734C45.4934 8.82666 46.3271 10.3347 47.236 11.9367C53.0341 7.67526 59.3149 4.65909 66.3542 3.43885C68.78 3.01959 71.2498 2.81309 73.7069 2.61911C75.3868 2.48144 77.0229 3.13222 78.0446 0.704268C78.7968 -1.07915 80.1257 1.02341 80.2448 1.5553C80.6083 3.27615 81.7241 3.62032 83.1344 3.89566C90.1925 5.28485 96.2978 8.69525 101.908 13.0193C103.488 14.2332 105.117 15.3721 106.923 16.6862C107.894 13.6012 108.803 10.7477 109.674 7.8755C109.969 6.8868 110.195 5.68534 111.436 5.89184C112.884 6.12963 112.74 7.58139 112.533 8.5701C111.95 11.3172 111.235 14.0455 110.439 16.7425C109.881 18.6198 109.994 20.0716 111.342 21.7486C116.012 27.4744 120.963 33.0123 124.768 39.7643L132.842 28.1001C133.205 27.5745 133.469 26.9863 133.895 26.4982C134.603 25.6346 135.149 24.1578 136.653 25.134C137.963 25.9725 137.167 27.0614 136.709 28.025C134.948 31.7295 133.444 35.5905 131.331 39.0822C128.523 43.7191 128.072 47.9618 131.062 52.7489C132.861 55.6336 133.795 59.0565 135.13 62.2729C139.01 59.5321 142.758 56.9227 146.457 54.2444C147.503 53.481 148.832 52.8114 149.628 53.7814C150.606 54.9891 149.459 56.153 148.437 56.9853C144.965 59.8012 141.467 62.5858 137.994 65.3955C137.023 66.1777 135.863 66.8285 136.114 68.4492C136.246 69.2126 135.581 69.7508 135.086 70.2952C125.238 81.2022 113.435 88.9304 98.9932 92.3283C97.3948 92.7037 95.7337 93.1668 94.129 93.0729C91.722 92.9353 91.9163 94.3745 92.1294 95.82C92.5168 97.7913 93.29 99.6668 94.4048 101.339C96.185 104.312 97.9902 107.259 98.7926 110.726C99.7391 114.762 98.1658 119.361 95.1069 121.088C92.2109 122.722 88.1365 121.845 85.0776 118.917C84.3129 118.178 83.5983 117.384 82.4512 116.189C82.5139 122.227 84.1499 127.377 84.5824 132.677C84.8109 135.412 84.6377 138.165 84.0684 140.85C82.6329 147.552 76.5841 148.296 71.6635 144.46C67.1879 140.969 65.9531 135.819 65.1194 130.556C64.6806 127.765 64.3797 124.924 63.966 122.158C63.868 121.529 63.6556 120.922 63.3392 120.369C62.938 119.662 62.4491 118.754 61.5026 118.998C60.719 119.192 60.7504 120.125 60.6689 120.876C60.1424 125.375 60.7378 129.799 61.4963 134.229C61.8819 136.197 62.125 138.19 62.2234 140.193C62.3112 143.622 61.0638 146.544 57.8356 148.084C54.5072 149.679 51.2038 149.116 48.264 146.976C43.1867 143.278 42.8043 138.078 43.732 132.458C44.3588 128.597 44.8854 124.711 45.5059 120.844C45.6522 119.817 45.4678 118.769 44.9794 117.853C43.1365 118.848 43.1679 120.688 42.798 122.296C42.4721 123.716 42.2715 125.168 42.0458 126.607C41.2999 131.344 38.7863 133.578 34.4299 133.372C30.5059 133.178 26.9079 129.586 26.5381 125.594C26.1495 121.101 27.8607 117.202 30.7441 114.099C36.4733 107.935 37.8398 100.726 36.9058 92.76C36.63 90.3947 36.0596 88.0293 36.1286 85.6827C36.2101 82.898 34.6493 81.5527 32.75 79.9883C26.1369 74.5504 20.088 68.1363 18.9597 59.5634C18.0759 52.7927 13.2744 50.0268 9.50716 45.9969C6.88702 43.1872 3.98481 40.6466 1.20797 37.9809C0.324138 37.1361 -0.591002 36.1912 0.49341 34.9772C1.57782 33.7633 2.43656 34.8583 3.25771 35.5342C8.47918 39.8457 13.7195 44.1321 18.8908 48.5062C19.8248 49.2946 20.1445 49.5012 20.7337 48.1933C22.4136 44.5701 24.2314 41.0033 26.0931 37.4615C26.4583 36.8272 26.6319 36.101 26.5929 35.3704C26.554 34.6398 26.3042 33.9361 25.8737 33.344C23.6171 29.7021 21.3751 26.0518 19.1478 22.3932C18.4896 21.3106 17.6058 20.1717 19.0475 19.0328C20.6835 17.7375 21.2853 19.377 22.0751 20.2093C25.0911 23.3334 27.8615 26.6849 30.3618 30.234ZM56.4002 144.917C57.3969 145.205 57.9297 144.78 58.1052 143.81H58.0676C58.732 143.672 58.6944 143.184 58.6442 142.683C59.7537 140.806 59.3902 138.973 58.6442 137.12L58.7257 137.07L57.9171 126.77C58.218 124.499 57.2903 122.252 57.8419 119.962C58.2932 117.991 58.9326 116.113 61.2519 115.901C63.5711 115.688 65.0128 117.058 65.7462 119.173C66.116 120.2 66.4859 121.232 66.8181 122.271C68.0718 126.119 68.0718 130.199 68.9744 134.11C69.877 138.021 71.419 141.413 75.2427 143.246C78.0885 144.604 80.0191 143.81 81.0847 140.894C82.2882 137.596 81.9748 134.204 81.4295 130.881C80.6773 126.293 80.1173 121.674 79.7496 117.027C79.6467 116.299 79.7853 115.558 80.1441 114.916C80.5028 114.274 81.0622 113.767 81.7366 113.473C83.1407 112.766 83.9305 113.779 84.8018 114.568C85.9567 115.737 87.179 116.838 88.4625 117.866C91.9163 120.325 95.5268 118.679 96.0471 114.468C96.1948 113.194 96.0905 111.903 95.7399 110.669C94.8937 107.622 93.2326 104.994 91.5903 102.365C87.9108 96.4958 88.3057 91.7839 92.9568 86.7215C94.317 85.2384 95.7023 83.7616 96.8996 82.1596C106.051 69.9072 105.167 52.0793 94.0161 41.0221C90.9322 37.9621 87.8231 36.7169 84.4445 37.0923C86.6697 38.3438 87.6789 40.2211 88.4186 42.3362C89.4925 45.6519 91.4412 48.6176 94.06 50.9216C94.1888 51.0126 94.2982 51.1281 94.3821 51.2614C94.466 51.3947 94.5227 51.5433 94.5489 51.6985C94.5751 51.8538 94.5703 52.0127 94.5348 52.1661C94.4993 52.3195 94.4339 52.4644 94.3421 52.5924C90.3868 50.7151 88.6317 47.142 87.2025 43.3687C85.5352 38.9884 82.8649 37.0798 78.1449 37.6868C74.9042 38.106 71.7324 39.0259 68.5293 39.7205C67.2757 39.9833 65.8402 39.6079 64.8499 40.5715C62.3049 43.0746 59.2084 43.3249 55.9301 43.1121C53.3162 42.9432 51.4107 44.1133 50.1695 46.4912C47.2297 52.1231 47.2924 57.9364 49.2418 63.6809C50.6083 67.7171 52.727 71.5029 54.5197 75.3952C56.1871 79.0121 56.3501 82.6102 54.3191 86.152C53.2786 87.973 52.2193 89.7877 51.091 91.5586C49.0224 94.7938 47.75 98.2229 48.032 102.134C48.063 103.422 48.5847 104.65 49.4908 105.567C50.3969 106.484 51.6192 107.022 52.9088 107.071C54.0931 107.146 55.2785 106.94 56.3679 106.471C57.4573 106.001 58.4199 105.28 59.1771 104.368C60.9196 103.116 61.559 101.195 62.2422 99.3118C62.9882 97.2593 63.5586 95.1317 64.4048 93.123C66.2853 88.6113 69.9021 87.4348 73.569 90.5699C80.2698 96.3081 82.4888 93.4984 85.0901 87.2408C85.297 86.734 85.4474 86.2083 85.6229 85.6889C87.353 82.7792 89.2209 79.957 91.9852 77.917C94.1305 76.3232 95.676 74.0552 96.373 71.4779C98.2535 64.9137 98.8803 58.4245 94.2543 52.5549C95.9405 52.4422 96.793 53.456 97.4762 54.8076C98.8177 57.4226 99.4079 60.3574 99.1812 63.2867C98.6923 69.7508 97.8586 76.046 91.747 80.0946C90.2426 81.0959 89.2397 82.7166 88.2494 84.256C86.5318 86.8654 85.8549 89.9817 83.9556 92.4972C81.7805 95.382 78.1762 95.9702 75.3053 93.7488C74.2832 92.8473 73.205 92.0113 72.0772 91.2457C69.4633 89.7189 67.6894 90.2758 66.1348 92.8789C65.0316 94.7187 64.5741 96.7649 64.0789 98.8049C63.6338 100.175 63.195 101.552 62.75 102.922V103.066L62.8879 103.11C62.3551 102.91 62.261 103.367 62.0542 103.661C61.2895 104.437 60.5811 105.282 59.7537 105.976C56.9267 108.341 53.7236 109.681 50.1883 107.903C46.8411 106.214 46.1453 103.048 46.3584 99.5308C46.5123 97.9996 46.8881 96.4988 47.4742 95.0754C48.6463 91.8026 51.3417 89.3872 52.4888 86.0957C52.7616 85.9372 52.97 85.6881 53.0777 85.3919C53.1853 85.0957 53.1854 84.7712 53.078 84.475L53.1156 84.5125C54.62 81.9093 54.9084 79.3187 53.0592 76.7405C53.1617 76.4373 53.1614 76.1087 53.0583 75.8057C52.9552 75.5026 52.7551 75.2418 52.4888 75.0635C52.31 73.9635 51.7127 72.9749 50.8214 72.3039C50.8761 72.0482 50.8534 71.782 50.7563 71.5391C50.6592 71.2963 50.4921 71.0877 50.2761 70.9397C49.806 69.7571 49.3359 68.5806 48.872 67.3917C46.1014 60.283 45.111 53.1556 48.5774 45.9468C49.7245 43.5689 51.5611 41.5665 54.1311 41.6791C58.2395 41.8799 62.3109 40.8185 65.7964 38.6379C66.4653 38.3573 67.1698 38.1699 67.89 38.081C70.6229 37.5679 73.4499 37.3739 76.2644 35.7031C73.1384 35.0739 69.9227 35.0293 66.7805 35.5717C62.6936 36.1975 58.3622 35.4653 54.5385 37.6305C49.8498 39.0697 45.2991 40.7593 42.8356 45.4525C40.8796 49.0669 39.5247 52.9746 38.8239 57.0228C38.259 59.9697 37.984 62.9646 38.0028 65.9649C37.8774 74.8883 39.2941 83.6928 39.9209 92.5598C41.0993 101.051 39.1436 108.617 33.4833 115.212C31.5424 117.53 30.2033 120.29 29.5845 123.247C29.4042 124.054 29.3959 124.889 29.5599 125.699C29.7239 126.509 30.0567 127.275 30.5367 127.949C31.0166 128.622 31.633 129.187 32.3458 129.607C33.0586 130.027 33.852 130.293 34.6743 130.387C37.6204 130.712 39.0621 129.136 39.2941 125.018C39.5216 122.562 40.1416 120.158 41.1307 117.897C41.6133 116.689 42.2778 115.444 43.9326 115.219C47.0667 114.793 48.9472 116.846 48.4959 120.319C47.7876 126.026 46.9288 131.714 46.4775 137.439C46.3863 138.554 46.5384 139.675 46.9232 140.726C47.3081 141.776 47.9165 142.731 48.7066 143.523C49.4967 144.316 50.4497 144.929 51.4998 145.319C52.5499 145.708 53.6722 145.866 54.7893 145.781C55.4788 145.8 56.2247 145.868 56.4002 144.917ZM110.025 38.5378C113.16 40.7906 116.231 43.1434 119.622 45.0207C119.634 45.0871 119.662 45.1497 119.704 45.2032C119.745 45.2567 119.799 45.2996 119.86 45.3283C119.921 45.3571 119.988 45.3709 120.056 45.3685C120.124 45.3661 120.19 45.3477 120.249 45.3148C122.186 44.4262 123.383 42.9119 122.23 40.9345C120.234 37.6997 118.077 34.567 115.767 31.548C113.745 28.6271 111.451 25.9033 108.916 23.4131C108.182 26.7359 107.8 29.7521 106.829 32.568C105.801 35.5342 106.998 37.011 109.467 38.0873L110.025 38.5378ZM28.4311 44.8517C31.9037 41.7229 31.9037 41.7229 29.3024 38.6567C29.2397 38.5816 29.0517 38.6129 28.7947 38.5691C28.3559 39.9207 27.2778 40.9783 27.1273 42.4676L23.8052 48.9004L24.1311 49.0256L28.4311 44.8517ZM76.6969 27.8874C77.8252 27.3117 77.2548 26.2791 77.2673 25.4719C77.3425 21.0165 77.33 16.5548 77.3551 12.0931C77.3927 5.44755 77.399 5.44754 70.5039 5.89809C63.9347 6.45415 57.6169 8.67712 52.1503 12.356C47.8252 15.1594 48.0383 13.8828 50.6021 18.5573L53.335 23.6447C54.0747 25.0965 54.8896 26.5107 55.5289 28.025C56.0993 29.3579 56.9957 29.7396 58.3371 29.4392C64.3735 28.0438 70.5289 27.8999 76.7032 27.8999L76.6969 27.8874ZM42.4721 34.9772C43.2715 34.8584 44.006 34.4697 44.5532 33.8759C46.4838 33.5567 47.9819 32.2489 49.7872 31.6294C50.8465 31.2665 51.0784 30.647 50.5832 29.5143C48.8407 25.5595 47.236 21.5484 45.4808 17.3308C43.124 19.4271 40.9175 21.2856 39.2815 23.7323C36.8369 26.0601 35.0316 28.8823 33.1511 31.6482C32.9286 31.9241 32.7986 32.2629 32.7795 32.6166C32.7604 32.9703 32.8531 33.3211 33.0446 33.6193C35.0128 37.5178 36.3354 37.9997 40.2092 36.1224C40.9301 35.772 41.6321 35.3777 42.3467 35.0023L42.4721 34.9772ZM94.3045 11.9117L92.6936 11.2484C90.2489 8.74531 86.8891 8.15084 83.7738 7.05575C82.5201 6.61772 81.956 6.81796 82.119 8.37611C82.7834 14.7276 83.3726 21.0853 83.9242 27.4431C84.012 28.413 84.4821 28.7446 85.4349 29.0075C90.1612 30.3216 94.8373 31.7295 99.5573 33.1938C101.087 33.6694 101.764 33.4316 102.209 31.7358C103.061 28.4881 104.265 25.3468 105.243 22.1303C105.493 21.3169 105.957 20.3469 105.086 19.571C101.783 16.6362 98.6171 13.4698 94.3108 11.9117H94.3045ZM99.4257 41.385C99.3839 41.293 99.322 41.2114 99.2445 41.1464C99.167 41.0814 99.0759 41.0345 98.9779 41.0093C98.8799 40.9841 98.7774 40.9811 98.6781 41.0007C98.5787 41.0202 98.4851 41.0617 98.4039 41.1222L98.9242 41.8543C109.411 55.2707 108.07 75.5641 96.4169 87.2346C95.7004 88.0604 95.0387 88.932 94.4361 89.844C94.7974 89.8635 95.1593 89.8635 95.5206 89.844C109.856 87.4974 121.371 80.0946 131.369 69.9573C132.134 69.1814 131.908 68.6182 131.369 67.836C126.041 60.3644 120.155 53.4059 112.426 48.2747C108.308 45.5651 104.265 42.7179 99.432 41.385H99.4257ZM41.2936 42.4926C38.3601 43.3562 36.5674 45.0582 34.5302 46.3598C29.8415 49.3572 25.5164 52.7426 22.1378 57.2481C21.8793 57.5522 21.7084 57.9206 21.6433 58.314C21.5782 58.7074 21.6213 59.1111 21.768 59.4821C24.2753 67.1414 29.2147 72.9922 35.5582 78.5302C34.3171 65.8335 34.7245 53.8815 41.2999 42.4926H41.2936Z" fill="#15110E"/>
<path d="M67.9577 38.0812C67.2376 38.1701 66.5331 38.3576 65.8642 38.6382C62.3773 40.8144 58.306 41.8714 54.1989 41.6669C51.6289 41.5605 49.8111 43.5441 48.6452 45.9346C45.1663 53.1433 46.1692 60.2707 48.9398 67.3794C49.4036 68.5683 49.8738 69.7448 50.3439 70.9275C50.3439 71.4531 50.3439 71.9725 50.8892 72.2916C51.234 73.3366 50.9958 74.7384 52.5566 75.0512C52.519 75.677 52.4814 76.3028 53.127 76.7283C53.5219 78.7432 54.2929 80.7707 52.9766 82.7356C52.5315 83.3989 52.9014 83.9371 53.1834 84.5002L53.1458 84.4627C52.519 84.8444 52.5691 85.4764 52.5566 86.0834C51.4408 89.3749 48.7455 91.7903 47.542 95.0631C46.956 96.4865 46.5801 97.9873 46.4262 99.5185C46.2131 103.035 46.9089 106.202 50.2561 107.891C53.7914 109.668 56.9945 108.329 59.8215 105.964C60.6489 105.269 61.3572 104.424 62.122 103.649L62.9557 103.098L62.8052 102.991C62.8052 102.991 62.8052 102.848 62.8052 102.854C63.9586 103.48 62.987 105.094 64.109 105.745C67.6255 109.161 68.1521 113.654 68.6159 118.172C68.722 119.182 69.0521 120.155 69.5824 121.021C70.1126 121.887 70.8296 122.624 71.6811 123.179C72.8282 124.005 73.969 124.712 75.4421 123.967C76.1699 123.666 76.7803 123.137 77.1815 122.46C77.5827 121.783 77.7532 120.994 77.6673 120.212C77.597 118.291 77.3238 116.382 76.8524 114.518C74.3451 106.483 76.4262 106.915 82.3121 105.757C84.8194 105.257 85.7534 103.085 84.3806 101.008C83.1457 99.0607 81.2094 97.6608 78.9711 97.0968C74.5833 95.9266 70.9226 97.7226 67.3372 99.8564L66.8232 100.351L66.7417 100.407C66.5933 100.396 66.4445 100.42 66.3068 100.476C66.1691 100.533 66.0464 100.62 65.9481 100.731C65.8498 100.843 65.7786 100.976 65.7401 101.119C65.7016 101.263 65.6969 101.413 65.7262 101.558L65.3376 102.053C63.921 101.321 65.0743 99.6562 64.1278 98.7551C64.623 96.7151 65.0806 94.6689 66.1838 92.8291C67.7446 90.226 69.5123 89.669 72.1262 91.1959C73.254 91.9615 74.3322 92.7975 75.3543 93.6989C78.2252 95.9204 81.8295 95.3322 84.0046 92.4474C85.8851 89.9444 86.5808 86.8156 88.2983 84.2061C89.3138 82.6668 90.2916 81.0773 91.796 80.0448C97.9076 75.9961 98.7413 69.701 99.2302 63.2369C99.4569 60.3076 98.8668 57.3728 97.5253 54.7578C96.842 53.4062 95.9895 52.3924 94.3034 52.5051L94.341 52.5426C94.5223 52.2821 94.5938 51.9608 94.5398 51.6482C94.4859 51.3356 94.3108 51.0567 94.0526 50.8718C91.4338 48.5678 89.4851 45.6021 88.4111 42.2864C87.6715 40.1838 86.6623 38.2877 84.4371 37.0425C87.8157 36.667 90.9248 37.9123 94.0088 40.9723C105.16 52.0295 106.044 69.8574 96.8922 82.1098C95.6949 83.7118 94.3096 85.1886 92.9494 86.6716C88.2984 91.7466 87.9348 96.4585 91.5829 102.316C93.2252 104.944 94.8863 107.572 95.7325 110.62C96.0831 111.853 96.1874 113.144 96.0397 114.418C95.5194 118.629 91.9089 120.275 88.455 117.816C87.1716 116.789 85.9493 115.687 84.7944 114.518C83.9231 113.73 83.1333 112.716 81.7292 113.423C81.0547 113.718 80.4954 114.225 80.1366 114.866C79.7778 115.508 79.6393 116.249 79.7421 116.977C80.1182 121.612 80.6782 126.23 81.422 130.832C81.9674 134.173 82.2808 137.565 81.0773 140.844C80.0117 143.76 78.081 144.555 75.2352 143.197C71.3991 141.363 69.8696 137.903 68.967 134.061C68.0643 130.218 68.0518 126.07 66.8107 122.221C66.4785 121.182 66.1086 120.15 65.7388 119.124C64.9866 117.009 63.5637 115.638 61.2444 115.851C58.9252 116.064 58.2858 117.941 57.8345 119.912C57.308 122.202 58.2106 124.449 57.9097 126.72C57.2829 126.846 56.9945 127.171 57.2202 127.847C57.4459 128.523 57.6088 129.192 56.6937 129.299C55.7785 129.405 55.8537 128.598 55.766 127.997C55.5106 126.704 54.9058 125.505 54.0171 124.53C53.8317 123.741 53.5993 122.964 53.3213 122.202C53.0267 121.508 53.1207 120.325 52.0677 120.325C51.2277 120.325 51.1525 121.333 50.9268 122.002C50.3376 123.798 49.7045 125.588 49.2281 127.421C48.5261 130.15 47.9243 132.94 48.244 135.756C48.4885 137.947 49.2093 140.137 51.654 140.894C54.0986 141.651 55.5089 139.955 56.7313 138.166L58.6619 137.027L58.5804 137.077C58.5804 138.929 58.5804 140.783 58.5804 142.64C58.3794 142.745 58.2159 142.91 58.1127 143.111C58.0094 143.313 57.9713 143.542 58.0037 143.766H58.0414C57.6715 143.717 57.2961 143.801 56.9833 144.005C56.6705 144.208 56.441 144.516 56.3364 144.874C55.6218 144.874 54.8445 144.73 54.7003 145.762C53.5833 145.847 52.461 145.69 51.4109 145.3C50.3608 144.91 49.4078 144.298 48.6177 143.505C47.8276 142.712 47.2192 141.757 46.8343 140.707C46.4495 139.657 46.2974 138.536 46.3886 137.421C46.8399 131.695 47.6987 126.007 48.407 120.3C48.8395 116.827 46.9778 114.775 43.8437 115.2C42.1889 115.425 41.5244 116.671 41.0418 117.878C40.0528 120.139 39.4327 122.543 39.2051 125C38.9544 129.123 37.5315 130.694 34.5854 130.369C33.7728 130.263 32.9911 129.99 32.2901 129.566C31.5891 129.142 30.9841 128.577 30.5136 127.908C30.0431 127.238 29.7174 126.478 29.5572 125.675C29.3971 124.873 29.406 124.046 29.5833 123.247C30.2297 120.281 31.6014 117.521 33.5762 115.213C39.2177 108.617 41.1922 101.052 40.0138 92.56C41.3928 86.146 39.1425 79.9197 38.9732 73.5807C38.8729 69.8261 38.5533 66.1154 39.0359 62.3921C39.2741 60.5899 39.6627 58.8002 38.9168 57.0231C39.6176 52.9749 40.9725 49.0672 42.9285 45.4527C45.3919 40.7407 49.9427 39.0699 54.6314 37.6307C58.2169 37.0049 61.8336 37.0613 65.4504 37.1176C66.3593 37.1301 67.5064 36.7484 67.9577 38.0812ZM39.0735 112.547C36.0918 114.968 33.6295 117.965 31.8337 121.358C31.52 122.12 31.4181 122.952 31.539 123.767C31.6707 125.325 32.9118 125.826 34.2093 126.088C35.3188 126.32 36.3907 125.913 36.5599 124.755C37.1366 120.876 38.7538 117.196 39.0735 112.547Z" fill="#388278"/>
<path d="M99.4318 41.3848C104.265 42.7176 108.308 45.5649 112.388 48.2681C120.117 53.3994 126.003 60.3579 131.331 67.8295C131.883 68.6117 132.108 69.1748 131.331 69.9508C121.302 80.0881 109.818 87.4721 95.4828 89.8375C95.1216 89.857 94.7596 89.857 94.3984 89.8375C95.001 88.9255 95.6627 88.0538 96.3792 87.2281C108.063 75.5576 109.405 55.2642 98.8865 41.8478L99.4318 41.3848Z" fill="#F7F7F7"/>
<path d="M59.2255 104.305C58.4684 105.218 57.5058 105.938 56.4164 106.408C55.3269 106.878 54.1416 107.084 52.9573 107.009C51.6677 106.96 50.4454 106.422 49.5393 105.504C48.6332 104.587 48.1115 103.359 48.0805 102.071C47.7985 98.1604 49.0709 94.7312 51.1395 91.4961C52.2678 89.7252 53.3271 87.9104 54.3676 86.0895C56.3985 82.5477 56.2481 78.9495 54.5682 75.3326C52.7755 71.4404 50.6568 67.6545 49.2903 63.6184C47.3409 57.8739 47.2782 52.0355 50.218 46.4287C51.4717 44.0508 53.3522 42.8806 55.9786 43.0496C59.282 43.2624 62.3534 42.9808 64.8984 40.509C65.8887 39.5453 67.343 39.9208 68.5778 39.658C71.7809 38.9634 74.9527 38.0435 78.1934 37.6243C82.9134 36.9985 85.5837 38.9196 87.251 43.3062C88.6802 47.0607 90.4353 50.6714 94.3906 52.5299L94.3593 52.4923C98.9665 58.362 98.3521 64.8511 96.4779 71.4154C95.7809 73.9926 94.2354 76.2607 92.0901 77.8544C89.3258 79.8944 87.4579 82.7166 85.7278 85.6264C85.6526 85.5638 85.5711 85.495 85.4959 85.4199C85.4769 84.7105 85.6524 84.0094 86.0037 83.3924C86.9564 82.0345 86.3484 81.2649 84.8879 80.952C86.0851 79.4752 87.2698 77.9859 87.7149 76.071C88.185 76.8532 87.1257 78.1673 88.6238 78.5741C89.8774 78.9558 90.429 77.9108 91.0747 77.2349C92.6104 75.6267 94.3467 74.2876 94.7416 71.7095C95.0551 69.6695 97.3116 67.2478 96.3589 65.7334C94.8607 63.3618 97.7441 61.7974 96.5469 59.8951C96.4968 59.8263 96.5469 59.7136 96.4905 59.626C96.2272 58.9627 96.0705 58.0741 95.1428 58.1617C94.2151 58.2493 94.516 59.1004 94.3718 59.6886C93.4754 63.5933 92.3096 64.5946 88.793 64.4945C89.0961 64.0525 89.4471 63.6453 89.8398 63.2805C94.4972 59.8325 94.7416 56.9603 89.8398 53.9566C85.452 51.2408 81.8854 48.3999 81.3463 42.8243C81.2084 41.4101 80.03 39.6955 78.4316 39.5328C72.32 38.9071 66.9355 40.1586 64.8795 47.0983C64.0459 49.9079 65.3434 52.3985 66.2711 55.4835C60.8992 53.9128 55.5022 51.8103 52.6376 58.7312C52.2364 56.5723 52.9635 54.7075 54.8064 53.7251C56.8311 52.6323 59.1511 52.2095 61.432 52.5174C62.3221 52.6237 63.5883 52.63 63.4817 51.3597C63.2122 48.0181 64.1399 45.0082 65.6881 41.8919C62.7546 43.9257 59.6079 43.9006 56.4424 43.7692C56.0036 43.7692 55.3141 43.7692 55.1888 44.0446C53.7032 46.4788 49.3467 46.8042 50.1177 50.8904C50.1177 51.0155 49.8921 51.1782 49.8357 51.3472C48.8075 54.456 48.8075 57.8125 49.8357 60.9213C50.1804 61.9413 49.6476 63.8437 51.666 64.2129C51.76 62.4294 50.4813 60.4896 52.5122 59.163C52.5122 60.621 52.4245 62.0915 52.5122 63.5433C53.0325 70.3265 59.6769 78.4176 68.1829 73.6306C69.6999 72.7795 71.0413 73.1925 71.6618 74.9885C71.9878 75.9334 72.251 76.9033 72.5456 77.867C69.3425 78.6679 70.4646 75.7519 69.5996 74.1938C68.1704 76.3714 65.8072 75.2262 64.0458 76.1336C63.1934 75.3389 62.1654 75.6518 61.1562 75.6205C56.7684 75.4953 56.3672 75.5704 56.9627 79.8131C57.7901 85.7703 53.8285 89.7689 51.5532 94.362C50.2682 96.9402 48.9017 99.2117 49.1712 102.165C49.353 104.168 50.287 105.094 52.3743 105.357C54.7876 105.657 56.6305 103.711 58.9685 104.043L59.2255 104.305ZM55.2264 74.2063C55.5149 74.4712 55.848 74.683 56.2105 74.832C56.5991 74.9259 56.8373 74.5379 56.7684 74.1499C56.6932 73.6055 56.2418 73.5242 55.7843 73.4741C55.3267 73.4241 55.0947 73.5805 55.2264 74.2063Z" fill="#CC8153"/>
<path d="M92.6989 11.2487L94.3161 11.912C94.3161 13.1636 94.3161 13.9082 96.1339 14.315C98.4469 14.8218 100.597 16.4488 100.014 19.5839C103.205 18.8455 102.941 18.8705 103.273 22.2746C103.556 25.1719 101.706 27.1806 101.123 29.6336C100.678 31.5109 99.5877 31.8926 98.5221 31.3982C95.0808 29.8213 91.0566 30.5848 87.772 27.5748C86.0214 26.014 84.8617 23.8996 84.4875 21.5863C84.1678 20.0907 84.8886 18.1133 84.1552 17.0245C82.4565 14.5215 84.3809 11.9809 83.4908 9.51536C83.1711 8.64555 84.3746 8.53918 85.0892 8.60801C87.1518 8.7064 89.1033 9.57002 90.5614 11.0297C91.439 12.0184 91.9028 12.0247 92.6989 11.2487Z" fill="#F8D121"/>
<path d="M41.2986 42.4932C34.7232 53.882 34.3157 65.8341 35.5694 78.5308C29.2196 72.9928 24.2865 67.1419 21.7792 59.4826C21.6325 59.1117 21.5894 58.708 21.6545 58.3145C21.7197 57.9211 21.8906 57.5527 22.149 57.2486C25.5276 52.7431 29.8527 49.3578 34.5414 46.3604C36.5723 45.0588 38.3588 43.3567 41.2986 42.4932Z" fill="#F7F7F7"/>
<path d="M50.5837 18.5576C48.02 13.8832 47.8068 15.1597 52.132 12.3563C57.6058 8.67346 63.9328 6.45031 70.5106 5.89844C71.6388 6.79953 73.0179 6.46163 74.2089 6.39279C76.0893 6.29267 76.8353 6.90591 76.7914 8.85203C76.6786 14.2252 76.6514 19.6005 76.7099 24.9779C76.7099 26.7864 76.0831 27.481 74.3091 27.2807C73.6718 27.2507 73.0333 27.2611 72.3973 27.312H70.0279L67.9907 27.3621C67.9346 27.2264 67.8906 27.0861 67.8591 26.9428C67.8152 25.5536 68.4859 24.9404 69.8649 25.0655C70.6861 25.1281 71.5135 25.0655 72.3347 25.0655C73.7701 25.0655 75.1303 24.9529 74.0459 22.9379C73.9347 22.7992 73.8609 22.6344 73.8312 22.4592C73.8016 22.284 73.8173 22.1042 73.8766 21.9367C75.2619 18.8767 74.5035 15.6415 74.4408 12.5127C74.3781 8.38272 72.2657 6.88089 68.2853 7.50665C67.8403 7.57548 67.0317 7.6318 67.2072 8.0448C68.2101 10.8482 65.847 9.63423 65.1199 9.60294C62.2427 9.47153 59.8106 10.7168 57.5979 12.1435C56.4508 12.8819 56.1123 14.9094 54.0501 13.564C54.3196 15.7667 54.3196 15.7667 52.4516 18.5075L50.5837 18.5576Z" fill="#EDCE3D"/>
<path d="M92.6991 11.249C91.903 12.025 91.4454 12.0187 90.5616 11.055C89.1035 9.59536 87.152 8.73174 85.0894 8.63335C84.3748 8.56452 83.1713 8.67089 83.491 9.5407C84.3811 11.9812 82.4567 14.5468 84.1554 17.0498C84.8888 18.1387 84.1554 20.1161 84.4876 21.6116C84.8619 23.9249 86.0216 26.0393 87.7722 27.6002C91.0568 30.6101 95.081 29.8467 98.5223 31.4236C99.5879 31.9179 100.679 31.5112 101.124 29.6589C101.707 27.2059 103.556 25.1972 103.274 22.3C102.941 18.8958 103.205 18.8708 100.014 19.6092C100.597 16.4804 98.4471 14.8472 96.1341 14.3403C94.3037 13.9335 94.2975 13.2077 94.3163 11.9374C98.6163 13.4955 101.782 16.6431 105.091 19.5967C105.963 20.3726 105.499 21.3426 105.248 22.1561C104.27 25.3725 103.067 28.5138 102.214 31.7615C101.769 33.4573 101.092 33.6951 99.5629 33.2195C94.8742 31.7552 90.1604 30.3473 85.4404 29.0332C84.4876 28.7703 84.0175 28.4387 83.9298 27.4688C83.3531 21.111 82.7889 14.7533 82.1245 8.40181C81.9615 6.84367 82.5445 6.64342 83.7793 7.08145C86.8947 8.15151 90.2544 8.72721 92.6991 11.249Z" fill="#F9D96F"/>
<path d="M85.6727 85.6262C85.4972 86.1456 85.3468 86.6713 85.1399 87.1781C82.5386 93.4358 80.3196 96.2454 73.6188 90.5072C69.9519 87.3784 66.3476 88.5486 64.4546 93.0603C63.6084 95.069 63.038 97.1966 62.2921 99.2491C61.6088 101.126 60.9694 103.054 59.2269 104.305L58.9824 104.067C59.0576 100.369 61.7718 97.6909 62.8499 94.3494C63.2636 93.0978 63.1195 91.6148 63.9782 90.5072C66.2223 87.6036 70.5912 86.9278 73.8382 88.8489C75.3865 89.7625 77.1416 90.3507 78.6084 91.352C80.5829 92.7099 81.2285 91.5147 82.081 90.0504C83.0401 88.4046 83.4036 86.2958 85.4408 85.4072C85.516 85.4698 85.5975 85.5637 85.6727 85.6262Z" fill="#CC8153"/>
<path d="M39.2871 23.7263C40.9231 21.2859 43.1296 19.4274 45.4864 17.3311C47.2416 21.5487 48.8463 25.5598 50.5888 29.5146C51.084 30.6472 50.8521 31.2668 49.7928 31.6297C47.9875 32.2555 46.4894 33.557 44.5588 33.8762C43.6122 33.7698 42.7409 33.7948 42.4777 34.9775H42.3523L41.4121 34.771C41.4121 33.5195 41.8132 32.8937 43.2926 32.6685C46.7652 32.0427 48.1567 29.3206 47.3607 26.0917C46.8905 24.1706 46.107 22.381 45.6494 20.6726C42.8977 20.8604 41.7631 22.9942 40.3903 24.8777C40.2336 25.0842 39.7071 25.0279 39.3561 25.0967L39.2871 23.7263Z" fill="#EDCE3D"/>
<path d="M109.467 38.0686C106.997 36.9923 105.8 35.5155 106.828 32.5494C107.799 29.7335 108.182 26.7173 108.915 23.3945C111.45 25.8847 113.744 28.6085 115.766 31.5294C118.077 34.5484 120.233 37.6811 122.229 40.9159C123.389 42.8745 122.185 44.3888 120.248 45.2962C122.129 41.9734 121.865 40.9159 118.55 38.2564C117.114 34.4392 114.582 31.373 111.774 28.532C111.26 28.0127 110.752 27.4057 109.931 27.9063C109.367 28.2317 107.423 34.5894 107.555 35.2027C107.611 35.4225 107.726 35.623 107.887 35.7828C108.048 35.9427 108.25 36.0557 108.47 36.11C108.817 36.2231 109.122 36.4374 109.345 36.7252C109.569 37.013 109.701 37.3611 109.724 37.7245C109.63 37.8329 109.544 37.9479 109.467 38.0686Z" fill="#F9D96F"/>
<path d="M67.9591 38.0817C67.5078 36.7488 66.3607 37.1306 65.4518 37.1181C61.835 37.0617 58.2183 37.0054 54.6328 37.6312C58.4565 35.466 62.7816 36.1857 66.8747 35.5724C70.017 35.03 73.2327 35.0746 76.3587 35.7038C73.5191 37.3746 70.6921 37.5686 67.9591 38.0817Z" fill="#63799B"/>
<path d="M41.4126 34.7842L42.3529 34.9907C41.6383 35.3661 40.9363 35.7603 40.2154 36.1108C36.3416 38.0256 35.019 37.5313 33.0508 33.6077C32.8593 33.3095 32.7665 32.9587 32.7857 32.605C32.8048 32.2513 32.9348 31.9125 33.1573 31.6366C35.0378 28.8707 36.843 26.0485 39.2877 23.7207L39.3253 25.0849C38.1468 26.7619 37.1815 28.6517 35.7398 30.091C34.1101 31.7054 34.248 33.2198 35.3324 34.7842C36.4168 36.3486 37.9901 36.2922 39.576 35.2284C40.1588 34.9783 40.7798 34.8281 41.4126 34.7842Z" fill="#F9D96F"/>
<path d="M38.8934 57.0234C39.6268 58.8006 39.2507 60.5903 39.0125 62.3925C38.5298 66.1157 38.8495 69.839 38.9498 73.5811C39.1191 79.92 41.3694 86.1464 39.9904 92.5604C39.3635 83.6934 37.9469 74.8889 38.0723 65.9656C38.0534 62.9653 38.3285 59.9703 38.8934 57.0234Z" fill="#63799B"/>
<path d="M70.0277 27.3185H72.3971C73.7322 28.2384 75.293 27.4874 76.7034 27.8942C70.5291 27.8942 64.3737 28.0506 58.3185 29.4211C56.9771 29.7214 56.0807 29.3397 55.5103 28.0068C54.8835 26.5175 54.0561 25.1033 53.3164 23.6265L53.6424 23.3574C54.5199 23.7016 54.5889 25.0219 55.7172 25.0783V25.1221C55.3912 27.744 57.8233 27.3936 59.1146 28.2509L60.6754 28.2071C61.1833 28.2903 61.7037 28.2558 62.1961 28.106C62.6885 27.9563 63.1397 27.6954 63.5149 27.3435L67.8275 26.918C67.859 27.0613 67.903 27.2016 67.9591 27.3373C68.0947 27.4742 68.2565 27.5826 68.4348 27.6559C68.6132 27.7293 68.8045 27.7662 68.9974 27.7645C69.1902 27.7627 69.3808 27.7223 69.5578 27.6457C69.7347 27.5691 69.8946 27.4579 70.0277 27.3185Z" fill="#F9D96F"/>
<path d="M54.0312 124.549C54.9199 125.524 55.5247 126.722 55.7801 128.016C55.8678 128.641 55.7801 129.43 56.7078 129.317C57.6355 129.204 57.4349 128.466 57.2343 127.865C57.0337 127.265 57.2782 126.864 57.9239 126.739C58.1704 130.185 58.4191 133.629 58.6698 137.07L56.7392 138.209C57.1349 135.695 56.7953 133.12 55.7613 130.794C55.0624 128.748 54.4847 126.663 54.0312 124.549Z" fill="#63799B"/>
<path d="M118.549 38.2373C121.865 40.9093 122.116 41.9543 120.248 45.2771C120.189 45.3101 120.123 45.3285 120.055 45.3308C119.988 45.3332 119.92 45.3194 119.859 45.2907C119.798 45.2619 119.744 45.219 119.703 45.1655C119.662 45.112 119.634 45.0495 119.621 44.983C120.023 43.6439 118.832 43.306 118.098 42.8867C117.059 42.3938 116.098 41.7507 115.246 40.9781C116.625 40.415 118.117 39.9581 118.549 38.2373Z" fill="#EDCE3D"/>
<path d="M76.7028 27.9003C75.2925 27.4936 73.7317 28.2445 72.3965 27.3246C73.0325 27.2737 73.671 27.2633 74.3083 27.2933C76.0635 27.4811 76.7342 26.799 76.7091 24.9905C76.6548 19.6173 76.6819 14.242 76.7906 8.86466C76.8345 6.91854 76.076 6.30529 74.2081 6.40541C72.9544 6.47425 71.6381 6.81216 70.5098 5.91107C77.4049 5.46052 77.4049 5.46052 77.361 12.1061C77.361 16.5678 77.361 21.0295 77.2733 25.4849C77.2607 26.2796 77.8499 27.3121 76.7028 27.9003Z" fill="#E8D896"/>
<path d="M27.127 42.4678C27.2774 40.9785 28.3806 39.921 28.7943 38.5693C29.0513 38.6131 29.2393 38.5693 29.302 38.657C31.9034 41.742 31.9034 41.742 28.4307 44.852C26.8699 44.6705 27.2711 43.419 27.127 42.4678Z" fill="#F9D96F"/>
<path d="M115.247 40.9783C116.098 41.7508 117.06 42.3939 118.099 42.8868C118.832 43.3061 120.023 43.644 119.622 44.9831C116.231 43.1058 113.16 40.753 110.025 38.5002C110.144 38.3813 110.264 38.2624 110.37 38.1436C112.248 38.5677 113.95 39.5572 115.247 40.9783Z" fill="#F9D96F"/>
<path d="M27.1269 42.4678C27.271 43.4189 26.8698 44.6705 28.4306 44.8519L24.1306 49.0258L23.8047 48.9006L27.1269 42.4678Z" fill="#E8D896"/>
<path d="M64.1339 105.751C63.0119 105.125 63.9834 103.505 62.8301 102.86C63.2751 101.483 63.7139 100.107 64.159 98.7363C65.1055 99.6374 63.9521 101.302 65.3688 102.034C64.9551 103.273 64.5476 104.512 64.1339 105.751Z" fill="#63799B"/>
<path d="M50.584 18.5571L52.4645 18.4883C52.4042 18.7788 52.4113 19.0793 52.4851 19.3667C52.559 19.6541 52.6977 19.9209 52.8907 20.1465C52.9153 20.3199 52.9595 20.49 53.0224 20.6534C53.2229 21.5608 53.4298 22.4681 53.6492 23.3755L53.3232 23.6446L50.584 18.5571Z" fill="#F9D96F"/>
<path d="M53.135 84.4438C52.8529 83.8806 52.5082 83.3425 52.9281 82.6792C54.2445 80.7143 53.4735 78.6868 53.0786 76.6719C54.9277 79.25 54.6582 81.8407 53.135 84.4438Z" fill="#63799B"/>
<path d="M58.5879 142.683C58.5879 140.823 58.5879 138.968 58.5879 137.12C59.3338 138.972 59.6723 140.825 58.5879 142.683Z" fill="#63799B"/>
<path d="M52.5443 75.033C50.9835 74.7202 51.2217 73.3185 50.877 72.2734C51.7682 72.9444 52.3655 73.9331 52.5443 75.033Z" fill="#63799B"/>
<path d="M42.4766 34.9775C42.7398 33.7948 43.6111 33.7698 44.5576 33.8761C44.0104 34.4699 43.276 34.8586 42.4766 34.9775Z" fill="#F9D96F"/>
<path d="M52.5065 86.027C52.5065 85.4012 52.4626 84.7754 53.0957 84.4062C53.2032 84.7025 53.203 85.0271 53.0953 85.3232C52.9877 85.6194 52.7793 85.8685 52.5065 86.027Z" fill="#63799B"/>
<path d="M53.0974 76.7102C52.4705 76.3035 52.4705 75.6715 52.5269 75.0332C52.7932 75.2115 52.9934 75.4723 53.0965 75.7754C53.1995 76.0784 53.1999 76.407 53.0974 76.7102Z" fill="#63799B"/>
<path d="M98.9304 41.8547L98.4102 41.1226C98.4913 41.0621 98.585 41.0206 98.6843 41.001C98.7836 40.9815 98.886 40.9844 98.9841 41.0097C99.0821 41.0349 99.1732 41.0817 99.2507 41.1467C99.3282 41.2118 99.3901 41.2933 99.4319 41.3854L98.9304 41.8547Z" fill="#F7F7F7"/>
<path d="M50.8969 72.329C50.3766 72.0099 50.3578 71.4905 50.3516 70.9648C50.5676 71.1128 50.7347 71.3214 50.8318 71.5642C50.9289 71.8071 50.9515 72.0733 50.8969 72.329Z" fill="#63799B"/>
<path d="M58.0366 143.79C58.0042 143.566 58.0423 143.337 58.1456 143.136C58.2489 142.934 58.4123 142.769 58.6133 142.664C58.6634 143.165 58.7011 143.665 58.0366 143.79Z" fill="#63799B"/>
<path d="M110.025 38.5004L109.467 38.0686C109.552 37.9317 109.649 37.8019 109.755 37.6807L110.382 38.1437C110.263 38.2626 110.144 38.3815 110.025 38.5004Z" fill="#F9D96F"/>
<path d="M62.9372 103.041L62.1035 103.592C62.3104 103.298 62.4044 102.841 62.9372 103.041Z" fill="#63799B"/>
<path d="M64.1348 105.751C64.5485 104.499 64.9559 103.248 65.3884 102.034L65.7771 101.539L66.7925 100.388L66.874 100.332L67.388 99.8374C70.9735 97.6848 74.6091 95.9076 79.0219 97.0778C81.2603 97.6418 83.1965 99.0417 84.4315 100.989C85.8042 103.066 84.8514 105.238 82.3629 105.738C76.477 106.915 74.3959 106.483 76.9033 114.499C77.3747 116.363 77.6478 118.272 77.7181 120.193C77.804 120.975 77.6335 121.764 77.2323 122.441C76.8311 123.118 76.2207 123.647 75.4929 123.948C74.0136 124.693 72.8727 123.986 71.7319 123.16C70.8804 122.605 70.1634 121.868 69.6332 121.002C69.1029 120.136 68.7728 119.163 68.6667 118.153C68.1778 113.66 67.6513 109.168 64.1348 105.751ZM72.0453 121.551L72.7725 121.958L72.7098 121.908C75.0729 123.197 76.1949 122.584 76.1887 119.999C76.2914 119.188 76.1098 118.365 75.6747 117.672C75.6245 117.19 75.5806 116.714 75.5305 116.232C75.4884 114.913 75.1522 113.62 74.5464 112.447C73.8067 106.815 74.5088 105.889 80.1126 104.631C81.266 104.374 83.0838 104.355 83.1778 102.954C83.2718 101.552 82.2062 100.257 80.8147 99.4995C77.5489 97.7161 74.3395 98.1353 71.149 99.7248C69.9025 100.018 68.7864 100.71 67.971 101.696C65.2066 104.768 65.0875 106.076 67.8581 108.223C69.3186 109.343 69.6509 111.051 69.5945 112.885C69.513 115.388 69.4691 117.972 71.0612 120.187C71.0906 120.469 71.1912 120.738 71.3535 120.97C71.5158 121.202 71.7344 121.389 71.9889 121.514L72.0453 121.551Z" fill="#15110E"/>
<path d="M54.0295 124.549C54.4825 126.667 55.0602 128.757 55.7596 130.807C56.7936 133.133 57.1331 135.708 56.7374 138.222C55.5151 140.012 54.1361 141.695 51.6601 140.951C49.1841 140.206 48.4946 138.003 48.2502 135.813C47.9305 132.997 48.5322 130.181 49.2343 127.478C49.7106 125.644 50.3438 123.855 50.933 122.059C51.1586 121.389 51.2339 120.394 52.0738 120.382C53.1331 120.382 53.0391 121.539 53.3275 122.259C53.6062 123.008 53.8406 123.773 54.0295 124.549ZM51.6664 123.855C50.6697 128.179 49.9676 131.802 49.9363 135.438C49.9363 137.115 50.3312 139.774 52.8761 139.549C55.3082 139.342 55.5214 136.883 55.2142 135.05C54.4949 131.186 53.3012 127.426 51.6601 123.855H51.6664Z" fill="#15110E"/>
<path d="M39.0738 112.547C38.7541 117.196 37.1369 120.876 36.5664 124.755C36.3972 125.913 35.3128 126.32 34.2158 126.088C32.9183 125.826 31.7085 125.325 31.5455 123.767C31.4246 122.952 31.5264 122.12 31.8401 121.358C33.6342 117.966 36.0943 114.969 39.0738 112.547ZM36.0086 118.341C34.787 119.491 33.8161 120.88 33.1565 122.421C32.7929 123.366 33.0374 124.299 34.2409 124.499C35.2187 124.649 35.4193 123.942 35.4945 123.116C35.6011 121.696 35.7892 120.275 36.0086 118.341Z" fill="#15110E"/>
<path d="M66.7747 100.388L65.7592 101.54C65.7299 101.394 65.7346 101.244 65.7731 101.1C65.8116 100.957 65.8827 100.824 65.981 100.713C66.0793 100.601 66.2021 100.514 66.3398 100.458C66.4774 100.401 66.6263 100.378 66.7747 100.388Z" fill="#63799B"/>
<path d="M67.3695 99.8623L66.8555 100.357L67.3695 99.8623Z" fill="#63799B"/>
<path d="M85.4404 85.4205C83.4033 86.3028 83.0397 88.4179 82.0807 90.0636C81.2282 91.5279 80.5825 92.7231 78.608 91.3652C77.1413 90.3515 75.3861 89.7633 73.8378 88.8622C70.5909 86.9411 66.2219 87.6106 63.9779 90.5204C63.1191 91.628 63.2633 93.0985 62.8496 94.3626C61.7714 97.7042 59.0573 100.382 58.9821 104.081C56.644 103.749 54.8011 105.695 52.3878 105.395C50.3005 105.132 49.3665 104.206 49.1847 102.203C48.9152 99.2498 50.2817 96.9783 51.5667 94.4001C53.8546 89.807 57.8036 85.8084 56.9762 79.8512C56.3494 75.6085 56.7881 75.5334 61.1697 75.6586C62.1475 75.6899 63.2069 75.377 64.0593 76.1717L63.9465 76.3657L64.0531 76.1655C65.8145 75.2581 68.1776 76.4032 69.6068 74.2256C70.4718 75.7837 69.3498 78.6998 72.5466 77.8926C75.1605 82.398 76.6335 83.0238 82.5758 82.1853C83.2591 82.1853 84.0175 82.4168 84.3435 81.5095H84.3122L84.939 81.0026L84.8324 80.9463C86.2992 81.2591 86.9072 82.0288 85.9544 83.3867C85.5999 84.0049 85.4221 84.7084 85.4404 85.4205Z" fill="#E87619"/>
<path d="M82.5499 82.1721C76.6327 83.0106 75.1596 82.3848 72.5207 77.8793C72.2323 76.9219 71.969 75.952 71.6431 75.0071C71.0163 73.2112 69.6811 72.7981 68.1642 73.6492C59.6456 78.4363 53.0012 70.3452 52.4935 63.5619C52.3807 62.1101 52.4935 60.6396 52.4935 59.1816C52.588 59.0657 52.633 58.9173 52.6189 58.7686C55.4835 51.8477 60.8805 53.9502 66.2524 55.5209C65.3247 52.4359 64.0272 49.9453 64.8609 47.1357C66.9168 40.1897 72.3013 38.9507 78.4129 39.5702C80.0113 39.7329 81.1897 41.4475 81.3276 42.8617C81.8667 48.4373 85.4082 51.2782 89.8211 53.994C94.6978 56.9977 94.4534 59.8699 89.8211 63.3179C89.4284 63.6827 89.0773 64.0899 88.7743 64.5318C87.3138 65.5206 87.1947 67.0349 87.2574 68.5868C87.3577 71.0898 87.5269 73.6242 87.6711 76.1397V76.0834C87.2261 77.9982 86.0413 79.4875 84.8441 80.9643L84.9444 81.0207C84.5683 80.9894 84.2674 81.0207 84.3176 81.5275H84.3489C84.0192 81.481 83.683 81.5153 83.3696 81.6276C83.0561 81.7399 82.7748 81.9268 82.5499 82.1721ZM80.0426 44.2634C79.9611 44.0006 79.8734 43.7378 79.7919 43.475C77.0589 39.6891 70.8721 40.3774 67.8821 44.8141C67.3838 45.1912 66.984 45.6828 66.7167 46.2471C66.4493 46.8114 66.3223 47.4318 66.3464 48.0555L66.3088 49.3071C66.1521 50.5586 66.1646 51.7475 67.1613 52.6987L67.0986 52.73C68.1078 56.4533 67.249 57.3231 63.4191 56.447C62.623 56.2655 61.8458 56.0277 61.0497 55.8212C57.1132 54.8763 55.1638 56.1341 54.2424 60.2016C54.0228 61.4643 54.0419 62.7568 54.2988 64.0125C54.5743 65.9094 55.2679 67.7218 56.3297 69.3189C59.2194 73.9496 64.4785 74.7818 68.7033 71.2901L68.8663 71.3464L68.9979 71.2275C71.361 71.1211 72.3828 72.7106 73.2227 74.544C75.5232 81.0081 77.178 81.9906 82.4246 80.032C84.1295 79.4062 85.5587 78.5552 85.5587 76.4526C86.7058 73.2237 85.3142 70.0073 85.5587 66.7846L85.6527 66.6532L85.5838 66.503C86.2106 65.1013 86.6494 63.5807 87.809 62.4606C88.399 62.0568 89.0292 61.715 89.6895 61.4406C92.1404 60.721 92.1968 59.2442 91.0936 57.3544C90.9083 56.7467 90.5756 56.194 90.1252 55.7454C89.6747 55.2967 89.1203 54.966 88.5111 54.7825C85.5337 53.7621 82.9819 51.7805 81.2587 49.1506C81.1772 48.406 81.641 47.5299 80.7384 46.9792C80.4877 46.0844 80.9014 45.0269 80.0426 44.2634Z" fill="#2B120D"/>
<path d="M52.6082 58.7629C52.6223 58.9116 52.5773 59.06 52.4829 59.1759C50.452 60.5088 51.7307 62.4486 51.6366 64.232C49.6183 63.8628 50.1511 61.9605 49.8063 60.9405C48.7781 57.8317 48.7781 54.4752 49.8063 51.3664C49.8627 51.1974 50.1135 51.0347 50.0884 50.9096C49.3174 46.8233 53.6738 46.5292 55.1594 44.0637C55.3161 43.8072 56.0056 43.7759 56.4131 43.7884C59.5785 43.9136 62.7252 43.9386 65.6588 41.9111C64.1105 45.0399 63.1828 48.0373 63.4524 51.3789C63.5589 52.6304 62.2927 52.6304 61.4026 52.5366C59.1217 52.2286 56.8018 52.6515 54.7771 53.7443C52.9342 54.7392 52.207 56.604 52.6082 58.7629Z" fill="#E87619"/>
<path d="M88.7383 64.5254C92.2548 64.6256 93.4207 63.6244 94.3171 59.7196C94.455 59.1314 94.223 58.2741 95.0881 58.1927C95.9531 58.1114 96.1725 58.9937 96.4358 59.657C96.4734 59.7446 96.4357 59.8573 96.4921 59.9261C97.6894 61.8034 94.806 63.3928 96.3041 65.7645C97.2569 67.2788 95.0003 69.7005 94.6869 71.7405C94.292 74.3186 92.5557 75.6578 91.0199 77.266C90.3931 77.9418 89.854 78.9868 88.569 78.6051C87.0709 78.167 88.1303 76.8529 87.6602 76.102V76.1771C88.4312 75.883 88.9451 75.251 88.732 74.5001C87.7918 71.171 88.4813 67.8733 88.732 64.5693L88.7383 64.5254Z" fill="#E87619"/>
<path d="M55.2274 74.2063C55.0958 73.5805 55.4155 73.4679 55.7853 73.4804C56.1552 73.4929 56.6942 73.6118 56.7695 74.1562C56.8259 74.5442 56.6002 74.9322 56.2116 74.8383C55.8487 74.6874 55.5154 74.4734 55.2274 74.2063Z" fill="#E87619"/>
<path d="M53.0286 20.6544C52.9657 20.4909 52.9215 20.3209 52.8969 20.1475C53.879 19.3132 53.7369 18.7604 52.4707 18.4892C54.3512 15.7484 54.3512 15.7484 54.0691 13.5457C56.1314 14.8911 56.4698 12.8636 57.6169 12.1252C59.8296 10.6985 62.2617 9.45324 65.1389 9.58465C65.866 9.61594 68.2291 10.8362 67.2262 8.02651C67.0758 7.61351 67.8531 7.55719 68.3044 7.48835C72.2847 6.86259 74.3972 8.37694 74.4598 12.4944C74.51 15.6233 75.281 18.8584 73.8957 21.9184C73.8363 22.0859 73.8207 22.2657 73.8503 22.4409C73.8799 22.6161 73.9538 22.7809 74.0649 22.9196C75.1494 24.9346 73.7891 25.0347 72.3537 25.0472C71.5325 25.0472 70.7051 25.1035 69.884 25.0472C68.4861 24.9408 67.8343 25.5541 67.8782 26.9245L63.5656 27.35C61.5723 24.4965 58.482 25.4727 55.7678 25.116V25.0723C55.5234 23.1887 55.3667 21.2614 53.0286 20.6544Z" fill="#F8D121"/>
<path d="M70.0274 27.3184C69.7638 27.5945 69.4012 27.7549 69.0192 27.7643C68.6372 27.7737 68.2671 27.6313 67.9902 27.3684L70.0274 27.3184Z" fill="#E8D896"/>
<path d="M41.4123 34.7836C40.7795 34.8276 40.1586 34.9777 39.5757 35.2279C37.9899 36.2917 36.4855 36.4794 35.3321 34.7836C34.1787 33.0878 34.1098 31.7049 35.7396 30.0904C37.1813 28.6762 38.1466 26.7864 39.325 25.0843C39.676 25.0155 40.2026 25.0843 40.3593 24.8653C41.732 22.988 42.8666 20.8479 45.6184 20.6602C46.076 22.3685 46.872 24.1582 47.3296 26.0793C48.1257 29.3082 46.7341 32.049 43.2615 32.656C41.8135 32.9063 41.3935 33.5321 41.4123 34.7836Z" fill="#F8D121"/>
<path d="M110.369 38.1441L109.742 37.6811C109.719 37.3177 109.587 36.9696 109.363 36.6818C109.14 36.394 108.835 36.1797 108.488 36.0666C108.268 36.0123 108.066 35.8993 107.905 35.7394C107.744 35.5796 107.629 35.3791 107.573 35.1593C107.417 34.5335 109.385 28.1883 109.949 27.8629C110.77 27.3873 111.278 27.9943 111.792 28.4886C114.6 31.3484 117.132 34.3958 118.568 38.213C118.135 39.9338 116.644 40.3718 115.265 40.9538C113.96 39.5386 112.251 38.5578 110.369 38.1441Z" fill="#F8D121"/>
<path d="M55.7485 25.1406C58.4627 25.4723 61.5529 24.5149 63.5462 27.3746C63.1711 27.7264 62.7198 27.9873 62.2274 28.1371C61.735 28.2868 61.2147 28.3214 60.7067 28.2382C60.6315 27.6124 61.1079 26.5486 60.13 26.486C59.0393 26.4172 59.1584 27.4935 59.1459 28.2819C57.8546 27.4121 55.4226 27.7626 55.7485 25.1406Z" fill="#EDCE3D"/>
<path d="M53.0273 20.6533C55.3654 21.2791 55.5346 23.1876 55.7164 25.0962C54.5881 25.0399 54.5192 23.7195 53.6416 23.3754C53.4348 22.468 53.2279 21.5607 53.0273 20.6533Z" fill="#EDCE3D"/>
<path d="M59.1454 28.2817C59.1454 27.4932 59.0389 26.4044 60.1295 26.4858C61.1074 26.5483 60.631 27.5934 60.7063 28.2379L59.1454 28.2817Z" fill="#F8D121"/>
<path d="M52.4702 18.5137C53.7239 18.7765 53.8659 19.3292 52.8964 20.1719C52.7035 19.9463 52.5647 19.6795 52.4909 19.3921C52.417 19.1047 52.4099 18.8042 52.4702 18.5137Z" fill="#EDCE3D"/>
<path d="M75.5303 116.233C75.5805 116.715 75.6244 117.191 75.6745 117.672C75.5868 119.712 76.0569 122.14 72.7096 121.909L72.7723 121.959C72.7594 121.88 72.7288 121.805 72.6829 121.74C72.6369 121.674 72.5768 121.62 72.5069 121.581C72.4371 121.542 72.3593 121.519 72.2793 121.514C72.1994 121.509 72.1193 121.522 72.0452 121.552L71.9888 121.515C72.2082 120.707 71.6942 120.407 71.0611 120.188C69.4689 117.973 69.5128 115.413 69.5943 112.885C69.6507 111.052 69.3185 109.344 67.858 108.223C65.0874 106.102 65.2065 104.769 67.9708 101.697C68.7863 100.711 69.9024 100.019 71.1488 99.7256L71.3181 99.8695C71.4748 101.09 71.4873 102.673 70.0644 102.761C66.479 102.98 67.8078 104.863 68.5663 106.515C69.7635 109.162 71.7944 111.333 71.2491 114.775C70.6724 118.436 71.0799 118.498 74.8095 119.931C72.9854 118.448 74.3707 117.09 74.5462 115.689L75.5303 116.233Z" fill="#F9D96F"/>
<path d="M71.1484 99.7248C74.339 98.1354 77.5483 97.7161 80.8141 99.4996C82.2057 100.257 83.265 101.571 83.1773 102.954C83.0895 104.337 81.2968 104.374 80.1121 104.631C74.5082 105.882 73.8062 106.821 74.5458 112.447L74.5082 115.162C73.3987 114.937 73.4426 114.08 73.4426 113.241C73.5378 111.415 73.5169 109.584 73.3799 107.76C73.0603 105.332 74.2387 104.568 76.3448 104.449C76.8949 104.432 77.4379 104.32 77.9495 104.118C78.9963 103.655 80.8016 103.586 80.5947 102.159C80.3879 100.732 79.4351 99.3994 77.3603 99.656C75.3509 99.8274 73.3339 99.8921 71.3177 99.85L71.1484 99.7248Z" fill="#F9D96F"/>
<path d="M72.709 121.908C76.0562 122.14 75.5862 119.712 75.6739 117.672C76.109 118.365 76.2906 119.188 76.1879 120C76.1941 122.584 75.0721 123.197 72.709 121.908Z" fill="#E8D896"/>
<path d="M74.5098 115.162L74.5474 112.446C75.1532 113.62 75.4894 114.913 75.5315 116.232L74.5787 115.713C74.5537 115.506 74.5286 115.344 74.5098 115.162Z" fill="#E8D896"/>
<path d="M71.0625 120.188C71.6893 120.407 72.2096 120.707 71.9902 121.514C71.7357 121.39 71.5171 121.202 71.3548 120.97C71.1925 120.738 71.0919 120.469 71.0625 120.188Z" fill="#E8D896"/>
<path d="M72.0449 121.551C72.1191 121.521 72.1991 121.508 72.2791 121.513C72.359 121.518 72.4368 121.541 72.5067 121.58C72.5765 121.619 72.6367 121.673 72.6826 121.738C72.7286 121.804 72.7592 121.879 72.7721 121.958L72.0449 121.551Z" fill="#E8D896"/>
<path d="M51.6619 123.854C53.3009 127.426 54.4925 131.186 55.2098 135.049C55.5169 136.883 55.3038 139.342 52.8717 139.549C50.3268 139.774 49.9194 137.114 49.9319 135.437C49.9633 131.777 50.6653 128.179 51.6619 123.854ZM52.8717 138.184C53.3748 137.505 53.7348 136.731 53.9299 135.908C54.1251 135.086 54.1515 134.233 54.0074 133.4C53.8633 132.568 53.5517 131.773 53.0915 131.063C52.6313 130.354 52.032 129.745 51.3297 129.274C51.6181 132.402 50.2704 135.569 52.8717 138.184Z" fill="#E8D896"/>
<path d="M36.0091 118.342C35.7897 120.275 35.6017 121.696 35.4889 123.116C35.4199 123.942 35.2193 124.649 34.2352 124.499C33.0317 124.312 32.7872 123.367 33.1508 122.422C33.8123 120.88 34.7853 119.491 36.0091 118.342Z" fill="#E8D896"/>
<path d="M82.5508 82.1726C82.7693 81.9264 83.0441 81.7364 83.3518 81.6188C83.6595 81.5011 83.9911 81.4592 84.3184 81.4967C83.9925 82.4041 83.234 82.1976 82.5508 82.1726Z" fill="#CC8153"/>
<path d="M84.2871 81.5149C84.2871 81.0331 84.5566 80.9768 84.9139 81.008L84.2871 81.5149Z" fill="#CC8153"/>
<path d="M64.0597 76.1523L63.9531 76.3526L64.0659 76.1586L64.0597 76.1523Z" fill="#CC8153"/>
<path d="M54.2998 64.0064C54.0429 62.7508 54.0238 61.4582 54.2434 60.1955C55.4281 59.7324 57.622 60.3895 57.7285 58.944C57.9981 55.1456 60.3925 56.8477 61.8969 57.2169C63.0127 57.4922 64.4983 57.8426 63.7022 60.2956C62.3733 64.3818 64.749 66.7848 69.1932 66.7159C70.9045 66.6847 72.553 66.7535 73.2801 68.637C73.5157 69.2299 73.5157 69.8902 73.2801 70.483C72.7599 71.4842 72.2772 70.3516 71.757 70.2828C70.7039 70.1576 69.5254 69.7446 69.0115 71.2152L68.8798 71.3341L68.7168 71.2777C67.816 71.2556 66.9153 71.3227 66.0277 71.478C61.0131 72.8296 57.4026 70.8522 55.823 65.8086C55.5274 65.0571 54.9921 64.4237 54.2998 64.0064Z" fill="#F8D121"/>
<path d="M68.9985 71.2216C69.5125 69.7511 70.691 70.1641 71.744 70.2892C72.2643 70.3581 72.747 71.4907 73.2672 70.4895C73.5028 69.8966 73.5028 69.2363 73.2672 68.6435C72.5401 66.7662 70.8915 66.6911 69.1803 66.7224C64.7361 66.7912 62.3604 64.3883 63.6893 60.3021C64.4854 57.8428 62.9998 57.4987 61.8841 57.2233C60.3797 56.8541 57.9852 55.1521 57.7156 58.9504C57.6091 60.3897 55.4152 59.7326 54.2305 60.202C55.1519 56.122 57.1013 54.8642 61.0378 55.8216C61.8339 56.0156 62.6112 56.2534 63.4072 56.4474C67.2372 57.3234 68.0959 56.4474 67.0867 52.7304C68.9672 54.4512 68.9672 54.47 70.8477 52.43C72.4461 50.7092 74.1072 49.2261 76.7085 50.3399C76.6709 50.5715 76.6396 50.803 76.6082 51.0346C74.2326 50.7467 72.2643 51.5039 71.8318 53.9631C71.3178 56.8541 69.9513 58.5437 67.024 59.0318C65.3817 59.3071 64.7863 60.6275 64.7674 62.0292C64.7194 62.7182 64.9073 63.403 65.3002 63.9715C65.6931 64.5399 66.2677 64.9583 66.93 65.158C68.1194 65.6473 69.4221 65.7947 70.691 65.5835C73.1481 65.0203 74.5397 65.9902 74.9221 68.4557C74.1072 69.7073 74.6024 71.0652 74.4896 72.373C74.4018 73.3367 74.64 74.4318 73.1795 74.5569C72.3834 72.7047 71.3617 71.1152 68.9985 71.2216Z" fill="#F9D96F"/>
<path d="M76.7534 50.3089C74.1521 49.195 72.491 50.6781 70.8926 52.3989C69.0121 54.4389 69.0121 54.4201 67.1316 52.6993L67.1943 52.668C67.1943 51.4603 69.3819 49.7144 66.3418 49.2764L66.3794 48.0248C68.5545 47.7245 67.7647 46.0287 67.9151 44.7771C68.4506 44.8655 69.0001 44.8047 69.5033 44.6016C70.0064 44.3985 70.4437 44.0608 70.7672 43.6257C71.2488 43.0214 71.93 42.6077 72.6891 42.4586C73.4481 42.3096 74.2355 42.4349 74.9105 42.8122C76.1642 43.6007 76.8788 42.6934 77.8253 42.6808C77.848 42.9546 77.9701 43.2106 78.1686 43.4008C78.3672 43.5909 78.6285 43.7021 78.9034 43.7133L78.941 43.7572C79.6744 44.7146 77.4617 46.6795 80.0505 47.0049C80.1571 47.8747 79.6932 49.0574 81.229 49.1387C80.9156 49.7207 81.5925 50.7407 80.5457 50.9409C80.1069 51.0285 79.2482 51.2913 79.1103 50.628C78.5775 48.2814 77.4931 50.5154 76.7534 50.3089Z" fill="#F8D121"/>
<path d="M76.7521 50.3084C77.4918 50.5149 78.5762 48.2809 79.0588 50.6651C79.1967 51.3284 80.0555 51.0656 80.4943 50.978C81.5411 50.7777 80.8641 49.7577 81.1775 49.1758C82.9007 51.8056 85.4526 53.7873 88.4299 54.8076C89.0391 54.9912 89.5935 55.3219 90.044 55.7705C90.4945 56.2192 90.8271 56.7718 91.0125 57.3795C90.9435 58.8188 91.1065 60.2956 89.0317 60.6585C88.6452 60.7744 88.31 61.0189 88.082 61.3513C87.8539 61.6837 87.7467 62.084 87.778 62.4857L86.5871 62.4106C86.5871 62.0727 86.4742 61.6597 86.6247 61.3969C88.5553 57.9427 88.5052 57.7174 85.8537 56.5222C83.5595 55.496 83.3902 55.5898 83.3464 58.1054C83.3088 60.2956 83.3464 62.4857 83.3464 64.6696L82.3058 63.0927C82.3058 61.5846 82.3936 60.0703 82.2619 58.5685C82.1742 57.6486 82.8888 56.3345 81.3154 55.9027C80.2772 53.8677 78.6704 52.1766 76.6895 51.0343L76.7521 50.3084Z" fill="#EDCE3D"/>
<path d="M85.547 76.4467C85.547 78.5493 84.1304 79.4066 82.4129 80.0261C80.476 79.9447 78.5766 80.2388 76.6962 79.0687C76.2441 78.7995 75.8642 78.4249 75.5891 77.9769C75.3139 77.529 75.1518 77.0211 75.1166 76.4968C75.0664 75.4643 76.4392 75.6645 77.3042 75.5957L77.254 75.5644L77.8245 76.0587C78.4952 76.5594 79.1659 75.9023 79.8428 76.0587L80.5574 75.5706H80.5261L81.1529 75.045C82.7012 74.7947 82.9206 73.5369 83.3782 72.3229C84.2996 69.8825 83.2779 67.5046 83.3782 65.1079L85.3903 64.5322L85.5595 66.4721L85.6285 66.6223L85.5345 66.7537C84.6061 69.9188 84.6104 73.2839 85.547 76.4467Z" fill="#EDCE3D"/>
<path d="M54.3008 64.0068C54.9895 64.4278 55.5203 65.0633 55.8115 65.8153C57.3911 70.8777 61.0329 72.8363 66.0162 71.4847C66.9037 71.3293 67.8045 71.2623 68.7053 71.2844C64.4805 74.7762 59.2214 73.9439 56.3317 69.3133C55.2699 67.7162 54.5763 65.9038 54.3008 64.0068Z" fill="#F9D96F"/>
<path d="M77.3163 75.5962C76.4513 75.665 75.0785 75.4648 75.1286 76.4973C75.1639 77.0216 75.326 77.5295 75.6011 77.9775C75.8763 78.4254 76.2562 78.8 76.7082 79.0692C78.5887 80.2394 80.4692 79.9452 82.4249 80.0266C77.1784 81.9852 75.5298 81.0028 73.2168 74.5387C74.6773 74.4135 74.4391 73.3184 74.5269 72.3548C74.6397 71.0469 74.1445 69.664 74.9594 68.4375C75.0785 71.0407 74.5833 73.8441 77.3163 75.5962Z" fill="#E8D896"/>
<path d="M77.7812 42.718C76.8347 42.718 76.1452 43.6379 74.8665 42.8495C74.1915 42.4722 73.4041 42.3468 72.645 42.4958C71.886 42.6449 71.2047 43.0586 70.7232 43.6629C70.3997 44.098 69.9624 44.4357 69.4592 44.6388C68.9561 44.8419 68.4066 44.9027 67.8711 44.8143C70.8736 40.3777 77.0604 39.6894 79.7808 43.4752C79.6485 43.5659 79.5265 43.6708 79.4173 43.7881C79.2355 43.7881 79.06 43.7881 78.8845 43.7881V43.738C78.8907 42.9996 78.477 42.6993 77.7812 42.718Z" fill="#F9D96F"/>
<path d="M88.7617 64.5381C88.4796 67.8421 87.7901 71.1399 88.7617 74.4689C88.9748 75.2199 88.4608 75.8519 87.6898 76.146C87.5457 73.6429 87.3764 71.1086 87.2761 68.593C87.1821 67.0474 87.3012 65.5268 88.7617 64.5381Z" fill="#CC8153"/>
<path d="M85.5472 76.4463C84.6197 73.2902 84.6197 69.9345 85.5472 66.7783C85.3028 70.001 86.6943 73.2174 85.5472 76.4463Z" fill="#F9D96F"/>
<path d="M87.7534 62.4851C87.722 62.0834 87.8293 61.6831 88.0573 61.3507C88.2854 61.0183 88.6205 60.7738 89.0071 60.6579C91.0819 60.295 90.8876 58.8182 90.9879 57.3789C92.066 59.2562 92.0346 60.7455 89.5837 61.4651C88.9407 61.7426 88.3275 62.0843 87.7534 62.4851Z" fill="#E8D896"/>
<path d="M66.3103 49.2764C69.3504 49.7144 67.1816 51.4603 67.1628 52.668C66.1661 51.7168 66.1536 50.5216 66.3103 49.2764Z" fill="#F9D96F"/>
<path d="M85.5482 66.4964L85.3789 64.5565C85.4291 63.6367 86.1374 63.086 86.5824 62.3789L87.7734 62.454C86.6263 63.5678 86.1813 65.0947 85.5482 66.4964Z" fill="#F9D96F"/>
<path d="M67.8825 44.7959C67.732 46.0474 68.5093 47.7432 66.3468 48.0436C66.3221 47.4189 66.4489 46.7974 66.7162 46.232C66.9836 45.6666 67.3836 45.174 67.8825 44.7959Z" fill="#F9D96F"/>
<path d="M81.1902 49.1763C79.6544 49.0949 80.1183 47.9248 80.0117 47.0424L80.6385 47.0049C81.5725 47.5618 81.1087 48.4379 81.1902 49.1763Z" fill="#EDCE3D"/>
<path d="M80.6718 47.0113L80.0449 47.0489V44.3143L80.1014 44.2705C80.9037 45.0277 80.49 46.0852 80.6718 47.0113Z" fill="#F9D96F"/>
<path d="M79.7932 43.4756C79.8747 43.7384 79.9625 44.0012 80.044 44.264L79.9875 44.3078L79.4297 43.7885C79.539 43.6711 79.6609 43.5662 79.7932 43.4756Z" fill="#F9D96F"/>
<path d="M74.5083 115.162C74.5083 115.344 74.5522 115.531 74.5773 115.713C74.4018 117.115 73.0165 118.472 74.8405 119.955C71.0796 118.522 70.7035 118.46 71.2802 114.799C71.8255 111.358 69.7946 109.167 68.5973 106.539C67.8389 104.862 66.51 102.979 70.0955 102.785C71.487 102.697 71.4745 101.114 71.3491 99.8936C73.3653 99.9357 75.3824 99.871 77.3917 99.6996C79.4665 99.4242 80.4256 100.751 80.6262 102.203C80.8267 103.654 79.0278 103.698 77.981 104.161C77.4693 104.364 76.9264 104.476 76.3763 104.493C74.2701 104.612 73.0917 105.375 73.4114 107.803C73.5483 109.627 73.5693 111.458 73.4741 113.285C73.4615 114.08 73.3988 114.937 74.5083 115.162Z" fill="#F8D121"/>
<path d="M52.8716 138.184C50.2452 135.569 51.618 132.396 51.3296 129.273C52.0319 129.745 52.6312 130.354 53.0914 131.063C53.5516 131.772 53.8632 132.567 54.0073 133.4C54.1513 134.233 54.125 135.086 53.9298 135.908C53.7346 136.73 53.3747 137.505 52.8716 138.184Z" fill="#EDCE3D"/>
<path d="M77.3177 75.5958C74.5847 73.8436 75.0799 71.0402 74.9608 68.4371C74.5785 65.9716 73.1869 65.0016 70.7297 65.5648C69.4609 65.776 68.1581 65.6286 66.9688 65.1393C66.3065 64.9396 65.7318 64.5212 65.3389 63.9528C64.946 63.3843 64.7582 62.6995 64.8062 62.0105C64.8062 60.6088 65.433 59.2884 67.0628 59.0131C69.9775 58.525 71.3566 56.8354 71.8706 53.9444C72.3031 51.4852 74.2713 50.728 76.647 51.0159C78.6279 52.1582 80.2347 53.8492 81.273 55.8843C82.1756 58.719 81.1288 61.7539 82.1944 64.5699C82.9215 68.1868 83.5609 71.7911 81.1351 75.0826L80.5082 75.6083H80.5396L79.825 76.0964C79.148 75.9337 78.4773 76.5907 77.8066 76.0964C77.8066 75.7147 77.5245 75.6521 77.2362 75.602L77.3177 75.5958Z" fill="#15110E"/>
<path d="M79.4294 43.7881L79.9872 44.3075V47.042C77.3984 46.7166 79.6111 44.7517 78.8777 43.7943L79.4294 43.7881Z" fill="#EDCE3D"/>
<path d="M77.7812 42.7178C78.4896 42.7178 78.8907 42.9994 78.8657 43.7503C78.5896 43.7405 78.3268 43.63 78.127 43.4397C77.9271 43.2494 77.8041 42.9925 77.7812 42.7178Z" fill="#EDCE3D"/>
<path d="M86.5806 62.3793C86.1356 63.0864 85.4273 63.6308 85.3771 64.557L83.365 65.1327C83.365 64.97 83.3211 64.801 83.3086 64.6383C83.3086 62.4481 83.3086 60.258 83.3086 58.0741C83.3525 55.571 83.5217 55.4647 85.8159 56.4909C88.4925 57.6861 88.5175 57.9114 86.5869 61.3656C86.4678 61.6284 86.5869 62.0414 86.5806 62.3793Z" fill="#F8D121"/>
<path d="M83.3095 64.6384C83.3095 64.8011 83.3094 64.9701 83.3659 65.1328C83.2656 67.5295 84.2873 69.9074 83.3659 72.3478C82.9083 73.5618 82.6889 74.8509 81.1406 75.0699C83.5665 71.7784 82.9271 68.1865 82.2 64.5571C82.2 64.0627 82.2438 63.5621 82.2689 63.0615C82.6199 63.5684 82.9647 64.1128 83.3095 64.6384Z" fill="#F9D96F"/>
<path d="M82.2677 63.0621C82.2677 63.5627 82.2239 64.0633 82.1988 64.5576C81.1332 61.7417 82.1988 58.7068 81.2773 55.8721C82.8632 56.3038 82.1361 57.6179 82.2239 58.5378C82.3555 60.0396 82.2677 61.554 82.2677 63.0621Z" fill="#E8D896"/>
<path d="M77.2656 75.5645C77.554 75.6145 77.836 75.6771 77.836 76.0588L77.2656 75.5645Z" fill="#E8D896"/>
<path d="M80.5391 75.6018L81.1659 75.0762L80.5391 75.6018Z" fill="#F9D96F"/>
<path d="M79.8555 76.0838L80.5701 75.5957L79.8555 76.0838Z" fill="#F9D96F"/>
</svg>
