<svg width="146" height="102" viewBox="0 0 146 102" fill="none" xmlns="http://www.w3.org/2000/svg">
<path d="M50.3098 101.645C38.5514 100.605 25.6955 97.977 14.432 90.0328C9.61897 86.6844 5.21537 82.7821 1.31158 78.4058C-0.648148 76.1893 0.106349 73.9188 0.331718 71.7219C1.98279 55.8285 6.52938 40.8718 15.1914 27.3126C18.8218 21.6242 23.2655 16.7595 29.1153 13.2827C33.5639 10.6395 38.3015 9.67839 43.2792 11.3212C45.2781 11.9881 46.3658 11.3212 47.5416 9.87454C51.7894 4.61271 57.2668 1.25358 63.9642 0.336562C71.7296 -0.722669 79.1521 0.758295 86.1974 4.21551C94.5751 8.32215 101.895 14.306 107.588 21.7026C108.969 23.4778 111.017 23.9535 112.855 24.7969C119.714 27.9354 126.97 30.3285 133.348 34.4722C140.84 39.3369 144.916 46.3984 145.597 55.2793C145.91 59.2416 144.127 62.635 141.677 65.646C136.92 71.5306 130.727 75.6449 124.304 79.4307C116.465 84.0648 108.137 87.5024 99.0189 88.7137C97.1146 89.0064 95.1882 89.1295 93.2622 89.0815C92.5491 89.0312 91.8333 89.128 91.1591 89.3659C90.4849 89.6038 89.8667 89.9776 89.3427 90.4644C83.4635 95.7948 76.2321 98.1242 68.6969 99.6542C62.6473 100.915 56.489 101.582 50.3098 101.645ZM94.2421 12.0519L93.708 11.7282H93.7521C93.1477 10.9991 92.3415 10.4651 91.4347 10.1933C91.3374 10.1404 91.2264 10.1181 91.1163 10.1295C87.4692 7.17266 83.2018 5.07889 78.6328 4.00464V4.03897C76.4232 2.97974 74.0127 2.78358 71.6414 2.56781C66.4971 2.07743 61.4851 2.56781 56.9435 5.29925C56.4535 5.53954 55.8999 5.7406 55.4149 6.02993C51.9168 8.11897 49.2907 11.0711 47.1154 14.4744C46.6843 15.1511 46.2286 16.2839 45.2341 15.2786C42.9853 13.0032 40.1143 12.8267 37.3266 13.1062C29.86 13.8418 24.9998 18.7554 20.5365 24.1693C20.4239 24.3066 20.4875 24.5861 20.4729 24.7969L20.027 25.2187C19.1843 25.4492 18.8071 26.1994 18.3857 26.8222C12.6433 35.4454 8.38257 44.9694 5.77977 54.9997C4.22668 60.7961 3.66815 66.769 2.43842 72.5947C2.11017 73.2028 3.06065 73.3892 2.88428 73.9482L2.39435 75.6351C1.79173 76.5472 1.79661 77.5967 3.08514 77.1602C4.72641 76.6159 6.55388 75.8901 7.04871 73.806C7.66602 73.8943 7.93548 73.5951 7.95507 73.0067L8.84185 73.4725C8.93004 73.6295 9.02311 73.9237 9.1015 73.9188C9.33177 73.9188 9.38567 73.703 9.29748 73.4872C10.052 73.9041 10.635 73.4284 11.2572 73.1047C16.093 70.605 20.6855 67.6598 24.9753 64.3072C35.6755 55.6863 44.8029 45.7805 50.2608 32.9226C51.0741 31.0052 52.2548 29.9803 54.7241 30.25C62.563 31.167 70.4362 30.7796 78.2751 29.7596C86.7559 28.6367 95.0505 26.6016 103.394 24.7969C104.692 24.9244 105.383 24.4243 105.221 23.0365C104.732 21.9821 103.443 22.0165 102.703 21.2956C102.786 20.3394 104.08 18.9761 101.851 18.8143L98.529 15.6905L98.4456 15.7641C98.4897 15.4012 98.186 15.2982 97.9557 15.1364C97.064 14.2831 96.2998 13.2729 95.119 12.7629L94.3008 12.096L94.2421 12.0519ZM139.262 43.7111C138.414 42.3821 137.552 41.0679 136.249 40.1264C135.137 38.8171 133.99 37.542 132.378 36.8163C130.909 35.7423 129.542 34.4968 127.631 34.2467C127.097 33.8691 126.293 34.0407 125.892 33.3983C125.642 32.6627 124.912 32.6333 124.358 32.393C120.062 30.4903 115.471 29.2889 111.404 26.8566C110.557 26.3662 109.905 26.783 109.205 27.0821C105.612 28.6285 102.019 30.1797 98.4261 31.7359C97.2992 31.78 96.0744 31.3338 95.07 32.0448C92.0177 34.2074 88.3041 35.1244 85.2714 37.3557C84.4924 37.9245 82.7678 37.4979 82.2926 38.1403C80.1614 40.9796 76.0509 40.6511 74.047 43.5591C73.9245 43.7405 73.4689 43.6571 73.2484 43.8092C71.2446 45.1626 68.4912 45.4961 67.4035 48.1C67.4035 48.3697 67.4035 48.6395 67.4035 48.9043C66.3208 49.6447 64.8363 49.5614 63.8956 50.5961C63.7789 50.6596 63.6454 50.6853 63.5135 50.6696C62.7832 50.5883 62.044 50.6572 61.3413 50.8722C60.6387 51.0873 59.9874 51.4439 59.4274 51.9201C58.036 52.9843 56.6103 54.7594 54.3468 53.9699C56.1792 52.7391 57.9723 51.4395 59.8684 50.3117C60.9413 49.6742 61.2745 49.2328 60.4122 48.0951C59.3441 46.6828 58.5161 45.0842 57.5755 43.5689C55.8068 40.7148 54.0284 37.8657 52.1421 34.84C48.7812 42.2841 44.1366 48.409 39.0511 54.2396C38.5612 54.7938 37.3657 55.3528 38.4779 56.2944C40.1878 57.7361 41.0892 60.1635 43.5879 60.6146C43.9602 60.6833 44.4502 60.1831 44.8764 59.9232L51.7845 55.7353C52.4018 57.4468 50.4323 57.9371 50.1481 59.2219C48.257 58.2657 47.6984 58.6237 47.5808 60.8942C43.1372 63.8365 38.2721 66.102 33.6373 68.6815L15.8381 76.0029L15.99 76.3903L18.3417 76.5178C18.0134 77.3368 17.1217 78.3862 19.0961 78.2096C19.4402 78.2521 19.7728 78.3603 20.076 78.5284C20.0466 79.2836 20.0466 79.2836 21.7565 80.0437L21.3106 80.9215C18.518 79.8132 15.7891 78.3469 12.3841 79.2885C14.0703 81.342 16.2669 82.9149 18.7532 83.8491C24.0494 85.8106 29.3308 87.8016 34.6858 89.5816C45.2352 93.1266 56.3604 94.6375 67.4721 94.0344C73.1669 93.7698 78.6927 92.0146 83.4978 88.9442C80.2741 87.6692 77.2659 88.0468 74.2528 88.5519L73.8315 87.7574C74.3214 87.6495 74.8603 87.5515 74.1891 86.9336C73.2092 85.178 71.6904 85.6831 70.2206 86.0264L69.1036 85.8547C69.1036 84.9181 67.8739 85.3349 67.5505 84.1825H71.7541L72.5282 84.2855C73.1504 85.7027 74.3753 84.8494 75.3208 85.026L75.9627 85.1339C76.5555 87.9634 78.3192 85.4918 79.4461 85.9038L79.4804 85.8743C79.5196 86.3647 79.7107 86.7472 80.23 86.7423C82.1505 86.7423 84.0123 87.3945 85.8348 87.5319C91.4151 87.9438 97.0641 87.8996 102.566 86.6639C103.335 86.4922 104.81 86.3991 105.256 85.1339L105.961 85.0015C107.024 85.075 108.122 85.2908 109.141 84.8985C112.458 83.6186 115.926 82.6133 118.812 80.4458C119.792 79.7249 121.036 80.2104 121.904 79.2051C122.415 78.6137 123.042 78.1343 123.747 77.7968C124.452 77.4592 125.219 77.2709 125.999 77.2436C127.9 77.1308 128.15 74.9388 129.635 74.2768L129.37 73.9384C131.021 73.7128 132.457 73.2126 132.751 71.2658C133.373 70.692 134.005 70.1281 134.622 69.5495C136.729 67.5879 138.988 65.7539 140.462 63.2039C138.503 62.1545 136.44 62.9685 134.436 62.7135C133.696 62.6154 132.834 63.0077 131.663 61.8602C134.078 61.8602 135.901 61.7768 137.714 61.8896C139.138 61.9715 140.554 61.6303 141.785 60.9089C144.264 59.5652 144.764 55.549 143.103 53.2196C142.535 50.1106 141.692 47.1094 139.723 44.5447C139.683 44.3976 139.639 44.2505 139.6 44.1034L139.262 43.7111ZM68.2413 97.2022C69.3627 97.1414 70.4584 96.8422 71.4553 96.3244L71.5728 96.3735L71.6659 96.2803C77.3214 95.0095 82.6464 92.5618 87.2948 89.0962C85.825 88.7823 84.948 89.5473 84.0515 90.0426C81.6864 91.3337 79.2302 92.4498 76.7025 93.3821C73.17 94.6866 69.4613 94.7895 65.8308 95.427C61.6174 95.2064 57.3893 95.1328 53.1955 94.7356C43.4605 93.8137 34.2792 90.6703 25.1125 87.4632C19.6253 85.5409 14.1576 83.6676 10.3606 78.8717C10.2139 78.6685 9.99963 78.5244 9.75632 78.4651C9.513 78.4058 9.25655 78.4352 9.03293 78.548C7.92568 78.9403 6.78413 79.2493 5.40742 79.6661C10.8947 84.4375 16.1859 88.9834 22.6188 91.9993C22.8382 92.1724 23.0708 92.3281 23.3145 92.4651C32.7657 96.8514 43.0619 99.1127 53.4796 99.0902C58.4475 99.0951 63.44 98.8254 68.2413 97.2022ZM53.4845 32.6333C56.6152 37.6548 59.6479 42.4704 62.6267 47.3203C63.1166 48.154 63.6556 47.8352 64.1847 47.5312C70.1194 44.1246 76.0476 40.7034 81.9692 37.2674C82.3367 37.0517 82.9834 37.0271 82.7923 36.2867C82.3024 34.3006 79.3138 31.9958 77.3051 32.1919C69.4661 32.9422 61.6223 33.3885 53.4845 32.6333ZM17.6411 72.4329C25.48 69.368 33.3189 66.4159 40.6973 62.2133C39.4921 60.8255 38.3309 59.5848 37.2678 58.2461C36.5378 57.3094 36.1017 57.4811 35.308 58.2461C33.1082 60.3793 30.83 62.4438 28.5029 64.4445C25.0707 67.3549 21.4414 70.0241 17.6411 72.4329ZM82.2632 31.834C82.9932 32.7216 83.6742 33.3051 84.0367 34.0505C84.7324 35.4677 85.5065 35.4677 86.8 34.7567C90.3578 32.8331 94.0181 31.106 97.7646 29.5831C98.9111 29.0927 100.043 28.6023 101.194 28.112L101.062 27.7736L82.2632 31.834Z" fill="#15110E"/>
<path d="M18.3024 76.5368L15.9507 76.4093L15.7988 76.0218L33.5981 68.7004C38.0075 68.4062 41.4713 65.7581 45.0233 63.6838C47.473 62.2126 49.9912 60.7415 52.5242 59.3684C52.8707 59.2198 53.162 58.9664 53.3571 58.6435C53.5522 58.3207 53.6413 57.9448 53.6118 57.5687C54.177 57.557 54.7332 57.425 55.2433 57.1813C58.1535 55.666 60.6326 53.4641 63.6506 52.096C63.9647 51.9094 64.3185 51.8001 64.6831 51.777C65.0476 51.754 65.4124 51.818 65.7475 51.9636C69.2799 53.268 72.7584 54.8029 76.5946 55.1266C77.6332 55.2099 78.6768 54.8666 79.7351 55.3766C80.9109 55.9455 81.6164 56.4261 80.5386 57.7207C79.4607 59.0153 78.4906 60.5012 77.3148 61.7516C74.5516 64.694 74.5467 65.1843 78.0252 66.8222C80.6855 68.0923 83.3214 69.5291 86.3981 69.5684L94.0607 72.854C94.5506 75.247 96.4124 74.7468 98.0537 74.6733C98.1061 74.6629 98.1603 74.6655 98.2116 74.6809C98.2628 74.6963 98.3095 74.724 98.3476 74.7615C99.9938 77.1546 101.336 77.1056 102.659 74.6292C102.889 74.1976 103.316 73.8592 103.497 73.413C104.212 71.6917 106.368 70.9611 106.828 69.4115C107.348 67.6902 108.416 66.3956 109.371 65.1892C110.758 63.4435 112.404 62.6147 115.378 63.2277C118.758 63.9388 122.423 64.5812 126.053 64.4292C129.409 64.2918 132.775 64.3948 136.131 64.4292C136.655 64.4292 137.302 64.184 137.978 65.2236C137.028 66.1798 135.867 66.9301 134.941 67.9011C133.887 69.0044 132.378 69.7498 132.001 71.422L131.962 71.3877C130.884 71.2847 130.036 71.2749 129.194 72.393C128.312 73.4837 127.127 74.289 125.789 74.7076C121.022 76.2131 117.029 79.1554 112.693 81.4602C112.203 81.725 111.576 81.9114 111.889 82.7009L111.762 82.6666C110.052 81.9702 108.636 83.3825 107.064 83.3335C105.687 83.2893 105.153 83.9465 104.825 85.0645L104.379 85.1136C100.832 84.888 97.3677 85.7315 93.8598 86.0257C89.617 86.3788 85.5603 84.9665 81.3665 85.094C79.8851 85.1752 78.4025 84.9585 77.0061 84.4565C75.698 83.9661 74.3654 83.206 72.7486 83.3335C69.3926 83.6032 66.5706 81.2542 63.1704 81.1758C61.9876 81.1136 60.8123 80.9495 59.6576 80.6854C56.3408 79.9989 53.1366 78.5816 49.6287 79.0867C47.9629 79.1848 46.3853 78.6552 44.7686 78.3904C36.0184 76.9585 27.2241 75.9777 18.3024 76.5368Z" fill="#EA604D"/>
<path d="M132.379 36.8167C133.991 37.5424 135.137 38.8174 136.249 40.1268C136.195 42.2109 137.361 43.2701 139.262 43.7115L139.6 44.1038C139.639 44.2509 139.684 44.398 139.723 44.5451C139.551 46.134 140.384 47.5757 140.565 48.9586C140.91 51.2977 141.442 53.6051 142.158 55.8583C142.956 58.5456 139.801 58.7319 138.596 59.0703C136.234 59.7274 133.746 60.4924 131.095 60.1933C128.116 59.8598 125.108 60.1933 122.11 59.3793C120.321 58.8889 118.303 59.2763 116.387 59.2616C115.721 59.2616 115.05 59.1831 114.815 58.4279C114.688 58.1292 114.652 57.7994 114.713 57.4806C114.774 57.1618 114.929 56.8684 115.158 56.638C117.23 54.598 118.131 51.6704 120.395 49.7481C120.932 49.1655 121.298 48.4461 121.453 47.6689C121.537 47.4469 121.569 47.2085 121.546 46.9722C121.522 46.7359 121.445 46.5083 121.319 46.3069C121.194 46.1056 121.023 45.9361 120.821 45.8117C120.619 45.6873 120.391 45.6113 120.155 45.5896C119.101 45.4033 117.862 46.3301 117.313 44.3784C116.882 42.8337 115.285 45.4621 114.32 44.0106C114.07 43.633 112.791 43.9223 112.561 43.5496C111.189 41.3674 108.813 41.8431 106.897 41.0977C104.448 40.1169 101.508 39.9551 99.9549 37.3021C99.8738 37.1797 99.7684 37.0753 99.6451 36.9955C99.5219 36.9157 99.3836 36.8621 99.2388 36.8382C99.0939 36.8143 98.9457 36.8205 98.8034 36.8564C98.6611 36.8924 98.5278 36.9573 98.4116 37.0472C95.8101 38.8076 92.9881 40.3572 91.9249 43.6673C91.8232 43.9425 91.6433 44.182 91.4074 44.3562C91.1715 44.5305 90.8899 44.6319 90.5972 44.6481C90.2053 44.6481 89.6614 44.5795 89.681 45.2415C89.7643 47.7621 87.6086 48.9782 86.2515 50.4837C84.8944 51.9892 82.479 52.0186 80.6956 51.2781C79.8882 50.9038 79.0121 50.701 78.1225 50.6825C77.2329 50.6639 76.3491 50.83 75.5269 51.1702L75.0369 51.0721C75.228 50.0423 76.1981 50.1355 76.8693 49.8266C77.4033 49.5814 77.7218 49.2773 77.5307 48.6889C77.5035 48.5623 77.4433 48.4451 77.3563 48.3492C77.2693 48.2533 77.1586 48.1821 77.0353 48.1428C76.912 48.1035 76.7805 48.0975 76.6542 48.1253C76.5278 48.1532 76.411 48.214 76.3156 48.3015C74.4882 49.8413 73.3173 48.174 71.3281 47.5561C73.7239 46.9725 75.13 45.9035 76.5655 44.7217C78.246 43.3388 80.1273 41.7794 82.1409 41.3576C84.1546 40.9359 85.2863 38.6654 87.5302 39.2441C87.6086 39.2441 87.8144 38.8027 87.9565 38.5624C88.8874 37.0079 90.0142 35.9487 92.018 36.7774C92.4442 36.9491 92.8705 36.7382 93.3555 36.4979C95.2172 35.5956 96.2167 33.2319 98.3283 33.0652C100.44 32.8985 101.978 31.0497 104.178 31.6333C104.506 31.7216 104.996 31.545 105.021 31.1429C105.109 29.863 106.309 29.7698 107.03 29.5246C108.225 29.1225 109.396 27.9407 110.949 29.4462C111.86 30.3436 113.364 28.6174 114.986 29.559C116.275 30.3044 117.152 32.1874 119.15 31.6823C119.711 31.5553 120.294 31.5671 120.849 31.7166C121.404 31.8661 121.914 32.149 122.335 32.5405C123.413 33.4722 124.613 33.4379 125.872 33.3889C126.274 34.0313 127.078 33.8793 127.612 34.2372C129.052 35.3995 130.159 37.1354 132.379 36.8167Z" fill="#EA604D"/>
<path d="M103.35 24.7724C95.0215 26.577 86.6927 28.6121 78.2315 29.7351C70.3926 30.7649 62.5537 31.1523 54.6805 30.2254C52.2308 29.9361 51.0305 30.9806 50.2172 32.898C44.7593 45.7657 35.6319 55.6715 24.9318 64.2826C20.6419 67.6352 16.0494 70.5804 11.2136 73.0802C10.6061 73.4038 10.0231 73.8795 9.25391 73.4627C10.4199 71.7904 12.1935 70.7655 13.6633 69.4072C24.6721 59.1679 34.9607 48.3795 40.5998 33.9916C42.1529 30.0048 45.215 27.1262 49.3157 25.557C53.9309 23.7671 58.7861 23.3306 63.6511 23.1296C68.2859 22.9334 72.9305 23.2767 77.5652 23.3993C83.513 23.5513 89.451 23.8897 95.389 24.1104C98.0297 24.2133 100.764 23.8161 103.35 24.7724Z" fill="#63799B"/>
<path d="M91.1074 10.1288C91.2191 10.1179 91.3315 10.1401 91.4307 10.1926C91.9207 11.1439 92.4106 12.0462 93.7432 11.7275H93.704C93.7726 12.0119 93.9343 12.1394 94.2331 12.0511H94.2675C94.2185 12.6739 94.6496 12.6935 95.0856 12.7181C96.2664 13.2084 97.0454 14.2382 97.9223 15.0915L98.4123 15.7192L98.4956 15.6456C98.2751 16.494 98.1134 17.514 96.8984 16.6264C96.0557 16.0134 95.1591 16.1655 94.2478 16.19L90.6615 14.4393C90.1128 12.9142 89.0056 12.4778 87.5015 12.8161L87.5455 12.8505C87.4427 12.5955 87.2859 12.4778 87.0164 12.6298C86.9991 12.6379 86.9803 12.6424 86.9612 12.6431C86.9421 12.6437 86.9231 12.6406 86.9053 12.6337C86.8874 12.6268 86.8712 12.6164 86.8574 12.6031C86.8437 12.5898 86.8328 12.5739 86.8254 12.5562C87.0213 11.7226 86.3354 11.394 85.8455 11.1341C83.8858 10.1092 81.779 9.3442 80.0202 7.84363C79.0991 7.06392 77.7469 7.19632 76.8552 8.37324L76.3653 8.30459C76.0664 7.36305 75.4932 6.97075 74.4496 7.07373C72.9548 7.15905 71.4552 7.05525 69.9864 6.76478C67.3848 6.38228 64.5285 6.4019 62.3679 7.74555C59.0315 9.81498 55.063 10.6486 52.0793 13.3016C51.5894 13.7282 50.0069 14.0127 51.756 15.0131C52.094 15.2043 51.4522 15.8516 51.217 16.2782C49.8011 18.8037 46.9252 18.5242 44.745 19.4706C43.6966 19.9267 42.5109 20.7849 41.046 20.5201C39.9878 20.3288 38.7727 20.1915 37.8027 21.1232C37.7214 21.1978 37.6232 21.2514 37.5167 21.2796C37.4101 21.3078 37.2983 21.3097 37.1909 21.2851C37.0834 21.2605 36.9835 21.2102 36.8998 21.1384C36.816 21.0667 36.751 20.9756 36.7101 20.8731C36.2202 19.8335 35.8479 19.7502 34.8827 20.5691C33.5452 21.7117 32.5947 23.4182 30.3606 23.1534C29.3366 23.0308 29.5865 24.1342 29.4934 24.7815C26.7645 27.1991 23.9523 29.4107 22.36 32.9807C21.63 34.6137 20.4002 35.9231 20.8314 37.8846C20.8388 37.9554 20.8294 38.027 20.8038 38.0935C20.7783 38.16 20.7373 38.2195 20.6844 38.2671C18.2348 39.6255 19.3518 41.8763 19.2734 43.8231L19.3028 43.8624C17.0981 44.4165 16.765 46.481 16.1231 48.1238C14.7758 51.5565 12.8259 54.7685 12.2037 58.4856C12.1302 58.9368 11.7138 59.3242 11.4884 59.7656C11.0279 60.7463 9.94509 61.5407 10.5526 62.8501C10.4534 63.3135 10.1774 63.72 9.78341 63.9829C8.65166 64.7233 7.27494 65.1402 6.8977 66.7584C6.79462 67.1498 6.55781 67.4926 6.22843 67.7273C5.89905 67.962 5.49792 68.0738 5.09475 68.0433C4.07569 67.9059 4.60484 66.8908 4.53625 66.2582C4.30108 63.4483 5.4426 60.864 5.95703 58.2061C6.47146 55.5482 8.4753 53.1748 8.05396 50.1344C7.89228 48.9771 8.80356 47.7609 9.65115 46.7753C9.9696 46.4026 10.5036 45.9171 10.4448 45.5738C9.84712 42.1706 12.8406 40.0619 13.4383 37.0853C13.6784 35.8838 14.2418 34.3244 15.1629 33.7703C18.4797 31.7744 18.3915 28.0475 19.9838 25.2032L20.4297 24.7815C22.0562 24.5461 22.8499 22.4669 24.8391 22.82C25.1771 22.8837 25.329 22.0108 25.329 21.5254C25.3224 21.2808 25.3669 21.0376 25.4597 20.8112C25.5525 20.5849 25.6916 20.3805 25.8679 20.2111C27.1515 18.7007 30.0225 19.0146 30.2773 16.3469C33.3982 15.4887 36.3035 13.0417 39.7967 15.0915C40.0319 15.2288 40.1054 15.1896 40.2866 15.0425C41.7025 13.8214 42.8735 14.4785 43.9611 15.5329C44.3625 15.9549 44.897 16.2255 45.4746 16.2987C46.0521 16.372 46.6372 16.2435 47.131 15.935C49.3112 14.5129 49.6836 11.3057 52.3929 10.2906C52.3929 7.9368 54.5878 7.72103 55.9645 6.80401C56.6406 6.35776 57.1746 6.1469 56.9444 5.25931C58.5366 5.14161 60.075 5.12199 61.6379 4.38641C64.215 3.17516 67.2084 2.53276 69.8639 3.37132C72.8476 4.31776 75.7431 3.91074 78.6582 3.99901V3.96468C78.5945 4.58747 79.0501 4.70027 79.4813 4.98959C82.318 6.89719 85.9484 7.162 88.5793 9.43248C89.3436 10.1779 90.1765 10.222 91.1074 10.1288Z" fill="#F9D96F"/>
<path d="M75.0601 51.0522L75.5501 51.1502C78.7836 52.8421 82.4091 52.131 85.7995 52.7293C86.0298 52.7685 86.4168 52.4007 86.603 52.1359C89.4544 48.0167 92.8839 44.3584 95.8382 40.3324C96.8181 38.9691 97.7979 38.7827 99.2971 39.3516C105.426 41.7103 111.604 43.9563 117.748 46.2709C119.781 47.0359 119.913 47.5263 118.728 49.429C118.429 49.9194 118.081 50.3705 117.748 50.8462L112.026 59.4721C114.735 59.8055 117.14 60.036 119.526 60.4087C125.562 61.3404 131.638 61.7131 137.683 60.8991C143.274 60.1488 143.127 59.6045 143.073 54.9213C143.073 54.3475 143.073 53.7738 143.073 53.205C144.734 55.5343 144.234 59.5505 141.755 60.8942C140.524 61.6156 139.107 61.9568 137.683 61.875C135.871 61.7622 134.048 61.8455 131.633 61.8455C132.804 62.993 133.666 62.6007 134.406 62.6988C136.41 62.9685 138.497 62.1545 140.432 63.1892C139.722 63.145 139.01 63.145 138.301 63.1892C133.258 63.8366 128.153 63.8251 123.113 63.1549C119.718 62.7184 116.312 62.3163 112.922 61.8308C111.212 61.5905 110.041 61.9387 109.047 63.5962C107.058 66.8965 104.637 69.9712 102.648 73.2421C101.512 75.1203 100.282 75.7185 98.327 74.7132C98.2889 74.6757 98.2423 74.648 98.191 74.6326C98.1398 74.6172 98.0856 74.6146 98.0331 74.625C96.8573 73.6834 95.3482 73.4627 94.0401 72.8056L86.3776 69.52C83.9279 68.3824 81.4783 67.2103 79.0286 66.1168C76.089 64.8075 76.089 64.8565 78.1712 62.3212C80.0771 59.9919 81.9192 57.6037 83.9475 55.0439C77.9262 54.4064 72.3459 53.715 67.2457 51.0424C66.1875 50.4882 65.0214 50.6157 63.8848 50.552C64.8254 49.5173 66.31 49.6006 67.3927 48.8602C70.0089 49.4927 72.292 51.1453 75.0601 51.0522ZM101.1 42.6568C97.9939 41.4406 97.9939 41.4406 95.9999 44.0446C95.7402 44.3829 95.4365 44.6919 95.167 45.0253C90.3722 50.9917 85.5757 56.9564 80.7777 62.9195C80.1653 63.6747 79.9252 64.0915 81.1206 64.577C85.1381 66.21 89.1016 67.9704 93.0897 69.6819C94.9612 70.5253 96.8573 71.3247 98.7043 72.2319C99.6842 72.7223 100.243 72.6536 100.924 71.6189C105.823 64.2631 110.796 56.9319 115.764 49.6104C116.332 48.7768 116.631 48.3796 115.274 47.9088C110.526 46.266 105.833 44.4222 101.1 42.6568Z" fill="#2B120D"/>
<path d="M74.2418 88.5911C77.2548 88.1007 80.263 87.7084 83.4868 88.9834C78.6816 92.0539 73.1558 93.809 67.4611 94.0736C56.3494 94.6768 45.2242 93.1659 34.6748 89.6209C29.3198 87.8408 24.0383 85.84 18.7422 83.8883C16.2559 82.9542 14.0592 81.3812 12.373 79.3277C15.8026 78.3862 18.507 79.8524 21.2996 80.9607C25.1595 82.817 29.1743 84.3316 33.2981 85.487C42.1357 88.0643 51.2719 89.4755 60.4747 89.6847C65.08 89.7975 69.7442 90.1162 74.2418 88.5911Z" fill="#63799B"/>
<path d="M51.7844 55.7352L44.9008 59.9132C44.4746 60.1732 43.9847 60.6733 43.6123 60.6047C41.1137 60.1535 40.2122 57.7261 38.5023 56.2844C37.3902 55.3429 38.5954 54.7838 39.0756 54.2297C44.1611 48.399 48.8056 42.2741 52.1666 34.8301C54.0528 37.8558 55.8313 40.7147 57.5999 43.5589C58.5406 45.0742 59.3686 46.6729 60.4366 48.0852C61.2989 49.2229 60.9658 49.6642 59.8928 50.3017C57.9968 51.4296 56.2036 52.7291 54.3712 53.96C53.4845 54.519 52.4115 54.8182 51.7844 55.7352Z" fill="#F7F7F7"/>
<path d="M53.4844 32.6328C61.6222 33.388 69.466 32.9418 77.3049 32.1768C79.3136 31.9806 82.2826 34.2854 82.7922 36.2715C82.9832 37.0267 82.3365 37.0512 81.9691 37.2522C76.0507 40.6849 70.1225 44.1062 64.1845 47.516C63.6554 47.82 63.1409 48.1388 62.6265 47.3051C59.6477 42.4944 56.615 37.6544 53.4844 32.6328Z" fill="#F7F7F7"/>
<path d="M90.651 14.4644L94.2373 16.2199C96.502 17.5443 98.8852 18.6541 101.356 19.5349C102.561 20.0008 102.047 19.2799 101.807 18.7895C104.036 18.9514 102.743 20.3146 102.659 21.2709C101.121 20.653 99.656 19.8439 98 19.5594H97.9706C96.4897 18.6361 94.8978 17.9045 93.2329 17.3821C90.8551 16.0744 88.479 14.7668 86.1045 13.4591C80.382 10.3059 74.4244 8.06484 67.7222 8.81513C63.6606 9.25647 59.8833 10.2863 56.9877 13.4444C54.494 15.5677 52.3383 18.0245 50.0846 20.3882C47.3067 21.521 44.4798 22.3497 41.4275 22.2909C40.4968 22.2223 39.5706 22.4731 38.8014 23.002C38.2455 23.098 37.6957 23.2274 37.1552 23.3894C30.8596 25.6844 26.6756 30.3136 23.8634 36.1394C19.6793 44.8192 17.1366 54.2296 12.2961 62.6201C11.0663 64.2727 9.76799 65.8714 8.82732 67.7152V67.7495C6.66672 69.6277 5.25573 72.2219 2.90405 73.9137C3.08042 73.3547 2.12994 73.1683 2.45819 72.5602C2.72276 72.5112 3.06572 72.5602 3.2372 72.4033C5.91228 69.9948 8.14864 67.1391 9.84639 63.9638C10.2404 63.7009 10.5164 63.2945 10.6156 62.831C14.3587 56.8826 17.1121 50.4831 19.3413 43.8433L19.3119 43.8041C19.5765 43.245 19.8851 42.7007 20.1056 42.122C22.4573 35.953 25.4067 30.1665 30.4579 25.704C34.1716 22.9971 38.2968 21.1777 42.8875 21.0404C47.2087 20.908 50.3443 19.0495 52.9409 15.8178C59.0994 8.15311 67.1489 6.31906 76.3989 8.29531L76.8888 8.36397C80.3722 9.38887 83.5764 11.0709 86.8687 12.5469C86.8767 12.5647 86.8881 12.5808 86.9022 12.5941C86.9164 12.6075 86.9331 12.6179 86.9514 12.6248C86.9696 12.6316 86.989 12.6347 87.0085 12.634C87.0279 12.6333 87.047 12.6287 87.0647 12.6205L87.589 12.8412L87.5448 12.8069C88.4942 13.5075 89.5407 14.0659 90.651 14.4644Z" fill="#2B120D"/>
<path d="M22.6137 92.0241C16.1907 89.018 10.8896 84.4623 5.40234 79.6909C6.77906 79.2741 7.92061 78.9651 9.02786 78.5728C9.25148 78.46 9.50796 78.4306 9.75128 78.4899C9.99459 78.5492 10.2088 78.6934 10.3556 78.8965C14.1526 83.6924 19.6202 85.5657 25.1075 87.488C34.2741 90.6951 43.4554 93.8385 53.1904 94.7604C57.3842 95.1576 61.6124 95.2508 65.8258 95.4519C67.2956 95.4519 68.7654 95.4519 70.2352 95.4519C70.8868 95.4519 71.5286 95.4519 71.6658 96.3002L71.5727 96.3934L71.4551 96.3444C70.3038 96.3444 69.0789 96.0796 68.2411 97.2222C63.4398 98.8453 58.4425 99.115 53.4648 99.1003C43.0471 99.1228 32.7508 96.8615 23.2996 92.4752C23.056 92.3382 22.8234 92.1825 22.6039 92.0094C24.0443 91.9701 25.372 91.9554 26.7389 92.8528C28.488 94.0052 30.5702 94.476 32.6769 94.8781C35.4695 95.4175 38.1397 96.668 40.9421 97.0848C45.527 97.758 50.1433 98.1966 54.7729 98.3991C58.6336 98.5756 62.2542 96.5601 66.2128 96.8053C63.4006 96.4081 60.5982 96.4081 57.8546 95.8834C54.9542 95.3342 51.9754 95.8491 49.1142 95.2949C45.7728 94.6476 42.4658 93.6178 39.144 92.9705C34.7689 92.1172 30.7515 90.2832 26.5087 89.1161C24.0247 88.4345 21.5555 87.2085 19.0519 86.2915C18.0083 85.909 17.8369 86.0708 17.8173 87.233C17.7879 89.3122 19.5614 89.1945 20.7569 89.5378C22.1238 89.9252 22.9419 90.4548 22.6137 92.0241Z" fill="#E8D896"/>
<path d="M143.093 53.2194C143.093 53.7882 143.093 54.362 143.093 54.9357C143.132 59.6189 143.279 60.1632 137.704 60.9135C131.658 61.7275 125.583 61.3548 119.547 60.4231C117.161 60.0504 114.755 59.8199 112.046 59.4865L117.758 50.8606C118.072 50.3702 118.42 49.9289 118.738 49.4434C119.919 47.5407 119.787 47.0503 117.758 46.2853C111.615 43.9707 105.437 41.7247 99.3076 39.366C97.7937 38.7824 96.8579 38.9688 95.8487 40.3468C92.9091 44.3728 89.4795 48.0311 86.6134 52.1503C86.4273 52.4151 86.0402 52.7829 85.8099 52.7437C82.3804 52.1356 78.7941 52.8565 75.5605 51.1647C76.3828 50.8244 77.2666 50.6583 78.1562 50.6769C79.0458 50.6955 79.9219 50.8983 80.7293 51.2725C82.5127 52.013 84.9575 51.9689 86.2852 50.4781C87.6129 48.9873 89.7833 47.7565 89.7147 45.2359C89.7147 44.5739 90.2389 44.6671 90.6309 44.6425C90.9236 44.6264 91.2053 44.5249 91.4411 44.3507C91.677 44.1764 91.8569 43.937 91.9586 43.6618C93.0217 40.3517 95.8437 38.8021 98.4453 37.0416C98.5614 36.9517 98.6948 36.8868 98.8371 36.8509C98.9795 36.8149 99.1277 36.8087 99.2725 36.8326C99.4173 36.8566 99.5556 36.9101 99.6788 36.9899C99.802 37.0698 99.9075 37.1741 99.9886 37.2966C101.551 39.9496 104.491 40.131 106.931 41.0922C108.847 41.8474 111.223 41.3717 112.595 43.5441C112.825 43.9168 114.104 43.6274 114.353 44.005C115.333 45.4762 116.916 42.8281 117.347 44.3728C117.896 46.3344 119.135 45.3977 120.189 45.5841C120.425 45.6057 120.653 45.6817 120.855 45.8061C121.057 45.9306 121.227 46.1001 121.353 46.3014C121.479 46.5027 121.556 46.7304 121.579 46.9666C121.603 47.2029 121.571 47.4413 121.487 47.6633C121.332 48.4405 120.965 49.1599 120.429 49.7425C118.165 51.6648 117.264 54.5924 115.191 56.6324C114.963 56.8629 114.808 57.1562 114.747 57.475C114.686 57.7939 114.721 58.1237 114.848 58.4223C115.083 59.1775 115.755 59.256 116.421 59.256C118.337 59.256 120.34 58.8931 122.143 59.3737C125.142 60.173 128.15 59.8641 131.129 60.1877C133.779 60.4869 136.268 59.6973 138.63 59.0648C139.835 58.7264 142.99 58.54 142.191 55.8527C141.476 53.5995 140.943 51.2921 140.599 48.953C140.418 47.5652 139.585 46.1235 139.756 44.5396C141.682 47.1092 142.525 50.1103 143.093 53.2194Z" fill="#CC8153"/>
<path d="M103.349 24.7723C100.762 23.8161 98.0284 24.2133 95.3876 24.1103C89.4496 23.8896 83.5117 23.5513 77.5639 23.3992C72.9291 23.2767 68.2845 22.9334 63.6498 23.1295C58.7848 23.3306 53.9295 23.767 49.3143 25.5569C45.2136 27.1507 42.1515 30.0047 40.5984 33.9916C34.9593 48.3794 24.6707 59.1679 13.6717 69.4268C12.2019 70.7851 10.4431 71.81 9.26233 73.4822H8.8067L7.91992 73.0164C9.47791 71.6678 11.0751 70.3634 12.5792 68.956C16.9886 64.8122 21.5058 60.7519 25.2537 55.9559V55.9068C27.0714 54.4798 28.3844 52.636 29.5945 50.7039C33.4353 46.1762 36.5117 41.0513 38.7024 35.5314C40.5446 30.9757 43.2343 27.3272 47.5506 24.9342C56.4821 21.6486 65.7516 21.6535 75.0799 21.9918C85.104 22.3694 95.1035 23.4189 105.147 23.0168C105.338 24.3996 104.647 24.8998 103.349 24.7723Z" fill="#2B120D"/>
<path d="M18.3024 76.5374C27.2044 75.9783 35.9987 76.9591 44.7587 78.3959C46.3755 78.6607 47.9531 79.1903 49.6189 79.0923C50.0016 79.2601 50.3963 79.3994 50.7996 79.5091C57.8106 80.9116 64.8362 82.2405 71.7198 84.202H67.5406C67.864 85.3545 69.0839 84.9376 69.0937 85.8743C52.9504 82.0395 36.7581 78.7196 20.0514 78.5479C19.7482 78.3798 19.4156 78.2716 19.0716 78.2292C17.102 78.4057 17.9937 77.3563 18.3024 76.5374Z" fill="#2B120D"/>
<path d="M75.0609 51.0521C72.2927 51.1453 70.0097 49.4927 67.4277 48.9042C67.4277 48.6394 67.4277 48.3697 67.4277 48.1C77.7751 42.6567 87.7158 36.4386 98.4503 31.7358C102.043 30.1797 105.636 28.6284 109.229 27.0821C109.929 26.783 110.581 26.3514 111.429 26.8565C115.495 29.3084 120.086 30.4903 124.382 32.3929C124.931 32.6332 125.666 32.6627 125.916 33.3982C124.657 33.4473 123.466 33.4816 122.379 32.5499C121.958 32.1583 121.447 31.8755 120.892 31.726C120.338 31.5764 119.755 31.5647 119.194 31.6917C117.195 32.1821 116.318 30.3137 115.03 29.5683C113.408 28.6268 111.904 30.353 110.993 29.4555C109.464 27.9501 108.293 29.1319 107.073 29.534C106.353 29.7792 105.153 29.8724 105.064 31.1523C105.064 31.5495 104.574 31.726 104.222 31.6427C102.022 31.0591 100.454 32.9324 98.3719 33.0746C96.2897 33.2168 95.2608 35.5805 93.3991 36.5073C92.9091 36.7476 92.4878 36.9584 92.0616 36.7868C90.0577 35.958 88.9309 37.0173 88 38.5718C87.8579 38.8121 87.6522 39.2731 87.5738 39.2534C85.3103 38.6748 84.1785 40.9649 82.1845 41.367C80.1905 41.7691 78.265 43.3285 76.6091 44.731C75.1736 45.9129 73.7675 46.9819 71.3717 47.5654C73.3608 48.1833 74.5318 49.8506 76.3592 48.3108C76.4546 48.2233 76.5714 48.1626 76.6977 48.1347C76.8241 48.1068 76.9556 48.1129 77.0788 48.1522C77.2021 48.1915 77.3129 48.2627 77.3999 48.3586C77.4868 48.4544 77.547 48.5716 77.5742 48.6982C77.7653 49.2867 77.4469 49.5907 76.9128 49.8359C76.222 50.1154 75.2519 50.0223 75.0609 51.0521Z" fill="#CC8153"/>
<path d="M20.0513 78.5479C36.7385 78.7195 52.9503 82.0394 69.0936 85.8742L70.2107 86.0458C71.4808 86.5449 72.8185 86.8507 74.1791 86.9531C74.8503 87.5709 74.3212 87.669 73.8215 87.7769C71.2302 88.2959 68.5957 88.5685 65.9532 88.5909C60.3012 88.667 54.6509 88.3393 49.0456 87.6102C45.0428 87.0658 40.9911 86.6294 37.1794 85.1582C40.6089 85.1141 43.8425 86.1145 47.1691 86.6539C51.1327 87.3012 55.1991 86.5705 59.2019 87.6347C61.1616 88.1594 63.43 87.6935 65.571 87.6739C65.9433 87.6739 66.301 87.6102 66.3941 87.1835C66.415 87.0953 66.4182 87.0037 66.4033 86.9142C66.3884 86.8247 66.3558 86.7391 66.3074 86.6623C66.2591 86.5856 66.1959 86.5193 66.1216 86.4673C66.0473 86.4154 65.9634 86.3788 65.8748 86.3597C64.6989 86.1047 63.7729 85.1386 62.504 85.173C59.2901 85.2514 56.424 83.6577 53.2492 83.2703C49.7119 82.8338 46.253 81.6569 42.6176 81.6814C42.1894 81.7168 41.7583 81.6871 41.3389 81.5932C38.0697 80.4921 34.6417 79.9371 31.1924 79.9504C29.7716 79.9504 28.3312 80.1612 26.9251 79.7444C26.5625 79.6414 26.1804 79.6316 25.9991 80.0239C25.8179 80.4162 26.1951 80.6075 26.4891 80.784C29.3111 82.363 32.623 82.6328 35.4842 84.1579C36.077 84.4717 37.0912 84.0009 37.1892 85.1877C31.7558 84.3491 26.7732 82.1424 21.7318 80.1122C20.0219 79.303 20.0219 79.303 20.0513 78.5479Z" fill="#CC8153"/>
<path d="M17.6406 72.4323C21.4496 70.0229 25.087 67.352 28.5269 64.439C30.8541 62.4383 33.1323 60.3737 35.3321 58.2406C36.1209 57.4805 36.5569 57.3088 37.2918 58.2406C38.3354 59.5793 39.4965 60.82 40.7214 62.2078C33.3136 66.4153 25.46 69.3674 17.6406 72.4323Z" fill="#F7F7F7"/>
<path d="M9.81593 63.9984C8.11818 67.1738 5.88182 70.0294 3.20674 72.438C3.03526 72.59 2.6923 72.5459 2.42773 72.5949C3.65747 66.7495 4.21599 60.7962 5.76908 54.9999C8.36983 44.9627 12.6307 35.432 18.3751 26.8028C18.7964 26.1702 19.1737 25.4297 20.0163 25.1992C18.4241 28.0434 18.5122 31.7704 15.1954 33.7662C14.2743 34.3204 13.7256 35.8798 13.4708 37.0812C12.8731 40.0579 9.87964 42.1665 10.4774 45.5698C10.5361 45.9131 9.9874 46.3985 9.68364 46.7712C8.83606 47.752 7.92481 48.9731 8.08648 50.1304C8.50783 53.1708 6.51378 55.4608 5.98956 58.2021C5.46533 60.9433 4.33357 63.4443 4.56874 66.2542C4.62263 66.8868 4.10821 67.9019 5.12727 68.0392C5.53045 68.0698 5.93158 67.958 6.26096 67.7233C6.59034 67.4886 6.82714 67.1457 6.93022 66.7544C7.30747 65.1558 8.68419 64.7389 9.81593 63.9984Z" fill="#E8D896"/>
<path d="M25.2891 55.9364C21.5411 60.7324 17.0337 64.7928 12.6145 68.9365C11.1104 70.3439 9.51324 71.6484 7.95526 72.9969C7.6564 73.2666 7.35265 73.5314 7.04889 73.7962C5.79467 74.5857 4.53062 75.3606 3.29599 76.1746C2.55129 76.665 2.47292 76.1746 2.39453 75.6254L2.88446 73.9384C5.23614 72.2466 6.64713 69.6525 8.80774 67.7743C9.11639 69.1376 10.209 68.6864 11.0565 68.7109C12.1148 68.7453 12.7664 68.0882 13.0897 67.1564C13.2612 66.666 13.0898 65.9795 12.5459 65.9403C12.1314 65.9285 11.7196 66.0106 11.3413 66.1804C10.9629 66.3503 10.6277 66.6034 10.3608 66.921C9.96397 67.3281 9.8709 68.4854 8.82245 67.7596C9.76312 65.9157 11.0614 64.3269 12.2912 62.6645C12.4822 63.4148 11.8355 64.7584 13.0653 64.7437C14.2117 64.7437 16.1371 64.9987 16.387 63.5913C16.681 61.9142 17.8225 61.6298 18.8709 61.1394C19.4687 60.8403 20.0272 60.7324 20.0762 59.9036C20.135 58.8542 20.9238 58.3197 21.7518 57.8734C22.1094 57.6822 22.6288 57.7263 22.6288 57.1281C22.6141 54.6663 23.9565 55.3087 25.2891 55.9364Z" fill="#CC8153"/>
<path d="M21.731 80.0625C26.7724 82.0927 31.755 84.2994 37.1883 85.138C41 86.6386 45.0518 87.0603 49.0545 87.5899C54.6599 88.319 60.3101 88.6468 65.9621 88.5707C68.6045 88.5499 71.239 88.2789 73.8304 87.7615C73.9725 88.0264 74.1146 88.2912 74.2518 88.556C69.7542 90.1007 65.09 89.7819 60.47 89.6495C51.2672 89.4404 42.1311 88.0292 33.2934 85.4518C29.1696 84.2964 25.1548 82.7819 21.2949 80.9256L21.731 80.0625Z" fill="#2B120D"/>
<path d="M105.177 23.0118C95.1329 23.4139 85.1334 22.3645 75.1094 21.9869C65.8007 21.6339 56.492 21.6289 47.5801 24.9292C47.5896 24.5646 47.7156 24.2127 47.9395 23.925C48.1635 23.6373 48.4736 23.429 48.8245 23.3306C51.3574 22.8402 53.8316 21.7319 56.3107 21.5946C58.7897 21.4573 61.3815 21.2955 63.9291 21.3298C75.3593 21.4867 86.7943 21.4916 98.2244 21.5456C98.489 21.5456 98.8662 21.5897 98.9936 21.4426C99.268 21.1288 99.1161 20.7806 98.7683 20.5501C98.5773 20.4514 98.4098 20.3127 98.2771 20.1435C98.1444 19.9743 98.0496 19.7784 97.9991 19.5693C99.6551 19.8538 101.12 20.6629 102.658 21.2808C103.398 21.9918 104.662 21.9575 105.177 23.0118Z" fill="#CC8153"/>
<path d="M98.3672 74.7623C100.327 75.7431 101.552 75.1497 102.688 73.2911C104.687 69.9958 107.098 66.9456 109.087 63.6453C110.067 61.9878 111.252 61.6396 112.962 61.8799C116.353 62.3703 119.758 62.7675 123.153 63.2039C128.193 63.8742 133.298 63.8857 138.341 63.2383C139.051 63.1941 139.762 63.1941 140.472 63.2383C139.002 65.7883 136.739 67.6125 134.632 69.5838C134.015 70.1625 133.383 70.7264 132.76 71.3002L132.035 71.462C132.418 69.7898 133.927 69.0444 134.975 67.9411C135.901 66.9603 137.062 66.2198 138.013 65.2636C137.336 64.2239 136.69 64.474 136.165 64.4691C132.809 64.4446 129.444 64.3416 126.088 64.4691C122.457 64.6212 118.792 63.9787 115.412 63.2677C112.438 62.64 110.792 63.4687 109.405 65.2292C108.425 66.4356 107.382 67.7302 106.863 69.4514C106.402 70.9863 104.246 71.7317 103.531 73.453C103.35 73.8992 102.924 74.2376 102.693 74.6691C101.356 77.1063 100.013 77.1554 98.3672 74.7623Z" fill="#CC8153"/>
<path d="M63.919 50.5957C65.0556 50.6644 66.2217 50.5369 67.2799 51.0861C72.3801 53.7587 77.9605 54.4501 83.9818 55.0876C81.9534 57.6474 80.1113 60.0356 78.2055 62.3649C76.1379 64.9002 76.1232 64.8512 79.0628 66.1605C81.5125 67.2541 83.9622 68.4261 86.4118 69.5638C83.3351 69.5246 80.6992 68.0926 78.0389 66.8176C74.5603 65.1601 74.5652 64.6894 77.3285 61.7471C78.5043 60.4966 79.4499 59.0352 80.5522 57.7161C81.6546 56.397 80.9246 55.9409 79.7487 55.3721C78.6905 54.8817 77.6469 55.2053 76.6083 55.122C72.7721 54.7983 69.2936 53.2634 65.7611 51.959C65.4261 51.8134 65.0613 51.7494 64.6968 51.7724C64.3322 51.7955 63.9784 51.9048 63.6643 52.0914C60.6561 53.4596 58.1672 55.6614 55.257 57.1767C54.7468 57.4204 54.1906 57.5524 53.6255 57.5641L53.4688 57.3875C56.6631 54.9062 60.1171 52.8122 63.532 50.6644C63.665 50.6826 63.8003 50.6585 63.919 50.5957Z" fill="#CC8153"/>
<path d="M56.9335 5.29883C57.1735 6.18642 56.6395 6.39729 55.9536 6.84354C54.5769 7.76056 52.3869 7.97633 52.382 10.3302C49.6727 11.3453 49.3003 14.5524 47.1201 15.9745C46.6263 16.283 46.0412 16.4115 45.4637 16.3383C44.8862 16.265 44.3516 15.9945 43.9503 15.5724C42.8626 14.4985 41.6917 13.8413 40.2758 15.082C40.1092 15.2291 40.0357 15.2683 39.7858 15.131C36.2926 13.0812 33.3873 15.5283 30.2664 16.3864C30.0117 19.0541 27.1407 18.7403 25.857 20.2507C25.6807 20.42 25.5416 20.6245 25.4488 20.8508C25.356 21.0771 25.3115 21.3203 25.3181 21.5649C25.3181 22.0553 25.1614 22.9233 24.8282 22.8595C22.8685 22.5015 22.0699 24.5808 20.4188 24.821C20.4188 24.6102 20.3698 24.3307 20.4825 24.1933C24.9458 18.7991 29.7912 13.8658 37.2725 13.1303C40.0602 12.8557 42.9312 13.0273 45.18 15.3027C46.1599 16.308 46.6498 15.1752 47.0614 14.4984C49.2367 11.0952 51.8627 8.12345 55.3608 6.05402C55.8899 5.74018 56.424 5.53912 56.9335 5.29883Z" fill="#E8D896"/>
<path d="M71.7435 84.2019C64.8599 82.2404 57.8343 80.9114 50.8233 79.5089C50.42 79.3993 50.0254 79.26 49.6426 79.0921C53.1505 78.6017 56.3547 80.0042 59.6715 80.6908C60.8262 80.9549 62.0015 81.1189 63.1843 81.1812C66.5845 81.2596 69.4065 83.6086 72.7625 83.3389C74.3793 83.2114 75.7021 83.9714 77.02 84.4618C78.4163 84.9638 79.899 85.1806 81.3804 85.0993C85.5743 84.9718 89.6309 86.3841 93.8737 86.0311C97.3817 85.7368 100.845 84.8934 104.393 85.1189C98.6981 86.6764 92.7665 87.175 86.8922 86.5901C84.4425 86.3645 81.9439 86.0997 79.4697 85.879L79.4354 85.9085C78.3388 85.417 77.1534 85.155 75.952 85.1386L75.3102 85.0307C74.4479 84.5403 73.4729 84.452 72.5175 84.2902L71.7435 84.2019Z" fill="#CC8153"/>
<path d="M82.2637 31.8338L101.048 27.7734L101.18 28.1118C100.043 28.6022 98.9116 29.0926 97.7505 29.583C94.004 31.1059 90.3436 32.833 86.7858 34.7565C85.4875 35.4676 84.7182 35.4676 84.0225 34.0504C83.6747 33.3099 82.9741 32.7214 82.2637 31.8338Z" fill="#F7F7F7"/>
<path d="M98.4249 31.7358C87.6905 36.4386 77.7497 42.6566 67.4023 48.0999C68.49 45.496 71.2434 45.1576 73.2473 43.809C73.4677 43.657 73.9234 43.7404 74.0459 43.559C76.0497 40.651 80.1602 40.9795 82.2914 38.1402C82.7813 37.4978 84.4912 37.9244 85.2702 37.3556C88.3029 35.1243 92.0166 34.2073 95.0688 32.0447C96.0732 31.3337 97.2981 31.7799 98.4249 31.7358Z" fill="#2B120D"/>
<path d="M129.36 73.9432L129.625 74.2767C128.155 74.9387 127.89 77.1307 125.989 77.2435C125.209 77.2709 124.442 77.4592 123.737 77.7967C123.032 78.1342 122.405 78.6137 121.894 79.2051C121.026 80.2104 119.762 79.7249 118.802 80.4458C115.916 82.6133 112.433 83.6185 109.131 84.8984C108.112 85.2907 107.014 85.075 105.951 85.0014C107.857 84.1285 109.998 83.8392 111.776 82.6574L111.904 82.6868C112.634 82.4073 113.374 82.1719 114.104 81.8482C119.297 79.4522 124.341 76.7453 129.208 73.7422C129.257 73.8206 129.306 73.8795 129.36 73.9432Z" fill="#2B120D"/>
<path d="M71.6662 96.2796C71.529 95.4263 70.8872 95.4312 70.2356 95.4312C68.7658 95.4312 67.296 95.4312 65.8262 95.4312C69.4566 94.7937 73.1752 94.6907 76.6978 93.3863C79.2255 92.454 81.6818 91.3379 84.0468 90.0468C84.9434 89.5564 85.8056 88.7865 87.2901 89.1003C82.6428 92.5636 77.3195 95.0096 71.6662 96.2796Z" fill="#F4DECD"/>
<path d="M79.4707 85.8941C81.9204 86.1295 84.419 86.3845 86.8932 86.6052C92.7675 87.19 98.6991 86.6914 104.394 85.134L104.839 85.085L105.246 85.1683C104.8 86.4335 103.326 86.5267 102.556 86.6983C97.0544 87.9341 91.4055 87.9782 85.8251 87.5663C84.0026 87.429 82.1409 86.7719 80.2203 86.7768C79.701 86.767 79.5099 86.3698 79.4707 85.8941Z" fill="#2B120D"/>
<path d="M53.6309 57.5691C53.6604 57.9452 53.5713 58.3211 53.3762 58.6439C53.1811 58.9668 52.8898 59.2203 52.5433 59.3688C50.0103 60.7468 47.5166 62.2277 45.0424 63.6842C41.4904 65.7732 38.0168 68.4066 33.6172 68.7008C38.2716 66.1214 43.117 63.8754 47.5607 60.9135L50.1279 59.2413L53.4546 57.4023L53.6309 57.5691Z" fill="#CC8153"/>
<path d="M78.6377 4.05813C75.6981 3.96986 72.827 4.37688 69.8434 3.43044C67.1879 2.59188 64.1944 3.23429 61.6174 4.44554C60.0545 5.18112 58.5161 5.20073 56.9238 5.31842C61.49 2.56737 66.502 2.11621 71.6218 2.58698C74.0176 2.80275 76.4281 2.9989 78.6377 4.05813Z" fill="#E8D896"/>
<path d="M53.4751 57.393L50.1484 59.232C50.4326 57.9471 52.4021 57.4568 51.7848 55.7453C53.1958 55.9513 54.1169 55.4511 54.3717 53.9701C56.6351 54.7596 58.0608 52.9894 59.4523 51.9203C60.0122 51.4441 60.6635 51.0875 61.3662 50.8724C62.0688 50.6574 62.808 50.5885 63.5383 50.6698C60.1235 52.8177 56.6694 54.9117 53.4751 57.393Z" fill="#2B120D"/>
<path d="M91.1067 10.1298C90.1758 10.2033 89.338 10.1592 88.5443 9.47268C85.9134 7.20219 82.283 6.93739 79.4463 5.02979C79.0151 4.74047 78.5595 4.62767 78.6232 4.00488C83.1922 5.07913 87.4596 7.17291 91.1067 10.1298Z" fill="#E8D896"/>
<path d="M101.806 18.7897C102.046 19.2801 102.56 20.001 101.355 19.5351C98.8842 18.6543 96.501 17.5445 94.2363 16.2201C95.1476 16.1907 96.0442 16.0387 96.8869 16.6517C98.1019 17.5344 98.2636 16.5144 98.4841 15.6709L101.806 18.7897Z" fill="#E8D896"/>
<path d="M105.246 85.1581L104.84 85.0747C105.168 83.9566 105.702 83.2995 107.079 83.3437C108.651 83.3927 110.067 81.9804 111.777 82.6767C109.999 83.8635 107.858 84.1479 105.952 85.0257L105.246 85.1581Z" fill="#CC8153"/>
<path d="M2.38051 75.6348C2.4589 76.184 2.53731 76.6695 3.282 76.184C4.51664 75.37 5.78065 74.5952 7.03488 73.8057C6.54494 75.8898 4.71258 76.6156 3.07131 77.1599C1.78278 77.5865 1.7779 76.5469 2.38051 75.6348Z" fill="#2B120D"/>
<path d="M132.378 36.8157C130.159 37.1345 129.052 35.3985 127.631 34.2461C129.542 34.4962 130.913 35.7418 132.378 36.8157Z" fill="#CC8153"/>
<path d="M132.016 71.4274L132.741 71.2656C132.447 73.2272 131.012 73.7175 129.361 73.9431C129.307 73.8843 129.258 73.8205 129.209 73.7617C130.012 72.8349 131.301 72.472 131.977 71.3931L132.016 71.4274Z" fill="#2B120D"/>
<path d="M50.1473 59.2412L47.5801 60.9134C47.6977 58.643 48.2366 58.285 50.1473 59.2412Z" fill="#2B120D"/>
<path d="M75.9531 85.1582C77.1545 85.1746 78.34 85.4366 79.4366 85.9281C78.3097 85.5113 76.5459 87.9828 75.9531 85.1582Z" fill="#2B120D"/>
<path d="M74.1794 86.9533C72.8187 86.8509 71.4811 86.5451 70.2109 86.0461C71.7052 85.7028 73.175 85.1977 74.1794 86.9533Z" fill="#2B120D"/>
<path d="M68.2422 97.2022C69.08 96.0596 70.3048 96.3244 71.4561 96.3244C70.4593 96.8421 69.3636 97.1414 68.2422 97.2022Z" fill="#F4DECD"/>
<path d="M93.7519 11.7478C92.434 12.0665 91.9196 11.1642 91.4395 10.2129C92.3442 10.4861 93.1484 11.02 93.7519 11.7478Z" fill="#E8D896"/>
<path d="M72.5195 84.3047C73.4994 84.4665 74.4499 84.545 75.3122 85.0452C74.3666 84.8686 73.1417 85.7219 72.5195 84.3047Z" fill="#2B120D"/>
<path d="M7.0332 73.8062C7.33696 73.5414 7.64071 73.2765 7.93957 73.0068C7.93467 73.5953 7.66522 73.8797 7.0332 73.8062Z" fill="#2B120D"/>
<path d="M95.0837 12.7382C94.6476 12.7382 94.2165 12.6941 94.2655 12.0713L95.0837 12.7382Z" fill="#E8D896"/>
<path d="M98.4001 15.74L97.9102 15.1123C98.16 15.2741 98.4442 15.3771 98.4001 15.74Z" fill="#E8D896"/>
<path d="M94.242 12.0522C93.9431 12.1404 93.7815 12.0129 93.7129 11.7285L94.242 12.0522Z" fill="#E8D896"/>
<path d="M8.8418 73.4619H9.29743C9.38562 73.6777 9.33171 73.8836 9.10145 73.8935C9.02306 73.9131 8.92998 73.6188 8.8418 73.4619Z" fill="#63799B"/>
<path d="M131.966 71.3934C131.29 72.4722 130.006 72.8351 129.198 73.7619C124.33 76.765 119.286 79.472 114.093 81.868C113.378 82.1916 112.624 82.427 111.894 82.7065C111.58 81.917 112.197 81.7258 112.697 81.4659C117.033 79.1611 121.026 76.2187 125.793 74.7133C127.131 74.2947 128.316 73.4894 129.198 72.3987C130.051 71.2806 130.898 71.2904 131.966 71.3934Z" fill="#CC8153"/>
<path d="M94.0801 72.8545C95.3882 73.5116 96.8971 73.7323 98.073 74.6738C96.4317 74.7474 94.5945 75.2476 94.0801 72.8545Z" fill="#CC8153"/>
<path d="M76.3689 8.32945C67.1141 6.36791 59.0694 8.18724 52.911 15.852C50.3143 19.0836 47.1787 20.9421 42.8575 21.0746C38.2767 21.2119 34.1416 23.0361 30.4279 25.7381L30.3202 25.6253C30.2467 25.1987 30.6435 24.674 30.1144 24.3699C30.0262 24.3209 29.7126 24.6544 29.502 24.8113C29.595 24.1493 29.3452 23.0606 30.3691 23.1832C32.6032 23.448 33.5537 21.7415 34.8912 20.5989C35.8711 19.7799 36.2141 19.8633 36.7187 20.9029C36.7595 21.0054 36.8246 21.0964 36.9083 21.1682C36.9921 21.2399 37.092 21.2903 37.1994 21.3149C37.3069 21.3395 37.4187 21.3376 37.5252 21.3094C37.6318 21.2812 37.7299 21.2275 37.8112 21.153C38.7911 20.2213 39.9963 20.3586 41.0546 20.5498C42.5244 20.8146 43.7051 19.9565 44.7536 19.5004C46.9338 18.554 49.8097 18.8335 51.2256 16.308C51.4608 15.8814 52.1026 15.2341 51.7645 15.0428C50.0154 14.062 51.6077 13.758 52.0879 13.3314C55.0667 10.6784 59.0351 9.84474 62.3765 7.77532C64.5371 6.43166 67.3934 6.41205 69.9949 6.79455C71.4638 7.08501 72.9634 7.18882 74.4582 7.10349C75.4969 6.99561 76.0701 7.38791 76.3689 8.32945Z" fill="#E8D896"/>
<path d="M30.4283 25.7384C25.3771 30.2009 22.4277 35.9874 20.076 42.1565C19.8555 42.7351 19.5469 43.2795 19.2823 43.8385C19.3607 41.877 18.2682 39.6408 20.6933 38.2825C20.7462 38.2348 20.7871 38.1754 20.8127 38.1089C20.8382 38.0424 20.8477 37.9708 20.8403 37.9C20.3994 35.9384 21.6389 34.6389 22.3689 32.9961C23.9612 29.4261 26.7783 27.2145 29.5023 24.7969C29.4924 24.9067 29.5069 25.0173 29.5446 25.1209C29.5823 25.2245 29.6423 25.3185 29.7204 25.3962C29.7986 25.4739 29.8928 25.5334 29.9965 25.5705C30.1003 25.6077 30.2109 25.6214 30.3205 25.6109L30.4283 25.7384Z" fill="#E8D896"/>
<path d="M19.3129 43.8779C17.0837 50.5177 14.3303 56.9173 10.5872 62.8656C9.97969 61.5563 11.0771 60.7619 11.523 59.7811C11.7336 59.3398 12.1648 58.9524 12.2383 58.5012C12.836 54.7841 14.7859 51.5721 16.1577 48.1394C16.7751 46.4966 17.1082 44.4566 19.3129 43.8779Z" fill="#E8D896"/>
<path d="M86.8139 12.5815C83.5216 11.1104 80.3174 9.42344 76.834 8.39853C77.7257 7.22161 79.0779 7.0892 79.999 7.86892C81.7578 9.36949 83.8449 10.1345 85.8243 11.1594C86.3338 11.4193 87.0099 11.7479 86.8139 12.5815Z" fill="#E8D896"/>
<path d="M90.6503 14.4644C89.5231 14.0814 88.4584 13.5344 87.4902 12.8412C88.9943 12.5077 90.1016 12.9393 90.6503 14.4644Z" fill="#E8D896"/>
<path d="M87.534 12.8752L87.0098 12.6545C87.2743 12.5025 87.4311 12.6202 87.534 12.8752Z" fill="#E8D896"/>
<path d="M101.1 42.6572C105.818 44.4226 110.512 46.2665 115.274 47.9093C116.631 48.3996 116.332 48.7772 115.764 49.6109C110.796 56.9323 105.818 64.2489 100.924 71.6194C100.243 72.6541 99.7039 72.7227 98.7045 72.2323C96.8574 71.3251 94.9614 70.5258 93.0898 69.6823L93.2074 69.5499C94.8438 69.5499 96.3871 69.5107 97.705 70.9573C97.8971 71.1509 98.1302 71.2987 98.3871 71.3898C98.6439 71.481 98.918 71.5131 99.189 71.4839C99.46 71.4548 99.7209 71.3649 99.9526 71.2212C100.184 71.0774 100.38 70.8833 100.527 70.6533C101.997 68.2945 103.707 66.0927 105.074 63.7193C106.828 60.6691 109.41 58.1093 110.497 54.6618C110.59 54.4744 110.737 54.319 110.919 54.2156C112.663 53.0338 113.471 51.1507 114.471 49.4245C114.867 48.738 114.554 48.2231 113.691 48.0711C110.576 47.5268 107.778 46.1095 104.902 44.8983C103.521 44.3098 101.904 44.2608 100.86 42.9711C100.958 42.8681 101.037 42.7602 101.1 42.6572Z" fill="#E8D896"/>
<path d="M93.1039 69.6812C89.1159 67.9698 85.1523 66.2093 81.1348 64.5763C79.9394 64.086 80.155 63.674 80.7919 62.9188C85.5998 56.9623 90.3962 50.9976 95.1812 45.0247C95.4507 44.6912 95.7544 44.3823 96.0141 44.0439C98.0081 41.44 98.0081 41.44 101.114 42.6561C101.036 42.7591 100.958 42.867 100.874 42.9651C99.5563 43.2054 97.7043 42.1756 97.038 43.9164C96.3717 45.6573 95.0391 46.4517 94.0298 47.7022C93.0206 48.9527 92.3837 50.4287 91.5802 51.7871C91.0902 52.6649 90.7179 53.5035 89.8213 53.9693C88.6455 54.5774 87.9743 55.6513 87.0924 56.5537C86.1125 57.5344 86.6025 59.3832 85.1817 59.8441C83.6286 60.3345 83.1583 61.6831 82.3548 62.7864C81.9138 63.3945 81.7913 63.9683 82.6291 64.3508C84.5889 65.2384 86.6368 66.0034 88.5328 67.0332C90.0859 67.8815 92.4915 67.1656 93.2019 69.5488L93.1039 69.6812Z" fill="#E8D896"/>
<path d="M54.372 53.9697C54.1172 55.4409 53.1962 55.9313 51.7852 55.7449C52.4221 54.8279 53.4852 54.5288 54.372 53.9697Z" fill="#15110E"/>
<path d="M97.9991 19.5596C98.0495 19.7687 98.1443 19.9645 98.277 20.1338C98.4098 20.303 98.5773 20.4417 98.7682 20.5404C99.1161 20.7709 99.2581 21.119 98.9936 21.4329C98.8662 21.58 98.5037 21.5359 98.2244 21.5359C86.7943 21.4819 75.3592 21.477 63.9291 21.3201C61.3815 21.2858 58.8191 21.4476 56.3107 21.5849C53.8022 21.7222 51.3574 22.8305 48.8245 23.3209C48.4736 23.4193 48.1634 23.6276 47.9395 23.9153C47.7155 24.203 47.5896 24.5549 47.58 24.9195C43.2637 27.3126 40.574 30.9611 38.7319 35.5167C36.5413 41.0378 33.4631 46.163 29.6191 50.6892C28.3061 50.8118 25.6996 53.9601 25.2832 55.8922V55.9413C23.9506 55.3136 22.6082 54.6712 22.6131 57.1084C22.6131 57.7066 22.0937 57.6625 21.7361 57.8538C20.9081 58.3 20.1193 58.8345 20.0605 59.8839C20.0115 60.7127 19.453 60.8206 18.8553 61.1197C17.8068 61.6444 16.6653 61.9092 16.3713 63.5716C16.1215 64.9791 14.196 64.7142 13.0496 64.724C11.8199 64.724 12.4666 63.3951 12.2755 62.6448C17.116 54.2445 19.6588 44.834 23.8428 36.164C26.655 30.3432 30.839 25.7139 37.1347 23.414C37.6757 23.2528 38.2253 23.1218 38.7808 23.0217C42.5141 23.1836 46.2278 23.262 49.6966 21.4721C50.2698 21.1779 50.0542 20.8052 50.064 20.4129C52.3961 20.6826 53.5621 18.6181 54.542 17.3529C55.3945 16.2495 57.6188 15.5973 56.9916 13.469C59.8724 10.3159 63.6645 9.28116 67.7261 8.83981C74.4284 8.10914 80.386 10.311 86.1084 13.4838C88.4797 14.7914 90.8558 16.0991 93.2369 17.4068C94.1481 19.5792 95.9462 19.8588 97.9745 19.5841L97.9991 19.5596Z" fill="#EA604D"/>
<path d="M57.0077 13.4736C57.6593 15.6019 55.4351 16.2541 54.5581 17.3575C53.5782 18.6227 52.4122 20.6872 50.0801 20.4175C52.3387 18.0538 54.4944 15.597 57.0077 13.4736Z" fill="#CC8153"/>
<path d="M50.0683 20.4277C50.0683 20.82 50.2741 21.1927 49.7009 21.487C46.2322 23.2769 42.5184 23.1984 38.7852 23.0366C39.5559 22.5116 40.4813 22.2628 41.4112 22.3304C44.4635 22.3549 47.2904 21.5507 50.0683 20.4277Z" fill="#CC8153"/>
<path d="M97.9701 19.564C95.9418 19.819 94.1437 19.564 93.2324 17.3867C94.8972 17.9091 96.4892 18.6407 97.9701 19.564Z" fill="#CC8153"/>
<path d="M22.6132 92.0242C22.9415 90.4795 22.1233 89.9499 20.7564 89.5429C19.5609 89.1898 17.7874 89.3173 17.8168 87.2381C17.8168 86.0759 18.0079 85.914 19.0514 86.2965C21.555 87.2136 24.0242 88.4395 26.5082 89.1211C30.751 90.2883 34.7684 92.1223 39.1435 92.9756C42.4653 93.6229 45.7723 94.6527 49.1137 95.3C51.9553 95.8541 54.9537 95.3392 57.8541 95.8885C60.5977 96.4132 63.4001 96.4132 66.2123 96.8104C62.2537 96.5652 58.6331 98.5807 54.7724 98.4041C50.1428 98.2017 45.5266 97.763 40.9416 97.0899C38.1392 96.6731 35.4691 95.4226 32.6764 94.8832C30.5697 94.4811 28.4875 94.0103 26.7384 92.8579C25.3715 91.9605 24.0438 91.9752 22.6034 92.0144L22.6132 92.0242Z" fill="#F9D96F"/>
<path d="M25.2832 55.8875C25.6849 53.9554 28.3061 50.8072 29.6191 50.6846C28.4139 52.6167 27.1205 54.4605 25.2832 55.8875Z" fill="#CC8153"/>
<path d="M37.1889 85.1588C37.0909 83.9721 36.0767 84.4429 35.4839 84.129C32.6227 82.6039 29.3108 82.3342 26.4888 80.7552C26.1801 80.5786 25.7734 80.4561 25.9988 79.9951C26.2242 79.5341 26.5622 79.6126 26.9248 79.7156C28.3309 80.1324 29.7713 79.9264 31.1921 79.9215C34.637 79.9031 38.0616 80.4514 41.3288 81.5447C41.7481 81.6386 42.1793 81.6684 42.6075 81.633C46.2428 81.6085 49.7018 82.7854 53.2391 83.2218C56.4138 83.6092 59.28 85.1834 62.4939 85.1245C63.7628 85.0902 64.6888 86.0563 65.8647 86.3113C65.9533 86.3303 66.0372 86.3669 66.1115 86.4189C66.1858 86.4709 66.249 86.5372 66.2973 86.6139C66.3457 86.6906 66.3783 86.7763 66.3932 86.8657C66.408 86.9552 66.4049 87.0468 66.384 87.1351C66.2909 87.5813 65.9333 87.6255 65.5609 87.6255C63.4346 87.6255 61.1907 88.1159 59.1918 87.5863C55.189 86.527 51.1226 87.2577 47.159 86.6055C43.8324 86.0661 40.5792 85.0657 37.1693 85.1098L37.1889 85.1588Z" fill="#E87619"/>
<path d="M8.81159 67.7491C9.85514 68.4749 9.95314 67.3176 10.35 66.9106C10.6169 66.593 10.9521 66.3398 11.3304 66.17C11.7088 66.0001 12.1206 65.9181 12.5351 65.9298C13.0642 65.969 13.2504 66.6507 13.0789 67.146C12.7556 68.0777 12.099 68.7348 11.0457 68.7005C10.1981 68.676 9.08594 69.1271 8.79688 67.7639L8.81159 67.7491Z" fill="#EA604D"/>
<path d="M30.3212 25.6255C30.2116 25.636 30.101 25.6222 29.9972 25.5851C29.8935 25.548 29.7993 25.4885 29.7212 25.4108C29.643 25.333 29.583 25.239 29.5453 25.1355C29.5076 25.0319 29.4931 24.9213 29.503 24.8115C29.7137 24.6545 30.0272 24.3211 30.1154 24.3701C30.6446 24.6741 30.2477 25.1989 30.3212 25.6255Z" fill="#F9D96F"/>
<path d="M93.2224 69.5495C92.512 67.1662 90.1064 67.8822 88.5533 67.0338C86.6573 66.004 84.6339 65.239 82.6497 64.3514C81.8119 63.9689 81.9344 63.3951 82.3753 62.7871C83.1788 61.6837 83.6491 60.3351 85.2022 59.8448C86.672 59.3838 86.1429 57.5547 87.1129 56.5543C87.9948 55.652 88.666 54.5927 89.8419 53.9699C90.7385 53.5041 91.0961 52.6655 91.6007 51.7877C92.3846 50.4294 93.0313 48.9337 94.0504 47.7028C95.0694 46.472 96.4168 45.5844 97.0586 43.9171C97.7004 42.2497 99.5768 43.206 100.895 42.9657C101.938 44.2603 103.555 44.3094 104.937 44.8978C107.813 46.1189 110.61 47.5263 113.726 48.0706C114.588 48.2226 114.902 48.7375 114.505 49.4241C113.525 51.1502 112.697 53.0333 110.953 54.2151C110.771 54.3185 110.625 54.4739 110.532 54.6614C109.444 58.0941 106.862 60.6686 105.108 63.7188C103.741 66.0923 102.017 68.2941 100.562 70.6528C100.415 70.8828 100.219 71.0769 99.9871 71.2207C99.7555 71.3645 99.4945 71.4543 99.2236 71.4835C98.9526 71.5127 98.6786 71.4805 98.4217 71.3894C98.1648 71.2982 97.9317 71.1504 97.7396 70.9569C96.4021 69.5102 94.8588 69.5593 93.2224 69.5495ZM100.081 50.2087C99.5915 48.1442 98.0924 48.5267 96.652 48.9141C95.0891 49.3358 94.6579 50.3166 95.3242 51.8564C96.1326 53.71 98.6705 54.8428 100.429 53.9798C100.83 53.8148 101.171 53.5318 101.407 53.1684C101.644 52.8049 101.764 52.3781 101.752 51.9447C101.752 51.0374 101.365 50.6157 100.473 50.6451L100.081 50.2087ZM100.468 59.6878L100.042 60.1047C99.6323 60.204 99.2005 60.1552 98.8231 59.9668C98.4457 59.7783 98.1469 59.4624 97.9797 59.0748C97.5239 58.077 97.0086 57.1076 96.4364 56.1718C96.0281 55.5485 95.4404 55.0638 94.7511 54.7819C94.0618 54.4999 93.3032 54.434 92.5757 54.5927C91.3068 54.8281 91.439 55.8481 91.4684 56.7799C91.4829 56.8887 91.4605 56.9992 91.4047 57.0937C90.469 57.3193 90.5424 57.8489 90.9148 58.5256C91.4782 59.477 91.9633 60.7422 93.2616 60.4872C94.2121 60.3106 94.9665 60.5705 95.3193 61.1345C95.8631 62.0024 94.6138 62.1152 94.266 62.6596C93.7026 63.5472 92.6835 64.3367 93.2567 65.4842C93.9083 66.8033 95.5839 66.2835 96.6862 66.9553C97.1125 67.2152 98.3177 66.0383 98.3079 64.8614C99.0673 64.8221 100.091 65.7637 100.498 65.0183C101.424 63.3118 103.193 62.5173 104.251 61.1394C105.309 59.7614 106.642 58.6874 107.151 56.9858C107.896 54.4947 107.754 51.9496 107.764 49.4094C107.764 48.6542 107.656 47.9824 106.916 47.5851C106.369 47.2518 105.739 47.08 105.098 47.0896C104.457 47.0991 103.833 47.2896 103.295 47.6391C101.88 48.5022 103.217 49.5418 103.295 50.4882C103.535 54.1563 104.167 56.4366 100.219 56.927C100.787 57.8391 101.208 58.7512 100.478 59.6878H100.468Z" fill="#F9D96F"/>
<path d="M91.4794 56.7794C91.45 55.8477 91.3177 54.8179 92.5866 54.5923C93.3142 54.4336 94.0728 54.4995 94.7621 54.7814C95.4514 55.0634 96.039 55.548 96.4473 56.1714C97.0195 57.1071 97.5349 58.0766 97.9906 59.0744C98.1578 59.462 98.4565 59.7779 98.834 59.9663C99.2114 60.1548 99.6433 60.2036 100.053 60.1042L100.21 60.2661C98.7745 61.7912 96.8392 62.566 95.1441 63.6987C94.6541 64.0273 93.7771 64.2333 94.1642 65.0816C94.5267 65.8515 95.3352 65.8368 96.0309 65.5965C96.7531 65.307 97.4595 64.9797 98.1473 64.6158L98.3531 64.8561C98.3531 66.033 97.1577 67.2099 96.7314 66.95C95.6095 66.2782 93.9339 66.798 93.3019 65.4788C92.7287 64.3313 93.7478 63.5418 94.3112 62.6542C94.659 62.1099 95.9084 61.9971 95.3646 61.1291C95.0118 60.5652 94.2573 60.3053 93.3068 60.4818C92.0085 60.7172 91.5235 59.452 90.9601 58.5203C90.5632 57.8436 90.4701 57.3139 91.45 57.0884C91.7979 59.349 93.6645 59.4815 95.3058 59.604C96.3983 59.6874 96.9911 58.893 96.3444 57.7308C96.0944 57.3405 95.7679 57.0049 95.3847 56.7443C95.0015 56.4837 94.5696 56.3035 94.115 56.2146C93.6603 56.1257 93.1924 56.1299 92.7394 56.227C92.2864 56.3241 91.8578 56.512 91.4794 56.7794Z" fill="#E8D896"/>
<path d="M106.98 47.6045C107.72 48.0017 107.827 48.6735 107.827 49.4287C107.827 51.9689 107.96 54.514 107.215 57.0052C106.725 58.7215 105.314 59.8494 104.315 61.1587C103.315 62.468 101.488 63.3311 100.562 65.0377C100.155 65.783 99.1312 64.8415 98.3718 64.8807L98.166 64.6404C98.945 64.1501 99.7289 63.6597 100.498 63.1693C105.814 59.6238 108.097 53.9844 106.671 47.9674L106.98 47.6045Z" fill="#E8D896"/>
<path d="M100.479 59.6874C101.209 58.7508 100.788 57.8387 100.254 56.9462C104.203 56.4558 103.571 54.1755 103.331 50.5074C103.272 49.561 101.934 48.5459 103.331 47.6583C103.868 47.3088 104.493 47.1183 105.133 47.1088C105.774 47.0992 106.404 47.271 106.951 47.6044L106.643 47.9378C104.379 47.0306 104.683 48.7077 104.712 49.9337C104.756 53.8322 104.051 57.3875 100.528 59.7414L100.479 59.6874Z" fill="#E8D896"/>
<path d="M100.508 50.6203C101.4 50.5909 101.772 51.0126 101.787 51.9199C101.799 52.3533 101.678 52.7801 101.442 53.1436C101.206 53.507 100.865 53.79 100.464 53.955C98.7053 54.818 96.1675 53.6852 95.3591 51.8316C94.6928 50.3163 95.1239 49.3355 96.6868 48.8893C98.1027 48.5019 99.5774 48.1194 100.116 50.1839L100.013 50.2771C99.2889 49.9798 98.5479 49.7244 97.7941 49.5121C96.8485 49.2963 96.3243 49.7426 96.2116 50.738C96.0989 51.9051 96.9122 52.3318 97.7353 52.8173C98.5584 53.3027 99.548 53.4793 100.366 52.9693C101.346 52.3514 100.69 51.4589 100.464 50.6743L100.508 50.6203Z" fill="#E8D896"/>
<path d="M91.4778 56.7794C91.8554 56.5177 92.2817 56.3346 92.7313 56.2409C93.1809 56.1473 93.6447 56.145 94.0953 56.2342C94.5458 56.3234 94.9739 56.5022 95.3541 56.7601C95.7343 57.018 96.0588 57.3498 96.3085 57.7356C96.9552 58.8978 96.3624 59.6971 95.2698 59.6089C93.6286 59.4863 91.7619 59.3539 91.4141 57.0932C91.4698 56.9987 91.4922 56.8882 91.4778 56.7794Z" fill="#15110E"/>
<path d="M100.053 60.1043L100.479 59.6875L100.548 59.7463L100.21 60.2662L100.053 60.1043Z" fill="#E8D896"/>
<path d="M100.091 50.208L100.508 50.6199L100.439 50.6984L99.9883 50.3012L100.091 50.208Z" fill="#E8D896"/>
<path d="M100.21 60.2664L100.548 59.7466C104.07 57.3879 104.776 53.8326 104.732 49.9389C104.732 48.713 104.399 47.0359 106.662 47.9431C108.088 53.9699 105.805 59.6093 100.489 63.145C99.7197 63.6354 98.9358 64.1258 98.1568 64.6161C97.469 64.98 96.7625 65.3074 96.0403 65.5969C95.3446 65.8372 94.5362 65.8519 94.1736 65.082C93.7768 64.2337 94.6636 64.0277 95.1535 63.6991C96.8389 62.5663 98.7741 61.7915 100.21 60.2664Z" fill="#15110E"/>
<path d="M99.9887 50.3016L100.439 50.6989C100.665 51.4835 101.341 52.376 100.341 52.9938C99.5233 53.4842 98.5826 53.3567 97.7105 52.8418C96.8385 52.3269 96.0742 51.9297 96.1869 50.7626C96.2848 49.7818 96.8238 49.3209 97.7693 49.5366C98.5231 49.7489 99.2642 50.0044 99.9887 50.3016Z" fill="#15110E"/>
</svg>
