<svg width="109" height="128" viewBox="0 0 109 128" fill="none" xmlns="http://www.w3.org/2000/svg">
<path d="M57.0105 1.20898H60.3344C67.808 1.68633 75.1178 3.6135 81.8575 6.88336L81.8134 6.84553L82.9339 7.5895V7.41927H82.7639C82.8521 7.95518 82.9465 8.4911 83.0409 9.02701L82.4114 9.74576C78.0866 10.0122 73.8815 11.2743 70.1233 13.4341C57.4638 19.0328 49.2361 28.3199 46.4851 42.096C45.7844 45.9988 45.6931 49.9868 46.2144 53.9176C46.6865 58.0347 48.8898 60.853 52.3647 62.8138C53.7874 63.6208 55.229 64.3963 56.6517 65.2097C57.6796 65.7514 58.5148 66.5986 59.0424 67.6351C59.5699 68.6715 59.764 69.8461 59.5978 70.9975C59.3712 73.4249 58.194 75.3479 55.7515 76.2432C55.3016 76.321 54.8664 76.4678 54.461 76.6782C53.586 77.397 51.5841 76.5584 51.6534 78.1725C51.7226 79.7865 52.9124 80.9655 54.3666 81.7662C55.2065 82.1552 56.1319 82.3223 57.0546 82.2517C59.7426 82.2517 61.3731 83.5757 61.9019 86.1292C62.0135 86.6725 62.2488 87.1827 62.5895 87.6201C62.9301 88.0576 63.367 88.4104 63.866 88.6511C65.9371 89.7671 66.7869 91.4757 67.1772 93.695C67.983 98.3354 70.0666 99.9999 74.8195 100.397C87.5734 101.513 97.5638 96.1981 105.987 87.1569C106.704 86.2103 107.667 85.4779 108.769 85.0384C108.936 85.456 109.014 85.904 108.998 86.3536C108.982 86.8031 108.872 87.2443 108.675 87.6487C101.989 104.439 91.0483 117.282 74.0515 124.078C52.4906 132.697 30.9235 126.739 15.79 109.842C3.71593 96.3557 -1.04949 80.0198 0.190655 62.1959C1.71408 40.3496 11.2512 22.6707 29.5638 10.1745C31.9685 8.54154 34.5999 7.26165 37.1179 5.81154L42.7836 3.65527V3.74354C47.4483 2.2682 52.2514 1.79534 57.0105 1.20898ZM57.917 92.5034L58.0178 92.4151C57.3568 92.5917 56.6013 92.5223 56.1292 93.1465H55.9718C52.1099 94.0537 48.0587 93.6888 44.4203 92.1062C43.6586 91.7972 43.0102 91.3874 43.3375 90.5237C43.6649 89.6599 44.4014 90.1391 44.9869 90.303C45.5723 90.4669 46.0129 90.6498 46.5354 90.7759C50.8161 91.8099 55.0087 92.0368 58.962 89.5653C59.9881 88.9348 60.8065 88.3044 60.2211 86.9677C59.6923 85.8013 59.6608 84.1053 57.6652 84.326C56.4892 84.4647 55.2972 84.3066 54.1977 83.8661C53.0982 83.4256 52.1262 82.7168 51.3701 81.804L50.8728 81.4005L50.4384 80.8646H50.4888C50.4258 78.7588 49.6704 77.6428 47.2783 78.1851C44.8861 78.7273 42.9976 77.6113 41.7385 75.5938C41.3545 74.9633 40.7062 73.9986 41.6315 73.3808C42.6954 72.6683 42.9472 73.8662 43.4068 74.4589C44.0363 75.2974 44.8043 76.6971 45.8934 75.619C47.5867 73.9419 49.4501 74.0554 51.4645 74.276C53.1076 75.8459 54.4862 74.7678 55.8711 73.8347C58.0996 71.6784 58.257 69.995 56.4566 67.6244C56.0852 66.7859 55.3801 67.0633 54.7443 67.1137C54.033 66.7543 53.6615 65.8527 52.711 65.8527C52.7242 65.8271 52.7316 65.7988 52.7326 65.7699C52.7335 65.741 52.7281 65.7122 52.7167 65.6857C52.7052 65.6592 52.6881 65.6355 52.6664 65.6164C52.6447 65.5973 52.6191 65.5833 52.5914 65.5753C50.4762 63.665 47.8448 62.2779 46.0507 59.882L44.9428 57.6627C43.633 51.354 43.6716 44.8391 45.0561 38.5464L44.9239 38.4518C45.6608 37.4835 46.0531 36.2961 46.0381 35.0787V35.1228C46.6676 34.7761 46.6677 34.1204 46.7558 33.5214H46.5858C47.0894 33.5655 47.0957 33.162 47.2153 32.8468C47.7645 32.2646 48.1149 31.5228 48.2163 30.7284C49.0409 29.4674 50.1048 28.3199 50.4825 26.7878C54.3729 22.0276 58.5529 17.5764 63.8282 14.2979V14.2537C64.0836 14.2336 64.3307 14.1535 64.5495 14.0199C64.7682 13.8862 64.9525 13.7028 65.0872 13.4846C67.5297 12.5514 69.4938 10.4961 72.2448 10.2754C72.3896 10.2754 72.4966 9.83404 72.6225 9.59445C73.0254 9.51249 73.529 9.64489 73.7241 9.10268L74.8321 9.0081C76.3114 9.12158 77.5138 8.4911 78.968 7.52015L72.5658 5.39541C66.0063 3.61744 59.346 2.77259 52.5914 3.7057C49.7774 4.12813 46.9257 4.33619 44.3007 5.62869L44.351 5.58456C41.2234 6.16023 38.233 7.32402 35.5378 9.01441H35.5756C35.2546 9.07115 34.8957 9.07114 34.9461 9.55662L34.858 9.40531C27.3734 13.1481 20.929 18.6863 16.0985 25.5268H16.1425C15.8722 25.6052 15.6286 25.7567 15.4387 25.9647C15.2488 26.1727 15.1198 26.4292 15.0661 26.7059C9.28083 34.0069 5.68631 42.3293 3.73482 51.402C3.27527 53.4637 2.7339 55.5128 2.85981 57.6564C2.72761 57.8897 2.48839 58.1104 2.46321 58.35C1.55041 67.8703 1.89036 77.2645 4.86795 86.4759C6.85722 92.6043 9.30602 98.4993 13.5741 103.461H13.7315C14.6506 105.271 15.62 107.03 17.2505 108.341C22.4817 114.261 28.4999 119.091 35.9407 121.979C36.9537 122.66 38.124 123.07 39.3401 123.17V123.101C39.913 123.864 40.8321 123.763 41.6064 124.021L42.5506 124.135C48.6724 126.048 55.1671 126.44 61.4738 125.276C75.9967 123.34 87.5419 116.273 96.5566 104.848C96.6888 104.678 96.8273 104.514 96.9595 104.35C98.4084 102.931 99.6143 101.282 100.529 99.4703C102.027 97.3455 103.462 95.183 104.186 92.6421C104.658 92.4151 104.816 92.0873 104.57 91.5892L103.802 92.144L96.6258 97.5599C95.3668 98.4678 94.1078 99.4513 92.5088 99.8107L84.9924 101.954H84.7847C83.6956 102.074 82.6065 102.244 81.5112 102.307C75.6064 102.623 69.6134 103.14 65.9937 96.879L65.8426 96.2485C65.6916 95.2586 65.5719 94.2625 65.3705 93.2852C64.741 90.2463 63.1798 89.5023 60.498 90.9713C59.9504 91.2676 59.4342 91.6459 58.9054 91.9801L58.7732 92.0242C58.3388 92.0747 58.0367 92.1188 57.917 92.5034Z" fill="#2B120D"/>
<path d="M81.8375 6.86496C75.0979 3.59509 67.7881 1.66792 60.3145 1.19058C60.7636 0.721843 61.3348 0.388381 61.9634 0.227929C62.592 0.0674771 63.2528 0.0864402 63.8712 0.282679C68.7814 1.8715 74.34 1.14014 78.7655 4.46911C79.1797 4.67294 79.6529 4.72213 80.1001 4.60782C82.2215 4.22322 82.0453 5.52202 81.8375 6.86496Z" fill="#F7F7F7"/>
<path d="M70.1367 13.4217C73.8949 11.262 78.1001 9.99979 82.4248 9.7334C81.6442 11.4546 81.084 13.6361 78.5596 11.3979C78.3596 11.304 78.139 11.2628 77.9186 11.2783C77.6983 11.2937 77.4856 11.3653 77.3006 11.4861C75.4939 14.3801 72.617 13.1506 70.1367 13.4217Z" fill="#F7F7F7"/>
<path d="M57.0112 1.2096C52.2395 1.79596 47.4489 2.26882 42.8346 3.73155C42.8786 2.84256 41.9281 1.4681 44.2636 2.11119C46.2402 2.65972 48.2169 1.18438 50.2125 0.705213C52.5039 0.162995 54.8835 -0.782733 57.0112 1.2096Z" fill="#F7F7F7"/>
<path d="M42.8102 3.64317L37.1445 5.79943C38.1203 2.70375 40.6069 3.54229 42.8102 3.64317Z" fill="#F7F7F7"/>
<path d="M83.0524 9.01497C82.958 8.47906 82.8635 7.94314 82.7754 7.40723C83.6063 7.81074 83.6756 8.35296 83.0524 9.01497Z" fill="#F7F7F7"/>
<path d="M82.9352 7.5522L81.8398 6.82715C82.3183 6.87759 82.7652 7.01629 82.9352 7.5522Z" fill="#F7F7F7"/>
<path d="M73.6549 9.11003C73.4597 9.65225 72.9561 9.51984 72.5532 9.60181C70.8095 8.41019 68.8391 8.97132 67.0261 9.12264C64.8605 9.28657 61.7256 12.6218 61.4486 14.5574C59.1886 14.8348 58.1248 16.7578 56.551 18.0188C54.1903 19.9103 52.4717 22.3692 50.4006 24.5128C49.9914 24.4245 49.5193 23.1636 49.1794 24.6389C48.9905 25.4585 49.2738 27.1608 47.6434 26.4673C46.5165 26.0071 47.1964 24.9163 47.6937 24.1345C48.1218 23.4662 48.0588 22.8735 47.3223 22.552C46.5858 22.2304 46.1199 22.634 45.9814 23.3905C45.7674 24.5254 44.7728 25.2442 45.2827 26.8771C45.7926 28.5101 45.1379 31.3725 43.52 32.0786C41.9022 32.7848 41.7448 33.7873 40.9202 34.8213C39.2582 36.8956 40.7376 37.091 41.9651 37.6458C42.5946 37.9359 43.4445 37.7972 43.904 38.5096C43.8285 39.3671 43.7467 40.2308 43.6711 41.0883C41.9777 40.9559 41.4553 41.8007 41.5245 43.4085C41.6252 45.6971 41.5245 47.9858 41.5245 50.2808C41.5245 51.9263 41.8518 53.7422 38.9749 53.6413C40.7439 54.3348 41.9022 55.6021 43.6082 55.5769L43.797 57.7079L41.5182 57.7457C40.0577 55.6777 38.251 56.9198 36.545 57.2224L35.286 57.09L34.7824 56.6676L34.8202 56.7496C33.2275 54.5177 29.1546 53.8304 26.2336 54.7951C23.5456 55.6904 21.827 57.9979 19.5482 59.0824C17.0301 60.274 17.1434 61.8628 17.2127 63.8615C17.0677 63.8485 16.9217 63.8652 16.7833 63.9104C16.645 63.9556 16.5172 64.0285 16.4078 64.1245C16.2983 64.2206 16.2095 64.3379 16.1466 64.4693C16.0837 64.6007 16.048 64.7435 16.0418 64.8892L15.4437 65.5196C14.0714 65.5196 13.807 66.3267 13.9014 67.4868C13.977 68.4325 14.1532 69.3782 15.0723 69.7817C15.5268 70.006 16.0463 70.06 16.537 69.9339C17.0277 69.8079 17.4572 69.5101 17.7478 69.0945C18.7526 68.0528 19.4949 66.7863 19.9133 65.3998C20.4421 64.3322 20.9751 63.2667 21.5123 62.2033C23.596 62.5563 24.3639 60.3875 25.9818 59.8516C27.7444 60.5325 29.2112 57.7268 31.0683 59.385C31.1564 60.419 29.5952 59.6813 29.7211 60.791C29.9557 61.0727 30.2906 61.252 30.6548 61.2908C31.019 61.3296 31.384 61.225 31.6726 60.999C33.4478 59.5552 34.7069 60.4316 36.0792 61.6295C36.5971 62.1043 37.2659 62.3804 37.9674 62.4093C38.6688 62.4381 39.3579 62.2178 39.9129 61.7872C41.172 60.7847 39.2834 59.9461 39.2331 58.9248C39.4534 57.5062 40.5613 57.8151 41.4867 57.7584C43.1109 59.0887 42.8591 62.3105 45.9311 62.1718C45.6856 63.8867 46.4158 64.6307 48.1344 64.3974C48.9307 66.1876 50.1942 67.7296 51.7919 68.8612C52.0557 69.0336 52.2635 69.2793 52.3898 69.5683C52.5162 69.8572 52.5556 70.1768 52.5032 70.4879C52.4529 71.1184 52.0437 71.7488 51.5023 71.5282C49.1038 70.6014 46.5858 73.1233 44.181 71.2318C43.5515 70.7148 42.7898 71.2318 42.645 72.1713C41.5497 72.2784 40.0514 71.7993 40.3473 73.861C40.6432 75.9227 39.636 78.6968 42.8654 78.867C45.6289 79.012 48.0211 80.0208 50.5139 80.9098H50.4636L50.8979 81.4457L51.3953 81.8492L49.9977 82.7319C52.0625 84.4531 54.1211 85.7835 56.9854 85.4682C58.5214 85.298 58.5906 87.2273 58.8298 88.11C59.069 88.9926 57.5708 88.5891 56.8783 88.8161C53.1538 89.9612 49.1745 89.9787 45.4401 88.8665C44.5337 88.7253 43.6121 88.7104 42.7017 88.8224C42.4318 88.8055 42.1636 88.876 41.9368 89.0237C41.7101 89.1713 41.5368 89.3881 41.4427 89.6421C40.8131 91.5335 42.5632 94.1059 44.5902 94.2257C46.4788 94.3392 48.4114 93.9609 50.1425 95.2029C50.4648 95.3953 50.8378 95.4851 51.2122 95.4604C51.5866 95.4356 51.9446 95.2974 52.2388 95.0642C53.353 94.1437 54.6498 94.3581 55.9026 94.2446C57.7911 94.522 60.0637 95.7325 61.1968 93.6141C61.9144 92.2838 62.8335 92.5171 63.7149 92.1009L63.8093 93.1034C62.8083 95.8965 62.2166 98.5508 65.9622 99.8118C65.7104 101.533 66.4721 102.233 68.1592 102.018C69.2483 104.231 70.778 105.663 73.4975 105.373C75.7322 105.133 78.0237 105.757 80.1703 104.389C80.9005 103.923 82.1029 105.02 82.7765 105.139C85.4456 105.631 88.2596 105.341 91.0168 105.329C91.7093 105.329 92.3325 105.133 92.3451 104.282C92.3451 103.229 91.5645 103.254 90.8154 103.134C89.8397 102.983 88.4862 103.727 88.0707 102.082C89.6008 102.129 91.1085 101.704 92.3892 100.865C94.3155 101.388 94.8065 103.191 95.7193 104.616C95.2578 104.762 94.8298 104.998 94.4602 105.311C94.0906 105.623 93.7868 106.007 93.5664 106.438C90.6769 106.482 89.3738 108.676 87.9511 110.656C87.3216 111.551 86.9502 112.333 85.6408 111.343C84.3314 110.354 83.8089 111.413 83.6704 112.573C83.6074 113.492 83.5948 114.414 83.6326 115.334C80.057 117.27 76.3869 119.054 72.9309 121.217C71.2438 122.276 69.3049 120.586 67.9326 122.068C65.3327 124.893 61.9459 124.098 58.7417 124.249C57.7156 124.294 56.4629 123.802 55.89 125.227C51.7856 125.737 47.9015 123.928 43.8348 124.048C43.8852 122.787 43.5137 122.251 42.0847 121.866C39.2267 121.103 36.1107 121.192 33.5045 119.603C31.7922 118.556 30.5206 116.11 29.0979 115.769C26.4288 115.139 25.3586 112.831 23.2182 111.81C21.9089 111.179 19.9259 110.631 20.5365 108.33C19.2334 108.084 19.139 105.738 17.2882 106.438C16.3502 106.369 16.2684 105.669 16.0607 104.944C15.7459 103.815 15.1101 102.989 13.7189 103.488H13.5615C13.2279 100.083 10.2125 97.7186 9.97957 94.2698C9.97957 94.2005 9.85366 94.1437 9.79701 94.0744C6.80052 90.4617 5.95697 86.0294 5.06936 81.616C4.79867 80.273 5.99476 78.5455 4.02438 77.6565V76.5973C4.15028 75.3363 4.13768 74.1825 4.73571 72.9153C5.68628 70.8977 5.57297 68.7729 3.02344 67.6822V66.6293C3.71523 66.0787 4.26982 65.3746 4.64344 64.5725C5.01707 63.7705 5.19951 62.8925 5.17638 62.0078C5.17638 58.3699 5.17638 54.732 5.13231 51.0941V51.0626C5.51002 51.1383 6.03882 52.4055 6.22768 50.9617C6.28115 50.2524 6.28115 49.54 6.22768 48.8307C6.17265 48.0991 6.19373 47.3638 6.29061 46.6366C6.92013 43.9507 7.23488 40.9622 9.35634 39.0707C9.90079 38.6201 10.3422 38.0576 10.6506 37.4212C10.9591 36.7849 11.1274 36.0896 11.1442 35.3824C11.3771 33.3775 12.1199 30.8933 14.1092 30.3385C17.1308 29.4874 16.0921 28.2579 15.0912 26.7006C15.9096 26.7006 16.2684 26.3349 16.1677 25.5216H16.1236L18.2577 26.4106C18.1066 24.3363 19.2775 23.1068 20.4987 21.8395C24.5402 17.6342 28.7643 13.6811 34.1025 11.1591C34.2747 11.1017 34.433 11.0089 34.5673 10.8867C34.7017 10.7644 34.809 10.6155 34.8825 10.4493C34.956 10.2831 34.994 10.1033 34.9941 9.92157C34.9942 9.73981 34.9564 9.56003 34.8831 9.39374L34.9712 9.54506L35.6008 9.00285H35.563C36.5702 8.95241 37.6719 9.14786 38.5658 8.8074C40.3347 8.13278 41.8707 6.91594 43.8285 6.63852C43.9544 7.17444 44.1118 7.95624 44.8042 7.58425C46.7872 6.52503 48.5813 6.89702 50.4699 7.79861C51.0994 8.08864 51.8737 7.62208 52.5725 7.50229C56.6202 6.82767 60.5925 5.39646 64.7724 5.79997C66.3966 5.95129 67.9955 6.7394 69.5945 6.70788C71.4893 6.68896 72.8302 7.30053 73.6549 9.11003ZM25.8118 97.5672C26.9198 97.5672 28.0214 97.6177 29.1231 97.5672C30.2247 97.5168 31.874 98.1977 31.7041 95.9532C31.7041 95.7956 32.2329 95.493 32.5539 95.4236C33.7937 95.1535 34.9178 94.5009 35.7681 93.5577C36.6183 92.6145 37.1521 91.4281 37.2942 90.1653C37.4201 87.7506 38.1377 85.2917 37.7285 82.8328C37.7285 82.6562 37.6656 82.3914 37.546 82.3221C35.5378 81.2061 34.4425 79.1697 32.6043 77.7448C27.8578 74.1384 23.4008 75.1598 19.0949 77.8961C16.0481 79.838 15.2738 83.3183 15.0471 86.7922C15.0643 87.3098 15.2402 87.8095 15.5508 88.2235C17.1749 90.7958 18.8746 93.3493 20.3665 95.9847C20.9457 97.0187 21.1786 97.7123 22.2551 97.4916C23.5015 97.2331 24.6535 97.5799 25.8118 97.5672Z" fill="#F8D121"/>
<path d="M55.8275 94.2254C54.5685 94.3389 53.3094 94.1246 52.1637 95.0451C51.8695 95.2783 51.5115 95.4164 51.1371 95.4412C50.7628 95.466 50.3897 95.3762 50.0675 95.1838C48.3363 93.9228 46.4037 94.32 44.5151 94.2065C42.507 94.0867 40.7381 91.5017 41.3676 89.6229C41.4617 89.369 41.635 89.1521 41.8617 89.0045C42.0885 88.8569 42.3567 88.7863 42.6266 88.8033C43.5371 88.6913 44.4586 88.7061 45.365 88.8474C49.0994 89.9596 53.0787 89.942 56.8032 88.7969C57.5146 88.57 59.0065 89.0365 58.7547 88.0908C58.5029 87.1451 58.4463 85.2788 56.9103 85.4491C54.046 85.7643 51.9874 84.434 49.9226 82.7128L51.3202 81.8301C52.0763 82.7428 53.0483 83.4517 54.1478 83.8921C55.2473 84.3326 56.4393 84.4907 57.6153 84.352C59.6109 84.1314 59.6423 85.8274 60.1711 86.9938C60.8006 88.3178 59.9508 88.9483 58.9121 89.5914C54.9588 92.0818 50.7662 91.8359 46.4855 90.8019C45.963 90.6758 45.4531 90.4804 44.9369 90.329C44.4207 90.1777 43.6086 89.6986 43.2876 90.5497C42.9665 91.4009 43.6086 91.8107 44.3703 92.1322C48.0088 93.7149 52.0599 94.0797 55.9219 93.1725L55.8275 94.2254Z" fill="#F9D96F"/>
<path d="M73.6552 9.10928C72.8494 7.29979 71.5085 6.68822 69.5004 6.72604C67.9014 6.75757 66.3024 5.96946 64.6783 5.81814C60.4983 5.41463 56.4946 6.84583 52.4783 7.52045C51.7796 7.64025 50.9927 8.10681 50.3758 7.81678C48.4872 6.91519 46.6679 6.55581 44.7102 7.60242C44.0177 7.97441 43.8603 7.1926 43.7344 6.65669L44.3073 5.59117L44.2569 5.63531C47.2471 5.98207 49.9225 5.05526 52.5476 3.71232C59.3337 2.7792 65.9625 3.62405 72.5221 5.40202C73.1516 6.66299 75.4178 6.94041 74.7883 9.01471L73.6552 9.10928Z" fill="#EDCE3D"/>
<path d="M55.8281 125.226C56.401 123.801 57.6537 124.293 58.6798 124.249C61.8841 124.098 65.2708 124.88 67.8707 122.068C69.2431 120.567 71.182 122.276 72.8691 121.216C76.3062 119.054 79.9763 117.27 83.5708 115.334C85.1383 115.151 85.9126 113.695 87.0583 112.9C89.5763 111.192 92.0504 109.281 93.5045 106.438C93.7241 106.007 94.0278 105.624 94.3975 105.312C94.7673 105 95.1957 104.765 95.6575 104.622L96.4632 104.893C87.4486 116.318 75.9033 123.385 61.3804 125.315L55.8281 125.226Z" fill="#F9D96F"/>
<path d="M4.99495 81.6085C5.88256 86.0219 6.72611 90.4353 9.7226 94.0669C9.77925 94.1363 9.89887 94.193 9.90516 94.2624C10.1381 97.7111 13.1535 100.075 13.4871 103.48C9.21899 98.5181 6.77018 92.6231 4.78091 86.4948C1.80332 77.3086 1.46337 67.8891 2.37617 58.3688C2.37617 58.1292 2.64057 57.9085 2.77276 57.6752L2.9868 57.8076L2.77907 57.6626C2.65316 55.519 3.19454 53.4699 3.65408 51.4082L3.96884 51.673C4.56687 56.7169 2.03624 61.5527 2.89868 66.6218C2.89868 66.9749 2.89868 67.3217 2.89868 67.6747C2.89868 70.6822 2.33841 73.7589 3.9059 76.5898C3.9059 76.9429 3.9059 77.296 3.9059 77.649C4.20807 78.992 3.15047 80.688 4.99495 81.6085Z" fill="#F9D96F"/>
<path d="M43.8864 38.5092C43.4269 37.7968 42.5896 37.9355 41.9475 37.6455C40.6885 37.0906 39.2406 36.8952 40.9025 34.8209C41.7272 33.7869 41.9097 32.7781 43.5024 32.0783C45.0951 31.3784 45.7813 28.5412 45.2651 26.8768C44.7489 25.2123 45.7498 24.525 45.9638 23.3902C46.1023 22.6336 46.5052 22.1859 47.3047 22.5516C48.1042 22.9173 48.1042 23.4658 47.6761 24.1341C47.1788 24.9159 46.4989 26.0256 47.6258 26.4669C49.2562 27.1416 48.9729 25.4582 49.1618 24.6385C49.5017 23.1632 49.9738 24.4242 50.383 24.5124C50.1447 24.8485 50.0225 25.2533 50.035 25.6653C50.0475 26.0772 50.194 26.4739 50.4523 26.7948C48.1734 27.2298 48.2552 29.0267 48.186 30.7353C48.0897 31.5194 47.7507 32.2536 47.2166 32.8349L46.587 33.5095H46.7444C45.7939 33.7238 45.9512 34.4363 46.0268 35.1109V35.0731C44.39 35.7729 44.8811 37.1852 44.9126 38.4399L45.0447 38.5345L43.8864 38.5092Z" fill="#EDCE3D"/>
<path d="M17.2131 106.457C19.0639 105.738 19.1583 108.083 20.4614 108.348C19.8319 110.649 21.8338 111.204 23.1431 111.828C25.2835 112.85 26.3537 115.164 29.0228 115.788C30.4581 116.128 31.7297 118.575 33.4294 119.621C36.0356 121.21 39.1517 121.122 42.0096 121.885C43.4386 122.269 43.8101 122.824 43.7597 124.072L42.4251 124.198L41.4872 124.085C41.1535 122.729 40.1274 123.089 39.2146 123.164V123.234C38.6921 121.09 37.005 122.269 35.8153 122.042C28.3744 119.155 22.3563 114.325 17.125 108.405C17.1817 107.743 17.1942 107.1 17.2131 106.457Z" fill="#EDCE3D"/>
<path d="M87.9896 102.081C88.4051 103.727 89.7586 102.983 90.7343 103.134C91.4834 103.254 92.2766 103.229 92.264 104.281C92.264 105.133 91.6345 105.322 90.9358 105.328C88.1785 105.328 85.3645 105.631 82.6954 105.139C82.0218 105.013 80.8069 103.922 80.0892 104.389C77.9426 105.757 75.6512 105.133 73.4164 105.372C70.6969 105.662 69.1672 104.231 68.0781 102.018C72.4029 102.768 76.7276 103.569 81.1594 103.178C82.4184 103.065 83.7593 103.178 84.6721 102.012H84.8798L87.9896 102.081Z" fill="#EDCE3D"/>
<path d="M42.6445 72.1712C42.7893 71.2318 43.5196 70.7148 44.1805 71.2318C46.6105 73.1232 49.1096 70.6013 51.5396 71.5029C52.0809 71.7046 52.4901 71.0931 52.5405 70.4626C52.5929 70.1515 52.5535 69.8319 52.4271 69.543C52.3008 69.254 52.0929 69.0083 51.8291 68.8359C50.2315 67.7043 48.968 66.1622 48.1717 64.3721C49.5251 65.2611 50.9541 65.8852 52.6286 65.633C52.6563 65.641 52.682 65.6551 52.7036 65.6741C52.7253 65.6932 52.7425 65.7169 52.7539 65.7434C52.7654 65.77 52.7708 65.7987 52.7698 65.8276C52.7688 65.8565 52.7614 65.8848 52.7482 65.9105C52.1817 68.01 53.6421 69.5042 54.4353 71.2381C54.5738 70.0402 54.7081 68.8422 54.8382 67.6443L56.4938 67.6758C57.6836 69.8762 56.2735 71.8307 55.9084 73.8861C54.5172 74.8192 53.1385 75.8974 51.5018 74.3275C51.5018 73.9681 51.5018 73.615 51.5018 73.2556C51.6655 73.098 52.2131 73.4637 52.0432 72.8521L51.5018 73.2556C50.3372 73.2556 48.9082 72.8647 48.0584 73.3943C45.6599 74.8571 44.0672 74.1509 42.6445 72.1712Z" fill="#EDCE3D"/>
<path d="M14.9716 26.7129C15.9726 28.2702 17.0113 29.4996 13.9896 30.3508C12.0003 30.9119 11.2575 33.396 11.0246 35.3947C11.0078 36.1019 10.8395 36.7972 10.5311 37.4335C10.2226 38.0699 9.78124 38.6324 9.23679 39.083C7.11533 40.9745 6.78797 43.9378 6.17104 46.6489C6.07416 47.3761 6.05308 48.1114 6.10811 48.8429C4.84908 49.1393 5.0883 50.1859 5.02534 51.0749V51.1064L3.98663 51.6928L3.67188 51.4279C5.59189 42.3363 9.18642 34.0328 14.9716 26.7129Z" fill="#F9D96F"/>
<path d="M42.6459 72.1709C44.0812 74.1506 45.6613 74.8568 48.0283 73.3878C48.8781 72.8581 50.3071 73.268 51.4717 73.249C51.4717 73.6084 51.4717 73.9615 51.4717 74.3209C49.4573 74.1002 47.5939 73.9867 45.9005 75.6638C44.8115 76.7419 44.0624 75.3423 43.414 74.5037C42.9544 73.911 42.7026 72.7131 41.6387 73.4256C40.7134 74.0561 41.3617 75.027 41.7457 75.6386C43.0048 77.6561 44.8933 78.791 47.2855 78.2299C49.6776 77.6687 50.4331 78.8036 50.496 80.9094C47.9779 80.0205 45.611 79.018 42.8474 78.8667C39.6432 78.6964 40.6378 75.834 40.3293 73.8606C40.0209 71.8872 41.5506 72.2781 42.6459 72.1709Z" fill="#F9D96F"/>
<path d="M34.7497 9.39941C34.823 9.5657 34.8608 9.74548 34.8607 9.92724C34.8606 10.109 34.8226 10.2887 34.7491 10.4549C34.6756 10.6211 34.5683 10.7701 34.434 10.8924C34.2997 11.0146 34.1413 11.1074 33.9691 11.1648C28.6309 13.6867 24.4068 17.6399 20.3654 21.8452C19.1441 23.1062 17.9732 24.3672 18.1243 26.4162L15.9902 25.5273C20.8187 18.6831 27.2635 13.1424 34.7497 9.39941Z" fill="#F9D96F"/>
<path d="M50.4514 26.7946C50.1931 26.4737 50.0466 26.077 50.0341 25.665C50.0216 25.2531 50.1438 24.8482 50.3821 24.5122C52.4532 22.3686 54.1592 19.916 56.5325 18.0182C58.1062 16.7572 59.1701 14.8658 61.4301 14.5568C62.1918 14.2101 62.9535 13.8696 63.7971 14.3047C58.5469 17.5832 54.3418 22.0533 50.4514 26.7946Z" fill="#F9D96F"/>
<path d="M63.7967 14.3045C62.9531 13.8695 62.1914 14.2099 61.4297 14.5567C61.7067 12.6211 64.8416 9.28582 67.0072 9.12189C68.8202 8.98949 70.7842 8.40944 72.5343 9.60105C72.4084 9.84064 72.3014 10.2757 72.1566 10.282C69.3804 10.5027 67.4415 12.558 64.999 13.4912C64.4262 13.4912 63.8722 13.4912 63.74 14.2603L63.7967 14.3045Z" fill="#EDCE3D"/>
<path d="M84.6718 102.012C83.759 103.178 82.4433 103.065 81.1591 103.178C76.7525 103.569 72.4026 102.768 68.0779 102.018C67.9457 100.688 66.4034 100.757 65.8809 99.8112C65.8809 98.8591 65.8809 97.9197 65.8809 96.9551C69.5006 103.216 75.4935 102.699 81.3983 102.384C82.4685 102.302 83.5828 102.125 84.6718 102.012Z" fill="#F9D96F"/>
<path d="M43.8854 38.5088H45.0562C43.6717 44.8015 43.6331 51.3164 44.9429 57.6251L44.8107 57.7512L43.8035 57.6882C43.7406 56.9757 43.6776 56.2696 43.6209 55.5571C42.8089 50.7276 43.2999 45.8981 43.6524 41.056C43.728 40.23 43.8098 39.3663 43.8854 38.5088Z" fill="#F9D96F"/>
<path d="M42.4375 124.192L43.7721 124.066C47.8388 123.94 51.7228 125.749 55.8273 125.239L61.3607 125.327C55.0547 126.496 48.5592 126.106 42.4375 124.192Z" fill="#E8D896"/>
<path d="M55.8281 94.2256L55.9792 93.1475H56.1366C56.8731 93.1475 57.6726 93.3618 58.0251 92.4161L57.9244 92.5043L58.6483 92.0882L58.7805 92.0504C59.6835 92.1407 60.5901 91.9182 61.349 91.4199C62.2114 90.9092 63.2375 90.512 63.6089 92.0945C62.7465 92.5107 61.8274 92.2774 61.0908 93.6077C59.9892 95.7135 57.6852 94.503 55.8281 94.2256Z" fill="#EDCE3D"/>
<path d="M65.8806 96.9362C65.8806 97.8883 65.8806 98.8277 65.8806 99.7923C62.1035 98.5314 62.733 95.877 63.7276 93.084C64.8481 93.2983 64.7097 94.1999 64.7789 94.9754C64.8356 95.6059 64.8167 96.2995 65.7421 96.2932L65.8806 96.9362Z" fill="#EDCE3D"/>
<path d="M52.6286 65.6459C50.9541 65.8855 49.5251 65.2613 48.1716 64.3849C48.0429 63.8476 47.7693 63.3559 47.3808 62.9635C46.9923 62.571 46.5038 62.2929 45.9683 62.1593C45.9683 61.4343 45.9683 60.7092 45.918 59.9905L46.0439 59.877C47.8443 62.2791 50.4756 63.6662 52.6286 65.6459Z" fill="#F9D96F"/>
<path d="M44.2641 5.59082L43.6913 6.65634C41.7335 6.90854 40.1975 8.1506 38.4285 8.82522C37.5346 9.16568 36.433 8.97023 35.4258 9.02067C38.1286 7.32733 41.1278 6.16343 44.2641 5.59082Z" fill="#F9D96F"/>
<path d="M65.7282 96.3118C64.8028 96.3118 64.8217 95.6245 64.7651 94.9941C64.6958 94.1996 64.8343 93.298 63.7138 93.1026L63.6194 92.1001C63.2794 90.5176 62.2218 90.9148 61.3594 91.4255C60.6005 91.9238 59.694 92.1463 58.791 92.056C59.3198 91.7155 59.836 91.3372 60.3837 91.0409C63.0654 89.5719 64.6455 90.3158 65.2561 93.3548C65.4701 94.3257 65.5771 95.3219 65.7282 96.3118Z" fill="#E8D896"/>
<path d="M74.7447 9.01504C75.3743 6.94074 73.1017 6.68854 72.4785 5.40234L78.8807 7.5523C77.4328 8.49803 76.2241 9.12852 74.7447 9.01504Z" fill="#E8D896"/>
<path d="M92.3953 99.8555C92.3953 100.19 92.3386 100.53 92.3072 100.864C91.0264 101.704 89.5188 102.129 87.9887 102.081L84.8789 101.999L92.3953 99.8555Z" fill="#F9D96F"/>
<path d="M54.8385 67.6567C54.7042 68.8546 54.5699 70.0525 54.4356 71.2505C53.6424 69.5166 52.1819 68.0224 52.7485 65.9229C53.699 65.9229 54.0705 66.8181 54.7818 67.1838C54.7821 67.3431 54.8011 67.5018 54.8385 67.6567Z" fill="#F8D121"/>
<path d="M52.5036 3.71289C49.9037 5.05583 47.2031 5.98264 44.2129 5.63588C46.8191 4.33077 49.6897 4.13532 52.5036 3.71289Z" fill="#F9D96F"/>
<path d="M17.2139 106.456C17.2139 107.087 17.2139 107.717 17.1635 108.386C15.552 107.074 14.5636 105.315 13.6445 103.506C15.0358 103.008 15.6716 103.833 15.9863 104.962C16.1941 105.687 16.2759 106.387 17.2139 106.456Z" fill="#F9D96F"/>
<path d="M55.877 73.8792C56.2421 71.8239 57.6522 69.8693 56.4624 67.6689C58.2628 70.0396 58.1054 71.723 55.877 73.8792Z" fill="#E8D896"/>
<path d="M48.1855 30.7169C48.2548 29.0083 48.1856 27.2114 50.4518 26.7764C50.0678 28.3084 49.0102 29.4433 48.1855 30.7169Z" fill="#F9D96F"/>
<path d="M35.8848 122.023C37.0745 122.25 38.7617 121.071 39.2842 123.215C38.068 123.115 36.8977 122.705 35.8848 122.023Z" fill="#E8D896"/>
<path d="M44.9231 38.4459C44.8917 37.1849 44.4006 35.7789 46.0374 35.0791C46.0514 36.2944 45.6592 37.4796 44.9231 38.4459Z" fill="#F9D96F"/>
<path d="M44.9428 57.6445C45.3142 58.3822 45.6793 59.1199 46.0507 59.8638L45.9248 59.9773C44.6658 59.6999 44.8294 58.7163 44.8105 57.7706L44.9428 57.6445Z" fill="#F9D96F"/>
<path d="M39.2266 123.145C40.1394 123.07 41.1655 122.71 41.4991 124.066C40.7185 123.807 39.7994 123.908 39.2266 123.145Z" fill="#E8D896"/>
<path d="M46.0197 35.1044C45.9442 34.4297 45.7868 33.7173 46.7374 33.5029C46.6429 34.1019 46.6807 34.7576 46.0197 35.1044Z" fill="#F9D96F"/>
<path d="M16.0354 25.5469C16.1362 26.3602 15.7774 26.7511 14.959 26.7259C15.0128 26.4492 15.1417 26.1927 15.3316 25.9847C15.5215 25.7767 15.7651 25.6252 16.0354 25.5469Z" fill="#F9D96F"/>
<path d="M58.037 92.415C57.6719 93.3608 56.8724 93.1653 56.1484 93.1464C56.6206 92.5222 57.376 92.5916 58.037 92.415Z" fill="#F9D96F"/>
<path d="M54.8398 67.6561C54.802 67.4992 54.783 67.3384 54.7832 67.177C55.4127 67.1265 56.1241 66.8491 56.4955 67.6877L54.8398 67.6561Z" fill="#E8D896"/>
<path d="M63.7715 14.2604C63.8722 13.5038 64.401 13.4912 65.0305 13.4912C64.8958 13.7095 64.7115 13.8929 64.4928 14.0265C64.274 14.1602 64.0269 14.2403 63.7715 14.2604Z" fill="#F9D96F"/>
<path d="M50.8738 81.4265L50.4395 80.8906L50.8738 81.4265Z" fill="#F9D96F"/>
<path d="M46.5859 33.5096L47.2155 32.835C47.0895 33.1502 47.0833 33.5537 46.5859 33.5096Z" fill="#F9D96F"/>
<path d="M35.4624 9.00879L34.8329 9.55101C34.7825 9.06553 35.1413 9.06553 35.4624 9.00879Z" fill="#F9D96F"/>
<path d="M58.6595 92.0878L57.9355 92.5039C58.0363 92.1193 58.3384 92.0751 58.6595 92.0878Z" fill="#F9D96F"/>
<path d="M25.8126 97.5604C24.6354 97.5604 23.4834 97.2325 22.2685 97.4784C21.1794 97.6991 20.9465 97.0055 20.3799 95.9715C18.888 93.3361 17.1883 90.7826 15.5641 88.2103C15.2536 87.7963 15.0777 87.2966 15.0605 86.7791C15.2872 83.3051 16.0615 79.8437 19.1083 77.8829C23.4142 75.1466 27.8711 74.1 32.6177 77.7316C34.4558 79.1313 35.5512 81.193 37.5593 82.3089C37.6789 82.3783 37.7167 82.6431 37.7419 82.8196C38.1511 85.2785 37.4335 87.7374 37.3076 90.1522C37.1654 91.4149 36.6317 92.6013 35.7814 93.5445C34.9312 94.4877 33.8071 95.1403 32.5673 95.4104C32.2463 95.4798 31.7049 95.7824 31.7175 95.94C31.8874 98.1719 30.2507 97.491 29.1365 97.5541C28.0222 97.6171 26.9395 97.5667 25.8126 97.5604ZM36.0108 86.6277C36.0108 81.193 32.0259 76.8867 26.9206 76.8804C24.4136 76.927 22.0195 77.9328 20.2296 79.6914C18.4397 81.4501 17.3898 83.8282 17.2953 86.3377C17.1631 91.6149 21.5823 96.312 26.6625 96.2742C29.1734 96.2132 31.5605 95.169 33.3117 93.3656C35.0629 91.5622 36.0386 89.1433 36.0296 86.6277H36.0108Z" fill="#F9D96F"/>
<path d="M35.287 57.0897L36.546 57.2221L38.038 58.9055C38.3968 59.7314 39.788 60.5006 38.743 61.4274C37.9121 62.1588 37.1189 60.9924 36.4201 60.4943C33.2222 58.2183 29.8984 56.9131 26.0394 58.8046C24.0628 59.2901 22.7534 60.6961 21.5258 62.1777C20.9928 63.2411 20.4599 64.3066 19.9269 65.3743C19.0204 65.2293 18.7119 65.9669 18.2587 66.4965C17.4844 67.417 17.0437 69.3779 15.8476 69.0185C13.9591 68.4447 15.9546 66.6794 15.4573 65.4941C15.6588 65.2923 15.8539 65.0842 16.0554 64.8636C16.8423 64.9708 17.0437 64.4159 17.2262 63.8359C22.8919 56.4592 27.2985 54.6686 34.8526 56.724L34.8149 56.642L35.287 57.0897Z" fill="#2B120D"/>
<path d="M34.8195 56.7302C27.2968 54.6749 22.8587 56.4654 17.1931 63.8421C17.1239 61.8435 16.9979 60.2547 19.5286 59.0631C21.8326 57.9786 23.526 55.671 26.214 54.7757C29.1476 53.83 33.2268 54.5172 34.8195 56.7302Z" fill="#F9D96F"/>
<path d="M43.6534 41.0875C43.3009 45.917 42.8099 50.7466 43.6219 55.5887C41.9097 55.5887 40.7514 54.3277 38.9824 53.6531C41.8593 53.754 41.5445 51.9382 41.5319 50.2926C41.5319 47.9977 41.6075 45.709 41.5319 43.4203C41.4375 41.8 41.96 40.9677 43.6534 41.0875Z" fill="#EDCE3D"/>
<path d="M26.0449 58.7922C29.9038 56.9007 33.2277 58.2058 36.4256 60.4819C37.1244 60.98 37.9175 62.1464 38.7485 61.415C39.7935 60.5008 38.4023 59.7316 38.0434 58.8931H39.3025C39.3654 59.9144 41.2225 60.753 39.9824 61.7555C39.4273 62.1861 38.7382 62.4064 38.0368 62.3776C37.3353 62.3487 36.6665 62.0726 36.1486 61.5978C34.7511 60.3873 33.4921 59.5109 31.742 60.9674C31.4535 61.1933 31.0884 61.298 30.7242 61.2591C30.36 61.2203 30.0251 61.041 29.7905 60.7593C29.6646 59.6496 31.2258 60.3873 31.1377 59.3533C29.2806 57.6951 27.8139 60.5008 26.0575 59.8199L26.0449 58.7922Z" fill="#F9D96F"/>
<path d="M3.96806 51.6869L5.00677 51.1006C5.00677 54.7385 5.00675 58.3764 5.05082 62.0143C5.07395 62.899 4.8915 63.777 4.51788 64.579C4.14426 65.381 3.58969 66.0851 2.89789 66.6358C2.03546 61.554 4.56609 56.7308 3.96806 51.6869Z" fill="#EDCE3D"/>
<path d="M93.4843 106.438C92.0302 109.281 89.5247 111.191 87.0381 112.9C85.8924 113.694 85.1496 115.151 83.5506 115.334C83.5127 114.413 83.5254 113.491 83.5884 112.572C83.7269 111.412 84.3249 110.416 85.5587 111.343C86.7926 112.269 87.227 111.551 87.8691 110.655C89.2918 108.676 90.5949 106.482 93.4843 106.438Z" fill="#EDCE3D"/>
<path d="M3.91708 76.5899C2.3496 73.759 2.90986 70.6822 2.90986 67.6748C5.46568 68.7655 5.579 70.8903 4.62844 72.9079C4.0304 74.1751 4.04299 75.3478 3.91708 76.5899Z" fill="#EDCE3D"/>
<path d="M15.4632 65.4817C15.9605 66.667 13.9397 68.4324 15.8535 69.0061C17.0495 69.3655 17.4902 67.4047 18.2645 66.4842C18.7178 65.9546 19.0262 65.2232 19.9327 65.3619C19.5144 66.7483 18.772 68.0149 17.7672 69.0565C17.4766 69.4722 17.0471 69.7699 16.5564 69.896C16.0657 70.022 15.5462 69.968 15.0918 69.7438C14.1727 69.3151 13.9964 68.3945 13.9209 67.4488C13.8516 66.2887 14.0908 65.4628 15.4632 65.4817Z" fill="#F9D96F"/>
<path d="M44.811 57.771C44.811 58.6852 44.6474 59.7003 45.9253 59.9777C45.9253 60.6964 45.9253 61.4215 45.9757 62.1465C42.9036 62.2853 43.1554 59.0635 41.5312 57.7331L43.8101 57.6953L44.811 57.771Z" fill="#EDCE3D"/>
<path d="M39.2783 58.8989H38.0193L36.5273 57.2155C38.2333 56.9129 40.04 55.6709 41.5005 57.7389C40.6066 57.7893 39.4986 57.4804 39.2783 58.8989Z" fill="#EDCE3D"/>
<path d="M26.0449 58.792L26.0071 59.8134C24.3829 60.3493 23.6149 62.5182 21.5312 62.1651C22.7588 60.6645 24.0682 59.2522 26.0449 58.792Z" fill="#E8D896"/>
<path d="M4.99507 81.6089C3.16948 80.6821 4.20818 78.9923 3.95008 77.6494C5.92046 78.5384 4.72438 80.2659 4.99507 81.6089Z" fill="#EDCE3D"/>
<path d="M45.9563 62.1465C46.4917 62.2801 46.9803 62.5582 47.3688 62.9506C47.7573 63.3431 48.0308 63.8347 48.1596 64.3721C46.4536 64.6054 45.7234 63.8614 45.9563 62.1465Z" fill="#EDCE3D"/>
<path d="M5.03906 51.0561C5.10201 50.1672 4.84391 49.1205 6.12183 48.8242C6.17529 49.5336 6.17529 50.2459 6.12183 50.9553C5.93297 52.3991 5.40418 51.1318 5.03906 51.0561Z" fill="#EDCE3D"/>
<path d="M65.8811 99.8115C66.4036 100.757 67.9459 100.688 68.0781 102.018C66.391 102.233 65.6293 101.533 65.8811 99.8115Z" fill="#EDCE3D"/>
<path d="M17.2314 63.8353C17.0489 64.4153 16.8474 64.9702 16.0605 64.863C16.0668 64.7174 16.1024 64.5745 16.1653 64.4431C16.2282 64.3117 16.3171 64.1944 16.4265 64.0984C16.536 64.0023 16.6637 63.9295 16.8021 63.8842C16.9404 63.839 17.0865 63.8224 17.2314 63.8353Z" fill="#F9D96F"/>
<path d="M35.2868 57.0894L34.7832 56.667L35.2868 57.0894Z" fill="#F9D96F"/>
<path d="M2.77779 57.6631L2.98552 57.8081L2.77148 57.6757L2.77779 57.6631Z" fill="#EDCE3D"/>
<path d="M51.4707 73.2482L52.0121 72.8447C52.182 73.4752 51.6344 73.0906 51.4707 73.2482Z" fill="#F8D121"/>
<path d="M36.0289 86.6276C36.033 89.1367 35.0577 91.548 33.3111 93.3468C31.5645 95.1456 29.185 96.1893 26.6806 96.2551C21.6004 96.2929 17.1812 91.5958 17.3134 86.3186C17.4079 83.8091 18.4578 81.431 20.2477 79.6723C22.0376 77.9137 24.4317 76.9079 26.9387 76.8613C32.0441 76.9055 36.0603 81.1928 36.0289 86.6276ZM30.6214 80.266L29.9918 79.8372C29.3236 79.3601 28.559 79.0356 27.752 78.8863C26.945 78.7371 26.1151 78.7668 25.3209 78.9735C20.5554 80.039 16.728 87.34 21.7704 92.075C25.4279 95.2274 29.5827 94.9185 32.3462 91.3499C33.0025 90.5273 33.4835 89.5787 33.7594 88.5626C34.0354 87.5465 34.1005 86.4846 33.9506 85.4424C33.8008 84.4001 33.4392 83.3997 32.8882 82.5029C32.3373 81.6061 31.6086 80.8319 30.7473 80.2281L30.6214 80.266Z" fill="#2B120D"/>
<path d="M21.7635 92.0751C16.7274 87.3401 20.5485 80.0391 25.3139 78.9736C26.1082 78.7669 26.9381 78.7372 27.7451 78.8865C28.5521 79.0357 29.3167 79.3603 29.9849 79.8373L30.6145 80.2661L30.7341 80.2282C30.4822 80.7771 30.4178 81.3938 30.5509 81.983C30.6841 82.5722 31.0073 83.1011 31.4706 83.4879C33.7179 85.745 32.6541 88.0274 31.4706 90.1899C30.4193 92.0814 28.9525 93.2982 26.4345 93.2793C24.6718 93.2604 23.4632 91.8229 21.7635 92.0751Z" fill="#EA604D"/>
<path d="M21.7637 92.0754C23.4634 91.8232 24.672 93.2607 26.4221 93.2796C28.9401 93.2796 30.4006 92.0754 31.4582 90.1902C32.6668 88.0276 33.7307 85.7453 31.4582 83.4881C30.9949 83.1014 30.6716 82.5725 30.5385 81.9833C30.4054 81.3941 30.4697 80.7774 30.7216 80.2285C31.583 80.8323 32.3117 81.6065 32.8626 82.5033C33.4136 83.4001 33.7752 84.4005 33.925 85.4427C34.0748 86.485 34.0098 87.5469 33.7338 88.563C33.4579 89.5791 32.9769 90.5277 32.3206 91.3503C29.5885 94.9189 25.4211 95.19 21.7637 92.0754Z" fill="#CC8153"/>
<path d="M30.6217 80.2656L29.9922 79.8369L30.6217 80.2656Z" fill="#CC8153"/>
</svg>
