<svg width="189" height="101" viewBox="0 0 189 101" fill="none" xmlns="http://www.w3.org/2000/svg">
<path d="M72.3367 12.0027C79.9736 5.19061 88.9697 1.58254 99.0716 0.393322C108.863 -0.761263 118.273 0.526099 126.786 5.58895C140.309 13.6306 148.976 25.2573 150.848 41.2079C151.28 44.8795 153.336 46.2419 156.141 47.5581C165.27 51.9109 173.914 57.043 181.321 64.0571C183.872 66.3882 185.997 69.1489 187.599 72.2143C190.259 77.4965 189.085 82.6979 184.471 86.4041C179.858 90.1103 174.531 91.5997 169.002 92.6389C157.621 94.8383 146.137 94.7229 134.647 93.7934C130.011 93.424 125.783 93.8396 121.36 96.0333C100.212 106.5 75.608 99.9705 62.1254 80.7178C61.1675 79.3484 59.7907 78.329 58.2033 77.814C43.1195 72.3701 28.3813 66.1585 15.1463 56.8871C9.65768 53.0482 4.70465 48.6492 1.58884 42.5241C-1.42906 36.6011 -0.138967 31.3593 5.38425 27.6127C11.397 23.5254 18.3082 22.2207 25.3001 21.2105C37.3256 19.4786 49.3454 20.6967 61.3651 21.3028V23.1906L60.34 23.3407C50.048 22.4863 39.7503 21.6665 29.4295 22.7345C22.766 23.4273 16.1197 24.3625 9.95718 27.2259C6.67435 28.7557 3.70827 30.7647 2.3721 34.4189C1.19144 38.3445 3.08051 41.4619 5.02717 44.5619C5.51072 45.7141 6.36675 46.6697 7.45762 47.2752L7.52097 47.2175C7.81469 48.4471 8.83986 49.0013 9.77287 49.6479L11.8635 51.0969C13.8512 53.881 16.6466 55.9835 19.869 57.1181C24.3151 60.5998 29.2837 63.353 34.5899 65.2752C38.1838 68.1155 42.3938 69.6338 46.6846 70.9615H46.6442C46.8861 71.637 47.5657 71.6196 48.0726 71.8275C59.1691 76.316 70.5541 80.0518 82.1506 83.0096C102.308 88.2053 122.679 91.8076 143.528 92.3098C153.555 92.5465 163.542 92.2117 173.292 89.5792C176.806 88.6325 180.388 87.6511 182.945 84.7184L183.106 84.8108C187.616 81.4105 188.29 76.5093 184.834 71.839H184.886C184.538 70.6349 183.808 69.5771 182.807 68.8255V68.8544C182.76 68.5991 182.65 68.3597 182.487 68.158C182.324 67.9563 182.113 67.7988 181.874 67.6998V67.7922C181.874 67.3939 181.557 67.3592 181.269 67.2957L181.309 67.3304C181.425 66.3952 180.503 66.0372 180.065 65.6504C177.618 63.4914 175.55 60.7839 172.256 59.7563L169.906 57.678C168.641 56.5867 167.22 55.6916 165.69 55.0225L161.497 53.0251C161.497 52.7595 161.468 52.4882 161.083 52.5286H161.134C159.407 51.1489 157.431 50.3406 155.473 49.4401L154.425 48.7993C152.622 47.6447 151.631 47.6447 151.545 50.3003C151.487 51.8128 152.058 53.1867 151.873 54.6761C150.986 54.6761 150.347 54.3701 150.451 53.383C150.595 52.0263 149.679 51.4664 148.752 50.8718C149.109 50.1271 149.598 49.4516 149.587 48.5626C149.531 41.3818 147.982 34.2917 145.037 27.7454C139.854 32.0405 136.577 31.8384 133.271 27.1046L132.96 26.181C132.574 25.4247 132.862 24.3856 131.958 23.7737L130.08 25.6325H130.132C129.917 25.6158 129.703 25.6723 129.524 25.7928C129.345 25.9133 129.212 26.0907 129.147 26.2964C124.902 29.9622 120.744 29.1829 117.761 24.1547L116.816 18.8493C106.38 24.6223 103.956 24.6569 99.8491 19.0803L99.5439 18.0065C99.4517 16.4189 99.3596 14.8372 99.2617 13.2092L94.0495 15.1258H93.8536L90.2541 14.97H90.3577C90.0064 14.3927 89.4017 14.5774 88.9006 14.4562L88.2037 14.1156L86.2283 12.9956V13.0245L83.8439 10.3401C82.3695 7.25732 82.3695 7.25732 79.9909 8.99498C78.3305 9.73783 76.8062 10.7545 75.4813 12.0027L73.5807 13.1284C73.5326 12.8267 73.383 12.5505 73.1567 12.3457C72.9304 12.1409 72.6411 12.0199 72.3367 12.0027ZM77.0767 84.0199H77.1112C76.0616 83.3093 74.8114 82.957 73.5462 83.0154V83.0154C70.7529 81.6472 67.6716 81.3297 64.0663 80.2444C66.0417 82.5016 67.1072 84.6145 69.2842 85.7229L69.3822 85.6479C69.2785 86.1039 69.434 86.3002 69.912 86.1847L69.8429 86.306C71.3255 88.5597 73.4713 90.2948 75.9824 91.2707H75.9421C76.2986 91.7913 76.7592 92.232 77.2945 92.5649C77.8299 92.8978 78.4284 93.1156 79.0521 93.2046V93.2046C79.2595 93.8685 79.9045 93.9493 80.4056 94.2033C88.2786 98.2444 96.693 99.4625 105.378 98.6831C111.42 98.153 117.273 96.3006 122.524 93.2566L117.594 92.4426C111.42 91.2187 105.246 90.0237 98.9507 89.5908C98.8886 89.3477 98.7538 89.1294 98.5644 88.9653C98.3749 88.8012 98.1399 88.6992 97.891 88.6729L81.5517 85.059L81.3213 85.0244C80.015 84.3304 78.5549 83.9789 77.0767 84.0026V84.0199ZM139.986 28.3804C140.493 28.3458 141.057 28.4786 141.345 27.8667C142.975 26.5908 144.928 25.3843 142.37 23.1848C141.795 22.3882 141.178 21.6146 140.643 20.7833C136.329 14.0809 130.426 9.23743 123.232 5.95263C121.427 4.9903 119.484 4.31452 117.473 3.94943H117.277C108.94 1.35432 100.014 1.35432 91.6766 3.94943C89.6954 4.05911 87.9849 5.06939 86.1995 5.75059C84.7135 6.32789 84.4083 7.55174 85.3125 9.04693C87.167 12.1008 91.9473 13.7634 95.5469 12.476C97.5294 11.7512 99.3229 10.5869 100.794 9.07003C101.266 8.59665 102.026 8.18677 102.579 8.61974C102.884 8.8622 102.856 9.74544 102.729 10.2823C102.481 11.333 102.061 12.349 101.709 13.3766C100.834 15.9571 101.312 18.2721 103.408 20.0039C105.505 21.7358 107.705 21.7358 109.968 20.3503C112.451 19.4266 114.34 17.5562 116.551 16.2111C118.089 15.2701 118.913 15.732 119.108 17.4638C119.172 18.0411 119.143 18.6184 119.16 19.2246C119.224 21.8686 119.235 24.7031 122.04 25.9847C124.994 27.3471 127.097 25.3323 129.101 23.4792C129.152 23.4136 129.194 23.3419 129.228 23.2656C129.867 22.7403 130.541 22.2554 131.14 21.6954C132.182 20.714 133.155 20.639 134.117 21.7705C134.274 22.917 134.493 24.054 134.774 25.1765C135.551 27.7281 137.584 28.9346 139.986 28.3804Z" fill="#2B120D"/>
<path d="M148.733 50.8601C149.661 51.4374 150.576 52.0147 150.432 53.3713C150.329 54.3585 150.968 54.6818 151.855 54.6645C151.914 54.8061 151.951 54.956 151.964 55.109C151.522 55.8539 151.337 56.7247 151.44 57.5856C150.991 57.7819 150.991 58.2091 150.864 58.6132C149.027 65.0327 146.833 71.3136 143.228 76.9884C142.11 77.0519 141.097 76.9076 140.619 75.6895C141.701 75.1958 142.582 74.3438 143.112 73.2764C145.457 69.075 147.191 64.5591 148.261 59.8659C148.745 57.7703 149.448 55.5939 148.941 53.2328C141.246 58.2957 135.061 56.4195 132.452 48.424C130.908 49.0648 129.382 49.7748 127.798 50.3233C126.214 50.8717 124.585 51.3104 122.955 51.703C119.084 52.6382 115.732 51.0449 113.849 47.5638C112.438 44.9487 112.121 42.1661 112.444 38.9852C109.91 40.0186 107.652 41.0288 105.325 41.8717C98.4774 44.331 91.5028 40.7171 89.8038 33.6049C89.2854 31.4573 88.6519 31.8268 87.1775 32.5831C82.9329 34.7479 78.7977 34.4477 74.7488 31.821C70.7 29.1943 68.2235 25.4016 66.6857 20.5234C62.1071 26.1867 59.3138 32.3752 57.1483 38.9968C55.8236 43.0378 57.0734 46.1956 59.0488 49.4342C59.4866 50.1443 60.362 50.5311 60.4829 51.4605C58.8818 51.2642 58.2541 50.0462 57.5572 48.8165C56.5435 47.0212 56.0079 44.8909 54.1016 43.6844C54.4456 40.4391 55.2948 37.2678 56.6184 34.2861C57.7184 33.2181 57.2462 31.4631 58.3116 30.3778C59.1161 29.5548 59.635 28.4942 59.7918 27.3528C61.0416 26.2386 61.7212 24.9108 61.3468 23.1847V21.297C62.8846 21.349 63.9443 20.6331 64.9695 19.4843C67.2732 16.8749 69.4387 14.0635 72.3126 11.9795C72.6253 11.9928 72.9234 12.1156 73.1549 12.3266C73.3865 12.5376 73.5368 12.8234 73.5797 13.1341V13.1341C73.165 13.1687 72.7331 13.186 72.9289 13.8153C72.9217 13.8665 72.8947 13.9127 72.8538 13.944C72.8128 13.9754 72.7611 13.9893 72.71 13.9827C72.1341 13.6075 71.5582 13.6363 71.2644 14.2829C71.0283 14.7909 71.466 14.9872 71.8922 15.0911C71.6849 16.4997 69.9167 16.3034 69.4617 17.4638C67.6015 18.9359 69.0471 20.4368 69.4214 21.9262C70.821 26.787 74.219 29.6389 78.7919 31.313C81.6716 32.4676 84.3266 31.9942 86.855 30.3547L88.8362 28.34L89.9478 28.2996L90.6907 28.4554L90.564 28.4035C91.7562 29.3849 91.4855 30.805 91.6352 32.0866C92.0614 35.8217 94.8317 39.2046 98.126 39.9782C98.7941 40.694 99.6984 40.4516 100.505 40.5093C104.329 40.7922 107.416 38.9044 110.578 37.1148C111.62 36.5375 112.784 35.2848 113.987 36.2142C114.995 36.9936 114.88 38.4195 114.615 39.7299C114.431 40.813 114.396 41.9164 114.511 43.009C114.868 47.4945 117.748 49.9365 122.269 49.7286C125.477 49.5728 128.207 48.1065 130.96 46.6517C133.488 45.3181 134.013 45.5779 134.738 48.3836C136.028 53.3541 140.233 55.3111 144.869 53.0308C145.842 52.5574 146.787 52.0263 147.749 51.5183C148.227 51.5183 148.641 51.4663 148.716 50.8832L148.733 50.8601Z" fill="#15110E"/>
<path d="M11.8809 51.1195L9.79029 49.6705C9.78013 49.0532 9.54291 48.4613 9.12412 48.0085C8.70534 47.5557 8.13449 47.2739 7.52111 47.217L7.452 47.2459C8.1028 45.5833 6.76088 45.1042 5.78179 44.4114C6.09855 43.1933 5.71843 42.1888 5.03306 41.1612C4.1922 39.897 3.73721 38.3845 4.83725 37.1202C6.09279 35.6827 6.01791 34.5281 4.69326 33.3043C7.19282 30.7238 9.55993 28.2992 13.2517 26.9541C19.8116 24.5987 26.5846 23.8771 33.346 23.3229C40.0211 22.7802 46.7768 23.2363 53.5038 23.2479C55.9515 23.2479 58.0249 23.9983 59.361 26.2094V26.2382C59.0846 26.4056 58.6181 26.5269 58.5662 26.7463C58.0249 29.0554 56.4698 29.2748 54.3965 29.3671C50.7681 29.523 47.3009 28.4608 43.7474 28.3453C37.4121 28.1491 31.0423 28.1606 24.6955 29.1132C21.8158 29.5461 19.0744 29.5634 16.4654 31.2953C14.2653 32.7501 11.5527 33.4255 10.205 36.1042L11.9616 35.8559C11.783 36.566 11.3856 37.3049 11.4663 37.9861C11.639 39.5448 10.971 41.4499 12.9234 42.4197H12.8716C13.0271 46.1548 18.1702 51.2292 22.1729 51.5929C27.7883 54.7103 32.8911 58.7744 39.1342 60.7314C39.042 62.0477 39.474 62.9021 40.9714 62.6942C42.8778 62.4287 44.3464 63.6237 45.959 64.2472C50.1633 65.8751 54.3101 67.6185 58.906 67.7802H58.8715C61.2386 70.1933 64.5329 70.0374 67.4702 70.886C67.6234 71.5476 68.0263 72.1241 68.5943 72.4944C69.1624 72.8646 69.8514 72.9999 70.5169 72.8719V72.8719C70.609 73.7609 71.2656 73.7667 71.9567 73.9168C76.3454 74.8809 80.5958 76.5955 85.2493 75.8738C85.5005 75.8251 85.7606 75.8574 85.9923 75.9662C88.7971 77.5768 91.8495 76.7975 94.8098 76.9072H95.8005C97.223 79.3376 98.2712 79.6031 99.832 77.929C101.393 77.6519 102.769 78.8931 104.105 78.8122C108.471 78.5409 112.589 80.3536 116.914 80.0765C116.914 80.3709 116.022 80.775 116.845 80.9194C117.919 81.0273 119 81.0427 120.076 80.9656H120.548C120.652 81.1965 120.727 81.6121 120.854 81.6294C124.367 82.0393 127.431 84.3081 131.134 84.0194C134.058 83.767 136.996 83.6957 139.929 83.8058C147.416 84.1637 154.903 83.8058 162.39 83.9848C162.872 84.0189 163.356 84.0053 163.836 83.9444C164.072 81.3696 166.525 82.1605 167.867 81.4043C169.209 80.648 171.357 79.8745 172.55 80.4229C174.56 81.3408 175.112 80.0765 175.677 79.0778C177.842 75.2388 176.979 69.7257 173.892 66.4871C173.571 66.2131 173.285 65.901 173.039 65.5576C172.411 64.4492 172.711 63.7853 174.041 63.7449C175.078 63.7045 176.27 64.3742 176.345 65.015C176.541 67.3241 178.649 68.0457 179.559 69.5351C180.906 71.8039 182.79 72.8026 184.852 73.8648C185.065 75.5101 184.322 77.2882 185.289 78.8007C186.257 80.3132 185.399 81.3754 184.235 81.8026C182.508 82.4492 182.663 83.4595 183.147 84.7468L182.98 84.6544C180.561 85.6762 177.935 86.1496 175.665 87.5929C174.628 88.2879 173.466 88.776 172.244 89.0303C167.533 89.8501 162.839 90.8084 158.059 91.2529C156.291 91.4146 154.603 90.8546 152.824 91.2529C148.919 92.1015 144.91 91.8822 141.017 91.4607C137.907 91.1201 134.814 91.1432 131.722 91.0566C128.629 90.97 125.933 88.2741 122.674 90.0059C122.47 90.0596 122.257 90.0704 122.049 90.0376C121.841 90.0048 121.642 89.9291 121.464 89.8154C119.316 88.5973 116.764 88.5569 114.553 88.3029C109.859 87.766 105.263 86.8193 100.615 86.2016C95.1842 85.48 90.1333 83.2401 84.6446 82.8013C83.2566 82.6917 81.189 82.4954 80.2848 81.3639C79.0177 79.759 77.5836 80.0419 76.0516 80.0015C74.8001 80.0316 73.5567 79.7914 72.406 79.2972C70.3335 78.3055 68.1641 77.5316 65.9325 76.988C61.1629 75.9743 56.5454 74.3422 52.1964 72.133C50.388 71.1747 48.6889 70.6032 46.6962 70.8918H46.6847C46.535 68.2478 43.2752 69.2234 42.5092 67.2953C39.7562 67.9014 37.8441 65.8982 35.5979 64.9861C35.1142 64.7898 34.7744 64.3049 34.5958 65.1939C29.2992 63.2766 24.3385 60.5313 19.8979 57.0599C19.1895 54.9297 16.8109 52.5743 15.0486 52.3088C14.6857 52.251 14.3863 52.1991 14.2941 51.818C13.9082 50.3055 12.7852 51.0618 11.8809 51.1195Z" fill="#F8D121"/>
<path d="M123.221 5.9527C130.415 9.26058 136.318 14.081 140.632 20.7833C141.167 21.6146 141.783 22.3882 142.359 23.1849C142.02 24.7493 141.674 26.308 141.334 27.8667C141.046 28.4787 140.482 28.3459 139.975 28.3805C137.948 26.5389 135.12 25.3728 134.751 22.1284C134.751 21.9899 134.337 21.8918 134.112 21.7705C133.15 20.6159 132.177 20.7141 131.134 21.6955C130.558 22.2728 129.862 22.7404 129.222 23.2657C127.771 22.4286 127.034 23.843 126.187 24.4203C124.235 25.7712 122.732 25.4941 121.119 23.843C119.391 22.1111 120.146 20.0329 120.094 18.1105C120.036 15.8013 118.994 14.9181 116.794 15.1086C115.429 15.224 110.729 18.7801 109.969 20.3042C107.705 21.6666 105.425 21.6204 103.409 19.9578C101.393 18.2952 100.834 15.9168 101.71 13.3305C102.061 12.3029 102.482 11.2869 102.729 10.2362C102.856 9.69933 102.885 8.81607 102.58 8.57361C102.004 8.14064 101.266 8.57361 100.794 9.0239C99.3234 10.5408 97.5299 11.7051 95.5474 12.4299C91.9478 13.7173 87.1675 12.0547 85.313 9.0008C84.4088 7.50561 84.7371 6.27599 86.2 5.70447C87.9854 5.02326 89.6959 4.013 91.6771 3.90332C95.2249 4.33051 98.548 2.84687 102.107 2.74873C107.245 2.62173 112.198 3.96105 117.277 3.90332H117.473C118.861 6.14321 120.981 6.17784 123.221 5.9527Z" fill="#EA604D"/>
<path d="M81.3321 85.047L81.5624 85.0816C83.584 87.3446 86.6019 87.1945 89.1648 87.9681C92.3036 88.9264 95.6844 89.1226 98.9557 89.6076C105.251 90.0405 111.425 91.2355 117.593 92.4594C117.766 93.7525 119.35 92.725 119.735 93.7641C116.257 95.7096 112.34 96.2869 108.626 97.3087C104.688 98.5136 100.487 98.5476 96.531 97.4068C93.8587 96.6159 90.6334 97.8975 88.3182 95.3286C88.1166 95.1034 87.4946 95.1727 87.0914 95.242C85.1448 95.5768 83.44 94.8321 81.908 93.8853C81.067 93.3411 80.0627 93.1083 79.0687 93.2272V93.2272C78.9016 91.1778 77.6346 90.918 75.9586 91.2933H75.9989C74.8816 89.3362 72.8198 88.3087 71.4317 86.6172C71.2466 86.3897 70.9867 86.2356 70.6986 86.1828C70.4105 86.1299 70.113 86.1815 69.8594 86.3286L69.9285 86.2073L69.3987 85.6704L69.3008 85.7455C69.3008 83.725 70.0725 82.5935 72.3187 83.09C72.7339 83.1241 73.1518 83.1067 73.5627 83.038V83.038C74.3287 84.8795 75.8664 83.8866 77.1277 84.0425H77.0932C78.2278 85.428 79.8289 85.0528 81.3321 85.047Z" fill="#E87619"/>
<path d="M184.817 73.9282C182.755 72.8659 180.872 71.8672 179.524 69.5985C178.637 68.1091 176.506 67.3932 176.31 65.0783C176.253 64.4375 175.061 63.7678 174.007 63.8082C172.676 63.8486 172.377 64.5125 173.005 65.6209C173.25 65.9643 173.536 66.2764 173.857 66.5504C176.944 69.789 177.808 75.3021 175.642 79.1411C175.066 80.1398 174.525 81.4041 172.515 80.4862C171.323 79.9089 169.203 80.6998 167.833 81.4676C166.462 82.2354 164.037 81.4329 163.801 84.0077C163.322 84.0686 162.837 84.0822 162.355 84.0481C154.868 83.8807 147.381 84.227 139.894 83.8691C136.961 83.759 134.024 83.8303 131.099 84.0827C127.396 84.3714 124.332 82.1026 120.819 81.6927C120.692 81.6927 120.617 81.2598 120.52 81.0289C126.452 81.2309 132.32 82.651 138.299 82.0391L139.099 81.9756C139.485 82.4605 139.888 82.6106 140.32 82.0276C146.782 81.8717 153.279 82.4721 159.712 81.4503C163.83 80.8037 168.103 80.5959 171.807 78.4368C175.51 76.2777 176.115 73.6626 173.782 70.1065C173.097 69.0616 172.313 68.0802 171.576 67.0641C171.611 66.5734 171.5 66.0834 171.257 65.6559C171.014 65.2285 170.65 64.8828 170.211 64.6626C167.274 62.8037 164.175 61.0719 161.232 59.1668C158.813 57.5966 156.4 55.5934 153.169 55.703C153.041 55.5007 152.858 55.3391 152.642 55.2369C152.426 55.1347 152.185 55.0961 151.948 55.1257C151.935 54.9728 151.898 54.8228 151.839 54.6812C152.023 53.2091 151.453 51.7947 151.511 50.3053C151.609 47.6498 152.599 47.6729 154.39 48.8044L155.438 49.4452C156.671 51.6851 158.79 52.2797 161.1 52.5337H161.048L161.463 53.0302L165.656 55.0276C166.537 56.7595 167.798 57.8563 169.871 57.6831L172.221 59.7556C173.413 61.6838 175.562 62.6883 176.909 64.2527C178.257 65.8172 179.363 66.9256 181.275 67.3355L181.235 67.3008L181.839 67.7973V67.7049C181.69 68.467 182.087 68.7729 182.772 68.8595V68.8307C181.995 70.8512 182.438 72.0288 184.851 71.8441H184.8C184.846 72.5369 184.828 73.2354 184.817 73.9282Z" fill="#EDCE3D"/>
<path d="M147.756 51.5407C146.794 52.0487 145.849 52.5798 144.876 53.0532C140.269 55.3104 136.035 53.3765 134.745 48.406C134.02 45.6061 133.496 45.3463 130.967 46.6741C128.214 48.1289 125.484 49.5952 122.276 49.7511C117.755 49.9704 114.876 47.5169 114.518 43.0314C114.403 41.9388 114.438 40.8354 114.622 39.7524C114.887 38.4419 115.002 37.016 113.994 36.2367C112.791 35.3072 111.627 36.5484 110.585 37.1372C107.434 38.9268 104.336 40.8146 100.512 40.5317C99.7054 40.474 98.7839 40.7164 98.1331 40.0006C98.0986 39.0596 96.6702 39.2039 96.7221 38.1937C97.5457 38.0609 98.5478 37.6914 99.1468 38.3265C100.782 40.0583 102.401 40.0583 103.818 38.3265C105.148 36.6985 107.849 38.3842 108.748 36.0173C108.782 35.9422 108.817 35.8614 108.857 35.7921C110.36 33.0673 112.889 34.5856 114.887 34.551C116.615 34.551 115.82 36.3521 115.912 37.3912C116.081 38.7322 116.095 40.0882 115.953 41.4323C115.613 43.8396 116.776 45.0404 118.919 45.3232C119.846 45.4445 119.898 45.6407 119.633 46.3508C118.729 48.8101 120.307 48.7119 121.937 48.6254C125.651 48.4291 128.589 46.0218 132.056 45.0808C134.538 44.4053 136.007 45.0808 136.202 47.6959C136.41 50.4207 138.806 52.4182 141.443 52.7472C143.667 53.0301 144.611 51.1539 146.258 50.6228C148.407 49.93 148.723 48.3829 148.597 46.5009C148.55 45.837 148.464 45.1731 148.401 44.5035C148.481 41.617 148.032 38.846 146.483 36.3406C146.483 35.8383 146.42 35.3361 146.396 34.8338C146.241 31.9127 144.513 30.585 141.789 31.4278C141.075 31.6472 140.326 32.8595 139.888 32.7094C137.639 31.915 135.439 30.9878 133.3 29.9326C132.597 29.5978 133.15 28.8704 133.167 28.322L133.271 27.0635C136.577 31.7973 139.883 31.9993 145.037 27.7043C147.982 34.2505 149.532 41.3407 149.587 48.5214C149.587 49.4278 149.109 50.1032 148.752 50.8306V50.8768L147.756 51.5407Z" fill="#F9D96F"/>
<path d="M46.6504 70.9618C48.6431 70.6731 50.3421 71.2447 52.1506 72.203C56.4995 74.4122 61.1171 76.0443 65.8866 77.058C68.1182 77.6016 70.2876 78.3754 72.3601 79.3671C73.5109 79.8613 74.7542 80.1015 76.0058 80.0714C77.5378 80.1118 78.9719 79.829 80.2389 81.4339C81.1374 82.5884 83.2107 82.7616 84.5988 82.8713C90.0874 83.3101 95.1384 85.55 100.569 86.2716C105.217 86.8893 109.813 87.836 114.507 88.3729C116.73 88.6269 119.282 88.6673 121.418 89.8854C121.596 89.9991 121.795 90.0748 122.003 90.1076C122.211 90.1403 122.424 90.1296 122.628 90.0759C125.888 88.344 128.623 91.04 131.676 91.1266C134.728 91.2132 137.861 91.1901 140.971 91.5307C144.865 91.9521 148.873 92.1715 152.778 91.3229C154.546 90.9419 156.234 91.5018 158.013 91.3229C162.793 90.8784 167.487 89.92 172.198 89.1003C173.42 88.8459 174.582 88.3579 175.62 87.6628C177.889 86.2196 180.515 85.7462 182.934 84.7244C180.377 87.657 176.794 88.6385 173.281 89.5852C163.531 92.2177 153.544 92.5525 143.517 92.3158C122.708 91.8078 102.286 88.2055 82.151 83.0099C70.5565 80.0518 59.1734 76.316 48.0787 71.8277C47.5719 71.6199 46.8923 71.6372 46.6504 70.9618Z" fill="#F9D96F"/>
<path d="M78.7982 31.3422C74.2253 29.6681 70.8273 26.8162 69.4277 21.9554C69.4277 20.4699 69.4412 18.9824 69.4681 17.493C69.923 16.3384 71.6912 16.5289 71.8985 15.1203L72.7163 14.0119C72.7675 14.0185 72.8191 14.0046 72.8601 13.9733C72.901 13.9419 72.928 13.8957 72.9352 13.8445L73.586 13.1633L75.4808 12.0029L75.6478 12.1819C75.6939 13.7637 75.308 15.103 73.92 16.0728C73.0216 16.7021 74.3923 19.7502 71.4378 18.382C71.1498 18.2492 70.5911 19.4385 71.0058 20.0504C71.2092 20.3627 71.3392 20.7172 71.3861 21.0872C71.433 21.4572 71.3955 21.833 71.2765 22.1864C70.9713 23.6007 71.7027 24.2127 73.0676 24.2069C74.2195 24.2069 75.3714 23.924 75.0431 25.9388C74.9452 26.5911 75.5845 27.8323 76.9552 28.4673C79.259 29.5353 81.1538 31.2152 83.2905 28.4038C83.3578 28.3548 83.4362 28.3233 83.5186 28.3122C83.6011 28.3011 83.685 28.3108 83.7628 28.3403C85.4906 29.8817 87.1608 28.0401 88.854 28.3403L86.8728 30.3551C84.1198 30.407 81.5857 31.8618 78.7982 31.3422Z" fill="#EDCE3D"/>
<path d="M59.3538 26.2558C58.0177 24.0448 55.9443 23.3001 53.4966 23.2943C46.7754 23.2943 40.0197 22.8267 33.3388 23.3694C26.5773 23.9467 19.8044 24.6452 13.2445 27.0005C9.55271 28.3225 7.1856 30.7472 4.68605 33.3508C3.77031 33.4143 3.3614 34.5688 2.35352 34.436C3.68969 30.7818 6.65576 28.7728 9.93859 27.243C16.1011 24.3565 22.7474 23.4444 29.411 22.7517C39.7317 21.6837 50.0294 22.5034 60.3214 23.3578C60.3329 24.4143 60.7073 25.6208 59.3538 26.2558Z" fill="#F9D96F"/>
<path d="M133.254 27.0762L133.15 28.3347C131.008 28.1731 128.871 27.9768 128.042 30.6958C127.869 31.2731 127.27 31.2096 126.786 31.3424C122.645 32.4566 119.789 29.6105 116.5 28.0576C116.143 27.8902 116.224 27.4803 116.356 27.157C116.817 26.1063 116.062 25.1942 116.051 24.2013L117.744 24.1436C120.727 29.166 124.886 29.9511 129.13 26.2795C129.591 26.2795 130.052 26.2391 130.115 25.6214H130.063C130.979 26.0255 132.119 25.252 132.943 26.1699L133.254 27.0762Z" fill="#EDCE3D"/>
<path d="M79.0625 93.2279C80.0565 93.109 81.0608 93.3417 81.9019 93.886C83.4569 94.8327 85.1616 95.5774 87.0853 95.2426C87.4884 95.1733 88.1104 95.1041 88.312 95.3292C90.6158 97.8982 93.8525 96.6166 96.5249 97.4074C100.481 98.5483 104.682 98.5142 108.619 97.3093C112.357 96.2702 116.251 95.7044 119.735 93.7705C119.349 92.7314 117.765 93.7705 117.593 92.4658L122.528 93.2798C117.278 96.3238 111.425 98.1762 105.383 98.7063C96.6976 99.4857 88.2832 98.2445 80.4102 94.2266C79.9149 93.9783 79.2698 93.8917 79.0625 93.2279Z" fill="#CC8153"/>
<path d="M117.742 24.1259L116.048 24.1836C115.72 22.2035 114.539 21.378 113.117 22.4864C110.577 24.4607 107.905 24.6397 104.864 24.2644C102.162 23.9296 100.319 22.9886 99.709 20.2234L99.8299 19.0688C103.936 24.6454 106.361 24.6281 116.797 18.8379L117.742 24.1259Z" fill="#F9D96F"/>
<path d="M109.967 20.3501C110.727 18.7972 115.427 15.2411 116.792 15.1545C118.992 14.964 120.034 15.8242 120.092 18.1564C120.144 20.0788 119.366 22.1513 121.117 23.8889C122.753 25.5169 124.233 25.794 126.185 24.4662C127.032 23.8889 127.769 22.4803 129.22 23.3117C129.187 23.3879 129.145 23.4596 129.094 23.5252C127.089 25.3784 124.987 27.3931 122.033 26.0307C119.234 24.7491 119.222 21.9146 119.153 19.2706C119.153 18.6933 119.153 18.116 119.101 17.5099C118.905 15.778 118.082 15.3162 116.544 16.2571C114.338 17.556 112.449 19.4265 109.967 20.3501Z" fill="#CC8153"/>
<path d="M88.1864 14.1385L88.8833 14.4791C89.0733 15.4836 89.776 15.0564 90.3404 14.9929H90.2367L91.7515 16.0724C91.8666 17.3078 92.8342 17.1173 93.6348 17.1924C94.3201 17.2559 94.7463 17.5792 94.6657 18.3066C94.585 19.0339 93.9803 19.1552 93.3698 19.1725C92.7593 19.1898 92.218 18.8088 91.7342 18.7453C89.5917 18.4913 88.2498 16.5747 86.2686 16.1879C83.3255 15.6106 83.3025 15.7318 84.7193 13.0186L86.234 13.059V13.0301C86.7869 14.5946 87.1612 14.8082 88.1864 14.1385Z" fill="#EDCE3D"/>
<path d="M117.276 3.91996C112.196 4.00078 107.243 2.66147 102.106 2.76538C98.5467 2.85197 95.1947 4.33561 91.6758 3.91996C100.013 1.32486 108.939 1.32486 117.276 3.91996V3.91996Z" fill="#CC8153"/>
<path d="M34.5898 65.275C34.7684 64.386 35.1082 64.8708 35.592 65.0671C37.8554 65.9677 39.7675 67.9536 42.5032 67.3763C43.2692 69.3045 46.5347 68.3289 46.6787 70.9729C42.388 69.6335 38.1779 68.1153 34.5898 65.275Z" fill="#F9D96F"/>
<path d="M11.8789 51.1201C12.7831 51.0624 13.9062 50.3061 14.2805 51.8995C14.3727 52.2805 14.6722 52.3325 15.035 52.3902C16.7974 52.6557 19.176 55.0111 19.8844 57.1413C16.6619 56.0067 13.8666 53.9042 11.8789 51.1201V51.1201Z" fill="#F9D96F"/>
<path d="M73.5463 83.0093C73.1354 83.078 72.7175 83.0954 72.3023 83.0612C70.0561 82.5648 69.2901 83.6963 69.2844 85.7168C67.1073 84.6084 66.0419 82.4955 64.0664 80.2383C67.6718 81.3409 70.753 81.6584 73.5463 83.0093Z" fill="#CC8153"/>
<path d="M98.9616 89.6139C95.6845 89.1059 92.3038 88.9327 89.1707 87.9744C86.6078 87.195 83.5899 87.3451 81.5684 85.0879L97.9076 88.7017C98.1548 88.7288 98.388 88.8305 98.5762 88.9934C98.7645 89.1563 98.8988 89.3727 98.9616 89.6139V89.6139Z" fill="#CC8153"/>
<path d="M75.4805 12.0028C76.8002 10.7562 78.3185 9.73965 79.9728 8.99512C81.188 9.20872 82.576 9.09903 83.1058 10.6346C82.6912 11.5179 82.0231 12.4646 81.0498 11.9913C79.1434 11.0676 77.4444 12.2915 75.6532 12.1818L75.4805 12.0028Z" fill="#EDCE3D"/>
<path d="M181.304 67.3299C179.392 66.92 178.251 65.7711 176.938 64.2471C175.625 62.723 173.442 61.6782 172.25 59.75C175.544 60.7834 177.612 63.4908 180.06 65.6499C180.497 66.0367 181.419 66.3946 181.304 67.3299Z" fill="#F9D96F"/>
<path d="M134.111 21.7705C134.336 21.8917 134.733 21.9899 134.751 22.1284C135.119 25.3728 137.947 26.5389 139.974 28.3805C137.584 28.9578 135.551 27.7282 134.791 25.1765C134.502 24.0545 134.276 22.9175 134.111 21.7705Z" fill="#CC8153"/>
<path d="M99.8309 19.0691L99.7099 20.2237C99.1982 20.0441 98.7279 19.7629 98.3271 19.3969C97.9263 19.0308 97.6033 18.5875 97.3774 18.0935C96.692 16.1307 95.3328 15.9864 93.6914 16.0788L93.8354 15.1262H94.0312C95.9318 15.0685 97.8266 14.9819 98.5696 17.3488C98.6341 17.5489 98.7629 17.722 98.9358 17.841C99.1088 17.9601 99.3162 18.0184 99.5256 18.0069L99.8309 19.0691Z" fill="#EDCE3D"/>
<path d="M99.5257 17.9946C99.3162 18.006 99.1088 17.9477 98.9359 17.8286C98.7629 17.7096 98.6342 17.5365 98.5696 17.3364C97.8267 14.9695 95.9318 15.0562 94.0312 15.1139L99.2435 13.1973C99.3414 14.8252 99.4335 16.407 99.5257 17.9946Z" fill="#E8D896"/>
<path d="M69.8418 86.3174C70.0953 86.1704 70.3929 86.1187 70.681 86.1716C70.9691 86.2245 71.229 86.3785 71.4141 86.606C72.8021 88.2975 74.8697 89.3251 75.9813 91.2821C73.4702 90.3063 71.3244 88.5711 69.8418 86.3174V86.3174Z" fill="#CC8153"/>
<path d="M141.334 27.8664C141.674 26.3077 142.019 24.749 142.359 23.1846C144.916 25.3841 142.964 26.5906 141.334 27.8664Z" fill="#CC8153"/>
<path d="M161.128 52.5172C158.825 52.2632 156.699 51.6686 155.467 49.4287C157.425 50.3293 159.429 51.1375 161.128 52.5172Z" fill="#F9D96F"/>
<path d="M123.22 5.95242C120.991 6.17757 118.86 6.14293 117.461 3.94922C119.473 4.31431 121.415 4.99009 123.22 5.95242Z" fill="#CC8153"/>
<path d="M83.1292 10.6576C82.5993 9.122 81.2113 9.23167 79.9961 9.01808C82.3747 7.2862 82.3747 7.28621 83.8491 10.3632L83.4747 10.7153C83.3671 10.6645 83.2475 10.6445 83.1292 10.6576V10.6576Z" fill="#F9D96F"/>
<path d="M59.3551 26.2558C60.6912 25.6207 60.3169 24.4142 60.3284 23.3347L61.3536 23.1846C61.7279 24.9164 61.0483 26.2384 59.7985 27.3526L59.332 26.2846L59.3551 26.2558Z" fill="#E8D896"/>
<path d="M75.9414 91.3104C77.6174 90.9237 78.8844 91.195 79.0515 93.2444C78.4277 93.1554 77.8292 92.9376 77.2939 92.6047C76.7585 92.2718 76.298 91.8311 75.9414 91.3104V91.3104Z" fill="#CC8153"/>
<path d="M132.942 26.1515C132.119 25.2336 130.978 26.0071 130.062 25.603L131.94 23.7441C132.844 24.3561 132.556 25.3952 132.942 26.1515Z" fill="#E8D896"/>
<path d="M169.899 57.678C167.826 57.8512 166.565 56.737 165.684 55.0225C167.213 55.6915 168.634 56.5866 169.899 57.678V57.678Z" fill="#F9D96F"/>
<path d="M86.2333 13.0473L84.7186 13.0069C84.1945 12.3084 83.5668 11.6561 83.4746 10.6978L83.849 10.3398L86.2333 13.0473Z" fill="#F9D96F"/>
<path d="M77.1099 84.0195C75.8717 83.8636 74.3109 84.8566 73.5449 83.015C74.8101 82.9567 76.0604 83.3089 77.1099 84.0195V84.0195Z" fill="#CC8153"/>
<path d="M93.8359 15.1373C93.7898 15.4548 93.7438 15.7723 93.6919 16.0898L91.751 16.061L90.2363 14.9814L93.8359 15.1373Z" fill="#E8D896"/>
<path d="M81.3323 85.0476C79.8292 85.0476 78.228 85.4285 77.0762 84.0026C78.5603 83.9841 80.0248 84.3437 81.3323 85.0476V85.0476Z" fill="#CC8153"/>
<path d="M88.1864 14.1385C87.1612 14.8082 86.7869 14.5946 86.2109 13.0186L88.1864 14.1385Z" fill="#F9D96F"/>
<path d="M90.3399 14.9933C89.764 15.051 89.0729 15.484 88.8828 14.4795C89.3839 14.6007 89.9886 14.4391 90.3399 14.9933Z" fill="#E8D896"/>
<path d="M130.114 25.6212C130.05 26.2389 129.59 26.262 129.129 26.2793C129.195 26.0747 129.329 25.8985 129.507 25.7791C129.686 25.6597 129.9 25.6041 130.114 25.6212V25.6212Z" fill="#E8D896"/>
<path d="M161.491 53.0249L161.076 52.5284C161.462 52.488 161.468 52.7593 161.491 53.0249Z" fill="#F9D96F"/>
<path d="M69.3822 85.6592L69.912 86.1961C69.434 86.3115 69.2785 86.1152 69.3822 85.6592Z" fill="#CC8153"/>
<path d="M60.5058 51.4605C60.3848 50.5311 59.5094 50.1443 59.0717 49.4342C57.0963 46.1956 55.8465 43.0378 57.1711 38.9968C59.3366 32.3695 62.1299 26.1809 66.7086 20.5234C68.2463 25.4016 70.6883 29.1828 74.7717 31.821C78.8551 34.4593 82.9557 34.7479 87.2004 32.5831C88.6863 31.8268 89.3083 31.4574 89.8266 33.6049C91.5545 40.694 98.5002 44.331 105.348 41.8717C107.652 41.0346 109.956 40.0244 112.467 38.9852C112.15 42.1661 112.467 44.9487 113.872 47.5638C115.755 51.0275 119.107 52.6382 122.977 51.703C124.607 51.3104 126.237 50.8717 127.821 50.3233C129.405 49.7748 130.931 49.0648 132.475 48.424C135.084 56.4195 141.269 58.2957 148.964 53.2328C149.471 55.5939 148.768 57.7703 148.284 59.8659C147.214 64.5591 145.48 69.075 143.135 73.2764C142.605 74.3438 141.724 75.1958 140.641 75.6895L138.965 75.9089C138.26 75.6351 137.625 75.2069 137.106 74.6556C136.586 74.1043 136.197 73.4438 135.965 72.7222C135.107 69.9512 134.905 69.8992 132.4 71.3194C131.605 71.7697 130.672 72.0756 130.136 72.8723V72.8434C126.681 74.506 123.323 74.6273 120.115 72.2257L117.84 69.8531C117.08 66.3893 116.688 66.0718 114.696 67.5785C110.981 70.4073 107.053 70.5862 102.872 68.9582C102.745 68.8669 102.59 68.824 102.434 68.837L99.871 66.1815C99.8782 66.1184 99.8722 66.0545 99.8533 65.9938C99.8345 65.9332 99.8032 65.8772 99.7615 65.8293C99.5024 64.7671 99.2144 63.7107 98.9898 62.6427C98.3332 59.5022 98.339 59.5022 95.7127 61.1475C89.4984 65.0327 82.6102 64.2418 77.6283 59.0693C76.32 56.5193 75.6089 53.7039 75.5492 50.8371C75.5492 50.0577 75.5204 49.1976 74.7832 48.8223C73.9308 48.3836 73.1821 49.007 72.514 49.492C72.0427 49.8431 71.612 50.2459 71.2297 50.6927C68.7992 53.4753 65.8562 53.8563 62.5503 52.6036C61.9456 52.0782 61.3985 51.449 60.4827 51.5183L60.5058 51.4605Z" fill="#388278"/>
<path d="M91.7501 16.0438L93.691 16.0727C95.3324 15.9803 96.6916 16.1246 97.377 18.0874C97.6029 18.5815 97.9259 19.0248 98.3267 19.3908C98.7275 19.7568 99.1978 20.038 99.7095 20.2177C100.32 22.9887 102.163 23.9296 104.864 24.2587C107.905 24.6339 110.577 24.455 113.117 22.4806C114.54 21.3722 115.721 22.1978 116.049 24.1779C116.049 25.1708 116.815 26.0829 116.354 27.1336C116.222 27.4396 116.141 27.8668 116.498 28.0342C119.787 29.564 122.643 32.4331 126.784 31.319C127.268 31.1862 127.867 31.2439 128.04 30.6724C128.869 27.9534 131.006 28.1496 133.148 28.3113C133.148 28.8597 132.572 29.5871 133.281 29.9219C135.42 30.9771 137.62 31.9043 139.869 32.6987C140.307 32.8488 141.056 31.6365 141.77 31.4171C144.517 30.5743 146.245 31.902 146.378 34.8231C146.378 35.3254 146.435 35.8276 146.458 36.3299C146.147 37.0679 146.007 37.8669 146.049 38.6669C146.091 39.4669 146.314 40.2469 146.7 40.9482C147.403 42.1028 146.522 43.9963 148.382 44.4697C148.445 45.1393 148.532 45.8032 148.578 46.4671C148.704 48.3491 148.388 49.8963 146.239 50.589C144.592 51.1201 143.648 52.9963 141.425 52.7134C138.787 52.3844 136.391 50.4043 136.184 47.6621C135.988 45.0412 134.519 44.3716 132.037 45.047C128.581 45.988 125.632 48.3953 121.918 48.5916C120.282 48.6782 118.704 48.7763 119.614 46.317C119.879 45.607 119.827 45.4107 118.9 45.2895C116.757 45.0066 115.594 43.8058 115.934 41.3985C116.076 40.0545 116.063 38.6984 115.893 37.3575C115.801 36.3183 116.619 34.471 114.868 34.5172C112.858 34.5518 110.341 33.0335 108.838 35.7584C108.798 35.8276 108.763 35.9085 108.729 35.9835C107.836 38.3273 105.129 36.6416 103.799 38.2927C102.382 40.0245 100.763 40.0245 99.1278 38.2927C98.5519 37.6577 97.5267 38.0271 96.7031 38.1541C95.4534 36.6532 93.524 35.845 93.1611 33.4203C93.0114 32.3985 92.159 31.2497 91.9286 29.997C91.7962 29.2869 91.9286 28.1208 90.5522 28.3921L90.6789 28.4441C90.4658 28.2189 90.3275 27.6474 89.9359 28.2882L88.8243 28.3286C87.1311 28.0342 85.4378 29.8757 83.7331 28.3286C83.6553 28.2991 83.5714 28.2894 83.4889 28.3005C83.4065 28.3116 83.3281 28.3431 83.2608 28.3921C81.1414 31.2035 79.2293 29.5467 76.9255 28.4556C75.5548 27.8206 74.9155 26.5794 75.0134 25.9271C75.3244 23.9123 74.1841 24.1952 73.038 24.1952C71.673 24.1952 70.9416 23.589 71.2468 22.1747C71.3658 21.8213 71.4033 21.4455 71.3564 21.0755C71.3095 20.7055 71.1795 20.351 70.9761 20.0387C70.5614 19.4268 71.1201 18.2375 71.4081 18.3703C74.3626 19.7269 72.9919 16.6788 73.8903 16.0611C75.2956 15.0913 75.6815 13.752 75.6181 12.1702C77.4151 12.2799 79.1141 11.056 81.0204 11.9797C81.9937 12.4531 82.6618 11.5063 83.0765 10.623C83.1948 10.61 83.3144 10.6299 83.4221 10.6808C83.52 11.6218 84.142 12.2741 84.6661 12.9899C83.2493 15.7032 83.2723 15.5935 86.2154 16.1593C88.1966 16.5461 89.5385 18.4685 91.681 18.7167C92.1878 18.7802 92.7234 19.1612 93.3166 19.1439C93.9098 19.1266 94.5319 19.0515 94.6125 18.2779C94.6931 17.5044 94.2669 17.2273 93.5816 17.1638C92.8328 17.106 91.8653 17.2965 91.7501 16.0438Z" fill="#F8D121"/>
<path d="M56.6421 34.286C56.9416 32.9294 55.8934 32.9987 55.1102 32.8947C45.5899 31.5901 36.0525 30.6779 26.4401 31.8498C23.3448 32.1435 20.3332 33.023 17.5649 34.4419C13.7004 36.5548 13.1936 39.5394 15.9696 42.9165C20.675 48.6548 26.9124 52.3206 33.3916 55.5477C40.0782 58.8671 47.0989 61.3668 54.4651 63.7914C53.3132 57.0198 52.6336 50.3578 54.1253 43.6843C56.0201 44.8909 56.5558 47.0211 57.5809 48.8165C58.2778 50.0461 58.9056 51.2642 60.5067 51.4604V51.524C60.57 53.0884 61.7392 52.5169 62.5743 52.6035C65.8801 53.8562 68.8232 53.4752 71.2536 50.6927C71.6359 50.2458 72.0667 49.8431 72.538 49.4919C73.206 49.007 73.9547 48.3835 74.8071 48.8223C75.5443 49.1975 75.5559 50.0577 75.5731 50.837C75.6328 53.7038 76.3439 56.5192 77.6522 59.0692C77.4392 60.0333 78.0324 60.6106 78.5968 61.2687C80.9466 63.9993 84.4252 64.1897 87.4835 64.6285C90.0464 64.998 92.8915 63.8838 95.2816 62.5618C96.877 61.6843 97.5854 61.5169 98.0519 63.549C98.2477 64.438 98.5529 65.5752 99.7797 65.8581C99.8214 65.9059 99.8527 65.962 99.8715 66.0226C99.8903 66.0833 99.8963 66.1472 99.8891 66.2103C99.8891 67.082 99.8891 67.9421 99.8891 68.8196L99.7624 68.9524C99.624 68.9234 99.4833 68.906 99.342 68.9005C98.4781 67.5611 97.5278 66.2449 97.3377 64.6112C97.1765 63.2488 96.5948 63.0813 95.4947 63.7279C94.9011 64.0409 94.2851 64.3092 93.6517 64.5304C85.4101 67.8325 76.8747 64.2417 74.3867 56.3848C73.9375 54.9646 73.7186 53.4983 73.3846 51.9974C66.1623 56.4079 65.5807 56.4483 59.4124 53.0134L58.9574 52.6439L55.5421 47.9621C55.0876 53.2453 55.4764 58.5674 56.694 63.7279C57.0338 65.1827 58.0301 65.5579 59.1878 65.835C71.1403 68.7369 83.1486 71.3924 95.2125 73.8017L97.1419 73.9864C105.741 75.995 114.48 77.3479 123.284 78.0332C126.497 78.547 129.705 79.1128 132.977 79.0089C134.336 79.5862 135.77 79.5515 137.192 79.5169C138.235 79.5169 139.496 79.7189 139.64 78.1083L140.314 77.9813C140.89 80.7523 138.01 79.5111 136.582 80.9601C140.164 80.9601 143.148 80.9601 146.131 80.9601C146.592 80.9601 146.793 80.504 146.903 80.0768H148.389C148.654 81.2314 149.592 81.0294 150.393 81.0352C152.979 81.0352 155.576 80.9601 158.139 81.0352C158.799 81.1167 159.468 81.0092 160.07 80.7252C160.671 80.4412 161.18 79.9922 161.537 79.4303C163.72 78.6452 166.064 78.5355 168.253 77.6984C174.271 75.343 174.686 73.2071 169.98 68.7157C166.565 65.4598 162.453 63.2661 158.519 60.778L159.095 59.7446C159.333 59.6749 159.584 59.6573 159.829 59.6932C160.075 59.729 160.309 59.8175 160.518 59.9524C164.279 62.227 168.207 64.2417 171.662 67.0878C172.399 68.1038 173.183 69.0852 173.868 70.1301C176.201 73.6862 175.63 76.3014 171.893 78.4604C168.155 80.6195 163.893 80.8273 159.798 81.4739C153.365 82.4726 146.868 81.8722 140.4 82.0512L139.185 81.9992L138.385 82.0627C138.102 81.9126 137.809 81.6528 137.538 81.6298C133.443 81.243 129.342 80.8562 125.242 80.5329C121.141 80.2096 117.144 79.7593 113.147 79.182C108.378 78.4951 103.661 77.3001 98.8179 76.9826L96.5775 76.9075C96.5487 76.082 95.9382 76.1051 95.345 75.9896C90.5014 75.0429 85.6405 74.1654 80.8257 73.0685C73.494 71.4059 66.1969 69.6048 58.8883 67.8267H58.9228C55.5075 66.6317 52.098 65.4309 48.6769 64.2475C45.4805 63.1449 42.5202 61.361 39.151 60.7837C32.9079 58.8267 27.8051 54.7626 22.1897 51.6452C18.7341 48.9723 15.2324 46.3052 12.8883 42.472H12.9402C12.2548 40.2956 11.8517 38.1077 12.8365 35.9024L13.9423 34.4303C16.1306 32.7562 18.6284 31.5337 21.2912 30.8338C30.4774 28.4092 39.7212 29.3328 49.0052 30.0545C52.1038 30.2969 55.1965 31.5727 58.3584 30.4066C57.2699 31.4631 57.7422 33.218 56.6421 34.286Z" fill="#2B120D"/>
<path d="M58.3339 30.3777C55.1721 31.5323 52.0793 30.268 48.9807 30.0256C39.7082 29.304 30.4529 28.3803 21.2667 30.8049C18.6039 31.5049 16.1061 32.7273 13.9178 34.4014C12.933 34.4014 12.8351 35.1231 12.812 35.8736H11.9539L10.1973 36.1218C11.545 33.4431 14.2576 32.7677 16.4577 31.3129C19.0667 29.5811 21.8139 29.5811 24.6878 29.1308C31.0231 28.1782 37.3584 28.1667 43.7397 28.363C47.2933 28.4784 50.7604 29.5176 54.3888 29.3848C56.4621 29.2924 58.0172 29.05 58.5585 26.7639C58.6104 26.5445 59.0769 26.4233 59.3533 26.2559L59.8198 27.3239C59.6674 28.4762 59.146 29.5478 58.3339 30.3777Z" fill="#F9D96F"/>
<path d="M143.24 76.9878L142.347 78.4946C141.73 78.1183 141.012 77.941 140.291 77.9865C140.165 77.7325 140.078 77.2996 139.9 77.2534C139.381 77.1264 139.324 77.6113 139.266 77.9692L138.258 77.7556L136.496 76.9648C135.592 75.8564 134.895 74.2284 133.737 73.7781C132.389 73.247 131.174 75.0135 129.706 75.3714C129.321 75.5198 128.956 75.7136 128.617 75.9487H128.646C125.254 76.6472 122.138 75.6716 119.074 74.3727L119.108 74.4189C119.206 73.9455 118.97 73.8416 118.532 73.8936V73.9282C118.625 73.4895 118.308 73.3509 118.003 73.1719C117.634 72.2021 116.77 71.6536 116.096 70.9436C115.664 69.6908 114.892 69.8409 113.965 70.3663C109.974 72.6754 105.902 72.3695 101.767 70.7646C101.191 70.0545 99.9988 69.991 99.7051 68.9346L99.8318 68.8076L102.372 68.848C102.527 68.8349 102.683 68.8779 102.809 68.9692C104.065 70.8108 109.271 71.9654 111.621 70.5222C113.7 69.2406 115.572 68.6864 117.778 69.864L120.053 72.2367C119.997 72.5873 120.058 72.9466 120.225 73.2594C120.393 73.5723 120.658 73.8214 120.98 73.9686C122.973 75.204 125.087 74.8807 127.2 74.9327C128.703 74.9673 129.717 74.3554 130.08 72.8255V72.8544C130.495 72.8544 130.978 73.0391 131.312 72.8544C133.887 71.6248 135.188 72.8544 136.121 75.1636C136.697 76.5433 137.849 76.0873 138.909 75.8794L140.585 75.6601C141.138 76.907 142.123 77.0513 143.24 76.9878Z" fill="#2B120D"/>
<path d="M90.5703 28.4328C91.9526 28.1614 91.8143 29.3276 91.9468 30.0376C92.1772 31.2903 93.0296 32.4392 93.1793 33.461C93.5421 35.8683 95.483 36.6938 96.7213 38.1948C96.6695 39.2108 98.0978 39.0665 98.1323 40.0075C94.838 39.2339 92.0677 35.851 91.6415 32.1159C91.4918 30.8343 91.7625 29.4141 90.5703 28.4328Z" fill="#E8D896"/>
<path d="M153.366 58.2376L151.442 57.6083C151.339 56.7475 151.523 55.8766 151.966 55.1318C152.203 55.1022 152.444 55.1407 152.66 55.2429C152.876 55.3451 153.059 55.5068 153.187 55.7091L156.113 57.6083L153.366 58.2376Z" fill="#2B120D"/>
<path d="M78.7988 31.3421C81.5864 31.8617 84.1377 30.4069 86.8619 30.3838C84.3336 32.0233 81.6612 32.5082 78.7988 31.3421Z" fill="#E8D896"/>
<path d="M69.468 17.4922C69.468 18.9816 69.4546 20.4691 69.4277 21.9546C69.0534 20.4652 67.6078 18.9643 69.468 17.4922Z" fill="#E8D896"/>
<path d="M72.717 14.0117L71.8992 15.1201C71.473 15.0162 71.0353 14.8199 71.2714 14.3119C71.5767 13.6653 72.1353 13.6364 72.717 14.0117Z" fill="#2B120D"/>
<path d="M73.5857 13.1572L72.9349 13.8384C72.7391 13.215 73.1768 13.1976 73.5857 13.1572Z" fill="#2B120D"/>
<path d="M147.754 51.5413L148.721 50.9062C148.624 51.4893 148.232 51.5643 147.754 51.5413Z" fill="#2B120D"/>
<path d="M89.9531 28.3277C90.3448 27.6869 90.483 28.2584 90.6961 28.4835L89.9531 28.3277Z" fill="#E8D896"/>
<path d="M58.8594 67.8037C66.168 69.5356 73.4651 71.3829 80.7967 73.0455C85.6116 74.1424 90.4725 75.0199 95.3161 75.9666C95.892 76.0821 96.5198 76.059 96.5486 76.8845L95.7941 76.9596H94.8035C92.9605 75.73 90.7719 76.007 88.7446 75.6087C82.7204 74.4137 76.7882 72.4336 70.5105 72.9243C69.7676 71.839 69.0361 70.7364 67.4638 70.9384C64.5381 70.061 61.2265 70.2168 58.8594 67.8037Z" fill="#F9D96F"/>
<path d="M98.7891 76.959C103.633 77.2765 108.35 78.4715 113.118 79.1585C117.092 79.7358 121.147 80.1918 125.213 80.5093C129.279 80.8268 133.414 81.2194 137.509 81.6062C137.803 81.6062 138.085 81.8891 138.356 82.0392C132.378 82.6511 126.509 81.2309 120.577 81.0289H120.099C119.154 80.3419 118.043 80.2553 116.937 80.1399C112.612 80.417 108.494 78.6043 104.128 78.8756C102.792 78.9564 101.415 77.721 99.8545 77.9923C99.577 77.9954 99.3094 77.8887 99.1099 77.6952C98.9104 77.5017 98.7951 77.2372 98.7891 76.959V76.959Z" fill="#F9D96F"/>
<path d="M70.5098 72.895C76.7875 72.4043 82.7196 74.3844 88.7439 75.5794C90.7654 75.9778 92.9597 75.7006 94.8027 76.9303C91.8424 76.8206 88.7899 77.6 85.9851 75.9893C85.7535 75.8805 85.4934 75.8482 85.2422 75.8969C80.6059 76.6185 76.3382 74.904 71.9496 73.9399C71.2585 73.7725 70.6019 73.7725 70.5098 72.895Z" fill="#EDCE3D"/>
<path d="M39.1231 60.7715C42.4924 61.3834 45.4584 63.1384 48.6491 64.2352C52.0702 65.3898 55.4797 66.6195 58.895 67.8145C54.2875 67.6528 50.1523 65.9094 45.948 64.2814C44.3354 63.658 42.8667 62.463 40.9604 62.7285C39.4629 62.9421 39.031 62.0877 39.1231 60.7715Z" fill="#F9D96F"/>
<path d="M12.8594 42.46C15.2034 46.2932 18.6821 48.9603 22.1607 51.6331C18.158 51.2579 13.0149 46.195 12.8594 42.46Z" fill="#F9D96F"/>
<path d="M98.7899 76.9588C98.7988 77.231 98.9122 77.4892 99.1064 77.6796C99.3006 77.87 99.5607 77.9778 99.8323 77.9806C98.2658 79.6548 97.2176 79.3892 95.8008 76.9588L96.5553 76.8838L98.7899 76.9588Z" fill="#EDCE3D"/>
<path d="M67.457 70.8864C69.0293 70.6844 69.7608 71.787 70.5037 72.8723C69.8383 73.0004 69.1492 72.865 68.5811 72.4948C68.0131 72.1245 67.6102 71.5481 67.457 70.8864Z" fill="#EDCE3D"/>
<path d="M116.913 80.123C118.018 80.2385 119.13 80.3251 120.074 81.0121C118.998 81.0893 117.917 81.0738 116.843 80.9659C116.02 80.8274 116.901 80.4232 116.913 80.123Z" fill="#EDCE3D"/>
<path d="M156.111 57.6084L153.197 55.6918C156.411 55.5821 158.824 57.5853 161.26 59.1556C164.226 61.078 167.302 62.8098 170.297 64.6745C170.736 64.8947 171.1 65.2403 171.343 65.6678C171.585 66.0953 171.697 66.5853 171.662 67.076C168.246 64.23 164.307 62.2037 160.523 59.9407C160.315 59.8057 160.08 59.7173 159.834 59.6815C159.589 59.6456 159.339 59.6631 159.101 59.7329C158.024 59.1152 156.86 58.6533 156.111 57.6084Z" fill="#F9D96F"/>
<path d="M139.133 81.9766L140.348 82.0285C139.922 82.6116 139.519 82.4615 139.133 81.9766Z" fill="#F9D96F"/>
<path d="M148.406 44.5158C146.546 44.0424 147.427 42.1431 146.724 40.9943C146.338 40.293 146.116 39.513 146.074 38.713C146.032 37.913 146.172 37.114 146.482 36.376C148.049 38.8583 148.487 41.6236 148.406 44.5158Z" fill="#EDCE3D"/>
<path d="M99.7565 65.829C98.524 65.575 98.2188 64.4377 98.0287 63.5198C97.5737 61.4878 96.8769 61.6552 95.2585 62.5327C92.8684 63.8547 90.0232 64.9688 87.4603 64.5994C84.4021 64.1606 80.9235 63.9701 78.5736 61.2395C77.9977 60.5814 77.4218 60.0041 77.6291 59.04C82.611 64.2357 89.4991 65.0035 95.7135 61.1183C98.3398 59.473 98.334 59.473 98.9906 62.6135C99.2094 63.7103 99.4974 64.7668 99.7565 65.829Z" fill="#15110E"/>
<path d="M117.836 69.8532C115.63 68.6986 113.758 69.2297 111.679 70.5113C109.329 71.9545 104.123 70.8 102.867 68.9584C107.048 70.5864 110.976 70.4074 114.691 67.5787C116.672 66.072 117.076 66.4183 117.836 69.8532Z" fill="#15110E"/>
<path d="M138.954 75.9085C137.906 76.1163 136.731 76.5724 136.167 75.1927C135.234 72.9239 133.932 71.6712 131.358 72.8835C131.023 73.0394 130.54 72.8835 130.125 72.8835C130.701 72.0868 131.594 71.7809 132.388 71.3306C134.894 69.9104 135.095 69.9624 135.953 72.7334C136.187 73.4528 136.577 74.1111 137.096 74.6603C137.615 75.2096 138.25 75.6359 138.954 75.9085V75.9085Z" fill="#15110E"/>
<path d="M130.131 72.8437C129.774 74.3793 128.761 74.9855 127.252 74.9508C125.138 74.8989 123.024 75.2222 121.031 73.9868C120.709 73.8396 120.444 73.5905 120.276 73.2776C120.109 72.9648 120.048 72.6055 120.104 72.2549C123.318 74.6276 126.676 74.5063 130.131 72.8437Z" fill="#15110E"/>
<path d="M102.429 68.8372L99.8887 68.7968C99.8887 67.9251 99.8887 67.0649 99.8887 66.1816C100.724 67.0649 101.576 67.9539 102.429 68.8372Z" fill="#15110E"/>
<path d="M62.5461 52.6035C61.711 52.5169 60.5419 53.0885 60.4785 51.524C61.377 51.4778 61.9414 52.0782 62.5461 52.6035Z" fill="#15110E"/>
<path d="M136.495 76.9653L138.258 77.7562C138.114 78.9107 137.29 78.9107 136.421 78.9107C135.269 78.9107 134.117 78.9627 132.965 78.9915C129.694 79.0955 126.486 78.5297 123.266 78.0159C122.918 77.7065 122.513 77.4691 122.073 77.3175C121.633 77.1659 121.167 77.1031 120.703 77.1327C115.981 77.404 111.811 73.998 106.967 75.1295C106.598 75.2194 106.214 75.2352 105.838 75.1757C105.463 75.1163 105.103 74.9828 104.779 74.7831C102.371 72.8434 99.7162 73.8941 97.1418 73.9402L95.2124 73.7555C95.0569 73.565 94.9302 73.2475 94.7344 73.1782C89.4012 71.7177 84.1314 69.5874 78.7061 69.0679C74.352 68.6522 70.5797 66.1064 66.0355 66.5625C64.1522 66.753 66.6518 65.8524 66.1046 65.2001C64.968 65.5826 63.7665 65.7337 62.5708 65.6445C61.3751 65.5553 60.2092 65.2275 59.1416 64.6805C57.8861 64.0339 56.8378 63.295 57.9148 61.5631C58.7384 60.2353 58.94 58.0994 58.0473 57.3373C56.1064 55.6921 56.3195 53.9602 56.5384 51.8877C57.4886 52.0089 58.0588 52.9383 58.9746 52.5804L59.4296 52.9499C59.9249 54.878 63.0925 57.1237 65.1371 56.5003C67.1816 55.8768 69.4393 56.0442 71.3975 54.8896C72.5782 54.1911 73.5112 54.6298 73.5169 56.2289C73.5169 57.3084 73.1426 58.9249 73.6955 59.3867C76.4312 61.6959 78.4354 64.8075 82.2942 65.8293C85.7498 66.7587 88.9808 67.2956 92.4652 65.9447C94.193 65.2866 96.5601 64.1147 97.113 67.6304C97.2627 68.5541 98.2994 68.9986 99.3591 68.837C99.5005 68.8425 99.6411 68.8599 99.7796 68.8889C100.073 69.9454 101.242 70.0089 101.841 70.7247C101.519 71.6426 100.373 71.0884 99.7565 71.7119C103.863 73.6401 110.699 73.259 116.171 70.8864C116.845 71.5964 117.708 72.1449 118.077 73.1147L118.607 73.871V73.8363L119.183 74.3617L119.148 74.3155C121.792 77.2019 126.411 77.9871 128.72 75.8915H128.692C131.347 75.6952 134.14 74.5637 136.495 76.9653Z" fill="#E87619"/>
<path d="M58.9564 52.6147C58.0407 52.9726 57.4705 52.0374 56.5202 51.922C56.2783 53.9944 56.0883 55.7263 58.0292 57.3716C58.9219 58.1279 58.7203 60.258 57.8967 61.5974C56.8255 63.3292 57.8679 64.0682 59.1234 64.7148C60.191 65.2618 61.3569 65.5896 62.5527 65.6788C63.7484 65.768 64.9498 65.6169 66.0865 65.2343C66.6336 65.8867 64.1341 66.7872 66.0174 66.5967C70.5615 66.1407 74.3339 68.6865 78.688 69.1022C84.1133 69.6217 89.3831 71.752 94.7162 73.2125C94.912 73.2645 95.0388 73.582 95.1943 73.7898C83.1265 71.3883 71.1182 68.7327 59.1695 65.8231C58.0176 65.546 57.0155 65.1708 56.6757 63.716C55.4582 58.5555 55.0693 53.2334 55.5238 47.9502L58.9564 52.6147Z" fill="#CC8153"/>
<path d="M99.3417 68.872C98.282 69.0336 97.2453 68.5891 97.0955 67.6654C96.5196 64.1497 94.1468 65.3216 92.4477 65.9797C88.9921 67.3306 85.7554 66.7937 82.2767 65.8643C78.418 64.8425 76.4137 61.702 73.678 59.4217C73.1021 58.9599 73.5052 57.3434 73.4995 56.2639C73.4995 54.6648 72.5607 54.226 71.38 54.9246C69.4219 56.0791 67.1872 55.906 65.1196 56.5352C63.052 57.1645 59.9305 54.913 59.4121 52.9906C65.5804 56.4544 66.1621 56.3851 73.3843 51.9746C73.7183 53.4525 73.9602 54.9419 74.3864 56.3621C76.8745 64.219 85.4098 67.8098 93.6514 64.5076C94.2848 64.2864 94.9009 64.0182 95.4944 63.7052C96.5945 63.0586 97.1762 63.2261 97.3374 64.5885C97.5275 66.2164 98.4778 67.5327 99.3417 68.872Z" fill="#CC8153"/>
<path d="M97.125 73.9581C99.6994 73.9119 102.354 72.8612 104.762 74.8009C105.086 75.0006 105.446 75.1341 105.822 75.1935C106.197 75.253 106.581 75.2373 106.95 75.1473C111.794 73.9927 115.964 77.4218 120.687 77.1505C121.151 77.1209 121.616 77.1838 122.056 77.3353C122.496 77.4869 122.902 77.7243 123.249 78.0337C114.451 77.3379 105.718 75.9754 97.125 73.9581V73.9581Z" fill="#CC8153"/>
<path d="M148.365 80.0766L161.514 79.4531C161.157 80.015 160.648 80.464 160.046 80.748C159.445 81.032 158.776 81.1395 158.116 81.058C155.541 80.9598 152.932 81.058 150.37 81.058C149.569 81.0291 148.624 81.2369 148.365 80.0766Z" fill="#15110E"/>
<path d="M140.291 77.9875C141.012 77.9419 141.729 78.1193 142.347 78.4955C141.961 79.3845 142.185 79.8694 143.222 79.8925C144.443 79.8925 145.658 80.0022 146.879 80.0657C146.77 80.4929 146.568 80.9432 146.108 80.949C143.124 80.9836 140.141 80.949 136.559 80.949C137.993 79.5462 140.849 80.7585 140.291 77.9875Z" fill="#15110E"/>
<path d="M156.113 57.6084C156.873 58.6418 158.036 59.1036 159.085 59.7328L158.509 60.7662C156.692 60.1596 154.967 59.3049 153.383 58.2261L156.113 57.6084Z" fill="#15110E"/>
<path d="M132.947 79.0089C134.099 78.98 135.251 78.9338 136.403 78.928C137.273 78.928 138.096 78.8876 138.24 77.7734L139.242 77.9813C139.288 78.0284 139.342 78.0655 139.403 78.0904C139.463 78.1152 139.528 78.1272 139.594 78.1256C139.432 79.7362 138.188 79.5111 137.146 79.5342C135.741 79.5457 134.306 79.5919 132.947 79.0089Z" fill="#CC8153"/>
<path d="M139.611 78.1084C139.546 78.11 139.481 78.098 139.42 78.0731C139.36 78.0483 139.305 78.0112 139.26 77.9641C139.346 77.6061 139.375 77.1212 139.893 77.2482C140.072 77.2944 140.158 77.7274 140.285 77.9814L139.611 78.1084Z" fill="#15110E"/>
<path d="M116.152 70.9212C110.658 73.2939 103.845 73.6749 99.7383 71.7468C100.355 71.1233 101.501 71.6775 101.823 70.7596C105.947 72.3587 110.03 72.6762 114.021 70.3555C114.949 69.8186 115.72 69.6685 116.152 70.9212Z" fill="#CC8153"/>
<path d="M128.656 75.9256C126.352 78.0212 121.745 77.2592 119.084 74.3496C122.131 75.6485 125.264 76.6241 128.656 75.9256Z" fill="#CC8153"/>
<path d="M136.496 76.965C134.141 74.5634 131.313 75.6949 128.629 75.9374C128.968 75.7023 129.333 75.5085 129.717 75.3601C131.175 75.0022 132.39 73.2357 133.749 73.7668C134.895 74.2286 135.592 75.8566 136.496 76.965Z" fill="#CC8153"/>
<path d="M119.119 74.3959L118.543 73.8706C118.981 73.8013 119.217 73.9225 119.119 74.3959Z" fill="#CC8153"/>
<path d="M118.59 73.9057L118.061 73.1494C118.366 73.3111 118.677 73.4669 118.59 73.9057Z" fill="#CC8153"/>
</svg>
