<svg width="174" height="221" viewBox="0 0 174 221" fill="none" xmlns="http://www.w3.org/2000/svg">
<path d="M60.1639 187.573C56.7489 186.888 53.4865 185.581 50.5367 183.718C49.46 183.084 48.8871 182.824 47.8104 183.895C41.1425 190.546 32.7872 192.017 23.8841 191.39C16.6936 190.889 9.91233 188.486 3.10592 186.444C1.84664 186.07 0.20328 185.81 0.014388 184.092C-0.155615 182.564 1.217 181.905 2.22443 181.156C9.93752 175.418 17.2476 169.23 23.6322 161.99C25.7919 159.542 26.9315 156.473 28.216 153.5C28.8015 152.137 28.216 150.964 27.9641 149.734C26.1256 141.637 25.1685 133.325 26.113 125.19C28.3923 105.478 34.6824 87.1484 47.7285 71.2405C45.8018 71.4624 44.2529 71.7097 42.6914 71.8175C36.3383 72.255 30.3631 70.4289 24.3626 68.679C19.0925 67.1383 13.7594 65.8322 8.47676 64.3296C5.48596 63.4736 5.05151 61.9836 7.21747 59.8216C23.947 43.1719 43.5477 33.3634 67.6063 34.6125C73.1849 34.9041 78.7194 35.8361 83.744 38.702C86.4703 40.2617 88.7811 42.094 89.5304 45.3403C89.9774 47.2424 91.073 46.6084 91.8978 45.7968C94.259 43.5777 94.3723 40.7245 93.686 37.8207C93.1313 35.6831 92.4565 33.5789 91.6648 31.5184C88.4977 22.978 90.5252 16.0036 97.7786 10.5129C103.716 6.03663 110.554 3.31663 117.36 0.615655C120.817 -0.760195 122.945 0.184516 125.489 3.30396C129.267 7.93239 130.721 13.607 132.566 19.0914C133.826 22.8955 135.192 26.8139 135.154 30.9097C135.097 36.8126 132.081 41.1747 127.542 44.6492C124.394 47.0712 121.478 49.7215 119.678 53.4369C118.821 55.2249 118.626 56.6071 119.98 58.1921C121.333 59.7772 122.832 60.4493 124.847 59.9738C126.981 59.4665 129.103 58.8959 131.25 58.4711C141.211 56.5183 149.9 59.7075 157.261 66.0795C167.996 75.3934 173.776 87.3957 173.997 101.801C174.06 105.865 173.235 109.904 172.429 113.898C172.177 115.166 171.749 116.479 170.326 116.91C168.796 117.366 167.876 116.276 167.14 115.236C162.436 108.484 155.265 105.656 148.011 102.917C143.9 101.37 139.776 99.8037 135.966 96.7413C136.36 102.718 136.17 108.72 135.4 114.659C133.685 128.249 129.202 141.335 122.234 153.1C118.095 160.111 113.049 166.537 107.23 172.21C106.783 172.648 106.159 173.174 106.109 173.706C105.479 181.061 102.123 187.655 100.316 194.699C98.8364 200.469 99.0568 205.814 101.815 211.076C102.797 212.978 103.704 214.881 104.535 216.821C104.938 217.772 105.844 218.799 104.912 219.87C104.472 220.348 103.909 220.693 103.286 220.869C102.662 221.045 102.003 221.044 101.38 220.866C94.2508 219.453 87.5088 216.505 81.6158 212.224C74.9227 207.418 71.3589 200.773 70.6348 192.569C70.3956 189.843 69.5519 188.226 66.4226 188.663C65.2955 188.822 64.0803 188.308 62.9092 188.099C63.4066 187.008 62.6384 185.328 64.414 184.84C65.0436 186.038 66.2211 185.525 67.1152 185.595C76.6794 186.355 85.2866 183.356 93.5601 178.779C97.2309 176.737 99.8565 174.543 98.3705 169.706C97.382 166.536 97.999 162.985 96.6642 159.815L97.1868 158.712C96.6992 157.855 96.5614 156.841 96.8027 155.884L97.8038 156.442C97.8038 156.531 97.7094 156.638 97.7409 156.702C97.7723 156.765 97.8983 156.778 97.9801 156.822C98.8868 157.31 99.0694 156.48 99.4031 155.998C105.137 147.802 110.869 139.602 116.599 131.397C118.198 129.178 119.747 126.883 121.441 124.766C122.291 123.719 121.655 123.453 120.987 123.009C121.661 122.775 122.307 122.467 122.914 122.09C123.77 121.424 123.714 121.361 124.173 122.458C125.754 123.466 127.661 123.466 129.349 124.144C130.369 124.556 130.828 124.106 130.986 123.028C131.502 119.383 132.107 115.743 132.648 112.104C133.951 103.399 132.818 94.7885 131.666 86.1783C131.645 85.8153 131.512 85.4679 131.287 85.184C131.061 84.9001 130.754 84.6937 130.407 84.5932C130.356 84.1557 130.312 83.7183 130.268 83.2745C130.671 79.5273 128.43 76.6044 127.025 73.504C122.618 63.797 115.912 56.3027 105.87 52.1435C104.144 51.427 103.578 51.9089 103.219 53.4115L102.186 52.8155C102.438 51.4333 102.123 50.8564 100.505 50.4443C95.0271 49.0367 89.6185 49.3347 84.1343 50.2984C76.7172 51.6045 70.4334 55.4024 64.1936 59.327C64.1566 59.2423 64.1079 59.1633 64.0488 59.0925C63.9921 59.0354 63.8536 58.9466 63.8221 58.972C60.441 61.5715 56.5183 63.4736 53.8297 66.9735C53.0931 67.9309 52.2242 68.7171 52.3753 70.0549C52.0868 70.0786 51.8177 70.2102 51.6207 70.4238C51.4238 70.6373 51.3134 70.9174 51.3112 71.2088C50.0015 71.7034 49.0697 72.4769 49.1263 74.0429C47.9048 75.8056 46.6812 77.5639 45.4555 79.3181C44.7126 80.4276 43.7114 81.3724 43.3588 82.7228C40.5506 86.6602 38.6554 91.0667 36.6972 95.4542C36.332 96.2785 36.288 97.071 37.1758 97.2358C38.9576 97.5655 40.5191 98.897 42.4647 98.4468C42.5614 98.6496 42.7163 98.8185 42.9094 98.9316C43.1025 99.0446 43.3249 99.0966 43.5477 99.0809C46.0392 100.116 48.6274 100.898 51.2734 101.414H51.2356C52.199 102.181 53.4834 102.048 54.5035 102.606C56.235 103.5 57.1039 103.063 57.7146 101.205C58.4182 99.3346 59.2168 97.5019 60.1073 95.7142C60.1626 95.6777 60.2032 95.6225 60.2217 95.5586C60.2402 95.4946 60.2353 95.4261 60.208 95.3654C62.2732 91.6881 63.8158 87.757 65.4907 83.9021L65.5474 83.7246L65.8118 82.9955L65.774 83.0652C66.8003 81.087 68.2548 79.261 68.1163 76.8454C69.4511 76.6742 70.5656 76.8454 70.6915 78.5446C70.9056 79.876 71.0504 81.2265 71.8186 82.3868C72.7567 84.8215 72.9519 87.5225 74.4127 89.7733C74.8534 91.3457 75.3005 92.9434 75.7412 94.4905C75.2312 95.898 76.3709 96.8174 76.7675 97.9459C75.2123 104.971 73.7516 112.009 72.8638 119.161H71.34C71.6382 116.698 72.0585 114.252 72.5993 111.831C73.0149 110.297 72.6875 109.695 71.2708 109.295C67.2348 108.122 63.1421 107.057 59.2132 105.58C57.0787 104.781 58.0232 106.214 57.8406 106.924L56.6128 107.013C56.2539 105.516 55.6179 104.375 53.9368 103.931C50.9271 103.139 47.9426 102.219 44.9896 101.23C43.5855 100.755 42.9999 100.641 43.2707 102.536C44.914 114.063 46.3622 125.615 48.1126 137.123C48.3834 138.885 47.7033 141.086 49.5482 142.487L50.2219 143.178V144.224C49.5356 144.719 48.5093 144.566 48.0056 145.41C43.9696 149.708 39.9462 154.02 35.8976 158.299C35.035 159.212 34.2857 160.094 34.8146 161.47L34.185 161.501L33.9835 161.394L34.185 161.508C34.0108 162.012 33.9703 162.553 34.0675 163.078C34.1647 163.603 34.3962 164.093 34.739 164.5C35.7654 165.959 37.4276 167.442 36.2439 169.636L35.7528 168.958L35.2742 168.197C34.5061 167.759 34.5753 166.491 33.3287 166.295C32.6046 168.305 32.6361 170.169 34.4746 171.456C35.3309 172.052 36.7854 172.686 36.7161 170.479L39.2347 169.211L39.1213 173.25C38.2843 172.889 37.3712 172.743 36.4643 172.825C33.3727 173.313 31.1564 170.866 31.7797 167.804C32.7116 163.188 32.4094 161.609 29.7775 157.786C28.6504 159.39 28.6504 159.39 29.3304 162.281C30.3064 166.472 28.4112 168.552 24.3878 167.702C23.7581 167.569 23.1285 167.372 22.5681 167.886C19.4199 170.828 16.2717 173.776 12.7016 177.092C13.9 176.884 15.1085 176.74 16.3221 176.661C17.9151 176.661 19.3129 177.295 19.741 178.906C20.2762 180.928 19.3255 182.57 17.7199 183.718C15.7302 185.144 13.5265 185.55 11.2346 184.428C9.23232 183.445 9.76752 181.708 10.0634 180.066L10.5231 179.432L10.9638 178.766C11.1024 178.684 11.5179 178.722 11.1149 178.405C11.0709 178.531 11.0205 178.658 10.9764 178.779L10.1705 179.058L9.57863 179.495C7.96045 180.903 5.80078 181.664 4.46594 183.661C12.0972 186.089 19.5143 188.498 27.4793 188.403C30.6842 188.365 33.5175 188.492 35.035 184.599C36.0361 182.063 39.0395 182.228 40.154 184.447C36.5398 183.997 36.0928 184.269 35.268 187.617L38.5799 186.514C39.5747 186.184 40.4688 185.785 40.1225 184.447C40.3777 184.349 40.6489 184.299 40.9221 184.301C41.9925 184.529 43.1888 184.548 43.5099 183.401C43.894 182.044 42.4081 182.298 41.6903 181.943C40.2736 181.226 39.3606 179.983 39.9399 178.589C40.8151 176.49 40.0595 174.924 39.0962 173.269C40.6829 173.535 41.7658 175.171 43.5036 174.949L42.3514 177.403C41.9421 177.263 41.5832 176.997 41.2369 177.618C41.0892 177.825 40.9843 178.06 40.9284 178.308C40.8724 178.557 40.8666 178.814 40.9112 179.065C40.9558 179.315 41.05 179.554 41.1882 179.768C41.3263 179.981 41.5056 180.165 41.7155 180.307C42.9747 181.366 44.3663 181.657 45.7452 180.434C46.1167 179.888 45.084 177.523 47.0737 179.121C50.6501 181.987 54.1823 184.688 58.9802 185.062C60.4095 185.125 60.5354 186.355 60.1639 187.573ZM44.1648 65.6801C43.6165 65.2594 42.9462 65.0316 42.257 65.0316C41.5677 65.0316 40.8974 65.2594 40.3491 65.6801L39.6188 66.1492C38.1391 66.4219 37.6606 67.5378 37.3709 68.4952C39.9399 68.4952 42.4647 68.4952 44.9896 68.4952C45.3989 68.4952 45.9278 68.7234 46.1985 68.2098C46.4693 67.6963 46.1418 67.3095 45.8081 67.0179C45.2729 66.5487 44.9896 65.7498 44.1522 65.6674L44.1648 65.6801ZM12.9409 179.051C11.6816 179.895 10.2775 180.896 11.2346 182.551C12.1916 184.206 14.0176 183.971 15.6421 183.344C16.2536 183.14 16.7734 182.724 17.1091 182.171C18.1606 181.48 19.0799 180.573 18.5132 179.254C17.9465 177.935 16.6243 178.088 15.4028 178.1C14.4928 178.096 13.6143 178.435 12.9409 179.051ZM9.71085 61.3243C16.8762 63.3595 23.6196 65.1284 30.2686 67.2207C33.3601 68.1972 35.7024 68.2542 38.1454 65.5786C40.8466 62.6177 44.3096 62.9347 46.7085 66.0288C47.8922 67.5568 48.9878 67.5378 50.4864 66.9671C51.7477 66.41 52.8768 65.5887 53.7983 64.5578C62.3614 56.1252 72.0578 49.7341 84.021 47.3438C84.9466 47.16 86.3444 47.3438 86.6529 46.3294C87.037 45.0613 85.9162 44.1103 85.0599 43.2987C84.3129 42.6141 83.4837 42.0262 82.5917 41.5488C78.6691 39.3614 74.3434 38.5561 69.9989 37.8524C66.5422 37.3008 63.4758 37.491 61.3162 40.7943C60.888 41.4283 60.0569 41.8468 59.358 42.3096C55.4542 44.9408 52.7908 44.4907 50.4171 40.4836C49.5293 38.9809 48.7297 39.0634 47.313 39.4375C42.0564 40.7737 36.9568 42.6718 32.1009 45.0994C23.8729 49.3608 16.3188 54.8287 9.68566 61.3243H9.71085ZM120.389 3.24055C119.69 3.76045 119.955 4.36913 119.86 4.87635C119.723 5.9863 119.265 7.03118 118.543 7.88113C117.821 8.73108 116.867 9.34861 115.799 9.65696C113.658 10.3354 112.311 9.15607 111.341 7.37444C110.711 6.1888 109.924 6.92428 109.251 7.24764C105.22 9.06413 101.423 11.3655 97.9424 14.1015C93.8749 17.4429 92.1119 24.4363 93.9693 29.3183C94.473 30.6498 95.153 31.5057 96.809 31.2204C98.9813 30.8717 100.927 31.3282 101.607 33.8009C102.312 36.3941 101.676 38.702 99.2079 39.8876C96.7397 41.0733 96.3305 43.229 95.8708 45.4861C95.7764 45.9363 95.5938 46.3167 96.1164 46.6781C97.7912 47.832 101.783 47.3121 103.118 45.6763C104.598 43.8884 106.461 43.0451 108.728 43.5143C110.995 43.9835 111.801 45.8475 112.336 47.9525C112.701 49.3854 112.569 50.9198 113.343 52.2576C113.562 52.6685 113.866 53.0265 114.236 53.3068C114.606 53.5871 115.032 53.783 115.484 53.8807C116.561 54.0519 116.51 52.8155 116.926 52.1815C117.732 50.9515 118.33 49.5376 119.306 48.4661C121.136 46.5478 122.206 44.0223 122.316 41.3649C122.549 37.5607 124.677 36.2419 128.411 37.0345C129.758 37.3198 130.476 37.1423 130.961 35.8235C131.641 34.0993 131.999 32.2638 132.018 30.4088C132.018 29.35 131.616 28.8111 130.514 29.0964C127.743 29.8065 125.558 29.1598 124.45 26.313C123.342 23.4662 124.167 21.1012 126.648 19.2816C127.275 18.8759 127.748 18.2691 127.99 17.5591C128.232 16.8492 128.23 16.0778 127.982 15.3696C127.498 13.7782 127.051 12.1677 126.452 10.6207C125.237 7.46954 123.487 4.7432 120.364 3.24055H120.389ZM169.514 113.391C172.341 101.814 170.943 91.4535 165.698 81.5752C165.504 81.2147 165.217 80.9139 164.866 80.7051C164.516 80.4963 164.115 80.3872 163.708 80.3896C161.001 80.1043 158.772 78.0247 159.194 75.5076C159.823 71.7794 157.305 70.2768 155.221 68.3113C154.352 67.487 153.527 67.6075 152.501 68.1845C147.992 70.7206 145.354 69.4843 144.189 64.2979C143.818 62.6684 143.094 61.7237 141.325 61.4764C137.307 60.8964 133.221 61.0273 129.248 61.8632C124.337 62.9347 123.581 61.7237 126.937 67.0496C127.882 68.5522 128.197 70.5811 130.167 71.3229C134.864 73.1173 136.212 75.6344 134.978 80.5101C133.19 87.5542 134.707 92.2206 140.487 96.0058C141.746 96.8237 142.678 97.2739 144.202 96.3672C147.495 94.4651 149.869 95.4479 151.411 99.0745C151.896 100.209 152.406 101.256 153.634 101.737C159.874 104.109 165.361 108.136 169.514 113.391ZM33.3853 157.545C37.5913 153.633 41.7469 149.715 45.9781 145.866C46.5751 145.362 47.0247 144.704 47.2787 143.962C47.5327 143.221 47.5815 142.424 47.42 141.656C46.4315 134.79 45.5311 127.91 44.6118 121.044C43.7555 114.805 42.8425 108.579 42.0114 102.34C41.5769 99.1379 38.8191 99.4423 36.7791 98.8146C34.5816 98.1425 34.7579 100.374 34.3928 101.427C30.0446 113.677 28.3277 126.717 29.3556 139.684C29.8593 145.98 31.062 152.111 33.3853 157.545ZM100.127 173.783C100.494 173.655 100.848 173.494 101.185 173.301C115.793 161.356 124.526 145.67 129.771 127.764C129.909 127.42 129.932 127.039 129.834 126.68C129.736 126.321 129.523 126.005 129.229 125.78C128.703 125.322 128.087 124.978 127.422 124.771C126.757 124.564 126.057 124.498 125.365 124.577C124.674 124.657 124.006 124.879 123.404 125.231C122.802 125.584 122.28 126.057 121.869 126.623C114.848 136.482 107.928 146.411 100.801 156.188C99.9742 157.224 99.3746 158.425 99.0414 159.711C98.7083 160.997 98.6491 162.34 98.8679 163.651C99.3779 166.935 99.6991 170.238 100.121 173.783H100.127ZM102.91 176.357C96.9223 179.654 96.8216 179.761 94.4478 185.163C94.2426 185.68 93.9985 186.18 93.7175 186.66C91.9545 189.443 88.7748 189.665 86.974 186.901C86.1618 185.633 85.5007 185.861 84.5184 186.203C83.0891 186.704 82.7113 187.972 82.3776 189.234C81.6032 192.201 79.8591 194.712 76.9879 195.295C73.6319 195.967 74.4253 197.59 75.269 199.537C80.1928 210.892 90.4118 214.5 101.046 217.854C101.128 217.258 101.21 217.068 101.16 216.909C101.04 216.473 100.882 216.049 100.688 215.641C98.465 211.165 96.192 206.708 96.1353 201.521C96.1353 200.887 95.6945 200.539 95.3042 200.146C91.986 196.804 92.3826 193.704 96.5194 191.32C97.5205 190.743 98.4083 190.179 98.7798 189.044C100.089 185.005 101.399 180.979 102.904 176.357H102.91ZM69.0356 79.7492C65.3522 87.8078 61.9584 95.245 58.5521 102.682C58.0735 103.735 58.7598 103.95 59.5154 104.191C63.5514 105.459 67.5874 106.727 71.6234 107.945C72.3034 108.148 73.1534 108.49 73.3612 107.342C73.9908 103.804 75.6216 100.197 74.9416 96.7286C73.8271 91.073 71.3841 85.7472 69.0356 79.7492ZM81.2569 187.326C78.8894 187.858 76.6794 188.34 74.4882 188.866C74.3275 188.88 74.1711 188.925 74.0281 189.001C73.8852 189.076 73.7586 189.179 73.656 189.304C73.5533 189.43 73.4765 189.574 73.4302 189.73C73.3839 189.886 73.369 190.049 73.3864 190.21C73.4556 191.586 73.1345 193.342 74.1671 194.141C75.1997 194.94 76.799 194.053 77.945 193.342C80.0165 192.074 81.4269 190.363 81.2569 187.326ZM51.2356 38.5308C51.6323 40.6738 52.4949 42.335 54.7805 42.5569C57.3746 42.8295 61.1273 40.0652 62.0088 37.3642L51.2356 38.5308ZM129.059 27.9551C129.922 27.5811 131.918 28.4433 131.32 26.1038C130.822 24.17 130.117 22.2996 129.506 20.3975C129.298 19.7634 129.04 19.0787 128.203 19.5796C127.276 20.0857 126.518 20.8565 126.025 21.7952C125.532 22.7338 125.326 23.7983 125.432 24.8547C125.577 26.8836 126.906 27.8727 129.059 27.9551ZM111.757 51.5094C110.888 48.7324 111.278 45.6763 108.388 44.9028C106.354 44.3639 104.27 45.334 103.194 47.7877L111.757 51.5094ZM97.4575 39.5326C99.1827 38.6322 100.429 37.4022 100.562 35.3289C100.627 34.7733 100.508 34.2115 100.223 33.731C99.9387 33.2505 99.5042 32.8783 98.9876 32.6723C98.537 32.4314 98.029 32.321 97.5199 32.3535C97.0107 32.386 96.5206 32.56 96.1038 32.8562C95.0838 33.598 95.9905 34.6125 96.192 35.348C96.5634 36.6984 96.4438 38.2645 97.4575 39.5009V39.5326ZM145.486 62.5226C144.983 63.7906 145.486 64.8622 145.915 65.8386C146.1 66.3365 146.395 66.7855 146.779 67.1513C147.162 67.517 147.623 67.7901 148.127 67.9496C148.631 68.1091 149.164 68.1509 149.686 68.0719C150.208 67.9928 150.706 67.795 151.141 67.4934C152.073 66.8023 152.753 66.1556 151.103 65.4011C149.201 64.5008 147.369 63.4673 145.486 62.4909V62.5226ZM123.329 44.4907L129.45 38.7844C124.853 37.4022 123.021 39.0697 123.329 44.459V44.4907ZM93.9882 182.076C92.1811 182.963 90.6952 183.61 89.2974 184.409C88.5041 184.865 87.2699 185.335 88.1388 186.647C88.8755 187.763 89.9081 188.181 91.1548 187.332C92.0456 186.773 92.7757 185.989 93.2727 185.058C93.7698 184.127 94.0164 183.082 93.9882 182.025V182.076ZM118.229 3.5005C116.599 4.13454 115.169 4.76857 113.734 5.30115C112.852 5.64353 112.374 6.16978 112.676 7.20325C112.788 7.61145 113.038 7.96742 113.383 8.20945C113.728 8.45148 114.146 8.56432 114.565 8.52839C116.888 8.56009 118.198 6.91794 118.229 3.44978V3.5005ZM97.9424 192.049C94.259 193.755 93.0815 196.589 95.0082 198.453C95.5371 198.96 96.3179 199.93 96.6768 198.282C97.0735 196.341 97.4449 194.389 97.9424 192.049ZM150.543 100.628C148.78 96.5891 147.249 96.0248 144.202 98.0411L150.543 100.628ZM27.4226 161.692L25.1056 164.862C24.6333 165.496 24.3815 166.13 25.2567 166.694C25.5496 166.92 25.9185 167.021 26.2845 166.976C26.6506 166.931 26.9845 166.743 27.2148 166.453C28.5245 165.071 28.3482 163.556 27.4226 161.692ZM160.56 73.5611C160.51 77.8027 161.29 78.8172 164.099 78.7348L160.56 73.5611ZM133.057 79.521C133.271 77.0229 132.988 75.2603 130.539 73.9732L133.057 79.521ZM46.6078 182.234L46.4504 181.816C46.3118 181.873 46.0978 181.892 46.0537 181.993C46.0096 182.095 46.1355 182.26 46.1922 182.399L46.6078 182.234ZM12.3427 177.517L12.4498 177.339H12.2483L12.3427 177.517Z" fill="#15110E"/>
<path d="M76.7421 97.9522C76.3265 96.8237 75.2058 95.9043 75.7158 94.4968L76.7736 95.7648C79.8525 98.8652 84.2852 98.8335 87.9245 100.647C88.4282 100.894 88.6864 100.285 88.8123 99.8353C91.2049 91.2505 93.585 82.6594 96.0532 73.7893C92.2753 74.4233 88.7241 74.6579 85.3178 75.7357C83.1995 75.7482 81.0969 76.1035 79.0906 76.7882C76.2069 76.9911 73.2665 76.9277 70.6849 78.5699C70.559 76.877 69.4257 76.6995 68.1097 76.8707L65.3015 69.015L56.6629 81.2835C55.3538 82.5186 54.286 83.9895 53.5146 85.6203C51.1913 87.8458 49.8438 90.813 47.8479 93.2667L47.7849 93.4126C47.1931 94.1227 46.4123 94.6806 46.2486 95.7014H46.3242C45.9401 95.7014 45.789 95.9741 45.6945 96.3355L45.7323 96.2721L43.5411 99.1379C43.3183 99.1537 43.0959 99.1017 42.9028 98.9886C42.7097 98.8755 42.5548 98.7066 42.4582 98.5038C45.6945 94.0339 48.402 89.2026 52.0476 84.999C53.7791 82.9954 55.5547 80.827 56.4236 78.1768V78.1134C58.2432 77.1623 59.087 75.4568 59.8299 73.6751H59.7859C60.2203 73.6751 60.3462 73.4215 60.277 73.0411V73.1045C60.6988 73.1045 60.787 72.8192 60.8185 72.4705V72.5022C61.8891 71.4731 62.7959 70.2841 63.507 68.977C63.7274 68.1908 64.1933 67.3729 64.1367 66.6184C63.9793 65.2235 63.8974 63.7145 62.5437 62.7381C61.0955 61.6856 60.2266 63.1692 59.4522 63.6765C56.773 65.4707 54.4919 67.8044 52.7528 70.5303L52.3498 70.1436C52.1987 68.8058 53.0676 68.0196 53.8043 67.0622C56.4928 63.5623 60.4155 61.6602 63.7967 59.0607C63.7967 59.0607 63.9667 59.1241 64.0233 59.1812C64.0824 59.2521 64.1312 59.331 64.1682 59.4158C63.5385 61.9519 65.3078 63.9681 65.7737 66.2696C65.9186 66.9798 66.6615 66.6374 67.1778 66.5042L87.8678 61.2988C88.6108 61.2037 89.4356 61.4193 90.0464 60.7662C90.8145 60.7092 91.6268 60.8233 92.2438 60.1893V60.221C93.3761 59.9583 94.5216 59.7572 95.6754 59.6186C99.1384 59.3714 101.191 57.6722 101.613 54.1216C101.721 53.6783 101.889 53.2517 102.11 52.8535L103.143 53.4495C102.91 54.4069 102.74 55.3833 102.425 56.3153C101.928 57.7799 101.72 59.1368 103.187 60.1893C105.076 61.8378 106.077 64.152 107.72 65.978C110.031 69.2517 112.555 72.3674 115.276 75.3046C117.669 78.424 120.149 81.4737 122.41 84.6819C123.94 86.8567 125.344 87.1674 127.29 85.2779C128.199 84.5281 129.175 83.8638 130.205 83.2934C130.249 83.7372 130.293 84.1747 130.343 84.6122L127.926 86.6411L127.296 87.0659C125.212 87.7887 124.777 89.3548 124.746 91.4154C124.595 101.775 124.324 112.123 124.116 122.483C123.669 121.386 123.726 121.449 122.857 122.115C122.252 122.491 121.608 122.799 120.937 123.035C117.241 122.045 113.538 121.132 109.874 120.029C108.772 119.7 107.985 119.547 107.355 120.701C105.24 124.448 103.086 128.177 100.945 131.905C99.6862 132.799 100.316 134.732 98.8739 135.519C97.9564 136.397 97.2743 137.495 96.8912 138.709C96.5081 139.924 96.4364 141.217 96.6828 142.468C97.1342 145.098 97.4348 147.753 97.5832 150.418C97.6461 152.447 98.5402 154.457 97.7784 156.511L96.7772 155.954C96.2735 151.268 95.7257 146.583 95.2976 141.891C95.1528 140.331 94.6679 139.672 92.9553 139.678C88.913 139.678 84.8707 139.507 80.8347 139.304C79.2984 139.221 78.4547 139.748 78.014 141.25C76.635 145.936 75.2561 150.628 73.7072 155.262C73.1279 157.006 73.8772 157.038 75.1869 157.126C82.5159 157.64 89.8386 158.223 97.1613 158.781L96.6387 159.885C89.3727 159.935 82.157 158.902 74.935 158.559C73.2791 158.483 72.6242 158.788 72.1079 160.519C69.6649 168.685 66.9952 176.781 64.4137 184.91C62.6381 185.398 63.4063 187.078 62.9089 188.169C61.8889 188.46 61.0577 187.858 60.1511 187.604C60.5351 186.387 60.4092 185.157 58.9862 185.068C54.1884 184.694 50.6561 181.993 47.0797 179.127C45.0901 177.53 46.1227 179.895 45.7512 180.44L42.3574 177.409L43.5097 174.955L43.7174 174.765L45.7386 176.274C49.8769 180.384 55.0487 183.282 60.6988 184.656C61.7189 184.929 62.9152 185.423 63.4 183.788C64.9237 178.66 66.4538 173.535 67.9901 168.412C68.9765 165.559 69.9651 162.706 70.9557 159.853C71.3146 158.813 70.9998 158.198 70.0175 157.621C63.4189 153.741 56.858 149.784 50.2846 145.853C49.655 144.934 48.8364 145.27 48.0305 145.448C48.5342 144.604 49.5605 144.757 50.2468 144.262L61.1459 150.514L71.642 157.126C72.7942 153.551 73.9213 150.152 74.9917 146.722C75.7535 144.281 77.5543 141.441 76.8806 139.475C76.1313 137.288 72.6872 136.609 70.3764 135.341C70.0553 135.164 69.7468 134.967 69.4257 134.79C62.2792 130.77 62.2792 130.77 56.8329 136.806C56.7774 136.878 56.7348 136.96 56.7069 137.047L54.6417 139.101L53.2376 140.464L50.2531 143.178L49.5794 142.487C52.098 139.038 55.2462 136.216 58.2181 133.211C62.1722 129.21 62.317 128.849 60.2329 123.409C59.3703 122.305 59.8614 120.936 59.5214 119.725C58.5644 115.498 57.6052 111.261 56.644 107.013L57.8718 106.924C59.597 113.898 61.3222 120.917 63.1293 128.265C66.0004 124.994 69.0479 122.439 71.3146 119.173H72.8383L76.7736 120.238L76.9876 120.308H77.2143L81.1433 121.709L87.6726 123.65C89.5616 124.664 91.6268 125.121 94.1642 125.843C93.3772 123.941 94.6616 122.844 94.5672 121.443L94.5105 121.519C95.8265 119.085 96.2043 116.371 96.8087 113.721L96.7583 113.752C97.7028 111.971 97.8602 109.948 98.5465 108.09C99.0691 106.696 98.7606 106.188 97.4006 105.719C94.3342 104.73 91.3183 103.582 88.2834 102.505C88.2754 102.48 88.2617 102.457 88.2435 102.439C88.2252 102.421 88.2029 102.407 88.1783 102.399C88.1537 102.391 88.1276 102.389 88.1021 102.393C88.0766 102.397 88.0524 102.407 88.0315 102.422L76.7421 97.9522ZM98.7795 113.581C98.1499 114.291 97.6839 115.001 99.0376 115.413C101.411 116.136 103.785 116.853 106.178 117.518C106.807 117.683 107.437 117.766 107.664 116.815C108.923 110.747 110.258 104.686 111.681 98.041C108.778 100.133 106.291 101.687 104.346 103.944C103.966 103.997 103.605 104.139 103.291 104.359C102.977 104.58 102.719 104.872 102.538 105.212C101.279 105.022 100.612 105.808 100.335 106.791C99.7617 109.01 98.7606 111.178 98.811 113.581H98.7795ZM101.09 128.164C101.72 127.264 102.35 126.389 102.935 125.457C106.996 118.774 106.99 118.768 99.3525 116.992C99.2643 116.992 99.1699 116.992 99.0817 116.935C98.0113 116.517 97.5328 116.834 97.1109 118C94.9584 123.93 94.7138 130.392 96.412 136.47C98.0491 133.426 100.001 131.023 101.134 128.107L101.09 128.164ZM72.1268 134.346C73.2602 135.474 74.8343 135.867 76.0998 136.755C77.4788 137.719 77.9888 136.996 78.3603 135.772C78.9899 133.661 79.6195 131.537 80.2492 129.432C82.5348 121.779 82.8622 124.163 75.9047 121.608C74.4565 121.069 72.4794 120.701 71.1635 122.451C68.1475 123.852 66.6489 126.889 64.3193 128.988C63.463 129.768 64.1808 130.301 64.8608 130.649C67.2786 131.886 69.7153 133.103 72.1268 134.333V134.346ZM72.7565 66.6945L66.3845 68.102C67.2534 70.2577 68.1349 72.4198 69.0101 74.5818C68.9534 77.1813 70.8549 76.4839 72.1268 76.262C79.7203 75.0447 87.2886 73.7259 94.8757 72.4578C95.8769 72.293 96.5506 71.995 96.8465 70.9108C97.8161 67.3538 98.855 63.8159 99.9506 60.0054L72.7565 66.6945ZM100.643 75.8372C101.487 78.9249 103.716 81.144 105.485 83.6485C106.413 84.5554 107.128 85.6604 107.576 86.882C108.514 88.353 109.414 89.8556 110.403 91.3203C113.135 95.3464 113.154 95.34 117.241 92.4869C118.147 91.8528 119.06 91.2188 119.948 90.5848C123.096 88.2769 123.21 87.8077 120.792 84.739C115.692 78.2254 110.554 71.7498 105.378 65.3122C104.627 64.3802 103.764 63.5454 102.809 62.8269C101.846 62.0977 100.92 61.7109 100.435 63.5306C99.7554 66.1111 98.8299 68.6029 98.4458 71.2785C97.5265 73.6054 99.831 74.3345 100.65 75.8245L100.643 75.8372ZM123.222 94.6933C123.669 93.0942 123.747 91.4134 123.449 89.7796C121.843 90.9272 120.527 91.8655 119.218 92.8102C118.429 93.6404 117.494 94.3156 116.46 94.8011C114.766 95.5176 113.205 96.7983 113.192 99.0491C111.303 104.996 110.422 111.178 108.999 117.233C108.766 118.235 109.402 118.501 110.182 118.685C112.304 119.218 114.413 119.788 116.523 120.34L116.668 120.422L116.838 120.391C118.141 121.297 119.74 121.367 121.182 121.893C122.108 122.229 122.718 121.969 122.712 120.758C122.712 118.387 122.788 116.016 122.832 113.645C123.417 107.304 123.197 100.996 123.228 94.6806L123.222 94.6933ZM97.4069 74.3662C95.0079 82.7164 92.9112 90.458 90.4808 98.1044C89.6371 100.805 90.2227 101.966 92.8987 102.543C94.5774 103.004 96.2141 103.609 97.791 104.35C98.24 104.585 98.7446 104.692 99.2498 104.658C99.755 104.625 100.241 104.452 100.656 104.159C103.943 101.82 107.254 99.4993 110.554 97.1851C111.549 96.4876 111.731 95.7331 110.982 94.6489C106.593 88.055 102.211 81.4801 97.4258 74.3345L97.4069 74.3662ZM87.0493 138.061V138.188C89.0641 138.188 91.0853 138.15 93.1001 138.188C94.5357 138.226 95.0709 137.846 94.7246 136.241C94.3354 134.345 94.1246 132.415 94.095 130.478C94.032 127.942 92.9364 126.591 90.4305 126.148C88.8161 125.824 87.2397 125.331 85.7271 124.677C84.0585 123.992 83.1203 124.131 82.667 126.16C82.1255 128.582 81.2629 130.935 80.4947 133.3C78.9647 138.017 78.9584 138.017 84.0081 138.042L87.0493 138.061Z" fill="#2B120D"/>
<path d="M9.68555 61.3243C16.3187 54.8287 23.8728 49.3608 32.1007 45.0994C36.9577 42.6805 42.0573 40.791 47.3129 39.4629C48.7295 39.0888 49.5292 39.0064 50.417 40.509C52.7907 44.5161 55.4541 44.9473 59.3579 42.335C60.0442 41.8722 60.8879 41.4791 61.3161 40.8197C63.4757 37.5164 66.5421 37.3262 69.9988 37.8778C74.3685 38.5816 78.6941 39.3868 82.5916 41.5742C83.4836 42.0516 84.3127 42.6395 85.0598 43.3241C85.9161 44.1357 87.0369 45.0931 86.6528 46.3548C86.3443 47.3756 84.9465 47.1854 84.0209 47.3693C72.0577 49.7596 62.3424 56.1506 53.7981 64.5832C52.8766 65.6141 51.7476 66.4354 50.4862 66.9926C48.9562 67.5632 47.8606 67.5822 46.7084 66.0542C44.3095 62.9601 40.8464 62.6431 38.1453 65.604C35.7023 68.2797 33.36 68.2226 30.2685 67.2462C23.5943 65.1349 16.8509 63.3596 9.68555 61.3243ZM66.0258 51.3003C69.2657 51.2593 72.3727 49.997 74.7337 47.7624C75.6467 46.9381 76.2952 45.8603 76.037 44.5922C75.7411 43.1593 74.4944 42.8106 73.317 42.6457C71.6773 42.4375 70.0128 42.5625 68.4219 43.0133C66.8311 43.4642 65.3461 44.2318 64.055 45.2706C62.7013 46.2851 61.3035 47.3819 61.9205 49.3474C62.5376 51.3129 64.3446 51.2876 66.0258 51.3003ZM49.3844 46.228C47.1659 46.2225 45.0054 46.941 43.2265 48.2759C42.005 49.1509 41.0164 50.3365 41.369 51.9914C41.7216 53.6462 43.2265 54.1534 44.6998 54.369C47.0799 54.724 49.2207 53.8744 51.2292 52.7205C52.7907 51.8202 54.2326 50.6789 53.6093 48.5739C52.9859 46.4689 51.1914 46.2787 49.3844 46.2217V46.228ZM23.4999 59.1813C26.5095 59.1813 28.7133 58.2619 30.4889 56.3281C31.3263 55.4215 31.8993 54.4261 31.4459 53.1009C30.9926 51.7758 29.6829 51.4905 28.5244 51.4461C26.116 51.3975 23.7755 52.2516 21.9572 53.8427C20.868 54.7304 19.9487 55.8589 20.4902 57.425C21.0317 58.9911 22.5176 59.0798 23.4999 59.1749V59.1813Z" fill="#63799B"/>
<path d="M120.363 3.24121C123.512 4.74387 125.237 7.47021 126.452 10.6213C127.082 12.1684 127.497 13.7915 127.982 15.3703C128.229 16.0784 128.232 16.8499 127.99 17.5598C127.747 18.2697 127.274 18.8766 126.647 19.2822C124.166 21.1019 123.329 23.4225 124.45 26.3137C125.57 29.2048 127.743 29.8072 130.513 29.097C131.615 28.8117 132.012 29.3507 132.018 30.4095C131.999 32.2645 131.64 34.1 130.96 35.8241C130.475 37.1429 129.758 37.3205 128.41 37.0351C124.676 36.2426 122.548 37.5804 122.315 41.3656C122.202 44.0308 121.122 46.5617 119.28 48.4794C118.304 49.5509 117.706 50.9648 116.9 52.1948C116.485 52.8289 116.535 54.0653 115.458 53.8941C115.006 53.7963 114.58 53.6005 114.21 53.3202C113.841 53.0399 113.536 52.6818 113.318 52.2709C112.543 50.9331 112.688 49.3988 112.31 47.9659C111.775 45.8799 111.007 44.0285 108.702 43.5276C106.398 43.0267 104.572 43.9017 103.092 45.6897C101.745 47.3255 97.7656 47.8454 96.0907 46.6914C95.5681 46.33 95.7507 45.9496 95.8452 45.4995C96.3048 43.2423 96.7078 41.0929 99.1822 39.901C101.657 38.709 102.286 36.4074 101.581 33.8142C100.901 31.3415 98.9556 30.885 96.7833 31.2337C95.1274 31.4937 94.4473 30.6377 93.9436 29.3316C92.0547 24.4432 93.8492 17.4499 97.9167 14.1149C101.405 11.3771 105.211 9.07567 109.25 7.26098C109.924 6.93763 110.705 6.20215 111.341 7.38779C112.31 9.16942 113.658 10.3487 115.798 9.6703C116.866 9.36195 117.82 8.74442 118.542 7.89447C119.264 7.04453 119.722 5.99964 119.86 4.8897C119.929 4.36979 119.664 3.76112 120.363 3.24121ZM107.55 12.9419C103.949 13.4555 101.04 15.0913 99.3648 18.5848C97.9796 21.4823 99.3208 23.5239 102.513 23.3527C105.705 23.1815 109.603 20.0811 110.541 17.0124C111.252 14.8123 109.905 12.9039 107.55 12.9419ZM121.868 31.126C121.838 30.0009 121.37 28.9328 120.564 28.1532C119.758 27.3735 118.679 26.945 117.561 26.9604C114.205 26.9604 110.447 30.3398 110.535 33.231C110.561 34.3018 111.003 35.3196 111.766 36.0662C112.528 36.8129 113.551 37.229 114.615 37.2253C117.876 37.2063 121.868 33.8333 121.868 31.126Z" fill="#63799B"/>
<path d="M169.513 113.391C165.36 108.136 159.873 104.109 153.633 101.737C152.405 101.256 151.895 100.209 151.41 99.0745C149.861 95.4478 147.494 94.4714 144.201 96.3672C142.677 97.2485 141.733 96.8237 140.486 96.0058C134.706 92.2016 133.189 87.5541 134.977 80.51C136.236 75.6343 134.863 73.1172 130.166 71.3229C128.221 70.5811 127.881 68.5522 126.936 67.0495C123.58 61.7237 124.336 62.9347 129.247 61.8631C133.219 61.0273 137.306 60.8964 141.324 61.4764C143.093 61.7237 143.842 62.6684 144.188 64.2978C145.353 69.4842 147.966 70.7206 152.5 68.1844C153.526 67.6075 154.351 67.487 155.22 68.3113C157.291 70.2768 159.822 71.7794 159.193 75.5075C158.771 78.0437 161 80.1042 163.707 80.3896C164.114 80.3872 164.515 80.4962 164.865 80.7051C165.215 80.9139 165.503 81.2147 165.697 81.5752C170.942 91.4534 172.34 101.814 169.513 113.391ZM148.105 82.5263C150.308 82.5263 151.152 81.3279 150.586 79.0454C149.685 75.4695 143.829 70.3021 140.209 70.0168C138.484 69.8837 137.01 70.4606 137.136 72.5529C137.401 76.5727 144.056 82.577 148.13 82.5263H148.105ZM167.391 92.9751C167.419 90.9223 166.677 88.9343 165.313 87.4083C163.613 85.7598 161.648 86.0959 160.603 88.2008C159.344 90.737 159.923 94.8138 161.781 96.792C163.525 98.637 165.426 98.3834 166.723 96.1897C167.226 95.1963 167.464 94.0889 167.416 92.9751H167.391ZM149.458 92.303C151.927 92.4489 154.76 91.1111 154.622 89.7225C154.351 87.0152 151.958 87.1103 150.107 86.5524C150.015 86.5427 149.922 86.5427 149.83 86.5524C147.179 86.3431 144.409 87.6239 144.295 89.0885C144.182 90.5531 146.72 92.1382 149.484 92.303H149.458Z" fill="#63799B"/>
<path d="M33.384 157.545C31.0607 152.111 29.8581 145.955 29.348 139.684C28.3202 126.716 30.037 113.677 34.3852 101.427C34.7504 100.374 34.5741 98.1423 36.7715 98.8143C38.8115 99.4484 41.5694 99.1377 42.0038 102.34C42.8349 108.578 43.7479 114.805 44.6042 121.044C45.5424 127.91 46.4239 134.789 47.4124 141.656C47.5739 142.423 47.5251 143.221 47.2711 143.962C47.0171 144.704 46.5675 145.362 45.9706 145.866C41.7457 149.714 37.59 153.633 33.384 157.545Z" fill="#63799B"/>
<path d="M100.121 173.782C99.6993 170.238 99.3781 166.935 98.8618 163.638C98.6431 162.327 98.7022 160.985 99.0353 159.698C99.3685 158.412 99.9681 157.212 100.795 156.175C107.941 146.411 114.861 136.47 121.869 126.623C122.28 126.06 122.802 125.589 123.402 125.239C124.002 124.888 124.668 124.667 125.357 124.587C126.046 124.508 126.744 124.573 127.407 124.778C128.07 124.984 128.684 125.325 129.211 125.78C129.505 126.005 129.717 126.321 129.815 126.68C129.913 127.038 129.891 127.42 129.752 127.764C124.507 145.669 115.774 161.368 101.166 173.301C100.833 173.493 100.483 173.654 100.121 173.782Z" fill="#63799B"/>
<path d="M40.1353 184.428C39.0208 182.209 36.0174 182.044 35.0163 184.58C33.4863 188.466 30.6529 188.34 27.4606 188.384C19.4957 188.479 12.0785 186.07 4.44727 183.641C5.7947 181.644 7.94177 180.883 9.55994 179.482L10.0448 180.072C9.74884 181.714 9.21364 183.451 11.2159 184.434C13.5078 185.556 15.7115 185.15 17.7012 183.724C19.3068 182.576 20.2575 180.934 19.7223 178.912C19.2942 177.295 17.8964 176.654 16.3034 176.667C15.0898 176.746 13.8813 176.89 12.683 177.098C16.2341 173.782 19.3886 170.834 22.5494 167.892C23.1035 167.379 23.7332 167.575 24.3691 167.708C28.3925 168.558 30.2877 166.478 29.3118 162.287C28.6318 159.396 28.6318 159.396 29.7588 157.792C32.3781 161.596 32.6929 163.194 31.7611 167.81C31.1314 170.872 33.3541 173.319 36.4456 172.831C37.3526 172.749 38.2656 172.895 39.1027 173.256V173.224C40.066 174.879 40.8216 176.445 39.9464 178.544C39.3671 179.939 40.2801 181.181 41.6968 181.898C42.4146 182.253 43.9005 181.999 43.5164 183.356C43.1953 184.504 41.999 184.485 40.9286 184.256C40.6554 184.255 40.3842 184.304 40.129 184.402L40.1353 184.428ZM31.4588 177.295C31.4588 174.822 29.5699 172.647 27.5928 172.736C25.9117 172.812 23.3491 176.147 23.305 178.322C23.2672 180.351 25.0806 182.526 26.8751 182.589C29.2362 182.678 31.4777 180.091 31.4588 177.295Z" fill="#63799B"/>
<path d="M102.902 176.357C101.397 180.98 100.087 185.006 98.7715 189.038C98.4 190.173 97.5122 190.737 96.511 191.314C92.3743 193.698 91.9776 196.799 95.2958 200.14C95.6862 200.533 96.1207 200.894 96.127 201.516C96.1836 206.702 98.4566 211.159 100.679 215.636C100.874 216.043 101.032 216.468 101.152 216.904C101.202 217.062 101.152 217.252 101.038 217.848C90.4035 214.494 80.1845 210.874 75.2607 199.531C74.417 197.585 73.6236 195.962 76.9796 195.29C79.8823 194.706 81.5949 192.196 82.3693 189.228C82.703 187.96 83.0808 186.692 84.5101 186.198C85.4923 185.855 86.1535 185.64 86.9657 186.895C88.7665 189.659 91.9462 189.431 93.7092 186.654C93.9902 186.175 94.2343 185.675 94.4395 185.158C96.8133 179.762 96.914 179.654 102.902 176.357ZM83.9623 204.401C87.2994 204.401 90.2587 201.928 90.3532 199.094C90.4224 196.501 87.7213 194.022 84.7871 194.022C81.2863 194.022 78.4278 196.456 78.39 199.5C78.3585 202.289 80.7637 204.401 83.9623 204.401ZM88.4265 208.528C88.4642 210.722 90.498 213.15 92.3428 213.207C94.1877 213.264 95.6421 211.603 95.6547 209.257C95.6547 206.677 93.7658 204.375 91.7321 204.413C90.0572 204.451 88.3887 206.531 88.4265 208.528Z" fill="#63799B"/>
<path d="M69.0347 79.749C71.3833 85.7596 73.8263 91.0728 74.9408 96.7284C75.6208 100.197 73.99 103.804 73.3604 107.342C73.1526 108.49 72.3026 108.147 71.6226 107.944C67.5866 106.708 63.5506 105.44 59.5146 104.191C58.759 103.956 58.0727 103.734 58.5512 102.682C61.9576 95.2574 65.3513 87.8076 69.0347 79.749Z" fill="#63799B"/>
<path d="M53.494 85.601C54.2653 83.9702 55.3331 82.4992 56.6422 81.2642C58.8144 81.949 59.7463 80.5541 60.0863 78.8549C60.4641 76.9528 62.1263 74.6639 62.9071 74.8985C65.3438 75.6467 64.1664 72.9964 65.2619 72.8633C67.0186 75.4565 67.7175 78.0497 65.8412 80.9155C65.5075 81.4291 65.7656 82.3421 65.7468 83.0712L65.7845 83.0015C65.7141 83.0248 65.6498 83.064 65.5965 83.1159C65.5432 83.1679 65.5023 83.2314 65.4769 83.3015C65.4514 83.3717 65.4421 83.4467 65.4496 83.5211C65.4571 83.5954 65.4812 83.667 65.5201 83.7306L65.4634 83.9081C61.6352 86.7676 60.2941 90.781 60.1807 95.3714C60.2081 95.4321 60.2129 95.5006 60.1944 95.5646C60.176 95.6285 60.1354 95.6837 60.08 95.7202C58.3863 95.5426 57.4733 96.4493 57.3348 98.0153C57.0577 101.135 55.5466 102.238 52.5495 101.344C52.1014 101.295 51.6482 101.32 51.2084 101.42H51.2461C50.9691 99.4673 49.0739 99.835 48.0098 99.518C46.1209 98.9664 45.5605 97.9583 45.7116 96.2084L45.6738 96.2718L46.3035 95.6377H46.2279C48.2428 95.8913 48.1168 94.6994 47.7642 93.3489L47.8272 93.2094C49.0865 94.1921 49.8861 93.8434 50.182 92.3534C50.3332 91.5989 50.4465 90.9522 51.1895 90.5211C53.0721 89.4686 53.5884 87.6489 53.494 85.601Z" fill="#F9D96F"/>
<path d="M64.4141 184.878C66.9956 176.75 69.6653 168.654 72.1083 160.487C72.6246 158.756 73.2794 158.452 74.9354 158.528C82.1762 158.87 89.373 159.904 96.639 159.853C97.9739 163.023 97.3568 166.555 98.3454 169.744C99.8376 174.582 97.2057 176.776 93.5349 178.817C85.2866 183.395 76.6795 186.394 67.09 185.633C66.2211 185.563 65.0437 186.077 64.4141 184.878ZM71.6549 184.878C72.5451 185.007 73.4524 184.935 74.3115 184.667C75.1706 184.4 75.96 183.943 76.6228 183.331C76.9381 183.064 77.3076 182.868 77.7056 182.759C78.1036 182.649 78.5205 182.628 78.9273 182.697C82.8247 182.964 85.8974 181.144 88.8819 178.893C90.3867 177.765 91.7908 176.268 93.7868 176.04C96.022 175.786 96.5194 174.455 96.6894 172.439C96.9161 169.82 95.4616 167.278 96.5572 164.621C96.872 163.854 96.3998 162.992 95.405 162.719C91.5579 161.629 87.8115 160.107 83.6874 160.392C81.6095 160.538 79.5443 160.823 77.435 160.475C75.7602 160.196 74.3435 161.438 72.8009 161.92C72.0264 162.167 73.1787 163.334 73.1724 164.133C73.1851 164.315 73.1313 164.495 73.0212 164.64C70.3012 167.005 71.4157 170.201 71.1827 173.105C71.0945 174.227 71.9194 176.072 69.3253 175.381C68.6956 175.216 67.9023 176.401 67.9149 177.473C67.9149 178.773 67.9149 180.073 67.8834 181.372C67.7197 184.872 67.7197 184.872 71.6549 184.853V184.878Z" fill="#E8D896"/>
<path d="M97.1621 158.75C89.8394 158.192 82.5167 157.609 75.1877 157.096C73.878 157.007 73.1287 156.975 73.708 155.231C75.2569 150.597 76.6359 145.905 78.0148 141.219C78.4555 139.717 79.274 139.19 80.8356 139.273C84.8715 139.476 88.9138 139.66 92.9561 139.647C94.6625 139.647 95.1536 140.281 95.2984 141.86C95.7265 146.552 96.2743 151.237 96.778 155.923C96.5368 156.88 96.6745 157.894 97.1621 158.75ZM86.219 140.363C81.1819 140.363 81.1189 140.363 80.0296 145.556C79.7715 146.824 79.104 146.97 78.1407 147.014C77.5677 147.014 77.0199 147.167 76.8814 147.851C76.8283 148.005 76.8105 148.17 76.8295 148.331C76.8484 148.493 76.9036 148.649 76.9909 148.786C77.0782 148.924 77.1953 149.039 77.3334 149.124C77.4715 149.21 77.6269 149.262 77.7881 149.278C78.5248 149.43 78.934 149.849 78.7829 150.635C78.6318 151.421 78.0588 151.396 77.5236 151.421C76.5351 151.472 75.7669 152.055 75.9244 152.93C76.107 153.944 76.6296 155.422 77.3599 155.675C78.4681 156.068 80.017 156.943 81.1378 155.726C81.8493 154.946 82.3278 154.832 83.2219 155.251C85.4256 156.29 87.8309 155.967 90.1479 155.834C91.2309 155.77 93.2017 155.06 93.2017 154.02C93.2017 151.041 94.8954 148.397 94.5239 145.429C94.461 144.935 89.8016 140.357 89.3105 140.357C88.2338 140.344 87.239 140.357 86.219 140.351V140.363Z" fill="#CC8153"/>
<path d="M103.225 60.2085C101.758 59.156 101.965 57.7991 102.463 56.3345C102.778 55.4025 102.948 54.4324 103.181 53.4687C103.539 51.947 104.106 51.4652 105.831 52.2006C115.906 56.3599 122.592 63.8541 126.987 73.5612C128.391 76.6616 130.633 79.5845 130.23 83.3316C129.2 83.902 128.224 84.5663 127.315 85.3161C125.369 87.2182 123.965 86.8949 122.435 84.7202C120.175 81.512 117.694 78.4622 115.301 75.3428L115.484 75.1589C118.065 73.5358 118.544 73.8148 119.891 76.7123C120.685 78.4242 120.716 80.339 121.919 81.9811C123.354 83.9466 125.161 82.1523 126.672 82.9005C127.239 83.1858 127.932 82.2664 127.932 81.6895C127.9 79.9586 128.246 77.8155 127.378 76.6172C126.175 74.9307 125.571 72.5721 123.197 71.7415C122.215 71.3991 121.937 70.4417 121.887 69.1039C121.786 66.6312 120.76 64.6657 118.015 63.3279C116.126 62.3959 115.074 59.6632 112.348 59.473C112.247 59.473 112.241 58.6107 112.121 58.1732C111.832 57.0954 106.486 53.8935 105.466 54.2105C105.151 54.3056 104.673 54.6353 104.666 54.8446C104.616 56.6959 102.815 58.0971 103.369 60.0816L103.225 60.2085Z" fill="#E8D896"/>
<path d="M56.618 107C57.5751 111.227 58.5342 115.464 59.4955 119.712C58.4817 119.275 57.7891 118.603 57.9403 117.392C58.1921 115.35 57.2665 113.55 56.5236 111.819C56.0327 110.748 55.7547 109.592 55.705 108.414C55.6043 105.288 55.0376 104.762 51.9272 104.673C50.4664 104.629 48.9994 105.066 47.9793 103.177C47.2678 101.864 45.1523 102.752 44.7745 104.489C44.5793 105.39 44.9319 106.303 45.0578 107.209C45.5049 110.494 47.079 113.55 46.9467 116.948C46.7495 119.485 46.8319 122.037 47.1923 124.556C47.8597 128.126 48.7349 131.658 49.0812 135.278C49.1757 136.305 50.2146 137.554 50.3783 137.262C51.4739 135.322 53.7657 136.311 55.1321 134.929C56.6684 133.382 57.021 131.594 57.0902 129.635C58.2551 129.584 57.6569 131.537 58.8784 130.96C59.299 130.756 59.6475 130.428 59.8771 130.019C60.1068 129.609 60.2065 129.139 60.1629 128.671C60.1629 126.915 60.2007 125.159 60.2259 123.396C62.31 128.836 62.1651 129.197 58.211 133.198C55.2454 136.204 52.072 139.025 49.5723 142.474C47.7275 141.073 48.4075 138.873 48.1367 137.11C46.3863 125.603 44.9382 114.05 43.2948 102.524C43.0241 100.622 43.6096 100.742 45.0137 101.218C47.9668 102.207 50.9512 103.12 53.9609 103.919C55.6232 104.362 56.2591 105.504 56.618 107Z" fill="#CC8153"/>
<path d="M48.0061 145.398C48.8121 145.22 49.6495 144.884 50.2603 145.81C50.2162 145.886 50.1784 145.968 50.1406 146.051L50.2854 145.829C56.8589 149.76 63.4197 153.716 70.0184 157.596C71.0006 158.173 71.3154 158.788 70.9565 159.828C69.9617 162.681 68.9732 165.534 67.9909 168.388C68.1924 165.687 66.8576 162.738 69.4328 160.405C69.9365 159.949 69.1306 159.188 68.8724 158.573C68.1483 156.855 65.932 158.002 65.1575 156.5C65.1575 156.417 65.2142 156.335 65.2457 156.252L65.1009 156.442C62.8719 154.445 60.026 153.532 57.5011 152.049C54.9763 150.565 52.7599 148.504 49.7062 148.08C49.8069 147.686 50.0965 147.211 49.4354 147.084C49.3115 147.077 49.188 147.104 49.0775 147.161C48.9669 147.217 48.8732 147.303 48.8058 147.407C48.6736 147.997 49.171 148.042 49.5802 148.162C49.5802 148.251 49.5802 148.39 49.4984 148.428C47.8109 149.462 44.9713 149.265 45.305 152.499C45.3428 152.886 44.5746 152.79 44.1213 152.847C41.2564 153.203 40.0097 155.117 40.7905 157.863C36.7859 158.497 36.8111 158.497 36.8615 161.401C36.8615 162.586 36.9937 163.429 38.3789 163.937C39.1093 164.209 40.0664 165.782 39.8523 166.321C39.2227 167.804 40.419 168.102 40.8534 168.971C41.6783 170.613 44.115 171.463 43.372 173.885C41.4831 172.8 40.7716 170.594 39.1912 169.199L34.7837 161.445C34.2548 160.075 35.0041 159.194 35.8667 158.275C39.9467 154.008 43.9701 149.696 48.0061 145.398Z" fill="#CC8153"/>
<path d="M71.3145 119.16C69.0227 122.426 65.9752 124.981 63.1292 128.252C61.3222 120.904 59.5969 113.911 57.8717 106.911C58.0543 106.207 57.1098 104.768 59.2443 105.567C63.1733 107.044 67.266 108.103 71.3019 109.282C72.7186 109.694 73.0461 110.297 72.6305 111.818C72.0702 114.242 71.631 116.692 71.3145 119.16ZM59.981 108.439C61.3662 109.314 62.4177 110.246 61.4481 111.279C59.8236 113.004 61.0325 114.627 61.5299 116.016C62.1973 117.867 63.6266 119.37 63.5763 121.601C63.5763 122.686 65.0937 122.831 65.3204 122.039C65.7611 120.492 67.0897 120.321 68.0341 119.585C70.0175 118.026 70.6975 116.079 69.753 113.746C69.4319 112.953 68.4938 112.446 68.0089 111.679C66.523 109.206 63.57 107.83 59.9936 108.439H59.981Z" fill="#E8D896"/>
<path d="M124.135 122.521C124.368 112.167 124.638 101.82 124.764 91.4536C124.796 89.393 125.23 87.8269 127.314 87.1041C127.403 87.2365 127.504 87.3597 127.617 87.4718C128.605 90.0714 126.074 91.6755 125.828 94.0531C125.01 101.921 125.665 109.79 125.325 117.645C125.256 119.281 126.143 120.429 126.622 121.786C126.937 122.686 127.799 122.508 128.511 122.496C129.455 122.496 129.732 121.862 129.77 121.025C129.808 120.188 129.694 119.25 130.047 118.577C131.646 115.528 131.936 112.269 131.967 108.915C131.967 102.847 132.276 96.7541 130.828 90.7942C130.45 89.2471 130.406 87.2626 128.152 86.9393L127.906 86.6793L130.324 84.6504C130.671 84.7508 130.979 84.9573 131.204 85.2412C131.43 85.5251 131.562 85.8725 131.583 86.2355C132.736 94.8456 133.869 103.456 132.566 112.161C132.024 115.8 131.42 119.44 130.903 123.085C130.746 124.163 130.274 124.613 129.266 124.201C127.623 123.504 125.715 123.504 124.135 122.521Z" fill="#E8D896"/>
<path d="M102.148 52.8719C101.926 53.2702 101.759 53.6967 101.65 54.14C101.228 57.6906 99.1758 59.3898 95.7128 59.6371C94.5591 59.7756 93.4135 59.9767 92.2813 60.2394C92.3631 59.9794 92.4072 59.4976 92.5205 59.4849C94.3276 59.2313 95.6687 57.5828 97.7088 57.8935C98.9177 58.09 100.227 57.5321 99.8495 56.1436C99.3584 54.3746 100.253 53.0241 100.781 51.2996C97.6332 51.6927 95.2028 49.7018 92.2435 50.1076C90.2664 50.3739 88.579 51.661 86.4256 51.2996C85.1095 51.0322 83.7473 51.1085 82.4688 51.5214C81.1903 51.9343 80.038 52.6699 79.1218 53.6582C78.3788 54.438 77.3588 54.4634 76.3388 54.6282C72.0887 55.3003 68.6383 57.5257 65.6349 60.5628C64.9045 61.3046 65.1941 62.0781 65.6349 62.8516C67.0831 65.3878 69.1231 65.6096 73.008 64.1831C77.7613 62.3745 82.7871 61.3988 87.8675 61.2982L67.1712 66.4719C66.6549 66.6051 65.9119 66.9475 65.7671 66.2374C65.3012 63.9358 63.513 61.9386 64.1615 59.3835C70.4013 55.4588 76.6851 51.6609 84.1022 50.3548C89.5738 49.3911 94.9824 49.0868 100.473 50.5007C102.085 50.9128 102.4 51.5088 102.148 52.8719Z" fill="#CC8153"/>
<path d="M97.778 156.48C98.5399 154.425 97.6458 152.416 97.5828 150.387C97.4332 147.732 97.1326 145.088 96.6825 142.468C96.4383 141.219 96.5111 139.929 96.8941 138.716C97.2772 137.504 97.958 136.408 98.8736 135.531C96.9847 141.174 97.9417 146.722 99.4655 152.986C100.24 150.387 102.878 150.057 103.199 148.047C103.64 145.27 106.946 144.103 106.757 141.073C106.757 140.654 107.242 140.642 107.613 140.876C108.715 141.574 108.482 140.756 108.589 140.084C108.727 139.27 109.029 138.494 109.476 137.803C109.924 137.112 110.507 136.52 111.189 136.064C111.769 135.639 112.719 135.043 112.694 134.574C112.53 131.714 114.583 131.689 116.441 131.334L116.56 131.448C110.83 139.648 105.099 147.848 99.3647 156.049C99.031 156.53 98.8484 157.361 97.9417 156.873C97.8599 156.828 97.734 156.816 97.7025 156.752C97.671 156.689 97.7528 156.568 97.778 156.48Z" fill="#E8D896"/>
<path d="M56.3863 78.177C55.5174 80.8273 53.7418 82.9956 52.0103 84.9992C48.3647 89.2028 45.6572 94.0341 42.4209 98.5041C40.4753 98.9542 38.9138 97.6228 37.1319 97.2931C36.2441 97.1282 36.2882 96.3357 36.6534 95.5114C38.6115 91.1239 40.5068 86.7174 43.315 82.7801C43.3968 82.8562 43.4849 82.9259 43.5731 82.9956C42.9435 85.2908 41.4953 87.1993 40.5949 89.336C39.6378 91.6121 37.6419 93.6537 38.2275 96.64C39.4049 96.3737 40.0849 94.9218 41.149 95.9362C42.4083 97.1536 43.0379 95.9362 43.3653 95.1627C43.7765 94.2539 44.3012 93.4016 44.9268 92.6266C47.5713 88.9556 49.9639 85.107 52.8792 81.6388C53.8992 80.4341 54.0692 78.0756 56.3863 78.177Z" fill="#CC8153"/>
<path d="M76.7425 97.9521L88.032 102.39C86.2375 102.473 84.5816 102.809 82.806 101.528C81.7545 100.774 80.1993 99.8416 78.4992 100.216C77.7814 100.374 76.7866 100.298 76.8559 101.249C77.0951 104.267 75.5588 106.892 75.1747 109.764C74.9732 111.267 75.754 111.26 76.8055 110.899C76.5347 112.389 77.3218 113.543 78.0648 114.703C79.6326 117.144 82.2393 118.019 84.7075 119.097C81.0996 119.566 78.6126 117.829 76.8118 114.906C76.4781 114.361 76.4214 113.638 75.5525 113.702C74.501 113.759 74.6773 114.665 74.4192 115.312C73.4054 117.848 75.7162 118.717 76.7614 120.232L72.8262 119.167C73.7266 112.015 75.1873 104.977 76.7425 97.9521Z" fill="#E8D896"/>
<path d="M100.957 131.917C103.098 128.189 105.251 124.461 107.367 120.714C107.996 119.56 108.802 119.712 109.885 120.042C113.55 121.12 117.252 122.058 120.948 123.047C121.609 123.491 122.245 123.757 121.395 124.804C119.67 126.921 118.153 129.242 116.553 131.436L116.434 131.321C116.401 130.107 116.788 128.919 117.529 127.961C117.932 127.435 118.404 126.839 117.907 126.217C116.465 124.429 115.867 121.411 112.423 122.445C111.831 122.622 110.968 122.223 110.345 121.874C108.733 120.968 107.468 121.564 107.046 123.06C106.328 125.596 104.433 127.454 103.488 129.787C102.978 131.163 102.09 131.562 100.957 131.917Z" fill="#E8D896"/>
<path d="M81.2574 187.325C81.4274 190.337 79.9981 192.074 77.9581 193.342C76.7996 194.052 75.2884 195.003 74.1803 194.141C73.0721 193.279 73.4688 191.605 73.3995 190.21C73.3822 190.049 73.3971 189.885 73.4434 189.73C73.4897 189.574 73.5664 189.429 73.6691 189.304C73.7718 189.179 73.8983 189.076 74.0412 189C74.1842 188.925 74.3406 188.879 74.5014 188.866C76.6799 188.34 78.89 187.858 81.2574 187.325Z" fill="#E8D896"/>
<path d="M51.2344 38.5309L62.0075 37.3643C61.126 40.0652 57.3734 42.8296 54.7792 42.557C52.5062 42.3161 51.631 40.6739 51.2344 38.5309Z" fill="#E8D896"/>
<path d="M129.058 27.955C126.905 27.8726 125.576 26.8835 125.432 24.8356C125.325 23.7792 125.531 22.7147 126.024 21.776C126.517 20.8374 127.275 20.0665 128.202 19.5604C129.039 19.0595 129.298 19.7379 129.505 20.3783C130.135 22.2804 130.821 24.1825 131.319 26.0846C131.942 28.4432 129.921 27.5809 129.058 27.955Z" fill="#E8D896"/>
<path d="M65.7491 83.0716C65.7491 82.3425 65.5099 81.4295 65.8436 80.9159C67.7325 78.0501 67.021 75.4569 65.2643 72.8637C64.1561 73.0222 65.3462 75.6471 62.9095 74.899C62.1287 74.6644 60.4664 76.9596 60.0887 78.8553C59.7487 80.5545 58.8294 81.9494 56.6445 81.2646L65.2832 68.9961L68.0914 76.8708C68.2299 79.2738 66.7754 81.0934 65.7491 83.0716Z" fill="#E8D896"/>
<path d="M111.756 51.5089L103.193 47.7872C104.27 45.3335 106.342 44.3634 108.388 44.9023C111.278 45.6441 110.888 48.7002 111.756 51.5089Z" fill="#E8D896"/>
<path d="M97.458 39.501C96.4443 38.2646 96.5639 36.6986 96.1987 35.3164C95.9973 34.5809 95.0906 33.5665 96.1106 32.8246C96.5274 32.5284 97.0175 32.3544 97.5266 32.322C98.0357 32.2895 98.5438 32.3999 98.9943 32.6408C99.511 32.8467 99.9455 33.2189 100.23 33.6994C100.515 34.1799 100.634 34.7417 100.568 35.2974C100.461 37.3707 99.2021 38.6007 97.458 39.501Z" fill="#E8D896"/>
<path d="M50.227 143.166L53.2115 140.452C53.6145 143.369 54.4267 145.803 57.7764 146.792C58.6075 147.056 59.3546 147.536 59.9418 148.184C60.529 148.832 60.9354 149.625 61.1198 150.483L50.2207 144.231C50.2207 143.863 50.227 143.515 50.227 143.166Z" fill="#E8D896"/>
<path d="M145.485 62.4912C147.374 63.4676 149.2 64.5011 151.101 65.3697C152.751 66.1242 152.071 66.7709 151.139 67.462C150.704 67.7636 150.207 67.9615 149.684 68.0405C149.162 68.1195 148.629 68.0777 148.125 67.9182C147.621 67.7587 147.16 67.4857 146.777 67.1199C146.394 66.7541 146.098 66.3052 145.913 65.8072C145.491 64.8244 144.981 63.7656 145.485 62.4912Z" fill="#E8D896"/>
<path d="M123.33 44.4586C123.021 39.0693 124.854 37.4018 129.45 38.7523L123.33 44.4586Z" fill="#E8D896"/>
<path d="M93.9886 182.024C94.0079 183.072 93.7571 184.108 93.2604 185.029C92.7638 185.95 92.0385 186.726 91.1552 187.281C89.8959 188.13 88.8759 187.712 88.1392 186.596C87.2703 185.283 88.5044 184.814 89.2977 184.358C90.6955 183.559 92.1815 182.912 93.9886 182.024Z" fill="#E8D896"/>
<path d="M118.228 3.4502C118.196 6.91835 116.887 8.5605 114.538 8.45271C114.119 8.48865 113.701 8.37582 113.356 8.13379C113.011 7.89176 112.761 7.53578 112.649 7.12758C112.347 6.11947 112.826 5.59323 113.707 5.22549C115.168 4.6929 116.597 4.10325 118.228 3.4502Z" fill="#E8D896"/>
<path d="M97.9426 192.049C97.4767 194.388 97.1052 196.341 96.6833 198.281C96.3244 199.93 95.5437 198.96 95.0148 198.453C93.0503 196.589 94.2277 193.754 97.9426 192.049Z" fill="#E8D896"/>
<path d="M60.1641 95.3715C60.2774 90.7811 61.6185 86.7677 65.4467 83.9082C63.7908 87.7695 62.2482 91.6941 60.1641 95.3715Z" fill="#E8D896"/>
<path d="M51.209 101.42C51.6488 101.32 52.102 101.295 52.5501 101.344C55.5472 102.238 57.0583 101.135 57.3354 98.0155C57.4739 96.4494 58.3869 95.5428 60.0806 95.7203C59.1902 97.508 58.3916 99.3407 57.688 101.211C57.0583 103.069 56.2083 103.506 54.4768 102.612C53.4568 102.08 52.1723 102.187 51.209 101.42Z" fill="#E8D896"/>
<path d="M34.8152 161.45L39.2227 169.204L36.7041 170.472L36.2319 169.623C37.4156 167.429 35.7534 165.945 34.7271 164.487C34.3842 164.08 34.1527 163.59 34.0555 163.065C33.9584 162.54 33.9988 161.999 34.173 161.495L34.8152 161.45Z" fill="#2B120D"/>
<path d="M36.237 169.617L36.7092 170.467C36.7785 172.673 35.324 172.039 34.4677 171.443C32.6292 170.175 32.5788 168.273 33.3218 166.282C34.5811 166.472 34.4992 167.741 35.2674 168.184C35.4311 168.438 35.5885 168.692 35.7459 168.945L36.237 169.617Z" fill="#F4DECD"/>
<path d="M74.3871 89.78C72.9263 87.5292 72.7311 84.8282 71.793 82.3936C73.2663 82.3936 73.9023 83.4017 74.7271 84.4669C76.1627 86.3689 73.833 87.8906 74.576 89.6025L74.3871 89.78Z" fill="#CC8153"/>
<path d="M44.1523 65.668C44.9897 65.7631 45.2731 66.5493 45.8083 67.0185C46.142 67.3101 46.4379 67.7096 46.1987 68.2104C45.9594 68.7113 45.399 68.4894 44.9897 68.4958C42.4712 68.4958 39.9526 68.4958 37.3711 68.4958C37.6607 67.5384 38.1393 66.4225 39.6189 66.1498C38.7437 68.8825 41.0482 67.6779 41.9486 67.9124C43.7116 68.3753 44.6623 67.6525 44.1523 65.668Z" fill="#F4DECD"/>
<path d="M150.51 100.628L144.17 98.0412C147.217 96.025 148.747 96.5892 150.51 100.628Z" fill="#E8D896"/>
<path d="M70.666 78.5512C73.2475 76.909 76.188 76.9724 79.0654 76.7695C78.2973 78.7224 76.5469 77.8537 75.2876 77.9425C73.3987 78.0693 72.1016 78.5448 72.2779 80.821C72.2238 81.3631 72.0746 81.8912 71.8371 82.3807C71.0249 81.2331 70.8675 79.8826 70.666 78.5512Z" fill="#CC8153"/>
<path d="M42.3566 177.352L45.7503 180.382C44.3714 181.606 43.0051 181.314 41.7206 180.256C41.5108 180.113 41.3315 179.93 41.1933 179.717C41.0552 179.503 40.961 179.264 40.9164 179.013C40.8717 178.763 40.8776 178.505 40.9335 178.257C40.9895 178.009 41.0944 177.774 41.2421 177.567C41.5884 176.946 41.9473 177.212 42.3566 177.352Z" fill="#F4DECD"/>
<path d="M45.7126 96.2529C45.5615 98.0029 46.0904 99.011 48.0108 99.5626C49.0749 99.8669 50.9701 99.4992 51.2472 101.465C48.6011 100.948 46.013 100.167 43.5215 99.1314L45.7126 96.2529Z" fill="#E8D896"/>
<path d="M27.4217 161.691C28.322 163.555 28.4983 165.071 27.2139 166.459C26.9835 166.749 26.6496 166.937 26.2836 166.982C25.9176 167.027 25.5486 166.926 25.2557 166.7C24.3805 166.123 24.6261 165.515 25.1046 164.868L27.4217 161.691Z" fill="#E8D896"/>
<path d="M39.2023 169.211C40.7827 170.606 41.469 172.812 43.3831 173.896H43.4272L43.7168 174.695L43.509 174.886C41.7461 175.088 40.6631 173.472 39.1016 173.205V173.237L39.2023 169.211Z" fill="#2B120D"/>
<path d="M17.1096 182.171C16.7739 182.725 16.2541 183.14 15.6426 183.344C13.9929 183.978 12.2173 184.289 11.2351 182.552C10.2528 180.814 11.6947 179.895 12.9414 179.052L13.2625 179.4C13.1492 180.313 12.1418 181.239 13.1429 182.146C13.974 182.894 14.9751 182.64 15.9385 182.323L16.9585 182.006L17.1096 182.171Z" fill="#E8D896"/>
<path d="M40.1026 184.396C40.4489 185.734 39.5548 186.133 38.56 186.463L35.248 187.566C36.0729 184.25 36.5073 183.977 40.1341 184.396H40.1026Z" fill="#E8D896"/>
<path d="M44.1521 65.668C44.6621 67.6525 43.7114 68.3753 41.9484 67.9188C41.048 67.6842 38.7435 68.8889 39.6187 66.1562L40.3491 65.687H44.1647L44.1521 65.668Z" fill="#E8D896"/>
<path d="M12.9414 179.051C13.6292 178.421 14.5305 178.081 15.46 178.1C16.6689 178.1 18.0163 177.948 18.5704 179.254C19.1245 180.56 18.2178 181.48 17.1663 182.171L16.99 182.006C17.6196 178.481 15.1011 179.425 13.294 179.4L12.9414 179.051Z" fill="#E8D896"/>
<path d="M45.4297 79.4072C46.6512 77.653 47.8748 75.8946 49.1005 74.132L50.1331 73.4473C50.0072 76.4336 47.7405 77.9489 45.883 79.7495L45.4297 79.4072Z" fill="#CC8153"/>
<path d="M76.7731 95.7585L75.7153 94.4904C75.2745 92.918 74.8275 91.3203 74.3867 89.7732L74.6008 89.583C76.3953 91.2632 76.8423 93.4189 76.7731 95.7585Z" fill="#CC8153"/>
<path d="M133.081 79.5019L130.562 73.9541C133.012 75.2412 133.295 77.0038 133.081 79.5019Z" fill="#F4DECD"/>
<path d="M43.334 82.7798C43.6866 81.4293 44.6877 80.4846 45.4307 79.375L45.884 79.7174C45.813 80.4157 45.5649 81.084 45.1636 81.658C44.7622 82.232 44.2211 82.6925 43.5921 82.9953C43.504 82.9256 43.4158 82.8558 43.334 82.7798Z" fill="#CC8153"/>
<path d="M50.1327 73.415L49.1001 74.0998C49.0434 72.54 49.9753 71.7602 51.285 71.2656L51.6816 71.6714L50.7687 72.8697C50.4412 72.9522 50.139 73.0409 50.139 73.5038L50.1327 73.415Z" fill="#2B120D"/>
<path d="M44.1633 65.6797H40.3477C40.896 65.259 41.5662 65.0312 42.2555 65.0312C42.9447 65.0312 43.615 65.259 44.1633 65.6797Z" fill="#F4DECD"/>
<path d="M46.6336 182.215L46.218 182.38C46.1613 182.241 46.0354 182.063 46.0795 181.974C46.1236 181.886 46.3376 181.854 46.4762 181.797L46.6336 182.215Z" fill="#2B120D"/>
<path d="M51.2852 71.2662C51.2873 70.9748 51.3978 70.6948 51.5947 70.4812C51.7916 70.2677 52.0608 70.1361 52.3492 70.1123L52.7522 70.4991L51.6818 71.672L51.2852 71.2662Z" fill="#2B120D"/>
<path d="M10.4913 179.406L10.0317 180.04L9.54688 179.451L10.1387 179.007C10.249 179.146 10.3667 179.28 10.4913 179.406Z" fill="#63799B"/>
<path d="M35.7266 168.939C35.5692 168.685 35.4118 168.431 35.248 168.178C35.4118 168.431 35.5692 168.685 35.7266 168.939Z" fill="#2B120D"/>
<path d="M34.1585 161.489L33.957 161.375L34.1585 161.483V161.489Z" fill="#2B120D"/>
<path d="M12.3679 177.498L12.2734 177.314L12.4812 177.321L12.3679 177.498Z" fill="#63799B"/>
<path d="M10.9442 178.753L11.0828 178.379C11.4857 178.696 11.0828 178.658 10.9316 178.74L10.9442 178.753Z" fill="#63799B"/>
<path d="M10.1387 179.032L10.9446 178.753L10.5039 179.419C10.3753 179.296 10.2534 179.167 10.1387 179.032Z" fill="#63799B"/>
<path d="M65.5203 83.7311C65.4813 83.6675 65.4573 83.5958 65.4498 83.5215C65.4423 83.4472 65.4516 83.3722 65.4771 83.302C65.5025 83.2318 65.5434 83.1684 65.5967 83.1164C65.65 83.0645 65.7143 83.0253 65.7847 83.002L65.5203 83.7311Z" fill="#E8D896"/>
<path d="M49.7101 148.072C52.7576 148.503 54.9802 150.564 57.4988 152.048C60.0173 153.531 62.8696 154.444 65.0985 156.441L65.1552 156.499C65.9296 158.001 68.146 156.854 68.8701 158.572C69.1282 159.206 69.9341 159.948 69.4304 160.404C66.8552 162.737 68.1711 165.686 67.9886 168.387C66.4564 173.51 64.9264 178.635 63.3985 183.762C62.9137 185.398 61.7173 184.903 60.6973 184.631C55.0438 183.247 49.8717 180.339 45.7371 176.217C45.3278 175.076 47.1034 171.722 43.4263 173.909H43.3822C44.1315 171.487 41.6948 170.637 40.8637 168.995C40.4292 168.127 39.2581 167.829 39.8625 166.345C40.0766 165.806 39.1195 164.234 38.3892 163.961C37.004 163.441 36.8906 162.598 36.8717 161.425C36.8214 158.508 36.7962 158.508 40.8007 157.887C40.0199 155.142 41.2666 153.227 44.1315 152.872C44.5848 152.815 45.353 152.91 45.3152 152.523C44.9815 149.29 47.8338 149.486 49.5086 148.453C49.5653 148.415 49.5653 148.275 49.5905 148.186L49.7101 148.072Z" fill="#EA604D"/>
<path d="M97.4245 74.335C102.21 81.4615 106.592 88.0364 111.031 94.5733C111.78 95.6765 111.598 96.431 110.603 97.1094C107.304 99.4426 103.992 101.763 100.705 104.084C100.291 104.377 99.8042 104.549 99.299 104.583C98.7938 104.616 98.2891 104.51 97.8401 104.274C96.2632 103.533 94.6265 102.928 92.9478 102.467C90.2718 101.896 89.6862 100.736 90.53 98.0287C92.9037 90.4457 95.0256 82.7042 97.4245 74.335Z" fill="#63799B"/>
<path d="M60.2067 123.396C60.2067 125.159 60.1249 126.915 60.1438 128.671C60.1842 129.138 60.0823 129.606 59.8516 130.013C59.621 130.419 59.2726 130.745 58.853 130.948C57.6315 131.525 58.2234 129.572 57.0648 129.622C56.9704 131.582 56.643 133.37 55.1067 134.917C53.7403 136.299 51.4484 135.31 50.3529 137.25C50.1892 137.542 49.1503 136.292 49.0558 135.265C48.7221 131.645 47.8469 128.113 47.1669 124.544C46.8065 122.025 46.7241 119.473 46.9213 116.935C47.0473 113.518 45.4732 110.481 45.0324 107.197C44.9065 106.29 44.5539 105.377 44.7491 104.477C45.1269 102.739 47.2676 101.852 47.9539 103.164C48.974 105.066 50.441 104.616 51.9018 104.661C55.05 104.749 55.5978 105.295 55.6796 108.401C55.7293 109.579 56.0073 110.736 56.4982 111.806C57.2411 113.537 58.1667 115.338 57.9148 117.379C57.7637 118.59 58.4563 119.281 59.4701 119.7C59.8353 120.924 59.3441 122.293 60.2067 123.396Z" fill="#E87619"/>
<path d="M76.7736 95.7585C76.8429 93.4189 76.3958 91.2632 74.6014 89.5894C73.8584 87.8775 76.1881 86.3241 74.7525 84.4537C73.9277 83.3885 73.2917 82.3804 71.8184 82.3804C72.0558 81.8909 72.205 81.3628 72.2591 80.8207C72.0828 78.5445 73.361 78.069 75.2688 77.9422C76.5784 77.8534 78.2974 78.7221 79.0466 76.7692C81.0552 76.085 83.1597 75.7297 85.2801 75.7167C87.6727 75.7167 90.0653 75.7167 92.458 75.7167C93.5787 75.7167 94.158 75.5709 93.6417 77.3589C92.2187 82.3107 90.6257 87.2308 89.8639 92.3855C89.0453 97.7811 87.0305 98.7258 81.9052 97.3436C80.1611 96.8681 78.6437 95.6951 76.7547 95.7395L76.7736 95.7585Z" fill="#E87619"/>
<path d="M87.8676 61.2988C82.7933 61.4035 77.774 62.3814 73.027 64.19C69.1421 65.6165 67.1021 65.4073 65.6539 62.8585C65.2195 62.085 64.9298 61.3115 65.6539 60.5696C68.6321 57.5326 72.0826 55.3072 76.3578 54.6351C77.3778 54.4702 78.3979 54.4449 79.1408 53.665C80.0571 52.6767 81.2093 51.9411 82.4878 51.5283C83.7663 51.1154 85.1285 51.039 86.4447 51.3064C88.598 51.6678 90.2855 50.3807 92.2625 50.1144C95.2218 49.7087 97.6774 51.6995 100.8 51.3064C100.272 53.031 99.3775 54.3815 99.8686 56.1504C100.253 57.539 98.9367 58.0969 97.7278 57.9004C95.7004 57.5707 94.3466 59.2382 92.5396 59.4918C92.4262 59.4918 92.3822 59.9863 92.3003 60.2463V60.2146C91.5196 60.2146 90.6507 59.8786 90.1029 60.7916C89.4417 61.4193 88.6169 61.2037 87.8676 61.2988Z" fill="#EA604D"/>
<path d="M100.957 131.917C102.09 131.562 102.953 131.162 103.507 129.787C104.451 127.453 106.347 125.615 107.064 123.059C107.486 121.563 108.752 120.967 110.364 121.874C110.993 122.223 111.85 122.622 112.442 122.444C115.886 121.411 116.484 124.429 117.926 126.217C118.423 126.851 117.926 127.434 117.548 127.961C116.807 128.919 116.42 130.107 116.452 131.321C114.601 131.676 112.542 131.701 112.706 134.561C112.706 135.03 111.78 135.626 111.201 136.051C110.518 136.507 109.935 137.099 109.488 137.79C109.041 138.481 108.739 139.257 108.601 140.071C108.494 140.743 108.727 141.561 107.625 140.863C107.253 140.629 106.737 140.641 106.768 141.06C106.957 144.103 103.652 145.27 103.211 148.034C102.89 150.044 100.252 150.374 99.4773 152.973C97.9535 146.709 97.0217 141.161 98.8854 135.518C100.296 134.745 99.7228 132.811 100.957 131.917Z" fill="#F9D96F"/>
<path d="M61.1212 150.463C60.9368 149.605 60.5304 148.812 59.9432 148.164C59.356 147.516 58.6089 147.036 57.7778 146.773C54.4281 145.803 53.6159 143.368 53.2129 140.433C54.4722 140.743 54.5981 139.932 54.617 139.006L56.6822 136.952C57.8722 137.142 58.6719 136.502 59.6352 135.874C61.839 134.428 64.1749 133.122 66.9579 134.739C69.0798 135.969 71.3213 136.983 73.4558 138.194C74.7151 138.905 75.817 140.553 75.414 141.498C74.0036 144.763 73.7895 148.39 72.2343 151.566C71.441 153.189 68.8657 153.887 67.7828 152.834C65.8938 151.04 63.4571 150.932 61.1338 150.406L61.1212 150.463Z" fill="#F9D96F"/>
<path d="M116.831 120.378L116.661 120.41L116.516 120.327C115.735 118.806 114.155 118.584 112.769 118.108C112.102 117.88 111.151 118.064 111.088 117.081C110.943 114.976 110.698 112.839 111.233 110.772C112.234 106.911 113.254 103.069 113.185 99.0364C113.185 96.7856 114.759 95.5049 116.453 94.7884C117.486 94.3045 118.419 93.6291 119.204 92.7975C120.86 92.7405 121.811 94.1987 123.215 94.6996C123.184 101.04 123.404 107.342 122.825 113.651C121.565 114.247 122.164 115.394 122.069 116.314C121.905 117.874 122.321 119.484 121.66 121.342C120.08 119.845 118.436 120.334 116.831 120.378Z" fill="#EA604D"/>
<path d="M107.582 86.8694C107.134 85.6478 106.42 84.5428 105.491 83.6358C105.267 82.0666 104.721 80.5615 103.888 79.2166C103.054 77.8717 101.951 76.7165 100.65 75.8246C99.8373 74.3473 97.5013 73.6054 98.4458 71.2785C99.4721 71.3102 99.8247 70.784 100.001 69.7886C100.354 67.7787 101.323 65.9336 101.355 63.4482C102.954 64.7987 104.44 65.5849 104.427 67.5441C104.427 68.4127 105.057 68.6283 105.63 69.1165C108.01 71.1137 111.133 72.9207 111.977 75.8372C113.047 79.5717 115.755 81.6767 118.135 84.0797C120.899 86.8314 121.056 88.7144 117.839 90.6292C117.071 91.0857 116.076 91.3266 115.515 91.9607C113.456 94.3193 112.411 92.4806 111.322 91.016C110.808 90.3756 110.458 89.6179 110.302 88.8095C110.069 87.0469 109.03 86.7172 107.582 86.8694Z" fill="#E87619"/>
<path d="M76.7733 120.232C75.7281 118.717 73.4174 117.836 74.4311 115.312C74.6892 114.678 74.5129 113.759 75.5644 113.702C76.4082 113.664 76.4648 114.336 76.8237 114.906C78.6245 117.842 81.1116 119.566 84.7194 119.097L84.8579 119.047L84.9838 119.135C86.2431 120.213 87.7417 120.327 89.2906 120.283C90.9339 120.226 92.1492 119.649 92.2436 117.747C92.2457 117.715 92.2544 117.684 92.2693 117.656C92.2842 117.628 92.3049 117.604 92.33 117.585C92.355 117.565 92.3839 117.552 92.4146 117.545C92.4453 117.538 92.4772 117.537 92.508 117.544C93.3518 117.861 93.3014 117.221 93.377 116.72L93.2447 116.225C93.4273 115.23 92.8858 114.399 92.0421 114.501C90.8206 114.653 90.4239 115.927 89.9454 116.954C89.9328 116.984 89.9141 117.01 89.8906 117.032C89.867 117.054 89.8392 117.07 89.8089 117.081C89.7785 117.091 89.7464 117.094 89.7146 117.091C89.6828 117.088 89.652 117.078 89.6243 117.062C88.6735 115.965 87.238 117.519 86.665 116.821C85.1538 114.982 83.3594 115.99 81.6719 115.889H81.7223L81.0045 115.471H80.8723C80.9479 115.128 81.206 114.672 81.0738 114.456C79.9027 112.554 80.2427 111.755 82.5786 111.248C84.7824 110.772 85.0972 108.832 84.3857 106.81C84.6501 105.294 84.0709 104.565 82.4968 104.768C81.0108 104.559 79.8334 104.825 80.0915 106.708C80.2427 107.875 79.5186 108.382 78.7441 108.813C77.8374 109.32 76.9811 109.79 76.8111 110.944C75.7596 111.305 74.9789 111.311 75.1804 109.809C75.5644 106.937 77.0693 104.312 76.8615 101.294C76.7922 100.343 77.7871 100.419 78.5049 100.26C80.2049 99.8861 81.7601 100.818 82.8116 101.573C84.5872 102.841 86.2431 102.517 88.0376 102.435C88.0585 102.42 88.0827 102.41 88.1082 102.405C88.1337 102.401 88.1598 102.403 88.1844 102.412C88.2089 102.42 88.2313 102.433 88.2495 102.452C88.2678 102.47 88.2815 102.493 88.2895 102.517C88.3335 103.392 87.5969 105.301 89.0072 104.8C92.2625 103.646 93.5973 107.177 96.2166 107.152C96.16 108.09 98.4393 107.361 97.4759 108.705C96.2796 110.354 96.6889 112.04 96.7707 113.778L96.8211 113.746C96.5541 113.702 96.2803 113.756 96.0494 113.898C95.8184 114.04 95.6455 114.26 95.5618 114.52C94.5901 116.723 94.2248 119.15 94.504 121.545L94.5607 121.469C92.911 124.258 90.1532 123.605 87.6661 123.675L81.1367 121.735C80.5764 119.135 78.5363 120.746 77.2078 120.334H76.9811L76.7733 120.232ZM91.5195 107.108C91.3999 105.263 90.191 105.567 89.2654 106.169C87.4835 107.33 87.282 110.417 88.705 112.338C88.7457 112.343 88.7851 112.356 88.8205 112.377C88.8558 112.397 88.8864 112.425 88.9102 112.459C88.934 112.493 88.9505 112.531 88.9585 112.571C88.9666 112.612 88.966 112.653 88.9569 112.694C89.4228 113.962 90.3547 113.759 91.1165 113.182C92.9425 111.787 92.4766 109.549 92.8795 107.647C93.0495 106.841 92.2499 106.968 91.7462 107.013C91.658 107.013 91.5699 107.057 91.4817 107.076L91.5195 107.108Z" fill="#F9D96F"/>
<path d="M51.6833 71.6718L52.7537 70.4989C54.469 67.7811 56.7216 65.4481 59.3712 63.645C60.1456 63.1378 61.0145 61.6541 62.4627 62.7066C63.8164 63.683 63.8983 65.192 64.0557 66.5869C64.1375 67.3414 63.6716 68.1593 63.4261 68.9455C60.8319 68.806 61.1216 70.8983 60.7375 72.4707V72.439C60.6605 72.4446 60.5854 72.4655 60.5165 72.5005C60.4475 72.5354 60.3861 72.5837 60.3358 72.6427C60.2855 72.7016 60.2472 72.7699 60.2232 72.8438C60.1992 72.9177 60.19 72.9956 60.196 73.0731V73.0097L59.7049 73.6437H59.7427C58.0804 74.7215 56.7267 76.0276 56.3426 78.0819V78.1453C54.0066 78.0439 53.824 80.4025 52.8355 81.6008C49.9518 85.0689 47.5276 88.9175 44.8832 92.5886C44.2575 93.3636 43.7328 94.2158 43.3216 95.1247C43.0131 95.9046 42.3898 97.1156 41.1053 95.8982C40.0412 94.8838 39.3612 96.3357 38.1838 96.602C37.5982 93.6157 39.5942 91.5741 40.5512 89.2979C41.4516 87.1549 42.8998 85.2465 43.5294 82.9576C44.1584 82.6548 44.6995 82.1943 45.1009 81.6203C45.5022 81.0463 45.7503 80.378 45.8213 79.6797C47.7102 77.879 49.9455 76.3637 50.0714 73.3774V73.4471L50.701 72.8131L51.6833 71.6718Z" fill="#E87619"/>
<path d="M69.0162 74.5689C68.141 72.4069 67.2595 70.2448 66.3906 68.0891L72.7563 66.6816C72.8938 66.8605 73.0776 66.9978 73.2875 67.0783C73.4975 67.1589 73.7254 67.1795 73.9463 67.1381C78.6308 66.8654 82.8683 64.7097 87.4395 63.9679C90.361 63.486 93.27 62.9154 96.1852 62.4145C97.7908 62.1356 98.3764 63.1881 97.6649 64.3166C95.9774 66.9479 97.413 71.5066 91.677 71.8046C87.9747 72.0011 84.1213 73.5862 80.1923 73.5418C79.6461 73.4562 79.0881 73.4887 78.5553 73.6369C76.616 74.5436 70.6974 75.203 69.0162 74.5689Z" fill="#F9D96F"/>
<path d="M87.0487 138.061H84.0201C78.983 138.061 78.983 138.061 80.5067 133.319C81.2749 130.954 82.1375 128.602 82.6789 126.18C83.1323 124.151 84.0705 124.011 85.739 124.696C87.2517 125.35 88.828 125.843 90.4424 126.167C92.961 126.611 94.044 127.968 94.1069 130.497C94.1366 132.434 94.3474 134.364 94.7366 136.261C95.0829 137.865 94.5477 138.245 93.1121 138.207C91.0972 138.15 89.0761 138.207 87.0612 138.207L87.0487 138.061Z" fill="#63799B"/>
<path d="M71.1629 122.432C72.4788 120.682 74.4559 121.05 75.9041 121.589C82.8616 124.125 82.5342 121.76 80.2486 129.413C79.6189 131.524 78.9893 133.648 78.3597 135.753C77.9945 136.977 77.4782 137.7 76.0992 136.736C74.84 135.848 73.2596 135.468 72.1262 134.327C72.3214 131.974 70.0484 132.329 68.9213 131.486C67.7943 130.643 66.1383 129.901 67.0324 128.703C68.191 127.13 68.2917 124.708 70.5836 123.954C70.745 123.927 70.8965 123.858 71.0232 123.754C71.1499 123.649 71.2474 123.514 71.306 123.36C71.3645 123.206 71.3821 123.04 71.357 122.877C71.3319 122.714 71.265 122.561 71.1629 122.432ZM69.8595 128.544C69.7208 128.472 69.5753 128.415 69.4251 128.373C69.4251 128.373 69.2739 128.531 69.2928 128.563C69.3788 128.688 69.4758 128.805 69.5825 128.912L69.8595 128.544Z" fill="#EA604D"/>
<path d="M107.581 86.8699C109.03 86.7178 110.068 87.0474 110.301 88.772C110.457 89.5804 110.807 90.3381 111.321 90.9785C112.411 92.4431 113.456 94.2818 115.515 91.9232C116.075 91.2891 117.07 91.0482 117.838 90.5917C121.056 88.6896 120.898 86.7875 118.134 84.0421C115.742 81.6645 113.047 79.5595 111.976 75.7997C111.133 72.8578 108.01 71.0762 105.63 69.079C105.057 68.5908 104.421 68.3752 104.427 67.5066C104.427 65.5474 102.954 64.7612 101.354 63.4107C101.354 65.8961 100.353 67.7412 100.001 69.751C99.8242 70.7465 99.4716 71.2727 98.4453 71.241C98.8294 68.6288 99.755 66.0927 100.46 63.5566C100.932 61.7369 101.871 62.1237 102.834 62.8528C103.789 63.5713 104.652 64.4061 105.403 65.3382C110.557 71.7588 115.689 78.2154 120.798 84.7079C123.215 87.7766 123.108 88.2458 119.954 90.5536C119.066 91.1877 118.153 91.8217 117.246 92.4557C113.16 95.3089 113.141 95.3152 110.408 91.2891C109.42 89.8435 108.52 88.3409 107.581 86.8699Z" fill="#CC8153"/>
<path d="M102.581 105.181C102.762 104.841 103.019 104.549 103.333 104.328C103.648 104.108 104.009 103.966 104.388 103.913C105.496 105.346 106.145 103.672 106.869 103.393C108.021 102.955 108.758 102.226 108.985 104.204C109.17 105.175 109.184 106.171 109.029 107.146C108.632 109.049 107.599 110.722 107.436 112.764C107.354 113.753 106.605 116.79 104.81 115.541C103.016 114.292 101.662 114.907 100.157 114.672C99.4267 114.552 98.9671 114.286 98.8223 113.55C100.881 111.547 101.845 108.871 103.053 106.36C103.173 106.126 102.745 105.593 102.581 105.181Z" fill="#E87619"/>
<path d="M61.1332 150.451C63.4566 150.952 65.9059 151.085 67.7822 152.879C68.8652 153.919 71.4404 153.221 72.2338 151.611C73.789 148.441 74.003 144.808 75.4134 141.543C75.8164 140.598 74.7019 138.949 73.4553 138.239C71.3208 137.028 69.0478 136.014 66.9574 134.784C64.1744 133.167 61.8384 134.473 59.6347 135.919C58.6713 136.553 57.8717 137.187 56.6816 136.997C56.7095 136.91 56.7521 136.828 56.8076 136.756C62.2665 130.72 62.2665 130.72 69.4004 134.739C69.7215 134.917 70.03 135.114 70.3511 135.291C72.6619 136.559 76.106 137.238 76.8553 139.425C77.529 141.39 75.7283 144.231 74.9664 146.672C73.896 150.089 72.769 153.5 71.6167 157.076L61.1332 150.451Z" fill="#E8D896"/>
<path d="M69.0162 74.5695C70.6973 75.2035 76.6159 74.5695 78.5615 73.5994C79.0943 73.4512 79.6524 73.4188 80.1986 73.5043C84.1527 73.5487 87.9809 71.9637 91.6832 71.7671C97.4193 71.4691 95.9837 66.9104 97.6711 64.2792C98.3826 63.1696 97.797 62.1171 96.1915 62.3771C93.2762 62.878 90.3673 63.4486 87.4458 63.9305C82.8746 64.6913 78.6308 66.847 73.9526 67.1006C73.7317 67.1421 73.5038 67.1214 73.2938 67.0409C73.0838 66.9603 72.9 66.823 72.7625 66.6441L99.9567 59.9424C98.8611 63.7466 97.8222 67.2908 96.8526 70.8477C96.5567 71.9319 95.8829 72.2299 94.8818 72.3948C87.3261 73.6629 79.7264 74.9943 72.1329 76.199C70.8673 76.4526 68.9784 77.169 69.0162 74.5695Z" fill="#E8D896"/>
<path d="M76.7539 95.7456C78.6428 95.7012 80.1603 96.8742 81.9044 97.3497C87.0296 98.7446 89.0445 97.7872 89.863 92.3916C90.6438 87.2369 92.2368 82.3168 93.6409 77.365C94.1572 75.577 93.5779 75.7292 92.4571 75.7229C90.0645 75.7229 87.6719 75.7229 85.2792 75.7229C88.6856 74.645 92.2053 74.4167 96.0146 73.7764C93.5464 82.6528 91.1664 91.2376 88.7737 99.8224C88.6478 100.273 88.3897 100.881 87.8859 100.634C84.2655 98.8143 79.8328 98.846 76.7539 95.7456Z" fill="#CC8153"/>
<path d="M101.134 128.133C100 131.049 98.0484 133.452 96.4114 136.496C94.7151 130.403 94.9707 123.926 97.1417 117.988C97.5636 116.822 98.0421 116.505 99.1125 116.923C99.2007 116.955 99.2951 116.955 99.3833 116.98C107.021 118.755 107.027 118.762 102.966 125.444C102.399 126.376 101.738 127.251 101.121 128.152C101.209 126.351 101.965 124.868 102.865 123.32C103.621 122.052 104.37 120.271 102.166 119.117C100.479 118.236 98.8984 117.456 97.9099 119.783C96.4869 123.149 96.4428 126.757 96.6506 130.32C96.6884 130.884 96.808 131.519 97.4754 131.588C98.1429 131.658 98.8607 131.201 98.7788 130.472C98.571 128.564 99.9122 128.443 101.134 128.133Z" fill="#CC8153"/>
<path d="M98.8237 113.575C98.9685 114.311 99.4534 114.577 100.159 114.698C101.689 114.951 103.105 114.374 104.812 115.566C106.518 116.758 107.33 113.778 107.437 112.789C107.601 110.747 108.634 109.074 109.03 107.172C109.186 106.196 109.171 105.2 108.986 104.23C108.747 102.251 108.023 102.962 106.871 103.418C106.146 103.697 105.498 105.371 104.39 103.938C106.335 101.681 108.797 100.134 111.725 98.0352C110.302 104.68 108.992 110.716 107.708 116.809C107.506 117.76 106.826 117.677 106.222 117.513C103.829 116.847 101.456 116.13 99.0819 115.408C97.7282 114.996 98.1941 114.279 98.8237 113.575Z" fill="#CC8153"/>
<path d="M113.199 99.0615C113.268 103.094 112.248 106.936 111.247 110.797C110.712 112.864 110.958 115.001 111.102 117.106C111.165 118.089 112.116 117.905 112.784 118.133C114.169 118.609 115.749 118.831 116.53 120.352C114.421 119.801 112.311 119.23 110.19 118.698C109.409 118.501 108.773 118.247 109.006 117.246C110.429 111.165 111.323 104.983 113.199 99.0615Z" fill="#CC8153"/>
<path d="M71.1619 122.432C71.2654 122.559 71.3339 122.712 71.3606 122.875C71.3872 123.038 71.3711 123.205 71.3138 123.359C71.2565 123.514 71.16 123.651 71.0339 123.756C70.9079 123.861 70.7566 123.931 70.5952 123.96C68.3348 124.714 68.2025 127.13 67.044 128.709C66.1562 129.907 67.8877 130.712 68.9329 131.492C69.9781 132.272 72.333 131.98 72.1378 134.332C69.7074 133.102 67.2707 131.885 64.8529 130.63C64.1729 130.281 63.4551 129.748 64.3114 128.969C66.6473 126.845 68.1459 123.833 71.1619 122.432Z" fill="#CC8153"/>
<path d="M96.7578 113.733C96.6759 112.009 96.2667 110.322 97.463 108.661C98.4327 107.317 96.1534 108.027 96.2037 107.107C93.5844 107.107 92.2496 103.601 88.9943 104.755C87.5839 105.256 88.3206 103.348 88.2765 102.473C91.3114 103.551 94.3274 104.698 97.3937 105.687C98.7538 106.125 99.0623 106.664 98.5397 108.058C97.8597 109.923 97.7023 111.951 96.7578 113.733Z" fill="#E8D896"/>
<path d="M115.3 75.3242C112.579 72.387 110.055 69.2713 107.744 65.9976L108.279 65.6616C109.432 65.3953 110.678 65.4079 110.842 66.8155C111.012 68.3182 112.227 69.1614 112.624 70.328C113.253 72.1984 115.382 73.0544 115.47 75.1403L115.3 75.3242Z" fill="#E8D896"/>
<path d="M102.582 105.18C102.746 105.592 103.174 106.125 103.042 106.391C101.833 108.927 100.869 111.577 98.8104 113.581C98.7601 111.178 99.7612 109.009 100.378 106.759C100.655 105.776 101.342 104.99 102.582 105.18Z" fill="#CC8153"/>
<path d="M107.758 65.9965C106.115 64.1705 105.088 61.8563 103.225 60.2078L103.357 60.0683C103.867 60.0366 104.553 60.2775 104.692 59.5294C104.811 58.8953 104.295 57.938 105.561 58.014C106.593 58.0774 106.436 58.9397 106.612 59.6308C107.135 61.6534 107.733 63.6506 108.293 65.6605L107.758 65.9965Z" fill="#E8D896"/>
<path d="M53.4962 85.6016C53.5906 87.6685 53.0743 89.4692 51.1728 90.566C50.4298 90.9972 50.3165 91.6439 50.1654 92.3984C49.8695 93.863 49.0509 94.2371 47.8105 93.2543C49.8254 90.8197 51.1728 87.827 53.4962 85.6016Z" fill="#E8D896"/>
<path d="M123.228 94.6808C121.824 94.199 120.873 92.7407 119.217 92.7787L123.454 89.748C123.755 91.3881 123.677 93.0758 123.228 94.6808Z" fill="#CC8153"/>
<path d="M116.832 120.378C118.425 120.334 120.068 119.845 121.661 121.323C122.323 119.478 121.907 117.854 122.071 116.295C122.165 115.375 121.586 114.228 122.826 113.632C122.782 116.003 122.694 118.374 122.707 120.746C122.707 121.957 122.077 122.217 121.177 121.881C119.747 121.354 118.148 121.285 116.832 120.378Z" fill="#CC8153"/>
<path d="M100.648 75.8242C101.951 76.7155 103.055 77.8705 103.89 79.2154C104.725 80.5604 105.272 82.0657 105.497 83.6355C103.721 81.1311 101.492 78.912 100.648 75.8242Z" fill="#CC8153"/>
<path d="M87.6719 123.63C90.1904 123.561 92.9168 124.214 94.5664 121.424C94.6609 122.825 93.3764 123.96 94.1635 125.824C91.6449 125.101 89.5734 124.645 87.6719 123.63Z" fill="#E8D896"/>
<path d="M94.511 121.5C94.2318 119.105 94.5971 116.679 95.5688 114.475C95.6525 114.216 95.8255 113.995 96.0564 113.853C96.2874 113.712 96.5611 113.658 96.8281 113.701C96.2048 116.352 95.827 119.065 94.511 121.5Z" fill="#E8D896"/>
<path d="M43.4277 173.909C47.1048 171.722 45.3167 175.076 45.7385 176.217L43.7174 174.708C43.6166 174.442 43.5222 174.176 43.4277 173.909Z" fill="#CC8153"/>
<path d="M56.3867 78.1394C56.7708 76.0725 58.1245 74.7663 59.7868 73.7012C59.0438 75.4574 58.2001 77.163 56.3867 78.1394Z" fill="#CC8153"/>
<path d="M60.793 72.4703C61.177 70.8979 60.8874 68.8056 63.4815 68.9451C62.7704 70.2522 61.8636 71.4412 60.793 72.4703Z" fill="#CC8153"/>
<path d="M77.2148 120.289C78.5434 120.702 80.5834 119.091 81.1438 121.691L77.2148 120.289Z" fill="#E8D896"/>
<path d="M47.7473 93.3936C48.0999 94.744 48.2258 95.9297 46.2109 95.6824C46.3746 94.6807 47.1554 94.1037 47.7473 93.3936Z" fill="#E8D896"/>
<path d="M54.617 139.037C54.617 139.963 54.4722 140.774 53.2129 140.464L54.617 139.037Z" fill="#E8D896"/>
<path d="M90.0527 60.7665C90.6005 59.8535 91.4694 60.1959 92.2502 60.1896C91.6457 60.8236 90.8209 60.7095 90.0527 60.7665Z" fill="#CC8153"/>
<path d="M59.7422 73.6497L60.2333 73.0156C60.3026 73.396 60.164 73.637 59.7422 73.6497Z" fill="#CC8153"/>
<path d="M60.2322 73.0666C60.2262 72.9892 60.2355 72.9113 60.2595 72.8374C60.2835 72.7635 60.3217 72.6952 60.3721 72.6362C60.4224 72.5773 60.4838 72.529 60.5527 72.4941C60.6216 72.4591 60.6968 72.4382 60.7737 72.4326C60.7423 72.775 60.6541 73.0666 60.2322 73.0666Z" fill="#CC8153"/>
<path d="M46.3113 95.708L45.6816 96.342C45.7509 95.9806 45.902 95.7207 46.3113 95.708Z" fill="#E8D896"/>
<path d="M127.34 87.0849L127.969 86.6602L128.215 86.9201L127.661 87.4527C127.542 87.3414 127.434 87.2182 127.34 87.0849Z" fill="#E8D896"/>
<path d="M66.0191 51.3003C64.3443 51.3003 62.5498 51.3701 61.9202 49.3411C61.2905 47.3122 62.7009 46.2788 64.0547 45.2643C65.3453 44.2244 66.83 43.4557 68.4209 43.0037C70.0118 42.5518 71.6766 42.4257 73.3167 42.6331C74.4941 42.7979 75.7408 43.1467 76.0367 44.5796C76.2949 45.8793 75.6463 46.9318 74.7334 47.7497C72.3724 49.9899 69.2628 51.2569 66.0191 51.3003ZM71.8244 43.8251C68.5377 44.0914 65.7673 45.0044 63.6391 47.4264C62.4428 48.7959 62.9528 49.6011 64.4891 49.8928C67.6373 50.5268 70.4203 49.3602 72.8948 47.4961C73.77 46.8621 75.1741 46.1012 74.5571 44.7127C74.0596 43.5715 72.6744 43.9012 71.8244 43.8251Z" fill="#15110E"/>
<path d="M49.3829 46.2217C51.1899 46.2788 52.997 46.5007 53.6078 48.5676C54.2185 50.6346 52.7892 51.8139 51.2277 52.7142C49.2192 53.8681 47.0784 54.7177 44.6983 54.3627C43.225 54.1471 41.7327 53.7287 41.3675 51.9851C41.0024 50.2415 41.9972 49.1446 43.225 48.2696C45.0039 46.9348 47.1644 46.2162 49.3829 46.2217ZM45.1328 52.9805C47.9095 53.0185 49.9495 52.2894 51.6055 50.7107C52.9844 49.3919 52.7829 48.2823 50.8562 47.7751C48.5895 47.1727 46.5117 47.9209 44.5598 48.9861C43.5524 49.5314 42.2805 50.3683 42.589 51.668C42.8976 52.9678 44.4213 53.0059 45.1328 52.9805Z" fill="#15110E"/>
<path d="M23.4983 59.1746C22.516 59.0795 21.0364 59.0225 20.4886 57.4184C19.9408 55.8143 20.8664 54.7238 21.9557 53.8361C23.7739 52.245 26.1144 51.3909 28.5228 51.4395C29.6813 51.4838 30.9595 51.7121 31.4443 53.0943C31.9292 54.4765 31.3247 55.4148 30.4873 56.3215C28.7117 58.2553 26.508 59.2 23.4983 59.1746ZM24.1279 57.9066C26.0924 57.6656 28.2206 57.1014 29.675 55.2119C30.6006 54.0136 30.6888 52.9928 28.6865 52.8597C27.5866 52.7495 26.4762 52.8932 25.4397 53.2799C24.4033 53.6666 23.468 54.2862 22.7049 55.0915C22.1634 55.6431 21.5338 56.2327 21.7479 56.9936C22.0627 57.9319 23.0512 57.8495 24.1594 57.9256L24.1279 57.9066Z" fill="#15110E"/>
<path d="M107.551 12.941C109.881 12.9029 111.254 14.8431 110.561 17.0368C109.623 20.0802 105.681 23.1806 102.533 23.3772C99.3848 23.5737 97.9933 21.4751 99.3848 18.6092C101.041 15.0904 103.95 13.4672 107.551 12.941ZM108.389 17.9689L108.804 17.2714C109.919 15.4771 109.383 14.5768 107.325 14.5007C106.779 14.4532 106.23 14.5193 105.711 14.6949C105.192 14.8705 104.715 15.1519 104.309 15.5215C103.219 15.6673 102.678 16.5867 101.935 17.2207C100.676 18.3303 99.8192 19.9217 100.77 21.2658C101.513 22.3247 103.2 22.0393 104.434 21.2278C104.888 21.2278 105.347 21.2278 105.58 20.7079L106.248 20.2641C107.026 19.9804 107.667 19.406 108.036 18.66L108.389 17.9689Z" fill="#15110E"/>
<path d="M121.868 31.125C121.868 33.8323 117.857 37.2053 114.615 37.2244C113.551 37.228 112.528 36.8119 111.766 36.0652C111.003 35.3186 110.561 34.3008 110.535 33.23C110.447 30.3388 114.206 26.9847 117.562 26.9594C118.679 26.944 119.758 27.3725 120.564 28.1522C121.37 28.9318 121.839 29.9999 121.868 31.125ZM114.445 35.6583C117.536 35.7027 120.37 33.3568 120.414 31.1123C120.458 29.337 119.457 28.424 117.7 28.386C114.892 28.3226 112.09 30.7699 112.096 33.2807C112.109 35.3033 113.513 35.5886 114.445 35.6583Z" fill="#15110E"/>
<path d="M148.13 82.5261C144.056 82.5261 137.426 76.5725 137.162 72.5718C137.036 70.4605 138.509 69.8835 140.234 70.0357C143.855 70.321 149.711 75.4883 150.611 79.0643C151.178 81.3088 150.334 82.5134 148.13 82.5261ZM140.027 71.3101C138.925 71.3101 138.484 71.9061 138.66 73.1614C139.032 75.8688 144.73 80.9727 147.551 81.1312C148.854 81.201 149.389 80.6494 149.188 79.2925C148.747 76.2682 143.099 71.3101 140.027 71.3101Z" fill="#15110E"/>
<path d="M149.485 92.3037C146.721 92.1389 144.209 90.5728 144.322 89.0765C144.435 87.5802 147.206 86.3121 149.857 86.5404C149.949 86.5307 150.042 86.5307 150.134 86.5404C151.985 87.0983 154.377 87.0032 154.648 89.7105C154.787 91.1117 151.953 92.4496 149.485 92.3037ZM145.795 89.3618C148.094 91.0991 150.316 91.3146 152.665 90.1417C153.143 89.9071 153.168 89.5076 152.772 89.0511C151.582 87.6499 148.194 87.6816 145.795 89.3618Z" fill="#15110E"/>
<path d="M31.4591 177.295C31.4591 180.091 29.2365 182.678 26.8753 182.589C25.0809 182.525 23.2675 180.351 23.3053 178.322C23.3493 176.147 25.912 172.812 27.5931 172.736C29.5954 172.647 31.4402 174.822 31.4591 177.295ZM30.1998 177.257C29.9354 175.944 29.8095 174.239 27.8261 174.302C25.446 174.372 24.9171 176.204 24.8857 178.157C24.8857 179.584 25.1564 180.991 26.9698 181.156C28.5817 181.308 30.1369 179.45 30.1872 177.257H30.1998Z" fill="#15110E"/>
<path d="M83.9633 204.4C80.7647 204.4 78.3594 202.288 78.3909 199.511C78.4287 196.468 81.2873 194.027 84.7881 194.033C87.7222 194.033 90.4234 196.5 90.3541 199.105C90.2785 201.927 87.3003 204.4 83.9633 204.4ZM84.807 195.434C82.1058 195.396 79.4676 197.527 79.5432 199.682C79.6061 201.508 81.5895 203.125 83.8625 203.208C86.5511 203.309 88.9878 201.229 88.9374 198.871C88.8996 196.772 87.3192 195.434 84.807 195.434Z" fill="#15110E"/>
<path d="M88.4284 208.527C88.3906 206.53 90.0591 204.451 91.734 204.413C93.7992 204.375 95.6629 206.676 95.6566 209.257C95.6566 211.603 94.2525 213.27 92.3447 213.207C90.4369 213.143 88.4976 210.721 88.4284 208.527ZM89.9269 208.432C90.0339 209.954 90.2606 211.526 92.1432 211.691C93.7614 211.831 94.4477 210.575 94.3848 209.155C94.3155 207.526 93.711 205.928 91.7655 205.865C90.2354 205.839 89.8828 207.082 89.9269 208.432Z" fill="#15110E"/>
<path d="M71.6544 184.853C67.7317 184.853 67.7443 184.853 67.8766 181.321C67.9269 180.021 67.9143 178.722 67.908 177.422C67.908 176.35 68.7203 175.165 69.3184 175.33C71.9125 176.021 71.0877 174.176 71.1759 173.053C71.4088 170.15 70.2944 166.954 73.0144 164.589C73.1245 164.444 73.1783 164.264 73.1655 164.082C73.1655 163.283 72.0196 162.116 72.794 161.869C74.3367 161.387 75.7534 160.144 77.4282 160.423C79.5375 160.772 81.6027 160.487 83.6805 160.341C87.8047 160.056 91.551 161.609 95.3981 162.668C96.393 162.953 96.8652 163.816 96.5504 164.57C95.4548 167.227 96.9093 169.769 96.6826 172.388C96.5126 174.404 96.0152 175.735 93.78 175.989C91.784 176.217 90.3799 177.714 88.8751 178.842C85.8906 181.08 82.8179 182.9 78.9204 182.646C78.5136 182.577 78.0968 182.598 77.6988 182.707C77.3008 182.817 76.9313 183.012 76.616 183.28C75.9561 183.896 75.1687 184.356 74.3107 184.628C73.4527 184.9 72.5454 184.977 71.6544 184.853Z" fill="#F9D96F"/>
<path d="M86.2176 140.356C87.225 140.356 88.2324 140.356 89.2461 140.356C89.7373 140.356 94.3966 144.915 94.4596 145.428C94.8311 148.395 93.1184 151.039 93.1373 154.019C93.1373 155.059 91.1665 155.769 90.0836 155.833C87.798 155.966 85.3927 156.289 83.1575 155.249C82.2634 154.831 81.7849 154.945 81.0734 155.725C79.9652 156.93 78.4163 156.067 77.2956 155.674C76.5652 155.421 76.0363 153.943 75.86 152.929C75.7026 152.079 76.4896 151.471 77.4593 151.42C78.0071 151.42 78.5989 151.331 78.7186 150.634C78.8382 149.936 78.4604 149.429 77.7237 149.277C77.5626 149.261 77.4071 149.208 77.269 149.123C77.1309 149.038 77.0138 148.922 76.9265 148.785C76.8393 148.648 76.7841 148.492 76.7651 148.33C76.7461 148.168 76.7639 148.004 76.817 147.85C76.9493 147.165 77.4971 147.032 78.0763 147.013C79.0523 146.969 79.7197 146.804 79.9652 145.555C81.1175 140.337 81.1742 140.35 86.2176 140.356Z" fill="#E87619"/>
<path d="M108.294 65.6611C107.733 63.6512 107.135 61.654 106.612 59.6314C106.436 58.9403 106.612 58.078 105.561 58.0146C104.302 57.9385 104.812 58.8896 104.692 59.53C104.553 60.2781 103.867 60.0372 103.357 60.0689C102.803 58.0844 104.616 56.6832 104.654 54.8318C104.654 54.6035 105.139 54.2738 105.454 54.1977C106.474 53.8807 111.82 57.0826 112.109 58.1604C112.229 58.5979 112.235 59.4285 112.336 59.4602C115.043 59.6504 116.114 62.3831 118.003 63.3151C120.748 64.6529 121.78 66.6185 121.875 69.0912C121.925 70.429 122.202 71.3864 123.185 71.7288C125.558 72.5593 126.163 74.8989 127.365 76.6044C128.234 77.8154 127.888 79.9585 127.919 81.6767C127.919 82.279 127.252 83.173 126.66 82.8877C125.149 82.1396 123.342 83.9339 121.906 81.9684C120.704 80.3262 120.647 78.4115 119.879 76.6996C118.538 73.802 118.059 73.5294 115.471 75.1462C115.383 73.0602 113.255 72.2043 112.625 70.3339C112.229 69.1673 111.014 68.324 110.844 66.8213C110.692 65.4074 109.446 65.3948 108.294 65.6611Z" fill="#F9D96F"/>
<path d="M49.5989 148.161C49.1897 148.059 48.6923 147.996 48.8245 147.406C48.8919 147.301 48.9856 147.216 49.0962 147.16C49.2067 147.103 49.3302 147.076 49.4541 147.083C50.0838 147.21 49.8256 147.685 49.7249 148.078L49.5989 148.161Z" fill="#EA604D"/>
<path d="M50.2854 145.828L50.1406 146.05C50.1784 145.967 50.2162 145.885 50.2603 145.809L50.2854 145.828Z" fill="#EA604D"/>
<path d="M65.0996 156.442L65.2444 156.252C65.2444 156.334 65.1815 156.417 65.1563 156.499L65.0996 156.442Z" fill="#EA604D"/>
<path d="M59.9922 108.44C63.5685 107.805 66.5216 109.2 68.0201 111.679C68.4797 112.447 69.4431 112.947 69.7642 113.746C70.7087 116.08 70.0287 118.026 68.0453 119.586C67.1008 120.321 65.7723 120.492 65.3315 122.04C65.1049 122.832 63.5623 122.674 63.5874 121.602C63.6378 119.37 62.2085 117.868 61.5411 116.016C61.0437 114.628 59.8348 113.005 61.4593 111.28C62.4289 110.247 61.3774 109.314 59.9922 108.44Z" fill="#F9D96F"/>
<path d="M127.642 87.4525L128.196 86.9199C130.45 87.2433 130.494 89.2278 130.872 90.7748C132.32 96.7347 132.037 102.821 132.012 108.895C132.012 112.25 131.691 115.508 130.091 118.558C129.739 119.23 129.865 120.181 129.814 121.005C129.764 121.83 129.493 122.464 128.555 122.476C127.831 122.476 126.968 122.667 126.666 121.766C126.188 120.41 125.3 119.262 125.369 117.626C125.709 109.77 125.054 101.902 125.873 94.0338C126.099 91.6561 128.631 90.052 127.642 87.4525Z" fill="#F9D96F"/>
<path d="M84.9588 119.135L84.8328 119.046L84.6943 119.097C82.2261 118.019 79.6194 117.144 78.0516 114.703C77.3212 113.555 76.5342 112.402 76.7923 110.899C77.976 110.652 78.0012 111.717 78.3664 112.351C79.0338 113.517 79.5313 114.811 80.8472 115.445H80.9857L81.6972 115.863H81.6468C84.0584 117.918 86.7595 117.937 89.5992 117.036C89.6269 117.052 89.6577 117.062 89.6895 117.065C89.7213 117.069 89.7534 117.065 89.7838 117.055C89.8141 117.045 89.8419 117.028 89.8655 117.006C89.889 116.985 89.9077 116.958 89.9203 116.928C91.1166 117.119 91.8785 115.324 93.2196 116.199L93.3519 116.694L92.483 117.518C92.4521 117.512 92.4202 117.512 92.3895 117.519C92.3588 117.526 92.3299 117.54 92.3049 117.559C92.2798 117.578 92.2591 117.603 92.2442 117.631C92.2293 117.659 92.2206 117.689 92.2185 117.721C89.9593 118.812 87.4591 119.299 84.9588 119.135Z" fill="#2B120D"/>
<path d="M13.2367 179.4C15.0563 179.4 17.5497 178.481 16.9326 182.006L15.9126 182.323C14.9493 182.64 13.9481 182.894 13.117 182.145C12.1159 181.239 13.1233 180.313 13.2367 179.4Z" fill="#F9D96F"/>
<path d="M50.7691 72.8701L50.1395 73.5041C50.1206 73.0667 50.4417 72.9525 50.7691 72.8701Z" fill="#CC8153"/>
<path d="M80.8479 115.471C79.5319 114.837 79.0345 113.569 78.3671 112.377C78.0019 111.743 77.9767 110.677 76.793 110.925C76.963 109.771 77.8193 109.302 78.726 108.794C79.5004 108.363 80.2245 107.856 80.0734 106.689C79.8152 104.787 80.9927 104.54 82.4786 104.749C81.8931 105.973 81.2193 107.165 80.7534 108.427C80.4638 109.194 80.4323 110.329 81.2886 110.57C81.5158 110.648 81.7571 110.678 81.9963 110.655C82.2356 110.632 82.4673 110.559 82.6759 110.439C82.8845 110.318 83.0653 110.155 83.2061 109.959C83.3469 109.763 83.4445 109.539 83.4923 109.302C83.7311 108.454 84.0213 107.622 84.3612 106.81C85.0727 108.851 84.7579 110.791 82.5542 111.248C80.2182 111.755 79.8782 112.516 81.0493 114.456C81.1816 114.672 80.9423 115.128 80.8479 115.471Z" fill="#E8D896"/>
<path d="M88.9571 112.693C88.9662 112.653 88.9668 112.611 88.9587 112.571C88.9507 112.531 88.9342 112.492 88.9104 112.459C88.8866 112.425 88.856 112.397 88.8206 112.376C88.7853 112.356 88.7459 112.343 88.7052 112.338C88.2267 108.775 89.1648 107.038 91.5197 107.107H91.4819C91.8092 108.086 91.8092 109.146 91.4819 110.125C91.0916 111.317 91.2553 113.289 88.9571 112.693Z" fill="#2B120D"/>
<path d="M84.362 106.791C84.022 107.603 83.7319 108.435 83.4931 109.282C83.4452 109.52 83.3476 109.744 83.2068 109.94C83.066 110.136 82.8853 110.299 82.6766 110.419C82.468 110.539 82.2363 110.613 81.997 110.636C81.7578 110.658 81.5165 110.629 81.2893 110.55C80.433 110.329 80.4645 109.175 80.7541 108.407C81.2389 107.139 81.8938 105.954 82.4793 104.73C84.0471 104.546 84.6264 105.275 84.362 106.791Z" fill="#2B120D"/>
<path d="M89.5988 117.062C86.7592 117.962 84.058 117.943 81.6465 115.889C83.3339 115.99 85.1284 114.982 86.6395 116.821C87.2377 117.518 88.6481 115.965 89.5988 117.062Z" fill="#E8D896"/>
<path d="M84.959 119.136C87.4571 119.308 89.9573 118.83 92.2187 117.747C92.1243 119.649 90.9091 120.226 89.2657 120.283C87.7168 120.328 86.212 120.213 84.959 119.136Z" fill="#E8D896"/>
<path d="M88.957 112.693C91.2552 113.289 91.0915 111.317 91.5071 110.1C91.8344 109.121 91.8344 108.061 91.5071 107.082C91.5952 107.082 91.6834 107.031 91.7715 107.018C92.3004 106.968 93.0749 106.841 92.9049 107.652C92.5019 109.555 92.9678 111.793 91.1419 113.188C90.3863 113.758 89.423 113.986 88.957 112.693Z" fill="#E8D896"/>
<path d="M91.5187 107.108C89.1639 107.038 88.2257 108.775 88.7042 112.339C87.2812 110.437 87.4827 107.33 89.2646 106.17C90.1902 105.567 91.3991 105.263 91.5187 107.108Z" fill="#E8D896"/>
<path d="M93.2192 116.225C91.8781 115.35 91.1162 117.145 89.9199 116.954C90.3984 115.927 90.7951 114.653 92.0166 114.501C92.8603 114.399 93.4018 115.23 93.2192 116.225Z" fill="#E8D896"/>
<path d="M92.4824 117.544L93.3513 116.72C93.2758 117.221 93.3261 117.861 92.4824 117.544Z" fill="#E8D896"/>
<path d="M81.6959 115.915L80.9844 115.496L81.6959 115.915Z" fill="#E8D896"/>
<path d="M69.8596 128.544L69.5826 128.912C69.4759 128.804 69.379 128.688 69.293 128.563C69.293 128.563 69.4 128.36 69.4252 128.373C69.5754 128.415 69.721 128.472 69.8596 128.544Z" fill="#CC8153"/>
<path d="M101.133 128.132C99.9119 128.443 98.5708 128.563 98.7912 130.453C98.873 131.182 98.193 131.626 97.4878 131.569C96.7826 131.511 96.7007 130.884 96.663 130.3C96.4426 126.712 96.4867 123.13 97.9222 119.763C98.9108 117.436 100.491 118.216 102.179 119.097C104.382 120.251 103.633 122.007 102.878 123.301C101.977 124.848 101.222 126.331 101.133 128.132Z" fill="#EA604D"/>
<path d="M71.8249 43.8252C72.6749 43.9203 74.0601 43.5716 74.5701 44.7128C75.1998 46.1014 73.7831 46.8369 72.9079 47.4962C70.4334 49.3603 67.6693 50.5016 64.5022 49.8929C62.9659 49.6012 62.4559 48.796 63.6522 47.4265C65.7678 45.0045 68.5382 44.0915 71.8249 43.8252Z" fill="#E8D896"/>
<path d="M45.1329 52.9807C44.4025 52.9807 42.9418 53.0504 42.6144 51.6682C42.2869 50.2861 43.5777 49.5315 44.5851 48.9863C46.5181 47.9211 48.5959 47.1729 50.8815 47.7753C52.8082 48.2825 53.0097 49.3921 51.6308 50.7108C49.9497 52.2896 47.9096 53.0187 45.1329 52.9807Z" fill="#E8D896"/>
<path d="M24.1612 57.9256C23.053 57.8749 22.0645 57.9256 21.7812 56.9873C21.5671 56.2518 22.1967 55.6621 22.7382 55.0852C23.5012 54.2799 24.4365 53.6603 25.473 53.2736C26.5095 52.8869 27.6199 52.7432 28.7198 52.8534C30.722 52.9865 30.6087 54.0073 29.7083 55.2056C28.2539 57.1204 26.1257 57.6847 24.1612 57.9256Z" fill="#E8D896"/>
<path d="M104.434 21.2288C103.175 22.0403 101.513 22.3256 100.77 21.2668C99.8191 19.9226 100.65 18.3312 101.935 17.2217C102.678 16.5876 103.194 15.6683 104.308 15.5225L104.397 15.6239C104.29 16.5306 103.521 16.9744 102.955 17.526C102.592 17.8645 102.329 18.2961 102.192 18.7743C102.056 19.2525 102.052 19.7592 102.18 20.2397C102.426 21.6218 103.729 20.6518 104.378 21.1717L104.434 21.2288Z" fill="#F4DECD"/>
<path d="M104.307 15.5221C104.713 15.1525 105.19 14.8711 105.709 14.6955C106.228 14.5198 106.777 14.4537 107.323 14.5013C109.382 14.5774 109.917 15.4777 108.802 17.272C108.204 14.3935 105.956 16.0039 104.395 15.6362L104.307 15.5221Z" fill="#F4DECD"/>
<path d="M108.016 18.6598C107.642 19.4051 107.001 19.9789 106.221 20.2639L106.014 20.0547C106.133 19.0593 106.977 18.7867 107.682 18.3936C107.783 18.4945 107.895 18.5838 108.016 18.6598Z" fill="#F4DECD"/>
<path d="M105.58 20.7079C105.347 21.2088 104.887 21.2151 104.434 21.2278L104.377 21.1517L105.485 20.6064L105.58 20.7079Z" fill="#F4DECD"/>
<path d="M106.246 20.2639L105.579 20.7077L105.484 20.6063L106.038 20.0547L106.246 20.2639Z" fill="#F4DECD"/>
<path d="M108.387 17.9696L108.041 18.6607C107.92 18.5846 107.808 18.4953 107.707 18.3944L108.249 17.8301L108.387 17.9696Z" fill="#F4DECD"/>
<path d="M108.802 17.2715L108.387 17.9689L108.248 17.8294L108.777 17.2588L108.802 17.2715Z" fill="#F4DECD"/>
<path d="M114.444 35.6593C113.512 35.5769 112.108 35.2916 112.096 33.2817C112.096 30.7456 114.891 28.3236 117.699 28.387C119.456 28.425 120.457 29.338 120.413 31.1133C120.369 33.3704 117.536 35.7164 114.444 35.6593Z" fill="#E8D896"/>
<path d="M140.027 71.3105C143.1 71.3105 148.748 76.2687 149.188 79.293C149.39 80.6498 148.855 81.1951 147.551 81.1317C144.73 80.9732 139.032 75.8692 138.661 73.1619C138.484 71.9065 138.925 71.3105 140.027 71.3105Z" fill="#E8D896"/>
<path d="M145.795 89.3612C148.194 87.681 151.581 87.6176 152.771 89.0505C153.168 89.526 153.143 89.9064 152.664 90.141C150.316 91.314 148.093 91.0984 145.795 89.3612Z" fill="#E8D896"/>
<path d="M30.1861 177.257C30.1357 179.451 28.5805 181.309 26.956 181.156C25.1427 180.992 24.853 179.584 24.8719 178.157C24.8719 176.192 25.4323 174.353 27.8123 174.302C29.7957 174.239 29.9405 175.945 30.1861 177.257Z" fill="#E8D896"/>
<path d="M84.8083 195.435C87.3269 195.435 88.901 196.779 88.9388 198.872C88.9892 201.23 86.5525 203.31 83.8639 203.208C81.5909 203.126 79.6075 201.509 79.5446 199.683C79.469 197.521 82.1072 195.391 84.8083 195.435ZM84.8083 197.122C83.6183 197.153 82.4535 197.153 82.4661 198.326C82.4661 199.633 83.4987 200.362 84.8083 200.463C85.7591 200.533 86.7476 200.463 86.6343 199.113C86.5273 197.889 85.9291 197.039 84.8021 197.115L84.8083 197.122Z" fill="#E8D896"/>
<path d="M89.9274 208.433C89.8833 207.082 90.2359 205.839 91.7659 205.896C93.7115 205.96 94.316 207.558 94.3852 209.187C94.4482 210.582 93.7556 211.837 92.1437 211.723C90.2611 211.527 90.0344 209.954 89.9274 208.433Z" fill="#E8D896"/>
<path d="M161.194 91.6879C161.15 90.1346 161.27 88.3149 162.983 88.1437C164.802 87.9598 165.407 89.7858 165.677 91.3582C165.992 93.1462 166.402 95.023 164.903 96.551C164.715 96.7594 164.455 96.8888 164.176 96.9135C163.898 96.9381 163.62 96.8563 163.398 96.6841C161.654 95.4731 161.289 93.6344 161.194 91.6879Z" fill="#E8D896"/>
<path d="M167.378 92.8383C167.434 93.9498 167.205 95.0571 166.711 96.0529C165.414 98.2466 163.512 98.5002 161.768 96.6552C159.911 94.677 159.35 90.5748 160.591 88.0641C161.636 85.9591 163.6 85.623 165.3 87.2715C166.664 88.7975 167.406 90.7855 167.378 92.8383ZM161.258 91.2723C161.353 93.2124 161.718 95.0765 163.462 96.2684C163.684 96.4406 163.961 96.5225 164.24 96.4978C164.519 96.4731 164.778 96.3437 164.967 96.1353C166.465 94.6073 166.056 92.7305 165.741 90.9426C165.47 89.3702 164.866 87.5442 163.046 87.728C161.334 87.8992 161.214 89.7189 161.258 91.2723Z" fill="#15110E"/>
<path d="M161.259 91.2719C161.215 89.7185 161.334 87.8989 163.047 87.7277C164.867 87.5438 165.471 89.3698 165.742 90.9422C166.057 92.7302 166.466 94.6069 164.967 96.135C164.779 96.3434 164.52 96.4728 164.241 96.4974C163.962 96.5221 163.684 96.4402 163.463 96.2681C161.718 95.0571 161.353 93.2184 161.259 91.2719Z" fill="#E8D896"/>
</svg>
