<svg width="116" height="118" viewBox="0 0 116 118" fill="none" xmlns="http://www.w3.org/2000/svg">
<path d="M57.995 3.06422C58.4805 3.06422 58.9829 3.06421 59.4684 3.16468C66.0321 3.9349 69.6655 7.48462 69.5148 14.199C69.5148 15.3208 72.1772 15.3208 72.2107 14.199C72.3638 11.0392 71.3936 7.92716 69.4721 5.41414C67.5506 2.90112 64.8016 1.14926 61.7122 0.46887C59.2735 -0.15629 56.7165 -0.15629 54.2778 0.46887C51.1884 1.14926 48.4395 2.90112 46.5179 5.41414C44.5964 7.92716 43.6263 11.0392 43.7794 14.199C43.7794 15.3208 46.5086 15.3208 46.4751 14.199C46.3244 7.50136 49.9579 3.9349 56.5216 3.16468L57.995 3.06422Z" fill="#C03D33"/>
<path d="M114.742 88.5241C113.704 85.1753 112.097 81.9102 110.908 78.5614C109.82 75.5308 109.786 71.1439 107.844 68.515C104.847 64.4128 99.7064 65.3672 95.5036 66.69C95.3584 66.5397 95.1736 66.4336 94.9706 66.3841C94.7675 66.3346 94.5547 66.3437 94.3566 66.4103C94.1585 66.4769 93.9834 66.5983 93.8515 66.7604C93.7197 66.9225 93.6364 67.1187 93.6116 67.3262C92.8971 79.7503 92.339 92.1799 91.9372 104.615C91.9222 104.884 92.0123 105.148 92.1884 105.352C92.1773 105.517 92.2027 105.682 92.2629 105.836C92.323 105.99 92.4165 106.128 92.5364 106.242C92.6564 106.355 92.8 106.441 92.9569 106.493C93.1138 106.544 93.2802 106.561 93.4442 106.541C99.3046 105.871 107.894 105.519 112.917 102.12C117.371 99.1398 116.065 92.8105 114.742 88.5241Z" fill="#EF7937"/>
<path d="M1.25106 88.5241C2.28919 85.1753 3.89662 81.9102 5.08544 78.5614C6.1738 75.5308 6.2073 71.1439 8.13286 68.515C11.1468 64.4128 16.2704 65.3672 20.4899 66.69C20.6351 66.5397 20.82 66.4336 21.023 66.3841C21.226 66.3346 21.4389 66.3437 21.637 66.4103C21.8351 66.4769 22.0102 66.5983 22.142 66.7604C22.2739 66.9225 22.3571 67.1187 22.382 67.3262C23.0964 79.7503 23.6545 92.1799 24.0564 104.615C24.0714 104.884 23.9813 105.148 23.8052 105.352C23.8133 105.516 23.7859 105.68 23.7247 105.832C23.6635 105.985 23.5701 106.122 23.4508 106.235C23.3315 106.348 23.1892 106.434 23.0336 106.487C22.878 106.539 22.7128 106.558 22.5494 106.541C16.689 105.871 8.0826 105.519 3.07615 102.12C-1.3945 99.1398 -0.0382281 92.8105 1.25106 88.5241Z" fill="#EF7937"/>
<path d="M57.9943 117.375C68.6435 117.777 103.605 116.421 106.301 106.107C109.147 95.2566 103.555 75.9676 100.524 65.4356C96.405 51.2368 90.98 37.3727 86.074 23.4585C85.9885 23.215 85.8155 23.012 85.5885 22.8892C84.3829 19.5404 80.5652 18.7199 76.8648 18.2846C64.3047 17.146 51.6673 17.146 39.1072 18.2846C35.5072 18.7199 31.6059 19.5906 30.3836 22.8892C30.1618 23.0139 29.9946 23.2169 29.9147 23.4585C24.992 37.3727 19.5669 51.2368 15.4647 65.4356C12.434 75.9174 6.82473 95.2566 9.67121 106.107C12.3837 116.421 47.3451 117.777 57.9943 117.375Z" fill="#C03D33"/>
<path d="M57.9939 53.4642C68.4254 53.4642 78.8569 52.9953 82.708 52.0576C89.2884 50.3832 87.3126 43.9703 86.0568 38.9639C84.801 33.9574 83.4448 28.9175 81.9379 23.8943C80.883 20.3613 80.1797 15.4386 77.6681 12.5419C74.8886 9.34379 66.4329 7.73633 57.9605 7.73633C49.488 7.73633 41.0155 9.41077 38.2528 12.5419C35.7412 15.4386 35.0379 20.3613 33.9663 23.8943C32.4817 28.884 31.1142 33.9072 29.864 38.9639C28.6417 43.9871 26.6492 50.4335 33.2128 52.0576C37.1142 52.9953 47.5624 53.4642 57.9939 53.4642Z" fill="#EF7937"/>
<path d="M57.9955 67.1097C61.6289 67.2436 65.2959 67.7292 68.8121 68.0808C74.1869 68.6334 94.2295 69.5878 93.0072 78.6128C92.823 79.9858 94.9328 80.5886 95.117 79.1989C96.3727 69.9227 84.6854 68.2483 77.8873 67.0762C71.3299 65.7539 64.6789 64.9478 57.9955 64.665C51.3064 64.9468 44.6498 65.7529 38.0869 67.0762C31.3893 68.2483 19.6686 69.9227 20.8574 79.1989C21.0583 80.5886 23.168 79.9858 22.9839 78.6128C21.7615 69.5878 41.8041 68.5664 47.1622 68.0808C50.6951 67.7292 54.3453 67.2436 57.9955 67.1097Z" fill="#EF7937"/>
<path d="M73.1986 50.382C72.9656 50.0569 72.638 49.8117 72.2604 49.6799C71.8828 49.548 71.4736 49.536 71.0889 49.6453C68.7615 50.0807 69.6489 53.7978 70.1345 55.288C70.3354 55.941 70.4192 57.5652 71.1392 57.8833C74.9735 59.5912 74.3037 51.9225 73.1986 50.382Z" fill="#75243B"/>
<path d="M42.7755 50.3814C43.0113 50.055 43.3419 49.8091 43.7224 49.6773C44.1029 49.5455 44.5148 49.5341 44.902 49.6447C47.2294 50.0801 46.342 53.7972 45.8564 55.2874C45.6387 55.9405 45.5717 57.5646 44.8517 57.8827C41.0006 59.5906 41.6704 51.9219 42.7755 50.3814Z" fill="#75243B"/>
</svg>
