<svg width="159" height="75" viewBox="0 0 159 75" fill="none" xmlns="http://www.w3.org/2000/svg">
<path d="M158.801 17.2283C159.13 10.597 157.954 3.11923 152.922 0.579609C144.315 -3.55904 93.8988 15.6292 90.7008 21.2729C88.6785 24.7531 90.2306 31.8076 90.3717 35.7111C90.3717 38.768 90.3717 41.872 90.3717 45.1171C90.3717 47.4216 89.1018 51.3251 90.1364 53.4414C93.7107 60.5429 146.243 79.4491 153.956 74.0406C158.377 70.8896 158.659 62.8945 158.659 58.0974C159.13 50.5726 153.956 46.1518 152.122 39.6146C150.288 33.0774 155.602 30.82 157.201 25.7877C158.078 23.0096 158.615 20.1355 158.801 17.2283Z" fill="#D71C3A"/>
<path d="M0.0771539 17.2283C-0.252057 10.597 0.923741 3.11923 6.00299 0.579609C14.5625 -3.55904 65.0257 15.6292 68.1768 21.2729C70.1991 24.7531 68.647 31.8076 68.5529 35.7111C68.5529 38.768 68.5529 41.872 68.5529 45.1171C68.5529 47.4216 69.8699 51.3251 68.7882 53.4414C65.2139 60.5429 12.7283 79.4491 4.96832 74.0406C0.547495 70.8896 0.265228 62.8945 0.0300779 58.0974C-0.440223 50.5726 4.73316 46.1518 6.56733 39.6146C8.4015 33.0774 3.08702 30.82 1.488 25.7877C0.698828 22.9964 0.22562 20.1252 0.0771539 17.2283Z" fill="#D71C3A"/>
<path d="M131.758 41.2607C120 39.2854 107.725 39.8498 96.2968 36.5577C99.777 35.429 103.351 34.4414 106.926 33.5948C109.089 33.1245 108.195 29.8324 106.032 30.3027C100.785 31.5609 95.6185 33.1314 90.5591 35.0057C89.3363 35.429 88.6779 37.4983 90.1358 38.1097C103.163 43.6122 117.131 42.8127 130.864 44.9761C133.027 44.9291 133.921 41.6369 131.758 41.2607Z" fill="#9E0C3C"/>
<path d="M27.1241 41.2607C38.8816 39.2854 51.2035 39.8498 62.6318 36.5577C59.1045 35.429 55.5773 34.4414 51.956 33.5948C49.7926 33.1245 50.7332 29.8324 52.8496 30.3027C58.0963 31.5609 63.2631 33.1314 68.3225 35.0057C69.5453 35.429 70.2037 37.4983 68.7458 38.1097C55.7184 43.6122 41.7505 42.8127 28.0177 44.9761C25.9014 44.9291 24.9607 41.6369 27.1241 41.2607Z" fill="#9E0C3C"/>
<path d="M79.4651 57.4857C82.8512 57.4857 97.3835 56.9214 97.1013 52.1243C96.8266 45.0441 97.0938 37.9532 97.9008 30.9137C98.3187 29.191 98.3672 27.3993 98.043 25.6566C97.7188 23.9138 97.0291 22.2594 96.0196 20.8023C93.3859 17.5102 86.6136 17.6983 79.4651 17.6983C72.3165 17.6983 65.356 17.6983 62.8634 20.8023C61.8646 22.2645 61.1814 23.9189 60.8576 25.6598C60.5337 27.4008 60.5762 29.1901 60.9823 30.9137C61.8128 37.9514 62.0801 45.0441 61.7817 52.1243C61.4995 56.9214 76.0319 57.4857 79.4651 57.4857Z" fill="#EF493E"/>
</svg>
