<svg width="159" height="159" viewBox="0 0 159 159" fill="none" xmlns="http://www.w3.org/2000/svg">
<path d="M140.708 18.9337C130.226 8.78686 112.347 3.42617 101.19 13.8829C96.088 19.9606 91.9578 26.6363 87.655 33.0952C81.5065 42.8697 75.1339 52.9576 71.3171 64.2779C70.9168 65.6086 70.4054 67.308 70.2123 69.1863C66.2164 70.2792 63.0646 72.463 59.8468 74.4635C46.6447 82.2299 33.3128 89.3192 20.5422 98.1439C17.6818 100.287 14.5106 101.982 12.1846 105.197C8.07113 111.945 7.41923 121.105 10.5238 128.534C13.8925 135.165 20.2023 139.688 25.2191 142.834C36.9798 149.363 47.278 153.783 56.8082 148.345C71.3726 136.984 86.4153 126.881 100.413 114.543C102.188 112.977 104.159 111.238 105.589 108.862C112.1 105.757 117.379 101.349 123.005 97.2326C126.074 94.9032 129.111 92.5316 132.225 90.2332C135.06 88.131 141.267 83.85 138.685 77.0287C137.855 75.0094 136.335 73.4749 134.39 72.6169C134.947 71.6687 135.505 70.7076 136.061 69.7357C139.409 63.8863 142.565 57.9506 145.465 52.0424C148.931 44.8041 153.586 37.8486 147.373 28.0897C145.211 25.0196 143.592 21.6916 140.708 18.9337Z" fill="white"/>
<path d="M143.853 30.5999C141.813 27.739 140.227 24.4705 137.678 22.0172C129.507 13.9859 113.617 8.04829 104.168 17.0189C99.4511 22.8456 95.3954 29.2198 91.2646 35.4774C85.2515 45.0398 79.1131 54.7743 75.4589 65.5237C74.7583 67.8524 74.021 70.5089 74.7845 72.9086C69.9946 72.8597 65.9867 75.7433 62.0846 78.1644C48.9821 85.8747 35.519 93.0403 23.0034 101.7C20.5722 103.521 17.8006 105.065 15.8778 107.448C12.4466 113.076 11.9841 120.812 14.5149 126.867C17.3753 132.166 22.4041 135.954 27.4095 139.104C34.2331 143.111 46.5456 149.294 54.1487 144.936C68.4608 133.764 83.5847 123.579 97.2385 111.577C99.2258 109.82 101.363 108.018 102.455 105.537C109.046 102.693 114.638 97.9941 120.391 93.7888C123.479 91.4434 126.538 89.0573 129.658 86.7542C132.098 84.9529 136.101 82.2451 134.665 78.6214C133.319 75.4716 129.179 75.751 126.61 77.0935C128.579 73.9669 130.475 70.7919 132.309 67.5873C135.573 61.8863 138.666 56.0842 141.561 50.1871C144.849 43.2633 148.58 38.0833 143.853 30.5999Z" fill="#68182B"/>
<path d="M94.8463 82.6491C89.5316 78.2 82.9223 74.7225 75.8878 74.4328C72.6568 74.2677 69.5251 75.2612 66.8677 77.0733C59.1467 81.8238 51.1795 86.1714 43.3596 90.7551C34.9466 95.6862 26.4588 100.699 18.7425 106.688C16.2135 108.447 15.4442 111.64 16.7801 114.455C21.7964 124.227 35.4259 131.306 45.8634 133.534C52.9981 135.038 54.8418 132.419 60.0452 128.474C63.7921 125.64 67.5694 122.846 71.338 120.041C80.5978 113.117 89.9849 106.29 98.533 98.4849C99.5096 97.5763 100.731 96.644 101.361 95.4738C103.308 90.7139 98.1267 85.6011 94.8463 82.6491ZM93.4375 96.6162C85.5902 103.602 76.9082 109.584 68.4535 115.8C64.324 118.799 60.1771 121.776 56.0994 124.845C53.6883 127.118 51.0087 128.309 47.6502 127.715C39.7366 126.43 31.9132 122.32 26.5465 116.329C21.5935 110.428 23.6034 106.914 29.5666 103.293C35.8956 98.9533 42.5945 95.1443 49.2591 91.3513C55.223 87.9572 61.2718 84.6964 67.1448 81.1461C69.4194 79.5991 72.0532 78.6111 74.8368 78.6671C81.0501 78.7405 87.0807 81.603 91.6905 85.6664C94.9928 88.4769 97.926 93.4038 93.4375 96.6162Z" fill="#FBF199"/>
<path d="M29.0156 116.745C31.9058 114.622 34.8413 112.555 37.8152 110.544C40.9502 112.86 44.2223 114.969 47.57 116.963C44.6651 119.092 41.7893 121.259 38.9249 123.442C35.2667 121.712 31.9159 119.497 29.0156 116.745Z" fill="#00EBED"/>
<path d="M44.203 105.226C43.4056 104.305 38.1308 99.68 38.0545 99.6299C35.8152 100.973 33.5984 102.356 31.4414 103.818C31.4835 103.871 35.6798 107.801 37.8704 109.43C39.9304 107.987 44.209 105.233 44.203 105.226Z" fill="#00EBED"/>
<path d="M45.068 105.779C48.0922 108.022 51.2546 110.058 54.4886 111.982C52.4234 113.434 50.3717 114.906 48.3348 116.397C44.9889 114.423 41.7277 112.31 38.6211 110C40.7533 108.567 42.9027 107.16 45.068 105.779Z" fill="#CEFFFF"/>
<path d="M63.4195 85.0918C64.9259 86.3317 67.5645 87.0357 68.9439 88.2C66.0943 92.6477 69.7484 96.9716 74.5018 97.1587C76.1483 97.2034 77.7662 96.6368 79.1355 95.7452C81.4996 97.431 83.907 99.0704 86.4251 100.518C84.5375 102.021 82.6295 103.5 80.6981 104.949C76.2507 102.664 71.8526 100.274 67.6288 97.5942C63.6738 95.086 59.8304 92.323 56.5 89.0151C58.8089 87.7125 61.118 86.4094 63.4195 85.0918Z" fill="#FAC135"/>
<path d="M80.7128 89.0446C81.6186 91.2596 80.1367 93.2976 78.3143 94.4636C76.0251 96.0994 72.9173 95.9516 70.759 94.1663C69.4063 93.056 69.1551 91.2303 69.8724 89.6667C71.6779 85.6945 78.8285 84.641 80.7128 89.0446Z" fill="#FF8E5B"/>
<path d="M72.0256 102.001C69.5567 103.262 67.1631 104.672 64.8242 106.159C67.3817 107.602 72.9551 110.496 73.0718 110.557C81.3757 104.213 80.7429 107.352 72.0256 102.001Z" fill="#00EBED"/>
<path d="M66.6405 98.7743C65.0732 97.775 63.5215 96.735 62.0097 95.6387C60.3007 96.5845 55.489 99.2771 54.9937 99.63C54.8628 99.829 63.2475 105.138 63.9059 105.631C66.2426 104.142 68.6254 102.727 71.0805 101.457C69.5847 100.589 68.0993 99.7038 66.6405 98.7743Z" fill="#CEFFFF"/>
<path d="M63.0473 106.183C60.4212 107.885 57.841 109.635 55.2774 111.425C52.0469 109.522 48.8982 107.486 45.9004 105.256C48.552 103.575 51.2253 101.932 53.9151 100.32C56.8286 102.463 59.9206 104.386 63.0473 106.183Z" fill="#00EBED"/>
<path d="M56.0906 122.956C54.515 124.136 52.9818 125.749 51.0636 126.148C47.2398 126.78 43.3814 125.288 39.8633 123.866C42.6908 121.713 45.5298 119.567 48.3948 117.455C51.236 119.134 54.129 120.721 57.0591 122.238C56.7365 122.478 56.4117 122.715 56.0906 122.956Z" fill="#CEFFFF"/>
<path d="M57.8739 121.635C54.9468 120.125 52.0317 118.553 49.168 116.888C51.2024 115.395 53.2491 113.919 55.3157 112.473C58.1349 114.136 61.0078 115.703 63.9139 117.206C61.8931 118.672 59.879 120.148 57.8739 121.635Z" fill="#00EBED"/>
<path d="M64.7396 116.608C61.843 115.115 58.9557 113.564 56.1211 111.919C58.7001 110.129 61.3119 108.388 63.9619 106.707C66.7101 108.231 69.4487 109.8 72.2817 111.142C69.7726 112.97 67.2543 114.787 64.7396 116.608Z" fill="#CEFFFF"/>
<path d="M92.7179 89.0033C96.4506 93.8442 92.5003 95.1928 89.241 98.2516C87.8012 99.4463 87.6528 99.5024 86.0178 98.512C84.0919 97.3446 82.2277 96.0737 80.3906 94.771C82.6144 92.8939 83.2843 89.4741 81.3399 87.0959C82.9309 85.9016 84.7882 84.4412 86.6143 83.8125C88.8898 85.1758 91.1107 86.867 92.7179 89.0033Z" fill="#83E1C4"/>
<path d="M73.0101 80.3301C77.048 79.6983 81.3467 81.0963 84.9412 82.8883C83.3114 83.756 81.7758 84.7839 80.3517 85.9624C77.3531 84.008 72.7346 84.3095 70.011 86.932C68.4676 86.093 67.3015 85.5506 66.5012 85.1616C64.7224 84.2975 64.7503 84.1921 66.4559 83.2715C68.5119 82.1624 70.952 80.6517 73.0101 80.3301Z" fill="#FF5671"/>
<path d="M61.0698 95.0215C59.0943 93.2642 58.8779 93.5513 55.1198 89.7949C52.6958 91.1614 50.2746 92.533 47.8594 93.9155C49.7507 95.8404 51.8198 97.5839 53.9904 99.1852C56.1137 97.8161 60.4172 95.4093 61.0698 95.0215Z" fill="#00EBED"/>
<path d="M53.0031 99.8775C51.7834 98.6803 50.5272 97.979 47.036 94.3887C44.2514 95.9833 41.4911 97.588 38.7227 99.2304C40.8481 100.927 42.8027 103.097 45.1188 104.662C47.9042 102.695 52.4943 100.214 53.0031 99.8775Z" fill="#CEFFFF"/>
<path d="M30.7469 104.305C28.9318 105.653 26.64 106.783 25.5681 108.796C24.9257 110.307 25.4483 111.954 26.2879 113.382C26.8648 114.364 27.5781 115.261 28.3659 116.091C31.2201 113.992 34.124 111.962 37.0618 109.98C36.4258 109.426 30.9184 104.524 30.7469 104.305Z" fill="#CEFFFF"/>
<path d="M80.7459 73.5213C80.3498 71.454 82.4472 70.1146 84.2893 70.8875C86.7581 72.4392 88.9737 74.4497 91.5496 75.8881C95.9037 78.6525 100.564 80.9377 104.901 83.7135C106.765 85.6722 105.016 89.4604 102.486 89.7547C98.27 81.5295 89.5693 75.9186 80.7459 73.5213Z" fill="#FF801D"/>
<path d="M42.968 144.175C34.8775 142.11 27.2608 137.982 21.0046 132.465C17.0954 129.169 14.265 124.761 14.5265 119.482C14.4782 117.62 14.6015 115.744 14.9668 113.916C15.387 115.311 16.1139 116.631 16.9291 117.806C20.5117 122.972 26.0732 126.813 31.5269 129.77C37.8011 133.096 45.2062 136.338 52.463 135.157C52.5113 138.306 52.4391 141.587 51.2922 144.562C48.6166 145.295 45.587 144.8 42.968 144.175Z" fill="#FF801D"/>
<path d="M99.7206 107.067C85.4883 120.82 68.6422 131.553 53.1465 143.779C53.513 142.486 53.7161 141.149 53.8467 139.808C54.0116 138.114 54.0458 136.404 53.9676 134.703C54.5361 134.475 55.0797 134.19 55.5753 133.82C67.0357 124.985 78.8368 116.591 90.1653 107.584C94.3496 104.12 98.7827 100.818 102.373 96.7305C102.735 100.298 101.979 104.201 99.7206 107.067Z" fill="#FF801D"/>
<path d="M110.214 99.3315C107.995 100.843 105.686 102.42 103.221 103.563C103.6 102.341 103.83 101.074 103.936 99.8207C106.504 100.563 109.349 98.5063 111.207 96.9272C115.227 93.5103 118.458 89.1149 121.479 84.8281C121.833 84.3258 122.169 83.8115 122.517 83.3057C123.127 84.0678 123.523 84.9795 123.633 85.9681C123.787 87.3667 123.431 88.7432 122.849 90.0066C118.692 93.1896 114.541 96.3824 110.214 99.3315Z" fill="#FF801D"/>
<path d="M124.698 80.0742C126.848 81.564 127.782 84.3379 126.997 86.8513C126.069 87.5503 125.143 88.2529 124.219 88.9583C124.925 86.7941 124.607 84.2383 123.053 82.5191C123.605 81.7064 124.159 80.896 124.698 80.0742Z" fill="#FBF199"/>
<path d="M130.43 77.6427C134.041 77.6683 134.1 81.0261 131.877 83.0837C130.782 84.2106 129.396 85.074 128.128 86.0055C128.482 83.4831 127.39 80.879 125.305 79.3856C126.961 78.6487 128.551 77.6279 130.43 77.6427Z" fill="#FF801D"/>
<path d="M144.046 41.2133C138.605 53.7109 117.842 94.6228 105.657 98.3865C105.258 98.4514 104.437 98.4765 103.996 98.2184C103.986 97.3692 103.911 96.523 103.77 95.6859C115.587 97.3787 138.392 47.9897 142.898 37.2053C143.332 35.7555 143.455 34.3098 143.337 32.8945C144.565 35.5033 145.088 38.375 144.046 41.2133Z" fill="#FF801D"/>
<path d="M133.304 20.2775C126.34 15.2927 116.388 11.811 108.224 15.8255C105.611 17.2423 104.027 19.5623 102.328 21.9167C97.7793 28.2213 93.462 34.6993 89.3926 41.3228C84.2511 50.0126 78.5937 58.8337 76.2121 68.7505C76.0052 70.132 75.7364 71.6055 76.4396 72.9123C82.2253 73.445 78.133 73.7258 80.8965 70.5515C83.5154 68.4675 85.9953 70.8779 88.0602 72.4792C92.8196 75.8727 98.0265 78.5608 103.049 81.5303C105.305 82.7197 107.05 83.6974 106.48 86.617C106.15 88.64 104.754 90.2245 102.823 90.6261C103.182 91.6737 103.424 92.794 103.33 93.9094C112.483 97.1124 131.588 57.5443 135.479 49.8637C136.887 46.9731 138.26 44.065 139.59 41.1369C140.682 38.732 141.901 36.3858 141.864 33.6775C141.772 28.0777 137.529 23.3743 133.304 20.2775ZM134.901 40.1154C132.953 44.4708 130.907 48.7826 128.75 53.0392C124.455 61.1846 120.276 69.7791 113.68 76.3388C110.608 79.6681 105.883 78.7094 102.131 77.2236C96.8664 75.2222 91.7666 72.4088 87.7068 68.4634C85.5809 66.5256 84.1375 63.7113 85.021 60.817C86.3637 55.1624 89.358 50.0448 92.1559 45.0041C95.6413 38.9529 99.4706 33.0899 103.518 27.3998C106.401 22.7142 109.834 19.6334 115.62 19.6977C125.535 19.4486 141.115 28.7337 134.901 40.1154Z" fill="#FBF199"/>
<path d="M117.19 69.8689C113.259 68.2545 109.384 66.4867 105.571 64.5912C105.359 62.0706 104.734 59.5999 104.1 57.1574C107.239 56.2368 117.673 53.5034 120.127 55.5031C121.621 56.9578 122.469 59.0964 122.673 61.1582C120.962 64.1332 119.183 67.07 117.19 69.8689Z" fill="#83E1C4"/>
<path d="M90.9987 50.25C91.4997 48.6179 95.6012 49.4531 97.0302 49.5617C98.5353 49.831 100.141 50.2757 100.997 51.6312C102.645 54.4647 103.331 57.7576 104.064 60.9212C104.282 61.9634 104.513 63.0367 104.617 64.1082C101.016 62.2931 97.4682 60.3742 93.9817 58.3679C92.1707 57.3263 90.3806 56.2483 88.6113 55.1375C89.3463 53.4792 90.1555 51.8517 90.9987 50.25Z" fill="#B1D045"/>
<path d="M111.979 21.7451C119.958 19.4353 132.955 25.1287 134.769 33.6874C135.276 37.0282 133.186 39.8753 131.986 42.8416C125.209 37.0662 116.803 33.4814 108.426 30.6915C106.943 30.2236 105.44 29.7976 103.918 29.4697C106.128 26.4307 108.071 22.7606 111.979 21.7451Z" fill="#FAC135"/>
<path d="M103.359 30.2852C111.247 32.0793 118.826 35.3277 125.772 39.4507C127.823 40.7073 129.805 42.0917 131.592 43.7065C130.457 46.1433 129.289 48.5623 128.089 50.9676C124.757 48.121 120.85 45.9293 116.943 43.9956C112.618 41.8545 108.128 40.0007 103.537 38.5093C101.959 37.9961 100.359 37.5212 98.7344 37.1685C100.238 34.8469 101.775 32.552 103.359 30.2852Z" fill="#CEFFFF"/>
<path d="M98.2092 37.9883C106.591 39.957 114.617 43.4979 122.044 47.8133C124.013 49.0017 125.926 50.3048 127.667 51.8119C126.302 54.5255 124.887 57.216 123.402 59.8654C123.205 58.978 122.884 58.1122 122.497 57.3017C120.999 53.603 118.044 53.491 114.571 54.0905C110.948 54.5328 107.329 55.1751 103.845 56.281C103.332 54.5488 102.769 52.7557 101.813 51.2081C99.6805 48.1798 95.2822 48.2835 91.9316 48.52C93.8871 44.9327 96.0014 41.4296 98.2092 37.9883Z" fill="#00EBED"/>
<path d="M87.4692 57.9231C87.7084 57.2706 87.965 56.624 88.2355 55.9834C95.4709 60.5272 103.076 64.5304 110.836 68.0927C112.756 68.9746 114.693 69.8173 116.646 70.6246C116.26 71.1455 115.868 71.6621 115.461 72.1663C114.201 73.7305 112.805 75.3704 111.069 76.4234C106.073 78.9582 96.1938 73.0177 91.9678 70.0825C87.0843 66.4188 84.7967 64.0799 87.4692 57.9231Z" fill="#CEFFFF"/>
<path d="M80.7129 89.0444C80.6695 88.9424 80.6094 88.8585 80.5605 88.7626C79.9533 91.3189 77.9034 93.4694 75.0079 93.7728C72.6511 94.0195 70.4933 91.9935 70.5792 89.666C70.5976 89.1637 70.7174 88.678 70.8967 88.209C70.4753 88.6374 70.1203 89.1214 69.8724 89.6666C69.1551 91.2302 69.4063 93.056 70.759 94.1662C72.9173 95.9516 76.0251 96.0994 78.3143 94.4635C80.1368 93.2974 81.6187 91.2594 80.7129 89.0444Z" fill="#FF564D"/>
<path d="M74.5235 87.6497C73.7672 87.894 73.0666 88.3481 72.6403 88.8635C71.619 90.0993 72.697 91.5062 73.971 91.8543C75.3653 92.2363 77.3855 91.8173 78.3199 90.6606C79.4898 89.2138 77.3576 86.7318 74.5235 87.6497Z" fill="#FBC471"/>
<path d="M80.6981 104.95C81.6282 104.252 82.5525 103.546 83.4725 102.835C83.1752 102.904 82.8796 102.977 82.5805 103.036C80.7146 103.407 79.0188 102.927 77.2639 102.335C74.5449 101.418 72.0595 99.7833 69.6472 98.2637C67.2279 96.7388 64.9021 95.0526 62.6579 93.2804C61.5317 92.3919 60.5211 91.3985 59.6862 90.2288C59.0545 89.3438 58.8584 88.4846 58.9328 87.6367C58.1213 88.0956 57.3121 88.5579 56.5 89.0162C59.8304 92.324 63.6739 95.0871 67.6288 97.5953C71.8526 100.274 76.2507 102.665 80.6981 104.95Z" fill="#EE9E2B"/>
<path d="M131.986 42.8423C133.186 39.876 135.276 37.0289 134.769 33.6881C134.592 32.8558 134.307 32.0512 133.934 31.2773C134.1 33.3248 133.797 35.2604 132.078 36.9919C130.254 38.8297 128.224 37.6898 126.336 36.6666C124.799 35.8336 123.25 35.022 121.69 34.2306C118.782 32.7557 115.825 31.3732 112.771 30.2291C111.197 29.6404 109.547 29.2899 108.03 28.554C107.203 28.1536 106.528 27.5367 106.17 26.6762C106.132 26.584 106.104 26.4905 106.083 26.3975C105.338 27.4127 104.642 28.4753 103.918 29.4703C105.44 29.7982 106.943 30.2241 108.426 30.6921C116.803 33.4821 125.209 37.0669 131.986 42.8423Z" fill="#EE9E2B"/>
<path d="M127.56 27.0689C125.821 25.6983 123.748 24.8086 121.664 24.1049C119.521 23.3814 117.128 22.9386 114.867 23.2552C113.961 23.3828 112.928 23.5799 112.057 24.016C110.623 24.7347 110.931 25.2156 112.642 25.5159C117.293 26.3364 120.897 30.5333 125.154 32.2686C130.566 34.4729 132.133 30.6711 127.56 27.0689Z" fill="#FBE134"/>
<path d="M82.3189 84.4867C81.5961 84.5255 80.8679 84.4945 80.1402 84.3783C78.4104 84.1018 76.8889 83.242 75.1018 83.2659C73.9936 83.28 72.9579 83.8808 71.9923 84.3528C71.1748 84.7526 70.3687 85.0899 69.4569 85.1786C67.8742 85.3323 67.2294 84.1084 67.2348 82.8457C66.9709 82.9912 66.711 83.1342 66.4578 83.2713C64.7523 84.1918 64.7243 84.2974 66.5031 85.1614C67.3034 85.5506 68.4696 86.0929 70.0129 86.9319C72.7367 84.3093 77.355 84.0079 80.3536 85.9622C80.9858 85.439 81.6436 84.9503 82.3189 84.4867Z" fill="#DF3F58"/>
<path d="M77.7775 81.0661C79.9204 81.5677 82.0359 82.4074 84.0835 83.3733C84.3677 83.2082 84.6512 83.0426 84.9415 82.8882C81.3471 81.0964 77.0482 79.6984 73.0104 80.33C72.6046 80.3932 72.1815 80.513 71.752 80.6566C73.8346 80.4653 75.997 80.649 77.7775 81.0661Z" fill="#FF9780"/>
<path d="M54.9173 96.4321C53.1616 96.3414 50.2216 94.7589 49.6835 92.8799C49.0761 93.2261 48.4661 93.5676 47.8594 93.915C49.7507 95.8398 51.8198 97.5834 53.9904 99.1846C55.3974 98.2777 57.7566 96.9178 59.3816 95.9889C57.9235 96.307 56.447 96.5108 54.9173 96.4321Z" fill="#00AFB3"/>
<path d="M60.5541 107.834C58.4069 108.512 56.1951 108.815 53.8501 108.422C51.5273 108.033 48.7087 106.107 48.3501 103.727C47.5325 104.235 46.7137 104.741 45.9004 105.256C48.8982 107.487 52.0469 109.522 55.2774 111.426C57.0234 110.207 58.7836 109.014 60.5541 107.834Z" fill="#00AFB3"/>
<path d="M44.1253 119.52C41.961 120.288 39.7007 120.654 37.3248 120.238C34.3562 119.719 32.0994 117.532 31.7419 114.784C30.8314 115.435 29.9173 116.083 29.0156 116.745C31.9159 119.497 35.2667 121.713 38.9249 123.442C40.6519 122.126 42.3859 120.819 44.1253 119.52Z" fill="#00AFB3"/>
<path d="M37.8704 109.43C38.6909 108.855 39.8623 108.074 40.9757 107.34C40.0061 107.38 39.0319 107.296 38.0439 106.987C35.9635 106.335 34.2169 104.428 33.7897 102.285C33.0032 102.791 32.2148 103.295 31.4414 103.819C31.4835 103.872 35.6798 107.802 37.8704 109.43Z" fill="#00AFB3"/>
<path d="M62.6697 118.12C60.9511 118.447 59.2164 118.658 57.4513 118.614C55.8037 118.572 52.071 117.477 50.9502 115.594C50.3556 116.025 49.7596 116.454 49.168 116.888C52.0317 118.553 54.9468 120.125 57.8739 121.635C59.4661 120.455 61.0673 119.286 62.6697 118.12Z" fill="#00AFB3"/>
<path d="M120.04 52.7134C116.757 51.6848 112.733 52.5733 109.516 53.4695C108.301 53.8081 107.073 54.0981 105.806 53.9248C104.219 53.7084 103.669 52.1288 103.236 50.8362C102.714 49.2786 102.089 48.0487 100.73 47.0612C98.6532 45.5524 95.7602 45.4929 93.2533 46.1561C92.8064 46.9403 92.3636 47.7275 91.9316 48.52C95.2822 48.2835 99.6805 48.1797 101.813 51.208C102.769 52.7556 103.332 54.5488 103.845 56.2809C107.329 55.1749 110.948 54.5327 114.571 54.0904C118.044 53.4911 120.999 53.603 122.497 57.3017C122.884 58.1121 123.205 58.9778 123.402 59.8653C123.772 59.2051 124.125 58.5353 124.487 57.8703C123.862 55.5396 122.477 53.4772 120.04 52.7134Z" fill="#00AFB3"/>
<path d="M77.4075 107.455C76.0744 107.963 74.7116 108.363 73.2584 108.439C70.7348 108.573 67.9651 106.632 67.8495 104.309C66.8307 104.909 65.821 105.525 64.8242 106.159C67.3817 107.602 72.9551 110.496 73.0718 110.557C74.9948 109.088 76.4325 108.131 77.4075 107.455Z" fill="#00AFB3"/>
<path d="M102.943 41.6025C106.717 42.0458 110.323 43.1607 113.905 44.3823C115.921 45.0699 117.937 45.7923 119.911 46.6085C113.088 42.8426 105.795 39.77 98.209 37.9883C97.3378 39.3463 96.4862 40.7169 95.6484 42.0958C97.8587 41.1181 100.405 41.3045 102.943 41.6025Z" fill="#88F9F9"/>
<path d="M66.6075 112.95C65.1954 113.672 63.5948 113.913 62.0574 113.515C60.3979 113.085 59.0255 111.817 58.5677 110.255C57.7507 110.807 56.9313 111.356 56.1211 111.919C58.9557 113.563 61.843 115.114 64.7396 116.608C67.2543 114.786 69.7724 112.97 72.2817 111.141C71.5338 110.787 70.7937 110.415 70.0572 110.035C69.201 111.263 67.9551 112.262 66.6075 112.95Z" fill="#A9CDDD"/>
<path d="M130.078 46.897C129.95 46.9411 129.823 46.987 129.692 47.0268C126.831 47.8974 124.652 46.3428 122.421 44.7965C120.2 43.2572 117.658 42.2382 115.169 41.2192C111.821 39.8481 108.417 38.6127 104.985 37.4711C103.244 36.8913 101.452 36.2591 99.6387 35.793C99.3378 36.2518 99.0308 36.7071 98.7324 37.1685C100.357 37.5212 101.957 37.996 103.535 38.5092C108.126 40.0006 112.616 41.8544 116.941 43.9955C120.848 45.9292 124.755 48.1209 128.087 50.9675C128.762 49.6154 129.423 48.258 130.078 46.897Z" fill="#A9CDDD"/>
<path d="M50.2224 124.246C47.3568 124.96 43.9791 123.878 43.1372 121.386C42.0444 122.211 40.952 123.037 39.8633 123.866C43.3816 125.288 47.2398 126.781 51.0636 126.149C52.982 125.75 54.5151 124.137 56.0906 122.956C56.4117 122.716 56.7365 122.479 57.059 122.239C56.3499 121.871 55.6427 121.499 54.9382 121.124C53.8382 122.646 52.2067 123.751 50.2224 124.246Z" fill="#A9CDDD"/>
<path d="M111.07 76.424C112.545 75.5288 113.774 74.2102 114.883 72.8742C113.907 73.2693 112.897 73.5942 111.847 73.8275C107.938 74.6971 104.195 73.8026 100.544 72.3927C96.8009 70.9478 93.2171 68.9674 90.1805 66.3312C88.1664 64.5829 87.0466 62.6111 86.6271 60.3604C85.5242 64.7758 87.7909 66.9486 91.9687 70.0829C96.1948 73.0183 106.074 78.9588 111.07 76.424Z" fill="#A9CDDD"/>
<path d="M37.0616 109.982C36.8818 109.825 36.306 109.314 35.5767 108.666C34.5166 110.121 33.1961 111.343 31.5037 111.988C29.6904 112.679 27.338 112.309 26.3128 110.555C25.9469 109.929 25.795 109.207 25.7795 108.466C25.7094 108.577 25.6299 108.681 25.5681 108.798C24.9257 110.308 25.4483 111.955 26.2879 113.384C26.8648 114.365 27.5781 115.262 28.3659 116.093C31.22 113.993 34.1238 111.963 37.0616 109.982Z" fill="#A9CDDD"/>
<path d="M51.0489 98.1806C50.174 100.094 48.6419 101.615 46.349 101.885C44.8014 102.066 43.2319 101.427 42.1783 100.322C41.5709 99.6853 41.0437 98.8117 40.891 97.9561C40.1688 98.3803 39.446 98.801 38.7227 99.23C40.8481 100.927 42.8027 103.097 45.1188 104.662C47.9041 102.695 52.4943 100.213 53.0031 99.8772C52.435 99.3195 51.8557 98.8659 51.0489 98.1806Z" fill="#A9CDDD"/>
<path d="M68.8168 100.121C68.4175 100.828 67.8836 101.457 67.1543 101.953C65.7515 102.906 63.9287 103.027 62.3066 102.722C59.7248 102.237 57.7123 100.493 57.4251 98.209C56.2119 98.8977 55.206 99.4789 54.9937 99.6302C54.8628 99.8292 63.2475 105.138 63.9059 105.631C66.2426 104.142 68.6254 102.728 71.0805 101.457C70.3226 101.017 69.5678 100.573 68.8168 100.121Z" fill="#A9CDDD"/>
<path d="M54.4886 111.982C53.994 111.689 53.5053 111.386 53.0144 111.086C51.5699 112.552 49.5844 113.386 47.298 113.25C44.779 113.1 41.7417 111.094 40.7108 108.614C40.0135 109.075 39.3154 109.534 38.6211 110C41.7276 112.31 44.9889 114.423 48.3348 116.398C50.3717 114.907 52.4234 113.434 54.4886 111.982Z" fill="#A9CDDD"/>
<path d="M125.771 39.4507C118.825 35.3277 111.247 32.0793 103.358 30.2852C103.007 30.7875 102.667 31.2964 102.32 31.8011C108.258 33.1078 114.051 34.7723 119.754 36.9526C121.85 37.754 123.9 38.6278 125.924 39.5477C125.873 39.5162 125.822 39.4824 125.771 39.4507Z" fill="#E9FFFB"/>
<path d="M109.125 67.8103C110.261 68.2406 111.426 68.6006 112.606 68.8841C112.016 68.6214 111.424 68.3622 110.837 68.0927C103.077 64.5304 95.4724 60.5272 88.2369 55.9834C88.0809 56.3529 87.9409 56.729 87.7949 57.1026C90.7857 59.0653 94.0072 60.6796 97.2171 62.2422C101.153 64.1576 105.026 66.2605 109.125 67.8103Z" fill="#E9FFFB"/>
<path d="M86.3579 95.709C82.7194 93.8574 85.2991 88.4741 83.2117 85.708C82.5608 86.1698 81.9317 86.6506 81.3399 87.0953C83.2843 89.4735 82.6144 92.8933 80.3906 94.7705C82.2277 96.0731 84.0919 97.3442 86.0178 98.5115C87.6528 99.5019 87.8012 99.4457 89.241 98.251C90.2754 97.2803 91.379 96.4817 92.2848 95.6892C90.2355 96.4127 88.0675 96.5783 86.3579 95.709Z" fill="#39B487"/>
<path d="M122.671 61.1584C122.577 60.2086 122.341 59.2451 121.973 58.3369C121.069 61.0864 119.298 63.6117 117.059 64.9591C113.356 67.1849 108.217 65.5872 105.297 62.4606C105.414 63.1673 105.51 63.877 105.57 64.5916C109.383 66.4871 113.258 68.2549 117.189 69.8693C119.182 67.0704 120.961 64.1337 122.671 61.1584Z" fill="#39B487"/>
<path d="M117.233 56.3561C115.89 55.8531 114.256 56.2607 112.913 56.5439C111.827 56.7722 110.749 57.0801 109.683 57.4268C107.5 58.1366 106.856 58.5031 107.463 60.3534C107.828 61.4665 108.82 62.2937 110.086 62.7536C111.399 63.2303 112.668 63.5187 113.992 62.9175C115.465 62.2488 116.772 61.3669 118.027 60.3522C119.644 59.0441 118.826 56.9533 117.233 56.3561Z" fill="#B4EFD7"/>
<path d="M91.8722 91.4127C91.6577 90.0785 90.5381 88.8122 89.3325 87.7717C87.6139 86.2885 86.8953 86.6407 86.234 88.4319C85.821 89.5528 85.5802 90.7124 85.8983 91.9073C86.3059 93.4351 88.0841 94.5946 89.6407 94.2605C91.0832 93.9512 92.1184 92.9471 91.8722 91.4127Z" fill="#B4EFD7"/>
<path d="M96.1001 90.2606C95.5609 87.0999 92.8663 84.5252 90.3951 82.7452C87.5031 80.6619 84.0356 79.0386 80.626 78.018C77.8055 77.1735 74.0943 76.5615 71.2698 77.7241C68.8379 78.7246 66.5424 80.2339 64.2644 81.5301C59.9382 83.9917 55.6394 86.5017 51.3459 89.0198C43.6446 93.5374 35.9235 98.0423 28.3396 102.756C26.6591 103.801 25.142 105.011 24.1916 106.795C23.4424 108.201 23.4116 109.757 23.821 111.221C23.3347 108.121 25.553 105.731 29.5671 103.293C35.8961 98.9535 42.595 95.1445 49.2597 91.3516C55.2235 87.9574 61.2724 84.6966 67.1453 81.1463C69.4199 79.5993 72.0538 78.6113 74.8373 78.6673C81.0506 78.7407 87.0813 81.6033 91.6911 85.6666C94.3709 87.9472 96.8068 91.6215 95.2319 94.6421C96.0914 93.4384 96.3744 91.8684 96.1001 90.2606Z" fill="#F3AF79"/>
<path d="M123.928 81.2188C123.635 81.652 123.346 82.0869 123.053 82.519C124.607 84.2382 124.925 86.794 124.219 88.9582C124.713 88.581 125.209 88.2067 125.705 87.8308C125.84 86.7086 125.765 85.5496 125.625 84.6766C125.415 83.3745 124.807 82.1535 123.928 81.2188Z" fill="#F3AF79"/>
<path d="M98.4777 96.7186C96.1786 99.2357 93.2874 101.199 90.6124 103.285C83.6398 108.724 76.632 114.117 69.5564 119.419C66.0579 122.041 62.5404 124.636 58.996 127.195C56.0694 129.307 53.1682 131.872 49.3776 131.917C46.0102 131.956 42.461 130.947 39.288 129.894C35.6923 128.702 32.2647 127.022 29.079 124.978C25.7384 122.835 22.7493 120.174 20.2102 117.128C17.7747 114.206 16.955 110.99 17.5955 107.721C16.015 109.541 15.6756 112.126 16.7809 114.455C21.7972 124.227 35.4267 131.306 45.8642 133.534C52.9989 135.038 54.8426 132.419 60.046 128.474C63.7929 125.64 67.5702 122.846 71.3388 120.041C80.5986 113.117 89.9857 106.29 98.5338 98.4849C99.5104 97.5763 100.731 96.644 101.362 95.4738C101.877 94.2135 101.89 92.9287 101.574 91.666C100.892 93.4842 99.8964 95.1647 98.4777 96.7186Z" fill="#F3AF79"/>
<path d="M141.168 29.915C141.3 31.8529 140.978 33.8377 140.221 35.9384C138.768 39.969 136.777 43.8917 135.023 47.802C131.54 55.5666 127.609 63.1392 123.32 70.4885C119.584 76.8907 115.54 83.2365 110.508 88.7091C109.583 89.7145 108.533 90.8807 107.234 91.3944C106.767 91.5796 105.888 91.5796 105.84 90.8747C105.786 90.0965 106.452 89.1574 106.801 88.4928C107.85 86.4967 108.146 84.4508 106.616 82.5411C105.119 80.6723 102.931 79.5925 100.816 78.5737C97.5124 76.9826 94.3619 75.2402 91.3091 73.2035C89.1396 71.7559 87.0001 69.5631 84.2715 69.379C83.54 69.329 82.9059 69.4958 82.3867 69.814C84.4521 69.3652 86.3923 71.1859 88.0609 72.4795C92.8203 75.8729 98.0272 78.5611 103.05 81.5306C105.306 82.72 107.05 83.6977 106.481 86.6172C106.15 88.6402 104.755 90.2248 102.824 90.6264C103.183 91.674 103.425 92.7942 103.331 93.9096C112.483 97.1127 131.589 57.5446 135.48 49.864C136.887 46.9734 138.261 44.0652 139.59 41.1371C140.682 38.7323 141.902 36.3861 141.865 33.6778C141.843 32.3708 141.588 31.1152 141.168 29.915Z" fill="#F3AF79"/>
<path d="M87.6212 68.3816C85.5426 66.4465 84.149 63.6716 85.0206 60.8166C86.3632 55.162 89.3576 50.0445 92.1554 45.0038C95.6409 38.9525 99.4701 33.0895 103.517 27.3995C106.401 22.7139 109.834 19.6331 115.619 19.6974C123.548 19.4983 135.087 25.3983 136.22 33.5889C136.224 33.5414 136.231 33.4947 136.234 33.4472C136.447 30.3926 135.095 27.6497 132.992 25.5194C130.466 22.96 126.894 20.9554 123.592 19.6057C120.405 18.3031 117.07 17.6142 113.64 18.1887C107.989 19.135 104.442 23.628 101.431 28.0602C98.09 32.9788 94.9936 38.0714 91.9528 43.1794C89.2314 47.7511 86.1435 52.4813 84.5782 57.5922C83.6603 60.5888 83.7576 63.8599 85.7479 66.3959C86.3119 67.1153 86.945 67.7725 87.6212 68.3816Z" fill="#F3AF79"/>
<path d="M93.4402 97.1154C93.6435 96.8307 93.8592 96.4874 94.051 96.1221C93.8633 96.2906 93.6624 96.4564 93.4384 96.6166C85.5911 103.602 76.909 109.584 68.4543 115.801C64.3248 118.799 60.178 121.776 56.1003 124.845C53.6892 127.118 51.0095 128.309 47.651 127.715C39.7375 126.43 31.914 122.32 26.5473 116.329C25.4211 114.987 24.6584 113.77 24.2168 112.645C24.2919 114.503 25.5284 116.385 26.5908 117.782C28.6431 120.48 31.5313 122.461 34.4895 124.04C37.8981 125.861 41.6122 127.514 45.3747 128.427C48.9685 129.301 52.3234 128.453 55.4971 126.673C58.2441 125.131 60.6907 123.019 63.2055 121.129C65.4276 119.458 67.6532 117.792 69.8755 116.122C74.7035 112.493 79.5347 108.868 84.3218 105.184C87.4109 102.807 91.1492 100.324 93.4402 97.1154Z" fill="#FFF7CF"/>
<path d="M133.304 20.2775C126.34 15.2927 116.388 11.811 108.224 15.8255C105.611 17.2423 104.027 19.5623 102.328 21.9167C97.7793 28.2213 93.462 34.6993 89.3926 41.3228C84.2511 50.0126 78.5937 58.8337 76.2121 68.7505C76.0052 70.132 75.7364 71.6055 76.4396 72.9123C76.9014 72.9545 77.2935 72.9952 77.638 73.0327C76.9991 68.6946 78.4115 64.5149 79.989 60.4735C81.7313 56.0108 84.2086 51.8539 86.6422 47.7441C91.3938 39.7203 96.0518 31.6024 101.673 24.1395C103.906 21.1743 106.397 18.348 109.734 16.6074C113.454 14.6669 117.934 14.6987 121.949 15.5228C128.698 16.9075 134.573 21.1165 139.214 26.1588C137.604 23.8457 135.453 21.8531 133.304 20.2775Z" fill="#FFF7CF"/>
<path d="M49.416 87.9548C54.2904 85.1322 59.1595 82.3005 64.0543 79.5134C65.8645 78.4827 67.66 77.3962 69.559 76.5376C73.6893 74.67 77.9655 75.0389 82.241 76.1568C84.4976 76.7473 86.7 77.5274 88.8448 78.4456C84.8654 76.1663 80.4683 74.6212 75.8882 74.4328C72.6571 74.2677 69.5255 75.2612 66.8681 77.0733C59.147 81.8238 51.1798 86.1714 43.3599 90.7551C38.8335 93.408 34.2891 96.0907 29.8516 98.9301C31.7007 98.0553 33.5014 97.1066 35.2855 96.0938C40.0127 93.4103 44.7126 90.6788 49.416 87.9548Z" fill="#FFF7CF"/>
<path d="M103.842 89.2299C103.271 87.6818 102.216 86.2892 101.195 85.0366C99.5023 82.9594 97.4661 81.1585 95.2795 79.6188C92.8202 77.8871 90.0339 76.4486 87.2731 75.2705C85.6551 74.5804 83.7383 73.8476 81.8945 73.8595C90.3165 76.4189 98.4533 81.8861 102.486 89.7543C102.974 89.6976 103.432 89.5087 103.842 89.2299Z" fill="#EF6200"/>
<path d="M144.516 36.7656C144.137 38.4896 143.433 40.1836 142.785 41.8182C141.467 45.1391 139.769 48.3016 138.097 51.4527C134.95 57.3812 131.791 63.3075 128.545 69.1824C125.302 75.0532 121.984 81.0115 117.829 86.2953C115.941 88.6956 113.852 90.9332 111.673 93.07C109.507 95.1944 106.944 96.879 103.945 97.1961C103.97 97.5362 103.993 97.8766 103.997 98.2181C104.438 98.476 105.259 98.4511 105.658 98.3862C117.843 94.6225 138.606 53.7107 144.047 41.213C144.593 39.7253 144.706 38.2286 144.516 36.7656Z" fill="#EF6200"/>
<path d="M101.972 102.377C101.398 103.407 100.568 104.297 99.7718 105.15C98.0359 107.011 96.2255 108.791 94.3354 110.494C89.9168 114.477 85.2707 118.211 80.6072 121.901C75.5868 125.873 70.4966 129.76 65.3277 133.536C63.1855 135.101 61.0386 136.68 58.8062 138.115C57.7783 138.776 56.1945 139.893 54.9181 139.334C54.4818 139.143 54.1804 138.734 53.958 138.243C53.9319 138.766 53.8972 139.288 53.8467 139.809C53.7161 141.149 53.5128 142.487 53.1465 143.78C68.6422 131.553 85.4881 120.821 99.7205 107.067C100.804 105.693 101.538 104.077 101.972 102.377Z" fill="#EF6200"/>
<path d="M21.0029 132.465C27.2591 137.982 34.8757 142.111 42.9663 144.175C45.5853 144.8 48.6149 145.295 51.2905 144.563C52.0431 142.611 52.329 140.527 52.4255 138.436C52.074 139.061 51.6432 139.651 51.1235 140.203C49.4013 142.033 47.0077 142.46 44.5966 142.275C39.8336 141.91 35.2649 139.596 31.065 137.487C27.0142 135.453 23.0746 133.053 19.743 129.958C17.4566 127.835 15.9795 125.443 14.7852 122.823C15.5641 126.638 17.9507 129.892 21.0029 132.465Z" fill="#EF6200"/>
<path d="M131.877 83.0838C132.809 82.221 133.334 81.1318 133.37 80.1533C132.481 80.7879 131.429 81.2443 130.624 81.469C129.131 81.8851 127.849 80.9548 126.48 80.4805C127.777 81.9857 128.408 84.0166 128.129 86.0056C129.397 85.0741 130.782 84.2107 131.877 83.0838Z" fill="#EF6200"/>
<path d="M123.63 87.2852C122.662 88.9406 121.036 90.3732 119.667 91.5692C117.859 93.1476 115.91 94.5898 113.99 96.0299C112.217 97.3601 110.346 98.5197 108.438 99.6434C107.102 100.43 105.318 101.727 103.649 101.853C103.534 102.429 103.395 103.001 103.221 103.563C105.686 102.42 107.995 100.843 110.214 99.3311C114.541 96.3819 118.692 93.1892 122.849 90.0059C123.247 89.1425 123.534 88.2256 123.63 87.2852Z" fill="#EF6200"/>
<path d="M130.43 77.6427C128.551 77.6279 126.961 78.6487 125.305 79.3856C125.466 79.5013 125.611 79.6354 125.761 79.7641C128.088 78.5109 130.621 77.6586 133.019 78.7772C132.585 78.107 131.746 77.6524 130.43 77.6427Z" fill="#FACB1A"/>
<path d="M43.8689 136.223C46.6933 136.791 49.6454 136.927 52.4736 136.351C52.4728 135.952 52.4687 135.554 52.4627 135.157C45.2059 136.338 37.8008 133.095 31.5266 129.77C26.0729 126.813 20.5114 122.972 16.9289 117.806C16.1137 116.631 15.3867 115.311 14.9665 113.916C14.8592 114.454 14.7782 114.997 14.7109 115.542C16.265 119.966 20.4087 123.622 23.9419 126.311C29.9046 130.85 36.444 134.733 43.8689 136.223Z" fill="#FACB1A"/>
<path d="M102.457 98.3264C102.453 97.7899 102.428 97.2568 102.374 96.7305C98.7838 100.818 94.3508 104.12 90.1664 107.584C78.8378 116.591 67.0368 124.985 55.5765 133.82C55.0808 134.19 54.5373 134.475 53.9688 134.703C53.9884 135.125 54.0003 135.549 54.0057 135.972C57.7885 134.816 60.8973 131.791 64.0607 129.545C71.6925 124.128 79.0821 118.256 86.3462 112.357C89.7697 109.578 93.1275 106.742 96.6731 104.119C98.853 102.507 101.126 100.728 102.457 98.3264Z" fill="#FACB1A"/>
<path d="M122.516 83.3057C122.168 83.8115 121.832 84.3258 121.479 84.8281C119.014 88.3249 116.402 91.8841 113.346 94.9351C113.897 94.4876 114.431 94.0138 114.964 93.5412C116.643 92.0538 118.269 90.5183 119.828 88.9046C120.779 87.9194 122.384 86.3428 123.304 84.6756C123.111 84.1835 122.849 83.7211 122.516 83.3057Z" fill="#FACB1A"/>
<path d="M93.9817 58.3677C97.4682 60.3742 101.016 62.2929 104.617 64.108C104.513 63.0365 104.282 61.9632 104.064 60.921C103.855 60.0177 103.647 59.1042 103.422 58.1931C101.062 58.7353 98.508 58.4462 96.2567 57.5738C94.4978 56.8927 92.8972 55.7397 91.6743 54.3107C90.9372 53.4484 90.5695 52.5511 90.3097 51.6025C89.7173 52.7673 89.1411 53.942 88.6113 55.1374C90.3806 56.2481 92.1707 57.326 93.9817 58.3677Z" fill="#ABAB38"/>
<path d="M97.0306 49.5616C95.6015 49.4532 91.5 48.6178 90.999 50.25C90.9667 50.3113 90.9364 50.3744 90.9043 50.4357C92.0091 50.2677 93.1267 50.319 94.296 50.449C96.3783 50.6789 98.2749 50.8714 99.9808 52.1919C100.863 52.8741 101.624 53.662 102.32 54.5045C101.955 53.513 101.53 52.5464 100.998 51.631C100.142 50.2755 98.5356 49.831 97.0306 49.5616Z" fill="#D7E338"/>
</svg>
