<svg width="122" height="122" viewBox="0 0 122 122" fill="none" xmlns="http://www.w3.org/2000/svg">
<path d="M57.6095 0H10.9111C7.6755 0 5.04297 2.63229 5.04297 5.86791V85.3128C5.04297 88.5479 7.67526 91.1802 10.9109 91.1802H57.6092C60.8449 91.1802 63.4767 88.5479 63.4767 85.3128V5.86791C63.4769 2.63229 60.8451 0 57.6095 0ZM33.6093 80.1349C27.2577 80.1349 22.0898 74.9671 22.0898 68.6155C22.0898 62.2634 27.2575 57.096 33.6093 57.096C39.9612 57.096 45.1288 62.2634 45.1288 68.6155C45.1285 74.9671 39.9609 80.1349 33.6093 80.1349ZM51.4747 47.7766H15.7432V10.4744H51.4745V47.7766H51.4747Z" fill="#C9D1E3"/>
<path opacity="0.19" d="M57.3161 7.29297H16.5528C15.5463 7.29297 14.7305 8.10908 14.7305 9.11534V42.4192V44.2416V44.7522V46.5746V50.013C14.7305 51.0192 15.5463 51.8354 16.5528 51.8354H57.3161C58.3226 51.8354 59.1385 51.0192 59.1385 50.013V46.5746V44.7522V44.2416V42.4192V9.11558C59.1385 8.10908 58.3228 7.29297 57.3161 7.29297ZM51.4758 47.7762H15.7444V10.474H51.4756V47.7762H51.4758Z" fill="#202121"/>
<path d="M98.7927 118.901C98.2778 118.901 97.7633 118.698 97.3797 118.296C96.6353 117.516 96.6644 116.279 97.4443 115.535C100.566 112.557 102.302 108.681 102.333 104.621C102.361 100.99 100.98 97.532 98.5425 95.1339C97.7741 94.3774 97.7641 93.1412 98.5204 92.3725C99.2767 91.6047 100.513 91.5945 101.282 92.3506C104.468 95.4854 106.275 99.9694 106.238 104.652C106.199 109.778 104.033 114.647 100.14 118.361C99.762 118.721 99.2769 118.901 98.7927 118.901Z" fill="#485D6D"/>
<path d="M94.5992 92.4205C94.3879 92.4205 94.1732 92.3859 93.9628 92.3132C92.4919 91.8064 90.8818 91.5488 89.1771 91.5488C86.1555 91.5488 83.6454 90.5624 81.718 88.6173C77.9098 84.7745 77.9217 78.5527 77.9241 78.2897L77.9238 44.0885C77.9238 43.0098 78.7981 42.1357 79.8765 42.1357C80.955 42.1357 81.8293 43.0098 81.8293 44.0885V78.3071C81.829 78.3681 81.8416 83.2083 84.5033 85.8797C85.6858 87.067 87.2149 87.6434 89.1776 87.6434C91.3167 87.6434 93.3547 87.9725 95.2362 88.6208C96.2558 88.9728 96.7971 90.0836 96.4457 91.1033C96.1659 91.9125 95.4091 92.4205 94.5992 92.4205Z" fill="#485D6D"/>
<path d="M86.4298 122C76.6381 122 73.1015 116.322 70.2062 111.675C67.2224 106.886 65.4212 103.994 58.0338 106.498C47.1151 110.197 40.2054 112.308 35.9127 109.229C33.3765 107.411 32.1953 104.018 32.1953 98.5523C32.1953 97.4736 33.0693 96.5996 34.148 96.5996C35.2267 96.5996 36.1007 97.4736 36.1007 98.5523C36.1007 102.594 36.7837 105.048 38.189 106.056C40.8633 107.973 47.5816 105.915 56.7814 102.799C67.0997 99.3032 70.5112 104.779 73.5216 109.61C76.5359 114.448 79.3841 119.019 89.2017 117.933C98.7875 116.874 105.356 111.009 108.723 100.502C111.315 92.4147 110.957 84.5817 110.953 84.5033C110.951 84.4706 110.95 84.4378 110.95 84.4051V70.0885C110.95 69.0098 111.824 68.1357 112.903 68.1357C113.981 68.1357 114.856 69.0098 114.856 70.0885V84.3596C114.89 85.154 115.164 93.1998 112.442 101.694C108.616 113.631 100.728 120.589 89.6304 121.815C88.4938 121.94 87.4289 121.999 86.4298 122Z" fill="#485D6D"/>
<path d="M37.1635 86.5342H31.1324C30.0537 86.5342 29.1797 87.4082 29.1797 88.4869V95.5376C29.1797 98.2767 31.4086 100.506 34.1476 100.506C36.8874 100.506 39.116 98.2767 39.116 95.5376V88.4869C39.1163 87.4082 38.2422 86.5342 37.1635 86.5342Z" fill="#485D6D"/>
<g opacity="0.19">
<path d="M8.86166 85.313V5.86791C8.86166 2.63229 11.4937 0 14.7293 0H10.9111C7.6755 0 5.04297 2.63229 5.04297 5.86791V85.3128C5.04297 88.5479 7.67526 91.1802 10.9109 91.1802H14.7291C11.4937 91.1805 8.86166 88.5479 8.86166 85.313Z" fill="#202121"/>
</g>
<path d="M112.902 35.9316C112.739 35.9316 112.58 35.9438 112.422 35.9626H103.601C102.523 35.9626 101.648 36.8366 101.648 37.9153V43.6846C101.648 44.7633 102.523 45.6373 103.601 45.6373H108.847V65.9043C108.847 68.1401 110.666 69.9594 112.902 69.9594C115.138 69.9594 116.957 68.1401 116.957 65.9043V39.9869C116.957 37.7509 115.138 35.9316 112.902 35.9316Z" fill="#C9D1E3"/>
<path d="M102.244 30.375H100.548C98.5025 30.375 96.8379 32.0394 96.8379 34.085V47.516C96.8379 49.5616 98.5025 51.2265 100.548 51.2265H102.244C104.29 51.2265 105.955 49.5616 105.955 47.516V34.085C105.955 32.0394 104.29 30.375 102.244 30.375Z" fill="#C9D1E3"/>
<path opacity="0.19" d="M102.244 30.375H100.548C98.5025 30.375 96.8379 32.0394 96.8379 34.085V47.516C96.8379 49.5616 98.5025 51.2265 100.548 51.2265H102.244C104.29 51.2265 105.955 49.5616 105.955 47.516V34.085C105.955 32.0394 104.29 30.375 102.244 30.375Z" fill="#202121"/>
<path d="M102.244 30.375H100.548C98.5025 30.375 96.8379 32.0394 96.8379 34.085V47.516C96.8379 49.5616 98.5025 51.2265 100.548 51.2265H102.244C104.29 51.2265 105.955 49.5616 105.955 47.516V34.085C105.955 32.0394 104.29 30.375 102.244 30.375Z" fill="#C9D1E3"/>
<path opacity="0.19" d="M100.873 47.516V34.085C100.873 32.4483 101.94 31.0584 103.414 30.5666C103.046 30.4439 102.653 30.375 102.244 30.375H100.548C98.5025 30.375 96.8379 32.0394 96.8379 34.085V47.516C96.8379 49.5616 98.5025 51.2265 100.548 51.2265H102.244C102.653 51.2265 103.046 51.1572 103.414 51.0345C101.94 50.5431 100.873 49.1528 100.873 47.516Z" fill="#202121"/>
<path d="M79.9335 10.2041C80.096 10.2041 80.2552 10.2163 80.4132 10.2351H89.2346C90.3133 10.2351 91.1873 11.1093 91.1873 12.1878V17.9571C91.1873 19.0358 90.3133 19.9098 89.2346 19.9098H83.9886V40.1768C83.9886 42.4126 82.1695 44.2314 79.9337 44.2314C77.6979 44.2314 75.8789 42.4126 75.8789 40.1768V14.2589C75.8784 12.0231 77.6975 10.2041 79.9335 10.2041Z" fill="#C9D1E3"/>
<path d="M90.5914 4.64746H92.287C94.3331 4.64746 95.9975 6.31209 95.9975 8.35798V21.7889C95.9975 23.8346 94.3331 25.499 92.287 25.499H90.5914C88.5455 25.499 86.8809 23.8346 86.8809 21.7889V8.35798C86.8809 6.31209 88.5453 4.64746 90.5914 4.64746Z" fill="#C9D1E3"/>
<path opacity="0.19" d="M90.5914 4.64746H92.287C94.3331 4.64746 95.9975 6.31209 95.9975 8.35798V21.7889C95.9975 23.8346 94.3331 25.499 92.287 25.499H90.5914C88.5455 25.499 86.8809 23.8346 86.8809 21.7889V8.35798C86.8809 6.31209 88.5453 4.64746 90.5914 4.64746Z" fill="#C9D1E3"/>
<path opacity="0.19" d="M90.9162 21.7887V8.35798C90.9162 6.72122 91.9827 5.33085 93.4567 4.83952C93.0886 4.71632 92.6959 4.64746 92.287 4.64746H90.5911C88.5455 4.64746 86.8809 6.31209 86.8809 8.35798V21.7889C86.8809 23.8346 88.5455 25.499 90.5911 25.499H92.287C92.6961 25.499 93.0886 25.4296 93.4567 25.3074C91.9829 24.8151 90.9162 23.4257 90.9162 21.7887Z" fill="#202121"/>
<path d="M53.9919 7.29297H13.2286C12.2221 7.29297 11.4062 8.10908 11.4062 9.11534V44.752C11.4062 45.7587 12.2221 46.5743 13.2286 46.5743H53.9919C54.9984 46.5743 55.8142 45.7587 55.8142 44.752V9.11558C55.8145 8.10908 54.9986 7.29297 53.9919 7.29297Z" fill="#F04C35"/>
<path d="M33.6106 82.7749C40.8546 82.7749 46.727 76.9024 46.727 69.6584C46.727 62.4144 40.8546 56.542 33.6106 56.542C26.3666 56.542 20.4941 62.4144 20.4941 69.6584C20.4941 76.9024 26.3666 82.7749 33.6106 82.7749Z" fill="#E7EAF2"/>
<path d="M38.8553 68.6042L31.2446 63.9265C30.8626 63.6915 30.3834 63.682 29.9917 63.9005C29.6002 64.1197 29.3576 64.5331 29.3576 64.9813L29.3555 74.3331C29.3552 74.7823 29.5976 75.1957 29.9891 75.4142C30.1773 75.5193 30.3856 75.5717 30.5936 75.5717C30.8185 75.5717 31.0435 75.5107 31.2419 75.3887L38.8546 70.7146C39.221 70.4894 39.445 70.0898 39.445 69.6595C39.4453 69.2292 39.222 68.83 38.8553 68.6042Z" fill="#C9D1E3"/>
<g opacity="0.19">
<path d="M22.6142 20.8302H21.0699C19.9914 20.8302 19.1172 19.956 19.1172 18.8775C19.1172 17.7988 19.9914 16.9248 21.0699 16.9248H22.6142C23.6929 16.9248 24.5669 17.7988 24.5669 18.8775C24.5669 19.956 23.6929 20.8302 22.6142 20.8302Z" fill="#202121"/>
<path d="M45.6275 20.8302H29.0074C27.9289 20.8302 27.0547 19.956 27.0547 18.8775C27.0547 17.7988 27.9289 16.9248 29.0074 16.9248H45.6275C46.706 16.9248 47.5802 17.7988 47.5802 18.8775C47.58 19.956 46.7055 20.8302 45.6275 20.8302Z" fill="#202121"/>
<path d="M22.6142 28.3478H21.0699C19.9914 28.3478 19.1172 27.4738 19.1172 26.3951C19.1172 25.3164 19.9914 24.4424 21.0699 24.4424H22.6142C23.6929 24.4424 24.5669 25.3164 24.5669 26.3951C24.5669 27.4736 23.6929 28.3478 22.6142 28.3478Z" fill="#202121"/>
<path d="M45.6275 28.3478H29.0074C27.9289 28.3478 27.0547 27.4738 27.0547 26.3951C27.0547 25.3164 27.9289 24.4424 29.0074 24.4424H45.6275C46.706 24.4424 47.5802 25.3164 47.5802 26.3951C47.58 27.4736 46.7055 28.3478 45.6275 28.3478Z" fill="#202121"/>
<path d="M22.6142 35.8664H21.0699C19.9914 35.8664 19.1172 34.9923 19.1172 33.9137C19.1172 32.835 19.9914 31.9609 21.0699 31.9609H22.6142C23.6929 31.9609 24.5669 32.835 24.5669 33.9137C24.5669 34.9921 23.6929 35.8664 22.6142 35.8664Z" fill="#202121"/>
<path d="M45.6275 35.8664H29.0074C27.9289 35.8664 27.0547 34.9923 27.0547 33.9137C27.0547 32.835 27.9289 31.9609 29.0074 31.9609H45.6275C46.706 31.9609 47.5802 32.835 47.5802 33.9137C47.58 34.9921 46.7055 35.8664 45.6275 35.8664Z" fill="#202121"/>
</g>
<path d="M53.9919 42.4199H13.2286H11.4062V44.2423V46.5753V50.0137C11.4062 51.02 12.2221 51.8361 13.2286 51.8361H53.9919C54.9984 51.8361 55.8142 51.02 55.8142 50.0137V46.5753V44.2423V42.4199H53.9919Z" fill="#485D6D"/>
</svg>
