<svg width="54" height="110" viewBox="0 0 54 110" fill="none" xmlns="http://www.w3.org/2000/svg">
<path d="M48.7695 70.9797L28.2577 65.7663L7.72451 60.5742C7.72451 60.5742 0.118092 90.4873 0.160824 99.0339C0.160824 99.0339 -2.91595 102.132 17.8523 106.833C38.3641 112.58 37.0821 108.392 37.0821 108.392C41.1631 100.978 48.7695 70.9797 48.7695 70.9797Z" fill="#FFB983"/>
<path d="M29.8388 59.5054L10.8868 54.7194L9.30567 60.9797L28.2363 65.7872L47.1884 70.5732L48.7695 64.3129L29.8388 59.5054Z" fill="#FFB983"/>
<path d="M23.0672 30.7682C23.0672 30.7682 26.614 6.58131 40.9722 0.000442505C40.9722 0.000442505 49.0061 17.2646 50.6726 20.9182C50.6726 20.9182 51.9333 24.6787 47.9377 36.5371L23.0672 30.7682Z" fill="#D54774"/>
<path d="M36.507 33.1813C30.8022 31.7283 19.6489 29.7199 19.6489 29.7199L13.239 55.3597L29.9262 59.633L46.592 63.9062L53.002 38.2665C53.002 38.2665 42.2333 34.6128 36.507 33.1813Z" fill="#FFB983"/>
<path d="M47.7468 74.7618C47.7468 74.9755 47.0844 75.0182 46.358 74.7618L7.15049 64.8905C6.42403 64.6982 5.88987 64.3777 5.95397 64.164L6.9582 60.2113C6.9582 59.9976 7.62054 59.9549 8.34701 60.2113L47.6186 70.1681C48.345 70.339 48.8792 70.6595 48.8151 70.8731L47.7468 74.7618Z" fill="#F5E493"/>
</svg>
