<svg width="194" height="144" viewBox="0 0 194 144" fill="none" xmlns="http://www.w3.org/2000/svg">
<path d="M190.623 67.9644C191.009 64.812 155.338 51.2817 131.906 42.7484C118.655 37.916 105.606 32.5455 92.7581 26.6367C70.1075 16.2045 35.2635 0.714403 33.3014 3.21787C30.394 6.95811 -1.2867 68.6651 7.90215 74.9053C13.3 78.5543 37.311 90.161 56.458 99.2306C72.7864 106.96 89.5033 113.84 106.542 119.843C126.458 126.85 151.768 135.542 158.154 136.742C169.141 138.805 190.056 72.6676 190.623 67.9644Z" fill="url(#paint0_linear_821_17734)"/>
<g style="mix-blend-mode:multiply" opacity="0.55">
<path d="M27.3464 23.9037C24.7598 36.8366 80.7563 100.506 84.605 102.09C88.4537 103.674 173.028 97.8571 180.294 86.85C182.77 83.1745 185.46 79.6473 188.349 76.2866C189.256 73.549 190.018 70.7652 190.631 67.9471C191.017 64.7947 155.346 51.2644 131.914 42.7311C118.663 37.8988 105.614 32.5282 92.766 26.6194C70.1154 16.1872 35.2714 0.69712 33.3093 3.20059C31.7618 5.63365 30.349 8.14979 29.0772 10.7376C28.7667 15.1573 28.1887 19.554 27.3464 23.9037Z" fill="#902C4A"/>
</g>
<g style="mix-blend-mode:multiply" opacity="0.55">
<path d="M188.409 76.0936C189.288 73.4244 190.028 70.711 190.624 67.9646C191.01 64.8122 155.339 51.2818 131.907 42.7485C118.656 37.9162 105.607 32.5456 92.7588 26.6369C70.1082 16.2047 35.2642 0.71456 33.3021 3.21803C31.8016 5.59338 30.4227 8.04338 29.1707 10.5586L188.409 76.0936Z" fill="#902C4A"/>
</g>
<path d="M34.1218 2.96067C34.3447 10.7063 33.8117 18.4552 32.5303 26.0973C30.2866 37.7637 82.9872 95.9531 86.5816 97.4324C90.1759 98.9117 168.569 94.6742 175.187 84.8081C179.665 78.4849 184.74 72.6064 190.342 67.2537C186.308 63.036 39.837 2.75521 34.1218 2.96067Z" fill="url(#paint1_linear_821_17734)"/>
<path style="mix-blend-mode:screen" opacity="0.32" d="M87.5261 36.8946C100.953 43.002 114.579 48.6098 128.404 53.7179C143.438 59.2909 180.459 68.1429 181.58 67.0577C178.039 63.2807 148.62 52.1446 128.828 44.931C116.832 40.5492 105.032 35.6927 93.4267 30.3615C74.2907 21.5542 45.5834 8.68873 40.3817 8.94696C40.4987 10.5416 72.941 30.2774 87.5261 36.8946Z" fill="url(#paint2_linear_821_17734)"/>
<path style="mix-blend-mode:multiply" opacity="0.32" d="M100.078 64.4844C69.8992 52.064 46.907 33.1641 37.8457 15.4375C37.6321 19.3577 37.1715 23.2604 36.4666 27.1226C34.3484 38.1467 84.2432 93.278 87.6511 94.6806C91.0589 96.0831 165.299 92.0598 171.561 82.7213C173.766 79.4748 176.181 76.3756 178.79 73.4435C159.893 79.6638 130.258 76.9048 100.078 64.4844Z" fill="url(#paint3_linear_821_17734)"/>
<g style="mix-blend-mode:multiply" opacity="0.32">
<path d="M106.543 119.842C126.46 126.849 151.77 135.541 158.156 136.741C165.19 138.05 176.377 111.11 183.588 90.5048C176.509 99.8045 164.251 115.042 159.279 115.85C152.222 117.05 104.915 116.476 81.2297 106.728C57.5441 96.9797 23.4519 64.0544 19.3691 58.2701C17.0688 55.0434 17.8892 42.018 19.0779 30.9882C10.6365 49.6204 2.49882 71.2724 7.78493 74.8556C13.071 78.4388 37.1938 90.1113 56.3408 99.1809C72.7069 106.93 89.4636 113.827 106.543 119.842Z" fill="#902C4A"/>
</g>
<path d="M96.1457 74.0475C90.8897 71.8844 85.8357 72.0249 84.8728 74.3646C83.9098 76.7044 87.3939 80.3787 92.6498 82.5418C97.9058 84.7049 102.95 84.5404 103.913 82.2006C104.876 79.8609 101.402 76.2106 96.1457 74.0475ZM92.9429 81.8296C88.5516 80.0224 85.6401 76.9803 86.4495 75.0136C87.2589 73.0468 91.4683 72.9354 95.8596 74.7426C100.251 76.5499 103.155 79.6089 102.353 81.5587C101.551 83.5085 97.3341 83.6369 92.9429 81.8296Z" fill="url(#paint4_radial_821_17734)"/>
<path d="M95.7181 75.0806C91.7507 73.4478 87.9362 73.5632 87.2105 75.3265C86.4848 77.0898 89.1131 79.8567 93.0805 81.4895C97.0479 83.1223 100.855 83.0239 101.588 81.2436C102.321 79.4634 99.6855 76.7134 95.7181 75.0806Z" fill="url(#paint5_radial_821_17734)"/>
<path style="mix-blend-mode:screen" opacity="0.75" d="M96.6912 76.3346C95.9922 76.0461 95.2685 75.8213 94.5291 75.6628C94.3174 75.8046 94.1521 76.0054 94.0535 76.2403C93.5092 77.5628 95.4702 79.6387 98.4542 80.8668C99.1532 81.1553 99.8769 81.3801 100.616 81.5386C100.826 81.3944 100.991 81.1943 101.092 80.9611C101.558 79.5868 99.5905 77.5278 96.6912 76.3346Z" fill="url(#paint6_radial_821_17734)"/>
<defs>
<linearGradient id="paint0_linear_821_17734" x1="111.873" y1="35.832" x2="75.5121" y2="124.183" gradientUnits="userSpaceOnUse">
<stop offset="0.05" stop-color="#902C4A"/>
<stop offset="0.35" stop-color="#8E2846"/>
<stop offset="0.67" stop-color="#871B3B"/>
<stop offset="1" stop-color="#7C0629"/>
</linearGradient>
<linearGradient id="paint1_linear_821_17734" x1="111.595" y1="36.5104" x2="83.2023" y2="105.499" gradientUnits="userSpaceOnUse">
<stop offset="0.05" stop-color="#A14D66"/>
<stop offset="0.26" stop-color="#9F4962"/>
<stop offset="0.5" stop-color="#983C57"/>
<stop offset="0.74" stop-color="#8D2645"/>
<stop offset="0.98" stop-color="#7D082B"/>
<stop offset="1" stop-color="#7C0629"/>
</linearGradient>
<linearGradient id="paint2_linear_821_17734" x1="111.309" y1="37.2054" x2="107.359" y2="46.8018" gradientUnits="userSpaceOnUse">
<stop offset="0.05" stop-color="#A14D66"/>
<stop offset="0.26" stop-color="#9F4962"/>
<stop offset="0.5" stop-color="#983C57"/>
<stop offset="0.74" stop-color="#8D2645"/>
<stop offset="0.98" stop-color="#7D082B"/>
<stop offset="1" stop-color="#7C0629"/>
</linearGradient>
<linearGradient id="paint3_linear_821_17734" x1="107.335" y1="46.8516" x2="85.0623" y2="100.971" gradientUnits="userSpaceOnUse">
<stop offset="0.05" stop-color="#A14D66"/>
<stop offset="0.26" stop-color="#9F4962"/>
<stop offset="0.5" stop-color="#983C57"/>
<stop offset="0.74" stop-color="#8D2645"/>
<stop offset="0.98" stop-color="#7D082B"/>
<stop offset="1" stop-color="#7C0629"/>
</linearGradient>
<radialGradient id="paint4_radial_821_17734" cx="0" cy="0" r="1" gradientUnits="userSpaceOnUse" gradientTransform="translate(94.4012 78.2861) rotate(22.3698) scale(7.97543 7.97546)">
<stop stop-color="#E5AC40"/>
<stop offset="1" stop-color="#CE8C12"/>
</radialGradient>
<radialGradient id="paint5_radial_821_17734" cx="0" cy="0" r="1" gradientUnits="userSpaceOnUse" gradientTransform="translate(94.3993 78.2851) rotate(22.3698) scale(6.01367 6.01367)">
<stop stop-color="#E5AC40"/>
<stop offset="1" stop-color="#CE8C12"/>
</radialGradient>
<radialGradient id="paint6_radial_821_17734" cx="0" cy="0" r="1" gradientUnits="userSpaceOnUse" gradientTransform="translate(97.4964 78.5693) rotate(22.3698) scale(3.19018 3.19017)">
<stop stop-color="#E5AC40"/>
<stop offset="1" stop-color="#CE8C12"/>
</radialGradient>
</defs>
</svg>
