<svg width="79" height="97" viewBox="0 0 79 97" fill="none" xmlns="http://www.w3.org/2000/svg">
<path d="M39.5 96.5742C31.6868 96.5742 24.049 94.2571 17.5529 89.9158C11.0567 85.5746 5.99386 79.4044 3.00481 72.1855C0.0157516 64.9666 -0.765281 57.0234 0.760508 49.3606C2.2863 41.6978 6.05035 34.6596 11.5766 29.1362C17.1028 23.6129 24.143 19.8525 31.8066 18.3307C39.4702 16.8089 47.413 17.5941 54.6303 20.5869C61.8476 23.5798 68.0153 28.6458 72.3531 35.1442C76.6909 41.6427 79.0041 49.2816 79 57.0948C78.9945 67.5673 74.8305 77.609 67.4234 85.0122C60.0163 92.4155 49.9725 96.5742 39.5 96.5742ZM39.5 26.2168C33.3807 26.2168 27.3988 28.0314 22.3107 31.4311C17.2227 34.8309 13.257 39.663 10.9152 45.3165C8.57346 50.9701 7.96073 57.191 9.15456 63.1928C10.3484 69.1946 13.2951 74.7076 17.6222 79.0346C21.9492 83.3616 27.4622 86.3084 33.4639 87.5022C39.4657 88.696 45.6867 88.0833 51.3402 85.7415C56.9938 83.3998 61.8259 79.4341 65.2256 74.346C68.6254 69.258 70.4399 63.2761 70.4399 57.1568C70.4399 53.0937 69.6397 49.0704 68.0848 45.3165C66.53 41.5627 64.2509 38.1519 61.3779 35.2789C58.5048 32.4058 55.094 30.1268 51.3402 28.5719C47.5864 27.0171 43.5631 26.2168 39.5 26.2168Z" fill="#FFB983"/>
<path d="M40.594 26.237L56.9922 12.6234C56.9922 12.6234 56.3321 7.63177 49.711 8.68373L39.5008 25.7626C39.5008 25.7626 38.6138 26.1132 40.594 26.237Z" fill="#FBB03B"/>
<path d="M38.429 26.237L21.9277 12.6234C21.9277 12.6234 22.5878 7.63177 29.2295 8.68373L39.4191 25.7626C39.4191 25.7626 40.3886 26.1132 38.429 26.237Z" fill="#FBB03B"/>
<path d="M45.7934 -0.000976562H39.5023H33.2112L25.8887 3.23742L39.5023 25.7411L53.1365 3.23742L45.7934 -0.000976562Z" fill="#CF452F"/>
<path d="M33.209 0.0195312C33.579 0.110125 33.9439 0.220296 34.3022 0.349565C35.0924 0.630492 35.864 0.961139 36.6124 1.3396C37.4168 1.75214 38.2006 2.20593 38.7782 2.57721C39.1028 2.7826 39.4129 3.01007 39.7064 3.25793C39.3346 3.16523 38.9694 3.04806 38.6132 2.90725C37.8265 2.6252 37.0553 2.30159 36.303 1.93779C35.4985 1.52526 34.7147 1.07146 34.2403 0.700182C33.7659 0.328903 33.209 0.0195312 33.209 0.0195312Z" fill="#EF9AC3"/>
<path d="M46.1838 0.0195312C46.1838 0.0195312 45.8331 0.308276 45.2556 0.700182C44.5559 1.15038 43.8329 1.5635 43.0898 1.93779C42.3443 2.30123 41.58 2.62484 40.8002 2.90725C40.444 3.04806 40.0788 3.16523 39.707 3.25793C40.0005 3.01007 40.3106 2.7826 40.6352 2.57721C41.335 2.12701 42.0579 1.7139 42.801 1.3396C43.5425 0.961538 44.3072 0.630889 45.0906 0.349565C45.4489 0.220296 45.8138 0.110125 46.1838 0.0195312Z" fill="#EF9AC3"/>
<path d="M25.8672 3.25825H26.4653L28.033 3.1345C29.3324 3.1345 31.0651 3.01074 32.7977 3.01074C34.5304 3.01074 36.2424 3.01074 37.5418 3.1345L39.1095 3.25825H39.7076H39.1095L37.5418 3.38201C36.2424 3.38201 34.5097 3.52641 32.7977 3.52641C31.0857 3.52641 29.3324 3.52639 28.033 3.38201L26.4653 3.25825H25.8672Z" fill="#EF9AC3"/>
<path d="M32.2617 3.25879L32.633 4.2076C32.8599 4.80577 33.2106 5.67207 33.5612 6.7034C33.9119 7.73473 34.3863 8.97235 34.84 10.2718C35.2938 11.5713 35.7476 12.9945 36.2014 14.3972C36.6552 15.7998 37.0884 17.223 37.5009 18.5225C37.9134 19.822 38.2434 21.1008 38.5528 22.1528C38.8622 23.2048 39.0891 24.1123 39.2541 24.7517C39.4192 25.3911 39.5017 25.7418 39.5017 25.7418C39.5017 25.7418 39.3779 25.3912 39.1304 24.793C38.8829 24.1948 38.5529 23.3285 38.2022 22.2766C37.8515 21.2246 37.3771 20.0076 36.944 18.7081C36.5108 17.4086 36.0364 15.9854 35.562 14.5828C35.0876 13.1802 34.675 11.7569 34.2831 10.4575C33.8912 9.15799 33.52 7.87912 33.2106 6.82716C32.9012 5.7752 32.6949 4.86767 32.5093 4.22824C32.3236 3.58882 32.2617 3.25879 32.2617 3.25879Z" fill="#EF9AC3"/>
<path d="M53.5054 3.25825H52.9072L51.3396 3.1345C50.0607 3.1345 48.3281 3.01074 46.5954 3.01074C44.8628 3.01074 43.1302 3.01074 41.8307 3.1345L40.2837 3.25825H39.6855H40.2837L41.8307 3.38201C43.1302 3.38201 44.8628 3.52641 46.5954 3.52641C48.3281 3.52641 50.0607 3.52639 51.3396 3.38201L52.9072 3.25825H53.5054Z" fill="#EF9AC3"/>
<path d="M47.1512 3.25879C47.1512 3.25879 47.0068 3.5888 46.7799 4.2076C46.5531 4.8264 46.2024 5.67207 45.8311 6.7034L44.5729 10.2718C44.1191 11.5919 43.6653 12.9945 43.2115 14.3972C42.7577 15.7998 42.304 17.223 41.9121 18.5225C41.5202 19.822 41.1695 21.1008 40.8601 22.1528C40.5507 23.2048 40.3238 24.1123 40.1382 24.7517C39.9525 25.3911 39.8906 25.7418 39.8906 25.7418L40.2619 24.793C40.4888 24.1742 40.8394 23.3285 41.2107 22.2766L42.469 18.7081C42.9227 17.388 43.3765 15.9854 43.8303 14.5828C44.2841 13.1802 44.7379 11.7569 45.1298 10.4575C45.5217 9.15799 45.8724 7.87912 46.1818 6.82716C46.4912 5.7752 46.7181 4.86767 46.9037 4.22824C47.0893 3.58882 47.1512 3.25879 47.1512 3.25879Z" fill="#EF9AC3"/>
<path d="M39.7081 3.25879C39.7081 3.25879 39.7081 3.60942 39.7081 4.2076C39.7081 4.80577 39.7081 5.71332 39.7081 6.76528C39.7081 7.81724 39.7081 9.05484 39.7081 10.3749C39.7081 11.695 39.7081 13.0977 39.7081 14.5003C39.7081 15.9029 39.7081 17.3261 39.7081 18.6256C39.7081 19.9251 39.7081 21.1833 39.5844 22.2353C39.4606 23.2872 39.4606 24.1742 39.44 24.793C39.4193 25.4118 39.44 25.7625 39.44 25.7625C39.44 25.7625 39.44 25.3912 39.44 24.793C39.44 24.1948 39.44 23.2872 39.3369 22.2353C39.2337 21.1833 39.3369 19.9457 39.3369 18.6256C39.3369 17.3055 39.3369 15.9029 39.3369 14.5003C39.3369 13.0977 39.3369 11.695 39.3369 10.3749C39.3369 9.05484 39.3368 7.81724 39.4606 6.76528C39.5844 5.71332 39.5844 4.8264 39.605 4.2076L39.7081 3.25879Z" fill="#EF9AC3"/>
<path d="M39.5026 25.7623L35.1504 16.4185C35.1504 16.4185 35.1504 16.0678 35.3154 16.0059C38.0191 15.2523 40.882 15.288 43.566 16.109C44.0198 16.2946 43.7929 16.5834 43.7929 16.5834L39.5026 25.7623Z" fill="#FBB03B"/>
</svg>
