<svg width="115" height="86" viewBox="0 0 115 86" fill="none" xmlns="http://www.w3.org/2000/svg">
<path d="M113.503 34.1585C113.503 24.2105 104.059 11.8197 101.263 2.27471C101.203 1.91208 101.07 1.56533 100.873 1.2555C100.675 0.945673 100.416 0.679151 100.113 0.472015C99.8091 0.264879 99.4665 0.121462 99.1059 0.0503736C98.7453 -0.0207143 98.3741 -0.0179638 98.0145 0.0584437C84.0622 2.9295 77.8668 9.3264 63.5871 7.99161C60.0612 7.66421 62.8819 25.9231 60.8923 27.7868C40.4423 46.8768 38.4275 58.9655 11.9332 64.3298C7.09773 65.312 4.37776 71.8852 3.57185 77.4007C2.03558 88.5827 20.2945 81.3043 26.3892 80.9014C36.6142 80.2214 46.8392 79.7177 56.9887 78.3829C65.8537 77.174 75.3987 76.3933 81.6949 69.3667C89.2503 60.9802 96.8056 52.5937 104.059 44.0309C105.671 42.1421 108.441 37.08 111.186 36.7274C111.827 36.6761 112.425 36.3814 112.855 35.9037C113.286 35.426 113.518 34.8016 113.503 34.1585Z" fill="#D76251"/>
<path d="M113.633 33.6041C113.102 32.8074 112.365 32.1691 111.5 31.7568C110.636 31.3445 109.676 31.1735 108.722 31.2619C97.4789 33.4169 87.1874 39.0248 79.2814 47.3046C71.3986 55.7415 66.6891 66.3694 59.1337 75.0078C58.4515 75.8019 57.605 76.4385 56.6527 76.8733C55.7004 77.3082 54.6651 77.5309 53.6182 77.5262H4.02949C2.96079 77.5262 1.93591 77.9508 1.18023 78.7065C0.424538 79.4622 0 80.4871 0 81.5558C0 82.6245 0.424538 83.6495 1.18023 84.4052C1.93591 85.1608 2.96079 85.5854 4.02949 85.5854H61.0225C71.0964 85.5854 103.836 87.5246 104.139 82.387C104.542 73.5471 103.333 64.531 107.387 56.4719C110.51 50.5132 113.041 44.2627 114.943 37.81C115.057 37.0555 114.999 36.2849 114.772 35.5563C114.545 34.8277 114.156 34.1602 113.633 33.6041Z" fill="#9F2F45"/>
<path d="M79.081 12.3993C78.804 10.7119 76.2099 11.4171 76.5625 13.1045C77.5447 18.9221 80.164 26.4272 77.0914 31.993C74.7996 36.1233 70.3419 38.8433 67.3198 42.3943C61.7539 48.9423 59.588 57.3037 58.4547 65.6146C58.2029 67.302 60.7969 68.133 60.9732 66.3449C61.5537 60.047 63.377 53.9267 66.3375 48.3379C69.259 43.3009 73.8929 40.2536 77.4943 35.8966C83.312 28.8701 80.4913 20.5843 79.081 12.3993Z" fill="#9F2F45"/>
</svg>
