<svg width="135" height="139" viewBox="0 0 135 139" fill="none" xmlns="http://www.w3.org/2000/svg">
<path d="M85.5876 5.41239C85.6741 5.44936 85.743 5.51812 85.78 5.60442C86.016 5.75929 86.2519 5.91419 86.494 6.06286C87.2142 7.50002 87.9965 8.9186 88.6422 10.3991C89.35 12.0221 90.095 11.638 90.9518 10.5726C92.5288 10.0646 94.112 9.52566 95.6021 10.8018C98.2159 12.0035 98.3463 11.954 99.3956 9.41416C99.5943 8.93717 99.8178 8.47875 100.016 8.00796C100.451 7.43185 101.258 7.01061 100.817 6.06902C101.438 6.35398 101.5 6.12477 101.289 5.60442C101.91 6.05044 102.047 5.60443 102.221 5.14602C102.286 5.15862 102.353 5.15494 102.417 5.13532C102.48 5.1157 102.538 5.08077 102.584 5.03358C102.631 4.98638 102.665 4.92839 102.684 4.8648C102.703 4.8012 102.706 4.73399 102.692 4.66906C103.425 4.48941 104.071 4.22303 104.058 3.30002C104.592 3.59117 104.865 3.37436 104.983 2.83542C107.386 1.97436 109.634 0.605327 112.316 0.698247C111.316 2.07347 110.41 3.47346 110.888 5.30709C103.195 7.72301 100.085 15.8071 104.679 21.9026C106.061 23.7532 106.818 25.9941 106.84 28.3017C107.181 35.9398 104.356 42.8035 101.693 49.7973C101.227 49.2411 100.943 48.5557 100.879 47.8335C99.5881 42.0477 98.5264 36.4353 102.699 31.0584C105.294 27.7132 104.561 23.0053 101.786 19.4C100.511 17.7824 98.7888 16.5731 96.8325 15.9213C94.8761 15.2696 92.7713 15.204 90.778 15.7327C88.437 16.3878 86.361 17.7593 84.8425 19.6539C84.8619 19.005 84.9178 18.3577 85.0102 17.715C85.5109 15.4912 85.2606 13.1646 84.2982 11.0974C83.3359 9.03029 81.7155 7.33864 79.6894 6.28586C77.5473 5.18108 75.0939 4.83079 72.7273 5.29181C70.3606 5.75284 68.2195 6.9981 66.6512 8.82566C63.5966 12.3628 63.0316 18.1177 65.9372 21.63C68.4207 24.653 68.5883 27.9486 68.3648 31.4548C67.955 37.8601 65.1611 43.615 63.3669 49.6486C62.746 51.8601 61.7898 52.0583 59.741 51.4698C48.286 48.1866 37.3154 49.4379 26.9966 55.4963C19.8023 59.6981 14.057 65.9811 10.5213 73.5134C6.98559 81.0456 5.8264 89.4718 7.19724 97.6759C8.99775 108.207 14.064 116.879 22.5698 123.514C29.9167 129.375 39.0795 132.5 48.4847 132.354C48.7064 132.448 48.9492 132.481 49.1881 132.45C49.427 132.42 49.6535 132.327 49.8444 132.18C51.3589 132.411 52.9075 132.247 54.3395 131.703C55.904 131.703 57.4438 131.703 58.878 130.836C71.7175 127.367 80.6579 119.339 86.1029 107.377C86.8169 105.816 87.5868 105.289 89.2072 105.339C92.5599 105.432 95.9188 105.271 99.2714 105.425C102.413 105.568 104.803 104.639 106.101 101.628C107.101 102.018 107.461 102.687 106.983 103.691C106.821 104.032 106.175 104.31 106.821 104.694C107.25 104.942 107.678 104.626 107.926 104.236C108.176 103.831 108.535 103.503 108.962 103.291C109.388 103.078 109.867 102.989 110.341 103.034C110.422 103.691 109.41 104.094 109.907 104.849C108.907 104.849 108.839 105.469 108.988 106.212C108.449 106.359 107.959 106.644 107.565 107.038C107.17 107.433 106.886 107.923 106.74 108.461C104.307 109.681 101.593 110.236 98.8741 110.072C96.6576 109.96 94.4225 110.177 92.2184 110.016C90.5234 109.898 89.3686 110.325 88.8099 111.986V112.5C88.6546 112.617 88.189 112.302 88.338 112.834L88.8099 112.5C89.9336 113.85 87.6861 114.786 88.3628 116.08C86.5003 117.047 85.3144 118.453 85.5068 120.671C85.5503 121.135 85.6621 121.792 85.1654 121.755C83.16 121.618 82.3839 123.52 80.8752 124.158L80.5524 123.694L80.2854 124.152C78.8176 124.853 77.5717 125.944 76.6844 127.305C76.3491 127.268 76.0635 127.305 76.2374 127.751C75.2191 127.683 74.679 128.519 73.9774 128.99C66.1856 134.317 57.5121 137.148 48.137 137.006C32.1249 136.758 19.1241 130.192 10.0843 116.867C1.04449 103.542 -0.377287 89.245 5.32845 74.1238C6.73161 70.407 9.05366 67.2477 10.761 63.7291L10.73 63.7663C11.1025 63.8159 11.2329 63.6238 11.2143 63.2831V63.3202C11.773 63.2707 11.8972 62.7813 12.1207 62.4034C12.4684 62.199 12.7416 61.9512 12.5615 61.499C12.934 61.5672 13.0396 61.3751 13.0147 61.0468C13.7101 60.6256 14.5855 60.3406 14.3744 59.2379C14.8773 59.4238 15.0326 59.2379 14.8463 58.7671C15.3616 58.9654 15.4672 58.7671 15.3182 58.2963C15.8956 58.6866 16.0322 58.1787 16.2557 57.8441H16.2184C16.5164 57.8441 16.6965 57.6831 16.6903 57.3671L17.1745 57.0822L16.6841 56.7539C16.6841 56.0167 16.9138 55.515 17.8016 55.6327C18.7143 55.9238 19.4034 55.8494 19.3972 54.6539C19.9746 55.0379 20.1671 54.6539 20.3285 54.1955C20.6282 54.2158 20.9263 54.1371 21.1766 53.9713C21.4269 53.8056 21.6154 53.5621 21.7131 53.2787H21.6758C22.5078 53.0557 23.2714 52.7459 23.5384 51.7857C24.6311 50.1875 25.848 48.8123 28.0831 49.2397C28.8965 49.7167 29.4863 49.0663 30.1382 48.7999C32.8539 47.6209 35.6803 46.7141 38.5757 46.0929C45.0824 44.8168 51.5642 45.0584 58.0709 46.0185C58.9835 46.2663 59.7658 46.3902 60.188 45.1823C61.5539 41.2548 63.1309 37.377 63.7456 33.2451C64.1429 30.6248 64.8693 27.6699 63.2365 25.4026C59.0891 19.6911 58.3192 13.9363 61.8395 7.72919C62.1562 7.16547 62.3052 6.73187 61.3739 6.82479C60.9206 5.41241 61.2932 5.0407 63.727 4.47698L64.0436 4.92922L64.3292 4.48319C64.6707 4.48319 64.8197 4.33454 64.8073 4.00622H64.7762C65.1702 3.9487 65.5434 3.79391 65.8622 3.55591C66.181 3.31792 66.4351 3.00425 66.6015 2.64338C67.1851 2.77347 67.5949 2.37081 68.0358 2.13542C71.5623 0.227456 75.2564 0.0354209 79.0995 0.896481C80.7076 1.26816 81.912 2.68055 83.6815 2.60622C83.6815 3.84515 84.6749 4.02479 85.4882 4.42125L85.5876 5.41239ZM83.2283 120.466C82.5578 120.553 81.8624 120.386 81.6513 121.222C81.6513 121.364 81.8313 121.711 81.9369 121.711C82.6571 121.711 83.0296 121.259 83.2283 120.466Z" fill="#F6F6F6"/>
<path d="M105.983 101.752C104.666 104.763 102.257 105.692 99.153 105.549C95.8004 105.394 92.4415 105.549 89.0888 105.463C87.4746 105.413 86.7047 105.94 85.9845 107.501C80.5395 119.463 71.5991 127.491 58.7596 130.96C57.9152 130.483 58.5485 130.012 58.7596 129.548C59.9082 129.467 59.5171 127.565 60.883 127.745C61.063 127.863 61.2803 128.117 61.4107 128.079C66.2534 126.655 70.2642 123.786 74.1384 120.695C77.2427 118.217 79.1053 114.68 81.5888 111.657C81.7861 111.496 81.9318 111.28 82.008 111.037C82.0841 110.793 82.0873 110.533 82.0172 110.288V110.332C84.1343 108.733 84.215 106.039 85.4754 103.982L94.2047 104.069C95.9245 104.069 97.9299 103.561 99.2896 104.242C101.152 105.153 101.773 104.125 102.704 103.233C104.109 101.626 105.166 99.7465 105.809 97.7131C106.361 96.2387 106.374 94.56 107.522 93.3086H108.485C112.831 93.4139 117.177 93.5069 121.523 93.2591C121.793 93.1579 122.044 93.0135 122.268 92.8316C126.297 88.1237 127.856 82.4928 128.203 76.4653C128.688 68.1273 126.341 60.3096 123.646 52.5538C123.261 51.4264 122.572 51.0547 121.454 51.3149L107.137 51.1786C107.137 50.9185 107.137 50.6583 107.137 50.3919L120.66 50.2432C121.281 50.076 122.212 50.7698 122.473 49.6238C122.895 47.8025 120.728 45.3928 118.81 45.4858C118.555 45.3495 118.3 45.0955 118.04 45.0955C114.476 45.0583 110.912 44.9592 107.355 45.0955C106.318 45.1389 104.908 45.2875 104.474 46.737C104.219 46.8609 103.772 46.9539 103.747 47.115C103.263 50.3238 100.811 53.1238 101.723 56.6238C101.338 55.9114 100.972 55.1866 99.9725 55.2733C99.9725 55.1184 99.9725 54.9636 99.9725 54.8025C100.022 53.4954 98.5508 54.1831 98.1721 53.4273L98.6812 52.9875C99.5876 53.0185 100.314 52.4795 99.836 51.7486C99.004 50.4167 100.283 47.6786 97.2842 47.7716C95.5769 47.7716 93.8757 47.7096 92.1745 47.7158C90.6968 47.7158 88.977 47.338 87.8284 47.9512C86.6798 48.5645 87.4435 50.4291 86.8971 51.668C86.7047 51.7424 86.6178 51.8601 86.7668 52.0521L87.0027 52.6716L85.3264 53.4707C85.2829 51.2778 84.0101 50.8875 82.1662 51.3149C77.0378 51.3149 71.9033 51.3149 66.775 51.1786C64.5461 51.1105 63.8445 52.0211 64.1176 54.0468V54.8954C59.6971 53.3282 55.2455 52.0025 50.5021 51.7238C41.7741 51.173 33.1085 53.5164 25.8538 58.3892C23.6684 59.8202 21.3525 61.276 20.1356 63.8034C19.6265 63.6052 19.4775 63.7662 19.67 64.268C19.1547 64.0636 19.0119 64.2308 19.1981 64.7388C18.391 64.5344 18.1799 64.9432 18.273 65.6494C17.8633 65.5565 17.7391 65.7609 17.7888 66.1264L17.4349 66.2317L17.7142 66.4919C16.963 67.514 15.9883 68.3503 15.1625 69.2981C12.3624 72.5317 10.8847 76.4034 9.79823 80.3246C7.97212 86.8306 7.8588 93.6966 9.46919 100.259C10.8816 106.146 13.5405 111.663 17.2672 116.44C20.7182 120.796 25.0976 124.332 30.0881 126.791C35.1618 129.422 40.8256 130.714 46.541 130.545H47.3605C47.255 131.394 48.2173 131.784 48.2422 132.577C38.837 132.723 29.6741 129.598 22.3273 123.737C13.8214 117.127 8.75521 108.436 6.9547 97.8989C5.58386 89.6947 6.74301 81.2686 10.2787 73.7364C13.8144 66.2041 19.5598 59.921 26.754 55.7193C37.0728 49.6609 48.0435 48.4096 59.4984 51.6928C61.5473 52.3122 62.4724 52.0831 63.1243 49.8716C64.9186 43.8379 67.7124 38.1017 68.1222 31.6778C68.3457 28.1716 68.1843 24.8637 65.6947 21.853C62.789 18.3221 63.354 12.561 66.4086 9.04862C67.9769 7.22106 70.1181 5.9758 72.4847 5.51477C74.8514 5.05375 77.3047 5.40404 79.4468 6.50882C81.4729 7.5616 83.0933 9.25325 84.0556 11.3204C85.018 13.3875 85.2683 15.7142 84.7676 17.938C84.6753 18.5807 84.6193 19.228 84.6 19.8769C86.1184 17.9823 88.1944 16.6108 90.5354 15.9557C92.5287 15.427 94.6335 15.4926 96.5899 16.1443C98.5462 16.7961 100.268 18.0054 101.543 19.6229C104.294 23.1973 105.051 27.9362 102.456 31.2813C98.2838 36.6583 99.3517 42.2707 100.637 48.0565C100.7 48.7787 100.984 49.4641 101.45 50.0202C104.095 43.0264 106.939 36.1627 106.597 28.5247C106.575 26.2171 105.818 23.9762 104.437 22.1256C99.8484 16.0301 102.959 7.94597 110.645 5.53005L113.278 5.24512L117.735 6.24865C118.319 6.62033 118.903 6.99201 119.48 7.36989C120.101 7.98936 120.722 8.60883 121.305 9.31503C124.217 12.8336 124.41 19.0654 121.454 22.3734C120.352 23.6664 119.675 25.2671 119.517 26.9575C118.983 30.4079 119.468 33.7716 120.281 37.1105C122.026 44.3273 125.248 51.0548 127.291 58.1724C129.842 67.1423 131.165 76.2299 128.296 85.3794C127.055 89.2263 125.918 93.2776 121.79 95.2909L110.577 95.5016C108.093 94.8821 108.211 96.8768 107.74 98.2892C107.193 99.4084 106.608 100.563 105.983 101.752ZM99.0537 32.4645V32.5079C99.451 32.322 99.7491 32.0804 99.5318 31.5787V31.6097C99.985 31.7707 100.227 31.4672 100.444 31.176C103.729 26.8398 101.91 20.2053 96.862 18.0557C94.5586 17.0769 92.2614 16.8911 89.9704 18.0557C89.7966 18.1486 89.2378 18.0557 89.5607 18.5141C89.6724 18.6752 90.1132 18.6008 90.405 18.6256C85.0656 19.8955 82.5697 28.0291 87.1828 31.8822C87.7192 32.3969 88.0999 33.0516 88.2817 33.7716C89.2337 36.8117 89.4235 40.0386 88.8343 43.169C88.2134 46.6256 88.4866 46.7928 92.0131 46.799C92.9009 46.799 93.8012 46.7185 94.689 46.799C96.0611 46.9353 96.6137 46.3344 96.5516 45.0212C96.9428 45.6778 96.5081 47.022 98.0106 46.7494C98.6315 46.6317 98.5756 46.2229 98.4577 45.7521C97.4457 41.614 97.8368 37.4946 98.675 33.3627C99.0661 33.2203 99.0102 32.8052 99.0537 32.4397V32.4645ZM78.4658 43.522C75.0221 43.045 71.5287 43.045 68.085 43.522L67.3958 43.6212C66.9923 44.1849 67.5013 44.5503 67.6876 44.9902C65.825 45.5167 66.0361 47.468 65.1235 48.645C64.1177 49.9397 64.7385 50.299 66.0609 50.2928C71.4087 50.2639 76.7543 50.2432 82.0979 50.2308C82.7187 50.1937 83.4203 50.4601 84.1095 49.9459C83.7088 49.0881 83.3847 48.1967 83.1409 47.2822C82.8181 45.56 81.8309 45.1388 80.2787 45.5105L80.2042 44.3088C80.7009 44.1291 81.446 44.5194 81.775 43.6893C80.614 43.3114 79.5337 43.5964 78.4658 43.522ZM116.959 37.3273V36.5468C117.537 36.3919 118.418 36.6211 118.077 35.4441C117.843 34.584 117.701 33.7014 117.655 32.8114C117.369 28.438 117.164 24.207 120.38 20.4221C122.963 17.5044 122.342 12.9946 119.629 10.0708C116.661 6.84953 112.8 6.17431 109.174 8.21235L108.77 8.42299L107.802 9.04246C103.189 12.0778 103.797 18.6256 106.56 21.6362C107.392 22.5406 108.118 23.4389 108.031 24.7335C107.646 28.3141 108.69 31.9999 107.262 35.5247C107.162 35.7663 107.628 35.915 107.932 35.9397L108.056 36.3981C108.342 36.8008 108.863 37.1973 108.056 37.6371C106.963 37.8787 107.175 38.8079 107.05 39.5636C104.567 40.3565 105.97 42.0415 106.156 43.4477C106.082 43.5592 105.92 43.745 105.939 43.7636C106.069 43.8999 106.237 44.1043 106.392 44.1043C110.854 44.158 115.32 44.1931 119.791 44.2096C120.411 44.2096 120.567 43.8751 120.076 43.3982C119.493 42.7787 118.307 43.6087 117.903 42.5185C118.58 42.7415 119.213 42.7725 119.555 41.9982C120.113 40.8459 118.325 37.6618 116.978 37.3831L116.959 37.3273ZM79.0867 42.091C79.7076 43.1565 80.7382 42.822 80.9803 42.153C81.5019 40.722 80.5333 39.353 80.0739 38.0211C79.7075 36.9371 78.6893 37.3645 77.8822 37.7052C75.6223 37.1229 73.3065 37.4946 71.0217 37.2778C69.3826 37.1229 68.0726 38.9937 68.1098 41.2362C68.1098 42.5247 69.1777 42.7415 69.9724 42.5804C73.0457 42.0415 76.119 42.6486 79.1302 42.1468L79.0867 42.091ZM82.8554 22.5716C80.9245 23.7486 81.2411 25.8176 81.0859 27.5274C80.465 34.1371 82.3835 40.3132 84.8607 46.3344C85.0718 46.861 84.9476 47.7096 85.91 47.8335C86.1149 46.9415 86.3818 46.0804 86.5309 45.207C87.1517 40.4123 88.0396 35.5866 84.2461 31.4796C83.4017 30.5689 83.1658 29.2309 82.8119 28.0044C82.2717 26.146 83.1285 24.3309 82.8491 22.4911H83.1906L83.1037 22.1937L82.8554 22.5716ZM70.4381 8.22476C65.08 11.6566 64.1922 17.0274 68.2899 21.7601C69.3329 22.9681 69.6247 24.3495 69.8979 25.8053C70.5622 29.3176 69.9973 32.8176 69.6247 36.3362H74.0266C75.5105 36.3734 77.0006 36.3919 78.4844 36.4601C79.4282 36.5034 79.8255 36.2804 79.6144 35.2211C79.2674 33.7003 79.0822 32.1472 79.0618 30.5875C79.1115 27.5274 78.77 24.269 80.9617 21.7291C82.3638 20.124 83.1623 18.082 83.22 15.9536C83.2778 13.8252 82.5913 11.7431 81.2783 10.0646C78.8445 7.02916 74.2377 6.24244 70.4629 8.28049L70.4381 8.22476Z" fill="#555250"/>
<path d="M121.887 95.1917C126.016 93.1598 127.183 89.1085 128.394 85.2802C131.262 76.1307 129.94 67.0431 127.388 58.0732C125.364 50.9493 122.123 44.2219 120.379 37.0113C119.565 33.6723 119.081 30.3086 119.615 26.8582C119.773 25.1678 120.45 23.5671 121.552 22.2741C124.501 18.9662 124.315 12.7343 121.403 9.21574C120.838 8.53432 120.161 7.91485 119.578 7.2706C119.578 6.1122 119.025 4.73699 120.82 4.29716C120.956 4.26 120.913 3.49805 120.956 3.05823C121.107 3.04633 121.248 2.97998 121.353 2.87164C121.458 2.76329 121.52 2.62038 121.527 2.46973C122.881 2.94052 124.582 3.0025 124.588 5.05293L124.123 5.35647L124.582 5.63524C124.582 5.95116 124.663 6.18037 125.054 6.09984C124.93 6.78125 125.445 7.19008 125.755 7.66707C127.419 10.2265 128.283 13.2212 128.239 16.2715C128.239 18.7494 126.997 20.7936 126.823 23.1352C125.755 23.2777 125.65 24.1511 125.451 24.9502C124.955 25.0865 124.619 25.2971 124.992 25.8732V25.8423C124.023 25.6564 124.129 26.4617 124.042 26.9573C123.671 29.4607 123.755 32.0103 124.29 34.4839C125.209 39.3281 127.109 43.8626 128.779 48.459C131.356 55.5209 133.535 62.6572 134.41 70.1404C134.41 73.118 134.41 76.0976 134.41 79.0793C133.634 84.1961 132.262 89.1147 129.654 93.6368C129.332 94.1076 128.984 94.5598 128.692 95.0492C128.537 95.3218 128.257 95.7554 128.779 95.8607C128.984 95.8979 129.282 95.4333 129.543 95.2041C129.94 96.1147 129.835 96.5731 128.68 96.8952C127.618 97.1926 125.991 97.205 126.37 99.2926C126.5 100.042 125.457 100.711 124.402 100.488C124.725 99.8686 125.644 99.7261 125.78 98.8527C124.47 98.5244 123.533 99.8129 122.285 99.6147C124.203 97.8616 122.223 96.6103 121.887 95.1917ZM121.633 4.92903C121.863 4.92903 122.105 5.02815 122.254 4.92903C122.539 4.75558 123.365 4.65646 122.701 4.1423C122.341 3.87593 121.72 4.19806 121.633 4.92903Z" fill="#F6F6F6"/>
<path d="M10.7101 63.7477C9.00271 67.2663 6.68067 70.4256 5.27752 74.1424C-0.428221 89.2327 1.01838 103.542 10.0333 116.886C19.0483 130.229 32.074 136.777 48.0861 137.025C57.4612 137.167 66.1346 134.336 73.9265 129.009C74.6281 128.532 75.1682 127.695 76.1864 127.77C74.479 130.446 71.6541 131.734 69.0403 133.134C57.2439 139.447 44.9383 140.71 32.0926 136.702C12.8459 130.694 -0.937338 110.933 0.0498361 90.8122C0.450292 81.4655 3.64391 72.4521 9.21999 64.9309C9.57388 64.4168 9.63599 63.3451 10.7101 63.7477Z" fill="#555250"/>
<path d="M61.1132 7.04139C62.0445 6.94847 61.8955 7.38211 61.5788 7.94583C58.0585 14.1405 58.8284 19.9077 62.9758 25.6192C64.6087 27.8617 63.8823 30.8414 63.4849 33.4617C62.864 37.5936 61.2932 41.4714 59.9273 45.3989C59.5051 46.6378 58.7229 46.4829 57.8102 46.2351C57.8257 46.1387 57.8257 46.0404 57.8102 45.944C59.859 42.9458 60.393 39.4024 61.3305 36.0325C61.824 34.0764 62.0001 32.054 61.852 30.0422C61.8296 28.9248 61.487 27.8371 60.8648 26.9077C56.2829 20.2361 56.3946 13.6945 61.1132 7.04139Z" fill="#555250"/>
<path d="M88.7461 112.016C89.3049 110.356 90.4597 109.929 92.1546 110.047C94.3587 110.208 96.5938 109.991 98.8103 110.102C101.529 110.267 104.243 109.711 106.677 108.492C104.951 111.242 102.163 111.874 99.2263 111.986C95.7494 112.116 92.2416 112.016 88.7461 112.016Z" fill="#555250"/>
<path d="M134.474 70.0412C133.599 62.5518 131.42 55.4156 128.843 48.3598C127.173 43.7634 125.273 39.2289 124.354 34.3846C123.819 31.911 123.735 29.3614 124.106 26.8581C124.193 26.3315 124.106 25.5572 125.056 25.743C123.814 30.8165 125.149 35.5864 126.707 40.3439C129.315 48.3041 132.817 55.9855 134.226 64.3111C134.543 66.2067 134.642 68.1394 134.847 70.0597C134.723 70.044 134.599 70.0379 134.474 70.0412Z" fill="#7B7B7B"/>
<path d="M122.342 99.5155C123.583 99.7137 124.527 98.4252 125.837 98.7536C125.707 99.627 124.782 99.7571 124.459 100.389C121.236 102.179 117.71 101.752 114.246 101.801C113.358 101.801 112.476 101.888 111.588 101.938L111.135 101.789C110.98 101.225 111.806 100.754 111.29 100.154L111.334 100.104C114.034 99.4845 116.772 99.9491 119.492 99.8314C120.453 99.888 121.416 99.7812 122.342 99.5155Z" fill="#555250"/>
<path d="M57.7709 45.9441C57.7865 46.0405 57.7865 46.1388 57.7709 46.2352C51.2643 45.275 44.7824 45.0334 38.2758 46.3095C35.3803 46.9308 32.554 47.8376 29.8383 49.0166C29.1864 49.283 28.5965 49.9334 27.7832 49.4564C32.3403 46.5263 37.537 45.6281 42.7522 44.9901C47.8371 44.3706 52.8599 44.414 57.7709 45.9441Z" fill="#7B7B7B"/>
<path d="M112.17 0.778553C109.488 0.691828 107.241 2.06087 104.838 2.92193C106.781 0.574142 109.594 0.239621 112.288 0.0475857C115.393 -0.175423 118.497 0.351113 121.098 2.35819L120.744 2.72989C119.633 2.34582 118.677 1.5529 117.448 1.49096C116.488 0.920145 115.366 0.680645 114.256 0.809519L112.17 0.778553Z" fill="#7B7B7B"/>
<path d="M83.3573 2.92818C81.5879 3.00251 80.3834 1.59016 78.7753 1.21848C74.9322 0.332637 71.238 0.524672 67.7115 2.45741C67.2707 2.69281 66.861 3.07688 66.2773 2.96538C68.2703 0.642376 71.0642 0.289263 73.8208 0.122006C77.2977 -0.119586 80.6255 0.493667 83.3573 2.92818Z" fill="#7B7B7B"/>
<path d="M126.825 23.0793C127.006 20.7377 128.266 18.6625 128.241 16.2156C128.286 13.1653 127.421 10.1706 125.758 7.61122C125.447 7.13423 124.932 6.72536 125.056 6.04395C126.714 6.88642 127.328 8.57136 127.794 10.0953C129.135 14.4997 129.632 18.9351 126.825 23.0793Z" fill="#7B7B7B"/>
<path d="M129.711 93.5315C132.319 89.0156 133.691 84.0971 134.467 78.9803C134.582 78.9649 134.699 78.9649 134.814 78.9803C134.647 84.2953 132.871 89.1333 130.406 93.7669C130.284 93.7792 130.163 93.8041 130.046 93.8413C129.941 93.7313 129.829 93.6278 129.711 93.5315Z" fill="#7B7B7B"/>
<path d="M99.9905 7.98318C99.7732 8.45398 99.5497 8.91239 99.3696 9.38938C98.3204 11.9292 98.19 11.9788 95.5762 10.777C98.01 10.9628 98.1279 8.48495 99.4628 7.40088C99.6428 7.59291 99.8291 7.79115 99.9905 7.98318Z" fill="#725852"/>
<path d="M90.9246 10.5478C90.0678 11.6381 89.3228 11.9974 88.615 10.3744C87.9941 8.90003 87.187 7.48145 86.4668 6.03809C88.1866 6.51508 88.2735 8.21241 88.9068 9.43896C89.3973 10.3991 89.9126 10.7894 90.9246 10.5478Z" fill="#7B7B7B"/>
<path d="M107.838 98.1901C108.31 96.7777 108.186 94.7706 110.675 95.4024C110.203 96.7963 110.359 98.8467 107.838 98.1901Z" fill="#F6F6F6"/>
<path d="M134.814 78.9555C134.699 78.9402 134.582 78.9402 134.467 78.9555C134.467 75.978 134.467 72.9984 134.467 70.0167C134.589 70.0075 134.711 70.0075 134.833 70.0167C135.062 72.9922 135.055 75.981 134.814 78.9555Z" fill="#555250"/>
<path d="M76.6152 127.311C77.5026 125.95 78.7485 124.859 80.2163 124.158C79.5023 125.732 78.4654 127.002 76.6152 127.311Z" fill="#7B7B7B"/>
<path d="M106.664 108.517C106.81 107.979 107.094 107.489 107.488 107.094C107.882 106.7 108.373 106.415 108.912 106.268C108.508 107.365 107.918 108.269 106.664 108.517Z" fill="#7B7B7B"/>
<path d="M85.1468 4.7247C84.3335 4.32824 83.3215 4.10524 83.3401 2.90967C84.1348 3.32471 85.1406 3.52913 85.1468 4.7247Z" fill="#7B7B7B"/>
<path d="M129.599 95.1049C129.338 95.3341 129.04 95.7986 128.835 95.7615C128.314 95.6562 128.593 95.2226 128.748 94.95C129.04 94.4606 129.369 94.0084 129.711 93.5376C129.829 93.6218 129.941 93.715 130.046 93.8163C129.928 94.1942 129.816 94.5721 129.704 94.95L129.599 95.1049Z" fill="#7B7B7B"/>
<path d="M66.3078 2.9156C66.1413 3.27646 65.8872 3.59013 65.5684 3.82813C65.2497 4.06612 64.8764 4.22092 64.4824 4.27844C64.4858 4.0588 64.5396 3.84287 64.6396 3.64721C64.7397 3.45155 64.8834 3.28136 65.0597 3.14975C65.2359 3.01815 65.4401 2.92863 65.6565 2.88804C65.8728 2.84744 66.0956 2.85687 66.3078 2.9156Z" fill="#7B7B7B"/>
<path d="M23.2767 52.0024C23.0407 52.9626 22.2771 53.2414 21.4141 53.4954C21.5072 52.3308 22.3826 52.1945 23.2767 52.0024Z" fill="#7B7B7B"/>
<path d="M125.477 24.8697C125.675 24.0706 125.781 23.1972 126.849 23.0547C126.687 23.8724 126.495 24.6839 125.477 24.8697Z" fill="#7B7B7B"/>
<path d="M19.2167 54.8023C19.2167 55.9979 18.5338 56.0413 17.6211 55.7811C18.273 55.6511 18.4468 54.7404 19.2167 54.8023Z" fill="#7B7B7B"/>
<path d="M14.3117 59.2749C14.5227 60.3776 13.6473 60.6625 12.952 61.0837C12.6912 59.9687 13.5045 59.628 14.3117 59.2749Z" fill="#7B7B7B"/>
<path d="M103.964 3.35547C103.964 4.27848 103.343 4.54486 102.598 4.72451C102.53 3.75194 103.287 3.59706 103.964 3.35547Z" fill="#7B7B7B"/>
<path d="M99.9897 7.98288C99.8097 7.79085 99.6234 7.59881 99.4434 7.40058C99.5543 7.0886 99.7332 6.80508 99.9673 6.57048C100.201 6.33587 100.485 6.15603 100.797 6.04395C101.231 6.97315 100.443 7.40678 99.9897 7.98288Z" fill="#7B7B7B"/>
<path d="M109.788 104.948C109.291 104.193 110.303 103.79 110.223 103.133C111.291 104.025 110.297 104.428 109.788 104.948Z" fill="#7B7B7B"/>
<path d="M129.705 94.9374C129.817 94.5595 129.929 94.1817 130.047 93.8038C130.164 93.7666 130.284 93.7417 130.407 93.7295C130.561 93.806 130.681 93.9374 130.743 94.098C130.805 94.2585 130.805 94.4365 130.742 94.5967C130.537 95.1108 130.121 95.0489 129.705 94.9374Z" fill="#F6F6F6"/>
<path d="M108.894 106.286C108.745 105.53 108.813 104.917 109.813 104.923C109.831 105.22 109.751 105.514 109.585 105.76C109.419 106.007 109.176 106.191 108.894 106.286Z" fill="#7B7B7B"/>
<path d="M12.0389 62.4217C11.8154 62.7996 11.6912 63.289 11.1324 63.3385C10.6543 62.6323 11.4366 62.4403 11.6663 62.019L12.0389 62.4217Z" fill="#555250"/>
<path d="M21.4822 53.4645C21.3846 53.748 21.196 53.9914 20.9457 54.1571C20.6954 54.3229 20.3974 54.4017 20.0977 54.3813C20.0977 53.384 20.7496 53.3654 21.4822 53.4645Z" fill="#7B7B7B"/>
<path d="M12.0386 62.4217L11.666 62.019C11.8523 61.7155 11.8585 61.1147 12.4793 61.5173C12.6408 61.9695 12.3862 62.2173 12.0386 62.4217Z" fill="#7B7B7B"/>
<path d="M104.865 2.90936C104.747 3.4483 104.473 3.66511 103.939 3.37396C104.088 2.90317 104.337 2.63679 104.865 2.90936Z" fill="#7B7B7B"/>
<path d="M102.181 5.15211C102.007 5.58573 101.852 6.05652 101.25 5.61051C101.455 5.25122 101.66 4.87954 102.181 5.15211Z" fill="#7B7B7B"/>
<path d="M50.6814 7.95837C50.6503 7.65483 50.6131 7.33888 50.582 7.04773L51.0601 6.70703C51.6313 7.33269 50.9422 7.59288 50.6814 7.95837Z" fill="#7B7B7B"/>
<path d="M125.036 25.7678C124.663 25.1917 124.999 24.981 125.495 24.8447C125.744 25.3527 125.477 25.6005 125.036 25.7678Z" fill="#7B7B7B"/>
<path d="M20.1286 54.3624C19.9671 54.8146 19.7747 55.2049 19.1973 54.8208C19.3773 54.3996 19.5822 54.0527 20.1286 54.3624Z" fill="#7B7B7B"/>
<path d="M16.0996 57.9432C15.8761 58.2777 15.7395 58.7857 15.1621 58.3954C15.3173 57.9246 15.5533 57.6087 16.0996 57.9432Z" fill="#7B7B7B"/>
<path d="M111.166 101.789L111.619 101.938L111.309 102.396C111.228 102.192 111.166 101.993 111.166 101.789Z" fill="#F6F6F6"/>
<path d="M121.547 2.45734C121.54 2.608 121.478 2.75087 121.373 2.85922C121.268 2.96756 121.127 3.0339 120.976 3.0458C120.887 2.95435 120.81 2.85241 120.746 2.74227L121.1 2.37061L121.547 2.45734Z" fill="#7B7B7B"/>
<path d="M16.502 56.9023L16.9924 57.2307L16.5081 57.5156L16.502 56.9023Z" fill="#7B7B7B"/>
<path d="M16.5351 57.4911C16.5351 57.807 16.3612 57.9494 16.0632 57.968C15.8894 57.4848 16.1129 57.392 16.5351 57.4911Z" fill="#7B7B7B"/>
<path d="M15.1872 58.3891C15.3486 58.8661 15.2306 59.0582 14.7153 58.8599C14.7059 58.7959 14.7117 58.7306 14.732 58.6692C14.7524 58.6078 14.7869 58.5521 14.8328 58.5063C14.8786 58.4606 14.9345 58.4262 14.9961 58.4059C15.0576 58.3855 15.123 58.3798 15.1872 58.3891Z" fill="#7B7B7B"/>
<path d="M14.7396 58.8291C14.9259 59.3309 14.7396 59.4857 14.2677 59.2999C14.2615 59.0088 14.4354 58.8415 14.7396 58.8291Z" fill="#7B7B7B"/>
<path d="M64.5134 4.25356C64.5134 4.58188 64.3769 4.74915 64.0354 4.73056C63.9795 4.3341 64.1161 4.17303 64.5134 4.25356Z" fill="#7B7B7B"/>
<path d="M12.9318 61.0716C12.9318 61.3999 12.851 61.592 12.4785 61.5238C12.4785 61.338 12.522 61.1521 12.5468 60.9663L12.9318 61.0716Z" fill="#7B7B7B"/>
<path d="M11.1639 63.3015C11.1639 63.6422 11.0522 63.8342 10.6797 63.7846C10.4686 63.2519 10.5865 63.0227 11.1639 63.3015Z" fill="#555250"/>
<path d="M64.0671 4.70005L63.7815 5.14605L63.4648 4.69385L64.0671 4.70005Z" fill="#7B7B7B"/>
<path d="M85.5867 5.41207L85.1211 4.69971C85.5743 4.74307 86.0276 4.78641 85.5867 5.41207Z" fill="#7B7B7B"/>
<path d="M102.624 4.69964C102.637 4.76457 102.634 4.83182 102.616 4.89542C102.597 4.95901 102.562 5.01697 102.516 5.06416C102.469 5.11135 102.411 5.14632 102.348 5.16594C102.285 5.18556 102.217 5.1892 102.152 5.1766C102.028 4.73678 102.208 4.60052 102.624 4.69964Z" fill="#7B7B7B"/>
<path d="M124.602 5.62283L124.143 5.34406L124.608 5.04053L124.602 5.62283Z" fill="#7B7B7B"/>
<path d="M86.4933 6.0624C86.2512 5.91373 86.0152 5.75883 85.7793 5.60396C86.3319 5.24467 86.5306 5.4801 86.4933 6.0624Z" fill="#7B7B7B"/>
<path d="M101.275 5.5918C101.486 6.11215 101.393 6.34135 100.803 6.0564C100.809 5.73427 100.983 5.61658 101.275 5.5918Z" fill="#7B7B7B"/>
<path d="M125.048 6.06262C124.657 6.14315 124.576 5.91394 124.576 5.59801C124.992 5.49271 125.154 5.64138 125.048 6.06262Z" fill="#7B7B7B"/>
<path d="M111.289 100.154L110.973 99.9678C111.221 99.6704 111.209 100.067 111.333 100.104L111.289 100.154Z" fill="#F6F6F6"/>
<path d="M88.2676 116.111L88.4538 116.216L88.2676 116.111Z" fill="#F6F6F6"/>
<path d="M80.1914 124.183L80.4584 123.724L80.7812 124.189L80.1914 124.183Z" fill="#7B7B7B"/>
<path d="M76.1747 127.769C76.0132 127.311 76.2864 127.286 76.6217 127.323C76.8452 127.819 76.5596 127.838 76.1747 127.769Z" fill="#7B7B7B"/>
<path d="M50.625 2.68653C50.5071 3.11396 50.9603 3.85732 50.0042 3.80156C49.8544 3.80043 49.7067 3.76733 49.5709 3.70451C49.4351 3.64169 49.3143 3.5506 49.2167 3.43735C49.119 3.3241 49.0468 3.19134 49.0049 3.04795C48.9629 2.90455 48.9523 2.75386 48.9735 2.606C48.9735 2.09184 49.1846 1.5405 49.8365 1.47236C50.9416 1.35466 50.476 2.21573 50.625 2.68653Z" fill="#343434"/>
<path d="M120.746 2.74251C120.81 2.85265 120.887 2.95459 120.975 3.04604C120.932 3.47348 120.976 4.23542 120.839 4.28498C119.026 4.7248 119.597 6.10005 119.597 7.25846C119.02 6.88058 118.436 6.5089 117.853 6.13722C118.306 3.18855 115.99 4.0682 114.512 3.65935C113.035 3.2505 113.538 4.44605 113.395 5.10268L110.762 5.38765C110.284 3.52925 111.191 2.15403 112.19 0.778809H114.276C114.779 3.61597 116.263 1.89384 117.468 1.46021C118.678 1.56552 119.634 2.35844 120.746 2.74251Z" fill="#FDFDFD"/>
<path d="M58.7583 129.523C58.5348 129.987 57.9015 130.458 58.7583 130.935C57.349 131.771 55.7844 131.796 54.2198 131.802C54.2198 131.629 54.2198 131.462 54.1764 131.288C54.0708 129.969 55.2877 129.721 56.0017 129.07C56.8399 129.665 57.8146 129.498 58.7583 129.523Z" fill="#7B7B7B"/>
<path d="M54.1635 131.288L54.2069 131.802C52.7749 132.346 51.2264 132.51 49.7119 132.279L48.793 130.904C50.6121 130.594 52.4995 129.436 54.1635 131.288Z" fill="#555250"/>
<path d="M48.7932 130.904L49.7121 132.279C49.5212 132.426 49.2947 132.519 49.0558 132.549C48.8169 132.58 48.5742 132.547 48.3524 132.453C48.3524 131.66 47.3652 131.269 47.4708 130.421L47.5329 130.359C48.011 130.408 48.5076 130.402 48.7932 130.904Z" fill="#555250"/>
<path d="M83.2265 120.466C83.0527 121.259 82.6802 121.705 81.9351 121.705C81.8296 121.705 81.6185 121.358 81.6496 121.215C81.8358 120.385 82.5312 120.553 83.2265 120.466Z" fill="#FDFDFD"/>
<path d="M88.7159 112.531L88.2441 112.865C88.1075 112.332 88.5607 112.648 88.7159 112.531Z" fill="#FDFDFD"/>
<path d="M81.5631 111.663C79.0796 114.686 77.2543 118.217 74.1127 120.701C70.2385 123.799 66.2278 126.661 61.385 128.085C61.2546 128.123 61.0373 127.869 60.8573 127.751C64.9053 124.833 64.2223 122.721 60.9752 121.414C59.243 118.397 54.1892 116.185 52.0099 117.839C49.8307 119.493 47.9433 121.748 45.9689 123.774C45.8486 123.914 45.7612 124.079 45.7128 124.256C45.6645 124.434 45.6565 124.621 45.6896 124.802C46.3104 126.661 45.7765 128.661 46.6271 130.452C40.9117 130.621 35.2479 129.328 30.1742 126.698C25.1837 124.239 20.8043 120.703 17.3533 116.346C13.6266 111.57 10.9677 106.053 9.55529 100.166C7.9449 93.6034 8.05822 86.7375 9.88433 80.2315C10.9708 76.3102 12.4485 72.4385 15.2486 69.2049C16.0744 68.2509 17.0491 67.4209 17.8003 66.3988C17.8126 66.2747 17.8375 66.1522 17.8748 66.0332L18.3591 65.5562C18.5725 65.4844 18.7666 65.3652 18.9269 65.2074C19.0871 65.0496 19.2094 64.8575 19.2842 64.6456C19.3476 64.6513 19.4115 64.6431 19.4713 64.6214C19.5312 64.5998 19.5855 64.5653 19.6305 64.5204C19.6755 64.4755 19.7101 64.4212 19.7318 64.3615C19.7535 64.3018 19.7618 64.2381 19.7561 64.1748C20.0541 64.1748 20.2404 64.0385 20.2217 63.7102C21.2027 63.6669 21.7987 62.9359 22.4755 62.397C24.7475 60.6169 27.2545 59.1577 29.9258 58.0607C37.952 54.591 46.9038 53.8714 55.3832 56.0142C63.8625 58.157 71.3918 63.0416 76.7949 69.9049C80.7001 74.7801 83.4195 80.2563 84.2949 86.5315C81.2402 87.1509 80.0854 89.9757 78.0862 91.8403C77.9591 92.0306 77.9042 92.2601 77.9316 92.4872C77.9589 92.7143 78.0666 92.9243 78.2353 93.0792C80.3524 95.1049 82.0288 97.6013 84.6799 99.0509C84.854 99.7815 84.8412 100.544 84.6426 101.269C83.0718 101.374 82.9538 99.2925 81.4513 99.1934C80.5014 99.1314 80.0358 98.5739 79.7191 97.5084C79.5256 96.9433 79.197 96.4338 78.7616 96.024C78.3263 95.6141 77.7974 95.3164 77.2207 95.1565C76.644 94.9967 76.0369 94.9795 75.4521 95.1065C74.8673 95.2335 74.3223 95.5009 73.8644 95.8854C72.5419 96.9695 71.3809 98.2765 70.1392 99.4721C69.5866 100.005 69.3445 100.507 70.0088 101.163C70.6732 101.82 71.1388 101.677 71.7038 101.089C72.6351 100.123 73.5974 99.1871 74.5536 98.2456C74.6696 98.0963 74.8183 97.9756 74.9884 97.8925C75.1584 97.8094 75.3452 97.7662 75.5345 97.7662C75.7238 97.7662 75.9106 97.8094 76.0806 97.8925C76.2507 97.9756 76.3994 98.0963 76.5155 98.2456C76.6685 98.3557 76.7943 98.4992 76.8834 98.6651C76.9725 98.831 77.0225 99.015 77.0297 99.2031C77.0369 99.3912 77.001 99.5785 76.9249 99.7507C76.8487 99.9229 76.7341 100.075 76.59 100.197C75.8636 100.946 75.1248 101.684 74.3983 102.433C73.8209 103.053 74.1127 103.499 74.6218 103.939C75.131 104.378 75.5842 104.608 76.1491 103.994C76.7387 103.325 77.3802 102.704 78.0676 102.136C78.2431 101.965 78.4507 101.83 78.6784 101.74C78.9062 101.649 79.1496 101.604 79.3947 101.608C79.6399 101.611 79.8819 101.663 80.107 101.76C80.332 101.857 80.5357 101.997 80.7063 102.173C81.5134 102.972 81.2899 103.963 80.5324 104.769C79.775 105.574 78.9244 106.33 78.1732 107.16C77.6951 107.692 76.7328 108.064 77.7386 109.111C78.7444 110.158 79.1417 109.192 79.7998 108.882C81.085 108.262 81.4948 106.608 82.9849 106.255C83.2332 107.73 81.9977 108.838 81.9853 110.251V110.208C81.4389 110.592 81.5879 111.137 81.5631 111.663ZM44.3112 72.3146C48.707 71.3669 50.9172 72.4757 52.724 76.5766C52.9638 75.6389 52.8747 74.6475 52.4715 73.7673C52.0682 72.8871 51.3751 72.1712 50.5075 71.7386C49.551 71.0913 48.409 70.773 47.2548 70.8323C46.1006 70.8915 44.9974 71.325 44.1126 72.0668L43.6594 72.6058C43.723 72.646 43.7959 72.6696 43.8711 72.6742C43.9463 72.6788 44.0215 72.6645 44.0897 72.6323C44.1578 72.6002 44.2167 72.5513 44.2609 72.4904C44.3051 72.4294 44.3331 72.3584 44.3423 72.2837L44.3112 72.3146ZM35.7557 81.6501C36.9043 79.3147 36.4201 76.5208 34.6071 75.0279C33.6643 74.207 32.4596 73.7475 31.2084 73.7317C29.9572 73.7158 28.7411 74.1445 27.7776 74.9412C33.8186 74.4394 35.8054 76.1182 35.7806 81.681L35.6502 81.9969L35.7557 81.6501ZM67.1715 112.518C67.128 113.85 69.4811 117.09 70.6545 117.393C70.872 117.447 71.1001 117.437 71.3123 117.366C71.5245 117.294 71.7119 117.164 71.8528 116.991C73.436 115.417 75.0192 113.838 76.5838 112.252C77.2046 111.632 77.0246 111.087 76.4782 110.505C75.9319 109.923 75.3669 109.953 74.7957 110.542C74.0196 111.347 73.2311 112.134 72.4116 112.896C71.9149 113.361 71.5113 114.246 70.5924 113.515C70.2816 113.303 70.0619 112.983 69.9768 112.617C69.8918 112.251 69.9475 111.866 70.133 111.539C70.682 110.49 71.139 109.396 71.4989 108.269C71.9397 106.608 71.8031 105.029 70.1019 103.976C68.4008 102.923 66.7431 102.923 65.2468 104.428C64.3031 105.382 63.3511 106.323 62.3908 107.253C61.8879 107.736 61.7265 108.188 62.2542 108.777C62.7819 109.365 63.3097 109.52 63.943 108.882C64.7253 108.095 65.5945 107.389 66.3333 106.571C66.5548 106.268 66.8682 106.044 67.2271 105.933C67.5861 105.821 67.9714 105.828 68.3263 105.952C69.2886 106.292 68.8975 107.191 68.9471 107.878C68.9968 108.566 68.4877 109.117 68.1835 109.687C67.7365 110.554 67.0845 111.428 67.2025 112.487L67.1715 112.518ZM69.537 119.574C69.3307 119.195 69.0984 118.831 68.8416 118.484C66.1098 115.752 63.4463 112.946 60.5903 110.356C59.4107 109.285 58.827 110.901 58.1938 111.533C57.3742 112.351 58.2372 113.119 58.8146 113.206C60.82 113.497 61.7389 115.126 63.0241 116.303C64.3093 117.48 65.5634 118.781 66.8362 120.063C67.2149 120.435 67.6185 120.794 68.2021 120.423L69.537 119.574ZM38.9035 92.9367C45.0376 92.1686 47.9309 94.758 47.13 99.7509C47.7458 98.7345 48.0145 97.5462 47.8958 96.3645C47.7771 95.1827 47.2775 94.0712 46.4718 93.1969C44.9011 91.5305 41.8712 91.3075 38.9345 92.9305L38.9035 92.9367Z" fill="#343434"/>
<path d="M107.093 51.1538L121.41 51.2901C121.64 52.8822 120.932 54.6786 121.931 56.06C123.838 58.7051 124.092 61.883 124.943 64.8255C126.371 69.7812 126.11 74.9662 125.874 80.0706C125.793 81.8237 125.123 83.5892 124.533 85.2803C123.595 87.9502 122.503 90.5706 121.478 93.2095C117.132 93.4573 112.786 93.3644 108.44 93.2591C109.887 86.6865 109.539 80.1573 108.018 73.6405C106.563 67.7461 104.725 61.9521 102.517 56.2954C101.325 53.1547 102.517 51.2468 105.746 51.222C106.199 51.222 106.646 51.1786 107.093 51.1538Z" fill="#F7ED69"/>
<path d="M84.587 101.331C84.7853 100.608 84.7982 99.8478 84.6243 99.1192C85.4004 97.3599 85.1272 95.5325 84.9968 93.7174C85.2961 92.2237 85.1998 90.6778 84.7174 89.2325C84.7174 88.3281 84.7485 87.3741 84.2145 86.5936C83.3391 80.3184 80.6197 74.8236 76.7145 69.967C71.3107 63.1009 63.7792 58.2146 55.2972 56.0717C46.8152 53.9288 37.8606 54.65 29.833 58.1228C27.1617 59.2198 24.6547 60.679 22.3826 62.459C21.7059 62.998 21.1409 63.729 20.1289 63.7723C21.3706 61.2449 23.6616 59.7891 25.8471 58.3582C33.08 53.5103 41.7118 51.1744 50.4085 51.7113C55.1519 51.9901 59.6035 53.3157 64.024 54.883C70.3586 57.9157 75.8775 62.4113 80.123 67.9971C80.7397 69.0089 81.3606 70.0166 81.9856 71.0201C85.2824 76.3599 86.8221 82.2758 87.6355 88.4272C87.6044 88.4739 87.5911 88.5302 87.598 88.5858C87.6048 88.6415 87.6313 88.6928 87.6727 88.7307C87.561 93.8971 87.3251 99.0449 85.45 103.957C84.2083 106.014 84.109 108.709 81.9918 110.307C81.9918 108.894 83.2335 107.786 82.9914 106.311H82.9355C83.4509 106.454 83.3267 106.039 83.3888 105.785C84.0027 104.366 84.4064 102.865 84.587 101.331Z" fill="#D2D2D2"/>
<path d="M96.4832 45.0026C96.5577 46.3158 96.0051 46.9167 94.6206 46.7804C93.7328 46.6937 92.8325 46.7804 91.9447 46.7804C88.4182 46.7804 88.1512 46.607 88.7659 43.1504C89.3551 40.02 89.1654 36.7932 88.2133 33.753C88.0316 33.033 87.6508 32.3783 87.1144 31.8636C82.5014 28.0105 84.9973 19.877 90.3429 18.607C95.3098 17.2256 100.072 21.4194 100.457 25.7247C100.579 27.7302 100.24 29.7371 99.4634 31.5911V31.5601C99.066 31.7459 99.0288 32.1176 98.9853 32.4893V32.4459C98.8872 32.4661 98.7951 32.5084 98.7158 32.5695C98.6366 32.6306 98.5723 32.7089 98.528 32.7985C98.4837 32.8882 98.4605 32.9867 98.4601 33.0866C98.4598 33.1865 98.4822 33.2852 98.5259 33.3751C97.3711 33.2822 97.3462 34.1867 97.0855 34.9362C96.0238 38.2256 96.3715 41.6203 96.4832 45.0026Z" fill="#CC4456"/>
<path d="M108.061 24.8015C108.148 23.4882 107.44 22.59 106.59 21.7042C103.827 18.6936 103.218 12.1458 107.831 9.11038C108.347 9.17232 108.85 9.22808 108.806 8.49091L109.21 8.28027C109.88 8.28027 110.551 8.36701 111.221 8.32984C115.381 8.11303 117.914 10.5785 119.324 13.9484C119.873 15.2131 120.062 16.6044 119.871 17.9694C119.679 19.3344 119.114 20.6203 118.237 21.6856C115.58 24.9873 115.437 28.7971 115.952 32.7554C116.12 34.0377 116.573 35.4192 115.282 36.4723L108.092 36.5218L107.968 36.0634C108.881 32.2846 109.259 28.5493 108.061 24.8015Z" fill="#F7ED69"/>
<path d="M74.0497 36.4168H69.6478C70.0203 32.8735 70.5853 29.3735 69.921 25.8859C69.6478 24.4301 69.356 23.0487 68.3129 21.8407C64.2152 17.108 65.1031 11.7372 70.4611 8.30537C71.2807 8.30537 72.1002 8.30537 72.9446 8.30537C76.5704 8.21245 78.9111 10.2009 80.4509 13.1744C81.9223 16.0177 81.8168 19.2947 79.83 21.5C76.8498 24.7584 77.4397 28.5496 77.3465 32.1363C77.2534 35.723 77.7066 35.7044 74.4533 36.1752C74.267 36.1752 74.1615 36.3239 74.0497 36.4168Z" fill="#F7ED69"/>
<path d="M64.054 54.0528C63.7808 52.0272 64.4824 51.1166 66.7113 51.1847C71.8397 51.3396 76.9742 51.29 82.1026 51.321C82.7234 53.105 83.3008 54.8829 83.8969 56.6608L80.4324 66.8696C75.8691 61.1891 70.5979 56.8033 64.054 54.0528Z" fill="#F7ED69"/>
<path d="M64.0557 54.0527C70.5996 56.797 75.8521 61.1828 80.4341 66.8695L83.8985 56.6607C84.3518 55.6014 84.8112 54.5421 85.2645 53.4766L86.9408 52.6775L98.1163 52.5289L98.6441 53.012L98.135 53.4581C94.0621 53.7244 89.9147 52.9625 85.6618 54.0775C86.5745 55.0687 87.4437 54.7837 88.2197 54.7899C92.125 54.827 96.0302 54.7899 99.9354 54.8271C99.9354 54.9881 99.9354 55.143 99.9354 55.2979C99.8998 55.3661 99.8604 55.4322 99.8175 55.4961C95.5708 55.4961 91.3303 55.4279 87.0836 55.4217C85.9412 55.4217 83.5136 59.027 83.9296 60.0739C84.1469 60.6067 84.6746 60.4766 85.0968 60.4704L100.724 60.3218C102.456 60.7306 103.133 60.2908 102.276 58.4633C102.037 57.8581 101.84 57.2372 101.686 56.6049C100.774 53.105 103.226 50.305 103.71 47.0961C103.71 46.9351 104.182 46.8422 104.437 46.7183C104.319 50.2059 104.319 50.2058 107.1 50.3173C107.1 50.5837 107.1 50.8439 107.1 51.1041C106.653 51.1041 106.212 51.1722 105.765 51.1784C102.555 51.1784 101.345 53.1112 102.537 56.2519C104.745 61.9086 106.583 67.7025 108.038 73.597C109.559 80.1138 109.9 86.6429 108.46 93.2155H107.498C109.863 82.7465 107.349 72.835 104.021 63.0226C103.617 61.8209 103.201 60.6563 101.606 61.7837C97.1664 61.1642 92.7024 61.4802 88.2446 61.4368C83.7868 61.3935 83.377 61.6722 81.8807 65.8908C81.0798 66.3801 81.0984 67.5757 80.1113 67.904C75.8698 62.3303 70.3601 57.8436 64.0371 54.8147L64.0557 54.0527Z" fill="#625735"/>
<path d="M121.479 93.2096C122.503 90.5707 123.596 87.9503 124.534 85.2804C125.154 83.5893 125.775 81.8238 125.875 80.0707C126.111 74.9663 126.371 69.7813 124.943 64.8256C124.093 61.8831 123.838 58.7052 121.932 56.0601C120.933 54.6787 121.64 52.8823 121.411 51.2902C122.528 51.0053 123.217 51.377 123.602 52.5292C126.266 60.2849 128.644 68.1026 128.159 76.4406C127.812 82.468 126.253 88.099 122.224 92.807C121.999 92.9801 121.747 93.116 121.479 93.2096Z" fill="#EAEBCA"/>
<path d="M82.0976 50.2368C76.754 50.2368 71.4084 50.2574 66.0607 50.2987C64.7382 50.2987 64.1174 49.9457 65.1232 48.651C66.0359 47.474 65.8371 45.5536 67.6873 44.9961C71.8844 45.3492 76.1683 44.3766 80.2847 45.8262C81.3215 47.1208 81.2967 48.843 82.0976 50.2368Z" fill="#CC4456"/>
<path d="M107.099 50.3672C104.317 50.2557 104.317 50.2557 104.435 46.7681C104.87 45.3185 106.298 45.1698 107.316 45.1265C110.874 44.9654 114.437 45.0645 118.001 45.1265C118.262 45.1265 118.517 45.3805 118.771 45.5168C119.392 47.0902 120.013 48.6698 120.634 50.2433L107.099 50.3672Z" fill="#CC4456"/>
<path d="M82.8611 22.5713C83.1404 24.4297 82.2837 26.22 82.8238 28.0846C83.1777 29.3235 83.4136 30.6492 84.258 31.5598C88.0515 35.6668 87.1699 40.4925 86.5428 45.2872C86.4248 46.1606 86.1579 47.0217 85.9219 47.9137C84.9596 47.7898 85.0838 46.9412 84.8727 46.4146C82.3892 40.3934 80.5266 34.2173 81.0978 27.6076C81.253 25.8731 80.9364 23.804 82.8673 22.6518L82.8611 22.5713Z" fill="#F6F6F6"/>
<path d="M74.051 36.4165C74.1628 36.3236 74.2684 36.1749 74.3925 36.1563C77.6459 35.6855 77.1864 35.6732 77.2858 32.1174C77.3851 28.5617 76.8015 24.7395 79.7692 21.4811C81.7808 19.2758 81.8864 15.9988 80.3901 13.1555C78.8503 10.182 76.5097 8.19974 72.8838 8.28646C72.0643 8.28646 71.2448 8.28646 70.4004 8.28646C74.1752 6.24841 78.782 7.04753 81.2407 10.1449C82.5536 11.8234 83.2401 13.9055 83.1824 16.0339C83.1246 18.1623 82.3261 20.2043 80.924 21.8095C78.7324 24.3493 79.0614 27.6077 79.0242 30.6678C79.0445 32.2275 79.2298 33.7806 79.5767 35.3014C79.7878 36.3793 79.3905 36.6023 78.4468 36.5404C77.0188 36.4722 75.5349 36.4537 74.051 36.4165Z" fill="#EAEBCA"/>
<path d="M115.244 36.4165C116.486 35.3696 116.082 33.9882 115.914 32.6997C115.399 28.7413 115.542 24.9315 118.199 21.6297C119.076 20.5644 119.641 19.2786 119.833 17.9136C120.024 16.5486 119.835 15.1573 119.286 13.8926C117.876 10.5227 115.343 8.05721 111.184 8.27402C110.513 8.31119 109.842 8.24308 109.172 8.22449C112.792 6.16167 116.66 6.83689 119.627 10.0829C122.328 13.013 122.936 17.5165 120.379 20.5147C117.162 24.2811 117.367 28.512 117.653 32.9041C117.7 33.7941 117.841 34.6767 118.075 35.5368C118.417 36.7138 117.535 36.4846 116.958 36.6395L115.244 36.4165Z" fill="#EAEBCA"/>
<path d="M101.598 61.8703C103.193 60.7243 103.609 61.8703 104.013 63.1093C107.341 72.9216 109.855 82.8331 107.49 93.3021C106.341 94.5411 106.329 96.2322 105.776 97.7065C105.133 99.74 104.076 101.619 102.672 103.226L102.163 102.904C103.085 101.464 103.889 99.9516 104.565 98.3818C109.34 85.7323 106.142 73.7517 101.598 61.8703Z" fill="#D2D2D2"/>
<path d="M102.139 102.892L102.648 103.208C101.692 104.1 101.077 105.128 99.2331 104.217C97.8485 103.536 95.868 104.056 94.1482 104.044L85.4188 103.957C87.2814 99.0449 87.5297 93.8971 87.6415 88.7307C87.6607 88.7091 87.675 88.6836 87.6836 88.656C87.6922 88.6284 87.6948 88.5993 87.6912 88.5706C87.6877 88.542 87.6782 88.5143 87.6632 88.4896C87.6482 88.4649 87.6281 88.4436 87.6042 88.4272C86.7909 82.2759 85.2512 76.36 81.9544 71.0202C81.3335 70.0166 80.7127 69.009 80.0918 67.9972C81.079 67.6688 81.0603 66.4733 81.8612 65.9839C81.9482 66.9317 81.7371 68.0591 82.1779 68.8086C84.5614 72.8637 86.4538 77.1869 87.8153 81.6874C86.9213 83.5891 88.3245 85.2184 88.4362 86.9963C88.3741 89.2201 88.2934 91.4378 88.2561 93.6555C88.2127 96.1892 88.7963 98.7537 87.4428 101.194C87.0951 101.814 86.9896 103.09 88.4176 103.158C92.991 103.436 97.5795 103.347 102.139 102.892Z" fill="#725852"/>
<path d="M98.1283 52.5351L86.9527 52.6838C86.872 52.4794 86.7913 52.2811 86.7168 52.0643C86.7701 52.0172 86.8102 51.9569 86.8331 51.8895C86.8559 51.8221 86.8608 51.7501 86.8472 51.6803C87.3936 50.4413 86.6982 48.5086 87.7785 47.9635C88.8588 47.4183 90.6655 47.7342 92.1245 47.7281C93.8257 47.7281 95.5269 47.7652 97.2342 47.7838C98.3704 49.2024 98.0414 50.9059 98.1283 52.5351Z" fill="#F7ED69"/>
<path d="M79.1293 42.1465C76.1181 42.6482 73.0448 42.0411 70.0274 42.6358C69.2203 42.7969 68.1649 42.5801 68.1649 41.2916C68.1276 39.0491 69.4066 37.1783 71.0767 37.3332C73.3615 37.55 75.6773 37.1783 77.9373 37.7606C78.3284 39.2225 78.7258 40.6845 79.1293 42.1465Z" fill="#CC4456"/>
<path d="M107.075 39.6194C107.199 38.8637 106.988 37.9345 108.081 37.6929C110.838 38.0831 113.669 37.3027 116.394 38.1265C116.804 39.4894 117.22 40.8584 117.636 42.2274C115.06 42.2274 112.471 42.1654 109.9 42.3513C107.758 42.5061 106.634 41.9486 107.075 39.6194Z" fill="#CC4456"/>
<path d="M99.4759 31.5848C100.252 29.7308 100.592 27.724 100.469 25.7185C100.084 21.3822 95.3471 17.2194 90.3554 18.6008C90.0574 18.6008 89.6166 18.6503 89.5048 18.4893C89.182 18.0495 89.7408 18.1238 89.9146 18.0309C92.2056 16.8663 94.5028 17.0521 96.8062 18.0309C101.854 20.1804 103.673 26.8025 100.389 31.1512C100.171 31.4424 99.9291 31.7521 99.4759 31.5848Z" fill="#D2D2D2"/>
<path d="M46.6509 130.421C45.8003 128.63 46.3218 126.611 45.7134 124.771C45.6803 124.59 45.6883 124.403 45.7366 124.225C45.7849 124.048 45.8725 123.883 45.9928 123.743C47.9671 121.717 49.8049 119.499 52.0338 117.808C54.2627 116.117 59.2668 118.366 60.999 121.383L60.8624 121.531C59.8877 121.383 59.422 120.553 58.7701 119.97C58.2983 119.543 58.1493 118.787 57.2739 118.787C54.2937 118.787 51.1583 118.168 49.3082 121.568C48.8673 122.38 47.9795 122.95 47.3028 123.631C46.9303 124.003 46.4273 124.468 46.6198 124.957C47.2903 126.704 46.6198 128.674 47.5325 130.353L47.4704 130.421H46.6509Z" fill="#343434"/>
<path d="M107.074 39.6191C106.633 41.9483 107.757 42.5059 109.893 42.351C112.463 42.1652 115.052 42.2519 117.629 42.2272L117.933 42.574C118.331 43.6643 119.516 42.828 120.1 43.4537C115.462 43.7201 110.824 43.6457 106.18 43.5032C105.994 42.097 104.609 40.4244 107.074 39.6191Z" fill="#725852"/>
<path d="M96.4816 45.0024C96.3698 41.6201 96.0222 38.2254 97.1645 34.9236C97.4253 34.1741 97.4502 33.2697 98.605 33.3626C97.7854 37.4758 97.3632 41.5953 98.3876 45.7519C98.5056 46.2227 98.5863 46.6316 97.9406 46.7493C96.4381 47.0032 96.8851 45.659 96.4816 45.0024Z" fill="#D2D2D2"/>
<path d="M61.0006 121.383C64.2477 122.69 64.9307 124.802 60.8826 127.72C59.5167 127.54 59.9079 129.442 58.7593 129.523C57.8156 129.523 56.8408 129.665 55.9902 129.07C57.232 127.255 58.5296 125.49 61.162 125.824C61.8512 125.911 62.2237 125.372 62.5155 124.864C62.888 124.245 62.5155 123.762 62.1057 123.303C61.696 122.845 60.9447 122.355 60.864 121.532L61.0006 121.383Z" fill="#343434"/>
<path d="M99.928 54.8332C96.0228 54.8332 92.1175 54.8332 88.2123 54.796C87.4362 54.796 86.567 55.0748 85.6543 54.0837C89.9072 52.9686 94.0546 53.7306 98.1275 53.4642C98.5062 54.2138 99.9901 53.5261 99.928 54.8332Z" fill="#725852"/>
<path d="M80.2849 45.8265C76.1686 44.3584 71.8846 45.3495 67.6875 44.9964C67.5013 44.5566 66.9922 44.1912 67.3957 43.6274C68.0166 44.4699 68.8734 44.123 69.6308 44.1416C73.1574 44.2283 76.6839 44.2655 80.1855 44.315L80.26 45.5168C80.2787 45.6221 80.2787 45.7274 80.2849 45.8265Z" fill="#725852"/>
<path d="M79.1283 42.1468C78.7247 40.6849 78.3274 39.2229 77.9238 37.7609C78.731 37.4202 79.7491 36.9928 80.1155 38.0769C80.5749 39.4087 81.5435 40.7778 81.0219 42.2087C80.7798 42.9025 79.7368 43.2123 79.1283 42.1468Z" fill="#D2D2D2"/>
<path d="M116.393 38.1264C113.655 37.3025 110.837 38.083 108.08 37.6928C108.862 37.2653 108.341 36.8689 108.08 36.4538L115.27 36.4043L116.983 36.5902V37.3706L116.393 38.1264Z" fill="#625735"/>
<path d="M116.395 38.1262L116.978 37.3828C118.325 37.6616 120.082 40.8457 119.58 42.0536C119.238 42.828 118.605 42.797 117.928 42.574L117.63 42.2271C117.22 40.8581 116.804 39.489 116.395 38.1262Z" fill="#D2D2D2"/>
<path d="M80.2852 45.8261C80.2852 45.727 80.2852 45.6217 80.2852 45.5164C81.8373 45.1447 82.8245 45.5659 83.1473 47.288C83.3911 48.2026 83.7152 49.094 84.1159 49.9518C83.4267 50.4659 82.7438 50.1995 82.1043 50.2367C81.2972 48.8429 81.322 47.1208 80.2852 45.8261Z" fill="#D2D2D2"/>
<path d="M120.622 50.2184C120.001 48.645 119.381 47.0653 118.76 45.4919C120.678 45.3989 122.845 47.8086 122.423 49.6299C122.175 50.7449 121.237 50.0512 120.622 50.2184Z" fill="#D2D2D2"/>
<path d="M85.2637 53.4827C84.8105 54.5482 84.3511 55.6075 83.8978 56.6668C83.277 54.8889 82.6995 53.1111 82.1035 51.327C83.9475 50.8996 85.2203 51.2898 85.2637 53.4827Z" fill="#EAEBCA"/>
<path d="M101.684 56.6544C101.838 57.2866 102.035 57.9076 102.274 58.5128C103.131 60.3154 102.454 60.7552 100.728 60.3712C100.784 58.6986 99.4862 57.2739 99.8153 55.5456C99.8582 55.4817 99.8976 55.4155 99.9332 55.3473C100.933 55.2172 101.299 55.942 101.684 56.6544Z" fill="#EAEBCA"/>
<path d="M108.063 24.8018C109.305 28.5495 108.913 32.2849 107.963 36.0079C107.659 36.0079 107.194 35.8344 107.293 35.5928C108.684 32.0681 107.647 28.3823 108.063 24.8018Z" fill="#625735"/>
<path d="M113.375 5.11499C113.518 4.45835 112.959 3.25658 114.493 3.67162C116.026 4.08666 118.286 3.16985 117.833 6.14949L113.375 5.11499Z" fill="#F6F6F6"/>
<path d="M98.127 52.5351C98.0587 50.9059 98.3878 49.2023 97.2578 47.7713C100.257 47.6784 98.9776 50.4165 99.8096 51.7484C100.288 52.5103 99.5612 53.0492 98.6548 52.9873L98.127 52.5351Z" fill="#EAEBCA"/>
<path d="M106.199 43.5217C110.843 43.6642 115.481 43.7385 120.119 43.4722C120.61 43.9492 120.467 44.2898 119.834 44.2836C115.372 44.2836 110.905 44.2486 106.435 44.1784C106.28 44.1784 106.112 43.9739 105.982 43.8376C105.945 43.8005 106.106 43.6146 106.199 43.5217Z" fill="#EAEBCA"/>
<path d="M80.2038 44.315C76.6835 44.2654 73.157 44.2282 69.6492 44.1415C68.8917 44.1415 68.0039 44.4698 67.4141 43.6274L68.1032 43.5282C71.5576 43.8132 75.0297 43.8132 78.484 43.5282C79.5519 43.5778 80.6322 43.2928 81.7933 43.6769C81.4456 44.5256 80.7005 44.1415 80.2038 44.315Z" fill="#EAEBCA"/>
<path d="M78.4649 43.5218C75.0105 43.8068 71.5384 43.8068 68.084 43.5218C71.5278 43.0448 75.0211 43.0448 78.4649 43.5218Z" fill="#AFBD51"/>
<path d="M108.77 8.44141C108.813 9.20955 108.31 9.15379 107.795 9.06087L108.77 8.44141Z" fill="#EAEBCA"/>
<path d="M81.5627 111.663C81.5627 111.168 81.4385 110.623 81.9911 110.294C82.0612 110.539 82.058 110.8 81.9819 111.043C81.9058 111.286 81.7601 111.502 81.5627 111.663Z" fill="#D2D2D2"/>
<path d="M19.2782 64.6767C19.2034 64.8886 19.0812 65.0806 18.9209 65.2384C18.7606 65.3962 18.5665 65.5155 18.3531 65.5873C18.229 64.8811 18.4401 64.4723 19.2782 64.6767Z" fill="#D2D2D2"/>
<path d="M99.0215 32.483C99.0649 32.1113 99.1022 31.7396 99.4996 31.5537C99.7169 32.0555 99.4188 32.2971 99.0215 32.483Z" fill="#D2D2D2"/>
<path d="M98.5931 33.3687C98.5495 33.2787 98.527 33.18 98.5273 33.0801C98.5277 32.9802 98.5509 32.8817 98.5953 32.7921C98.6396 32.7025 98.7038 32.6241 98.783 32.563C98.8623 32.5019 98.9544 32.4596 99.0525 32.4395C99.0091 32.8049 99.065 33.22 98.5931 33.3687Z" fill="#D2D2D2"/>
<path d="M86.8346 51.6987C86.8483 51.7685 86.8434 51.8407 86.8205 51.908C86.7977 51.9754 86.7576 52.0356 86.7042 52.0828C86.5552 51.8908 86.6422 51.7731 86.8346 51.6987Z" fill="#625735"/>
<path d="M20.1423 63.7787C20.1423 64.107 19.9747 64.2309 19.6767 64.2433C19.4842 63.7415 19.6332 63.5805 20.1423 63.7787Z" fill="#D2D2D2"/>
<path d="M19.6945 64.2246C19.7002 64.2879 19.6919 64.3516 19.6703 64.4113C19.6486 64.471 19.614 64.5252 19.569 64.5701C19.524 64.615 19.4696 64.6495 19.4098 64.6712C19.3499 64.6928 19.286 64.7011 19.2226 64.6954C19.0364 64.1875 19.1792 64.0202 19.6945 64.2246Z" fill="#D2D2D2"/>
<path d="M18.3521 65.5565L17.8678 66.0335C17.8181 65.668 17.9423 65.4636 18.3521 65.5565Z" fill="#D2D2D2"/>
<path d="M17.8988 66.0024C17.8615 66.1214 17.8365 66.2439 17.8243 66.3679L17.5449 66.1077L17.8988 66.0024Z" fill="#D2D2D2"/>
<path d="M82.8986 22.6272L83.1159 22.2988L83.2028 22.5962H82.8613L82.8986 22.6272Z" fill="#F6F6F6"/>
<path d="M121.633 4.92884C121.732 4.19787 122.316 3.86336 122.688 4.15451C123.353 4.66867 122.527 4.77395 122.241 4.94121C122.105 5.02793 121.863 4.94123 121.633 4.92884Z" fill="#FDFDFD"/>
<path d="M117.449 1.49084C116.245 1.92447 114.761 3.64657 114.258 0.809406C115.368 0.680532 116.489 0.920032 117.449 1.49084Z" fill="#F6F6F6"/>
<path d="M60.8758 121.532C60.9565 122.356 61.6271 122.771 62.1176 123.303C62.608 123.836 62.8998 124.239 62.5273 124.864C62.2355 125.372 61.863 125.911 61.1738 125.825C58.5414 125.49 57.2624 127.256 56.0021 129.071C55.2881 129.721 54.0712 129.969 54.1767 131.288C52.5128 129.43 50.6254 130.594 48.8062 130.904C48.5206 130.402 48.0239 130.409 47.5645 130.359C46.6518 128.662 47.3224 126.704 46.6518 124.957C46.4594 124.468 46.9623 124.003 47.3348 123.632C48.0115 122.95 48.8993 122.393 49.3402 121.569C51.2028 118.199 54.3071 118.775 57.3059 118.787C58.1564 118.787 58.3303 119.543 58.8021 119.971C59.423 120.553 59.8887 121.383 60.8758 121.532ZM53.7731 128.501C55.1701 128.451 56.7595 126.642 56.7409 125.131C56.7223 123.619 55.0211 122.281 53.3261 122.356C52.8985 122.367 52.4776 122.465 52.0884 122.641C51.6991 122.818 51.3494 123.071 51.06 123.386C50.7705 123.7 50.5472 124.069 50.4032 124.471C50.2592 124.873 50.1976 125.299 50.2218 125.725C50.3212 127.032 52.2706 128.556 53.7607 128.501H53.7731Z" fill="#343434"/>
<path d="M84.5857 101.331C84.3912 102.868 83.9729 104.368 83.344 105.785L82.8908 106.311H82.9466C81.4565 106.664 81.0468 108.325 79.7616 108.938C79.1035 109.248 78.6502 110.177 77.7003 109.167C76.7504 108.157 77.6569 107.749 78.1349 107.216C78.8862 106.386 79.7243 105.636 80.4942 104.825C81.2641 104.013 81.4752 103.028 80.6681 102.229C80.4975 102.053 80.2938 101.913 80.0687 101.816C79.8436 101.719 79.6016 101.667 79.3565 101.664C79.1113 101.66 78.8679 101.705 78.6402 101.796C78.4124 101.887 78.2049 102.021 78.0294 102.192C77.3419 102.76 76.7004 103.381 76.1109 104.05C75.5459 104.67 75.0803 104.434 74.5836 103.995C74.0869 103.555 73.7827 103.084 74.3601 102.489C75.0865 101.74 75.8253 101.003 76.5517 100.253C76.6959 100.132 76.8104 99.9789 76.8866 99.8068C76.9628 99.6346 76.9986 99.4473 76.9915 99.2592C76.9843 99.0711 76.9343 98.8872 76.8451 98.7212C76.756 98.5553 76.6302 98.4119 76.4772 98.3017C76.3612 98.1525 76.2124 98.0317 76.0424 97.9487C75.8724 97.8656 75.6856 97.8224 75.4963 97.8224C75.3069 97.8224 75.1201 97.8656 74.9501 97.9487C74.7801 98.0317 74.6313 98.1525 74.5153 98.3017C73.5591 99.2433 72.5968 100.16 71.6655 101.145C71.1005 101.765 70.6039 101.857 69.9706 101.219C69.3373 100.581 69.5484 100.061 70.1009 99.5282C71.3427 98.3327 72.4726 97.0504 73.8261 95.9415C74.2841 95.557 74.829 95.2896 75.4139 95.1626C75.9987 95.0356 76.6058 95.0528 77.1824 95.2127C77.7591 95.3726 78.288 95.6702 78.7234 96.08C79.1587 96.4898 79.4874 96.9994 79.6809 97.5645C79.9975 98.599 80.4632 99.1875 81.4131 99.2494C82.897 99.3548 83.0149 101.436 84.5857 101.331Z" fill="#343434"/>
<path d="M67.2027 112.487C67.1033 111.428 67.7366 110.555 68.2209 109.644C68.5251 109.024 69.0404 108.566 68.9846 107.835C68.9287 107.104 69.3198 106.249 68.3637 105.909C68.0089 105.785 67.6235 105.778 67.2646 105.89C66.9056 106.001 66.5922 106.225 66.3707 106.528C65.6319 107.346 64.7627 108.052 63.9804 108.839C63.3595 109.458 62.8442 109.34 62.2917 108.733C61.7391 108.126 61.9253 107.693 62.4282 107.209C63.3885 106.28 64.3405 105.339 65.2842 104.385C66.7805 102.879 68.3885 102.861 70.1394 103.932C71.8902 105.004 72.002 106.565 71.5363 108.225C71.1764 109.353 70.7194 110.447 70.1704 111.496C69.9849 111.823 69.9292 112.208 70.0143 112.573C70.0994 112.939 70.3191 113.26 70.6299 113.472C71.5487 114.222 71.9523 113.336 72.449 112.853C73.2685 112.091 74.057 111.304 74.8331 110.499C75.4043 109.879 75.9072 109.805 76.5156 110.462C77.1241 111.118 77.2172 111.608 76.6212 112.209C75.0566 113.794 73.4734 115.374 71.8902 116.947C71.7494 117.121 71.5619 117.251 71.3497 117.322C71.1375 117.394 70.9094 117.403 70.6919 117.35C69.5123 117.059 67.1592 113.819 67.2027 112.487Z" fill="#343434"/>
<path d="M84.2145 86.5933C84.7485 87.4048 84.6864 88.3278 84.7174 89.2322C83.2087 89.7773 81.3896 90.2729 81.7932 92.3295C82.0974 93.8906 83.3391 94.6154 84.9968 93.7171C85.1272 95.5322 85.4004 97.3596 84.6243 99.1189C81.9732 97.6631 80.2782 95.1667 78.1797 93.141C78.011 92.9861 77.9033 92.7761 77.876 92.549C77.8487 92.3218 77.9036 92.0924 78.0307 91.9021C80.0051 90.0375 81.1599 87.2065 84.2145 86.5933Z" fill="#343434"/>
<path d="M69.5689 119.543L68.2651 120.379C67.6815 120.751 67.2779 120.379 66.8992 120.02C65.6264 118.781 64.4157 117.462 63.0871 116.26C61.7584 115.058 60.883 113.466 58.8777 113.162C58.2568 113.076 57.4062 112.307 58.2568 111.49C58.8777 110.87 59.4985 109.241 60.6533 110.313C63.5093 112.902 66.1728 115.708 68.9046 118.44C69.1512 118.792 69.3732 119.16 69.5689 119.543Z" fill="#343434"/>
<path d="M38.9355 92.9306C41.8722 91.3076 44.9021 91.5306 46.5039 93.2094C47.3095 94.0837 47.8092 95.1952 47.9279 96.3769C48.0465 97.5587 47.7778 98.747 47.162 99.7634C47.9629 94.7519 45.0697 92.1625 38.9355 92.9306Z" fill="#D2D2D2"/>
<path d="M35.8174 81.65C35.8174 76.0748 33.8555 74.4084 27.8145 74.9102C28.7779 74.1135 29.994 73.6847 31.2452 73.7006C32.4964 73.7165 33.7012 74.176 34.644 74.997C36.4569 76.4899 36.9411 79.2836 35.7925 81.619L35.8174 81.65Z" fill="#D2D2D2"/>
<path d="M44.1426 72.0173C45.0285 71.2773 46.1321 70.8456 47.286 70.7875C48.4399 70.7294 49.5813 71.048 50.5375 71.6952C51.4051 72.1278 52.0982 72.8437 52.5015 73.7239C52.9047 74.6041 52.9938 75.5955 52.754 76.5332C50.9472 72.4324 48.737 71.3235 44.3413 72.2713L44.1426 72.0173Z" fill="#D2D2D2"/>
<path d="M44.3416 72.2838C44.325 72.3469 44.2946 72.4056 44.2528 72.4558C44.2109 72.506 44.1586 72.5464 44.0993 72.5742C44.0401 72.6019 43.9755 72.6164 43.9101 72.6165C43.8447 72.6166 43.78 72.6024 43.7207 72.5749C43.8697 72.3953 44.0249 72.2156 44.1739 72.0298L44.3416 72.2838Z" fill="#D2D2D2"/>
<path d="M35.7869 81.6191L35.6875 81.9661L35.8179 81.6501L35.7869 81.6191Z" fill="#D2D2D2"/>
<path d="M84.997 93.6988C83.3393 94.597 82.0976 93.8723 81.7933 92.3112C81.3898 90.2546 83.2089 89.759 84.7176 89.2139C85.2 90.6592 85.2963 92.205 84.997 93.6988Z" fill="#343434"/>
<path d="M87.6037 88.4272C87.6275 88.4437 87.6476 88.4649 87.6626 88.4896C87.6776 88.5144 87.6872 88.542 87.6907 88.5707C87.6942 88.5994 87.6916 88.6285 87.683 88.6561C87.6745 88.6837 87.6601 88.7091 87.6409 88.7308C87.5995 88.6929 87.573 88.6415 87.5662 88.5859C87.5594 88.5302 87.5726 88.474 87.6037 88.4272Z" fill="#CC4456"/>
<path d="M82.9043 106.311L83.3576 105.785C83.2955 106.039 83.4196 106.454 82.9043 106.311Z" fill="#343434"/>
<path d="M87.8291 81.6874C86.4675 77.187 84.5751 72.8638 82.1916 68.8087C81.7508 68.0591 81.9619 66.9503 81.875 65.9839C83.3713 61.7654 83.7376 61.4804 88.2389 61.5299C92.7401 61.5795 97.1607 61.2512 101.6 61.8769C106.145 73.7521 109.342 85.7326 104.543 98.3635C103.866 99.9334 103.062 101.446 102.14 102.886C97.5874 103.345 93.0049 103.436 88.4375 103.158C87.0096 103.09 87.1151 101.82 87.4628 101.194C88.8163 98.7538 88.2326 96.1892 88.2761 93.6556C88.3134 91.4379 88.3941 89.2202 88.4499 86.9963C90.8775 87.8202 92.0944 90.0936 93.9694 91.5803C94.5903 92.0635 94.9814 93.321 96.1114 92.3733C97.2414 91.4255 96.4094 90.6387 95.8258 89.8954C93.6093 87.1449 93.5907 87.1573 96.0369 84.6361C96.2418 84.4255 96.5398 84.3016 96.7323 84.0848C97.1296 83.6511 97.974 83.3104 97.1482 82.5361C96.4653 81.9166 95.801 81.6503 95.0497 82.468C94.3581 83.2407 93.6243 83.9748 92.8519 84.6671C91.964 85.4353 91.1755 85.2308 90.3187 84.4193C89.4619 83.6078 90.058 83.0441 90.5547 82.4122C91.2701 81.5611 92.0664 80.781 92.9326 80.083C93.4417 79.637 94.5096 79.1538 93.4914 78.1565C92.7091 77.3946 92.0634 77.6609 91.3866 78.3238C90.2194 79.4512 89.0149 80.5724 87.8291 81.6874Z" fill="#CC4456"/>
<path d="M99.8162 55.5026C99.4933 57.2309 100.785 58.6557 100.729 60.3282L85.0955 60.4769C84.6733 60.4769 84.1456 60.6132 83.9283 60.0804C83.5123 59.0335 85.9399 55.4282 87.0823 55.4282C91.329 55.4344 95.5694 55.4778 99.8162 55.5026Z" fill="#F7ED69"/>
<path d="M87.8277 81.6874C89.0136 80.5723 90.2181 79.4697 91.3853 78.336C92.062 77.6732 92.7077 77.4069 93.49 78.1688C94.5082 79.1662 93.4403 79.6494 92.9312 80.0954C92.0651 80.7934 91.2687 81.5734 90.5533 82.4246C90.0566 83.0441 89.3861 83.5458 90.3174 84.4317C91.2487 85.3175 91.9627 85.4475 92.8505 84.6794C93.623 83.9871 94.3567 83.253 95.0484 82.4803C95.7996 81.6626 96.4639 81.929 97.1469 82.5485C97.9975 83.3228 97.1469 83.6635 96.7309 84.0971C96.5384 84.3139 96.2404 84.4378 96.0355 84.6485C93.5893 87.1697 93.6079 87.1263 95.8244 89.9077C96.408 90.6387 97.2276 91.4378 96.11 92.3856C94.9925 93.3334 94.5765 92.0759 93.9681 91.5927C92.1055 90.1059 90.8637 87.8325 88.4486 87.0086C88.3368 85.2183 86.9523 83.5891 87.8277 81.6874Z" fill="#CC4456"/>
<path d="M53.7618 128.501C52.2717 128.556 50.3346 127.032 50.2415 125.725C50.2172 125.299 50.2789 124.873 50.4229 124.471C50.5668 124.069 50.7902 123.7 51.0797 123.386C51.3691 123.071 51.7188 122.818 52.1081 122.641C52.4973 122.464 52.9182 122.367 53.3458 122.355C55.0408 122.281 56.7357 123.662 56.7605 125.131C56.7854 126.599 55.1587 128.451 53.7618 128.501Z" fill="#343434"/>
</svg>
