<svg width="186" height="179" viewBox="0 0 186 179" fill="none" xmlns="http://www.w3.org/2000/svg">
<path d="M51.674 9.49179H51.614C53.434 9.76179 54.824 8.60176 56.334 7.96176C75.804 -0.358238 95.684 -0.888185 115.844 4.89182C120.174 6.13181 124.344 7.89178 128.594 9.48178H128.544C129.544 11.0418 131.214 11.4818 132.924 11.6918L132.864 11.6418C134.43 13.3813 136.454 14.6459 138.704 15.2918H138.654C138.797 15.7538 139.095 16.1524 139.497 16.4202C139.9 16.688 140.383 16.8087 140.864 16.7618C141.114 17.4918 141.354 18.2518 142.344 17.5018C141.784 18.1218 142.424 18.2818 142.754 18.5618C143.084 18.8418 143.314 19.3118 143.754 18.7518C143.754 18.7518 143.404 18.3418 143.224 18.1218C143.165 17.9261 143.125 17.7252 143.104 17.5218C144.914 18.5218 148.464 17.3018 148.104 21.2618C147.674 21.2618 146.974 20.7918 146.874 21.3318C146.734 22.0918 147.474 22.4418 148.184 22.5918C148.674 23.4418 148.944 24.5918 150.384 24.0518C150.154 25.2718 150.704 25.7118 151.864 25.5418C151.494 26.3518 151.924 26.7718 152.614 27.0518V27.0018C152.605 27.1048 152.618 27.2086 152.654 27.3058C152.689 27.403 152.746 27.4911 152.819 27.5638C152.893 27.6365 152.982 27.6919 153.079 27.7262C153.177 27.7604 153.281 27.7726 153.384 27.7618C153.366 27.8665 153.374 27.9739 153.406 28.075C153.439 28.1761 153.495 28.2678 153.571 28.3424C153.647 28.417 153.739 28.4723 153.841 28.5035C153.942 28.5347 154.05 28.541 154.154 28.5218C154.154 29.0418 154.314 29.3718 154.914 29.2818C154.844 29.8618 155.104 30.1118 155.674 30.0518C155.604 30.6418 155.964 30.7918 156.444 30.8318V30.7818C156.444 31.2818 156.634 31.6118 157.214 31.5318C157.504 32.7118 157.894 33.7818 159.414 33.7218C158.874 34.6118 159.414 34.9418 160.154 35.2218C160.334 36.0418 160.424 36.9518 161.654 36.7118V36.6518C161.654 39.3618 163.424 40.9618 165.294 42.4918C165.294 43.0118 165.294 43.5718 166.064 43.2518C166.064 45.6918 167.384 47.4418 168.984 49.0718C168.984 49.5618 168.864 50.2118 169.744 49.8318C169.344 50.6518 169.324 51.2918 170.494 51.3218C170.284 52.0106 170.316 52.7504 170.586 53.4182C170.855 54.086 171.345 54.6413 171.974 54.9918V54.9318C171.873 55.6233 171.893 56.3273 172.034 57.0118C174.744 63.5918 176.184 70.4918 177.504 77.4518C178.094 80.4518 177.304 83.7118 178.504 87.0518C179.824 83.7818 178.164 80.9218 178.724 78.0518C183.724 77.0518 183.474 81.3918 184.534 83.9718C186.454 88.7218 184.124 93.6718 179.304 96.1318C178.504 94.2418 181.024 91.7918 177.934 90.0018V95.4918C177.249 101.298 176.139 107.047 174.614 112.692C173.754 115.762 171.954 118.552 171.944 121.872V121.802C169.799 124.819 168.086 128.121 166.854 131.612V131.562C166.699 131.6 166.554 131.671 166.43 131.771C166.305 131.87 166.203 131.996 166.132 132.138C166.061 132.281 166.021 132.437 166.016 132.597C166.011 132.756 166.041 132.915 166.104 133.062V133.002C165.364 133.262 164.744 133.572 165.364 134.502C162.284 136.332 161.364 139.762 159.514 142.502H159.574C159.064 142.502 158.774 142.732 158.824 143.272C158.294 143.272 158.064 143.512 158.064 144.022C156.544 145.232 154.924 146.352 154.414 148.402C153.854 148.402 153.634 148.642 153.644 149.162C153.094 149.162 152.834 149.382 152.874 149.932C152.344 149.932 152.134 150.212 152.094 150.692V150.642L143.274 157.992C134.475 164.509 124.578 169.397 114.054 172.422C96.2241 177.586 77.1969 176.8 59.854 170.182C42.6645 163.874 28.0025 152.13 18.094 136.732C4.714 116.192 0.294001 93.9718 5.404 69.9418C8.264 56.5518 14.334 44.6618 22.514 33.7818C23.314 32.9018 24.944 32.5018 24.234 30.7818C25.104 31.1518 25.364 30.9018 24.994 30.0318C25.994 30.7618 26.214 30.0318 26.494 29.2918C27.154 29.0018 27.844 28.7218 27.234 27.7918C27.984 28.0418 28.344 27.8918 27.994 27.0318C29.264 27.3118 29.864 26.9218 29.474 25.5518C30.244 25.8018 30.474 25.5518 30.244 24.7818C31.344 24.9018 31.954 24.5118 31.714 23.3018C32.604 23.8518 32.914 23.2218 33.204 22.5618C33.664 22.5018 33.984 22.3218 33.964 21.7918C34.484 21.7918 34.754 21.5618 34.734 21.0318H34.684C35.1635 21.0542 35.6376 20.9226 36.0371 20.6563C36.4365 20.3901 36.7402 20.003 36.904 19.5518C37.689 19.3557 38.4224 18.9923 39.0541 18.4867C39.6858 17.981 40.2008 17.3449 40.564 16.6218C41.0349 16.6005 41.4912 16.4515 41.884 16.1908C42.2768 15.9301 42.5914 15.5675 42.794 15.1418H42.734C43.684 14.9618 44.594 14.7318 44.944 13.6518H44.894C45.6257 13.5585 46.3299 13.3138 46.9617 12.9333C47.5936 12.5528 48.1393 12.0449 48.564 11.4418L48.504 11.4918C49.164 11.4918 49.774 11.4918 50.014 10.7218H49.944C50.644 10.8518 51.244 10.8018 51.444 9.96176H51.394C51.124 10.2918 51.614 10.1918 51.674 9.49179ZM169.674 94.0118C170.731 86.7773 170.237 79.4006 168.224 72.3718C168.293 70.4004 167.885 68.4415 167.034 66.6618C163.013 51.9819 154.794 38.7956 143.384 28.7218C127.544 14.5518 108.964 7.81178 87.974 8.42178C61.974 9.18178 40.974 20.4218 25.564 41.3118C12.874 58.4518 8.56396 77.9118 11.114 98.9618C13.1087 113.983 19.3719 128.117 29.16 139.684C38.9481 151.252 51.85 159.768 66.334 164.222C93.804 172.472 118.694 167.402 140.874 149.842C155.144 138.552 164.114 123.462 168.174 105.602C169.171 101.808 169.682 97.9039 169.694 93.9818L169.674 94.0118Z" fill="#F6F6F6"/>
<path d="M22.114 33.4315C13.934 44.3115 7.86398 56.2015 5.00398 69.5915C-0.106025 93.5915 4.31398 115.842 17.694 136.382C27.6025 151.779 42.2645 163.524 59.454 169.832C76.7969 176.45 95.8241 177.236 113.654 172.072C124.178 169.046 134.075 164.159 142.874 157.642L142.994 158.961C130.58 169.158 115.54 175.643 99.604 177.672C79.664 180.412 60.994 176.301 43.544 166.352C12.344 148.551 -4.78604 111.762 1.17396 76.2315C3.77625 60.4051 10.6188 45.5797 20.974 33.3315L22.114 33.4315Z" fill="#555250"/>
<path d="M128.593 9.49164C124.343 7.94164 120.173 6.14161 115.843 4.90161C95.6833 -0.878392 75.8433 -0.348384 56.3333 7.97162C54.8233 8.61162 53.4333 9.77165 51.6133 9.50165C57.4833 5.25165 64.3333 3.41163 71.2233 1.98163C85.6413 -1.04752 100.573 -0.598458 114.783 3.29162L118.453 4.38165C121.823 6.10165 125.853 6.49164 128.593 9.49164Z" fill="#7B7B7B"/>
<path d="M177.932 77.3715C177.372 80.2215 179.033 83.0815 177.713 86.3715C176.493 83.0315 177.283 79.8215 176.713 76.7715C175.393 69.7715 173.952 62.9115 171.242 56.3315C171.102 55.6469 171.081 54.943 171.182 54.2515C175.212 61.4215 176.362 69.4915 177.932 77.3715Z" fill="#7B7B7B"/>
<path d="M171.152 121.832C171.152 118.512 172.962 115.722 173.822 112.652C175.347 107.007 176.457 101.258 177.142 95.4517L177.922 96.2617L177.442 101.852C177.342 102.362 177.242 102.852 177.132 103.392C176.732 105.272 176.322 107.162 175.922 109.042L175.562 111.752C173.512 114.862 173.622 118.912 171.152 121.832Z" fill="#7B7B7B"/>
<path d="M142.993 158.961L142.873 157.641L151.693 150.291C149.883 154.271 146.183 156.361 142.993 158.961Z" fill="#7B7B7B"/>
<path d="M158.854 142.401C160.724 139.691 161.623 136.261 164.703 134.401C163.203 137.421 161.964 140.591 158.854 142.401Z" fill="#7B7B7B"/>
<path d="M166.104 131.572C167.335 128.081 169.049 124.779 171.193 121.762C170.303 125.492 169.284 129.072 166.104 131.572Z" fill="#7B7B7B"/>
<path d="M177.923 96.2613L177.143 95.4513V89.3213C180.233 91.1113 177.713 93.5613 178.513 95.4513L177.923 96.2613Z" fill="#77ACB6"/>
<path d="M138.703 15.2818C136.453 14.636 134.43 13.3713 132.863 11.6318C134.069 11.6853 135.24 12.0494 136.263 12.689C137.286 13.3285 138.127 14.2216 138.703 15.2818Z" fill="#7B7B7B"/>
<path d="M118.453 4.39144L114.783 3.30141C114.853 1.97141 115.543 1.3814 116.853 1.6614C118.333 1.9814 118.513 3.16144 118.453 4.39144Z" fill="#F6F6F6"/>
<path d="M164.693 42.0114C162.823 40.4814 161.053 38.8814 161.053 36.1714C162.443 38.0114 164.513 39.4314 164.693 42.0114Z" fill="#7B7B7B"/>
<path d="M168.304 48.4914C166.704 46.8614 165.304 45.1114 165.384 42.6714C167.076 44.159 168.123 46.246 168.304 48.4914Z" fill="#7B7B7B"/>
<path d="M153.822 148.182C154.332 146.132 155.952 145.012 157.472 143.802C157.383 144.817 156.985 145.78 156.333 146.563C155.68 147.346 154.804 147.911 153.822 148.182Z" fill="#7B7B7B"/>
<path d="M39.7537 16.6914C39.3905 17.4145 38.8755 18.0506 38.2438 18.5563C37.6122 19.062 36.8788 19.4253 36.0938 19.6214C36.5137 17.6114 37.9137 16.9014 39.7537 16.6914Z" fill="#7B7B7B"/>
<path d="M132.923 11.6812C131.213 11.4412 129.583 11.0312 128.543 9.47119C129.413 9.33406 130.303 9.47367 131.089 9.87024C131.875 10.2668 132.517 10.9003 132.923 11.6812Z" fill="#7B7B7B"/>
<path d="M22.1126 33.4316L20.9727 33.3317C21.5232 32.0322 22.5449 30.989 23.8326 30.4116C24.5126 32.1516 22.9126 32.5516 22.1126 33.4316Z" fill="#7B7B7B"/>
<path d="M47.7032 11.6314C47.2785 12.2345 46.7328 12.7425 46.101 13.123C45.4691 13.5035 44.7649 13.7481 44.0332 13.8414C44.5632 11.9414 46.0032 11.5714 47.7032 11.6314Z" fill="#7B7B7B"/>
<path d="M158.923 33.3216C157.403 33.3816 157.013 32.3216 156.723 31.1316C158.253 31.0716 158.513 32.2616 158.923 33.3216Z" fill="#7B7B7B"/>
<path d="M171.203 54.2916C170.574 53.9411 170.084 53.3857 169.815 52.718C169.545 52.0502 169.513 51.3103 169.723 50.6216C170.232 51.081 170.629 51.6502 170.886 52.286C171.142 52.9218 171.251 53.6076 171.203 54.2916Z" fill="#7B7B7B"/>
<path d="M175.562 111.751L175.922 109.041C177.082 110.121 177.932 111.151 175.562 111.751Z" fill="#F6F6F6"/>
<path d="M36.1439 19.5816C35.9801 20.0328 35.6763 20.4198 35.2769 20.6861C34.8775 20.9524 34.4033 21.0839 33.9238 21.0616C34.1638 19.8116 34.7739 19.1316 36.1439 19.5816Z" fill="#7B7B7B"/>
<path d="M150.253 23.9317C148.813 24.5017 148.543 23.3217 148.053 22.4717C149.513 21.8917 149.833 22.9717 150.253 23.9317Z" fill="#7B7B7B"/>
<path d="M44.0831 13.8016C43.7331 14.8816 42.8231 15.1116 41.8731 15.2916C41.8631 13.6816 42.7931 13.4916 44.0831 13.8016Z" fill="#7B7B7B"/>
<path d="M41.9331 15.2516C41.7305 15.6773 41.416 16.0398 41.0232 16.3005C40.6304 16.5612 40.1741 16.7102 39.7031 16.7316C39.7831 15.2416 40.5131 14.7716 41.9331 15.2516Z" fill="#7B7B7B"/>
<path d="M140.862 16.7115C140.381 16.7584 139.898 16.6378 139.496 16.3699C139.093 16.1021 138.795 15.7035 138.652 15.2415C139.942 14.9015 140.742 15.3015 140.862 16.7115Z" fill="#7B7B7B"/>
<path d="M28.9039 25.3516C29.2939 26.7216 28.6938 27.1116 27.4238 26.8316C27.4576 26.4504 27.6244 26.0932 27.895 25.8226C28.1655 25.552 28.5227 25.3853 28.9039 25.3516Z" fill="#7B7B7B"/>
<path d="M151.703 25.3917C150.543 25.5617 149.993 25.1217 150.223 23.9017C150.42 23.8975 150.615 23.9334 150.797 24.0069C150.979 24.0805 151.144 24.1902 151.283 24.3295C151.421 24.4689 151.53 24.6349 151.602 24.8175C151.674 25 151.709 25.1954 151.703 25.3917Z" fill="#7B7B7B"/>
<path d="M177.133 103.392C177.243 102.872 177.343 102.392 177.443 101.852C178.733 102.642 178.283 103.082 177.133 103.392Z" fill="#F6F6F6"/>
<path d="M31.0637 23.1914C31.3037 24.4014 30.6938 24.7914 29.5938 24.6714C29.7537 23.8414 30.1237 23.2314 31.0637 23.1914Z" fill="#7B7B7B"/>
<path d="M161.094 36.2317C159.864 36.4717 159.774 35.5617 159.594 34.7417C160.844 34.4917 160.934 35.3917 161.094 36.2317Z" fill="#7B7B7B"/>
<path d="M148.083 22.4915C147.373 22.3415 146.633 21.9915 146.773 21.2315C146.873 20.6915 147.573 21.1214 148.003 21.1614C148.073 21.6114 148.773 22.0115 148.083 22.4915Z" fill="#7B7B7B"/>
<path d="M159.632 34.7915C158.942 34.5115 158.352 34.1815 158.892 33.2915C159.582 33.5715 160.312 33.8415 159.632 34.7915Z" fill="#7B7B7B"/>
<path d="M26.0332 28.9716C25.7532 29.6716 25.5132 30.4416 24.5332 29.7116C24.8432 29.0816 25.0532 28.2516 26.0332 28.9716Z" fill="#7B7B7B"/>
<path d="M26.7328 27.4912C27.3428 28.4212 26.6528 28.7012 25.9928 28.9912C25.2928 28.0412 26.0328 27.7912 26.7328 27.4912Z" fill="#7B7B7B"/>
<path d="M152.413 26.8518C151.723 26.5718 151.293 26.1518 151.663 25.3418C152.313 25.6518 153.093 25.8818 152.413 26.8518Z" fill="#7B7B7B"/>
<path d="M32.5134 22.4915C32.2234 23.1515 31.9134 23.7815 31.0234 23.2315C31.2734 22.4215 31.5734 21.7615 32.5134 22.4915Z" fill="#7B7B7B"/>
<path d="M142.314 17.4317C141.314 18.1817 141.084 17.4317 140.834 16.6917C141.724 16.1517 142.054 16.7317 142.314 17.4317Z" fill="#7B7B7B"/>
<path d="M49.1526 10.9115C48.9126 11.7015 48.3026 11.7315 47.6426 11.6815C47.7626 10.6715 48.5126 10.8315 49.1526 10.9115Z" fill="#7B7B7B"/>
<path d="M50.584 10.1916C50.384 11.0316 49.784 11.0816 49.084 10.9516C49.154 9.85163 49.804 9.89162 50.584 10.1916Z" fill="#7B7B7B"/>
<path d="M164.674 134.491C164.054 133.561 164.674 133.251 165.414 132.991C165.498 133.134 165.545 133.296 165.551 133.462C165.558 133.627 165.522 133.792 165.449 133.941C165.376 134.09 165.266 134.218 165.131 134.314C164.996 134.41 164.838 134.471 164.674 134.491Z" fill="#7B7B7B"/>
<path d="M165.383 133.021C165.321 132.875 165.291 132.716 165.295 132.557C165.3 132.397 165.34 132.241 165.411 132.098C165.482 131.955 165.584 131.83 165.709 131.73C165.833 131.631 165.978 131.559 166.133 131.521C166.793 132.491 166.313 132.861 165.383 133.021Z" fill="#7B7B7B"/>
<path d="M169.753 50.6716C168.583 50.6716 168.603 50.0016 169.003 49.1816C169.753 49.4216 169.853 49.9916 169.753 50.6716Z" fill="#7B7B7B"/>
<path d="M156.752 31.1616C156.172 31.2416 155.992 30.9116 155.982 30.4116C156.652 30.2316 157.022 30.3616 156.752 31.1616Z" fill="#7B7B7B"/>
<path d="M33.9738 21.0214C33.9738 21.5514 33.7238 21.7914 33.2038 21.7814C32.8338 20.9014 33.3538 20.9114 33.9738 21.0214Z" fill="#7B7B7B"/>
<path d="M158.164 143.122C158.164 142.582 158.404 142.352 158.914 142.352C159.024 142.952 158.964 143.402 158.164 143.122Z" fill="#7B7B7B"/>
<path d="M157.434 143.842C157.434 143.332 157.664 143.062 158.194 143.092C158.404 143.802 158.264 144.182 157.434 143.842Z" fill="#7B7B7B"/>
<path d="M142.693 18.4916C142.363 18.2116 141.693 18.0516 142.283 17.4316H143.023C143.044 17.635 143.084 17.8359 143.143 18.0316L142.693 18.4916Z" fill="#7B7B7B"/>
<path d="M153.094 148.901C153.094 148.381 153.304 148.091 153.864 148.141C154.024 148.811 153.714 149.011 153.094 148.901Z" fill="#7B7B7B"/>
<path d="M152.373 149.622C152.373 149.072 152.593 148.822 153.143 148.852C153.263 149.492 153.133 149.862 152.373 149.622Z" fill="#7B7B7B"/>
<path d="M151.643 150.341C151.643 149.861 151.893 149.561 152.423 149.581C152.573 150.251 152.423 150.611 151.643 150.341Z" fill="#7B7B7B"/>
<path d="M29.6333 24.6216C29.8833 25.3916 29.6333 25.6216 28.8633 25.3916C28.9033 24.9116 29.1133 24.6216 29.6333 24.6216Z" fill="#7B7B7B"/>
<path d="M169.033 49.2216C168.153 49.6016 168.293 48.9516 168.273 48.4616C169.093 48.1516 168.973 48.7816 169.033 49.2216Z" fill="#7B7B7B"/>
<path d="M51.6737 9.49143C51.6137 10.2214 51.1237 10.3215 50.5337 10.2615C50.5137 9.31145 51.0737 9.38143 51.6737 9.49143Z" fill="#7B7B7B"/>
<path d="M27.5127 26.7915C27.8627 27.6515 27.5127 27.7915 26.7527 27.5515C26.7227 27.0715 26.9427 26.7915 27.5127 26.7915Z" fill="#7B7B7B"/>
<path d="M153.144 27.5618C153.041 27.5725 152.937 27.5604 152.839 27.5261C152.742 27.4919 152.653 27.4365 152.579 27.3638C152.506 27.2911 152.449 27.203 152.414 27.1058C152.378 27.0087 152.365 26.9048 152.374 26.8018C153.244 26.4918 153.354 26.8418 153.144 27.5618Z" fill="#7B7B7B"/>
<path d="M153.863 28.2816C153.759 28.3008 153.651 28.2946 153.55 28.2634C153.448 28.2322 153.356 28.1769 153.28 28.1023C153.205 28.0277 153.148 27.9359 153.116 27.8349C153.083 27.7338 153.076 27.6264 153.093 27.5217C153.903 27.2217 154.073 27.5616 153.863 28.2816Z" fill="#7B7B7B"/>
<path d="M154.583 29.0013C153.983 29.0913 153.813 28.7612 153.823 28.2412C154.573 27.9912 154.783 28.2913 154.583 29.0013Z" fill="#7B7B7B"/>
<path d="M155.312 29.7315C154.742 29.7915 154.482 29.5415 154.552 28.9615C155.292 28.7415 155.412 29.1315 155.312 29.7315Z" fill="#7B7B7B"/>
<path d="M24.5728 29.6816C24.9428 30.5516 24.6827 30.8016 23.8127 30.4316C23.8027 29.9116 24.1028 29.7116 24.5728 29.6816Z" fill="#7B7B7B"/>
<path d="M156.033 30.4917C155.553 30.4917 155.193 30.3017 155.263 29.7117C155.893 29.5717 156.233 29.7517 156.033 30.4917Z" fill="#7B7B7B"/>
<path d="M165.423 42.7217C164.603 43.0417 164.653 42.4817 164.653 41.9617C165.293 41.8317 165.433 42.2017 165.423 42.7217Z" fill="#7B7B7B"/>
<path d="M33.2436 21.7415C33.2436 22.2715 32.9436 22.4515 32.4836 22.5115C32.1236 21.6515 32.5136 21.4915 33.2436 21.7415Z" fill="#7B7B7B"/>
<path d="M168.193 105.571C164.133 123.431 155.193 138.521 140.893 149.811C118.713 167.371 93.8231 172.491 66.3531 164.191C51.8691 159.738 38.9672 151.222 29.1791 139.654C19.391 128.086 13.1278 113.953 11.1331 98.9315C8.58308 77.8815 12.8931 58.4214 25.5831 41.2814C41.0431 20.3814 61.9931 9.15148 87.9931 8.39148C108.993 7.78148 127.563 14.5215 143.403 28.6915C154.813 38.7653 163.033 51.9516 167.053 66.6315C164.623 66.4015 164.153 63.7914 162.363 62.7814C162.259 61.5251 161.805 60.3231 161.053 59.3115C160.943 58.5515 161.573 57.8814 160.913 56.9814C158.702 53.7633 156.777 50.3569 155.163 46.8015C154.307 44.9562 152.796 43.495 150.923 42.7015C151.923 41.5015 150.923 40.7015 150.233 40.0015C148.343 37.8915 146.483 35.7514 144.463 33.7814C143.463 32.7814 142.973 30.9415 140.973 31.3815C140.363 26.8615 136.053 27.1115 133.253 25.3815C133.083 24.9415 133.043 24.3014 132.733 24.1014C126.103 19.9214 119.283 16.1015 111.463 14.5815C109.873 14.8315 108.933 13.4215 107.543 13.0615C97.5431 10.4715 87.3131 10.7515 77.3731 12.0115C68.4831 13.1415 59.8731 16.7114 52.0131 21.3414C42.144 27.105 33.6528 34.9546 27.1331 44.3414C19.5068 55.1019 14.8881 67.7014 13.7531 80.8414C12.5131 94.8414 14.5831 108.311 20.8131 120.971C22.2531 123.901 22.7431 127.861 26.9131 128.771C25.2031 130.201 26.6131 131.311 27.3731 132.381C31.6012 138.485 36.7255 143.916 42.5731 148.491C46.1131 151.221 49.5131 154.301 54.1031 155.291C54.1631 156.291 54.8131 156.591 55.6531 156.991C60.7531 159.391 65.7931 161.991 71.7331 160.561C71.6631 164.371 74.3331 163.161 76.3731 163.091C76.6231 163.731 76.6731 164.661 77.6631 164.501C84.2131 163.431 90.6631 165.831 97.2331 164.851C105.37 163.747 113.34 161.644 120.963 158.591C124.873 156.971 128.123 154.321 131.793 152.351C138.313 148.841 143.443 143.631 148.563 138.451C153.433 133.511 155.783 126.851 159.863 121.331C161.423 119.211 161.283 116.131 163.043 113.851C163.37 113.333 163.494 112.713 163.39 112.109C163.287 111.505 162.964 110.961 162.483 110.581L164.673 107.711C166.283 107.701 166.423 105.271 168.193 105.571Z" fill="#555250"/>
<path d="M168.244 72.3412C170.257 79.37 170.751 86.7467 169.694 93.9812H166.824L166.714 93.7812C167.2 86.3299 166.798 78.8472 165.514 71.4912L168.244 72.3412Z" fill="#555250"/>
<path d="M168.243 72.3417L165.513 71.4917C163.933 68.6717 160.883 67.0117 159.613 63.9517L162.383 62.7617C164.173 63.7617 164.643 66.3817 167.073 66.6117C167.92 68.3992 168.322 70.3652 168.243 72.3417Z" fill="#555250"/>
<path d="M166.824 94.0015H169.694C169.685 97.9126 169.181 101.807 168.194 105.591C166.424 105.291 166.284 107.721 164.674 107.691C165.514 103.131 167.034 98.7015 166.824 94.0015Z" fill="#555250"/>
<path d="M143.144 18.0312C143.324 18.2512 143.714 18.6113 143.674 18.6613C143.254 19.2213 142.984 18.7813 142.674 18.4713L143.144 18.0312Z" fill="#7B7B7B"/>
<path d="M26.9132 128.772C22.7432 127.862 22.2532 123.902 20.8132 120.972C14.5832 108.312 12.5132 94.8115 13.7532 80.8415C14.8882 67.7015 19.5069 55.102 27.1332 44.3415C33.6529 34.9547 42.1441 27.1051 52.0132 21.3415C59.8732 16.7115 68.4832 13.1416 77.3732 12.0116C87.3132 10.7516 97.5632 10.4716 107.543 13.0616C108.933 13.4216 109.873 14.8316 111.463 14.5816C107.463 28.7916 103.623 43.0215 99.4632 57.1815C98.9632 58.8915 99.3432 59.0716 100.643 59.5816C102.426 60.2204 104.11 61.1092 105.643 62.2215C106.923 63.2215 107.503 62.8416 108.203 61.8216L133.203 25.3816C136.003 27.0816 140.313 26.8316 140.923 31.3816C131.393 42.0116 121.923 52.7115 112.253 63.2215C110.423 65.2215 110.913 66.1515 112.493 67.7415C114.553 69.8115 116.013 68.2315 117.493 67.1615C128.64 59.0415 139.773 50.8882 150.893 42.7016C152.766 43.495 154.277 44.9563 155.133 46.8015C156.748 50.357 158.672 53.7634 160.883 56.9815C161.543 57.8815 160.883 58.5516 161.023 59.3116C160.613 59.6205 160.145 59.8443 159.647 59.9696C159.149 60.095 158.631 60.1194 158.123 60.0415C155.713 58.4715 153.303 59.3616 150.973 60.1416C148.643 60.9216 146.783 61.0115 144.623 59.3715C141.323 56.8615 136.433 57.3715 133.213 59.9715C127.213 64.8015 122.863 71.4716 116.363 75.8216C115.534 74.1024 114.606 72.4329 113.583 70.8216C106.693 61.2516 93.2632 56.8216 81.7832 60.2516C70.3032 63.6816 61.6932 74.9615 61.2632 86.8015C60.5032 107.322 79.7831 121.702 99.4231 115.522C103.293 114.292 106.143 111.522 109.783 110.122C116.053 116.532 122.223 123.062 128.643 129.312C134.803 135.312 137.523 135.142 143.643 129.112C149.91 122.912 156.19 116.715 162.483 110.522C162.964 110.901 163.287 111.445 163.39 112.049C163.494 112.653 163.37 113.274 163.043 113.792C161.283 116.072 161.423 119.152 159.863 121.272C155.783 126.792 153.433 133.452 148.563 138.392C143.443 143.572 138.313 148.782 131.793 152.292C128.123 154.292 124.873 156.912 120.963 158.532C113.34 161.585 105.37 163.687 97.2331 164.792C90.6731 165.792 84.2332 163.372 77.6632 164.442C76.6632 164.602 76.6632 163.672 76.3732 163.032C76.5632 161.612 76.6932 160.172 76.9732 158.772C79.5532 145.965 82.1398 133.158 84.7331 120.352C84.9031 119.522 85.8032 118.352 84.4132 117.932C82.6732 117.382 82.8632 119.172 82.6432 119.932C80.6432 127.302 78.6432 134.722 76.6432 142.112C75.0032 148.232 73.3332 154.352 71.6432 160.462C65.7032 161.852 60.6432 159.292 55.5632 156.892C54.7232 156.492 54.0732 156.182 54.0132 155.192C54.3032 154.542 54.5532 153.862 54.8932 153.192C61.4432 141.192 67.9631 129.192 74.6131 117.192C75.6131 115.422 75.5331 114.632 73.6731 113.642C70.5601 112.114 67.9884 109.672 66.3032 106.642C65.0932 104.362 63.5931 104.272 61.6731 105.642C60.6731 106.342 59.6731 107.012 58.6731 107.642L26.9132 128.772Z" fill="#343434"/>
<path d="M26.9133 128.772L58.7833 107.832C59.7833 107.172 60.7833 106.502 61.7833 105.832C63.7033 104.452 65.2033 104.542 66.4133 106.832C68.0986 109.862 70.6702 112.305 73.7833 113.832C75.6433 114.832 75.7033 115.612 74.7233 117.382C68.0733 129.332 61.5533 141.382 55.0033 153.382C54.6633 154.012 54.4133 154.692 54.1233 155.382C49.5333 154.382 46.1233 151.312 42.5933 148.582C36.7487 144.018 31.6246 138.601 27.3933 132.512C26.6133 131.312 25.2033 130.202 26.9133 128.772Z" fill="#D2D2D2"/>
<path d="M133.253 25.4113L108.253 61.8513C107.553 62.8513 106.973 63.2713 105.693 62.2513C104.16 61.139 102.476 60.2501 100.693 59.6113C99.3929 59.1013 99.0129 58.9213 99.5129 57.2113C103.633 43.0513 107.513 28.8213 111.513 14.6113C119.333 16.1613 126.153 19.9513 132.783 24.1313C133.043 24.3313 133.083 24.9713 133.253 25.4113Z" fill="#D2D2D2"/>
<path d="M162.513 110.541C156.233 116.741 149.952 122.938 143.672 129.131C137.582 135.131 134.862 135.331 128.672 129.331C122.252 123.081 116.082 116.551 109.812 110.141C109.812 109.811 109.812 109.481 109.812 109.141C110.765 108.668 111.533 107.891 111.992 106.931C112.192 106.931 112.393 106.931 112.593 106.931C118.473 115.501 126.592 121.931 133.922 129.121C134.211 129.445 134.565 129.703 134.963 129.876C135.36 130.05 135.79 130.136 136.223 130.127C136.657 130.118 137.083 130.016 137.473 129.827C137.863 129.638 138.207 129.366 138.482 129.031C140.172 127.031 143.972 126.521 143.362 122.681C142.562 117.601 143.062 113.051 147.362 109.321C150.612 106.521 153.453 103.191 156.463 100.101C159.243 97.2514 161.713 93.2714 166.723 93.8214L166.833 94.0215C167.043 98.7215 165.492 103.151 164.682 107.691L162.513 110.541Z" fill="#343434"/>
<path d="M150.923 42.7014C139.789 50.8614 128.656 59.0147 117.523 67.1613C116.063 68.2313 114.603 69.8114 112.523 67.7414C110.943 66.1514 110.453 65.2113 112.283 63.2213C121.953 52.7113 131.423 42.0114 140.953 31.3814C142.953 30.9414 143.443 32.8113 144.443 33.7813C146.443 35.7813 148.323 37.8914 150.213 40.0014C150.913 40.7514 151.873 41.4914 150.923 42.7014Z" fill="#D2D2D2"/>
<path d="M71.7338 160.491C73.3838 154.381 75.0538 148.261 76.7338 142.141C78.7338 134.751 80.6338 127.331 82.7338 119.961C82.9538 119.161 82.7338 117.371 84.5038 117.961C85.8938 118.391 84.9938 119.551 84.8238 120.381C82.2438 133.194 79.6571 146.001 77.0638 158.801C76.7838 160.201 76.6538 161.641 76.4638 163.061C74.3338 163.121 71.6638 164.331 71.7338 160.491Z" fill="#D2D2D2"/>
<path d="M158.152 60.0415C158.66 60.1194 159.178 60.095 159.676 59.9696C160.174 59.8442 160.642 59.6205 161.052 59.3115C161.805 60.3232 162.258 61.5252 162.362 62.7815L159.592 63.9715C145.972 68.0515 132.462 72.4415 119.202 77.5815C117.632 76.4315 118.632 75.8715 119.742 75.4115C121.742 74.5815 123.742 73.8015 125.682 73.0015C126.092 73.0015 126.532 73.0015 126.452 72.3515C133.382 70.4515 139.892 67.4215 146.632 65.0215L158.152 60.0415Z" fill="#D2D2D2"/>
<path d="M119.204 77.5817C132.464 72.4417 145.974 68.0517 159.594 63.9717C160.864 67.0317 163.914 68.6917 165.494 71.5117C166.785 78.8669 167.194 86.3496 166.714 93.8017C161.714 93.2517 159.234 97.2317 156.454 100.082C153.454 103.172 150.604 106.502 147.354 109.302C143.014 113.032 142.514 117.582 143.354 122.662C143.964 126.502 140.164 126.962 138.474 129.012C138.199 129.347 137.854 129.618 137.464 129.807C137.074 129.996 136.648 130.099 136.215 130.107C135.781 130.116 135.351 130.03 134.954 129.857C134.557 129.683 134.202 129.426 133.914 129.102C126.614 121.882 118.464 115.482 112.584 106.912C115.203 103.52 117.114 99.6363 118.204 95.4917C119.434 90.6817 120.334 85.7417 117.704 81.0017C117.794 80.5417 117.884 80.0817 117.984 79.6217C119.244 79.4917 119.244 78.4917 119.204 77.5817ZM127.084 90.9817C127.084 98.3217 133.004 104.782 139.804 104.782C141.63 104.797 143.441 104.453 145.134 103.767C146.827 103.082 148.367 102.069 149.668 100.787C150.969 99.5053 152.003 97.9792 152.713 96.2966C153.423 94.614 153.793 92.8078 153.804 90.9817C153.804 84.2817 147.804 78.0917 141.144 78.0517C133.014 78.0017 127.124 83.4117 127.084 90.9817Z" fill="#343434"/>
<path d="M109.762 109.152C109.762 109.482 109.762 109.812 109.762 110.152C106.122 111.572 103.272 114.322 99.4025 115.552C79.7625 121.732 60.4825 107.352 61.2425 86.8319C61.6725 74.9919 70.4225 63.6718 81.7625 60.2818C93.1025 56.8918 106.672 61.2818 113.562 70.8518C114.585 72.4632 115.514 74.1327 116.342 75.8518C116.542 76.3718 116.732 76.8518 116.922 77.4118C113.832 77.8718 112.782 80.8018 110.822 82.5918C106.882 86.1818 106.452 90.5918 109.202 95.1018C109.904 96.0824 110.331 97.2328 110.438 98.4337C110.545 99.6347 110.329 100.842 109.812 101.932C109.245 103.049 108.945 104.283 108.936 105.536C108.928 106.789 109.21 108.027 109.762 109.152ZM90.1724 84.7918C88.4924 85.3918 86.8125 86.0319 86.8225 88.0819C86.7988 88.5371 86.8736 88.9921 87.0417 89.4157C87.2098 89.8394 87.4674 90.2218 87.7967 90.537C88.1261 90.8521 88.5195 91.0925 88.9502 91.2417C89.3809 91.391 89.8388 91.4456 90.2925 91.4018C90.7481 91.4268 91.2036 91.3519 91.6272 91.1823C92.0507 91.0127 92.4321 90.7526 92.7446 90.4201C93.0571 90.0876 93.293 89.6909 93.4361 89.2576C93.5791 88.8243 93.6256 88.365 93.5725 87.9118C93.4225 85.8918 91.7724 85.2918 90.1724 84.7918Z" fill="#77ACB6"/>
<path d="M116.973 77.3814C116.783 76.8614 116.593 76.3814 116.393 75.8214C122.893 71.4714 127.203 64.8213 133.243 59.9713C136.463 57.3913 141.353 56.8614 144.653 59.3714C146.813 61.0114 148.653 60.9214 151.003 60.1414C153.353 59.3614 155.743 58.4714 158.153 60.0414L146.613 65.0414C145.255 63.569 143.529 62.4851 141.613 61.9013C140.113 61.3513 138.453 60.1213 136.883 61.4013C132.943 64.6113 128.883 67.7313 126.433 72.4013L125.663 73.0514C123.663 73.8514 121.663 74.6313 119.723 75.4613C118.613 75.9213 117.613 76.4614 119.183 77.6314C119.183 78.5814 119.183 79.4914 117.963 79.6314L116.973 77.3814Z" fill="#343434"/>
<path d="M117.704 80.9814C120.334 85.7214 119.434 90.6614 118.204 95.4714C117.095 99.6285 115.16 103.519 112.514 106.911C112.314 106.911 112.114 106.911 111.914 106.911C111.699 105.598 111.939 104.25 112.594 103.091C114.524 99.5114 113.593 96.3015 111.803 92.9915C109.313 88.4015 112.254 82.5514 117.704 80.9814Z" fill="#77ACB6"/>
<path d="M117.704 80.9818C112.254 82.5518 109.314 88.4018 111.834 92.9818C113.634 96.2918 114.554 99.5018 112.624 103.082C111.969 104.241 111.729 105.588 111.944 106.902C111.484 107.861 110.717 108.639 109.764 109.112C109.215 107.979 108.938 106.734 108.955 105.475C108.972 104.216 109.284 102.979 109.864 101.862C110.381 100.772 110.596 99.5646 110.489 98.3637C110.382 97.1628 109.955 96.0124 109.254 95.0318C106.504 90.5318 106.934 86.1119 110.874 82.5219C112.874 80.7319 113.874 77.8018 116.974 77.3418L117.974 79.5618C117.884 80.0618 117.794 80.4918 117.704 80.9818Z" fill="#77ACB6"/>
<path d="M126.434 72.3918C128.884 67.7518 132.944 64.6318 136.884 61.3918C138.454 60.1118 140.114 61.3918 141.614 61.8918C143.53 62.4755 145.256 63.5593 146.614 65.0317C139.874 67.4917 133.364 70.4918 126.434 72.3918Z" fill="#343434"/>
<path d="M125.684 73.0016L126.454 72.3516C126.514 72.9616 126.094 72.9616 125.684 73.0016Z" fill="#343434"/>
<path d="M127.084 90.9814C127.084 83.4114 133.014 77.9815 141.174 78.0515C147.824 78.0515 153.884 84.2814 153.834 90.9814C153.824 92.8076 153.453 94.6137 152.743 96.2963C152.034 97.9789 150.999 99.505 149.698 100.787C148.398 102.069 146.857 103.082 145.164 103.767C143.472 104.453 141.66 104.797 139.834 104.781C133.004 104.781 127.044 98.3214 127.084 90.9814Z" fill="#343434"/>
<path d="M90.1726 84.7915C91.7726 85.2915 93.4226 85.8915 93.5726 87.9115C93.6258 88.3647 93.5792 88.824 93.4362 89.2573C93.2932 89.6905 93.0572 90.0873 92.7448 90.4197C92.4323 90.7522 92.0509 91.0124 91.6273 91.1819C91.2037 91.3515 90.7483 91.4265 90.2927 91.4015C89.8389 91.4452 89.3811 91.3906 88.9504 91.2414C88.5197 91.0921 88.1262 90.8517 87.7969 90.5366C87.4675 90.2215 87.21 89.8391 87.0419 89.4154C86.8737 88.9917 86.799 88.5368 86.8226 88.0815C86.8126 86.0315 88.5126 85.3915 90.1726 84.7915Z" fill="#343434"/>
</svg>
