<svg width="148" height="175" viewBox="0 0 148 175" fill="none" xmlns="http://www.w3.org/2000/svg">
<path d="M139.741 109.731C141.191 111.181 139.991 112.271 139.241 113.421C138.921 113.551 138.351 113.651 138.331 113.811C137.651 119.421 136.941 125.041 136.461 130.671C136.361 131.831 137.151 130.891 137.541 130.671C137.751 134.141 136.99 137.501 136.37 140.881C134.98 141.051 135.191 142.221 135.161 143.061C135.02 147.037 134.45 150.987 133.461 154.841C133.321 155.391 132.911 156.031 133.071 156.481C134.251 159.741 132.32 159.261 130.37 158.811C130.531 158.011 130.561 157.301 129.37 157.701C116.37 162.171 102.731 163.971 89.8006 168.291C79.2581 172.008 67.7228 171.759 57.3505 167.591C45.4105 163.061 32.9905 159.791 20.7305 156.101C16.3705 154.791 13.5905 152.201 13.0005 147.651C12.3705 142.891 12.0005 138.091 11.4705 133.311C9.13054 111.311 6.5505 89.3108 4.5605 67.3108C3.5605 56.0208 0.56052 44.4008 7.14052 33.6308C7.27052 31.8508 10.3005 30.8508 8.54054 28.3308C8.39054 28.1108 11.2806 27.2408 12.8606 28.1708C15.2606 29.0908 18.3406 25.9808 17.9306 23.0508C18.2306 20.9608 22.0005 20.7208 20.8205 17.6908C20.7405 17.4808 22.2505 17.8108 22.9405 18.2408C22.6205 19.1708 21.9405 20.5108 23.9405 19.3908C28.6047 16.5714 34.1374 15.5509 39.5005 16.5208C40.5905 16.7208 41.7605 16.8108 41.8105 15.1408C42.6105 14.9508 43.5005 14.8408 43.2905 13.6508C46.3605 12.5708 49.4805 11.5908 52.5005 10.3708C52.9999 10.1654 53.4255 9.81391 53.7218 9.36246C54.018 8.91101 54.1709 8.38064 54.1605 7.84079C54.7405 7.92079 54.9405 7.61078 54.9205 7.08078C55.271 7.02607 55.6094 6.91107 55.9205 6.74081C64.0305 0.110814 72.6705 -1.01923 81.9205 4.19077C82.7206 4.63077 83.5105 5.3708 84.5905 4.9108H84.5305C84.2305 6.2008 85.0305 6.3908 86.0205 6.4108L85.9605 6.3508C86.2905 7.0408 86.4305 8.0308 87.3605 8.0408C88.0705 8.0408 87.7705 7.15077 88.0205 6.70078C88.2505 5.86077 87.8705 4.70079 89.1205 4.40079C89.9805 4.21079 90.2905 5.0008 90.6505 5.6008C91.2505 6.6008 91.6505 7.60077 92.6505 5.76077C93.4905 4.32077 94.3505 4.96078 94.6505 6.39078C97.6505 8.68078 101.541 8.39077 104.791 10.0108C104.962 10.5228 105.312 10.956 105.777 11.2314C106.241 11.5068 106.789 11.6059 107.321 11.5108C109.671 12.3108 111.831 13.2908 112.001 16.2408C111.821 17.0208 111.871 17.7008 112.771 18.0008C112.851 18.4208 112.641 19.1408 113.531 18.7408C113.611 19.0208 113.681 19.5408 113.791 19.5508C117.791 19.9108 121.401 21.7308 125.111 23.1108H125.051C125.067 23.2787 125.126 23.4397 125.221 23.5789C125.316 23.718 125.445 23.8309 125.596 23.9067C125.747 23.9826 125.914 24.019 126.083 24.0127C126.252 24.0064 126.416 23.9576 126.561 23.8708C126.381 24.5508 126.561 24.8708 127.321 24.6208C127.368 25.3807 127.69 26.0975 128.228 26.6369C128.765 27.1762 129.481 27.5012 130.241 27.5508C130.691 31.4508 133.331 33.1708 136.771 34.0908C136.971 34.9408 137.311 35.5008 138.261 34.8408C137.721 36.3608 138.591 36.4808 139.741 36.3208C139.251 37.1908 139.741 37.5608 140.491 37.8208V37.7708C145.331 45.2508 145.491 53.5008 144.741 62.0308L145.491 60.1908C147.831 60.6708 146.87 61.7808 146.061 62.9508C144.781 64.8108 144.821 64.8208 146.941 65.5608C147.211 65.6508 147.561 66.0108 147.561 66.2508C147.611 67.8708 145.761 67.0008 145.141 68.1708C145.821 69.4708 148.561 69.7708 147.62 72.1708C146.93 73.9008 145.371 72.9708 144.201 73.2308C144.141 72.8808 144.201 72.3408 143.981 72.2308C143.131 71.6908 142.981 72.4708 142.921 73.0108C142.567 76.0974 142.254 79.1908 141.981 82.2908C141.891 83.2208 142.461 83.2108 143.111 82.9008C143.236 83.339 143.262 83.7995 143.188 84.2491C143.113 84.6987 142.94 85.1262 142.681 85.5008C140.451 89.4308 140.261 93.5908 141.231 97.9008L141.021 99.6308C138.851 103.031 139.481 106.841 139.401 110.551L139.741 109.731ZM39.5005 154.021C42.8005 154.841 45.8205 156.581 49.2505 157.021C49.7705 157.881 50.7805 157.531 51.4805 157.921C57.4205 159.801 63.3905 161.571 69.2905 163.581C72.0047 164.521 74.9399 164.619 77.7105 163.861C92.0105 160.211 106.321 156.611 120.611 152.961C127.241 151.261 127.081 151.211 127.771 144.391C129.771 124.671 131.991 104.961 133.951 85.2408C135.077 73.7941 136.014 62.3308 136.761 50.8508C137.161 44.5808 134.131 40.6008 128.261 38.5608C127.401 38.2608 126.581 38.3008 126.141 37.0608C123.721 30.2608 118.651 27.1608 111.571 26.8708C110.568 26.9219 109.576 26.6544 108.735 26.1065C107.894 25.5585 107.248 24.7584 106.891 23.8208C103.101 15.3108 94.5605 12.4908 86.2305 16.9208C84.5905 17.7908 84.1805 17.4408 83.3006 16.0708C76.5506 5.60077 64.4205 5.60077 57.8505 16.0708C57.6143 16.5984 57.2247 17.0428 56.7324 17.346C56.2402 17.6492 55.6681 17.7972 55.0905 17.7708C52.9794 17.7659 50.9044 18.3181 49.0748 19.3716C47.2453 20.425 45.7261 21.9425 44.6705 23.7708C43.7305 25.2908 43.0605 25.2608 41.5705 24.6408C33.8205 21.3808 25.7306 24.4808 22.2406 32.0008C21.98 32.7792 21.5257 33.4786 20.9204 34.0332C20.3152 34.5877 19.5788 34.9792 18.7805 35.1708C17.0851 35.5687 15.5219 36.3999 14.2441 37.5831C12.9662 38.7663 12.0175 40.2609 11.4906 41.9208C11.2806 42.3908 11.0605 42.9208 10.8505 43.3508C10.7705 45.1408 10.6705 46.9408 10.6305 48.7408C10.4205 57.2708 11.9805 65.6508 12.8405 74.0908C15.2605 97.8508 17.6739 121.614 20.0805 145.381C20.1024 146.293 20.4164 147.173 20.9762 147.893C21.5361 148.613 22.3122 149.135 23.1905 149.381C25.0005 149.981 26.8805 150.381 28.7305 150.811C32.1242 152.454 35.761 153.538 39.5005 154.021ZM47.5005 161.541C47.4267 161.264 47.3227 160.995 47.1905 160.741C47.1905 160.681 46.8305 160.811 46.6305 160.851C46.7146 161.174 46.8355 161.486 46.9906 161.781C47.1406 162.061 47.3505 161.991 47.4805 161.541H47.5005Z" fill="#F6F6F6"/>
<path d="M20.38 160.151C19.4512 159.491 18.357 159.103 17.22 159.031C12.49 156.751 10.17 153.081 9.65002 147.761C7.22002 122.821 4.55 97.8906 2 72.9606C1.24 65.4506 0 57.9606 0 50.4106C0 43.8206 1.67004 37.8906 7.17004 33.6206C0.560044 44.3906 3.57003 56.0107 4.59003 67.3007C6.59003 89.3007 9.16 111.301 11.5 133.301C12.01 138.081 12.4 142.881 13.03 147.641C13.62 152.191 16.4 154.781 20.76 156.091C33.02 159.781 45.44 163.091 57.38 167.581C67.7523 171.749 79.2876 171.998 89.83 168.281C102.76 163.961 116.45 162.161 129.4 157.691C130.58 157.291 130.55 158.001 130.4 158.801C127.13 161.801 122.95 162.401 118.89 163.401C104.28 167.001 89.64 170.541 75.07 174.321C69.77 175.691 65.18 173.521 60.4 172.191C54.66 170.591 48.97 168.771 43.26 167.051C41.4797 165.836 39.3648 165.207 37.21 165.251L27.4301 162.201L23.75 161.201C22.7604 160.514 21.5843 160.148 20.38 160.151Z" fill="#555250"/>
<path d="M84.4297 5.0906C83.3497 5.5506 82.5597 4.81057 81.7597 4.37057C72.4797 -0.839428 63.8397 0.29062 55.7597 6.92062C55.4485 7.09087 55.1102 7.20588 54.7597 7.26059C54.3497 6.36059 55.1097 5.96061 55.5997 5.53061C59.5689 2.043 64.6506 0.0832211 69.9337 0.00259069C75.2168 -0.0780398 80.356 1.72575 84.4297 5.0906Z" fill="#7B7B7B"/>
<path d="M41.7995 15.1504C41.7995 16.8204 40.5795 16.7304 39.4895 16.5304C34.1155 15.556 28.5706 16.5803 23.8995 19.4104C21.8995 20.5304 22.5995 19.1904 22.8995 18.2604C22.8983 18.1315 22.8781 18.0034 22.8395 17.8804L23.0995 17.9404H23.3795C29.2995 15.3104 35.4695 14.7404 41.7995 15.1504Z" fill="#7B7B7B"/>
<path d="M133.459 154.841C134.449 150.987 135.019 147.037 135.159 143.061C135.159 142.221 134.979 141.061 136.369 140.881C136.049 144.331 135.819 147.791 135.369 151.231C135.189 152.581 135.029 154.151 133.459 154.841Z" fill="#7B7B7B"/>
<path d="M54.0594 7.95068C54.0698 8.49053 53.9169 9.02096 53.6207 9.47241C53.3245 9.92386 52.8988 10.2753 52.3995 10.4807C49.3995 11.7007 46.2595 12.6807 43.1895 13.7607C43.9995 12.2807 45.5295 11.7607 46.9395 11.3107C49.4895 10.5207 51.6394 8.98068 54.0594 7.95068Z" fill="#7B7B7B"/>
<path d="M124.9 23.1508C121.19 21.7708 117.62 19.9508 113.58 19.5908C113.47 19.5908 113.4 19.0608 113.32 18.7808C117.56 19.1508 121.83 19.5108 124.9 23.1508Z" fill="#7B7B7B"/>
<path d="M104.64 10.1508C101.39 8.56076 97.49 8.82076 94.5 6.53076C98.16 6.93076 101.99 6.88076 104.64 10.1508Z" fill="#7B7B7B"/>
<path d="M17.9001 23.0708C18.3101 26.0008 15.2301 29.0708 12.8301 28.1908C15.1101 27.0308 15.9701 24.4908 17.9001 23.0708Z" fill="#725852"/>
<path d="M136.411 33.9805C132.971 33.0605 130.331 31.3404 129.881 27.4404L136.411 33.9805Z" fill="#7B7B7B"/>
<path d="M129.9 27.4808C129.141 27.4311 128.425 27.1062 127.887 26.5669C127.35 26.0276 127.028 25.3108 126.98 24.5508C127.679 24.7448 128.315 25.1167 128.827 25.6303C129.339 26.1439 129.709 26.7815 129.9 27.4808Z" fill="#7B7B7B"/>
<path d="M87.8998 6.8407C87.6498 7.2907 87.8999 8.19073 87.2399 8.18073C86.3099 8.18073 86.1698 7.18072 85.8398 6.49072L87.8998 6.8407Z" fill="#7B7B7B"/>
<path d="M107.12 11.6109C106.588 11.7061 106.04 11.6069 105.576 11.3315C105.111 11.0561 104.761 10.6229 104.59 10.1109C105.98 9.68092 106.57 10.6209 107.12 11.6109Z" fill="#7B7B7B"/>
<path d="M43.2304 13.7207C43.4404 14.9107 42.5504 15.0207 41.7504 15.2107C41.4804 13.9507 42.3704 13.8407 43.2304 13.7207Z" fill="#7B7B7B"/>
<path d="M85.9001 6.55065C84.9001 6.55065 84.1101 6.34065 84.4101 5.05065C85.5901 4.83065 86.1001 5.31065 85.9001 6.55065Z" fill="#7B7B7B"/>
<path d="M23.4292 17.911H23.1492L22.8892 17.851C22.7992 17.431 22.6691 17.0009 22.6191 16.5709C22.6191 16.5109 23.0492 16.281 23.1492 16.341C23.8192 16.761 23.5892 17.351 23.4292 17.911Z" fill="#F6F6F6"/>
<path d="M126.311 23.8708C126.166 23.9576 126.002 24.0065 125.833 24.0127C125.665 24.019 125.497 23.9826 125.346 23.9067C125.196 23.8309 125.067 23.7181 124.971 23.5789C124.876 23.4397 124.817 23.2788 124.801 23.1108C125.601 22.7708 126.041 23.1508 126.311 23.8708Z" fill="#7B7B7B"/>
<path d="M112.57 18.1506C111.67 17.8506 111.62 17.1506 111.8 16.3906C112.36 16.8006 113.32 17.0706 112.57 18.1506Z" fill="#7B7B7B"/>
<path d="M113.299 18.8006C112.409 19.2006 112.619 18.4805 112.539 18.0605C113.409 17.6705 113.239 18.3506 113.299 18.8006Z" fill="#7B7B7B"/>
<path d="M127.02 24.5806C126.23 24.8706 126.08 24.5106 126.26 23.8306C126.81 23.7806 127.05 24.0506 127.02 24.5806Z" fill="#7B7B7B"/>
<path d="M54.7897 7.22077C54.7897 7.75077 54.6097 8.06078 54.0297 7.98078C53.8097 7.25078 54.0797 7.02077 54.7897 7.22077Z" fill="#7B7B7B"/>
<path d="M11.4902 41.9304C12.0172 40.2706 12.9659 38.7759 14.2438 37.5927C15.5216 36.4095 17.0848 35.5783 18.7802 35.1804C19.5784 34.9888 20.3148 34.5973 20.9201 34.0428C21.5254 33.4883 21.9797 32.7888 22.2402 32.0104C25.7302 24.4904 33.8202 21.3904 41.5702 24.6504C43.0602 25.2704 43.7302 25.3004 44.6702 23.7804C45.7258 21.9521 47.245 20.4346 49.0745 19.3812C50.904 18.3277 52.9791 17.7755 55.0902 17.7804C55.6677 17.8068 56.2399 17.6587 56.7321 17.3555C57.2244 17.0523 57.6139 16.608 57.8502 16.0804C64.4202 5.59039 76.5502 5.59039 83.3002 16.0804C84.1802 17.4504 84.5902 17.8004 86.2302 16.9304C94.5602 12.5004 103.1 15.3204 106.89 23.8304C107.248 24.768 107.894 25.5682 108.734 26.1161C109.575 26.664 110.568 26.9316 111.57 26.8804C118.65 27.1704 123.72 30.2704 126.14 37.0704C126.58 38.3104 127.4 38.2704 128.26 38.5704C134.13 40.5704 137.16 44.5704 136.76 50.8604C136.02 62.3338 135.084 73.797 133.95 85.2504C131.95 104.97 129.77 124.68 127.77 144.4C127.08 151.22 127.24 151.27 120.61 152.97C106.32 156.62 92.0102 160.22 77.7102 163.87C74.9395 164.628 72.0044 164.531 69.2902 163.59C63.3902 161.59 57.4202 159.81 51.4802 157.93C51.8702 157.04 52.2502 156.15 52.6302 155.27C54.8002 155.84 57.0002 156.33 59.1302 157.03C60.4102 157.45 61.4902 158.81 62.9702 157.54L64.2502 158.23C65.5502 160.56 67.8202 159.3 69.6502 159.7C70.0902 160.49 70.7902 161.16 71.6502 160.7C72.5102 160.24 72.0602 159.19 72.0602 158.42C72.0602 129.96 72.0269 101.504 71.9602 73.0504C72.2491 72.9888 72.5491 73.0044 72.83 73.0957C73.1109 73.187 73.3627 73.3507 73.5602 73.5704C73.5602 74.4104 73.6302 75.2404 73.6602 76.0804C73.6602 104.38 73.6602 132.684 73.6602 160.99C75.7202 163.67 78.5202 163.17 80.8102 159.72L82.1602 159.55C84.2802 159.41 83.5002 157.75 83.6802 156.61C84.1302 153.79 82.7502 150.79 84.5402 148.11C84.5402 149.42 84.6002 150.74 84.5402 152.06C84.4202 158.68 84.3702 158.48 90.9002 157.12C93.8102 156.51 95.0502 155.37 94.9002 152.44C94.895 150.77 94.9785 149.101 95.1502 147.44C95.6302 137.967 96.1035 128.5 96.5702 119.04C96.6235 126.82 96.6702 134.597 96.7102 142.37C96.7102 146.65 96.7102 150.934 96.7102 155.22C98.9002 157.99 101.77 157.44 103.83 153.85C104.126 153.898 104.429 153.856 104.7 153.73C104.971 153.603 105.197 153.398 105.35 153.14C107.43 153.51 109.35 152.69 111.17 152.06C112.99 151.43 115.41 152.2 116.17 149.58C118.36 151.19 120.54 152.43 122.65 149.45C123.261 149.217 123.788 148.807 124.164 148.273C124.54 147.738 124.747 147.104 124.76 146.45C124.96 143.45 125.3 140.45 125.59 137.51C127.42 119.38 129.33 101.26 131.03 83.1204C131.89 73.9704 133.53 64.8904 133.52 55.6504C134.72 54.5404 134.08 53.1204 134.18 51.8204C133.8 46.1604 131.98 41.6804 125.38 41.1704C124 41.0704 124.09 39.9104 123.83 39.0804C121.96 33.2504 118.13 30.2904 111.89 30.0204C108.56 29.8704 105.66 29.1904 104.07 24.9604C101.35 17.6704 92.1902 15.6704 86.4602 20.4304C83.0102 23.2904 83.0102 23.2904 81.4602 19.1804C80.7116 17.0144 79.3312 15.1222 77.4971 13.7479C75.6631 12.3737 73.4594 11.5805 71.1702 11.4704C66.1002 11.2804 62.3502 13.5404 60.2602 18.0404C59.8002 19.2404 59.3302 20.4404 58.8702 21.6504C52.0002 19.5604 46.9402 22.6504 46.0702 29.4604C45.983 29.5353 45.9142 29.6293 45.8691 29.7351C45.8241 29.8409 45.8039 29.9556 45.8102 30.0704C45.43 30.2465 45.0022 30.292 44.5935 30.1997C44.1848 30.1075 43.818 29.8827 43.5502 29.5604C37.5502 23.2504 25.7902 26.8704 23.8102 35.7904C23.7915 36.0579 23.7192 36.3189 23.5976 36.5579C23.476 36.7969 23.3075 37.0091 23.1023 37.1816C22.897 37.3542 22.6592 37.4838 22.4028 37.5626C22.1465 37.6414 21.877 37.6679 21.6102 37.6404C19.4702 37.5904 17.8402 38.9304 16.0702 39.8504C13.9902 39.3304 13.7202 42.7804 11.4902 41.9304Z" fill="#555250"/>
<path d="M28.7306 150.781C26.8806 150.311 25.0006 149.951 23.1906 149.351C22.3123 149.105 21.5361 148.584 20.9763 147.863C20.4164 147.143 20.1025 146.263 20.0806 145.351C17.7006 121.584 15.2873 97.8208 12.8406 74.0608C11.9806 65.6208 10.4206 57.2408 10.6306 48.7108C10.6306 46.9108 10.7706 45.1108 10.8506 43.3208C12.0406 44.9308 11.4206 46.7808 11.3906 48.4908C11.3606 50.2008 11.9706 51.4908 13.6606 52.0208C13.8006 53.6008 13.0806 55.3108 14.3806 56.7108C13.4806 62.0608 15.5106 67.1408 15.8606 72.3908C16.6106 83.4808 17.8606 94.5308 19.0806 105.581C20.5006 118.761 22.4406 131.891 23.0006 145.161C22.6106 149.161 25.6606 147.751 27.6006 148.031C30.0006 148.361 30.2306 146.901 30.2806 145.031C30.3506 142.701 29.6306 140.291 30.7706 138.031C31.0906 141.621 31.4206 145.211 31.7706 148.791C30.2606 148.721 29.0006 149.011 28.7306 150.781Z" fill="#555250"/>
<path d="M13.6596 52.0608C11.9696 51.4808 11.3596 50.3508 11.3896 48.5308C11.4196 46.7108 12.0396 44.9708 10.8496 43.3608C11.0596 42.8808 11.2796 42.3608 11.4896 41.9308C13.7196 42.7808 13.9896 39.3308 16.0596 39.8408C15.3984 40.8293 14.7877 41.8506 14.2296 42.9008C12.7896 45.9008 13.4796 49.7108 15.5996 50.9008C32.5996 57.0908 49.5996 63.2008 66.5296 69.5108C70.9296 71.1508 74.9996 71.7908 79.6696 70.2108C89.0896 67.0308 98.6696 64.3908 108.21 61.5308C108.21 61.9908 108.21 62.4508 108.26 62.9108C107.08 63.8208 105.63 63.9608 104.26 64.3908C102.51 64.9308 100.44 65.0508 99.6096 67.1708L98.0596 66.4908C94.0596 67.5508 89.8996 68.2908 86.3796 70.7408L84.9596 70.8008C80.8796 70.5408 77.3896 72.8008 73.5596 73.5408C73.3621 73.3211 73.1103 73.1574 72.8294 73.0661C72.5485 72.9748 72.2485 72.9592 71.9596 73.0208C68.8896 72.1508 66.1196 70.3108 62.8296 70.1008L61.2896 70.7708C61.1296 70.3408 61.0996 69.6908 60.7896 69.5108C57.4496 67.5108 53.6596 66.5108 50.0396 65.2108C48.4596 64.6408 49.4696 66.5508 49.0396 67.2108H47.6596C47.8796 64.9708 46.9396 63.6908 44.6596 63.1508C42.3796 62.6108 40.3396 61.7808 38.1796 61.0808L36.2796 60.7108C32.9296 59.3308 29.5196 58.0708 26.2796 56.5308C23.7296 55.3308 23.6296 56.6908 23.7396 58.5308C22.6196 57.8808 23.4996 56.2808 22.3696 55.6408C19.7896 53.5208 16.5696 53.1508 13.6596 52.0608Z" fill="#625735"/>
<path d="M52.6307 155.231C52.2507 156.111 51.8708 157.001 51.4808 157.891C50.7808 157.501 49.7707 157.891 49.2507 156.991L48.0508 153.991C49.7508 153.921 50.5508 153.151 50.4808 151.331C50.3408 147.571 50.3408 143.801 50.2808 140.041L50.3907 134.351L51.8408 135.771C51.9008 142.271 53.2407 148.711 52.6307 155.231Z" fill="#555250"/>
<path d="M28.7305 150.781C29.0005 149.011 30.2605 148.721 31.7305 148.781L40.5804 151.441C39.5804 152.031 39.5805 153.061 39.4905 154.021C35.7527 153.527 32.1192 152.433 28.7305 150.781Z" fill="#555250"/>
<path d="M39.5 154.021C39.63 153.021 39.58 152.021 40.59 151.441C41.75 151.861 42.04 151.311 41.9 150.271L43.21 150.201C44.496 151.836 46.1559 153.14 48.05 154.001L49.25 157.001C45.82 156.581 42.8 154.841 39.5 154.021Z" fill="#555250"/>
<path d="M47.4794 161.541C47.3494 161.991 47.1394 162.061 46.9694 161.781C46.8143 161.486 46.6935 161.174 46.6094 160.851C46.8094 160.851 47.1394 160.681 47.1694 160.741C47.3016 160.995 47.4055 161.264 47.4794 161.541Z" fill="#D2D2D2"/>
<path d="M108.211 61.5508C98.6808 64.4108 89.0908 67.0508 79.6708 70.2308C75.0008 71.8108 70.9308 71.1708 66.5308 69.5308C49.5908 63.2208 32.5308 57.1108 15.6008 50.9208C14.4808 43.7808 14.6008 42.8508 19.2308 41.3808C22.4708 40.3808 24.1608 37.9708 25.4708 35.3808C28.3008 29.9208 35.4708 27.4508 40.5708 30.8708C42.1321 31.925 43.9498 32.5366 45.8308 32.6408C45.8808 37.7508 45.5608 42.7208 40.2608 45.6408C46.8108 43.8008 48.4008 39.8908 45.8108 32.6408C45.8108 31.7608 45.8108 30.8808 45.8108 30.0008C45.8045 29.886 45.8247 29.7713 45.8697 29.6655C45.9148 29.5597 45.9836 29.4657 46.0708 29.3908C46.4008 29.3308 46.9908 29.3908 47.0708 29.2008C48.6708 24.4508 52.1708 23.2008 56.7808 23.7008C58.1008 23.8508 59.1308 23.2208 58.8908 21.5808C59.3508 20.3708 59.8208 19.1708 60.2908 17.9708C61.8865 17.2888 63.4393 16.5107 64.9408 15.6408C69.2908 12.7808 75.7708 13.8208 78.6708 18.1108C79.5208 19.3608 79.8008 20.9708 80.5408 22.3108C82.1808 25.3108 83.9908 25.5708 86.3808 23.1408C87.1308 22.3908 87.6308 21.4108 88.7408 21.0408C93.7408 19.4008 102.421 23.0408 103.741 28.0408C104.741 31.9308 107.191 32.3008 110.181 32.4408C116.581 32.7508 120.621 35.3908 122.591 41.3708C123.271 43.3708 124.191 43.9008 126.091 44.0408C129.861 44.3308 132.891 48.4308 132.161 51.9508L132.091 52.0208C131.291 52.7008 131.511 53.6208 131.521 54.4908L120.651 57.8808L108.211 61.5508ZM96.6808 56.3808L96.5008 56.6608L96.6408 56.3308C97.1308 56.3308 97.4508 56.1808 97.3708 55.6208C98.4308 55.9608 98.8908 55.1308 99.3708 54.5208C102.171 51.2608 102.021 45.7008 98.5208 40.3708C100.091 46.1808 100.451 51.1108 97.3608 55.6408L96.6808 56.3808ZM77.1408 45.5308L77.2808 45.6308L77.1108 45.5608C76.4108 41.4708 73.0208 39.8008 67.2308 41.1408C71.1108 42.2008 74.9008 42.2208 77.1408 45.5308ZM49.7208 42.6308C49.2308 41.9808 48.7208 41.7108 47.7908 42.4608L49.6108 42.7808C53.4208 46.9008 58.4908 50.2508 57.8408 57.0308C59.5108 50.4408 56.3708 45.0408 49.7208 42.6308ZM102.721 34.9508C99.1008 38.6708 94.5208 39.6108 89.4808 39.2108C95.3608 41.7008 100.181 40.3208 103.321 35.5608C104.101 34.8408 104.831 34.0908 104.411 32.8108C103.431 33.2508 103.161 34.1508 102.731 34.9508H102.721ZM75.4908 31.7608C69.4908 33.3508 65.0308 30.5708 60.8808 26.7008C65.0008 33.1508 69.4008 34.6408 75.5008 31.7608H75.4908ZM111.681 45.1508C114.541 46.8808 117.381 47.7808 120.101 45.1508C117.281 45.8208 114.481 44.7608 111.681 45.1508ZM76.8308 31.1508L76.5408 31.3808C76.6208 31.4608 76.7008 31.6008 76.7908 31.6008C76.8808 31.6008 76.9708 31.4808 77.0608 31.4008L76.8308 31.1508ZM78.0308 30.6508L78.2308 30.7408V30.5908L78.0308 30.6508Z" fill="#F7ED69"/>
<path d="M116.15 149.541C115.42 152.161 112.9 151.431 111.15 152.021C109.4 152.611 107.41 153.471 105.33 153.101C105.8 146.991 106.33 140.891 106.73 134.781C108.223 111.448 109.673 88.0909 111.08 64.7109C111.18 63.0409 111.66 62.0809 113.34 61.7109C116.45 60.9409 119.53 60.0509 122.63 59.2109C122.816 59.2991 123.015 59.3532 123.22 59.3709C122.83 75.6509 120.46 91.7809 119.34 108.001C118.49 120.441 116.78 132.811 116.34 145.291L116.19 148.081L116.15 149.541Z" fill="#F6F6F6"/>
<path d="M52.63 155.231C53.24 148.711 51.94 142.23 51.84 135.78C51.08 112.91 50.55 90.0305 49 67.1905C49.47 66.5705 48.46 64.6605 50 65.1905C53.62 66.5005 57.41 67.4705 60.75 69.4905C61.06 69.6705 61.09 70.3205 61.25 70.7505L62.9301 157.46C61.4501 158.73 60.37 157.37 59.09 156.95C57 156.29 54.8 155.801 52.63 155.231Z" fill="#F6F6F6"/>
<path d="M86.3807 70.7607C89.9007 68.3107 94.0407 67.5707 98.0607 66.5107C98.1107 67.3407 98.2107 68.1707 98.1807 69.0007C97.6607 85.6674 97.124 102.334 96.5707 119.001C96.104 128.474 95.6307 137.941 95.1507 147.401C94.979 149.062 94.8955 150.731 94.9007 152.401C95.0707 155.331 93.8307 156.471 90.9007 157.081C84.3707 158.441 84.4207 158.641 84.5407 152.021C84.5407 150.701 84.5407 149.381 84.5407 148.021C84.5407 146.661 84.8907 145.671 84.9207 144.491C85.1207 135.841 85.2807 127.201 85.4507 118.561C85.7507 102.647 86.0607 86.7141 86.3807 70.7607Z" fill="#F6F6F6"/>
<path d="M82.1406 159.541L80.7906 159.711C78.2406 159.191 76.1306 161.151 73.6406 160.981C73.6406 132.681 73.6406 104.378 73.6406 76.0709L81.5306 74.2109C83.1106 74.5309 85.2607 73.741 84.9307 76.921C84.2164 82.7415 83.8258 88.5971 83.7606 94.4609C83.9006 116.151 83.2006 137.861 82.1406 159.541Z" fill="#CC4456"/>
<path d="M96.7305 155.151C96.7305 150.871 96.7305 146.587 96.7305 142.301C97.6067 140.606 98.0402 138.717 97.9905 136.81C98.5405 123.71 97.5704 110.591 99.3704 97.4705C100.69 87.8205 98.3705 77.8905 100.9 68.2305C102.32 67.4681 103.9 67.0534 105.51 67.0205C106.83 67.3505 109.04 66.3605 108.87 69.0205C108.39 76.3205 108.53 83.7405 107.59 90.8905C106.51 99.0305 107.31 107.191 105.71 115.351C104.11 123.511 105.77 131.881 104.11 140.171C103.23 144.551 103.89 149.251 103.86 153.801C101.33 153.511 99.2305 155.401 96.7305 155.151Z" fill="#CC4456"/>
<path d="M69.6509 159.661C67.8209 159.261 65.5508 160.521 64.2508 158.191C65.5708 153.421 64.6809 148.591 64.7109 143.781C64.7109 141.781 64.7109 139.881 64.7109 137.921C65.2409 134.921 63.1309 132.281 63.5509 129.371C64.3909 123.461 63.9508 117.601 63.6908 111.661C63.1708 100.031 63.4709 88.3608 63.4709 76.6608C63.5647 75.9501 63.7495 75.2544 64.0209 74.5908C69.8409 76.3208 69.8309 76.3208 69.8409 82.3108C69.8409 95.9808 69.8409 109.641 69.8409 123.311C69.8009 135.461 69.7109 147.561 69.6509 159.661Z" fill="#CC4456"/>
<path d="M133.5 55.6406C133.5 64.8806 131.87 73.9607 131.01 83.1107C129.31 101.251 127.4 119.371 125.57 137.501C125.28 140.501 124.94 143.501 124.74 146.441C124.727 147.094 124.519 147.729 124.143 148.263C123.767 148.798 123.24 149.208 122.63 149.441C121.63 149.601 120.97 149.441 120.84 148.281C122.18 136.121 123.57 123.971 124.84 111.801C126.08 99.9907 127.2 88.1706 128.35 76.3506C128.88 70.9006 129.35 65.4406 129.87 59.9506C128.16 59.7606 126.87 60.5606 125.52 60.8906C124.65 60.2906 124.83 59.4106 124.89 58.5606L133.5 55.6406Z" fill="#D2D2D2"/>
<path d="M132.091 51.9908C132.821 48.4708 129.791 44.3708 126.021 44.0808C124.121 43.9408 123.201 43.4608 122.521 41.4108C120.521 35.4108 116.521 32.7908 110.111 32.4808C107.111 32.3408 104.681 31.9708 103.671 28.0808C102.391 23.0808 93.6707 19.4608 88.6707 21.0808C87.5607 21.4508 87.0607 22.4308 86.3107 23.1808C83.9207 25.6108 82.1107 25.3508 80.4707 22.3508C79.7307 21.0108 79.4707 19.3508 78.6007 18.1508C75.7007 13.8608 69.2207 12.8208 64.8707 15.6808C63.3692 16.5507 61.8164 17.3288 60.2207 18.0108C62.3007 13.5108 66.0507 11.2508 71.1207 11.4408C73.4168 11.543 75.6293 12.3327 77.4712 13.7074C79.3131 15.0822 80.6995 16.9786 81.4507 19.1508C82.9907 23.2608 82.9907 23.2608 86.4507 20.4008C92.1807 15.6408 101.341 17.6408 104.061 24.9308C105.651 29.1608 108.551 29.8408 111.881 29.9908C118.121 30.2608 121.951 33.2208 123.821 39.0508C124.081 39.8808 123.991 41.0508 125.371 41.1408C131.971 41.6508 133.791 46.1408 134.171 51.7908C133.501 52.9308 133.321 54.5508 131.461 54.5108C131.461 53.6408 131.231 52.7208 132.031 52.0408L132.391 52.3408L132.091 51.9908Z" fill="#EAEBCA"/>
<path d="M69.6504 159.661C69.7104 147.561 69.8004 135.461 69.8304 123.361C69.8304 109.691 69.8304 96.0307 69.8304 82.3607C69.8304 76.3607 69.8304 76.3606 64.0104 74.6406C61.8604 73.6406 63.0104 71.6406 62.8304 70.1206C66.1204 70.3306 68.8904 72.1206 71.9604 73.0406C72.0004 101.501 72.0338 129.957 72.0604 158.411C72.0604 159.181 72.5304 160.251 71.6504 160.691C70.7704 161.131 70.0904 160.451 69.6504 159.661Z" fill="#D2D2D2"/>
<path d="M103.839 153.81C103.839 149.26 103.209 144.56 104.089 140.18C105.749 131.89 104.089 123.4 105.689 115.36C107.289 107.32 106.489 99.0404 107.569 90.9004C108.509 83.7504 108.37 76.3304 108.85 69.0304C109.02 66.3904 106.85 67.3804 105.48 67.0304C106.48 66.6604 107.66 66.5104 108.35 65.8404C109.04 65.1704 111.079 63.7704 108.259 62.9104C108.259 62.4504 108.259 61.9904 108.209 61.5304L120.579 57.9004L122.66 59.1504C119.56 59.9904 116.479 60.8804 113.369 61.6504C111.689 62.0604 111.21 63.0204 111.11 64.6504C109.71 87.9837 108.259 111.34 106.759 134.72C106.369 140.83 105.83 146.93 105.36 153.04C105.215 153.309 104.992 153.526 104.72 153.664C104.449 153.802 104.141 153.853 103.839 153.81Z" fill="#725852"/>
<path d="M124.9 58.5308C124.84 59.3808 124.66 60.2608 125.53 60.8608C125.31 62.3908 125.03 63.8607 124.87 65.4507C123.56 78.1707 122.67 90.9408 121.56 103.671C120.33 117.971 118.38 132.241 118.17 146.671C118.17 149.851 118.93 149.451 120.86 148.271C120.99 149.381 121.7 149.591 122.65 149.431C120.54 152.431 118.36 151.171 116.17 149.561L116.26 148.061C116.46 147.892 116.623 147.684 116.739 147.449C116.856 147.215 116.923 146.959 116.937 146.698C116.951 146.437 116.911 146.175 116.821 145.93C116.73 145.685 116.59 145.46 116.41 145.271C116.83 132.791 118.54 120.421 119.41 107.981C120.53 91.7608 122.9 75.6308 123.29 59.3508L124.9 58.5308Z" fill="#725852"/>
<path d="M82.1407 159.541C83.2007 137.861 83.9108 116.171 83.7808 94.4608C83.8459 88.5969 84.2365 82.7413 84.9507 76.9208C85.2807 73.7408 83.1308 74.5308 81.5508 74.2108C83.0008 73.4108 85.0208 73.2107 84.9608 70.8207L86.3807 70.7607C86.0607 86.7207 85.7274 102.677 85.3807 118.631C85.2107 127.271 85.0508 135.911 84.8508 144.561C84.8508 145.741 84.6008 146.921 84.4708 148.091C82.6808 150.781 84.0608 153.781 83.6108 156.601C83.4808 157.741 84.2607 159.401 82.1407 159.541Z" fill="#725852"/>
<path d="M62.829 70.1504C62.989 71.7204 61.829 73.6204 64.009 74.6704C63.7377 75.334 63.5529 76.0297 63.459 76.7404C63.459 88.3904 63.1591 100.06 63.6791 111.74C63.9391 117.68 64.3791 123.54 63.5391 129.45C63.1191 132.36 65.229 135.02 64.709 138.01C62.319 140.01 63.109 141.91 64.709 143.86C64.709 148.67 65.569 153.5 64.249 158.27L62.9691 157.58L61.2891 70.8704L62.829 70.1504Z" fill="#725852"/>
<path d="M100.9 68.2607C98.4098 77.9207 100.69 87.8507 99.3698 97.5007C97.5698 110.621 98.5399 123.741 97.9899 136.841C98.0396 138.748 97.6061 140.636 96.7299 142.331C96.6832 134.551 96.6365 126.774 96.5898 119.001C97.1298 102.334 97.6665 85.6674 98.1998 69.0007C98.1998 68.1707 98.1298 67.3407 98.0798 66.5107L99.6298 67.1907C99.6898 67.9507 100.34 68.0507 100.9 68.2607Z" fill="#725852"/>
<path d="M45.8304 32.6905C43.9494 32.5864 42.1317 31.9748 40.5704 30.9206C35.4704 27.5006 28.3004 29.9706 25.4704 35.4306C24.1604 37.9706 22.4704 40.3406 19.2304 41.4306C14.6204 42.9006 14.4804 43.8306 15.6004 50.9706C13.4804 49.7606 12.7904 45.9706 14.2304 42.9706C14.7885 41.9204 15.3992 40.8991 16.0604 39.9106C17.8304 38.9906 19.4604 37.6505 21.6004 37.7005C21.8672 37.728 22.1367 37.7016 22.393 37.6228C22.6493 37.544 22.8872 37.4144 23.0925 37.2418C23.2977 37.0692 23.4662 36.8571 23.5878 36.6181C23.7094 36.3791 23.7817 36.1181 23.8004 35.8506C25.8004 26.9306 37.5704 23.3105 43.5404 29.6205C43.8082 29.9428 44.175 30.1676 44.5837 30.2599C44.9924 30.3521 45.4202 30.3066 45.8004 30.1305C45.8004 31.0105 45.8004 31.8906 45.8004 32.7706L45.8304 32.6905Z" fill="#EAEBCA"/>
<path d="M58.9001 21.6406C59.1401 23.2806 58.1101 23.9106 56.7901 23.7606C52.1801 23.2506 48.6801 24.5106 47.0801 29.2606C47.0201 29.4206 46.4301 29.3906 46.0801 29.4506C46.9001 22.6406 51.9901 19.5506 58.9001 21.6406Z" fill="#EAEBCA"/>
<path d="M84.9606 70.8209C85.0206 73.1609 82.9606 73.4109 81.5506 74.2109L73.6606 76.0709C73.6606 75.2309 73.5905 74.4008 73.5605 73.5608C77.3905 72.7808 80.9006 70.5609 84.9606 70.8209Z" fill="#D2D2D2"/>
<path d="M124.9 58.5306L123.27 59.3306C123.065 59.3129 122.865 59.2587 122.68 59.1706L120.6 57.9206L131.47 54.5306C133.33 54.5306 133.47 52.9505 134.18 51.8105C134.08 53.1105 134.72 54.5306 133.52 55.6406L124.9 58.5306Z" fill="#625735"/>
<path d="M96.7305 155.15C99.2305 155.37 101.33 153.48 103.85 153.78C101.79 157.4 98.9005 157.95 96.7305 155.15Z" fill="#725852"/>
<path d="M73.6406 160.981C76.1306 161.151 78.2406 159.191 80.7906 159.711C78.5006 163.151 75.7006 163.661 73.6406 160.981Z" fill="#725852"/>
<path d="M41.8991 150.27C42.0391 151.27 41.7491 151.86 40.5891 151.44L31.7391 148.78C31.4191 145.2 31.0891 141.61 30.7391 138.02C30.7391 137.19 30.7391 136.34 30.7391 135.51C29.6091 122.61 28.4991 109.71 27.3191 96.8104C26.1391 83.9104 24.9091 71.2605 23.6991 58.4905C23.5891 56.6305 23.6991 55.2705 26.2391 56.4905C29.5191 58.0305 32.9291 59.2905 36.2391 60.6705C37.8925 86.1771 39.5391 111.687 41.1791 137.2C41.4258 141.547 41.6658 145.904 41.8991 150.27Z" fill="#F6F6F6"/>
<path d="M23.0004 145.201C22.4404 131.931 20.5005 118.801 19.0805 105.621C17.8905 94.571 16.6105 83.521 15.8605 72.431C15.5105 67.181 13.4804 62.101 14.3804 56.751C16.9019 57.336 19.3407 58.2329 21.6405 59.421C22.2453 61.8459 22.6665 64.3129 22.9005 66.801C23.1905 77.161 24.5805 87.391 25.6005 97.681C26.2805 104.541 26.9505 111.451 27.3605 118.371C27.8105 126.101 28.6505 133.811 29.3605 141.531C29.5505 143.531 29.4705 145.721 28.1605 146.871C27.2705 147.651 25.3205 146.351 24.0305 145.451C23.7044 145.308 23.3557 145.224 23.0004 145.201Z" fill="#CC4456"/>
<path d="M22.9993 145.201C23.3444 145.227 23.6826 145.311 23.9993 145.451C25.2893 146.351 27.2393 147.651 28.1293 146.871C29.4393 145.721 29.5193 143.491 29.3293 141.531C28.6093 133.811 27.7693 126.101 27.3293 118.371C26.9193 111.451 26.2493 104.541 25.5693 97.6806C24.5693 87.3906 23.1593 77.1606 22.8693 66.8006C22.6354 64.3124 22.2142 61.8454 21.6094 59.4206C22.8394 58.3206 21.9594 56.8606 22.2794 55.6006C23.4094 56.2406 22.5294 57.8406 23.6494 58.4906C24.8594 71.2606 26.0993 84.0305 27.2693 96.8105C28.4393 109.591 29.5593 122.611 30.6893 135.511C30.7693 136.341 30.6893 137.191 30.6893 138.021C29.5493 140.281 30.2693 142.691 30.1993 145.021C30.1993 146.941 29.9193 148.401 27.5193 148.021C25.6593 147.791 22.6093 149.241 22.9993 145.201Z" fill="#725852"/>
<path d="M22.309 55.6006C21.989 56.8606 22.869 58.3206 21.639 59.4206C19.3393 58.2325 16.9005 57.3355 14.379 56.7505C13.079 55.3505 13.799 53.6405 13.659 52.0605C16.569 53.1505 19.789 53.5206 22.309 55.6006Z" fill="#EAEBCA"/>
<path d="M41.1998 137.151C39.5531 111.644 37.9064 86.1339 36.2598 60.6206L38.1598 60.9907C38.0998 62.6107 37.8198 64.2706 38.8998 65.7206C38.9598 70.7206 38.7998 75.8006 39.1198 80.8206C39.8798 92.5906 40.9898 104.351 41.7298 116.131C42.1298 122.441 41.3898 128.821 42.7298 135.131L42.4398 136.471L41.1998 137.151Z" fill="#725852"/>
<path d="M48.9998 67.1506C50.5498 89.9906 51.0798 112.871 51.8398 135.741L50.3898 134.321H50.2598C50.5998 126.651 49.1099 119.051 49.1699 111.451C49.2999 97.0606 47.2698 82.7906 47.4598 68.4506C47.5098 68.0106 47.5598 67.5806 47.6198 67.1406L48.9998 67.1506Z" fill="#725852"/>
<path d="M47.619 67.1505C47.559 67.5905 47.509 68.0205 47.459 68.4605C44.529 67.8105 41.939 66.0505 38.899 65.7505C37.819 64.3005 38.099 62.6405 38.159 61.0205C40.319 61.7205 42.439 62.5705 44.639 63.0905C46.839 63.6105 47.839 64.9105 47.619 67.1505Z" fill="#EAEBCA"/>
<path d="M100.901 68.2606C100.361 68.0506 99.7109 67.9506 99.6309 67.1906C100.461 65.0706 102.531 64.9506 104.281 64.4106C105.651 63.9806 107.101 63.8407 108.281 62.9307C111.101 63.7907 109.151 65.1107 108.371 65.8607C107.591 66.6107 106.481 66.6807 105.501 67.0507C103.893 67.0847 102.317 67.4993 100.901 68.2606Z" fill="#D2D2D2"/>
<path d="M48.049 154.001C46.1548 153.14 44.495 151.837 43.209 150.201C43.269 147.081 43.3357 143.958 43.409 140.831C46.409 136.581 47.679 136.441 50.279 140.051C50.339 143.811 50.339 147.581 50.479 151.341C50.549 153.151 49.749 153.931 48.049 154.001Z" fill="#CC4456"/>
<path d="M50.2805 140.051C47.6805 136.441 46.4305 136.581 43.4105 140.831C42.8805 139.421 43.9605 137.671 42.4805 136.461C42.5805 136.011 42.6704 135.571 42.7704 135.121C43.8325 134.327 45.0907 133.836 46.4101 133.702C47.7295 133.569 49.0605 133.796 50.2604 134.361H50.3904C50.3504 136.261 50.3105 138.151 50.2805 140.051Z" fill="#CC4456"/>
<path d="M42.4792 136.461C43.9592 137.671 42.8792 139.461 43.4092 140.831C43.3426 143.964 43.2759 147.088 43.2092 150.201L41.8992 150.271C41.6592 145.911 41.4259 141.548 41.1992 137.181L42.4792 136.461Z" fill="#555250"/>
<path d="M97.4004 55.6406C100.49 51.1106 100.13 46.1806 98.5604 40.3706C102.06 45.7006 102.21 51.2606 99.4104 54.5206C98.8904 55.1306 98.4104 55.9606 97.4104 55.6206L97.4004 55.6406Z" fill="#625735"/>
<path d="M75.5006 31.7607C69.4006 34.6407 65.0006 33.1007 60.8906 26.7007C65.0406 30.5707 69.5506 33.3507 75.5006 31.7607Z" fill="#625735"/>
<path d="M45.8293 32.6904C48.4193 39.9404 46.8293 43.8504 40.2793 45.6904C45.5593 42.7704 45.8993 37.8004 45.8293 32.6904Z" fill="#625735"/>
<path d="M103.33 35.5607C100.19 40.3207 95.3302 41.7007 89.4902 39.2107C94.4902 39.6107 99.1102 38.6707 102.73 34.9507L103.33 35.5607Z" fill="#625735"/>
<path d="M49.7194 42.6309C56.3694 45.0409 59.5094 50.4409 57.8394 57.0309C58.4894 50.2509 53.4194 46.9009 49.6094 42.7809L49.7194 42.6309Z" fill="#625735"/>
<path d="M77.1404 45.5307C74.9304 42.2207 71.1405 42.2007 67.2305 41.1407C73.0205 39.8007 76.4105 41.4706 77.1105 45.5606L77.1404 45.5307Z" fill="#625735"/>
<path d="M111.68 45.151C114.48 44.741 117.28 45.801 120.1 45.151C117.38 47.801 114.54 46.901 111.68 45.151Z" fill="#625735"/>
<path d="M102.73 34.9506C103.16 34.1606 103.43 33.2505 104.42 32.8105C104.84 34.0905 104.11 34.8105 103.33 35.5605L102.73 34.9506Z" fill="#625735"/>
<path d="M49.6091 42.7805L47.7891 42.4605C48.6791 41.7105 49.2291 41.9805 49.7191 42.6305L49.6091 42.7805Z" fill="#625735"/>
<path d="M96.64 56.3306L96.5 56.6606L96.6801 56.3806L96.64 56.3306Z" fill="#625735"/>
<path d="M96.6799 56.3806L97.3999 55.6406C97.4799 56.2006 97.1599 56.3706 96.6699 56.3506L96.6799 56.3806Z" fill="#625735"/>
<path d="M77.0996 45.571L77.2696 45.631L77.1396 45.541L77.0996 45.571Z" fill="#625735"/>
<path d="M76.829 31.2109L77.059 31.4609C76.969 31.5409 76.8791 31.6709 76.7891 31.6609C76.6991 31.6509 76.6191 31.5209 76.5391 31.4409L76.829 31.2109Z" fill="#625735"/>
<path d="M78.0293 30.7106L78.2393 30.6606L78.2293 30.8106L78.0293 30.7106Z" fill="#625735"/>
<path d="M116.39 145.251C116.571 145.44 116.711 145.665 116.801 145.91C116.892 146.156 116.931 146.417 116.917 146.678C116.903 146.94 116.836 147.195 116.719 147.43C116.603 147.664 116.44 147.872 116.24 148.041L116.39 145.251Z" fill="#555250"/>
<path d="M64.7099 143.781C63.1099 141.781 62.3199 139.881 64.7099 137.931V143.781Z" fill="#725852"/>
<path d="M120.841 148.251C118.911 149.431 118.101 149.831 118.151 146.651C118.361 132.241 120.311 117.971 121.541 103.651C122.651 90.9209 123.541 78.1509 124.851 65.4309C125.011 63.8909 125.291 62.3709 125.511 60.8409C126.881 60.5109 128.151 59.7109 129.861 59.9009C129.351 65.3909 128.861 70.9009 128.341 76.3009C127.191 88.1209 126.071 99.9408 124.831 111.751C123.571 123.941 122.181 136.091 120.841 148.251Z" fill="#CC4456"/>
<path d="M132.09 51.9907L132.38 52.3607L132.02 52.0607L132.09 51.9907Z" fill="#F7ED69"/>
<path d="M50.2595 134.361C49.0595 133.796 47.7285 133.569 46.4091 133.703C45.0897 133.836 43.8316 134.327 42.7695 135.121C41.3895 128.851 42.1295 122.471 41.7695 116.121C41.0295 104.341 39.9195 92.5809 39.1595 80.8109C38.8395 75.8109 38.9995 70.7409 38.9395 65.7109C41.9395 66.0109 44.5695 67.771 47.4995 68.421C47.3095 82.791 49.3395 97.061 49.2095 111.421C49.1095 119.091 50.5995 126.691 50.2595 134.361Z" fill="#CC4456"/>
</svg>
