<svg width="201" height="133" viewBox="0 0 201 133" fill="none" xmlns="http://www.w3.org/2000/svg">
<path d="M52.2264 71.3078C51.0956 75.0144 35.4438 127.417 35.4438 127.417C35.1668 128.098 34.7018 128.687 34.1031 129.114C33.5045 129.541 32.7967 129.79 32.0622 129.83H14.5131C13.0615 129.83 12.2569 128.7 12.7407 127.417L26.2995 83.221C18.5687 82.9003 13.0887 80.971 8.90254 76.7807C3.26484 71.3078 0.693359 65.1936 0.693359 57.6283V36.8563C0.693359 29.291 3.26484 23.3345 8.90254 17.704C13.4149 13.3561 19.3679 11.2637 27.9305 11.2637C36.3082 11.2637 42.4243 13.3561 46.7736 17.704C52.4113 23.3345 54.9882 29.291 54.9882 36.8563V50.5413C54.961 50.8674 55.1187 61.1664 52.2264 71.3078ZM27.9033 62.6121C29.3549 62.6121 31.4479 61.9653 31.4479 59.5522V34.927C31.4479 32.5139 29.3549 32.0302 27.9033 32.0302C26.2723 32.0302 24.201 32.5139 24.201 34.927V59.5577C24.201 61.9708 26.2995 62.6175 27.9033 62.6175V62.6121Z" fill="#090609"/>
<path d="M68.3287 17.5683C73.314 12.7367 79.9194 11.291 87.0087 11.291C94.0979 11.291 100.856 12.7367 105.683 17.5683C111 22.7205 113.898 28.6716 113.898 36.4V105.759C113.898 113.651 111.082 120.33 105.743 125.482C100.915 130.472 94.1469 131.76 87.0631 131.76C79.9792 131.76 73.3793 130.472 68.3831 125.482C65.764 122.914 63.6914 119.843 62.29 116.454C60.8886 113.064 60.1873 109.427 60.2283 105.759V36.3728C60.2718 28.6445 63.1694 22.6933 68.3287 17.5683ZM87.0087 31.5738C85.8779 31.5738 82.8171 31.8945 82.8171 35.1174L91.3525 76.3298V35.0902C91.3525 31.8673 88.2917 31.5467 87.0087 31.5467V31.5738ZM87.0087 110.781C88.2917 110.781 91.3579 110.298 91.3579 107.075V102.085L82.8226 62.3187V107.075C82.8171 110.27 85.8779 110.754 87.0087 110.754V110.781Z" fill="#090609"/>
<path d="M191.032 92.0744V105.613C191.032 113.015 188.455 118.971 182.817 124.45C178.468 128.798 172.912 131.77 164.382 131.77C156.167 131.77 150.448 128.955 145.941 124.45C140.303 118.971 137.727 113.037 137.727 105.613V91.4331C137.727 90.2799 138.185 89.174 139 88.3586C139.816 87.5433 140.922 87.0852 142.076 87.0852H155.607C156.761 87.0852 157.867 87.5433 158.683 88.3586C159.498 89.174 159.957 90.2799 159.957 91.4331V106.727C159.957 109.944 163.017 110.27 163.985 110.27C164.784 110.27 167.851 109.944 167.851 106.727V92.5689C167.851 87.5797 166.394 87.096 160.919 81.7862L144.174 66.6556C139.825 62.3077 137.732 58.1175 137.732 51.0359V36.5357C137.732 29.1335 140.309 23.0138 145.947 17.5409C150.454 13.1931 157.054 11.2637 165.431 11.2637C168.693 11.2637 175.364 10.9702 182.181 17.5409C187.814 23.0138 190.39 29.1335 190.39 36.5357V48.9326C190.39 50.0857 189.932 51.1916 189.117 52.007C188.301 52.8224 187.195 53.2805 186.041 53.2805H172.205C171.052 53.2805 169.945 52.8224 169.13 52.007C168.314 51.1916 167.856 50.0857 167.856 48.9326V35.4107C167.856 32.3509 165.6 31.7096 164.469 31.7096C163.023 31.7096 160.924 32.3509 160.924 35.2477V48.7695C160.924 54.2424 163.991 55.2098 167.856 59.0957L184.921 73.7426C190.064 78.8786 191.032 83.221 191.032 92.0744Z" fill="#090609"/>
<path d="M60.9955 71.3078C59.8702 75.0144 44.7348 126.2 44.7348 126.2C44.4568 126.881 43.9909 127.47 43.3913 127.897C42.7917 128.324 42.083 128.573 41.3478 128.613H23.7878C22.3417 128.613 21.537 127.488 22.0209 126.2L35.0686 83.2156C27.3378 82.8949 21.8632 80.9655 17.6717 76.7753C12.0394 71.3024 9.45703 65.1882 9.45703 57.6229V36.8563C9.45703 29.291 12.0394 23.3345 17.6717 17.704C22.1786 13.3561 28.137 11.2637 36.6996 11.2637C45.0773 11.2637 51.1934 13.3561 55.5427 17.704C61.1749 23.3345 63.7519 29.291 63.7519 36.8563V50.5413C63.7301 50.8674 63.8932 61.1664 60.9955 71.3078ZM36.6778 62.6121C38.124 62.6121 40.2225 61.9653 40.2225 59.5522V34.927C40.2225 32.5139 38.124 32.0302 36.6778 32.0302C35.0469 32.0302 32.9756 32.5139 32.9756 34.927V59.5577C32.9756 61.9708 35.0686 62.6175 36.6778 62.6175V62.6121Z" fill="#48BAD6"/>
<path d="M61.1369 71.3732L57.2062 85.1396C55.9015 89.7267 54.7272 94.3789 53.4822 98.9659L49.8125 112.808C48.5784 117.417 47.2356 121.999 45.9526 126.591C45.9557 126.62 45.9557 126.649 45.9526 126.678C45.5865 127.611 44.9557 128.417 44.1375 128.996C43.3194 129.576 42.3498 129.903 41.3478 129.939H36.9442L28.137 129.879C26.6148 129.879 25.3263 129.879 23.6138 129.814C23.3966 129.801 23.1815 129.765 22.9723 129.705C22.6553 129.634 22.3535 129.507 22.0807 129.33C21.5383 128.997 21.1304 128.483 20.9281 127.879C20.7485 127.312 20.7485 126.702 20.9281 126.135L21.2706 125.048L23.9889 116.678C25.7993 111.091 27.6967 105.537 29.4255 99.9279C31.1543 94.3191 32.9973 88.743 34.6174 83.0799L35.0523 83.6886C31.2344 83.6463 27.4547 82.923 23.8911 81.5527C22.0989 80.8335 20.4113 79.8775 18.8731 78.7102C17.4009 77.4897 16.0317 76.15 14.7794 74.7048C12.209 71.7721 10.3488 68.2871 9.34285 64.5199C8.30447 60.7427 8.40233 56.8078 8.32622 53.1067L8.13595 41.8674C8.13595 39.9652 8.07615 38.1826 8.13595 36.1826C8.15245 34.2275 8.36738 32.279 8.77746 30.3673C9.65049 26.4883 11.388 22.8564 13.8606 19.7422C16.2038 16.715 19.2646 13.8128 23.0049 12.2204C26.6529 10.6944 30.5551 9.86662 34.5086 9.78014C35.422 9.78014 36.531 9.6823 37.4389 9.74751C38.3469 9.81273 39.2874 9.77469 40.2714 9.88339C42.2417 10.036 44.1952 10.3578 46.1103 10.8454C50.0191 11.8038 53.5911 13.8129 56.4397 16.6552C59.0547 19.3726 61.5392 22.7205 62.9146 26.3564C64.2312 30.0211 64.7862 33.9157 64.5456 37.8022L64.2194 49.0469C64.1813 50.9165 64.1107 52.8023 63.9258 54.6774C63.8334 56.5578 63.6214 58.4274 63.3441 60.2861C63.0179 64.0633 61.9361 67.6884 61.1369 71.3732ZM60.8542 71.2917C61.5664 67.6177 62.5558 64.009 62.8059 60.2644C63.2679 56.5588 63.4098 52.8203 63.2299 49.0903L62.9038 37.8457C62.9497 34.2332 62.2237 30.6525 60.7743 27.3431C59.3248 24.0337 57.1853 21.0717 54.4988 18.6552C51.9054 16.2894 48.7624 14.6082 45.3546 13.7639C43.6339 13.3397 41.8809 13.0598 40.1138 12.9269C39.2385 12.8291 38.2599 12.8508 37.3357 12.8073C36.4114 12.7639 35.6068 12.8508 34.6446 12.8617C31.0926 12.955 27.5894 13.7107 24.3151 15.09C21.1347 16.4922 18.5034 18.7911 16.231 21.6118C13.9768 24.3466 12.3743 27.558 11.5446 31.0032C11.1357 32.7464 10.9134 34.5282 10.8814 36.3185L10.8053 41.8783L10.615 53.1176C10.5607 56.922 10.3541 60.5524 11.1967 64.0633C12.0143 67.5968 13.6263 70.8977 15.9102 73.7156C17.0696 75.1453 18.3422 76.4793 19.7158 77.7048C21.1226 78.862 22.6856 79.8153 24.3586 80.5363C27.7906 81.9055 31.4397 82.6509 35.1339 82.7375C35.1955 82.7388 35.2562 82.7525 35.3125 82.7777C35.3688 82.8029 35.4194 82.8391 35.4615 82.8842C35.5035 82.9293 35.5361 82.9823 35.5573 83.0402C35.5786 83.0981 35.588 83.1596 35.5851 83.2211C35.5899 83.2645 35.5899 83.3082 35.5851 83.3516C33.8019 88.9386 32.2307 94.6017 30.5563 100.227C28.8818 105.852 27.3705 111.526 25.7721 117.178L23.3964 125.656L23.1136 126.689C23.0715 126.823 23.0715 126.968 23.1136 127.102C23.1789 127.184 23.2061 127.271 23.3365 127.314C23.467 127.358 23.3855 127.379 23.8802 127.417L28.1587 127.374L36.966 127.314L41.3696 127.281C41.8449 127.251 42.3029 127.091 42.6946 126.82C43.0863 126.55 43.3969 126.177 43.5931 125.743L43.5605 125.83C44.9903 121.276 46.3603 116.705 47.8391 112.167L52.2971 98.58C53.7595 94.0365 55.298 89.5147 56.7061 84.9549L60.8542 71.2917Z" fill="#090609"/>
<path d="M36.6716 62.4707C36.9308 62.4626 37.189 62.4336 37.4436 62.3837C38.1472 62.2933 38.7953 61.954 39.2702 61.4272C39.9226 60.7315 39.765 59.7043 39.5801 58.3239C39.3953 56.9434 39.1887 55.4706 39.0365 53.8184C38.6994 50.514 38.9549 46.6607 39.417 42.5302C39.6559 40.4174 39.7702 38.2923 39.7595 36.1661C39.7595 35.0791 39.7595 33.9541 39.1398 33.4215C38.52 32.8888 37.4707 32.7475 36.552 32.8454C35.5081 32.9595 34.66 33.3291 34.3773 33.8671C34.2118 34.1372 34.1393 34.4541 34.1708 34.7693C34.1708 35.1443 34.2251 35.8128 34.2414 36.3128C34.323 38.4867 34.3991 40.6172 34.4752 42.6824C34.5997 46.4457 34.5035 50.2131 34.1871 53.9652C33.9751 55.5956 33.7848 57.1337 33.6108 58.4761C33.4368 59.8185 33.3118 60.8728 34.0185 61.4924C34.5208 61.9904 35.1753 62.306 35.8778 62.3892C36.1405 62.4326 36.4056 62.4599 36.6716 62.4707V62.4707ZM36.6716 62.7642C36.3993 62.7674 36.127 62.7547 35.8561 62.7261C35.0709 62.6517 34.32 62.3683 33.6815 61.9055C33.2016 61.5092 32.8404 60.9883 32.6377 60.4C32.5724 60.0848 32.4909 59.8837 32.4311 59.4489C32.3985 59.1337 32.355 58.8076 32.3169 58.4761C32.1429 57.1337 31.9472 55.6173 31.7406 53.9652C31.4188 50.2134 31.3226 46.4457 31.4525 42.6824C31.5286 40.6172 31.6047 38.4813 31.6808 36.3128C31.7298 35.7367 31.7135 35.3128 31.8113 34.6008C31.8728 33.8188 32.1812 33.0766 32.692 32.4812C33.8283 31.2366 35.4103 31.1823 36.4976 31.2312C37.7317 31.3019 39.08 31.6008 39.9716 32.6823C40.9012 33.8562 40.6457 35.1389 40.6729 36.1661C40.6613 38.2925 40.7775 40.4177 41.0208 42.5302C41.4775 46.6607 41.733 50.514 41.396 53.8184C41.2546 55.4489 41.0154 56.9815 40.8523 58.3239C40.7653 59.5848 40.4989 61.1065 39.6345 61.7913C39.0125 62.2983 38.2575 62.6153 37.4599 62.7044C37.203 62.7468 36.9428 62.7668 36.6824 62.7642H36.6716Z" fill="#090609"/>
<g style="mix-blend-mode:multiply">
<g style="mix-blend-mode:multiply">
<path d="M29.5671 126.205L42.6148 83.221C34.8895 82.9003 29.4095 80.971 25.2179 76.7807C19.5802 71.3078 17.0087 65.1936 17.0087 57.6283V36.8563C17.0087 29.291 19.5802 23.3345 25.2179 17.704C29.0235 14.0463 33.8348 11.9865 40.3532 11.4267C39.1789 11.3289 37.9612 11.2637 36.6781 11.2637C28.1427 11.2637 22.1843 13.3561 17.6502 17.704C12.0179 23.3345 9.43555 29.291 9.43555 36.8563V57.6283C9.43555 65.1936 12.0179 71.3078 17.6502 76.7807C21.8363 80.971 27.311 82.9003 35.0472 83.221L21.9994 126.205C21.5156 127.493 22.3202 128.618 23.7663 128.618H31.3123C29.8933 128.618 29.0887 127.493 29.5671 126.205Z" fill="#B3B3B3"/>
</g>
</g>
<path d="M77.0984 17.5683C82.0946 12.7367 88.6946 11.291 95.7784 11.291C102.862 11.291 109.631 12.7367 114.458 17.5683C119.775 22.7205 122.673 28.6716 122.673 36.4V105.759C122.673 113.651 119.775 119.444 114.458 124.597C109.631 129.586 102.862 130.879 95.7784 130.879C88.6946 130.879 82.0946 129.586 77.0984 124.597C71.9446 119.444 69.0469 113.651 69.0469 105.759V36.3728C69.0469 28.6445 71.9446 22.6933 77.0984 17.5683ZM95.7784 31.5738C94.653 31.5738 91.5922 31.8945 91.5922 35.1174L100.133 76.3298V35.0902C100.133 31.8673 97.0669 31.5467 95.7784 31.5467V31.5738ZM95.7784 110.781C97.0669 110.781 100.128 110.298 100.128 107.075V102.085L91.5868 62.3187V107.075C91.5923 110.27 94.653 110.754 95.7784 110.754V110.781Z" fill="#48BAD6"/>
<path d="M77.001 17.4323L77.6643 16.8562C78.2827 16.2711 78.9503 15.7402 79.6595 15.2692C82.334 13.3899 85.3953 12.1328 88.619 11.5899C93.6034 10.6568 98.7102 10.5759 103.722 11.3507C106.874 11.8744 109.883 13.0438 112.562 14.7855C115.475 16.8271 117.969 19.4104 119.906 22.3943C122.036 25.6744 123.372 29.4052 123.81 33.2912C123.984 35.2789 124.04 37.2752 123.978 39.2695C123.978 41.2532 123.978 43.2696 123.935 45.3076C123.935 53.4599 123.636 62.0958 123.467 71.0036C123.299 79.9113 123.163 89.1233 123.13 98.4821C123.043 103.151 123.619 107.879 122.342 112.672C121.287 117.439 118.449 121.667 115.068 125.113C113.34 126.899 111.303 128.358 109.055 129.417C106.808 130.438 104.429 131.137 101.987 131.493C97.1854 132.238 92.2942 132.2 87.5045 131.379C85.0797 130.909 82.7393 130.078 80.562 128.912C78.4416 127.687 76.528 126.135 74.8917 124.314C71.5505 120.834 69.2151 116.514 68.134 111.814C67.674 109.541 67.4535 107.225 67.4762 104.906C67.4762 102.732 67.4762 100.558 67.4762 98.4115C67.4762 94.1179 67.4889 89.9277 67.5143 85.8407C67.5143 77.6884 67.6502 69.9492 67.7915 62.8187C67.9329 55.6882 68.1884 49.1555 68.3352 43.3619C68.4439 40.4597 68.4439 37.7749 68.6233 35.2097C68.7916 32.9096 69.2277 30.637 69.9226 28.4379C70.9451 25.3424 72.5608 22.4755 74.6796 19.9976C75.4094 19.1037 76.1842 18.2475 77.001 17.4323V17.4323ZM77.1968 17.6497C77.1968 17.6497 76.3595 18.4867 74.9678 20.2041C72.9478 22.6826 71.4266 25.5284 70.4881 28.5846C69.1561 32.5249 69.5747 37.5956 69.7161 43.3837C69.8574 49.1718 70.0694 55.7099 70.2597 62.8404C70.45 69.9709 70.5587 77.6938 70.537 85.8624C70.537 89.9422 70.5497 94.1324 70.575 98.4332C70.575 100.575 70.575 102.743 70.575 104.928C70.5603 107.031 70.7423 109.131 71.1187 111.2C72.024 115.385 74.0453 119.248 76.9684 122.379C78.3807 124.023 80.0473 125.431 81.9048 126.548C83.8335 127.597 85.8967 128.378 88.0372 128.868C92.528 129.774 97.1345 129.957 101.683 129.412C106.288 128.868 110.566 127.238 113.926 123.977C117.28 120.781 120.097 116.912 121.265 112.412C122.543 108.004 122.07 103.145 122.206 98.4984C122.173 89.1396 122.114 79.933 121.869 71.0199C121.624 62.1067 121.401 53.4979 121.401 45.3239C121.331 41.3021 121.445 37.1336 121.217 33.5629C120.917 30.0427 119.8 26.6408 117.955 23.628C116.241 20.8304 114.064 18.344 111.518 16.2747C109.115 14.5128 106.374 13.2675 103.466 12.6171C98.6261 11.5386 93.6264 11.38 88.7277 12.1496C85.5637 12.6185 82.5429 13.7823 79.8824 15.5573C79.1706 16.0136 78.4978 16.5281 77.8709 17.0954L77.1968 17.6497Z" fill="#090609"/>
<path d="M95.7789 31.6989C95.2753 31.7098 94.775 31.7829 94.2893 31.9163C93.8084 32.0323 93.3591 32.2531 92.9737 32.5631C92.7796 32.7122 92.6155 32.8966 92.4898 33.1066C92.3357 33.285 92.2258 33.4973 92.1691 33.7261C92.0184 34.1717 91.9592 34.6431 91.9951 35.112V35.0305C92.9628 38.411 94.1316 41.7534 94.9743 45.161C95.8119 48.5617 96.4418 52.0101 96.8608 55.4872C97.3446 58.971 97.7252 62.4764 98.4428 65.9058C99.1605 69.3352 100.025 72.7429 100.949 76.1342L99.3181 76.3027C99.0354 72.3352 98.8343 68.3732 98.7745 64.4112C98.7146 60.4492 98.5515 56.4818 98.6005 52.5198C98.6494 48.5578 98.7581 44.5904 99.2039 40.6284L99.4975 37.6555C99.5628 36.6881 99.7204 35.6174 99.715 34.737C99.7526 34.2822 99.6638 33.8259 99.4585 33.4184C99.2532 33.0108 98.9394 32.6678 98.5516 32.4272C97.7108 31.9368 96.7522 31.685 95.7789 31.6989V31.6989ZM95.7789 31.4054C96.8082 31.3617 97.8312 31.5864 98.7473 32.0576C99.2246 32.3206 99.6327 32.6931 99.9379 33.1446C100.211 33.6081 100.396 34.1187 100.482 34.65C100.683 35.737 100.694 36.6609 100.808 37.6773L101.096 40.6501C101.542 44.6121 101.64 48.5741 101.699 52.5416C101.759 56.509 101.629 60.4656 101.525 64.433C101.422 68.4004 101.243 72.357 100.982 76.3244V76.4331C100.967 76.6348 100.878 76.8239 100.733 76.9643C100.587 77.1046 100.395 77.1863 100.193 77.1938C99.9909 77.2012 99.7932 77.1337 99.6377 77.0044C99.4823 76.8751 99.3801 76.6929 99.3507 76.4929C98.856 73.0092 98.3395 69.5363 97.5893 66.1124C96.839 62.6884 95.8442 59.3079 94.9036 55.922C93.8973 52.5582 93.102 49.1348 92.5224 45.6719C91.9353 42.2099 91.6797 38.6827 91.2285 35.1935V35.1229C91.2928 34.5585 91.447 34.0081 91.6852 33.4924C91.7886 33.2306 91.946 32.9936 92.1473 32.7968C92.3193 32.5796 92.5293 32.3954 92.7671 32.2533C93.6641 31.6808 94.7094 31.3842 95.7735 31.4L95.7789 31.4054Z" fill="#090609"/>
<path d="M95.7733 110.607C96.6996 110.594 97.6081 110.349 98.4155 109.895C98.7889 109.649 99.1043 109.324 99.3396 108.944C99.45 108.756 99.5359 108.555 99.5952 108.346C99.6916 108.149 99.7347 107.929 99.7202 107.71C99.7321 106.777 99.6813 105.843 99.568 104.917L99.3288 102.058V102.226C98.2808 98.996 97.3971 95.7146 96.6812 92.3948C95.9473 89.085 95.5069 85.7154 95.0067 82.3567C94.5066 78.998 94.001 75.6392 93.267 72.3294C92.5331 69.0196 91.6361 65.7424 90.7499 62.4706L92.4135 62.2913C92.6907 66.5467 92.8865 70.7968 92.9571 75.0523C93.0278 79.3077 93.18 83.5578 93.1257 87.8078C93.0713 92.0579 92.968 96.3134 92.5168 100.563L91.9731 106.944C91.9139 107.43 91.9686 107.923 92.1328 108.384C92.2969 108.845 92.5661 109.262 92.9191 109.602C93.7337 110.242 94.737 110.595 95.7733 110.607V110.607ZM95.7733 110.9C94.665 110.924 93.5781 110.594 92.669 109.96C91.7013 109.292 91.3099 108.047 91.1848 106.966L90.6412 100.585C90.1899 96.3351 90.0975 92.0851 90.0269 87.8296C89.9562 83.5741 90.0975 79.3241 90.2008 75.074C90.3041 70.824 90.4781 66.5685 90.7445 62.313V62.2152C90.7619 62.013 90.8523 61.8241 90.9986 61.6835C91.145 61.543 91.3374 61.4604 91.5402 61.4511C91.7429 61.4418 91.9422 61.5064 92.1008 61.633C92.2594 61.7595 92.3667 61.9394 92.4026 62.1391C92.9463 65.4924 93.4301 68.8511 94.1532 72.1609C94.8762 75.4708 95.7298 78.7588 96.6866 82.0197C97.6435 85.2806 98.5894 88.5416 99.2744 91.8622C99.9902 95.1817 100.535 98.5358 100.905 101.911V102.063L100.666 104.922C100.624 105.896 100.513 106.866 100.335 107.824C100.306 108.082 100.226 108.331 100.101 108.558C100.005 108.797 99.8807 109.023 99.7311 109.232C99.4199 109.636 99.0296 109.973 98.584 110.221C97.7199 110.677 96.7557 110.911 95.7787 110.9H95.7733Z" fill="#090609"/>
<path d="M199.802 92.0743V105.613C199.802 113.015 197.23 118.971 191.587 124.45C187.238 128.798 181.258 130.89 172.744 130.89C164.535 130.89 159.218 128.955 154.711 124.45C149.079 118.971 146.502 113.037 146.502 105.613V91.433C146.502 90.2799 146.96 89.174 147.776 88.3586C148.591 87.5432 149.698 87.0852 150.851 87.0852H164.377C165.531 87.0852 166.637 87.5432 167.453 88.3586C168.268 89.174 168.727 90.2799 168.727 91.433V106.727C168.727 109.944 171.782 110.27 172.744 110.27C173.554 110.27 176.615 109.944 176.615 106.727V92.5689C176.615 87.5797 175.163 87.096 169.689 81.7862L152.939 66.6556C148.59 62.3077 146.502 58.1174 146.502 51.0358V36.5357C146.502 29.1334 149.079 23.0138 154.711 17.5409C159.218 13.1931 164.535 11.2637 172.913 11.2637C181.127 11.2637 186.439 13.1931 190.946 17.5409C196.583 23.0138 199.16 29.1334 199.16 36.5357V48.9326C199.16 50.0857 198.702 51.1916 197.887 52.007C197.071 52.8224 195.965 53.2804 194.811 53.2804H180.959C179.805 53.2804 178.699 52.8224 177.883 52.007C177.068 51.1916 176.61 50.0857 176.61 48.9326V35.4107C176.61 32.3509 174.353 31.7095 173.228 31.7095C171.776 31.7095 169.683 32.3509 169.683 35.2476V48.7695C169.683 54.2424 172.739 55.2098 176.61 59.0957L193.68 73.7426C198.845 78.8785 199.802 83.221 199.802 92.0743Z" fill="#48BAD6"/>
<path d="M199.932 92.0741L200.019 105.194C200.145 109.635 199.124 114.033 197.056 117.966C195.989 119.911 194.699 121.725 193.213 123.373C191.758 125.075 190.077 126.569 188.217 127.814C184.331 130.102 179.945 131.407 175.441 131.618C173.222 131.778 170.994 131.778 168.775 131.618C166.499 131.475 164.248 131.057 162.072 130.373C159.884 129.623 157.833 128.522 156 127.113C155.1 126.397 154.243 125.629 153.433 124.814C152.64 124.034 151.888 123.212 151.183 122.352C148.181 118.827 146.221 114.536 145.523 109.96C144.931 105.319 145.311 101.063 145.23 96.6611V93.4002V91.7698C145.212 91.1164 145.302 90.4647 145.496 89.8404C145.913 88.4616 146.854 87.3008 148.117 86.6067C149.313 85.8893 150.944 85.8621 151.89 85.911C156.309 86.0088 160.544 85.9654 165.111 86.1719C167.954 86.5252 169.863 89.3676 169.618 91.8622L169.526 98.422L169.428 104.982C169.428 106.069 169.303 107.216 169.64 107.998C169.823 108.394 170.098 108.739 170.442 109.006C170.787 109.273 171.19 109.453 171.619 109.531C173.505 110.074 175.799 109.205 175.968 107.27C176.115 105.254 176.028 102.922 176.071 100.797L176.109 94.2372C176.109 92.0307 176.278 89.8295 175.147 88.1013C174.016 86.373 172.271 84.9762 170.722 83.449C169.172 81.9218 167.509 80.5251 165.878 79.0468L156.092 70.2913C154.521 68.8402 152.683 67.4434 151.237 65.8075C149.687 64.1531 148.404 62.2683 147.432 60.2205C146.565 58.1232 146.015 55.9088 145.801 53.6498C145.648 51.3889 145.648 49.2095 145.627 47.0247C145.627 42.6334 145.409 38.329 145.599 33.8615C145.962 29.2733 147.53 24.862 150.144 21.0734C152.808 17.4375 156.125 14.0081 160.474 12.1711C164.823 10.3341 169.395 9.88301 173.891 9.93736C178.24 10.0189 183.133 10.6439 187.2 12.9917C189.252 14.1172 191.113 15.5609 192.713 17.269C194.338 18.8926 195.763 20.7044 196.959 22.6658C199.465 26.5897 200.601 31.3235 200.693 35.8942V49.1987L200.606 50.0248C200.509 50.4269 200.394 50.8345 200.258 51.2259C199.958 51.9074 199.542 52.5324 199.03 53.0737C197.982 54.1388 196.565 54.7613 195.072 54.8129H188.45H181.888H181.067C180.524 54.8129 180.442 54.7585 180.105 54.7313C179.337 54.6177 178.598 54.3555 177.931 53.9596C176.66 53.1866 175.736 51.9549 175.348 50.5193C174.995 48.9432 175.169 47.9758 175.142 46.8726L175.18 43.6117L175.261 37.0518V35.5463L175.191 34.7311C175.191 34.4322 175.076 34.4322 175.055 34.2637C174.943 33.9564 174.75 33.6852 174.496 33.4785C174.242 33.2719 173.938 33.1376 173.614 33.0898C173.449 33.0484 173.279 33.0301 173.108 33.0354C172.893 33.034 172.677 33.0577 172.467 33.1061C172.13 33.1594 171.813 33.3 171.548 33.5137C171.07 33.8996 170.868 34.5681 170.841 35.5409L170.58 48.6606C170.58 50.8345 170.95 52.6063 172.358 54.1607C173.766 55.715 175.511 57.0629 177.055 58.6716L177.017 58.6335C182.628 63.6064 188.178 68.6554 193.871 73.5576L195.567 75.4381C196.074 76.112 196.569 76.7968 197.051 77.4925C197.431 78.2479 197.899 78.9599 198.214 79.7425C198.546 80.5198 198.819 81.321 199.03 82.1392C199.253 82.9512 199.42 83.7774 199.53 84.6121C199.633 85.4491 199.769 86.2752 199.791 87.1121C199.932 88.7643 199.932 90.3948 199.932 92.0741ZM199.639 92.0741C199.601 90.4111 199.584 88.748 199.427 87.0958C199.371 86.2686 199.271 85.445 199.128 84.6284C199.004 83.8103 198.823 83.0021 198.584 82.2099C198.366 81.4172 198.089 80.6416 197.758 79.8892C197.442 79.1338 196.975 78.449 196.594 77.7153L195.121 75.737L193.436 73.9272C187.727 69.0739 181.894 64.3564 176.131 59.5629C174.593 58.0683 172.837 56.8455 171.195 55.177C169.466 53.5465 168.743 50.7802 168.748 48.6171L168.487 35.4974C168.487 34.3181 168.732 32.6441 169.988 31.5952C170.562 31.1006 171.255 30.7636 171.999 30.6169C172.321 30.5419 172.648 30.4982 172.978 30.4865C173.355 30.46 173.733 30.4838 174.103 30.5572C174.865 30.6771 175.581 30.9947 176.181 31.4783C176.781 31.9618 177.244 32.5943 177.523 33.3126C177.751 33.9302 177.883 34.579 177.914 35.2366L177.947 37.0083L178.028 43.5682L178.067 46.8291C178.099 47.916 178.023 49.1552 178.202 49.6987C178.39 50.3974 178.843 50.9957 179.464 51.3672C179.744 51.5362 180.051 51.6574 180.372 51.7259L181.035 51.7856H181.856H188.418L194.942 51.753C195.31 51.7454 195.674 51.6644 196.011 51.5149C196.348 51.3654 196.651 51.1503 196.904 50.8822C197.157 50.6141 197.355 50.2983 197.484 49.9533C197.614 49.6083 197.674 49.2409 197.66 48.8726L197.605 35.9431C197.464 31.8126 196.562 27.7093 194.376 24.2093C193.312 22.4213 192.034 20.7697 190.571 19.2907C189.195 17.7762 187.585 16.4918 185.803 15.4863C182.253 13.4211 178.137 12.7961 173.842 12.6657C169.629 12.557 165.318 12.9265 161.55 14.5244C157.745 16.0189 154.63 19.0625 152.091 22.3723C149.639 25.7702 148.117 29.7493 147.676 33.9159C147.388 38.1877 147.513 42.6116 147.41 46.9595C147.41 49.1334 147.339 51.3454 147.41 53.4541C147.564 55.556 148.027 57.6236 148.785 59.5901C149.651 61.5184 150.806 63.3035 152.21 64.8836C153.629 66.5684 155.282 67.851 156.886 69.4054L166.579 78.2479C168.172 79.7153 169.841 81.1827 171.401 82.7099C172.962 84.2371 174.663 85.6284 175.952 87.5686C176.566 88.5689 176.938 89.6984 177.039 90.8676C177.104 91.9546 177.137 93.0959 177.126 94.172L177.164 100.732C177.164 102.949 177.273 105.025 177.126 107.362C177.055 108.004 176.817 108.616 176.436 109.137C176.054 109.658 175.542 110.069 174.951 110.33C173.829 110.853 172.562 110.981 171.358 110.694C170.709 110.582 170.098 110.311 169.58 109.906C169.061 109.502 168.65 108.975 168.384 108.373C167.9 107.118 168.047 105.971 167.998 104.917L167.9 98.3568L167.802 91.7969C167.871 90.9378 167.615 90.0842 167.085 89.4049C166.554 88.7255 165.788 88.27 164.937 88.1284C160.773 88.0686 156.239 88.2208 151.89 88.2534C150.672 88.2534 150.025 88.2806 149.307 88.6882C148.64 89.066 148.136 89.678 147.894 90.4056C147.638 91.1013 147.747 92.2317 147.731 93.3459V96.6068C147.834 100.955 147.551 105.476 148.095 109.515C148.65 113.638 150.345 117.524 152.988 120.737C153.647 121.584 154.357 122.389 155.113 123.151C155.834 123.896 156.595 124.601 157.391 125.265C159.017 126.541 160.824 127.569 162.752 128.314C166.628 129.716 171.048 130.047 175.31 129.944C179.592 129.913 183.801 128.834 187.57 126.803C191.192 124.464 194.223 121.318 196.426 117.612C198.533 113.808 199.6 109.515 199.519 105.167L199.639 92.0741Z" fill="#090609"/>
<g style="mix-blend-mode:multiply">
<g style="mix-blend-mode:multiply">
<path d="M163.899 124.439C158.255 118.96 155.684 113.025 155.684 105.601V91.4328C155.684 90.2797 156.142 89.1738 156.958 88.3584C157.773 87.543 158.88 87.085 160.033 87.085H149.867C148.713 87.085 147.607 87.543 146.791 88.3584C145.976 89.1738 145.518 90.2797 145.518 91.4328V105.612C145.518 113.015 148.094 118.971 153.727 124.45C158.234 128.955 163.551 130.89 171.765 130.89C173.48 130.892 175.194 130.792 176.897 130.591C171.417 129.89 167.411 127.95 163.899 124.439Z" fill="#B3B3B3"/>
</g>
<g style="mix-blend-mode:multiply">
<path d="M168.705 81.7752C171.353 84.3404 173.054 85.7752 174.104 87.1394C175.154 87.2646 176.122 87.771 176.823 88.5624C177.525 89.3539 177.911 90.3754 177.909 91.4329V106.727C177.909 109.944 180.965 110.27 181.932 110.27C182.737 110.27 185.798 109.944 185.798 106.727V92.5688C185.798 87.5796 184.346 87.0959 178.872 81.786L162.127 66.6554C157.778 62.3076 155.685 58.1173 155.685 51.0357V36.5355C155.685 29.1333 158.256 23.0137 163.899 17.5408C167.406 14.1549 171.413 12.2364 176.947 11.5625C175.277 11.3593 173.595 11.2613 171.913 11.269C163.535 11.269 158.218 13.1983 153.711 17.5462C148.079 23.0191 145.502 29.1387 145.502 36.541V51.0303C145.502 58.0956 147.59 62.2967 151.939 66.65L168.705 81.7752Z" fill="#B3B3B3"/>
</g>
</g>
<path d="M133.426 24.8993C133.426 25.5157 133.304 26.1261 133.068 26.6955C132.832 27.2649 132.486 27.7822 132.05 28.2178C131.613 28.6534 131.095 28.9988 130.526 29.2341C129.956 29.4695 129.345 29.5903 128.728 29.5896V29.5896C128.112 29.5903 127.501 29.4695 126.931 29.2341C126.361 28.9988 125.844 28.6534 125.407 28.2178C124.971 27.7822 124.625 27.2649 124.389 26.6955C124.153 26.1261 124.031 25.5157 124.031 24.8993V4.79042C124.031 3.54504 124.526 2.35067 125.407 1.47006C126.288 0.589441 127.483 0.0947266 128.728 0.0947266V0.0947266C129.974 0.0947266 131.169 0.589441 132.05 1.47006C132.931 2.35067 133.426 3.54504 133.426 4.79042V24.8993Z" fill="#090609"/>
<path d="M137.727 24.0895C137.727 24.6541 137.616 25.2131 137.399 25.7347C137.183 26.2562 136.867 26.7301 136.467 27.1293C136.068 27.5285 135.594 27.8452 135.072 28.0612C134.55 28.2773 133.991 28.3885 133.426 28.3885C132.861 28.3892 132.301 28.2785 131.778 28.0629C131.256 27.8472 130.781 27.5308 130.38 27.1316C129.98 26.7324 129.662 26.2583 129.445 25.7363C129.228 25.2144 129.116 24.6548 129.115 24.0895V5.61105C129.115 5.04533 129.227 4.48515 129.444 3.96256C129.66 3.43998 129.978 2.96523 130.378 2.56546C130.779 2.16569 131.254 1.84873 131.777 1.63274C132.3 1.41674 132.861 1.30593 133.426 1.30664V1.30664C133.992 1.30664 134.551 1.41803 135.073 1.63441C135.595 1.8508 136.07 2.16794 136.469 2.56771C136.869 2.96748 137.185 3.44204 137.401 3.96424C137.617 4.48644 137.727 5.04604 137.727 5.61105V24.0895Z" fill="#48BAD6"/>
<path d="M137.726 24.0899C137.727 25.0155 137.438 25.9181 136.9 26.6714C136.27 27.5478 135.346 28.1688 134.296 28.4215C133.595 28.5751 132.869 28.5684 132.171 28.4018C131.474 28.2352 130.823 27.9131 130.267 27.4595C129.604 26.9152 129.107 26.196 128.832 25.3834C128.589 24.5333 128.464 23.6535 128.462 22.7692C128.343 21.0573 128.218 19.2475 128.093 17.3724C127.968 15.4974 127.826 13.568 127.767 11.6061C127.707 9.64408 127.68 7.80168 127.652 5.4973L127.734 4.75273C127.798 4.40159 127.891 4.05623 128.011 3.7201C128.236 3.07985 128.583 2.48927 129.033 1.98096C129.888 0.967892 131.078 0.296443 132.388 0.0896295L133.35 0.0244141C133.643 0.0407812 133.935 0.0734367 134.225 0.122237C134.869 0.232474 135.486 0.460983 136.046 0.796169C137.082 1.42473 137.878 2.38115 138.308 3.51359C138.626 4.52108 138.715 5.58686 138.569 6.63318C138.507 7.53537 138.448 8.4158 138.39 9.27451C138.27 10.9865 138.161 12.6115 138.058 14.1061C137.862 17.1007 137.781 19.6007 137.764 21.3453C137.748 23.0899 137.726 24.0899 137.726 24.0899ZM137.726 24.0899C137.726 24.0899 137.726 23.0899 137.688 21.3453C137.65 19.6007 137.59 17.1007 137.4 14.1061C137.297 12.6115 137.183 10.9865 137.063 9.27451C136.873 7.64406 137.025 5.47013 136.416 4.33968C136.071 3.71965 135.527 3.23352 134.872 2.95923C134.587 2.82079 134.28 2.73255 133.964 2.69836C133.77 2.68818 133.576 2.68818 133.382 2.69836L132.882 2.77988C132.239 2.96452 131.669 3.34435 131.251 3.86685C131.044 4.10674 130.887 4.38579 130.789 4.6875C130.789 4.83424 130.691 4.84511 130.67 5.09511L130.599 5.8397C130.572 7.53537 130.599 9.74734 130.485 11.6495C130.371 13.5517 130.294 15.5463 130.159 17.4159C130.023 19.2855 129.903 21.1007 129.789 22.8127C129.683 23.5935 129.683 24.3852 129.789 25.166C129.926 25.8628 130.253 26.5081 130.735 27.0301C131.183 27.5021 131.74 27.8579 132.356 28.0672C132.973 28.2764 133.631 28.3327 134.274 28.2312C134.788 28.1556 135.281 27.9781 135.726 27.7094C136.17 27.4406 136.556 27.0859 136.862 26.666C137.416 25.9204 137.718 25.0184 137.726 24.0899Z" fill="#090609"/>
<g style="mix-blend-mode:multiply">
<g style="mix-blend-mode:multiply">
<path d="M87.8465 124.596C82.6981 119.444 79.8004 113.651 79.8004 105.759V36.3725C79.8004 28.6442 82.6981 22.693 87.8465 17.5408C91.5542 13.9538 96.1481 12.2364 101.166 11.5896C99.379 11.3652 97.5794 11.2562 95.7784 11.2635C88.7109 11.2635 82.0946 12.7092 77.0984 17.5408C71.9446 22.693 69.0469 28.6442 69.0469 36.3725V105.759C69.0469 113.651 71.9446 119.444 77.0984 124.596C82.0946 129.585 88.6946 130.879 95.7784 130.879C97.5787 130.885 99.3779 130.784 101.166 130.575C96.1481 129.96 91.5542 128.297 87.8465 124.596Z" fill="#B3B3B3"/>
</g>
</g>
<path d="M57.913 32.6606C58.8353 40.7699 59.3144 48.9234 59.3482 57.0848C59.3482 57.1853 59.3372 57.2856 59.3156 57.3838V57.4327C58.125 62.6229 56.7278 67.7589 55.2763 72.9002C53.8247 78.0416 52.1339 83.1014 50.2148 88.1178C50.8672 82.7862 51.786 77.5253 52.8624 72.3024C53.9389 67.0795 55.1512 61.8892 56.5267 56.737L56.4832 57.0848C56.5125 48.9234 56.9898 40.7698 57.913 32.6606V32.6606Z" fill="white"/>
<path d="M117.595 35.5791C117.595 35.5791 117.725 36.6987 117.883 38.6498C118.041 40.6009 118.274 43.3944 118.427 46.7477C118.802 53.4489 119.052 62.3783 119.063 71.3132C119.074 80.2481 118.807 89.183 118.432 95.8841C118.269 99.232 117.997 102.025 117.888 103.977C117.78 105.928 117.6 107.047 117.6 107.047C117.6 107.047 117.47 105.933 117.318 103.977C117.165 102.02 116.921 99.232 116.774 95.8841C116.404 89.183 116.16 80.2481 116.149 71.3132C116.138 62.3783 116.404 53.4489 116.779 46.7477C116.948 43.3944 117.209 40.6063 117.323 38.6498C117.437 36.6932 117.595 35.5791 117.595 35.5791Z" fill="white"/>
<path d="M180.566 16.0684C184.375 16.8956 187.833 18.886 190.461 21.7641C191.826 23.2198 192.93 24.9003 193.723 26.7315C194.136 27.6426 194.474 28.586 194.734 29.5522C195.011 30.5142 195.087 31.5142 195.278 32.4925V32.6229V32.6609C195.234 38.1433 194.755 43.6136 193.842 49.0198C192.93 43.6136 192.45 38.1433 192.407 32.6609V32.8294C192.217 31.987 192.135 31.1229 191.864 30.3022C191.664 29.4679 191.394 28.6516 191.059 27.862C190.782 27.0467 190.309 26.3185 189.972 25.5304C189.537 24.7781 189.057 24.0522 188.536 23.3565C186.351 20.4571 183.649 17.9862 180.566 16.0684V16.0684Z" fill="white"/>
<path d="M195.322 85.0796C196.507 93.0471 196.773 101.015 196.795 108.993V109.026C196.795 109.112 196.784 109.198 196.762 109.281C196.528 110.274 196.236 111.252 195.887 112.21C195.559 113.154 195.176 114.078 194.74 114.977C193.877 116.784 192.814 118.489 191.57 120.058C190.956 120.848 190.279 121.587 189.548 122.27C188.823 122.957 188.047 123.587 187.227 124.156C186.413 124.722 185.546 125.208 184.639 125.607C183.75 126.012 182.826 126.332 181.877 126.564C182.687 126.06 183.47 125.516 184.226 124.933C184.969 124.367 185.669 123.746 186.319 123.075C186.969 122.421 187.577 121.728 188.14 120.998C188.684 120.265 189.227 119.531 189.722 118.748C190.681 117.187 191.513 115.551 192.212 113.857C192.538 113.004 192.891 112.156 193.169 111.286C193.455 110.44 193.693 109.578 193.881 108.705L193.848 108.998C193.87 101.015 194.142 93.0471 195.322 85.0796Z" fill="white"/>
</svg>
