<svg width="186" height="97" viewBox="0 0 186 97" fill="none" xmlns="http://www.w3.org/2000/svg">
<path d="M178.807 84.6718C168.067 97.7255 126.266 96.5643 93.1494 96.5643C60.0332 96.5643 18.2451 97.7255 7.50437 84.6718C6.57171 83.496 5.7868 82.2104 5.1672 80.8438C-3.0065 63.6942 -1.09079 19.4165 13.8901 11.2245C30.1481 2.29237 65.8569 0.199707 93.1494 0.199707C120.442 0.199707 156.164 2.33065 172.422 11.2245C172.891 11.485 173.343 11.7748 173.775 12.0921C176.853 14.3507 179.318 18.2043 181.196 23.0276C188.462 41.6957 187.109 74.6041 178.807 84.6718Z" fill="#F5DF53"/>
<g style="mix-blend-mode:multiply" opacity="0.15">
<path d="M144.388 11.749H43.5449V82.1595H144.388V11.749Z" fill="#520000"/>
</g>
<path d="M141.004 15.3589H46.9297V78.5471H141.004V15.3589Z" fill="url(#paint0_linear_821_2818)"/>
<g style="mix-blend-mode:multiply" opacity="0.15">
<path d="M144.388 18.0398V11.749L141.004 15.3601V78.5483L144.388 82.1595V18.0398Z" fill="#520000"/>
</g>
<g style="mix-blend-mode:multiply" opacity="0.15">
<path d="M46.9293 30.8637V15.3601L43.5449 11.749V82.1595L46.9293 78.5483V30.8637Z" fill="#520000"/>
</g>
<g style="mix-blend-mode:screen" opacity="0.15">
<path d="M115.717 78.5471H95.1679L75.998 15.3589H96.5345L115.717 78.5471Z" fill="white"/>
</g>
<g style="mix-blend-mode:screen" opacity="0.15">
<path d="M138.896 78.5471H125.243L106.061 15.3589H119.726L138.896 78.5471Z" fill="white"/>
</g>
<g style="mix-blend-mode:screen" opacity="0.15">
<path d="M83.1126 78.5471H71.5928L52.4102 15.3589H63.93L83.1126 78.5471Z" fill="white"/>
</g>
<g style="mix-blend-mode:multiply" opacity="0.1">
<path d="M178.808 84.6722C168.067 97.7259 126.267 96.5647 93.1504 96.5647C93.1504 96.5647 157.901 92.6218 171.631 80.8953C181.005 72.8819 181.695 41.913 181.196 23.0918C188.463 41.6961 187.11 74.6045 178.808 84.6722Z" fill="#B00000"/>
</g>
<g style="mix-blend-mode:multiply" opacity="0.15">
<path d="M178.806 84.6715C168.065 97.7251 126.265 96.5639 93.1482 96.5639C60.032 96.5639 18.2439 97.7251 7.50319 84.6715C6.57053 83.4957 5.78562 82.2101 5.16602 80.8435C33.7867 85.3478 59.0103 86.19 93.1227 86.3941C127.235 86.5983 156.98 83.8421 166.431 77.0792C173.991 71.6434 175.179 29.05 173.774 12.0918C176.852 14.3503 179.317 18.2039 181.194 23.0272C188.461 41.6953 187.108 74.6037 178.806 84.6715Z" fill="#B00000"/>
</g>
<g style="mix-blend-mode:screen" opacity="0.15">
<path d="M156.024 14.8995C161.835 12.8579 164.874 24.4952 165.04 38.3782C165.206 52.2612 160.864 62.8904 155.577 63.2605C150.289 63.6305 147.582 46.4426 147.773 39.0162C147.965 31.5898 150.213 16.9284 156.024 14.8995Z" fill="#3C3C3C"/>
</g>
<g style="mix-blend-mode:screen" opacity="0.15">
<path d="M151.347 32.6355C152.842 32.1123 153.621 35.0982 153.672 38.671C153.723 42.2439 152.599 44.9873 151.232 45.0511C149.866 45.1149 149.176 40.7254 149.227 38.8241C149.278 36.9229 149.815 33.1586 151.347 32.6355Z" fill="#3C3C3C"/>
</g>
<g style="mix-blend-mode:screen" opacity="0.15">
<path d="M10.8628 42.7048C12.3571 42.1816 13.1361 45.1675 13.1744 48.7403C13.2128 52.3132 12.1017 55.1204 10.7479 55.1204C9.39412 55.1204 8.69169 50.7947 8.73 48.8935C8.76832 46.9922 9.34303 43.228 10.8628 42.7048Z" fill="#3C3C3C"/>
</g>
<g style="mix-blend-mode:screen" opacity="0.15">
<path d="M15.0782 26.2179C20.8892 24.1763 23.9288 35.8135 24.0948 49.6966C24.2608 63.5796 19.9186 74.2088 14.6312 74.5788C9.34383 74.9489 6.63629 57.761 6.82787 50.3984C7.01944 43.0358 9.26721 28.2085 15.0782 26.2179Z" fill="#3C3C3C"/>
</g>
<g style="mix-blend-mode:screen" opacity="0.15">
<path d="M143.43 5.75065C146.687 8.08576 128.105 9.29799 105.857 9.37455C83.609 9.45111 66.6358 7.69021 66.0483 5.54651C65.4608 3.4028 92.9577 2.3437 104.746 2.4075C116.534 2.47131 140.174 3.40279 143.43 5.75065Z" fill="#3C3C3C"/>
</g>
<g style="mix-blend-mode:screen" opacity="0.15">
<path d="M92.9837 5.82638C93.6989 6.84719 89.612 7.38311 84.7334 7.40863C79.8547 7.43415 76.1127 6.6813 75.9977 5.7498C75.8828 4.81831 81.8981 4.3462 84.4907 4.38448C87.0833 4.42276 92.2685 4.80557 92.9837 5.82638Z" fill="#3C3C3C"/>
</g>
<g style="mix-blend-mode:multiply" opacity="0.15">
<path d="M10.9659 28.2095C10.2509 26.0945 10.2964 23.7966 11.0946 21.7114C11.8927 19.6263 13.3935 17.8845 15.3386 16.7859C17.2837 15.6872 19.5513 15.3006 21.751 15.6925C23.9507 16.0844 25.9448 17.2303 27.3899 18.9329C27.4336 18.9949 27.4805 19.0545 27.5304 19.1116C28.2291 19.9871 28.7733 20.9753 29.1396 22.0336C29.7885 23.9506 29.8142 26.0234 29.213 27.9559C28.6118 29.8883 27.4145 31.5814 25.7923 32.7931C24.1701 34.0048 22.206 34.673 20.1808 34.7023C18.1556 34.7317 16.173 34.1205 14.5163 32.9563C12.8556 31.7937 11.6113 30.1302 10.9659 28.2095Z" fill="#B00000"/>
</g>
<path d="M11.2328 27.4308C10.5514 25.4346 10.5894 23.2632 11.3404 21.292C12.0913 19.3208 13.508 17.6738 15.3455 16.6355C17.183 15.5972 19.3259 15.233 21.4036 15.6059C23.4814 15.9787 25.3635 17.0651 26.7246 18.6774C26.7753 18.7337 26.8222 18.7934 26.865 18.856C27.7789 19.9883 28.4056 21.3244 28.6919 22.7506C28.9782 24.1768 28.9155 25.651 28.5092 27.0478C28.103 28.4446 27.3652 29.7228 26.3585 30.7736C25.3518 31.8245 24.106 32.6169 22.7271 33.0836C21.9452 33.357 21.1279 33.516 20.3005 33.5557C18.2623 33.6661 16.2463 33.0861 14.5789 31.9096C13.0128 30.8127 11.84 29.243 11.2328 27.4308Z" fill="#B3B3B3"/>
<path d="M17.415 18.2935C17.9835 18.069 18.5814 17.9272 19.1903 17.8724C20.6872 17.7313 22.1876 18.105 23.4431 18.9315C24.5247 19.6386 25.3768 20.6451 25.8952 21.8281L26.0485 22.1854C26.5806 23.5709 26.6352 25.0941 26.2039 26.5141C25.7725 27.9342 24.8797 29.1701 23.6666 30.0264C22.4535 30.8827 20.9893 31.3106 19.5056 31.2425C18.0218 31.1743 16.6031 30.614 15.4738 29.65C15.2542 29.4755 15.0492 29.2835 14.8607 29.0758L14.7586 28.9482C14.2464 28.3612 13.8441 27.6869 13.5708 26.9576C13.2483 26.1371 13.0919 25.2607 13.1109 24.3794C13.1299 23.498 13.3238 22.6292 13.6814 21.8232C14.039 21.0173 14.5531 20.2903 15.194 19.6844C15.835 19.0785 16.5899 18.6057 17.415 18.2935Z" fill="#E6E6E6"/>
<g style="mix-blend-mode:screen" opacity="0.7">
<g style="mix-blend-mode:screen" opacity="0.7">
<path d="M21.9492 17.0443C20.5887 16.8578 19.2031 17.0067 17.9134 17.4781C16.6649 17.896 15.5289 18.5944 14.5929 19.5197C13.6954 20.4737 13.0693 21.6499 12.7793 22.9267C12.4699 24.2687 12.3538 25.6479 12.4345 27.0227C11.8972 25.6704 11.7127 24.2039 11.8981 22.7608C11.9854 22.0153 12.1879 21.2879 12.4984 20.6044C12.8085 19.9079 13.2411 19.2726 13.7755 18.7286C14.8209 17.6699 16.1522 16.9383 17.6069 16.6232C18.327 16.4603 19.0672 16.4044 19.8036 16.4573C20.5505 16.5098 21.2797 16.7093 21.9492 17.0443Z" fill="white"/>
</g>
</g>
<g style="mix-blend-mode:multiply" opacity="0.05">
<path d="M17.415 18.2935C17.9835 18.069 18.5814 17.9272 19.1903 17.8724C20.6872 17.7313 22.1876 18.105 23.4431 18.9315C24.5247 19.6386 25.3768 20.6451 25.8952 21.8281C24.6608 20.8464 23.1532 20.2694 21.5783 20.1757C20.0034 20.0821 18.438 20.4764 17.0957 21.3049C12.5364 24.2653 15.4738 29.65 15.4738 29.65C15.2542 29.4755 15.0492 29.2835 14.8607 29.0758L14.7586 28.9482C14.2464 28.3612 13.8441 27.6869 13.5708 26.9576C13.2483 26.1371 13.0919 25.2607 13.1109 24.3794C13.1299 23.498 13.3238 22.6292 13.6814 21.8232C14.039 21.0173 14.5531 20.2903 15.194 19.6844C15.835 19.0785 16.5899 18.6057 17.415 18.2935Z" fill="#363A4D"/>
</g>
<g style="mix-blend-mode:multiply" opacity="0.15">
<path d="M157.097 28.2095C156.382 26.0945 156.427 23.7966 157.225 21.7114C158.024 19.6263 159.524 17.8845 161.469 16.7859C163.415 15.6872 165.682 15.3006 167.882 15.6925C170.082 16.0844 172.076 17.2303 173.521 18.9329L173.674 19.1116C174.369 19.9878 174.909 20.976 175.27 22.0336C176.087 24.4433 175.913 27.078 174.788 29.36C173.663 31.642 171.678 33.385 169.268 34.2068C168.443 34.4848 167.583 34.6479 166.714 34.6917C164.558 34.8105 162.425 34.1991 160.66 32.9563C158.998 31.7918 157.75 30.1294 157.097 28.2095Z" fill="#B00000"/>
</g>
<path d="M157.365 27.4303C156.694 25.4343 156.739 23.267 157.494 21.3008C158.248 19.3347 159.664 17.6925 161.499 16.6566C163.334 15.6206 165.473 15.2557 167.548 15.6243C169.623 15.993 171.505 17.0724 172.87 18.6768C172.912 18.7394 172.959 18.7991 173.01 18.8555C173.665 19.6821 174.175 20.6141 174.517 21.6116C174.901 22.7368 175.059 23.9266 174.982 25.1128C174.906 26.2991 174.596 27.4586 174.07 28.5252C173.545 29.5917 172.814 30.5443 171.92 31.3286C171.026 32.1128 169.986 32.7133 168.859 33.0958C168.077 33.3691 167.26 33.5282 166.433 33.5679C164.398 33.6805 162.386 33.1001 160.724 31.9219C159.151 30.8237 157.973 29.2489 157.365 27.4303Z" fill="#B3B3B3"/>
<path d="M163.546 18.2937C164.114 18.0692 164.712 17.9274 165.321 17.8726C166.822 17.7337 168.325 18.1071 169.587 18.9317C170.659 19.6231 171.507 20.6119 172.026 21.7772C172.026 21.8921 172.115 22.0197 172.166 22.1345C172.699 23.5201 172.753 25.0433 172.322 26.4633C171.89 27.8833 170.998 29.1192 169.785 29.9755C168.571 30.8319 167.107 31.2598 165.624 31.1916C164.14 31.1235 162.721 30.5631 161.592 29.5992C161.376 29.4244 161.176 29.2324 160.991 29.025L160.877 28.8974C160.364 28.3104 159.962 27.6361 159.689 26.9068C159.057 25.2536 159.109 23.4176 159.832 21.8024C160.556 20.1873 161.891 18.9252 163.546 18.2937Z" fill="#E6E6E6"/>
<g style="mix-blend-mode:screen" opacity="0.7">
<g style="mix-blend-mode:screen" opacity="0.7">
<path d="M168.081 17.0438C166.749 16.885 165.399 17.0248 164.129 17.453C162.859 17.8812 161.7 18.5871 160.737 19.5193C159.84 20.4733 159.213 21.6495 158.923 22.9262C158.604 24.2666 158.483 25.6468 158.566 27.0223C158.035 25.6685 157.85 24.2035 158.029 22.7604C158.123 22.0161 158.325 21.2895 158.63 20.6039C158.945 19.9105 159.377 19.2762 159.907 18.7282C160.973 17.6564 162.333 16.9238 163.815 16.6227C164.535 16.4589 165.275 16.403 166.012 16.4568C166.732 16.5191 167.435 16.7184 168.081 17.0438Z" fill="white"/>
</g>
</g>
<g style="mix-blend-mode:multiply" opacity="0.05">
<path d="M163.544 18.2937C164.113 18.0692 164.711 17.9274 165.32 17.8726C166.82 17.7337 168.324 18.1071 169.585 18.9317C170.658 19.6231 171.506 20.6119 172.025 21.7772C170.79 20.7956 169.283 20.2186 167.708 20.1249C166.133 20.0313 164.567 20.4256 163.225 21.2541C158.666 24.2144 161.603 29.5992 161.603 29.5992C161.388 29.4244 161.187 29.2324 161.003 29.025L160.888 28.8974C160.376 28.3104 159.973 27.6361 159.7 26.9068C159.068 25.2553 159.118 23.4206 159.839 21.8057C160.56 20.1908 161.892 18.9277 163.544 18.2937Z" fill="#363A4D"/>
</g>
<g style="mix-blend-mode:multiply" opacity="0.15">
<path d="M100.006 89.4566V92.5446C100.017 92.7022 99.9958 92.8602 99.9449 93.0097C99.894 93.1592 99.814 93.2972 99.7096 93.4158C99.6052 93.5343 99.4783 93.6311 99.3364 93.7006C99.1944 93.7701 99.0401 93.8108 98.8824 93.8206H88.0394C87.8012 93.8098 87.5726 93.7237 87.3867 93.5746C87.2007 93.4255 87.067 93.2212 87.005 92.9911C86.9569 92.8517 86.9352 92.7046 86.9411 92.5573V89.4566C86.9289 89.3007 86.9477 89.1439 86.9964 88.9952C87.045 88.8466 87.1226 88.709 87.2247 88.5904C87.3268 88.4718 87.4513 88.3746 87.5911 88.3042C87.7309 88.2339 87.8833 88.1919 88.0394 88.1806H98.8824C98.9879 88.1612 99.0961 88.1612 99.2017 88.1806C99.4541 88.2803 99.6681 88.4577 99.8128 88.6871C99.9575 88.9166 100.025 89.1861 100.006 89.4566Z" fill="#B00000"/>
</g>
<path d="M99.3692 89.8143V92.2388C99.3692 92.3711 99.3431 92.5022 99.2923 92.6245C99.2416 92.7469 99.1673 92.858 99.0736 92.9516C98.98 93.0452 98.8687 93.1194 98.7463 93.1701C98.6239 93.2207 98.4927 93.2468 98.3602 93.2468H88.5773C88.3707 93.2462 88.1693 93.1822 88.0003 93.0636C87.8313 92.9449 87.7028 92.7773 87.6322 92.5833C87.5902 92.4733 87.5685 92.3565 87.5684 92.2388V89.8143C87.5683 89.6826 87.5945 89.5521 87.6454 89.4305C87.6963 89.3089 87.7708 89.1986 87.8646 89.106C87.9585 89.0134 88.0698 88.9404 88.1922 88.8911C88.3145 88.8419 88.4454 88.8174 88.5773 88.8191H98.3602C98.4577 88.8058 98.5565 88.8058 98.654 88.8191C98.8672 88.8815 99.0534 89.0134 99.183 89.1937C99.3126 89.374 99.3781 89.5925 99.3692 89.8143Z" fill="#E83C4A"/>
<g style="mix-blend-mode:multiply" opacity="0.25">
<path d="M99.3678 89.8144V92.2389C99.3678 92.3712 99.3417 92.5023 99.291 92.6246C99.2403 92.7469 99.166 92.8581 99.0723 92.9517C98.9786 93.0453 98.8674 93.1195 98.7449 93.1702C98.6225 93.2208 98.4913 93.2469 98.3588 93.2469H88.576C88.3694 93.2463 88.168 93.1823 87.999 93.0637C87.8299 92.945 87.7015 92.7774 87.6309 92.5834C88.4738 92.5834 97.848 92.9279 98.5121 92.1623C99.0102 91.6008 98.8186 89.8527 98.6526 88.8574C98.8594 88.9182 99.0409 89.0443 99.1698 89.2168C99.2988 89.3894 99.3682 89.5991 99.3678 89.8144Z" fill="#A80000"/>
</g>
<g style="mix-blend-mode:multiply" opacity="0.25">
<path d="M99.3678 89.8143V92.2388C99.3678 92.3711 99.3417 92.5022 99.291 92.6245C99.2403 92.7469 99.166 92.858 99.0723 92.9516C98.9786 93.0452 98.8674 93.1194 98.7449 93.1701C98.6225 93.2207 98.4913 93.2468 98.3588 93.2468H88.576C88.3694 93.2462 88.168 93.1822 87.999 93.0636C87.8299 92.9449 87.7015 92.7773 87.6309 92.5833C88.4482 92.5833 97.6436 92.1367 98.0906 91.6901C98.5376 91.2435 98.295 89.7378 98.18 88.8191H98.3588C98.4563 88.8058 98.5551 88.8058 98.6526 88.8191C98.8658 88.8815 99.0521 89.0134 99.1816 89.1937C99.3112 89.374 99.3768 89.5925 99.3678 89.8143Z" fill="#A80000"/>
</g>
<g style="mix-blend-mode:screen" opacity="0.15">
<path d="M88.5632 89.6364C88.3209 89.951 88.1895 90.3368 88.1895 90.7337C88.1895 91.1307 88.3209 91.5165 88.5632 91.8311C89.0485 92.2777 96.226 91.5759 96.673 91.1931C96.7858 91.1001 96.8783 90.985 96.9449 90.8549C97.0116 90.7249 97.0509 90.5826 97.0604 90.4368C97.07 90.291 97.0496 90.1448 97.0006 90.0072C96.9515 89.8695 96.8748 89.7433 96.7752 89.6364C96.4304 89.2408 89.0485 89.2153 88.5632 89.6364Z" fill="white"/>
</g>
<g style="mix-blend-mode:screen" opacity="0.15">
<path d="M88.5137 90.1335C88.5137 90.4908 89.3821 90.5035 89.7908 90.4908C90.1995 90.478 91.068 90.3376 91.068 90.0186C91.068 89.6996 90.34 89.6231 89.7908 89.6486C89.2416 89.6741 88.5137 89.7762 88.5137 90.1335Z" fill="white"/>
</g>
<g style="mix-blend-mode:multiply" opacity="0.15">
<path d="M40.4415 47.745H34.6816V41.8626C34.6816 41.6934 34.6144 41.5311 34.4946 41.4114C34.3748 41.2918 34.2124 41.2246 34.0431 41.2246H28.1171C27.9478 41.2246 27.7853 41.2918 27.6656 41.4114C27.5458 41.5311 27.4786 41.6934 27.4786 41.8626V47.745H21.7186C21.5493 47.745 21.3869 47.8122 21.2671 47.9319C21.1474 48.0515 21.0801 48.2138 21.0801 48.383V54.0358C21.0801 54.205 21.1474 54.3673 21.2671 54.4869C21.3869 54.6066 21.5493 54.6738 21.7186 54.6738H27.4658V60.5689C27.4691 60.7371 27.5374 60.8975 27.6564 61.0165C27.7755 61.1354 27.936 61.2037 28.1044 61.207H34.0303C34.1996 61.207 34.3621 61.1398 34.4818 61.0201C34.6016 60.9005 34.6689 60.7382 34.6689 60.5689V54.6738H40.4288C40.5981 54.6738 40.7605 54.6066 40.8803 54.4869C41.0001 54.3673 41.0673 54.205 41.0673 54.0358V48.383C41.0674 48.216 41.0018 48.0556 40.8848 47.9363C40.7678 47.817 40.6087 47.7484 40.4415 47.745Z" fill="#B00000"/>
</g>
<g style="mix-blend-mode:multiply" opacity="0.15">
<path d="M39.6231 47.7068H33.8504V41.8371C33.8521 41.7701 33.8406 41.7034 33.8165 41.6408C33.7923 41.5783 33.7561 41.521 33.7099 41.4725C33.6636 41.4239 33.6082 41.3848 33.5469 41.3577C33.4855 41.3305 33.4194 41.3156 33.3523 41.314H28.7419C28.6052 41.3173 28.4753 41.3739 28.3798 41.4716C28.2844 41.5694 28.231 41.7006 28.231 41.8371V47.7068H21.9475C21.8804 47.7085 21.8143 47.7233 21.7529 47.7505C21.6916 47.7777 21.6362 47.8167 21.5899 47.8653C21.5437 47.9139 21.5075 47.9711 21.4833 48.0336C21.4592 48.0962 21.4477 48.1629 21.4494 48.23V52.8364C21.4477 52.9034 21.4592 52.9701 21.4833 53.0327C21.5075 53.0953 21.5437 53.1525 21.5899 53.2011C21.6362 53.2497 21.6916 53.2887 21.7529 53.3158C21.8143 53.343 21.8804 53.3579 21.9475 53.3595H28.1799V59.5737C28.1782 59.6418 28.1902 59.7096 28.2151 59.773C28.24 59.8364 28.2773 59.8942 28.3249 59.9429C28.3726 59.9917 28.4295 60.0304 28.4923 60.0569C28.5551 60.0833 28.6226 60.0969 28.6908 60.0969H33.3906C33.4577 60.0952 33.5239 60.0804 33.5852 60.0532C33.6466 60.026 33.7019 59.987 33.7482 59.9384C33.7944 59.8899 33.8307 59.8326 33.8548 59.7701C33.8789 59.7075 33.8904 59.6408 33.8887 59.5737V53.3595H39.6231C39.6902 53.3579 39.7563 53.343 39.8176 53.3158C39.879 53.2887 39.9344 53.2497 39.9806 53.2011C40.0269 53.1525 40.0631 53.0953 40.0872 53.0327C40.1113 52.9701 40.1229 52.9034 40.1212 52.8364V48.23C40.1229 48.1629 40.1113 48.0962 40.0872 48.0336C40.0631 47.9711 40.0269 47.9139 39.9806 47.8653C39.9344 47.8167 39.879 47.7777 39.8176 47.7505C39.7563 47.7233 39.6902 47.7085 39.6231 47.7068Z" fill="#B00000"/>
</g>
<path d="M38.9602 48.1401H33.047V42.2449C33.047 42.0757 32.9797 41.9135 32.86 41.7938C32.7402 41.6742 32.5778 41.6069 32.4084 41.6069H28.909C28.7397 41.6069 28.5773 41.6742 28.4575 41.7938C28.3378 41.9135 28.2705 42.0757 28.2705 42.2449V48.1657H22.3573C22.189 48.1689 22.0285 48.2372 21.9094 48.3561C21.7903 48.4751 21.722 48.6355 21.7188 48.8037V52.3127C21.722 52.4809 21.7903 52.6413 21.9094 52.7602C22.0285 52.8792 22.189 52.9474 22.3573 52.9507H28.296V58.8331C28.296 59.0023 28.3633 59.1646 28.4831 59.2843C28.6028 59.4039 28.7652 59.4711 28.9346 59.4711H32.434C32.6033 59.4711 32.7657 59.4039 32.8855 59.2843C33.0053 59.1646 33.0725 59.0023 33.0725 58.8331V52.9124H38.9602C39.1285 52.9091 39.289 52.8409 39.4081 52.7219C39.5271 52.603 39.5955 52.4426 39.5987 52.2744V48.7654C39.5922 48.5994 39.5225 48.4422 39.4038 48.326C39.2851 48.2097 39.1263 48.1432 38.9602 48.1401Z" fill="#CCCCCC"/>
<g style="mix-blend-mode:screen" opacity="0.7">
<g style="mix-blend-mode:screen" opacity="0.7">
<path d="M22.3574 48.6244L23.9922 48.5606H25.6269H28.8964L28.7431 48.6244C28.7431 47.6036 28.7431 46.5827 28.7431 45.5619C28.7431 44.5411 28.7431 43.5203 28.8453 42.4995C28.8453 43.5203 28.9347 44.5411 28.9602 45.5619C28.9858 46.5827 28.9602 47.6036 28.9602 48.6244V48.7647H28.807C27.7214 48.7647 26.6358 48.7647 25.5375 48.7647H23.9028L22.3574 48.6244Z" fill="white"/>
</g>
</g>
<g style="mix-blend-mode:screen" opacity="0.7">
<g style="mix-blend-mode:screen" opacity="0.7">
<path d="M28.7418 53.3462C28.9289 55.0765 28.9289 56.822 28.7418 58.5523C28.5548 56.822 28.5548 55.0765 28.7418 53.3462Z" fill="white"/>
</g>
</g>
<g style="mix-blend-mode:multiply" opacity="0.15">
<path d="M164.005 59.0256C164.002 59.9918 163.661 60.9267 163.043 61.6696C162.424 62.4124 161.566 62.917 160.616 63.0966C159.666 63.2763 158.682 63.1197 157.835 62.6539C156.988 62.1882 156.329 61.4421 155.972 60.544V60.4547C155.803 59.9972 155.716 59.5133 155.717 59.0256C155.717 57.9223 156.155 56.8642 156.936 56.0841C157.717 55.304 158.776 54.8658 159.88 54.8658C160.26 54.8639 160.639 54.9154 161.004 55.0189C161.91 55.2725 162.702 55.8259 163.252 56.5884C163.755 57.3007 164.019 58.154 164.005 59.0256Z" fill="#B00000"/>
</g>
<path d="M163.302 58.8327C163.296 59.7436 162.972 60.6239 162.388 61.323C161.803 62.0222 160.994 62.4967 160.098 62.6655C159.202 62.8343 158.275 62.6869 157.476 62.2484C156.677 61.81 156.055 61.1077 155.716 60.2618V60.1725C155.568 59.7633 155.49 59.3318 155.486 58.8965C155.486 57.8563 155.899 56.8587 156.634 56.122C157.369 55.3853 158.366 54.9697 159.407 54.9664C159.766 54.9643 160.123 55.0159 160.467 55.1195C161.322 55.3491 162.072 55.8677 162.587 56.5869C163.051 57.244 163.301 58.0284 163.302 58.8327Z" fill="#65A831"/>
<g style="mix-blend-mode:multiply" opacity="0.15">
<path d="M163.303 58.8333C163.31 59.7681 162.982 60.6745 162.38 61.3898C161.777 62.105 160.94 62.5823 160.017 62.736C159.094 62.8897 158.146 62.7097 157.344 62.2283C156.542 61.7469 155.938 60.9956 155.641 60.1093C156.129 60.7789 156.816 61.2774 157.604 61.5336C158.392 61.7898 159.242 61.7906 160.03 61.5359C160.819 61.2812 161.507 60.7841 161.996 60.1154C162.486 59.4468 162.751 58.6408 162.754 57.8125C162.753 57.351 162.671 56.8933 162.512 56.46C163.029 57.1429 163.307 57.9768 163.303 58.8333Z" fill="#363A4D"/>
</g>
<g style="mix-blend-mode:screen" opacity="0.2">
<path d="M158.922 55.7452C159.362 56.0128 159.679 56.442 159.806 56.9406C159.932 57.4392 159.858 57.9675 159.599 58.4121C159.088 59.4457 157.939 60.4027 156.866 59.8668C156.402 59.5634 156.074 59.0912 155.952 58.5504C155.831 58.0097 155.925 57.4429 156.215 56.9702C156.45 56.4806 156.85 56.0894 157.345 55.8654C157.84 55.6413 158.399 55.5988 158.922 55.7452Z" fill="white"/>
</g>
<g style="mix-blend-mode:screen" opacity="0.35">
<path d="M157.837 55.8728C158.028 56.0769 157.926 56.498 157.594 56.8043C157.262 57.1105 156.764 57.353 156.534 57.0978C156.304 56.8426 156.534 56.4342 156.866 56.1535C157.198 55.8728 157.645 55.6686 157.837 55.8728Z" fill="white"/>
</g>
<g style="mix-blend-mode:multiply" opacity="0.15">
<path d="M163.303 58.8327C163.296 59.7436 162.973 60.6239 162.388 61.323C161.804 62.0221 160.994 62.4967 160.098 62.6654C159.202 62.8342 158.276 62.6868 157.476 62.2484C156.677 61.8099 156.055 61.1077 155.717 60.2618C156.409 60.7485 157.211 61.0558 158.052 61.156C158.892 61.2562 159.744 61.1463 160.532 60.836C161.087 60.4804 161.537 59.983 161.836 59.3953C162.135 58.8075 162.271 58.1508 162.23 57.4929C162.128 56.9793 161.914 56.4946 161.602 56.0733C161.291 55.6521 160.891 55.3046 160.429 55.0557C161.285 55.2853 162.034 55.8039 162.55 56.5231C163.04 57.1933 163.304 58.0023 163.303 58.8327Z" fill="#363A4D"/>
</g>
<g style="mix-blend-mode:multiply" opacity="0.15">
<path d="M164.005 42.8566C164.002 43.8229 163.661 44.7577 163.043 45.5006C162.424 46.2435 161.566 46.7481 160.616 46.9277C159.666 47.1073 158.682 46.9508 157.835 46.485C156.988 46.0192 156.329 45.2732 155.972 44.3751V44.2858C155.803 43.8283 155.716 43.3444 155.717 42.8566C155.717 41.7534 156.155 40.6953 156.936 39.9152C157.717 39.1351 158.776 38.6968 159.88 38.6968C160.26 38.6949 160.639 38.7465 161.004 38.8499C161.906 39.1039 162.697 39.6518 163.252 40.4067C163.757 41.1226 164.021 41.9807 164.005 42.8566Z" fill="#B00000"/>
</g>
<path d="M163.303 42.6274C163.296 43.5384 162.972 44.4187 162.388 45.1178C161.803 45.8169 160.994 46.2915 160.098 46.4603C159.202 46.6291 158.275 46.4816 157.476 46.0432C156.677 45.6047 156.055 44.9025 155.716 44.0566V43.9673C155.56 43.5379 155.482 43.0842 155.486 42.6274C155.486 41.5873 155.899 40.5896 156.634 39.8529C157.369 39.1163 158.366 38.7007 159.407 38.6973C159.766 38.6953 160.124 38.7469 160.467 38.8504C161.322 39.0801 162.072 39.5986 162.587 40.3178C163.064 40.9927 163.315 41.8014 163.303 42.6274Z" fill="#04ABCD"/>
<g style="mix-blend-mode:multiply" opacity="0.15">
<path d="M163.303 42.6275C163.326 43.568 163.01 44.4854 162.412 45.2128C161.815 45.9402 160.977 46.4295 160.049 46.5916C159.122 46.7538 158.166 46.5781 157.358 46.0966C156.549 45.615 155.939 44.8595 155.641 43.9673C156.129 44.6369 156.816 45.1354 157.604 45.3916C158.392 45.6477 159.242 45.6485 160.03 45.3939C160.819 45.1392 161.507 44.642 161.996 43.9733C162.486 43.3047 162.751 42.4987 162.754 41.6704C162.753 41.2089 162.671 40.7512 162.512 40.3179C163.016 40.9834 163.293 41.7928 163.303 42.6275Z" fill="#363A4D"/>
</g>
<g style="mix-blend-mode:screen" opacity="0.25">
<path d="M158.922 39.5773C159.362 39.8448 159.679 40.274 159.806 40.7726C159.932 41.2712 159.858 41.7995 159.599 42.2441C159.088 43.2777 157.939 44.2347 156.866 43.6988C156.402 43.3954 156.074 42.9233 155.952 42.3825C155.831 41.8417 155.925 41.2749 156.215 40.8022C156.448 40.3109 156.848 39.9181 157.343 39.6938C157.839 39.4695 158.399 39.4282 158.922 39.5773Z" fill="white"/>
</g>
<g style="mix-blend-mode:screen" opacity="0.35">
<path d="M157.837 39.6924C158.028 39.8966 157.926 40.3177 157.594 40.6239C157.262 40.9302 156.764 41.1726 156.534 40.9174C156.304 40.6622 156.534 40.2539 156.866 39.9731C157.198 39.6924 157.645 39.501 157.837 39.6924Z" fill="white"/>
</g>
<g style="mix-blend-mode:multiply" opacity="0.15">
<path d="M163.303 42.6271C163.296 43.538 162.973 44.4183 162.388 45.1175C161.804 45.8166 160.994 46.2911 160.098 46.4599C159.202 46.6287 158.276 46.4813 157.476 46.0428C156.677 45.6044 156.055 44.9022 155.717 44.0563C156.409 44.543 157.211 44.8503 158.052 44.9505C158.892 45.0507 159.744 44.9407 160.532 44.6304C161.088 44.2728 161.539 43.7732 161.838 43.1832C162.136 42.5932 162.272 41.9343 162.23 41.2745C162.13 40.762 161.916 40.2784 161.604 39.8589C161.293 39.4395 160.891 39.0948 160.429 38.8501C161.285 39.0798 162.034 39.5983 162.55 40.3175C163.04 40.9877 163.304 41.7968 163.303 42.6271Z" fill="#363A4D"/>
</g>
<g style="mix-blend-mode:multiply" opacity="0.15">
<path d="M172.103 50.5515C172.107 51.5236 171.77 52.4663 171.15 53.2159C170.531 53.9656 169.668 54.4749 168.712 54.6553C167.756 54.8357 166.767 54.6759 165.917 54.2036C165.066 53.7313 164.408 52.9764 164.057 52.0699V51.9678C163.898 51.5125 163.816 51.0338 163.814 50.5515C163.814 49.4482 164.253 48.3901 165.034 47.61C165.815 46.8299 166.874 46.3917 167.978 46.3917C168.358 46.3897 168.736 46.4413 169.102 46.5448C170.002 46.8023 170.792 47.3495 171.35 48.1015C171.853 48.8186 172.116 49.6759 172.103 50.5515Z" fill="#B00000"/>
</g>
<path d="M171.401 50.4746C171.401 51.3913 171.081 52.2794 170.496 52.9852C169.91 53.691 169.096 54.1701 168.195 54.3397C167.293 54.5093 166.36 54.3586 165.558 53.9138C164.756 53.4689 164.135 52.7579 163.802 51.9038C163.794 51.8745 163.794 51.8437 163.802 51.8144C163.583 51.2214 163.512 50.5845 163.593 49.9579C163.674 49.3312 163.906 48.7336 164.269 48.2159C164.632 47.6982 165.114 47.2758 165.675 46.9848C166.237 46.6938 166.86 46.5427 167.493 46.5445C167.852 46.5425 168.209 46.5941 168.553 46.6976C169.403 46.9375 170.149 47.4539 170.673 48.1651C171.154 48.8384 171.409 49.6472 171.401 50.4746Z" fill="#E83C4A"/>
<g style="mix-blend-mode:multiply" opacity="0.15">
<path d="M171.401 50.4756C171.423 51.4162 171.107 52.3335 170.51 53.0609C169.913 53.7883 169.074 54.2776 168.147 54.4397C167.219 54.6019 166.264 54.4262 165.455 53.9447C164.646 53.4631 164.037 52.7076 163.738 51.8154C164.224 52.4877 164.91 52.9889 165.698 53.2468C166.487 53.5048 167.337 53.5062 168.126 53.2509C168.915 52.9956 169.603 52.4967 170.091 51.826C170.578 51.1554 170.84 50.3475 170.839 49.5186C170.842 49.0578 170.764 48.6001 170.609 48.166C171.114 48.8315 171.391 49.641 171.401 50.4756Z" fill="#A80000"/>
</g>
<g style="mix-blend-mode:screen" opacity="0.25">
<path d="M167.02 47.4259C167.458 47.6955 167.773 48.1256 167.897 48.6241C168.021 49.1225 167.945 49.6497 167.685 50.0928C167.174 51.1263 166.037 52.0834 164.964 51.5474C164.497 51.2463 164.168 50.774 164.046 50.2322C163.924 49.6905 164.02 49.1226 164.313 48.6509C164.548 48.1612 164.948 47.77 165.444 47.546C165.939 47.322 166.497 47.2794 167.02 47.4259Z" fill="white"/>
</g>
<g style="mix-blend-mode:screen" opacity="0.25">
<path d="M165.92 47.5532C166.125 47.7574 166.01 48.1785 165.69 48.4847C165.371 48.791 164.86 49.0334 164.618 48.7782C164.375 48.523 164.618 48.1274 164.962 47.834C165.307 47.5405 165.729 47.3491 165.92 47.5532Z" fill="white"/>
</g>
<g style="mix-blend-mode:multiply" opacity="0.15">
<path d="M171.4 50.4753C171.4 51.392 171.08 52.28 170.495 52.9858C169.909 53.6916 169.095 54.1708 168.194 54.3403C167.292 54.5099 166.36 54.3592 165.557 53.9144C164.755 53.4696 164.134 52.7586 163.801 51.9044C164.493 52.3911 165.295 52.6984 166.136 52.7986C166.976 52.8989 167.828 52.7889 168.616 52.4786C169.175 52.1266 169.63 51.6302 169.931 51.0419C170.232 50.4536 170.369 49.7949 170.327 49.1354C170.222 48.6228 170.007 48.1392 169.696 47.7183C169.385 47.2974 168.986 46.9493 168.526 46.6982C169.377 46.9381 170.123 47.4546 170.646 48.1657C171.137 48.8359 171.401 49.6449 171.4 50.4753Z" fill="#A80000"/>
</g>
<g style="mix-blend-mode:multiply" opacity="0.15">
<path d="M155.678 50.7043C155.675 51.6705 155.334 52.6054 154.716 53.3483C154.097 54.0911 153.239 54.5957 152.289 54.7753C151.339 54.9549 150.355 54.7984 149.508 54.3326C148.661 53.8669 148.002 53.1208 147.645 52.2227V52.1334C147.48 51.6752 147.398 51.1913 147.403 50.7043C147.403 49.6032 147.839 48.5471 148.617 47.7673C149.396 46.9876 150.451 46.5478 151.553 46.5444C151.933 46.548 152.31 46.5994 152.677 46.6975C153.584 46.9484 154.377 47.5024 154.925 48.2671C155.426 48.9802 155.69 49.8329 155.678 50.7043Z" fill="#B00000"/>
</g>
<path d="M154.976 50.4746C154.986 51.3942 154.671 52.2878 154.087 52.9987C153.503 53.7096 152.687 54.1925 151.782 54.363C150.878 54.5334 149.942 54.3803 149.139 53.9307C148.336 53.4811 147.717 52.7635 147.39 51.9037V51.8144C147.234 51.3851 147.156 50.9313 147.16 50.4746C147.16 49.4345 147.573 48.4367 148.308 47.7001C149.043 46.9634 150.04 46.5478 151.081 46.5444C151.444 46.5434 151.806 46.595 152.154 46.6976C153.001 46.9373 153.743 47.4541 154.261 48.165C154.738 48.8399 154.989 49.6485 154.976 50.4746Z" fill="#E6E6E6"/>
<g style="mix-blend-mode:multiply" opacity="0.1">
<path d="M154.975 50.4756C154.998 51.4162 154.681 52.3335 154.084 53.0609C153.487 53.7883 152.648 54.2776 151.721 54.4397C150.793 54.6019 149.838 54.4262 149.029 53.9447C148.22 53.4631 147.611 52.7076 147.312 51.8154C147.8 52.485 148.488 52.9835 149.276 53.2397C150.064 53.4958 150.913 53.4966 151.702 53.242C152.491 52.9873 153.179 52.4901 153.668 51.8215C154.157 51.1528 154.423 50.3468 154.426 49.5186C154.425 49.0571 154.343 48.5993 154.184 48.166C154.688 48.8315 154.965 49.641 154.975 50.4756Z" fill="#520000"/>
</g>
<g style="mix-blend-mode:screen" opacity="0.25">
<path d="M150.595 47.4249C151.035 47.6925 151.352 48.1216 151.479 48.6202C151.605 49.1189 151.531 49.6472 151.272 50.0918C150.761 51.1254 149.612 52.0824 148.539 51.5465C148.077 51.241 147.752 50.7689 147.63 50.2291C147.509 49.6892 147.601 49.1234 147.888 48.6499C148.123 48.1602 148.523 47.769 149.018 47.545C149.513 47.321 150.072 47.2785 150.595 47.4249Z" fill="white"/>
</g>
<g style="mix-blend-mode:screen" opacity="0.55">
<path d="M149.509 47.5532C149.7 47.7574 149.598 48.1785 149.266 48.4847C148.934 48.791 148.436 49.0334 148.206 48.7782C147.976 48.523 148.206 48.1274 148.538 47.834C148.87 47.5405 149.317 47.3491 149.509 47.5532Z" fill="white"/>
</g>
<g style="mix-blend-mode:multiply" opacity="0.1">
<path d="M154.975 50.4753C154.984 51.3949 154.669 52.2884 154.085 52.9993C153.501 53.7103 152.685 54.1932 151.781 54.3636C150.876 54.534 149.94 54.381 149.137 53.9314C148.334 53.4818 147.715 52.7642 147.389 51.9044C148.081 52.3911 148.883 52.6984 149.724 52.7986C150.564 52.8989 151.416 52.7889 152.203 52.4786C152.759 52.123 153.209 51.6256 153.508 51.0378C153.807 50.4501 153.943 49.7933 153.902 49.1354C153.797 48.6228 153.582 48.1392 153.271 47.7183C152.96 47.2974 152.561 46.9493 152.101 46.6982C152.948 46.938 153.69 47.4547 154.209 48.1657C154.704 48.8344 154.972 49.6435 154.975 50.4753Z" fill="#520000"/>
</g>
<g style="mix-blend-mode:multiply" opacity="0.15">
<path d="M36.8149 70.955V73.3795C36.8149 73.5118 36.7888 73.6429 36.7381 73.7653C36.6874 73.8876 36.613 73.9987 36.5194 74.0923C36.4257 74.1859 36.3144 74.2601 36.192 74.3108C36.0696 74.3614 35.9384 74.3875 35.8059 74.3875H26.0103C25.8059 74.3843 25.6073 74.3191 25.4408 74.2006C25.2743 74.0822 25.1478 73.916 25.0779 73.724C25.0574 73.6101 25.0574 73.4934 25.0779 73.3795V70.955C25.0762 70.8233 25.1008 70.6925 25.1501 70.5702C25.1994 70.448 25.2725 70.3368 25.3652 70.243C25.4578 70.1492 25.5682 70.0748 25.6899 70.024C25.8116 69.9732 25.9422 69.947 26.0741 69.947H35.8698C35.9672 69.9337 36.0661 69.9337 36.1635 69.947C36.3671 70.0213 36.5408 70.16 36.6583 70.3419C36.7759 70.5238 36.8308 70.7391 36.8149 70.955Z" fill="#B00000"/>
</g>
<path d="M36.559 70.4453V72.8697C36.559 73.0015 36.5328 73.1319 36.4819 73.2535C36.4311 73.3751 36.3565 73.4854 36.2627 73.578C36.1688 73.6706 36.0575 73.7436 35.9352 73.7929C35.8128 73.8422 35.6819 73.8667 35.55 73.865H25.7544C25.5511 73.8645 25.3528 73.8019 25.1861 73.6856C25.0195 73.5693 24.8924 73.4048 24.822 73.2142C24.7764 73.1052 24.7547 72.9878 24.7582 72.8697V70.4453C24.7565 70.3135 24.781 70.1827 24.8303 70.0605C24.8796 69.9382 24.9527 69.827 25.0454 69.7332C25.1381 69.6395 25.2485 69.565 25.3702 69.5142C25.4919 69.4634 25.6225 69.4372 25.7544 69.4372H35.55C35.6475 69.4239 35.7463 69.4239 35.8438 69.4372C36.0569 69.504 36.2422 69.6388 36.3714 69.8209C36.5005 70.0029 36.5664 70.2222 36.559 70.4453Z" fill="#CCCCCC"/>
<g style="mix-blend-mode:multiply" opacity="0.15">
<path d="M36.5592 70.4444V72.8688C36.5592 73.0006 36.533 73.1311 36.4822 73.2527C36.4313 73.3742 36.3568 73.4846 36.2629 73.5771C36.1691 73.6697 36.0577 73.7428 35.9354 73.792C35.813 73.8413 35.6821 73.8658 35.5503 73.8641H25.7546C25.5513 73.8636 25.353 73.801 25.1863 73.6847C25.0197 73.5684 24.8926 73.4039 24.8223 73.2133C25.6652 73.2133 35.0394 73.5451 35.7035 72.7923C36.3676 72.0394 35.9972 70.4699 35.844 69.4746C36.0507 69.5396 36.2315 69.6685 36.36 69.8429C36.4886 70.0172 36.5583 70.2279 36.5592 70.4444Z" fill="#3C3C3C"/>
</g>
<g style="mix-blend-mode:multiply" opacity="0.15">
<path d="M36.5592 70.4453V72.8697C36.5592 73.0015 36.533 73.1319 36.4822 73.2535C36.4313 73.3751 36.3568 73.4854 36.2629 73.578C36.1691 73.6706 36.0577 73.7436 35.9354 73.7929C35.813 73.8422 35.6821 73.8667 35.5503 73.865H25.7546C25.5513 73.8645 25.353 73.8019 25.1863 73.6856C25.0197 73.5693 24.8926 73.4048 24.8223 73.2142C25.6396 73.2142 34.8351 72.7676 35.2821 72.321C35.7291 71.8744 35.4864 70.3687 35.3715 69.4372H35.5503C35.6477 69.4239 35.7465 69.4239 35.844 69.4372C36.0571 69.504 36.2424 69.6388 36.3716 69.8209C36.5008 70.0029 36.5667 70.2222 36.5592 70.4453Z" fill="#3C3C3C"/>
</g>
<g style="mix-blend-mode:screen" opacity="0.2">
<path d="M25.7546 70.317C25.5123 70.6316 25.3809 71.0174 25.3809 71.4144C25.3809 71.8114 25.5123 72.1972 25.7546 72.5118C26.2399 72.9584 33.4174 72.2566 33.8644 71.8738C33.9772 71.7808 34.0697 71.6657 34.1363 71.5356C34.203 71.4056 34.2423 71.2632 34.2518 71.1174C34.2614 70.9716 34.241 70.8254 34.192 70.6878C34.1429 70.5502 34.0662 70.424 33.9666 70.317C33.5579 69.8577 26.1888 69.8322 25.7546 70.317Z" fill="white"/>
</g>
<g style="mix-blend-mode:screen" opacity="0.2">
<path d="M25.7031 70.7633C25.7031 71.1206 26.5588 71.1334 26.9803 71.1078C27.4017 71.0823 28.2574 70.9547 28.2574 70.6357C28.2574 70.3167 27.5294 70.2529 26.9803 70.2657C26.4311 70.2784 25.7031 70.406 25.7031 70.7633Z" fill="white"/>
</g>
<g style="mix-blend-mode:multiply" opacity="0.15">
<path d="M163.47 71.1848V73.622C163.471 73.7538 163.444 73.8843 163.393 74.0059C163.343 74.1275 163.268 74.2378 163.174 74.3304C163.08 74.423 162.969 74.496 162.847 74.5452C162.724 74.5945 162.593 74.619 162.462 74.6173H152.628C152.423 74.6177 152.222 74.5556 152.053 74.4393C151.885 74.323 151.755 74.1581 151.682 73.9665C151.663 73.8568 151.663 73.7446 151.682 73.6348V71.1976C151.682 70.9337 151.787 70.6805 151.974 70.4938C152.161 70.3072 152.414 70.2023 152.679 70.2023H162.474C162.568 70.1891 162.662 70.1891 162.755 70.2023C162.965 70.2661 163.149 70.3966 163.278 70.5739C163.407 70.7512 163.474 70.9656 163.47 71.1848Z" fill="#B00000"/>
</g>
<path d="M163.214 70.674V73.0984C163.214 73.3658 163.108 73.6222 162.919 73.8112C162.729 74.0003 162.473 74.1065 162.205 74.1065H152.41C152.203 74.1041 152.003 74.0394 151.834 73.921C151.665 73.8025 151.537 73.6359 151.464 73.443C151.444 73.329 151.444 73.2124 151.464 73.0984V70.674C151.464 70.41 151.569 70.1569 151.756 69.9702C151.943 69.7836 152.196 69.6787 152.461 69.6787H162.256C162.522 69.6787 162.776 69.7831 162.965 69.9694C163.154 70.1557 163.262 70.4089 163.265 70.674H163.214Z" fill="#CCCCCC"/>
<g style="mix-blend-mode:multiply" opacity="0.15">
<path d="M163.213 70.6748V73.0992C163.213 73.3666 163.106 73.623 162.917 73.812C162.728 74.0011 162.471 74.1073 162.204 74.1073H152.408C152.202 74.1048 152.001 74.0402 151.833 73.9218C151.664 73.8033 151.535 73.6367 151.463 73.4438C152.319 73.4438 161.68 73.7883 162.357 73.0226C162.855 72.4612 162.651 70.7131 162.485 69.7178C162.694 69.7762 162.878 69.9013 163.01 70.0741C163.141 70.2468 163.212 70.4578 163.213 70.6748Z" fill="#3C3C3C"/>
</g>
<g style="mix-blend-mode:multiply" opacity="0.15">
<path d="M163.213 70.674V73.0984C163.213 73.3658 163.106 73.6222 162.917 73.8112C162.728 74.0003 162.471 74.1065 162.204 74.1065H152.408C152.202 74.1041 152.001 74.0394 151.833 73.921C151.664 73.8025 151.535 73.6359 151.463 73.443C152.293 73.443 161.488 72.9963 161.935 72.5497C162.382 72.1031 162.127 70.5974 162.025 69.6787H162.204C162.469 69.6787 162.724 69.7831 162.913 69.9694C163.101 70.1557 163.209 70.4089 163.213 70.674Z" fill="#3C3C3C"/>
</g>
<g style="mix-blend-mode:screen" opacity="0.2">
<path d="M152.395 70.4958C152.153 70.8104 152.021 71.1962 152.021 71.5931C152.021 71.9901 152.153 72.3759 152.395 72.6905C152.893 73.1371 160.058 72.4353 160.518 72.0525C160.631 71.9596 160.724 71.8443 160.791 71.7136C160.857 71.583 160.896 71.44 160.905 71.2937C160.913 71.1474 160.891 71.0009 160.84 70.8636C160.789 70.7262 160.709 70.601 160.607 70.4958C160.211 70.1002 152.893 70.0747 152.395 70.4958Z" fill="white"/>
</g>
<g style="mix-blend-mode:screen" opacity="0.2">
<path d="M152.357 70.9938C152.357 71.3511 153.213 71.3639 153.635 71.3511C154.056 71.3383 154.912 71.198 154.912 70.879C154.912 70.56 154.184 70.4834 153.635 70.5089C153.085 70.5345 152.357 70.6365 152.357 70.9938Z" fill="white"/>
</g>
<g style="mix-blend-mode:multiply" opacity="0.15">
<path d="M163.47 78.9804V81.4176C163.471 81.5494 163.444 81.6798 163.393 81.8014C163.343 81.923 163.268 82.0333 163.174 82.1259C163.08 82.2185 162.969 82.2916 162.847 82.3408C162.724 82.3901 162.593 82.4146 162.462 82.4129H152.628C152.423 82.4132 152.222 82.3511 152.053 82.2349C151.885 82.1186 151.755 81.9537 151.682 81.7621C151.663 81.6524 151.663 81.5401 151.682 81.4303V78.9931C151.675 78.7334 151.77 78.4812 151.947 78.2905C152.124 78.0998 152.368 77.9856 152.628 77.9723H162.423C162.516 77.9591 162.611 77.9591 162.704 77.9723C162.928 78.0276 163.126 78.1578 163.265 78.3412C163.405 78.5246 163.477 78.7502 163.47 78.9804Z" fill="#B00000"/>
</g>
<path d="M163.214 78.4709V80.8953C163.214 81.1627 163.108 81.4191 162.919 81.6081C162.729 81.7972 162.473 81.9034 162.205 81.9034H152.41C152.203 81.9009 152.003 81.8363 151.834 81.7178C151.665 81.5994 151.537 81.4328 151.464 81.2398C151.444 81.1259 151.444 81.0093 151.464 80.8953V78.4709C151.464 78.2069 151.569 77.9538 151.756 77.7671C151.943 77.5805 152.196 77.4756 152.461 77.4756H162.256C162.522 77.4756 162.776 77.58 162.965 77.7663C163.154 77.9526 163.262 78.2058 163.265 78.4709H163.214Z" fill="#CCCCCC"/>
<g style="mix-blend-mode:multiply" opacity="0.15">
<path d="M163.213 78.4721V80.8966C163.213 81.1639 163.106 81.4203 162.917 81.6093C162.728 81.7984 162.471 81.9046 162.204 81.9046H152.408C152.202 81.9022 152.001 81.8375 151.833 81.7191C151.664 81.6007 151.535 81.434 151.463 81.2411C152.319 81.2411 161.68 81.5856 162.357 80.82C162.855 80.2586 162.651 78.4977 162.485 77.5151C162.695 77.5716 162.88 77.6962 163.012 77.8694C163.144 78.0426 163.214 78.2546 163.213 78.4721Z" fill="#3C3C3C"/>
</g>
<g style="mix-blend-mode:multiply" opacity="0.15">
<path d="M163.213 78.4714V80.8958C163.213 81.1632 163.106 81.4195 162.917 81.6086C162.728 81.7976 162.471 81.9038 162.204 81.9038H152.408C152.202 81.9014 152.001 81.8368 151.833 81.7183C151.664 81.5999 151.535 81.4333 151.463 81.2403C152.293 81.2403 161.488 80.7937 161.935 80.3471C162.382 79.9005 162.127 78.3948 162.025 77.4761H162.204C162.469 77.4761 162.724 77.5805 162.913 77.7668C163.101 77.9531 163.209 78.2063 163.213 78.4714Z" fill="#3C3C3C"/>
</g>
<g style="mix-blend-mode:screen" opacity="0.2">
<path d="M152.395 78.2912C152.153 78.6058 152.021 78.9916 152.021 79.3885C152.021 79.7855 152.153 80.1713 152.395 80.4859C152.893 80.9325 160.058 80.2307 160.518 79.8479C160.631 79.7551 160.724 79.6397 160.791 79.5091C160.857 79.3785 160.896 79.2355 160.905 79.0892C160.913 78.9428 160.891 78.7964 160.84 78.659C160.789 78.5217 160.709 78.3964 160.607 78.2912C160.211 77.8956 152.893 77.8701 152.395 78.2912Z" fill="white"/>
</g>
<g style="mix-blend-mode:screen" opacity="0.2">
<path d="M152.357 78.7895C152.357 79.1468 153.213 79.1596 153.635 79.1468C154.056 79.134 154.912 78.9936 154.912 78.6746C154.912 78.3556 154.184 78.2791 153.635 78.2918C153.085 78.3046 152.357 78.4322 152.357 78.7895Z" fill="white"/>
</g>
<g style="mix-blend-mode:screen" opacity="0.8">
<g style="mix-blend-mode:screen" opacity="0.8">
<path d="M109.523 2.42004C107.454 2.42004 105.372 2.34349 103.303 2.31797C101.234 2.29245 99.1524 2.31797 97.0834 2.31797C92.9327 2.31797 88.782 2.31796 84.6441 2.40728C82.5751 2.40728 80.4934 2.4966 78.4244 2.5604C76.3555 2.6242 74.2865 2.68801 72.2175 2.76457C70.1486 2.84113 68.0796 2.95598 66.0106 3.07082C63.9416 3.18566 61.8727 3.31326 59.8037 3.45362C55.6785 3.74711 51.5534 4.1299 47.4538 4.60203C45.3976 4.84447 43.3414 5.11244 41.2979 5.40592C39.2545 5.69941 37.2239 6.04393 35.1932 6.43949C31.1433 7.16446 27.1489 8.1707 23.2392 9.45089C21.2988 10.0956 19.4079 10.8803 17.5814 11.7987C15.7793 12.6818 14.1145 13.8207 12.6389 15.1802C11.0181 16.6371 9.74398 18.4377 8.90964 20.4501C8.0034 22.5041 7.2977 24.6407 6.80235 26.8302C5.811 31.2245 5.18308 35.6929 4.92495 40.1901C4.75892 42.4486 4.66953 44.7072 4.61844 46.9657C4.56736 49.2243 4.61844 51.4955 4.61844 53.7541C4.61844 56.0126 4.70784 58.2839 4.82278 60.5552C4.93772 62.8266 5.03989 65.0723 5.23146 67.3437C4.65675 62.8393 4.31192 58.3095 4.09481 53.7668C3.99264 51.5083 3.92878 49.237 3.91601 46.9657C3.90324 44.6944 3.91602 42.4103 4.04373 40.139C4.04373 39.0034 4.17144 37.8677 4.24807 36.7321C4.3247 35.5964 4.45241 34.4608 4.58013 33.3251C4.83436 31.0525 5.20952 28.795 5.70401 26.5622C6.18422 24.3057 6.88137 22.1007 7.78575 19.978C8.25463 18.9071 8.81436 17.8783 9.45881 16.9028C10.0974 15.8925 10.8708 14.9738 11.7577 14.1721C13.3184 12.6978 15.0869 11.4597 17.0067 10.4972C18.8864 9.54514 20.8328 8.73062 22.8305 8.06004C26.7977 6.73116 30.8571 5.6948 34.9761 4.95931C43.178 3.50915 51.4607 2.5589 59.7782 2.11381C63.9331 1.8586 68.0838 1.68846 72.2303 1.60339C76.3767 1.51832 80.5275 1.48431 84.6824 1.50132C88.8459 1.50132 92.9966 1.61616 97.1345 1.76928C101.272 1.9224 105.372 2.12655 109.523 2.42004Z" fill="white"/>
</g>
</g>
<defs>
<linearGradient id="paint0_linear_821_2818" x1="46.9297" y1="46.953" x2="141.004" y2="46.953" gradientUnits="userSpaceOnUse">
<stop stop-color="#405191"/>
<stop offset="0.98" stop-color="#3A4166"/>
</linearGradient>
</defs>
</svg>
