<svg width="162" height="167" viewBox="0 0 162 167" fill="none" xmlns="http://www.w3.org/2000/svg">
<path d="M106.312 82.9066L58.7363 71.52L50.0796 107.537L97.6553 118.924L106.312 82.9066Z" fill="#B8BBCC"/>
<g style="mix-blend-mode:multiply" opacity="0.15">
<path d="M98.8128 114.114L97.6673 118.88L50.0915 107.494L50.353 106.405L65.8148 94.18C65.8148 94.18 62.79 102.926 65.2932 106.425C67.7964 109.924 78.9062 112.687 83.046 111.008C87.1858 109.329 89.1942 99.8215 89.1942 99.8215L98.8128 114.114Z" fill="#3C3C3C"/>
</g>
<path d="M59.9297 104.889C59.8007 105.042 58.4998 106.664 56.3639 109.122L55.9767 109.581C49.9038 116.643 43.2277 123.166 36.0235 129.075C26.4841 136.619 16.0367 141.943 8.62089 137.533C6.81642 136.457 5.40453 134.833 4.59183 132.898C2.57304 128.295 3.25771 121.704 5.23858 114.71C5.50011 113.622 5.87069 112.56 6.24039 111.406C9.85627 100.488 15.9896 89.1712 19.4732 83.1697C20.9449 80.6451 21.9386 79.0532 22.0564 78.8513L30.7137 84.8127L30.9903 85.0055L38.4594 90.1533L38.807 90.3861L40.5483 91.5853L40.8742 91.8129L44.6142 94.3881L45.2358 94.8245L51.9738 99.4636L57.2689 103.101L59.9297 104.889Z" fill="#B8BBCC"/>
<g style="mix-blend-mode:multiply" opacity="0.15">
<path d="M59.9294 104.889C59.8004 105.042 58.4995 106.664 56.3636 109.121L55.9764 109.581C49.9035 116.643 43.2274 123.165 36.0232 129.074C26.4838 136.618 16.0364 141.943 8.62058 137.533C6.81612 136.457 5.40422 134.832 4.59153 132.898C2.57274 128.295 3.2574 121.704 5.23827 114.71C5.01376 121.354 5.86782 127.588 9.13335 130.602C17.9179 138.768 36.253 125.815 42.2028 120.588C46.7151 116.639 53.3873 109.606 57.29 103.06L59.9294 104.889Z" fill="#3C3C3C"/>
</g>
<path d="M61.3159 69.7092L59.9245 75.498L34.2338 69.3493L35.6252 63.5604C35.9443 62.2329 37.0127 61.3379 38.0159 61.578C38.0159 61.578 42.2365 60.6665 49.5097 62.4072C56.7829 64.148 60.13 66.8707 60.13 66.8707C61.0787 67.0978 61.635 68.3816 61.3159 69.7092Z" fill="#B8BBCC"/>
<g style="mix-blend-mode:multiply" opacity="0.3">
<path d="M66.8164 94.4199C65.3741 100.505 61.6224 105.795 56.3508 109.176C56.1428 109.322 55.929 109.443 55.7127 109.576C51.6125 112.038 46.8755 113.239 42.0947 113.027C37.3139 112.816 32.7018 111.202 28.8358 108.387C24.9699 105.573 22.0218 101.683 20.3609 97.2043C18.6999 92.7258 18.3997 87.8579 19.498 83.21C20.9697 80.6854 21.9635 79.0936 22.0812 78.8916C24.6354 73.4843 29.1802 69.2677 34.7704 67.1188L35.0581 65.9218C39.1845 64.4558 43.6311 64.129 47.9283 64.9758C52.2255 65.8227 56.2138 67.8119 59.472 70.7332C62.7301 73.6546 65.1372 77.3997 66.4391 81.5731C67.741 85.7465 67.8892 90.1933 66.8683 94.4439L66.8164 94.4199Z" fill="#3C3C3C"/>
</g>
<path d="M65.8123 94.1797C64.8476 98.2145 62.8147 101.917 59.9262 104.9C58.2719 106.604 56.3695 108.05 54.2829 109.188C50.3254 111.346 45.8248 112.311 41.3282 111.964C36.8315 111.618 32.5324 109.976 28.9535 107.238C25.3745 104.499 22.6697 100.782 21.1679 96.5385C19.6661 92.2949 19.4319 87.7073 20.4938 83.3334C20.8653 81.7872 21.393 80.2826 22.069 78.8428C24.5311 73.6456 28.836 69.5433 34.1522 67.3286C39.4683 65.1138 45.4184 64.9436 50.8529 66.8509C56.2874 68.7583 60.8208 72.6077 63.5771 77.6557C66.3335 82.7036 67.1172 88.5919 65.777 94.1828L65.8123 94.1797Z" fill="#B8BBCC"/>
<g style="mix-blend-mode:screen" opacity="0.7">
<g style="mix-blend-mode:screen" opacity="0.7">
<path d="M26.0466 102.164C24.7454 100.624 23.6669 98.9097 22.8427 97.0708C21.179 93.3427 20.6258 89.2155 21.249 85.1821C21.557 83.1557 22.1478 81.1822 23.0041 79.3192L22.9806 79.4172C23.0194 79.2848 23.1041 79.1705 23.2195 79.0946L23.0259 79.3244C24.5702 75.9977 26.9265 73.1109 29.8787 70.9285C32.831 68.7461 36.2849 67.3379 39.9239 66.8328C41.7325 66.5807 43.5662 66.5632 45.3794 66.7807C47.1851 66.9769 48.9586 67.4014 50.6571 68.0438C54.0429 69.3299 57.0368 71.4697 59.3467 74.2547C56.8627 71.7145 53.8089 69.8004 50.4374 68.6702C49.6022 68.3954 48.7518 68.1688 47.8905 67.9916C47.0354 67.8041 46.168 67.6772 45.2949 67.612C44.4261 67.5289 43.5524 67.5082 42.6805 67.5501C41.8078 67.577 40.9375 67.6569 40.0745 67.7894C38.3692 68.0736 36.7039 68.5596 35.1139 69.2374C34.3087 69.5709 33.524 69.9518 32.764 70.378C32.3964 70.6122 32.0121 70.8195 31.6528 71.0672L31.1177 71.4224L30.5856 71.8129C29.1881 72.8435 27.921 74.0395 26.8121 75.3745C25.7069 76.719 24.7652 78.1893 24.0065 79.7548L23.8045 79.9711C23.8623 79.9376 23.9123 79.8924 23.9511 79.8382C23.99 79.784 24.0169 79.7222 24.03 79.6568L24.0038 79.7656C23.1538 81.5304 22.5522 83.4039 22.216 85.333C21.8683 87.2714 21.7812 89.2474 21.9569 91.2088C22.1548 93.1753 22.6048 95.1084 23.2959 96.9607C23.993 98.8024 24.917 100.55 26.0466 102.164Z" fill="white"/>
</g>
</g>
<path d="M120.468 164.302C115.779 164.618 111.663 161.976 108.018 157.709C106.443 155.831 105.028 153.825 103.786 151.713C99.2806 144.214 95.8217 134.664 93.4452 126.799C92.3416 123.186 91.4863 119.932 90.85 117.398L90.8709 117.311C90.0958 114.203 89.6851 112.217 89.6397 112.022L131.422 106.395L135.141 105.893C135.154 106.126 135.316 107.995 135.48 110.911C135.86 117.789 135.87 124.683 135.51 131.562C135.301 135.068 134.963 138.635 134.438 142.065C132.728 153.738 128.733 163.737 120.468 164.302Z" fill="#B8BBCC"/>
<g style="mix-blend-mode:multiply" opacity="0.15">
<path d="M120.468 164.302C113.901 164.755 108.311 159.275 103.786 151.713C108.81 154.273 116.052 157.1 121.785 155.848C131.525 153.703 132.714 122.562 132.714 122.562C132.714 122.562 128.932 129.711 114.65 132.899C105.616 134.936 97.8832 130.404 93.4452 126.799C92.3416 123.186 91.4863 119.932 90.85 117.398L90.8709 117.311C90.0958 114.203 89.6851 112.217 89.6397 112.022L131.422 106.395L135.141 105.893C135.154 106.126 135.316 107.995 135.48 110.911C135.856 117.836 136.192 130.643 134.438 142.065C132.728 153.738 128.733 163.737 120.468 164.302Z" fill="#3C3C3C"/>
</g>
<path d="M130.111 86.1745L128.72 91.9634L102.931 85.7912L104.322 80.0023C104.642 78.6748 105.721 77.7824 106.724 78.0225C106.724 78.0225 110.934 77.1084 118.218 78.8517C125.502 80.5951 128.893 83.3283 128.893 83.3283C129.885 83.5658 130.43 84.847 130.111 86.1745Z" fill="#B8BBCC"/>
<g style="mix-blend-mode:multiply" opacity="0.3">
<path d="M135.508 110.94C134.363 115.645 131.833 119.9 128.245 123.158C124.657 126.417 120.173 128.529 115.372 129.224C110.57 129.919 105.671 129.164 101.302 127.057C96.9344 124.95 93.2981 121.587 90.8612 117.401L90.7643 117.228C87.8194 112.086 86.8602 106.047 88.0673 100.248C89.2744 94.4494 92.5647 89.2913 97.3182 85.7452C102.072 82.1991 107.961 80.5098 113.876 80.9955C119.791 81.4812 125.324 84.1083 129.433 88.382L129.504 88.7097L129.26 89.7217L129.973 90.5481C133.489 94.8716 135.332 100.311 135.168 105.876C135.182 106.156 135.355 108.027 135.508 110.94Z" fill="#3C3C3C"/>
</g>
<path d="M134.523 110.624C133.515 114.838 131.346 118.686 128.261 121.734C125.176 124.782 121.298 126.908 117.065 127.872C112.833 128.835 108.414 128.598 104.31 127.186C100.205 125.775 96.5784 123.246 93.839 119.885C91.9401 117.544 90.5141 114.858 89.6398 111.976C88.0881 106.909 88.3178 101.465 90.2909 96.5462C92.264 91.6274 95.8621 87.529 100.489 84.9301C105.116 82.3311 110.493 81.3877 115.731 82.2561C120.969 83.1245 125.752 85.7526 129.288 89.7049L130 90.5313C133.516 94.8548 135.359 100.294 135.195 105.86C135.135 107.466 134.91 109.063 134.523 110.624Z" fill="#B8BBCC"/>
<g style="mix-blend-mode:screen" opacity="0.2">
<path d="M82.3299 79.9626C77.1285 78.7177 72.1095 78.0573 71.2464 81.6482C70.3834 85.239 71.5433 86.7939 71.6072 90.6066C71.671 94.4193 70.163 96.2793 71.1739 98.4544C72.1848 100.63 80.7186 102.787 83.0488 101.296C85.3789 99.8059 84.5599 97.2164 85.7623 93.5571C86.9647 89.8979 89.5382 88.2585 90.6338 85.3792C91.7295 82.4999 87.5422 81.2101 82.3299 79.9626Z" fill="white"/>
</g>
<g style="mix-blend-mode:screen" opacity="0.2">
<path d="M123.813 87.2899C131.235 94.3135 132.294 105.499 123.371 114.894C114.447 124.288 102.802 124.712 95.282 117.618C87.7616 110.525 90.7561 97.7784 97.642 90.6234C104.528 83.4684 116.391 80.2663 123.813 87.2899Z" fill="white"/>
</g>
<g style="mix-blend-mode:screen" opacity="0.2">
<path d="M55.4764 71.7977C63.3455 79.5037 64.6596 91.1644 55.5173 100.415C46.375 109.665 34.3571 109.481 26.3781 101.657C25.2434 100.547 24.2822 99.2735 23.5268 97.8788C19.3373 90.1213 22.3112 79.7631 28.297 73.7621C35.3147 66.7306 47.5965 64.0891 55.4764 71.7977Z" fill="white"/>
</g>
<g style="mix-blend-mode:screen" opacity="0.2">
<path d="M125.31 133.735C123.571 131.374 118.582 136.59 115.117 136.946C111.465 137.315 103.363 134.42 102.57 137.717C101.778 141.014 110.68 152.627 117.382 151.849C124.084 151.071 127.006 136.086 125.31 133.735Z" fill="white"/>
</g>
<g style="mix-blend-mode:screen" opacity="0.2">
<path d="M15.6572 103.463C18.7102 103.043 20.2556 109.04 24.3611 111.726C28.4666 114.412 36.1256 114.691 35.2861 118.184C34.4466 121.677 19.7264 128.994 14.1823 125.193C8.63811 121.392 12.5413 103.857 15.6572 103.463Z" fill="white"/>
</g>
<g style="mix-blend-mode:multiply" opacity="0.3">
<path d="M36.0229 129.074C26.4835 136.618 16.036 141.942 8.62024 137.532C6.81578 136.456 5.40388 134.832 4.59119 132.897C6.57754 134.878 9.00984 136.355 11.6851 137.207C17.6464 139.128 29.0807 133.2 36.0229 129.074Z" fill="#3C3C3C"/>
</g>
<g style="mix-blend-mode:multiply" opacity="0.15">
<path d="M135.507 110.941C134.359 115.644 131.828 119.898 128.238 123.155C124.649 126.412 120.165 128.523 115.364 129.217C110.562 129.912 105.663 129.157 101.294 127.051C96.9259 124.945 93.2885 121.583 90.8497 117.398L90.7638 117.228L90.851 117.249C91.7836 118.18 92.7827 119.042 93.8404 119.829C96.0041 121.475 98.4961 122.641 101.149 123.246C112.118 125.584 119.006 125.714 126.565 117.822C128.886 115.409 131.024 109.683 131.448 106.333C132.433 98.6861 129.972 90.5022 129.972 90.5022C133.488 94.8257 135.331 100.265 135.167 105.83C135.181 106.156 135.343 108.025 135.507 110.941Z" fill="#3C3C3C"/>
</g>
<g style="mix-blend-mode:multiply" opacity="0.3">
<path d="M120.466 164.302C115.777 164.618 111.661 161.976 108.016 157.709C113.404 160.529 119.212 162.368 123.566 160.613C130.386 157.861 133.878 142.518 135.535 131.591C135.327 135.097 134.988 138.664 134.464 142.094C132.726 153.738 128.731 163.737 120.466 164.302Z" fill="#3C3C3C"/>
</g>
<g style="mix-blend-mode:multiply" opacity="0.1">
<path d="M74.4645 103.142L73.7871 105.961C73.6328 106.603 73.2347 107.06 72.8857 106.976L66.8992 105.544C66.6375 105.481 66.4844 105.11 66.5044 104.643C66.5239 104.51 66.5554 104.379 66.5985 104.252L67.2759 101.434C67.4302 100.792 67.8283 100.334 68.1664 100.415L74.1529 101.848C74.2147 101.864 74.2707 101.898 74.3143 101.944C74.4338 102.117 74.5099 102.317 74.5361 102.525C74.5622 102.734 74.5377 102.945 74.4645 103.142Z" fill="#3C3C3C"/>
</g>
<g style="mix-blend-mode:multiply" opacity="0.3">
<path d="M74.4742 103.434L73.7943 106.263C73.6399 106.905 73.2418 107.362 72.9038 107.281L66.9718 105.861C66.7101 105.799 66.5678 105.431 66.5878 104.964C66.6088 104.827 66.6412 104.692 66.6846 104.561L67.3646 101.732C67.5215 101.079 67.917 100.633 68.2551 100.714L74.2525 102.149C74.3132 102.148 74.3733 102.163 74.427 102.191C74.5337 102.379 74.5938 102.59 74.602 102.807C74.6102 103.023 74.5664 103.238 74.4742 103.434Z" fill="#3C3C3C"/>
</g>
<path d="M74.1088 103.277L73.5125 105.758C73.3765 106.323 73.0159 106.72 72.6996 106.645L67.2475 105.34C67.0076 105.282 66.8657 104.961 66.8836 104.551C66.9002 104.432 66.9282 104.316 66.9673 104.203L67.5636 101.722C67.6996 101.156 68.0602 100.759 68.3655 100.832L73.8177 102.137C73.8741 102.14 73.9295 102.153 73.9813 102.176C74.0965 102.333 74.1688 102.516 74.1912 102.709C74.2135 102.902 74.1851 103.098 74.1088 103.277Z" fill="#474D66"/>
<g style="mix-blend-mode:multiply" opacity="0.2">
<path d="M74.1101 103.277L73.5138 105.758C73.3778 106.323 73.0172 106.72 72.701 106.645L67.2488 105.34C67.0089 105.282 66.8671 104.961 66.8849 104.551C67.3429 104.66 72.2389 105.832 72.5996 105.435C73.1172 104.382 73.4942 103.265 73.7209 102.113L73.8191 102.137C73.8755 102.14 73.9309 102.153 73.9826 102.176C74.0978 102.333 74.1701 102.516 74.1925 102.709C74.2149 102.902 74.1865 103.098 74.1101 103.277Z" fill="#3C3C3C"/>
</g>
<g style="mix-blend-mode:multiply" opacity="0.2">
<path d="M74.11 103.277L73.5137 105.758C73.3777 106.324 73.017 106.721 72.7008 106.645L67.2486 105.34C67.0087 105.283 66.8669 104.961 66.8847 104.551C67.3645 104.666 72.1826 106.498 72.7853 105.814C73.3784 104.686 73.7803 103.468 73.9746 102.209C74.0853 102.361 74.1558 102.539 74.1795 102.726C74.2031 102.912 74.1792 103.102 74.11 103.277Z" fill="#3C3C3C"/>
</g>
<g style="mix-blend-mode:screen" opacity="0.15">
<path d="M68.094 101.584C67.9019 101.837 67.7645 102.127 67.6902 102.436C67.6159 102.745 67.6065 103.066 67.6625 103.379C67.827 103.798 71.5941 104.101 71.9207 103.846C72.0773 103.678 72.1878 103.473 72.2414 103.249C72.295 103.026 72.2899 102.793 72.2267 102.573C72.1525 102.21 68.4285 101.296 68.094 101.584Z" fill="white"/>
</g>
<g style="mix-blend-mode:screen" opacity="0.3">
<path d="M67.985 102.029C67.8935 102.41 68.5779 102.585 68.8775 102.634C69.1771 102.683 69.9282 102.725 70.0093 102.387C70.0904 102.05 69.5225 101.822 69.1029 101.745C68.6833 101.667 68.0766 101.649 67.985 102.029Z" fill="white"/>
</g>
<g style="mix-blend-mode:multiply" opacity="0.1">
<path d="M84.6815 105.588L84.0041 108.407C83.8498 109.049 83.4407 109.503 83.1027 109.422L77.1162 107.989C76.8436 107.924 76.7014 107.556 76.7214 107.089C76.7353 106.955 76.767 106.823 76.8155 106.698L77.4929 103.879C77.6472 103.237 78.0562 102.783 78.3943 102.864L84.3808 104.297C84.4426 104.313 84.4986 104.346 84.5421 104.393C84.6578 104.567 84.7307 104.766 84.7549 104.974C84.7791 105.182 84.7539 105.392 84.6815 105.588Z" fill="#3C3C3C"/>
</g>
<g style="mix-blend-mode:multiply" opacity="0.3">
<path d="M84.7046 105.882L84.0246 108.711C83.8703 109.353 83.4721 109.81 83.1232 109.727L77.1367 108.294C76.875 108.231 76.7219 107.861 76.7418 107.394C76.7628 107.257 76.7952 107.122 76.8386 106.991L77.5186 104.162C77.6755 103.509 78.0711 103.063 78.4091 103.144L84.3956 104.577C84.4565 104.574 84.517 104.588 84.5701 104.618C84.6962 104.801 84.7746 105.012 84.7981 105.233C84.8216 105.454 84.7894 105.677 84.7046 105.882Z" fill="#3C3C3C"/>
</g>
<path d="M84.3047 105.717L83.7084 108.198C83.5724 108.764 83.2118 109.161 82.9065 109.087L77.4543 107.783C77.2144 107.725 77.0726 107.404 77.0904 106.994C77.107 106.875 77.135 106.758 77.1741 106.645L77.7704 104.164C77.9064 103.599 78.267 103.202 78.5724 103.275L84.0245 104.58C84.0775 104.581 84.1295 104.593 84.1772 104.616C84.2924 104.773 84.3647 104.957 84.3871 105.15C84.4094 105.343 84.3811 105.538 84.3047 105.717Z" fill="#474D66"/>
<g style="mix-blend-mode:multiply" opacity="0.2">
<path d="M84.3041 105.716L83.7078 108.197C83.5718 108.763 83.2112 109.16 82.9059 109.087L77.4537 107.782C77.2138 107.725 77.072 107.403 77.0898 106.993C77.5478 107.103 82.4438 108.274 82.8045 107.877C83.323 106.824 83.6965 105.706 83.9149 104.553L84.0239 104.579C84.0769 104.58 84.1289 104.593 84.1766 104.616C84.2918 104.772 84.3641 104.956 84.3865 105.149C84.4088 105.342 84.3804 105.537 84.3041 105.716Z" fill="#3C3C3C"/>
</g>
<g style="mix-blend-mode:multiply" opacity="0.2">
<path d="M84.3061 105.717L83.7098 108.198C83.5738 108.764 83.2132 109.161 82.9079 109.088L77.4557 107.783C77.2158 107.725 77.074 107.404 77.0918 106.994C77.5607 107.106 82.3897 108.941 82.9923 108.256C83.5814 107.127 83.9795 105.908 84.1707 104.649C84.2815 104.801 84.3519 104.979 84.3756 105.166C84.3993 105.352 84.3754 105.542 84.3061 105.717Z" fill="#3C3C3C"/>
</g>
<g style="mix-blend-mode:screen" opacity="0.15">
<path d="M78.3101 104.029C78.1181 104.282 77.9806 104.573 77.9063 104.882C77.8321 105.191 77.8226 105.512 77.8786 105.824C78.0431 106.244 81.8102 106.547 82.1369 106.291C82.2954 106.125 82.4071 105.919 82.4608 105.696C82.5145 105.472 82.5083 105.239 82.4429 105.018C81.1646 104.363 79.7472 104.024 78.3101 104.029Z" fill="white"/>
</g>
<g style="mix-blend-mode:screen" opacity="0.3">
<path d="M78.1921 104.472C78.1005 104.853 78.7958 105.03 79.0954 105.079C79.3951 105.128 80.1353 105.167 80.2163 104.83C80.2974 104.492 79.7295 104.264 79.3208 104.19C78.9121 104.115 78.2836 104.091 78.1921 104.472Z" fill="white"/>
</g>
<path d="M84.3378 49.3504L83.5376 52.6801C83.5008 52.833 83.4047 52.9651 83.2703 53.0474C83.1359 53.1296 82.9743 53.1552 82.821 53.1185L82.5157 53.0454C82.4204 53.0253 82.3318 52.9812 82.2583 52.9173C82.1849 52.8534 82.129 52.7718 82.096 52.6803C82.0664 52.6082 82.0536 52.5304 82.0585 52.4527C82.0613 52.4152 82.0701 52.3785 82.0847 52.3439L82.885 49.0142C82.8864 48.9614 82.8989 48.9095 82.9216 48.8618C82.9479 48.805 82.9876 48.7553 83.0371 48.7169C83.1079 48.6489 83.1947 48.5998 83.2896 48.5742C83.3844 48.5486 83.4842 48.5474 83.5797 48.5706L83.885 48.6436C84.0323 48.6793 84.1594 48.7718 84.2383 48.9008C84.3297 49.0317 84.3654 49.1933 84.3378 49.3504Z" fill="#242733"/>
<g style="mix-blend-mode:multiply" opacity="0.3">
<path d="M83.0176 48.701L82.063 52.6727C82.0826 52.6569 82.0973 52.636 82.1056 52.6123C82.1139 52.5886 82.1154 52.5631 82.1098 52.5386C82.1043 52.5141 82.092 52.4917 82.0744 52.4738C82.0567 52.4559 82.0344 52.4434 82.0099 52.4375C81.9855 52.4317 81.9599 52.4328 81.936 52.4407C81.9122 52.4486 81.891 52.4631 81.875 52.4824C81.8589 52.5017 81.8486 52.5251 81.8452 52.55C81.8418 52.5749 81.8455 52.6002 81.8558 52.6231L82.8261 48.5861C82.8751 48.6756 82.8986 48.7767 82.8942 48.8786C82.9178 48.809 82.9606 48.7475 83.0176 48.701Z" fill="#242733"/>
</g>
<path d="M81.4797 48.6211L80.6794 51.9508C80.6794 51.9508 80.6611 52.027 80.6507 52.0705C80.6103 52.1483 80.5545 52.2172 80.4867 52.2729C80.4157 52.33 80.3327 52.3703 80.2439 52.3909C80.1551 52.4115 80.0628 52.4118 79.9738 52.3918L79.6576 52.3161C79.5822 52.2981 79.5111 52.2652 79.4486 52.2195C79.3861 52.1737 79.3334 52.116 79.2935 52.0496C79.2536 51.9833 79.2273 51.9097 79.2163 51.8331C79.2053 51.7566 79.2096 51.6785 79.2292 51.6037L80.0295 48.274C80.0461 48.1984 80.0776 48.1269 80.1223 48.0637C80.1669 48.0005 80.2238 47.9467 80.2895 47.9057C80.3552 47.8646 80.4284 47.837 80.505 47.8246C80.5815 47.8121 80.6597 47.8149 80.7351 47.833L81.0513 47.9087C81.141 47.931 81.2241 47.9743 81.2937 48.035C81.3633 48.0957 81.4175 48.172 81.4518 48.2577C81.4892 48.3373 81.5077 48.4244 81.5059 48.5123C81.5059 48.5123 81.4876 48.5885 81.4797 48.6211Z" fill="#242733"/>
<path d="M82.9514 48.9734L82.1511 52.3031C82.1442 52.355 82.1319 52.4061 82.1145 52.4555C82.0736 52.5279 82.0153 52.589 81.9449 52.6335C81.8761 52.6845 81.797 52.7201 81.7132 52.7377C81.6293 52.7554 81.5426 52.7548 81.459 52.7359L81.1537 52.6628C81.0607 52.6412 80.9745 52.5967 80.9031 52.5334C80.8317 52.4701 80.7773 52.39 80.745 52.3003C80.7048 52.2306 80.6879 52.15 80.6965 52.07C80.7007 52.029 80.7104 51.9888 80.7253 51.9503L81.5308 48.5989C81.5397 48.5704 81.5467 48.5413 81.5517 48.5119C81.5828 48.4344 81.6349 48.3672 81.7022 48.3177C81.7718 48.2525 81.8567 48.2056 81.9491 48.1815C82.0415 48.1574 82.1385 48.1568 82.2312 48.1797L82.5365 48.2527C82.6203 48.2723 82.6985 48.3104 82.7654 48.3643C82.8323 48.4181 82.8862 48.4864 82.923 48.5639C82.972 48.6534 82.9955 48.7545 82.9911 48.8564C82.9911 48.8564 82.9593 48.9408 82.9514 48.9734Z" fill="#242733"/>
<path d="M67.5814 52.9005L66.8617 52.7282L62.0638 51.5799C61.951 51.5529 61.8536 51.4823 61.7929 51.3836C61.7323 51.285 61.7135 51.1663 61.7405 51.0537L64.1989 40.8253C64.2107 40.7697 64.2336 40.7171 64.2661 40.6705C64.2986 40.6239 64.3402 40.5843 64.3883 40.5539C64.4365 40.5236 64.4902 40.5033 64.5463 40.494C64.6025 40.4848 64.6599 40.4868 64.7153 40.5001L70.2329 41.8207L68.4022 49.4376L67.5814 52.9005Z" fill="#989898"/>
<g style="mix-blend-mode:multiply" opacity="0.3">
<path d="M67.5837 52.9007L67.5183 52.885L62.0661 51.5801C62.0661 51.5801 65.8856 52.2411 66.7365 51.34C67.5873 50.439 69.4501 41.633 69.4501 41.633L70.1698 41.8052L68.3391 49.4221L67.5837 52.9007Z" fill="#3C3C3C"/>
</g>
<g style="mix-blend-mode:multiply" opacity="0.3">
<path d="M84.3371 49.3503L83.5368 52.68C83.5001 52.833 83.4039 52.9651 83.2695 53.0473C83.1352 53.1295 82.9736 53.1551 82.8203 53.1184L82.515 53.0453C82.4196 53.0252 82.331 52.9811 82.2576 52.9172C82.1842 52.8533 82.1283 52.7717 82.0953 52.6802C82.1149 52.6645 82.1297 52.6436 82.138 52.6199C82.1462 52.5962 82.1477 52.5707 82.1422 52.5462C82.1366 52.5217 82.1244 52.4993 82.1067 52.4814C82.0891 52.4635 82.0667 52.451 82.0423 52.4451C82.0178 52.4392 81.9922 52.4403 81.9684 52.4483C81.9445 52.4562 81.9233 52.4707 81.9073 52.49C81.8912 52.5093 81.8809 52.5327 81.8776 52.5576C81.8742 52.5824 81.8778 52.6077 81.8881 52.6306C81.8193 52.6817 81.7403 52.7172 81.6564 52.7349C81.5726 52.7526 81.4859 52.7519 81.4023 52.733L81.0969 52.6599C81.0039 52.6384 80.9177 52.5939 80.8463 52.5306C80.7749 52.4673 80.7206 52.3871 80.6882 52.2974C80.6481 52.2277 80.6311 52.1471 80.6398 52.0672C80.5994 52.145 80.5436 52.2139 80.4758 52.2696C80.4048 52.3267 80.3218 52.367 80.233 52.3876C80.1442 52.4082 80.0518 52.4085 79.9629 52.3885L79.6467 52.3128C79.5713 52.2948 79.5002 52.262 79.4377 52.2162C79.3752 52.1705 79.3225 52.1127 79.2826 52.0464C79.2427 51.98 79.2164 51.9064 79.2054 51.8299C79.1943 51.7533 79.1987 51.6753 79.2182 51.6004L79.3647 50.991C79.4306 51.3405 79.3474 51.7349 79.9035 51.868C80.4596 52.0011 80.7246 50.7066 81.0904 49.7125C81.2574 49.2577 81.3869 48.8629 81.4501 48.6479L81.4658 48.5826C81.4747 48.5541 81.4817 48.525 81.4867 48.4955C81.4867 48.4955 81.4658 48.5826 81.4318 48.724C81.3978 48.8655 81.2696 49.3987 81.2575 49.833C81.1041 50.855 81.0179 52.0772 81.3559 52.1581C81.694 52.239 82.0873 51.2744 82.4103 50.3621C82.5175 49.916 82.7068 49.5125 82.8018 49.213C82.8969 48.9136 82.9064 48.7778 82.9064 48.7778C82.9064 48.7778 82.8855 48.8648 82.8515 49.0063C82.8175 49.1477 82.7338 49.496 82.7155 49.8598C82.5648 50.8709 82.4446 52.2345 82.7935 52.318C83.3497 52.4511 84.2123 48.8142 84.2123 48.8142C84.2742 48.8873 84.3177 48.974 84.3394 49.0672C84.3611 49.1604 84.3603 49.2575 84.3371 49.3503Z" fill="#242733"/>
</g>
<path d="M81.1514 46.8625L79.5822 53.3913C79.5386 53.5721 79.4555 53.7412 79.3389 53.8863C79.2223 54.0315 79.075 54.1491 78.9076 54.2309L75.6754 55.8279C75.4079 55.9636 75.1008 56.0002 74.8088 55.9311L68.3425 54.3835C68.0125 54.3015 67.7283 54.0927 67.5519 53.8027C67.3754 53.5126 67.3209 53.1647 67.4002 52.8347L70.0417 41.8445C70.1208 41.5155 70.3276 41.2314 70.6166 41.0545C70.9056 40.8777 71.2532 40.8227 71.5829 40.9016L78.0492 42.4492C78.3406 42.5156 78.5987 42.6834 78.7772 42.9227L79.7719 44.2539L80.9318 45.8088C81.0446 45.9572 81.1228 46.1287 81.1607 46.3109C81.1987 46.4932 81.1955 46.6816 81.1514 46.8625Z" fill="#242733"/>
<g style="mix-blend-mode:screen" opacity="0.15">
<path d="M75.897 43.5906C75.5091 42.278 73.3125 41.8213 71.7147 43.3836C70.8671 44.1568 70.2102 45.115 69.7953 46.1835C69.3805 47.2521 69.2189 48.4019 69.3232 49.543C69.6838 51.6891 72.3879 51.1856 73.9867 49.7156C74.7202 48.887 75.2697 47.9128 75.599 46.8572C75.9282 45.8015 76.0298 44.6883 75.897 43.5906Z" fill="white"/>
</g>
<g style="mix-blend-mode:multiply" opacity="0.3">
<path d="M81.1534 46.8622L79.5842 53.391C79.5406 53.5718 79.4575 53.7409 79.3409 53.886C79.2243 54.0312 79.077 54.1488 78.9096 54.2306L75.6775 55.8276C75.4099 55.9633 75.1028 55.9999 74.8108 55.9308L68.3445 54.3832C68.0145 54.3012 67.7304 54.0924 67.5539 53.8024C67.3774 53.5123 67.3229 53.1644 67.4022 52.8344L67.4807 52.5079C69.9133 53.2513 72.3897 53.844 74.8956 54.2826C75.8517 54.4309 76.8758 54.2962 78.2839 52.5159C79.1438 51.4329 79.5366 47.3038 79.7739 44.2536L80.9339 45.8085C81.0466 45.9569 81.1248 46.1284 81.1628 46.3106C81.2007 46.4929 81.1975 46.6813 81.1534 46.8622Z" fill="#242733"/>
</g>
<g style="mix-blend-mode:multiply" opacity="0.3">
<path d="M81.6486 48.304L80.6914 52.2865C80.6513 52.2168 80.6343 52.1362 80.6429 52.0563C80.6025 52.1341 80.5468 52.203 80.479 52.2587L81.4414 48.2544C81.4789 48.334 81.4974 48.4211 81.4955 48.509C81.5255 48.4273 81.5787 48.356 81.6486 48.304Z" fill="#242733"/>
</g>
<path d="M81.0623 72.6174L85.8384 73.7605L86.002 73.7997C86.1307 73.8056 86.2591 73.7811 86.3766 73.7282C86.4965 73.6765 86.6026 73.5977 86.6866 73.4979C86.7706 73.3982 86.8302 73.2804 86.8606 73.1537L86.9679 72.7075C86.9939 72.5994 86.9981 72.4873 86.9803 72.3775C86.9625 72.2678 86.923 72.1627 86.8641 72.0683C86.8053 71.9739 86.7282 71.8922 86.6374 71.8278C86.5467 71.7633 86.444 71.7176 86.3353 71.6931L81.5592 70.55C81.4512 70.5226 81.3389 70.5169 81.2287 70.5332C81.1185 70.5496 81.0127 70.5876 80.9173 70.645C80.822 70.7025 80.739 70.7783 80.6733 70.868C80.6075 70.9578 80.5603 71.0596 80.5343 71.1677L80.4271 71.6139C80.3958 71.7417 80.396 71.8751 80.4275 72.0029C80.459 72.1307 80.521 72.2489 80.6082 72.3476C80.6848 72.4469 80.7846 72.5261 80.8987 72.5783L81.0623 72.6174Z" fill="#242733"/>
<path d="M80.5688 74.6734L85.3449 75.8165L85.5739 75.8713C85.6942 75.8684 85.8122 75.8375 85.9185 75.7811C86.0275 75.7265 86.1236 75.6492 86.2001 75.5543C86.2766 75.4595 86.3318 75.3494 86.362 75.2314L86.4718 74.7743C86.5046 74.6423 86.5047 74.5043 86.4721 74.3723C86.4396 74.2402 86.3754 74.118 86.285 74.0162C86.2073 73.9248 86.1112 73.8508 86.0028 73.7991L80.8996 72.5777C80.7828 72.5757 80.6671 72.599 80.5602 72.646C80.4312 72.6933 80.3159 72.7718 80.2248 72.8746C80.1337 72.9773 80.0696 73.101 80.0382 73.2346L79.931 73.6807C79.9043 73.7995 79.9034 73.9226 79.9285 74.0418C79.9536 74.161 80.004 74.2734 80.0764 74.3714C80.1641 74.4832 80.2767 74.5732 80.4053 74.6342L80.5688 74.6734Z" fill="#242733"/>
<path d="M80.147 76.7136L84.9231 77.8567C85.0311 77.8841 85.1434 77.8898 85.2536 77.8735C85.3638 77.8571 85.4696 77.8191 85.565 77.7617C85.6603 77.7042 85.7433 77.6284 85.809 77.5387C85.8748 77.4489 85.922 77.3471 85.948 77.239L86.0552 76.7928C86.088 76.6596 86.0871 76.5203 86.0526 76.3875C86.0181 76.2548 85.951 76.1326 85.8575 76.0321C85.7837 75.9435 85.6898 75.8737 85.5836 75.8284L85.42 75.7893L80.6439 74.6462C80.5744 74.6175 80.5008 74.5999 80.4258 74.594C80.3361 74.5959 80.248 74.6181 80.1681 74.6589C80.0378 74.7053 79.921 74.783 79.8281 74.8852C79.7351 74.9874 79.6689 75.1109 79.6352 75.2448L79.5279 75.6909C79.5029 75.7938 79.4985 75.9007 79.5149 76.0053C79.5313 76.1099 79.5682 76.2103 79.6235 76.3007C79.6779 76.4015 79.7524 76.4901 79.8424 76.5612C79.9325 76.6322 80.0361 76.6841 80.147 76.7136Z" fill="#242733"/>
<g style="mix-blend-mode:multiply" opacity="0.3">
<path d="M80.1483 76.7137L84.9244 77.8568C85.0323 77.8842 85.1447 77.8899 85.2549 77.8736C85.3651 77.8572 85.4709 77.8193 85.5662 77.7618C85.6616 77.7043 85.7445 77.6285 85.8103 77.5388C85.8761 77.449 85.9233 77.3472 85.9493 77.2391L86.0565 76.7929C86.0893 76.6597 86.0884 76.5204 86.0539 76.3877C86.0194 76.2549 85.9523 76.1327 85.8588 76.0322C85.7849 75.9436 85.6911 75.8738 85.5849 75.8285C85.7052 75.8256 85.8231 75.7948 85.9294 75.7384C86.0385 75.6838 86.1345 75.6064 86.211 75.5116C86.2875 75.4167 86.3427 75.3066 86.3729 75.1886L86.4723 74.7751C86.505 74.6431 86.5052 74.5051 86.4726 74.373C86.4401 74.241 86.3759 74.1188 86.2855 74.017C86.2078 73.9256 86.1116 73.8516 86.0033 73.7998C86.1321 73.8058 86.2604 73.7813 86.3779 73.7284C86.4978 73.6767 86.6039 73.5978 86.6879 73.4981C86.7719 73.3984 86.8315 73.2805 86.862 73.1538L86.9692 72.7077C86.9952 72.5996 86.9994 72.4874 86.9816 72.3777C86.9638 72.268 86.9243 72.1629 86.8655 72.0685C86.8066 71.9741 86.7295 71.8923 86.6388 71.8279C86.548 71.7635 86.4453 71.7177 86.3366 71.6932L85.4534 71.4819C85.8617 71.7982 86.437 71.9474 86.2352 72.7391C86.0333 73.5309 84.2036 73.0354 82.7468 72.8593C82.0633 72.7763 81.4749 72.6815 81.1644 72.6302L80.9463 72.578L81.2843 72.6589C81.6332 72.7424 82.2308 72.943 82.8803 73.1675C84.2747 73.6508 85.924 74.3217 85.8063 74.8114C85.6886 75.301 84.1886 75.1607 82.8108 74.992C82.16 74.9168 81.5389 74.8141 81.0975 74.7315C80.6561 74.6489 80.4759 74.5828 80.4759 74.5828L80.7922 74.6584C81.0648 74.7237 81.5119 74.8307 81.9899 75.0487C83.3652 75.5159 85.1645 76.2342 85.0468 76.7239C84.8559 77.5182 79.6353 76.2572 79.6353 76.2572C79.6837 76.3651 79.7545 76.4615 79.8429 76.5402C79.9313 76.6189 80.0354 76.678 80.1483 76.7137Z" fill="#3C3C3C"/>
</g>
<g style="mix-blend-mode:multiply" opacity="0.3">
<path d="M80.5664 72.6242L86.2912 73.9944C86.2135 73.9029 86.1174 73.829 86.009 73.7772C86.1378 73.7832 86.2662 73.7587 86.3837 73.7058L80.6152 72.3252C80.6919 72.4245 80.7916 72.5036 80.9058 72.5558C80.789 72.5539 80.6733 72.5772 80.5664 72.6242Z" fill="#3C3C3C"/>
</g>
<g style="mix-blend-mode:multiply" opacity="0.3">
<path d="M80.1532 74.6774L85.8562 76.0423C85.7823 75.9537 85.6884 75.8839 85.5822 75.8386C85.7025 75.8357 85.8205 75.8048 85.9268 75.7485L80.082 74.3496C80.1698 74.4614 80.2824 74.5514 80.4109 74.6124C80.3212 74.6144 80.2331 74.6366 80.1532 74.6774Z" fill="#3C3C3C"/>
</g>
<g style="mix-blend-mode:multiply" opacity="0.3">
<path d="M120.689 110.214C121.725 110.456 122.814 110.33 123.768 109.859C124.722 109.388 125.482 108.601 125.918 107.632C126.354 106.663 126.439 105.573 126.157 104.549C125.876 103.524 125.247 102.629 124.377 102.017L124.279 101.994C123.666 101.585 122.964 101.331 122.232 101.252C121.499 101.173 120.758 101.273 120.073 101.542C119.387 101.81 118.777 102.241 118.295 102.796C117.812 103.352 117.471 104.016 117.302 104.731C117.201 105.139 117.158 105.558 117.175 105.978C117.219 107.004 117.603 107.987 118.268 108.771C118.898 109.499 119.747 110.005 120.689 110.214Z" fill="#363A4D"/>
</g>
<g style="mix-blend-mode:multiply" opacity="0.3">
<path d="M121.019 111.294C122.217 111.584 123.48 111.447 124.587 110.906C125.695 110.365 126.578 109.454 127.083 108.332C127.589 107.209 127.684 105.946 127.354 104.76C127.024 103.575 126.288 102.542 125.274 101.841L125.154 101.812C124.445 101.347 123.635 101.059 122.791 100.972C121.947 100.886 121.094 101.003 120.305 101.313C119.516 101.624 118.813 102.12 118.256 102.759C117.699 103.397 117.304 104.16 117.104 104.983C116.992 105.45 116.942 105.929 116.957 106.409C117.003 107.596 117.449 108.733 118.223 109.635C118.956 110.469 119.934 111.05 121.019 111.294Z" fill="#363A4D"/>
</g>
<path d="M120.75 109.964C121.73 110.196 122.76 110.08 123.663 109.636C124.566 109.193 125.286 108.449 125.699 107.532C126.111 106.616 126.191 105.585 125.924 104.616C125.657 103.647 125.06 102.802 124.236 102.225L124.138 102.202C123.717 101.924 123.25 101.722 122.759 101.607C121.645 101.343 120.473 101.531 119.498 102.127C118.522 102.724 117.823 103.682 117.554 104.791C117.466 105.16 117.433 105.54 117.456 105.919C117.486 106.89 117.848 107.821 118.482 108.558C119.071 109.253 119.865 109.745 120.75 109.964Z" fill="#65A831"/>
<g style="mix-blend-mode:multiply" opacity="0.15">
<path d="M120.752 109.962C121.739 110.193 122.776 110.071 123.682 109.617C124.588 109.164 125.306 108.407 125.71 107.479C126.114 106.551 126.179 105.512 125.894 104.541C125.608 103.57 124.99 102.73 124.148 102.168C124.833 102.956 125.207 103.966 125.202 105.01C125.197 106.053 124.813 107.059 124.12 107.841C123.428 108.623 122.475 109.128 121.438 109.261C120.4 109.395 119.35 109.148 118.481 108.567C119.073 109.259 119.867 109.747 120.752 109.962Z" fill="#363A4D"/>
</g>
<g style="mix-blend-mode:screen" opacity="0.2">
<path d="M118.615 104.504C118.79 105.041 119.169 105.489 119.67 105.751C120.172 106.014 120.757 106.069 121.299 105.905C122.521 105.622 123.85 104.652 123.557 103.373C123.35 102.799 122.928 102.328 122.379 102.06C121.83 101.791 121.198 101.746 120.617 101.933C120.034 102.06 119.515 102.387 119.149 102.856C118.783 103.326 118.594 103.909 118.615 104.504Z" fill="white"/>
</g>
<g style="mix-blend-mode:screen" opacity="0.35">
<path d="M119.034 103.384C119.203 103.643 119.679 103.63 120.089 103.36C120.5 103.09 120.89 102.62 120.678 102.35C120.466 102.081 119.958 102.178 119.567 102.464C119.175 102.75 118.855 103.122 119.034 103.384Z" fill="white"/>
</g>
<g style="mix-blend-mode:multiply" opacity="0.15">
<path d="M120.75 109.963C121.73 110.195 122.76 110.079 123.663 109.636C124.566 109.192 125.286 108.448 125.699 107.531C126.111 106.615 126.191 105.584 125.924 104.615C125.657 103.647 125.06 102.801 124.236 102.224C124.581 103.089 124.705 104.026 124.595 104.95C124.486 105.874 124.147 106.757 123.61 107.517C123.088 108.021 122.441 108.376 121.735 108.545C121.029 108.714 120.29 108.691 119.596 108.478C119.073 108.237 118.61 107.883 118.24 107.442C117.869 107.001 117.601 106.485 117.453 105.929C117.483 106.9 117.845 107.831 118.479 108.568C119.071 109.259 119.865 109.747 120.75 109.963Z" fill="#363A4D"/>
</g>
<g style="mix-blend-mode:multiply" opacity="0.3">
<path d="M103.396 106.074C104.433 106.316 105.521 106.191 106.475 105.72C107.429 105.249 108.189 104.461 108.625 103.493C109.061 102.524 109.146 101.434 108.865 100.409C108.584 99.3846 107.954 98.4897 107.085 97.8776L106.976 97.8515C106.534 97.5557 106.043 97.3408 105.525 97.2167C104.345 96.9343 103.101 97.1312 102.067 97.7641C101.032 98.397 100.292 99.414 100.009 100.591C99.9086 100.999 99.8659 101.419 99.8825 101.838C99.9264 102.865 100.311 103.847 100.975 104.632C101.609 105.357 102.456 105.862 103.396 106.074Z" fill="#363A4D"/>
</g>
<g style="mix-blend-mode:multiply" opacity="0.3">
<path d="M103.737 107.007C104.899 107.277 106.119 107.137 107.188 106.609C108.257 106.081 109.11 105.199 109.6 104.113C110.089 103.028 110.186 101.806 109.873 100.657C109.56 99.5087 108.857 98.5041 107.884 97.8155L107.764 97.7868C106.976 97.2599 106.058 96.9609 105.11 96.9228C104.163 96.8848 103.223 97.1092 102.396 97.5713C101.568 98.0333 100.885 98.7149 100.422 99.5406C99.9591 100.366 99.7341 101.304 99.7721 102.249C99.8196 103.402 100.252 104.506 101.002 105.386C101.718 106.202 102.676 106.77 103.737 107.007Z" fill="#363A4D"/>
</g>
<path d="M103.455 105.824C104.433 106.046 105.458 105.921 106.354 105.472C107.251 105.023 107.963 104.277 108.37 103.362C108.776 102.447 108.851 101.42 108.583 100.455C108.314 99.491 107.718 98.6496 106.897 98.075L106.81 98.0542C106.388 97.778 105.921 97.5768 105.431 97.4594C104.317 97.1929 103.143 97.3787 102.167 97.9759C101.191 98.5731 100.493 99.5328 100.226 100.644C100.135 101.012 100.098 101.39 100.117 101.769C100.147 102.739 100.509 103.671 101.143 104.408C101.739 105.117 102.551 105.614 103.455 105.824Z" fill="#04ABCD"/>
<g style="mix-blend-mode:multiply" opacity="0.15">
<path d="M103.456 105.824C104.434 106.045 105.459 105.921 106.355 105.472C107.251 105.023 107.964 104.277 108.37 103.362C108.777 102.447 108.852 101.42 108.584 100.455C108.315 99.4909 107.719 98.6495 106.898 98.0749C107.508 98.7649 107.881 99.6316 107.961 100.548C108.042 101.465 107.827 102.383 107.346 103.169C106.866 103.954 106.147 104.566 105.293 104.914C104.44 105.261 103.497 105.327 102.603 105.102C102.111 104.987 101.644 104.785 101.224 104.507C101.813 105.166 102.593 105.626 103.456 105.824Z" fill="#363A4D"/>
</g>
<g style="mix-blend-mode:screen" opacity="0.25">
<path d="M101.309 100.362C101.484 100.9 101.863 101.348 102.365 101.61C102.867 101.872 103.451 101.928 103.994 101.764C105.215 101.481 106.544 100.51 106.251 99.2321C106.046 98.6594 105.626 98.189 105.079 97.9206C104.532 97.6522 103.902 97.607 103.322 97.7945C102.738 97.919 102.216 98.2443 101.848 98.7137C101.481 99.1831 101.29 99.7667 101.309 100.362Z" fill="white"/>
</g>
<g style="mix-blend-mode:screen" opacity="0.35">
<path d="M101.729 99.2426C101.897 99.5016 102.373 99.4889 102.795 99.2216C103.216 98.9543 103.584 98.4785 103.372 98.2091C103.16 97.9398 102.664 98.0395 102.272 98.3255C101.88 98.6115 101.56 98.9837 101.729 99.2426Z" fill="white"/>
</g>
<g style="mix-blend-mode:multiply" opacity="0.15">
<path d="M103.456 105.824C104.434 106.045 105.459 105.921 106.355 105.472C107.252 105.023 107.964 104.277 108.371 103.362C108.777 102.447 108.853 101.419 108.584 100.455C108.315 99.4907 107.72 98.6494 106.898 98.0748C107.245 98.9389 107.371 99.8758 107.263 100.801C107.156 101.725 106.819 102.609 106.283 103.37C105.758 103.874 105.109 104.228 104.401 104.396C103.694 104.565 102.954 104.542 102.258 104.329C101.736 104.087 101.272 103.733 100.902 103.293C100.532 102.852 100.263 102.335 100.115 101.779C100.145 102.75 100.507 103.681 101.142 104.418C101.74 105.124 102.552 105.618 103.456 105.824Z" fill="#363A4D"/>
</g>
<g style="mix-blend-mode:multiply" opacity="0.3">
<path d="M109.719 116.712C110.756 116.954 111.844 116.829 112.798 116.358C113.752 115.887 114.512 115.1 114.948 114.131C115.384 113.162 115.469 112.072 115.188 111.047C114.907 110.023 114.278 109.128 113.408 108.516L113.31 108.492C112.694 108.091 111.992 107.843 111.261 107.769C110.529 107.695 109.791 107.796 109.107 108.065C108.424 108.335 107.815 108.763 107.332 109.316C106.848 109.868 106.505 110.528 106.33 111.241C106.231 111.645 106.189 112.061 106.206 112.477C106.246 113.504 106.631 114.487 107.299 115.27C107.934 115.992 108.781 116.496 109.719 116.712Z" fill="#363A4D"/>
</g>
<g style="mix-blend-mode:multiply" opacity="0.3">
<path d="M109.905 117.666C111.051 117.942 112.258 117.81 113.317 117.292C114.376 116.774 115.22 115.904 115.704 114.83C116.188 113.757 116.28 112.549 115.966 111.415C115.651 110.281 114.95 109.292 113.982 108.619L113.873 108.593C113.377 108.27 112.829 108.034 112.253 107.895C111.495 107.72 110.706 107.722 109.948 107.9C109.19 108.077 108.483 108.425 107.881 108.918C107.28 109.411 106.799 110.035 106.477 110.742C106.154 111.449 105.999 112.221 106.022 112.997C106.071 114.131 106.496 115.216 107.23 116.082C107.931 116.879 108.868 117.434 109.905 117.666Z" fill="#363A4D"/>
</g>
<path d="M109.778 116.463C110.759 116.702 111.792 116.592 112.699 116.15C113.606 115.709 114.33 114.964 114.744 114.046C115.158 113.127 115.236 112.093 114.965 111.123C114.695 110.153 114.092 109.308 113.262 108.735L113.164 108.711C112.584 108.331 111.921 108.095 111.231 108.024C110.541 107.953 109.844 108.048 109.198 108.302C108.553 108.556 107.978 108.961 107.522 109.483C107.066 110.005 106.743 110.628 106.579 111.301C106.496 111.67 106.459 112.048 106.47 112.426C106.513 113.394 106.879 114.32 107.51 115.057C108.095 115.757 108.89 116.25 109.778 116.463Z" fill="#E83C4A"/>
<g style="mix-blend-mode:multiply" opacity="0.15">
<path d="M109.778 116.462C110.766 116.701 111.807 116.585 112.717 116.133C113.627 115.682 114.349 114.924 114.754 113.994C115.16 113.064 115.223 112.021 114.934 111.048C114.644 110.076 114.02 109.237 113.171 108.678C113.781 109.368 114.154 110.235 114.235 111.152C114.315 112.068 114.1 112.987 113.62 113.772C113.14 114.558 112.42 115.169 111.567 115.517C110.713 115.865 109.77 115.931 108.876 115.706C108.385 115.585 107.92 115.38 107.5 115.1C108.093 115.786 108.892 116.264 109.778 116.462Z" fill="#A80000"/>
</g>
<g style="mix-blend-mode:screen" opacity="0.25">
<path d="M107.64 111.014C107.814 111.552 108.193 112 108.695 112.262C109.197 112.524 109.782 112.579 110.324 112.416C111.545 112.133 112.877 111.151 112.584 109.873C112.375 109.301 111.952 108.832 111.404 108.563C110.856 108.295 110.226 108.248 109.644 108.433C109.058 108.557 108.535 108.885 108.168 109.357C107.801 109.83 107.614 110.417 107.64 111.014Z" fill="white"/>
</g>
<g style="mix-blend-mode:screen" opacity="0.25">
<path d="M108.057 109.859C108.226 110.118 108.712 110.108 109.121 109.849C109.529 109.59 109.924 109.097 109.712 108.782C109.499 108.466 109.003 108.612 108.611 108.898C108.219 109.184 107.884 109.622 108.057 109.859Z" fill="white"/>
</g>
<g style="mix-blend-mode:multiply" opacity="0.15">
<path d="M109.779 116.463C110.76 116.703 111.793 116.592 112.7 116.151C113.607 115.709 114.331 114.964 114.745 114.046C115.159 113.127 115.237 112.093 114.966 111.123C114.696 110.153 114.093 109.308 113.263 108.735C113.606 109.598 113.729 110.533 113.62 111.455C113.511 112.377 113.174 113.258 112.639 114.017C112.115 114.521 111.466 114.876 110.758 115.045C110.05 115.213 109.31 115.19 108.615 114.976C108.094 114.733 107.633 114.38 107.262 113.942C106.892 113.503 106.621 112.99 106.469 112.437C106.511 113.405 106.877 114.331 107.509 115.068C108.095 115.765 108.892 116.254 109.779 116.463Z" fill="#A80000"/>
</g>
<g style="mix-blend-mode:multiply" opacity="0.3">
<path d="M113.929 99.1944C114.966 99.4438 116.058 99.3238 117.016 98.855C117.973 98.3862 118.737 97.5982 119.174 96.6271C119.611 95.6561 119.695 94.5631 119.41 93.5371C119.125 92.5112 118.49 91.6169 117.615 91.0088L117.516 90.9853C117.066 90.6974 116.572 90.4858 116.053 90.3588C115.468 90.2189 114.862 90.1953 114.269 90.2892C113.675 90.3831 113.106 90.5927 112.594 90.9061C112.082 91.2195 111.637 91.6305 111.283 92.1156C110.93 92.6007 110.677 93.1505 110.536 93.7335C110.438 94.1378 110.396 94.5538 110.412 94.9696C110.45 95.9971 110.836 96.9815 111.505 97.7628C112.143 98.4812 112.991 98.9819 113.929 99.1944Z" fill="#363A4D"/>
</g>
<g style="mix-blend-mode:multiply" opacity="0.3">
<path d="M114.15 100.674C115.375 100.962 116.662 100.815 117.79 100.259C118.918 99.7031 119.817 98.7725 120.332 97.6271C120.848 96.4817 120.947 95.1929 120.614 93.9821C120.281 92.7714 119.536 91.7141 118.507 90.9919L118.387 90.9632C117.858 90.6196 117.276 90.3673 116.663 90.2171C115.267 89.8859 113.795 90.1203 112.572 90.869C111.348 91.6178 110.471 92.8199 110.133 94.2122C110.021 94.691 109.973 95.1824 109.99 95.6737C110.041 96.8872 110.496 98.0489 111.283 98.9753C112.036 99.8288 113.039 100.423 114.15 100.674Z" fill="#363A4D"/>
</g>
<path d="M113.989 98.944C114.97 99.1838 116.003 99.0733 116.91 98.6318C117.817 98.1902 118.541 97.4455 118.955 96.527C119.369 95.6086 119.447 94.5744 119.176 93.6042C118.906 92.634 118.303 91.7891 117.473 91.2163L117.375 91.1928C116.795 90.8124 116.132 90.5767 115.442 90.5054C114.752 90.4342 114.055 90.5295 113.409 90.7834C112.764 91.0373 112.189 91.4423 111.733 91.9642C111.277 92.4862 110.954 93.1098 110.79 93.7826C110.706 94.1514 110.67 94.5293 110.681 94.9072C110.72 95.879 111.085 96.8096 111.718 97.549C112.308 98.2421 113.104 98.7305 113.989 98.944Z" fill="#FFE019"/>
<g style="mix-blend-mode:multiply" opacity="0.1">
<path d="M113.989 98.9442C114.977 99.1832 116.018 99.0666 116.928 98.6151C117.838 98.1635 118.56 97.4059 118.965 96.4758C119.371 95.5456 119.434 94.5025 119.145 93.5302C118.855 92.5578 118.231 91.7186 117.382 91.1604C118.067 91.949 118.442 92.9589 118.436 94.0023C118.431 95.0458 118.047 96.0519 117.355 96.8339C116.662 97.6158 115.709 98.1205 114.672 98.254C113.635 98.3876 112.584 98.141 111.716 97.5601C112.308 98.2496 113.104 98.7342 113.989 98.9442Z" fill="#520000"/>
</g>
<g style="mix-blend-mode:screen" opacity="0.25">
<path d="M111.849 93.5062C112.024 94.0439 112.403 94.4919 112.905 94.754C113.407 95.0161 113.991 95.0715 114.534 94.9081C115.755 94.625 117.084 93.6542 116.791 92.376C116.584 91.8024 116.163 91.331 115.615 91.0606C115.067 90.7901 114.436 90.7415 113.854 90.9249C113.269 91.0514 112.747 91.3795 112.381 91.8516C112.014 92.3236 111.826 92.9095 111.849 93.5062Z" fill="white"/>
</g>
<g style="mix-blend-mode:screen" opacity="0.55">
<path d="M112.262 92.3617C112.431 92.6207 112.915 92.6214 113.326 92.3515C113.737 92.0816 114.129 91.6002 113.917 91.2847C113.704 90.9692 113.208 91.115 112.816 91.4011C112.425 91.6871 112.094 92.1028 112.262 92.3617Z" fill="white"/>
</g>
<g style="mix-blend-mode:multiply" opacity="0.1">
<path d="M113.99 98.9433C114.971 99.1831 116.004 99.0726 116.911 98.6311C117.818 98.1896 118.542 97.4448 118.956 96.5264C119.37 95.6079 119.448 94.5737 119.177 93.6035C118.907 92.6333 118.304 91.7884 117.474 91.2156C117.817 92.0786 117.94 93.0133 117.831 93.9354C117.722 94.8575 117.385 95.7381 116.85 96.4977C116.327 97.0042 115.678 97.3613 114.969 97.5318C114.261 97.7024 113.52 97.68 112.823 97.4672C112.302 97.2221 111.841 96.8673 111.471 96.4271C111.101 95.9869 110.831 95.4718 110.68 94.9174C110.718 95.8893 111.084 96.8198 111.717 97.5592C112.309 98.2487 113.105 98.7333 113.99 98.9433Z" fill="#520000"/>
</g>
<path d="M57.5823 86.4451L51.7266 85.0436C51.3333 84.9495 50.9936 84.7033 50.7821 84.3592C50.5707 84.0152 50.505 83.6014 50.5993 83.2089L52.0037 77.3656C52.0981 76.9731 52.0323 76.5593 51.8209 76.2152C51.6095 75.8711 51.2698 75.6249 50.8764 75.5308L42.2511 73.4664C41.8578 73.3723 41.4431 73.438 41.0983 73.6489C40.7534 73.8599 40.5067 74.1989 40.4124 74.5914L39.008 80.4346C38.9136 80.8271 38.6669 81.1661 38.3221 81.3771C37.9773 81.5881 37.5626 81.6537 37.1693 81.5595L31.3136 80.1581C31.1175 80.1111 30.9139 80.1032 30.7147 80.1347C30.5154 80.1663 30.3243 80.2367 30.1523 80.3419C29.9804 80.4471 29.8308 80.5851 29.7123 80.748C29.5937 80.9109 29.5085 81.0955 29.4614 81.2913L27.3953 89.8875C27.3484 90.0828 27.3406 90.2854 27.3725 90.4836C27.4044 90.6819 27.4753 90.8719 27.5811 91.0427C27.6869 91.2135 27.8255 91.3617 27.989 91.4788C28.1524 91.5959 28.3375 91.6795 28.5335 91.7249L34.3892 93.1264C34.7825 93.2205 35.1222 93.4667 35.3336 93.8108C35.545 94.1549 35.6108 94.5687 35.5165 94.9612L34.1094 100.815C34.0151 101.208 34.0809 101.622 34.2923 101.966C34.5037 102.31 34.8434 102.556 35.2367 102.65L43.8621 104.714C44.2554 104.809 44.6701 104.743 45.0149 104.532C45.3597 104.321 45.6064 103.982 45.7008 103.59L47.1078 97.7354C47.2022 97.3429 47.4489 97.0039 47.7937 96.793C48.1385 96.582 48.5532 96.5163 48.9465 96.6105L54.8021 98.0119C55.1955 98.1061 55.6101 98.0404 55.955 97.8295C56.2998 97.6185 56.5465 97.2795 56.6408 96.887L58.7069 88.2908C58.7553 88.0959 58.7645 87.8934 58.7341 87.6949C58.7037 87.4964 58.6342 87.3059 58.5297 87.1343C58.4251 86.9627 58.2876 86.8135 58.125 86.6952C57.9624 86.577 57.7779 86.4919 57.5823 86.4451Z" fill="#7A7E99"/>
<g style="mix-blend-mode:multiply" opacity="0.3">
<path d="M48.3526 83.9143L44.1267 87.103C44.0477 87.1675 43.9549 87.213 43.8554 87.2357C43.7559 87.2585 43.6524 87.258 43.5532 87.2343C43.4539 87.2105 43.3615 87.1641 43.2832 87.0988C43.2048 87.0335 43.1427 86.9509 43.1017 86.8577L40.7196 82.0874C40.6267 81.8929 40.6062 81.6718 40.6619 81.4637L42.082 75.5552C42.116 75.3471 42.2303 75.1606 42.4004 75.0357C42.5706 74.9108 42.783 74.8574 42.9922 74.8869L49.6548 76.4815C49.8572 76.5476 50.0253 76.6909 50.1224 76.8801C50.2195 77.0693 50.2377 77.2891 50.1731 77.4916L48.7529 83.4002C48.6869 83.6146 48.5445 83.7975 48.3526 83.9143Z" fill="#3C3C3C"/>
</g>
<path d="M48.1039 83.6118L44.1772 86.5154C44.1034 86.5763 44.0165 86.6193 43.9232 86.6409C43.83 86.6626 43.7329 86.6622 43.6398 86.6399C43.5467 86.6177 43.4601 86.574 43.3868 86.5126C43.3135 86.4511 43.2556 86.3734 43.2176 86.2857L40.9912 81.8749C40.9068 81.6906 40.8875 81.4832 40.9366 81.2865L42.2443 75.8458C42.2595 75.7497 42.2936 75.6575 42.3447 75.5746C42.3958 75.4916 42.4628 75.4196 42.5419 75.3626C42.6209 75.3056 42.7105 75.2648 42.8055 75.2424C42.9004 75.2201 42.9989 75.2167 43.0951 75.2325L49.2997 76.7175C49.4883 76.7774 49.6456 76.9091 49.7374 77.084C49.8292 77.259 49.8482 77.463 49.7901 77.6518L48.4824 83.0925C48.4249 83.3063 48.2901 83.4914 48.1039 83.6118Z" fill="#474D66"/>
<g style="mix-blend-mode:multiply" opacity="0.3">
<path d="M37.9032 93.5758L42.1945 90.4027C42.2743 90.3403 42.3671 90.2967 42.4662 90.2752C42.5652 90.2537 42.6678 90.2547 42.7664 90.2783C42.8649 90.3019 42.9569 90.3474 43.0353 90.4114C43.1138 90.4754 43.1768 90.5563 43.2195 90.648L45.5362 95.4027C45.6296 95.6015 45.6528 95.8261 45.6022 96.0398L44.182 101.948C44.1651 102.052 44.1278 102.151 44.0724 102.239C44.017 102.328 43.9445 102.405 43.8592 102.466C43.7738 102.527 43.6773 102.57 43.5751 102.594C43.4729 102.617 43.367 102.621 43.2636 102.603L36.6555 101.022C36.456 100.956 36.2904 100.815 36.1949 100.628C36.0993 100.441 36.0816 100.225 36.1455 100.025L37.5604 94.1382C37.6049 93.9163 37.7262 93.7172 37.9032 93.5758Z" fill="#3C3C3C"/>
</g>
<path d="M38.1048 93.8769L42.0965 90.9429C42.1718 90.8862 42.2587 90.8468 42.3511 90.8276C42.4434 90.8084 42.5389 90.8098 42.6306 90.8317C42.7223 90.8537 42.808 90.8956 42.8816 90.9545C42.9552 91.0135 43.0147 91.0879 43.0561 91.1725L45.2689 95.5916C45.3577 95.7714 45.3818 95.9763 45.3371 96.1717L44.0294 101.612C43.9953 101.807 43.8857 101.98 43.7243 102.095C43.563 102.209 43.3629 102.255 43.1676 102.223L36.9631 100.738C36.8701 100.709 36.7839 100.661 36.7094 100.598C36.635 100.535 36.5737 100.458 36.5291 100.372C36.4846 100.285 36.4576 100.191 36.4498 100.094C36.442 99.9966 36.4535 99.899 36.4836 99.8064L37.7912 94.3658C37.836 94.1715 37.9468 93.9988 38.1048 93.8769Z" fill="#474D66"/>
<g style="mix-blend-mode:multiply" opacity="0.3">
<path d="M47.9256 93.9484L44.7541 89.6797C44.6895 89.5997 44.6442 89.506 44.6216 89.4059C44.5991 89.3057 44.5998 89.2017 44.6238 89.1019C44.6478 89.002 44.6944 88.909 44.7601 88.83C44.8257 88.7509 44.9087 88.688 45.0025 88.6459L49.7694 86.2771C49.9687 86.1839 50.1938 86.1607 50.4079 86.2113L56.3617 87.6362C56.5694 87.6732 56.7543 87.7898 56.877 87.9611C56.9996 88.1323 57.0501 88.3447 57.0178 88.5528L55.4199 95.2012C55.3541 95.4012 55.2125 95.5676 55.0253 95.6648C54.8382 95.7619 54.6204 95.7821 54.4185 95.721L48.4975 94.3039C48.2706 94.2569 48.0679 94.1309 47.9256 93.9484Z" fill="#3C3C3C"/>
</g>
<path d="M48.2719 93.7559L45.329 89.7835C45.2721 89.7084 45.2327 89.6216 45.2134 89.5295C45.1942 89.4373 45.1956 89.3421 45.2176 89.2505C45.2396 89.159 45.2816 89.0734 45.3407 89C45.3997 88.9266 45.4743 88.8672 45.5591 88.8259L49.9902 86.6069C50.1707 86.5216 50.3752 86.5015 50.5689 86.5498L56.0211 87.8547C56.1175 87.8699 56.2098 87.904 56.293 87.955C56.3761 88.0059 56.4483 88.0728 56.5054 88.1517C56.5625 88.2306 56.6034 88.32 56.6258 88.4147C56.6482 88.5095 56.6516 88.6077 56.6358 88.7037L55.1477 94.8952C55.0876 95.0834 54.9556 95.2403 54.7803 95.332C54.605 95.4236 54.4005 95.4425 54.2113 95.3845L48.7591 94.0796C48.5643 94.0308 48.3922 93.9165 48.2719 93.7559Z" fill="#474D66"/>
<g style="mix-blend-mode:multiply" opacity="0.3">
<path d="M38.2867 83.529L41.4691 87.8004C41.5336 87.8803 41.5789 87.974 41.6015 88.0742C41.6241 88.1743 41.6234 88.2783 41.5994 88.3782C41.5754 88.478 41.5288 88.571 41.4631 88.65C41.3974 88.7291 41.3145 88.7921 41.2206 88.8341L36.4428 91.2003C36.2483 91.2963 36.026 91.3206 35.8152 91.2687L29.8942 89.8516C29.6853 89.8145 29.499 89.6979 29.3746 89.5265C29.2502 89.355 29.1973 89.1421 29.2271 88.9325L30.8251 82.284C30.8938 82.0837 31.0377 81.9179 31.2265 81.8214C31.4154 81.7249 31.6344 81.7053 31.8374 81.7668L37.7584 83.1839C37.9698 83.2331 38.1569 83.3554 38.2867 83.529Z" fill="#3C3C3C"/>
</g>
<path d="M37.996 83.736L40.9254 87.7166C40.9865 87.7902 41.0296 87.877 41.0512 87.97C41.0729 88.0631 41.0725 88.1599 41.0502 88.2528C41.0279 88.3457 40.9842 88.4322 40.9226 88.5053C40.8609 88.5785 40.7831 88.6363 40.6952 88.6742L36.2777 90.885C36.0935 90.9735 35.8845 90.9965 35.6854 90.9503L30.2332 89.6454C30.1305 89.6353 30.031 89.6042 29.9409 89.554C29.8508 89.5038 29.7721 89.4357 29.7095 89.3537C29.647 89.2718 29.602 89.1779 29.5774 89.0779C29.5529 88.9779 29.5492 88.8739 29.5667 88.7725L31.0548 82.581C31.0844 82.4882 31.132 82.4022 31.195 82.3279C31.2581 82.2536 31.3352 82.1925 31.4219 82.148C31.5087 82.1035 31.6035 82.0766 31.7007 82.0688C31.7979 82.061 31.8957 82.0725 31.9885 82.1025L37.4407 83.4075C37.6602 83.4444 37.8582 83.5615 37.996 83.736Z" fill="#474D66"/>
<g style="mix-blend-mode:screen" opacity="0.7">
<g style="mix-blend-mode:screen" opacity="0.7">
<path d="M29.4941 78.8021C31.5048 79.1683 33.4942 79.5753 35.4867 80.0177L36.2282 80.1951L36.5771 80.2787C36.8551 80.3173 37.1384 80.2878 37.4024 80.1926C37.6664 80.0973 37.9032 79.9393 38.0922 79.7322C38.2435 79.5688 38.3634 79.3791 38.4459 79.1724C38.5193 78.941 38.5761 78.7047 38.6159 78.4652L38.9716 76.9853C39.2096 75.9951 39.4449 75.0158 39.6855 74.0147C39.8432 73.4581 40.2106 72.9841 40.7108 72.6919C41.211 72.3997 41.8051 72.3121 42.3686 72.4474C44.3532 72.9224 46.3007 73.5036 48.2618 74.0765C46.2619 73.713 44.2507 73.3007 42.2666 72.8718C41.8227 72.7842 41.3621 72.8671 40.9769 73.104C40.5926 73.3401 40.3132 73.7136 40.1954 74.1482L39.1284 78.5878C39.0811 78.8524 39.0182 79.114 38.9401 79.3713C38.7779 79.7717 38.5031 80.1167 38.1489 80.3647C37.7946 80.6127 37.376 80.7532 36.9435 80.7691C36.7989 80.779 36.6536 80.7713 36.5109 80.7461L36.1292 80.6548L35.3877 80.4773C33.4105 79.9235 31.4551 79.375 29.4941 78.8021Z" fill="white"/>
</g>
</g>
<g style="mix-blend-mode:screen" opacity="0.7">
<g style="mix-blend-mode:screen" opacity="0.7">
<path d="M65.3513 73.9418C67.9046 74.4494 70.4419 74.9761 72.9795 75.5489C75.5172 76.1217 78.0413 76.7028 80.6257 77.3213C83.21 77.9399 85.6853 78.5323 88.1911 79.1896C90.6969 79.8469 93.2246 80.5094 95.7745 81.2232C93.2258 80.7283 90.664 80.1919 88.0891 79.6139C85.5702 79.0111 83.0273 78.46 80.4975 77.8546C77.9677 77.2491 75.4488 76.6462 72.8775 75.9733C70.3063 75.3003 67.8549 74.6561 65.3513 73.9418Z" fill="white"/>
</g>
</g>
<g style="mix-blend-mode:screen" opacity="0.7">
<g style="mix-blend-mode:screen" opacity="0.7">
<path d="M68.0278 41.7877L66.5862 41.5003L65.4958 41.2393C65.3871 41.2129 65.2741 41.2094 65.1639 41.2289C65.0543 41.2444 64.9492 41.2828 64.8556 41.3417C64.7619 41.4006 64.6818 41.4786 64.6205 41.5706C64.5531 41.6597 64.505 41.7619 64.4792 41.8705L64.0503 43.655C63.8228 44.6017 63.5926 45.5593 63.3651 46.5059C63.1375 47.4526 62.9074 48.4102 62.6009 49.3495C62.8311 48.3919 63.0041 47.4322 63.2124 46.4694C63.4208 45.5066 63.6701 44.5652 63.8976 43.6185L64.3213 41.8557C64.3506 41.7243 64.4079 41.6006 64.4892 41.4932C64.5683 41.3841 64.6688 41.2922 64.7845 41.223C64.9003 41.1537 65.0289 41.1087 65.1626 41.0905C65.2915 41.074 65.4224 41.0857 65.5464 41.1248L65.9062 41.2109L66.6259 41.3832L68.0278 41.7877Z" fill="white"/>
</g>
</g>
<path d="M82.8698 71.9673C84.3192 65.3839 86.3245 58.9347 88.8641 52.6889C87.0484 52.515 85.2447 52.2332 83.4626 51.8449L83.8523 50.2236C85.7523 50.6426 87.6789 50.9307 89.6185 51.0858C89.6498 50.9553 89.7331 50.8486 89.7972 50.7259C88.4771 46.9732 88.2199 42.9298 89.054 39.0407C90.2168 34.117 92.6 29.5634 95.9848 25.7976C98.6977 22.8106 103.205 19.2175 109.234 19.13C115.021 19.0421 119.647 20.7132 122.141 23.8186C123.387 25.3762 124.095 27.2932 124.16 29.2845C127.731 29.0369 131.298 29.8186 134.436 31.5366C138.787 34.0164 140.874 38.3362 140.463 44.0262C139.812 53.2602 132.395 64.3503 124.904 67.3097C113.718 71.7212 101.776 66.3774 96.8974 61.9187C94.211 59.361 92.0824 56.2778 90.6446 52.8619C88.065 59.1535 86.0247 65.6521 84.5456 72.2878L82.8698 71.9673ZM92.3936 52.8777C93.7327 55.8197 95.6272 58.4766 97.9736 60.7033C102.907 65.1751 114.33 69.7042 124.255 65.7852C131.097 63.0844 138.159 52.4618 138.732 43.9341C138.982 40.4496 138.275 35.7122 133.53 33C130.627 31.4298 127.33 30.7326 124.038 30.9928C123.976 31.5771 123.879 32.1571 123.747 32.7299C122.772 36.7886 118.761 42.8712 111.966 47.2977C106.142 51.0561 99.3284 52.9987 92.3936 52.8777ZM91.558 50.8366L91.6894 51.2017C98.548 51.4628 105.321 49.613 111.091 45.9029C117.472 41.7572 121.298 35.9641 122.158 32.338C122.254 31.9419 122.327 31.5406 122.378 31.1362C118.934 31.6085 115.573 32.5588 112.393 33.9594C106.146 36.6849 100.407 40.4472 95.4194 45.0865C93.8367 46.7882 92.5335 48.7289 91.558 50.8366ZM114.647 21.3689C112.868 20.9607 111.045 20.7758 109.221 20.8183C100.203 20.9615 92.6916 30.3833 90.643 39.3865C89.9855 42.4137 90.0651 45.5541 90.8751 48.5443C91.7676 46.8315 92.8999 45.2543 94.2381 43.8602C99.3814 38.7737 111.259 30.6156 122.472 29.3983C122.43 27.7409 121.847 26.1425 120.81 24.8464C119.197 23.0397 117.03 21.8169 114.647 21.3689Z" fill="#242733"/>
</svg>
