<svg width="111" height="122" viewBox="0 0 111 122" fill="none" xmlns="http://www.w3.org/2000/svg">
<path d="M92.9015 79.3799H18.0862C16.7129 79.3799 15.5996 80.4888 15.5996 81.8567V88.2585C15.5996 89.6264 16.7129 90.7353 18.0862 90.7353H92.9015C94.2748 90.7353 95.3881 89.6264 95.3881 88.2585V81.8567C95.3881 80.4888 94.2748 79.3799 92.9015 79.3799Z" fill="#673B90"/>
<g style="mix-blend-mode:multiply" opacity="0.5">
<path d="M95.388 81.6129V84.4822H15.5859V81.6129C15.6015 81.3041 15.6784 81.0014 15.8121 80.7223C15.9458 80.4432 16.1337 80.1933 16.3649 79.987C16.596 79.7806 16.866 79.6219 17.1591 79.52C17.4522 79.4181 17.7626 79.375 18.0725 79.3932H92.9014C93.5264 79.36 94.1392 79.575 94.6053 79.9911C95.0714 80.4072 95.3529 80.9904 95.388 81.6129Z" fill="#673B90"/>
</g>
<path d="M99.8574 0H11.1281C9.82981 0 8.77734 1.04829 8.77734 2.34144V79.7724C8.77734 81.0656 9.82981 82.1139 11.1281 82.1139H99.8574C101.156 82.1139 102.208 81.0656 102.208 79.7724V2.34144C102.208 1.04829 101.156 0 99.8574 0Z" fill="#673B90"/>
<g style="mix-blend-mode:multiply" opacity="0.5">
<path d="M21.9441 70.6368C21.0551 70.6332 20.2035 70.2798 19.5749 69.6536C18.9462 69.0275 18.5915 68.1793 18.5879 67.2937V17.392C18.5915 16.5064 18.9462 15.6582 19.5749 15.032C20.2035 14.4059 21.0551 14.0525 21.9441 14.0489H89.0278C89.3499 14.0464 89.6705 14.092 89.979 14.1843C90.6726 14.3907 91.281 14.8142 91.7142 15.3919C92.1474 15.9696 92.3823 16.6709 92.3841 17.392V67.2937C92.3841 67.7327 92.2973 68.1675 92.1286 68.5731C91.9599 68.9786 91.7127 69.3472 91.401 69.6576C91.0894 69.968 90.7194 70.2143 90.3122 70.3823C89.905 70.5503 89.4686 70.6368 89.0278 70.6368H21.9441Z" fill="#673B90"/>
</g>
<path d="M21.9441 69.351C21.0551 69.3474 20.2035 68.9941 19.5749 68.3679C18.9462 67.7417 18.5915 66.8935 18.5879 66.008V16.1197C18.5879 15.2318 18.9411 14.3801 19.5701 13.7511C20.1991 13.122 21.0527 12.7668 21.9441 12.7632H89.0278C89.3494 12.7673 89.6691 12.8128 89.979 12.8985C90.6726 13.1094 91.2802 13.5359 91.7129 14.1155C92.1457 14.6951 92.3809 15.3974 92.3841 16.1197V66.008C92.3841 66.8946 92.0305 67.7449 91.401 68.3718C90.7716 68.9988 89.918 69.351 89.0278 69.351H21.9441Z" fill="#F5A01F"/>
<path d="M90.6709 16.1194V66.0077C90.6709 66.442 90.4976 66.8585 90.1893 67.1657C89.881 67.4728 89.4627 67.6453 89.0267 67.6453H21.943C21.5069 67.6453 21.0887 67.4728 20.7804 67.1657C20.472 66.8585 20.2988 66.442 20.2988 66.0077V16.1194C20.2988 15.6838 20.4716 15.2659 20.7796 14.9566C21.0875 14.6474 21.5057 14.4718 21.943 14.4683H89.0267C89.464 14.4718 89.8822 14.6474 90.1901 14.9566C90.4981 15.2659 90.6709 15.6838 90.6709 16.1194Z" fill="#111144"/>
<g style="mix-blend-mode:multiply" opacity="0.5">
<path d="M102.21 3.62668V6.7667H8.79297V3.62668C8.79297 3.00568 9.04064 2.41012 9.48149 1.97101C9.92233 1.5319 10.5203 1.2852 11.1437 1.2852H99.8323C100.143 1.28341 100.451 1.34259 100.738 1.45929C101.026 1.576 101.287 1.74796 101.508 1.96539C101.729 2.18282 101.905 2.44141 102.025 2.72646C102.145 3.0115 102.208 3.31742 102.21 3.62668Z" fill="#673B90"/>
</g>
<path d="M102.21 2.35503V5.4815H8.79301V2.35503C8.79122 2.04641 8.85071 1.74045 8.96804 1.45481C9.08537 1.16916 9.25821 0.909463 9.47668 0.690601C9.69514 0.47174 9.95491 0.298062 10.241 0.179546C10.5271 0.061031 10.8339 3.3758e-05 11.1437 3.8914e-05H99.8323C100.144 -0.00174503 100.453 0.0578235 100.741 0.175375C101.03 0.292926 101.292 0.466124 101.513 0.684984C101.734 0.903844 101.909 1.16407 102.029 1.45068C102.149 1.73729 102.21 2.04463 102.21 2.35503Z" fill="#20ACC9"/>
<path d="M102.208 76.6455V79.772C102.205 80.3943 101.954 80.9898 101.511 81.4285C101.068 81.8672 100.469 82.1135 99.8438 82.1135H11.1281C10.8194 82.1135 10.5137 82.0529 10.2285 81.9352C9.94328 81.8176 9.68415 81.6451 9.46586 81.4277C9.24758 81.2102 9.07441 80.9521 8.95627 80.668C8.83814 80.3839 8.77734 80.0795 8.77734 79.772V76.6455H102.208Z" fill="#20ACC9"/>
<path d="M108.649 88.2715H2.35073C1.05247 88.2715 0 89.3198 0 90.6129V119.658C0 120.951 1.05247 121.999 2.35073 121.999H108.649C109.948 121.999 111 120.951 111 119.658V90.6129C111 89.3198 109.948 88.2715 108.649 88.2715Z" fill="#C93127"/>
<path d="M45.044 116.139V122H7.89453V116.139C7.89453 115.827 8.01909 115.528 8.24078 115.307C8.46248 115.086 8.76315 114.962 9.07668 114.962H43.8618C44.1754 114.962 44.476 115.086 44.6977 115.307C44.9194 115.528 45.044 115.827 45.044 116.139Z" fill="#F5A01F"/>
<path d="M110.987 90.6265V119.658C110.983 120.278 110.734 120.871 110.294 121.31C109.854 121.748 109.258 121.996 108.636 121.999H54.4609V88.2715H108.636C109.261 88.2751 109.859 88.5247 110.299 88.966C110.74 89.4073 110.987 90.0042 110.987 90.6265Z" fill="#F5A01F"/>
<g style="mix-blend-mode:multiply" opacity="0.5">
<path d="M36.6733 95.5127H16.2642C15.6113 95.5127 15.082 96.0399 15.082 96.6902V99.0317C15.082 99.682 15.6113 100.209 16.2642 100.209H36.6733C37.3262 100.209 37.8555 99.682 37.8555 99.0317V96.6902C37.8555 96.0399 37.3262 95.5127 36.6733 95.5127Z" fill="#C93127"/>
</g>
<path d="M36.6733 94.2407H16.2642C15.6113 94.2407 15.082 94.7679 15.082 95.4183V97.7597C15.082 98.41 15.6113 98.9372 16.2642 98.9372H36.6733C37.3262 98.9372 37.8555 98.41 37.8555 97.7597V95.4183C37.8555 94.7679 37.3262 94.2407 36.6733 94.2407Z" fill="#F1D04A"/>
<g style="mix-blend-mode:multiply" opacity="0.5">
<path d="M58.2934 99.5193C58.2934 100.322 58.0543 101.107 57.6064 101.775C57.1585 102.443 56.5219 102.963 55.777 103.271C55.0321 103.578 54.2125 103.658 53.4218 103.502C52.631 103.345 51.9047 102.958 51.3346 102.39C50.7645 101.823 50.3762 101.099 50.219 100.311C50.0617 99.5238 50.1424 98.7074 50.4509 97.9655C50.7595 97.2235 51.2819 96.5894 51.9523 96.1433C52.6226 95.6971 53.4108 95.459 54.217 95.459C55.2981 95.459 56.335 95.8867 57.0995 96.6482C57.8639 97.4097 58.2934 98.4425 58.2934 99.5193Z" fill="#F5A01F"/>
</g>
<path d="M58.2934 98.2469C58.2934 99.0499 58.0543 99.8349 57.6064 100.503C57.1585 101.17 56.5219 101.691 55.777 101.998C55.0321 102.305 54.2125 102.386 53.4218 102.229C52.631 102.073 51.9047 101.686 51.3346 101.118C50.7645 100.55 50.3762 99.8266 50.219 99.039C50.0617 98.2514 50.1424 97.435 50.4509 96.693C50.7595 95.9511 51.2819 95.317 51.9523 94.8708C52.6226 94.4247 53.4108 94.1865 54.217 94.1865C55.2981 94.1865 56.335 94.6143 57.0995 95.3757C57.8639 96.1372 58.2934 97.17 58.2934 98.2469Z" fill="#F1D04A"/>
<g style="mix-blend-mode:multiply" opacity="0.5">
<path d="M56.3487 114.719C56.3487 115.14 56.2232 115.551 55.9882 115.901C55.7532 116.25 55.4192 116.523 55.0286 116.683C54.638 116.844 54.2084 116.885 53.7942 116.802C53.38 116.719 52.9999 116.515 52.7021 116.216C52.4043 115.918 52.2022 115.538 52.1214 115.125C52.0406 114.712 52.0848 114.284 52.2484 113.896C52.4119 113.508 52.6874 113.177 53.04 112.945C53.3926 112.713 53.8064 112.591 54.2289 112.594C54.5085 112.594 54.7852 112.649 55.0433 112.756C55.3013 112.863 55.5356 113.019 55.7326 113.217C55.9296 113.414 56.0855 113.649 56.1912 113.907C56.2969 114.164 56.3505 114.44 56.3487 114.719Z" fill="#F5A01F"/>
</g>
<path d="M56.3487 114.096C56.3487 114.517 56.2232 114.928 55.9882 115.278C55.7532 115.627 55.4192 115.9 55.0286 116.06C54.638 116.221 54.2084 116.262 53.7942 116.179C53.38 116.096 52.9999 115.892 52.7021 115.593C52.4043 115.295 52.2022 114.915 52.1214 114.502C52.0406 114.089 52.0848 113.661 52.2484 113.273C52.4119 112.885 52.6874 112.554 53.04 112.322C53.3926 112.09 53.8064 111.968 54.2289 111.971C54.5085 111.971 54.7852 112.026 55.0433 112.133C55.3013 112.24 55.5356 112.396 55.7326 112.594C55.9296 112.791 56.0855 113.026 56.1912 113.284C56.2969 113.541 56.3505 113.817 56.3487 114.096Z" fill="#20ACC9"/>
<g style="mix-blend-mode:multiply" opacity="0.5">
<path d="M101.011 94.8091H64.1743C63.5214 94.8091 62.9922 95.3363 62.9922 95.9866V116.112C62.9922 116.763 63.5214 117.29 64.1743 117.29H101.011C101.664 117.29 102.193 116.763 102.193 116.112V95.9866C102.193 95.3363 101.664 94.8091 101.011 94.8091Z" fill="#F5A01F"/>
</g>
<path d="M101.011 93.5371H64.1743C63.5214 93.5371 62.9922 94.0643 62.9922 94.7146V114.84C62.9922 115.491 63.5214 116.018 64.1743 116.018H101.011C101.664 116.018 102.193 115.491 102.193 114.84V94.7146C102.193 94.0643 101.664 93.5371 101.011 93.5371Z" fill="#111144"/>
<path d="M102.207 101.915V114.826C102.203 115.136 102.077 115.432 101.856 115.65C101.635 115.868 101.336 115.99 101.025 115.99H64.1743C63.8631 115.99 63.5645 115.868 63.3432 115.65C63.1219 115.432 62.9958 115.136 62.9922 114.826V101.915H102.207Z" fill="#673B90"/>
<path d="M99.2861 105.285H65.9141V110.171H99.2861V105.285Z" fill="#20ACC9"/>
<path d="M99.287 112.905H94.2051V114.367H99.287V112.905Z" fill="#F1D04A"/>
<path d="M92.3175 96.582H72.8867V100.439H92.3175V96.582Z" fill="#F5A01F"/>
<path d="M24.7715 25.3774H43.3462" stroke="#F1D04A" stroke-width="0.42" stroke-miterlimit="10" stroke-linecap="round"/>
<path d="M24.7715 30.4932H86.2026" stroke="#F1D04A" stroke-width="0.42" stroke-miterlimit="10" stroke-linecap="round"/>
<path d="M24.7715 35.1758H86.2026" stroke="#F1D04A" stroke-width="0.42" stroke-miterlimit="10" stroke-linecap="round"/>
<path d="M24.7715 39.8594H86.2026" stroke="#F1D04A" stroke-width="0.42" stroke-miterlimit="10" stroke-linecap="round"/>
<path d="M24.7715 44.5557H86.2026" stroke="#F1D04A" stroke-width="0.42" stroke-miterlimit="10" stroke-linecap="round"/>
<path d="M24.7715 49.2383H86.2026" stroke="#F1D04A" stroke-width="0.42" stroke-miterlimit="10" stroke-linecap="round"/>
<path d="M24.7715 53.9214H86.2026" stroke="#F1D04A" stroke-width="0.42" stroke-miterlimit="10" stroke-linecap="round"/>
<path d="M24.7715 58.604H86.2026" stroke="#F1D04A" stroke-width="0.42" stroke-miterlimit="10" stroke-linecap="round"/>
<g style="mix-blend-mode:screen" opacity="0.3">
<path d="M81.9338 14.4683L28.5331 67.6453H21.943C21.5069 67.6453 21.0887 67.4728 20.7804 67.1657C20.472 66.8585 20.2988 66.442 20.2988 66.0077V57.0343L63.0465 14.4683H81.9338Z" fill="white"/>
</g>
<g style="mix-blend-mode:screen" opacity="0.3">
<path d="M90.6712 16.1198V22.0614L44.8934 67.6592H36.1699L89.4891 14.5498C89.8299 14.6492 90.1293 14.8559 90.3424 15.1389C90.5555 15.4219 90.6709 15.766 90.6712 16.1198Z" fill="white"/>
</g>
</svg>
