<svg width="155" height="127" viewBox="0 0 155 127" fill="none" xmlns="http://www.w3.org/2000/svg">
<path d="M140.36 59.9924L138.04 60.7078L124.134 15.4415C122.691 10.7774 119.465 6.87714 115.163 4.59513C110.861 2.31313 105.833 1.83534 101.181 3.26639L41.0058 21.8932L40.293 19.5649L100.468 0.938023C103.076 0.124343 105.819 -0.164197 108.538 0.0889272C111.258 0.342051 113.901 1.13188 116.315 2.41305C118.73 3.69421 120.869 5.44147 122.608 7.5545C124.348 9.66754 125.655 12.1047 126.454 14.7261L140.36 59.9924Z" fill="#673B90"/>
<path d="M141.579 61.1106L146.219 76.2124C146.385 76.7523 146.331 77.3363 146.069 77.8362C145.806 78.3362 145.357 78.7112 144.82 78.879C144.29 79.0262 143.725 78.9622 143.242 78.7003C142.758 78.4385 142.395 77.999 142.227 77.4741L137.523 62.4114C137.356 61.8698 137.41 61.284 137.672 60.782C137.934 60.28 138.384 59.9024 138.923 59.7318C139.457 59.5675 140.035 59.6198 140.531 59.8775C141.028 60.1352 141.404 60.5779 141.579 61.1106Z" fill="#20ACC9"/>
<g style="mix-blend-mode:multiply">
<path d="M144.211 69.7095L146.219 76.2133C146.386 76.7532 146.331 77.3372 146.069 77.8371C145.807 78.337 145.357 78.712 144.82 78.8798C144.29 79.0271 143.725 78.9631 143.242 78.7012C142.759 78.4393 142.395 77.9999 142.228 77.475L140.219 70.9712C140.834 70.6069 141.491 70.3187 142.176 70.1127C142.837 69.9021 143.519 69.7668 144.211 69.7095Z" fill="#20ACC9"/>
</g>
<path d="M154.58 78.372C155.131 80.1713 155.139 82.0944 154.602 83.8981C154.065 85.7019 153.008 87.3054 151.563 88.5061C150.118 89.7067 148.351 90.4506 146.486 90.6438C144.62 90.8369 142.739 90.4705 141.08 89.591C139.422 88.7115 138.06 87.3584 137.168 85.7026C136.276 84.0467 135.892 82.1625 136.066 80.2881C136.241 78.4137 136.965 76.6332 138.147 75.1716C139.329 73.71 140.916 72.6328 142.708 72.0764C143.899 71.7064 145.152 71.5758 146.394 71.692C147.635 71.8083 148.842 72.1691 149.945 72.7538C151.047 73.3386 152.024 74.1357 152.819 75.0998C153.615 76.0638 154.213 77.1758 154.58 78.372Z" fill="#F5A01F"/>
<path d="M152.973 78.8667C153.415 80.3417 153.412 81.9152 152.965 83.3887C152.518 84.8622 151.647 86.17 150.46 87.1474C149.274 88.1247 147.826 88.728 146.299 88.881C144.772 89.0341 143.234 88.7301 141.878 88.0075C140.523 87.2849 139.411 86.1759 138.682 84.8202C137.954 83.4645 137.641 81.9227 137.784 80.389C137.927 78.8553 138.518 77.3984 139.485 76.2016C140.451 75.0048 141.748 74.1218 143.214 73.6637C144.195 73.357 145.227 73.2485 146.25 73.3444C147.273 73.4403 148.267 73.7389 149.174 74.2227C150.082 74.7065 150.885 75.366 151.537 76.1631C152.189 76.9602 152.677 77.8791 152.973 78.8667Z" fill="#111144"/>
<path d="M119.587 71.3351L117.267 72.0635L105.265 33.0408C104.05 29.0861 101.319 25.7778 97.673 23.8435C94.0274 21.9092 89.7656 21.5071 85.8247 22.7258L35.979 38.1528C33.9029 38.7962 31.6571 38.5855 29.7358 37.567C27.8144 36.5486 26.3749 34.8058 25.7338 32.7221C25.0928 30.6384 25.3027 28.3845 26.3175 26.4561C27.3322 24.5278 29.0687 23.083 31.1448 22.4396L91.3199 3.81281C96.591 2.19126 102.288 2.73339 107.161 5.32042C112.035 7.90746 115.687 12.3283 117.318 17.6138L131.225 62.8801L128.892 63.5956L114.96 18.2772C113.523 13.612 110.3 9.70973 105.999 7.42705C101.698 5.14437 96.6705 4.66785 92.0198 6.10212L31.8706 24.6899C31.1232 24.8929 30.4242 25.2448 29.8152 25.7247C29.2063 26.2046 28.6998 26.8026 28.326 27.4831C27.9523 28.1637 27.7189 28.9128 27.6398 29.6858C27.5606 30.4588 27.6374 31.2398 27.8654 31.9824C28.0935 32.725 28.4682 33.4139 28.9672 34.008C29.4662 34.6022 30.0793 35.0894 30.7699 35.4407C31.4606 35.7919 32.2146 36 32.9871 36.0525C33.7596 36.105 34.5347 36.0009 35.2662 35.7464L85.1508 20.3454C89.7069 18.9433 94.6311 19.4115 98.8439 21.6475C103.057 23.8834 106.214 27.7046 107.624 32.2733L119.587 71.3351Z" fill="#673B90"/>
<path d="M132.443 63.9726L137.082 79.0874C137.245 79.6273 137.189 80.2098 136.927 80.7088C136.665 81.2078 136.218 81.5832 135.683 81.754C135.154 81.8946 134.591 81.8276 134.11 81.5666C133.628 81.3056 133.264 80.8703 133.091 80.3492L128.451 65.2344C128.288 64.6945 128.344 64.112 128.606 63.613C128.868 63.114 129.315 62.7385 129.851 62.5678C130.38 62.4205 130.945 62.4845 131.428 62.7464C131.912 63.0083 132.275 63.4478 132.443 63.9726Z" fill="#20ACC9"/>
<g style="mix-blend-mode:multiply">
<path d="M135.074 72.5444L137.083 79.0482C137.245 79.5881 137.19 80.1705 136.928 80.6696C136.666 81.1686 136.219 81.544 135.683 81.7148C135.154 81.8554 134.591 81.7884 134.11 81.5274C133.628 81.2664 133.264 80.8311 133.091 80.31L131.082 73.8062C131.699 73.4424 132.356 73.15 133.039 72.9346C133.702 72.7348 134.384 72.6041 135.074 72.5444Z" fill="#20ACC9"/>
</g>
<path d="M145.441 81.1945C145.996 82.9965 146.007 84.9233 145.47 86.7312C144.934 88.539 143.876 90.1466 142.429 91.3506C140.982 92.5546 139.212 93.3009 137.343 93.495C135.474 93.6892 133.589 93.3224 131.927 92.4412C130.265 91.56 128.901 90.2039 128.008 88.5446C127.114 86.8852 126.731 84.9971 126.907 83.1191C127.083 81.2412 127.81 79.4577 128.996 77.9945C130.182 76.5312 131.773 75.4539 133.569 74.8988C135.976 74.1552 138.577 74.4006 140.803 75.581C143.029 76.7615 144.697 78.7805 145.441 81.1945Z" fill="#F5A01F"/>
<g style="mix-blend-mode:multiply" opacity="0.5">
<path d="M142.176 83.6269C142.508 84.7087 142.513 85.8651 142.19 86.9497C141.867 88.0343 141.231 88.9985 140.362 89.7203C139.494 90.4421 138.431 90.8892 137.309 91.0049C136.187 91.1206 135.056 90.8998 134.059 90.3704C133.062 89.8411 132.244 89.0269 131.708 88.0308C131.172 87.0347 130.943 85.9016 131.049 84.7746C131.154 83.6476 131.591 82.5774 132.303 81.6993C133.015 80.8213 133.97 80.1748 135.048 79.8417C135.763 79.6187 136.516 79.5398 137.262 79.6095C138.008 79.6793 138.733 79.8962 139.395 80.2479C140.058 80.5996 140.644 81.0792 141.122 81.659C141.599 82.2389 141.957 82.9077 142.176 83.6269Z" fill="#F5A01F"/>
</g>
<path d="M141.813 82.3134C142.145 83.3952 142.15 84.5516 141.827 85.6362C141.504 86.7209 140.868 87.685 139.999 88.4069C139.13 89.1287 138.068 89.5757 136.946 89.6914C135.824 89.8071 134.693 89.5863 133.696 89.057C132.699 88.5276 131.881 87.7134 131.345 86.7173C130.809 85.7213 130.579 84.5881 130.685 83.4611C130.791 82.3341 131.228 81.2639 131.939 80.3859C132.651 79.5079 133.607 78.8614 134.684 78.5282C135.4 78.3053 136.153 78.2264 136.899 78.2961C137.645 78.3658 138.37 78.5827 139.032 78.9344C139.694 79.2861 140.281 79.7657 140.758 80.3456C141.235 80.9254 141.594 81.5942 141.813 82.3134Z" fill="#F1D04A"/>
<path d="M119.743 69.0197L122.438 77.7998C122.588 78.2908 122.64 78.8068 122.591 79.318C122.542 79.8292 122.392 80.3257 122.151 80.7788C121.911 81.232 121.583 81.633 121.187 81.9588C120.792 82.2847 120.336 82.5289 119.846 82.6776L109.478 85.9035L107.547 79.6469L113.755 77.7347C114.246 77.5861 114.703 77.3414 115.1 77.0147C115.496 76.688 115.825 76.2857 116.066 75.831C116.307 75.3764 116.456 74.8783 116.504 74.3657C116.552 73.853 116.499 73.3358 116.347 72.8439L115.505 70.1513L119.522 68.8506L119.743 69.0197Z" fill="#20ACC9"/>
<g style="mix-blend-mode:multiply">
<path d="M113.701 77.7107L107.521 79.6235L109.443 85.8758L115.623 83.9629L113.701 77.7107Z" fill="#20ACC9"/>
</g>
<path d="M27.49 44.6045L30.082 53.1635C30.1392 53.3257 30.1638 53.4977 30.1542 53.6695C30.1447 53.8413 30.1013 54.0095 30.0266 54.1643C29.9519 54.3192 29.8473 54.4576 29.7188 54.5716C29.5904 54.6856 29.4408 54.7729 29.2785 54.8285C27.6066 55.5048 25.9995 56.1292 24.4702 56.8056C24.2972 56.8909 24.1074 56.9365 23.9146 56.9389C23.7219 56.9413 23.531 56.9005 23.3559 56.8195C23.1808 56.7385 23.026 56.6193 22.9026 56.4706C22.7792 56.322 22.6905 56.1476 22.6428 55.9601L20.0507 47.4401C19.9366 47.1208 19.9513 46.7693 20.0917 46.4607C20.2322 46.1521 20.4872 45.9108 20.8024 45.7882C22.3317 45.1248 23.9647 44.4874 25.6755 43.746C25.8488 43.6632 26.0383 43.62 26.2302 43.6196C26.4221 43.6193 26.6118 43.6617 26.7854 43.7438C26.959 43.826 27.1123 43.9458 27.2341 44.0946C27.356 44.2435 27.4433 44.4176 27.49 44.6045Z" fill="#F5A01F"/>
<path d="M67.9386 32.0523L70.5307 40.6113C70.5962 40.7913 70.6212 40.9836 70.604 41.1744C70.5868 41.3653 70.5278 41.5499 70.4312 41.7152C70.3346 41.8805 70.2028 42.0223 70.0453 42.1305C69.8877 42.2388 69.7083 42.3107 69.5198 42.3413C66.8241 42.9657 63.9382 43.6811 60.8623 44.4875C60.6947 44.5409 60.518 44.5595 60.3431 44.5422C60.1681 44.5249 59.9985 44.4721 59.8445 44.3869C59.6905 44.3017 59.5554 44.186 59.4474 44.0468C59.3394 43.9076 59.2608 43.7477 59.2163 43.577L56.6242 34.979C56.5609 34.8034 56.536 34.6161 56.5512 34.43C56.5664 34.2439 56.6214 34.0632 56.7124 33.9003C56.8034 33.7374 56.9283 33.5961 57.0786 33.4859C57.2288 33.3758 57.401 33.2994 57.5833 33.262C60.7197 32.4425 63.6358 31.7271 66.3704 31.1288C66.7003 31.0454 67.0496 31.0955 67.343 31.2682C67.6364 31.441 67.8503 31.7226 67.9386 32.0523Z" fill="#F5A01F"/>
<path d="M53.8507 35.6552L56.4428 44.2532C56.5063 44.427 56.5321 44.6124 56.5185 44.797C56.5049 44.9817 56.4521 45.1613 56.3638 45.3238C56.2755 45.4863 56.1536 45.6281 56.0063 45.7395C55.859 45.851 55.6897 45.9296 55.5097 45.9701C53.3453 46.5945 51.1161 47.2709 48.7962 47.9733L48.2518 48.1424C48.082 48.2044 47.9012 48.2301 47.7209 48.2177C47.5406 48.2054 47.3649 48.1554 47.205 48.0709C47.0451 47.9863 46.9046 47.8692 46.7925 47.7269C46.6804 47.5847 46.5992 47.4205 46.554 47.2449L43.962 38.6209C43.9 38.4513 43.874 38.2707 43.8854 38.0904C43.8969 37.9102 43.9456 37.7343 44.0286 37.574C44.1115 37.4137 44.2267 37.2725 44.367 37.1594C44.5072 37.0463 44.6695 36.9636 44.8433 36.9169L45.4006 36.7478C47.7594 36.0194 50.0015 35.356 52.1788 34.7446C52.348 34.6871 52.5272 34.6652 52.7052 34.6805C52.8831 34.6957 53.056 34.7478 53.213 34.8333C53.37 34.9188 53.5077 35.0359 53.6174 35.1773C53.7272 35.3188 53.8066 35.4814 53.8507 35.6552Z" fill="#F5A01F"/>
<path d="M85.552 29.0868L88.1441 37.3986C88.2153 37.5886 88.2412 37.7928 88.2198 37.9947C88.1983 38.1966 88.1301 38.3906 88.0205 38.5613C87.9109 38.732 87.763 38.8745 87.5887 38.9776C87.4143 39.0806 87.2184 39.1412 87.0165 39.1546C83.4135 39.6099 79.1625 40.3123 74.2635 41.3269C73.931 41.397 73.5844 41.3398 73.2918 41.1665C72.9992 40.9932 72.7818 40.7164 72.6823 40.3903L70.0902 31.8704C70.0247 31.6875 70.0008 31.4923 70.0202 31.299C70.0397 31.1057 70.1021 30.9193 70.2028 30.7533C70.3035 30.5874 70.4399 30.4462 70.6021 30.3401C70.7643 30.234 70.9481 30.1658 71.14 30.1404C76.3242 29.1128 80.627 28.4884 84.1652 28.1242C84.4701 28.1072 84.7719 28.1925 85.023 28.3668C85.2742 28.5411 85.4603 28.7945 85.552 29.0868Z" fill="#F5A01F"/>
<path d="M14.892 50.2626L17.4841 58.6525C17.5965 58.9653 17.5854 59.3096 17.4528 59.6144C17.3202 59.9193 17.0763 60.1615 16.7712 60.2915C15.2333 61.0372 13.7947 61.7526 12.4554 62.4377C12.282 62.5384 12.0876 62.5973 11.8877 62.6099C11.6877 62.6225 11.4875 62.5884 11.3029 62.5102C11.1183 62.4321 10.9542 62.312 10.8236 62.1595C10.693 62.007 10.5995 61.8262 10.5502 61.6312L7.95816 53.3064C7.86957 53.0041 7.88684 52.6804 8.00711 52.3893C8.12737 52.0981 8.34337 51.8572 8.61913 51.7064C9.91517 50.991 11.3797 50.2236 12.9738 49.4301C13.1494 49.3269 13.3468 49.2667 13.5499 49.2544C13.753 49.242 13.9562 49.2777 14.143 49.3588C14.3298 49.4399 14.4949 49.5639 14.625 49.7209C14.7551 49.878 14.8466 50.0635 14.892 50.2626Z" fill="#F5A01F"/>
<g style="mix-blend-mode:multiply" opacity="0.5">
<path d="M8.41211 54.7506C10.3562 53.671 12.6113 52.4873 15.1904 51.2256L17.4714 58.6529C17.5839 58.9658 17.5727 59.31 17.4401 59.6148C17.3076 59.9197 17.0637 60.1619 16.7586 60.2919C15.2206 61.0376 13.782 61.753 12.4428 62.4381C12.2693 62.5388 12.075 62.5977 11.875 62.6103C11.6751 62.6229 11.4749 62.5888 11.2903 62.5106C11.1057 62.4325 10.9416 62.3124 10.811 62.1599C10.6804 62.0074 10.5868 61.8266 10.5376 61.6316L8.41211 54.7506Z" fill="#F5A01F"/>
</g>
<g style="mix-blend-mode:multiply" opacity="0.5">
<path d="M20.4648 48.7798C22.72 47.7783 25.1695 46.7377 27.8134 45.6841L30.1074 53.1634C30.1646 53.3256 30.1891 53.4976 30.1796 53.6694C30.1701 53.8412 30.1267 54.0094 30.052 54.1643C29.9772 54.3191 29.8726 54.4576 29.7442 54.5716C29.6158 54.6856 29.4661 54.7729 29.3038 54.8284C27.632 55.5048 26.0249 56.1291 24.4955 56.8055C24.3225 56.8909 24.1327 56.9364 23.94 56.9388C23.7472 56.9412 23.5563 56.9004 23.3813 56.8194C23.2062 56.7384 23.0513 56.6193 22.928 56.4706C22.8046 56.3219 22.7158 56.1475 22.6681 55.9601L20.4648 48.7798Z" fill="#F5A01F"/>
</g>
<g style="mix-blend-mode:multiply" opacity="0.5">
<path d="M46.1665 39.2583C48.9833 38.3912 51.6661 37.5977 54.215 36.8779L56.496 44.2532C56.5595 44.4271 56.5853 44.6125 56.5717 44.7971C56.558 44.9817 56.5053 45.1613 56.417 45.3239C56.3286 45.4864 56.2067 45.6281 56.0594 45.7396C55.9121 45.8511 55.7428 45.9297 55.5628 45.9702C53.3984 46.5946 51.1693 47.271 48.8493 47.9734L48.305 48.1425C48.1352 48.2045 47.9543 48.2301 47.774 48.2178C47.5938 48.2055 47.418 48.1554 47.2582 48.0709C47.0983 47.9864 46.9578 47.8692 46.8457 47.727C46.7336 47.5848 46.6523 47.4206 46.6072 47.245L44.3262 39.8307L46.1665 39.2583Z" fill="#F5A01F"/>
</g>
<g style="mix-blend-mode:multiply" opacity="0.5">
<path d="M56.9629 36.1236C61.0973 35.005 64.8947 34.1075 68.3421 33.353L70.5713 40.6112C70.6368 40.7912 70.6618 40.9836 70.6446 41.1744C70.6274 41.3652 70.5683 41.5499 70.4718 41.7152C70.3752 41.8805 70.2434 42.0223 70.0858 42.1305C69.9283 42.2387 69.7489 42.3107 69.5604 42.3413C66.8646 42.9656 63.9788 43.681 60.9029 44.4875C60.7353 44.5409 60.5586 44.5595 60.3837 44.5422C60.2087 44.5249 60.0391 44.472 59.8851 44.3869C59.7311 44.3017 59.596 44.186 59.488 44.0468C59.38 43.9075 59.3014 43.7477 59.2569 43.577L56.9629 36.1236Z" fill="#F5A01F"/>
</g>
<g style="mix-blend-mode:multiply" opacity="0.5">
<path d="M85.9948 30.5171L88.1073 37.3981C88.1786 37.5881 88.2045 37.7923 88.183 37.9942C88.1616 38.1961 88.0933 38.3901 87.9837 38.5608C87.8741 38.7315 87.7262 38.874 87.5519 38.977C87.3776 39.0801 87.1816 39.1407 86.9798 39.1541C83.3768 39.6094 79.1258 40.3118 74.2267 41.3264C73.8943 41.3965 73.5476 41.3393 73.2551 41.166C72.9625 40.9927 72.7451 40.7159 72.6456 40.3898L70.3516 32.9365C75.5187 31.8476 80.7407 31.04 85.9948 30.5171Z" fill="#F5A01F"/>
</g>
<path d="M99.5608 36.0586L115.398 87.6076C115.873 89.1483 116.04 90.7679 115.891 92.3736C115.741 93.9793 115.277 95.5396 114.526 96.9653C113.775 98.3909 112.751 99.6539 111.513 100.682C110.275 101.71 108.847 102.483 107.311 102.957L31.3762 126.461C28.2757 127.413 24.926 127.093 22.0599 125.572C19.1939 124.05 17.0448 121.452 16.0829 118.344L0.297146 66.9386C-0.0788259 65.7211 -0.04945 64.4138 0.380818 63.2145C0.811087 62.0152 1.61884 60.9892 2.68186 60.2917C8.65661 56.3894 22.3687 48.5849 46.7472 41.0145C72.4218 33.0669 87.3133 31.9092 94.0397 31.9092C95.279 31.9257 96.4812 32.3363 97.4733 33.0819C98.4653 33.8275 99.1963 34.8697 99.5608 36.0586Z" fill="#673B90"/>
<g style="mix-blend-mode:multiply" opacity="0.5">
<path d="M3.86324 74.7298C10.2268 70.5284 24.8461 62.2165 50.754 54.1909C78.1134 45.7229 93.9769 44.4742 101.144 44.5002C101.496 44.5048 101.847 44.5352 102.194 44.5913L100.172 38.0225C99.809 36.8251 99.0731 35.7761 98.0724 35.0293C97.0718 34.2825 95.859 33.8772 94.612 33.873C87.8855 33.873 72.994 35.0177 47.3065 42.9783C22.9798 50.5097 9.25477 58.3143 3.24114 62.2556C2.18792 62.964 1.3915 63.9956 0.970986 65.196C0.550476 66.3965 0.528473 67.7014 0.908267 68.9154L2.93009 75.5103C3.21661 75.2219 3.52898 74.9607 3.86324 74.7298Z" fill="#673B90"/>
</g>
<path d="M3.2665 72.8182C9.63006 68.6168 24.2364 60.3049 50.1572 52.2923C77.5166 43.8243 93.3801 42.5626 100.534 42.5886C100.886 42.5962 101.237 42.631 101.584 42.6927L99.5623 36.1108C99.1999 34.9156 98.466 33.8681 97.468 33.1215C96.4699 32.3749 95.26 31.9684 94.0152 31.9614C87.2888 31.9614 72.3973 33.1061 46.7098 41.0667C22.3831 48.5851 8.65802 56.4027 2.6444 60.3439C1.58297 61.0429 0.776516 62.069 0.346426 63.2678C-0.0836638 64.4666 -0.114105 65.7731 0.259689 66.9908L2.28151 73.5987C2.58255 73.3056 2.91259 73.0441 3.2665 72.8182Z" fill="#20ACC9"/>
<g style="mix-blend-mode:multiply" opacity="0.5">
<path d="M46.6064 112.452C42.0279 113.877 37.073 113.418 32.8317 111.176C28.5904 108.934 25.4101 105.093 23.9905 100.498C22.5709 95.9026 23.0282 90.9297 25.2619 86.6729C27.4956 82.4162 31.3226 79.2243 35.9011 77.7996L76.182 65.3253C80.7622 63.9074 85.7161 64.3738 89.9537 66.6217C94.1914 68.8696 97.3657 72.7149 98.7785 77.3118C100.191 81.9087 99.7266 86.8805 97.4868 91.1336C95.2471 95.3867 91.4157 98.5726 86.8355 99.9905L46.6064 112.452Z" fill="#673B90"/>
</g>
<path d="M45.9983 110.54C41.4181 111.956 36.465 111.488 32.2285 109.239C27.9921 106.99 24.8194 103.144 23.4084 98.5467C21.9974 93.9498 22.4636 88.9787 24.7046 84.7268C26.9455 80.475 30.7776 77.2907 35.3579 75.8745L75.6388 63.4133C77.9178 62.6679 80.3219 62.3852 82.7109 62.5815C85.0999 62.7778 87.4261 63.4493 89.5539 64.5568C91.6818 65.6644 93.5688 67.1858 95.105 69.0325C96.6413 70.8792 97.796 73.0142 98.5019 75.3132C99.2079 77.6123 99.451 80.0293 99.217 82.4235C98.983 84.8178 98.2767 87.1413 97.1391 89.2589C96.0015 91.3764 94.4555 93.2456 92.591 94.7575C90.7266 96.2695 88.581 97.394 86.2793 98.0654L45.9983 110.54Z" fill="#20ACC9"/>
<path d="M95.6233 76.1609C96.6253 79.4149 96.5205 82.911 95.3253 86.0986C95.1004 86.7196 94.8319 87.3239 94.5217 87.9067C93.5778 89.6981 92.2904 91.2846 90.7334 92.5749C89.1764 93.8651 87.3807 94.8338 85.4494 95.4251L45.1944 107.938C42.6477 108.725 39.9408 108.832 37.3402 108.25C34.7395 107.668 32.3348 106.416 30.3626 104.618C28.3904 102.82 26.9187 100.537 26.0924 97.9945C25.2661 95.452 25.1137 92.7375 25.6501 90.118C25.933 88.6868 26.4266 87.3059 27.1147 86.0206C28.0545 84.2262 29.3406 82.6373 30.8982 81.3466C32.4557 80.0558 34.2535 79.0889 36.187 78.5022L76.4679 66.041L76.8048 65.9369C79.4652 65.1681 82.2847 65.1456 84.9569 65.8719C87.477 66.5569 89.7825 67.8727 91.6575 69.6961C93.4988 71.483 94.8626 73.7062 95.6233 76.1609Z" fill="#111144"/>
<path d="M115.57 94.2539C115.051 96.2922 114.019 98.1627 112.574 99.6864C111.128 101.21 109.317 102.336 107.314 102.956L31.3792 126.461C29.3813 127.076 27.2593 127.166 25.2167 126.722C23.1742 126.278 21.2796 125.315 19.7148 123.924L115.57 94.2539Z" fill="#20ACC9"/>
<path d="M54.4735 88.895C55.4362 92.0527 55.4399 95.4268 54.4843 98.5867C53.5287 101.747 51.657 104.549 49.1079 106.637L45.2198 107.847C42.6731 108.634 39.9662 108.741 37.3656 108.159C34.7649 107.577 32.3602 106.325 30.3879 104.526C28.4157 102.728 26.9441 100.446 26.1178 97.9031C25.2915 95.3607 25.1391 92.6462 25.6755 90.0267C25.9584 88.5955 26.452 87.2145 27.1401 85.9292C28.0799 84.1348 29.366 82.546 30.9235 81.2552C32.4811 79.9645 34.2789 78.9976 36.2123 78.4109L40.1005 77.2012C43.3836 77.4938 46.5051 78.7629 49.0656 80.8461C51.626 82.9292 53.509 85.7317 54.4735 88.895Z" fill="#C93127"/>
<path d="M43.2628 92.3296C43.5436 93.2442 43.5478 94.2218 43.2749 95.1388C43.002 96.0559 42.4643 96.8711 41.7298 97.4814C40.9953 98.0917 40.0969 98.4697 39.1484 98.5676C38.1998 98.6655 37.2436 98.4789 36.4007 98.0313C35.5578 97.5838 34.8661 96.8955 34.413 96.0534C33.9599 95.2112 33.7658 94.2532 33.8552 93.3004C33.9447 92.3475 34.3136 91.4427 34.9154 90.7003C35.5173 89.9579 36.3249 89.4114 37.2362 89.1297C37.8413 88.9409 38.4775 88.874 39.1083 88.9328C39.7392 88.9916 40.3523 89.1749 40.9123 89.4722C41.4724 89.7696 41.9683 90.1751 42.3717 90.6655C42.7751 91.1558 43.0779 91.7214 43.2628 92.3296Z" fill="#111144"/>
<path d="M40.7717 93.1358C40.9007 93.5561 40.9027 94.0054 40.7774 94.4268C40.6521 94.8482 40.4051 95.2229 40.0677 95.5035C39.7303 95.784 39.3176 95.9579 38.8817 96.0032C38.4458 96.0484 38.0064 95.963 37.6189 95.7576C37.2314 95.5523 36.9133 95.2362 36.7047 94.8495C36.4961 94.4627 36.4064 94.0225 36.447 93.5846C36.4876 93.1467 36.6566 92.7307 36.9327 92.3892C37.2088 92.0477 37.5796 91.796 37.9982 91.6659C38.2765 91.5794 38.569 91.5489 38.859 91.576C39.1491 91.6031 39.431 91.6873 39.6886 91.8238C39.9462 91.9603 40.1744 92.1464 40.3603 92.3716C40.5461 92.5967 40.6859 92.8564 40.7717 93.1358Z" fill="#20ACC9"/>
<path d="M39.0639 92.5636C38.7743 92.4712 38.4616 92.4838 38.1804 92.5993C37.8992 92.7147 37.6673 92.9256 37.5253 93.1952C37.3833 93.4648 37.3401 93.7759 37.4034 94.0741C37.4667 94.3724 37.6324 94.6388 37.8715 94.827L39.0639 92.5636Z" fill="#111144"/>
<path d="M39.4385 92.7583L38.2461 95.0216C38.5356 95.1141 38.8483 95.1014 39.1296 94.986C39.4108 94.8706 39.6426 94.6597 39.7847 94.3901C39.9267 94.1205 39.9698 93.8094 39.9065 93.5111C39.8433 93.2129 39.6776 92.9464 39.4385 92.7583Z" fill="#111144"/>
<path d="M93.4576 76.8372C94.0967 78.9168 94.107 81.14 93.4873 83.2255C92.8676 85.3111 91.6456 87.1654 89.9759 88.554C88.3062 89.9426 86.2638 90.8031 84.1068 91.0267C81.9498 91.2503 79.7752 90.8271 77.858 89.8104C75.9407 88.7937 74.3668 87.2292 73.3354 85.3149C72.304 83.4005 71.8613 81.2222 72.0633 79.0553C72.2654 76.8885 73.103 74.8303 74.4704 73.1413C75.8378 71.4522 77.6735 70.208 79.7455 69.5659C81.1215 69.1395 82.5678 68.9894 84.0017 69.124C85.4355 69.2587 86.829 69.6755 88.1023 70.3508C89.3756 71.026 90.5039 71.9463 91.4228 73.0593C92.3417 74.1722 93.0331 75.456 93.4576 76.8372Z" fill="#C93127"/>
<path d="M88.1187 78.489C88.4303 79.5095 88.4335 80.5997 88.1279 81.622C87.8223 82.6443 87.2216 83.5527 86.4018 84.2324C85.5819 84.9122 84.5797 85.3327 83.5218 85.441C82.4638 85.5492 81.3976 85.3403 80.458 84.8406C79.5183 84.3409 78.7473 83.5728 78.2425 82.6335C77.7376 81.6942 77.5215 80.6257 77.6215 79.5631C77.7215 78.5006 78.1331 77.4916 78.8042 76.6637C79.4754 75.8359 80.376 75.2262 81.3923 74.9119C82.7569 74.4935 84.2311 74.635 85.492 75.3055C86.7528 75.976 87.6974 77.1208 88.1187 78.489Z" fill="#111144"/>
<path d="M85.3313 79.3216C85.4734 79.7887 85.4744 80.2875 85.3342 80.7552C85.1941 81.2228 84.919 81.6383 84.5438 81.9492C84.1685 82.26 83.71 82.4524 83.2259 82.5019C82.7418 82.5514 82.254 82.4559 81.824 82.2275C81.394 81.999 81.041 81.6477 80.8097 81.2181C80.5784 80.7885 80.4791 80.2997 80.5243 79.8135C80.5696 79.3272 80.7573 78.8654 81.0638 78.4862C81.3704 78.1069 81.782 77.8273 82.2467 77.6827C82.5565 77.5863 82.8822 77.5522 83.2051 77.5825C83.5279 77.6127 83.8417 77.7067 84.1283 77.859C84.4149 78.0113 84.6687 78.2189 84.8752 78.4699C85.0816 78.7209 85.2366 79.0103 85.3313 79.3216Z" fill="#20ACC9"/>
<path d="M83.4265 78.6968C83.1084 78.6156 82.7723 78.645 82.473 78.7802C82.1737 78.9154 81.9289 79.1484 81.7785 79.4412C81.6281 79.734 81.5811 80.0693 81.645 80.3924C81.7089 80.7155 81.88 81.0073 82.1304 81.2203L83.4265 78.6968Z" fill="#111144"/>
<path d="M83.8546 78.9316L82.5586 81.4551C82.8803 81.5522 83.2257 81.5332 83.5349 81.4014C83.8441 81.2697 84.0976 81.0336 84.2515 80.7339C84.4054 80.4343 84.45 80.09 84.3775 79.7608C84.305 79.4316 84.12 79.1383 83.8546 78.9316Z" fill="#111144"/>
<path d="M25.8301 67.563L78.8511 51.1475" stroke="#F1D04A" stroke-width="0.7" stroke-miterlimit="10" stroke-linecap="round"/>
<path d="M26.8301 70.8146L79.8511 54.4121" stroke="#F1D04A" stroke-width="0.7" stroke-miterlimit="10" stroke-linecap="round"/>
<path d="M27.8398 74.0798L80.8608 57.6772" stroke="#F1D04A" stroke-width="0.7" stroke-miterlimit="10" stroke-linecap="round"/>
<path d="M91.6318 69.6442L25.6504 90.0661C25.9332 88.6349 26.4268 87.2539 27.1149 85.9687C28.0547 84.1743 29.3409 82.5854 30.8984 81.2947C32.4559 80.0039 34.2538 79.037 36.1872 78.4503L76.4681 65.9891C79.0899 65.1771 81.8811 65.088 84.549 65.731C87.217 66.3741 89.6634 67.7257 91.6318 69.6442Z" fill="#673B90"/>
<path d="M95.325 86.0981C95.1002 86.7192 94.8316 87.3234 94.5215 87.9062C93.5776 89.6976 92.2901 91.2841 90.7332 92.5744C89.1762 93.8647 87.3805 94.8333 85.4492 95.4246L45.1942 107.938C42.9529 108.633 40.5825 108.802 38.2657 108.432C35.949 108.062 33.7479 107.163 31.832 105.805L95.325 86.0981Z" fill="#673B90"/>
<g style="mix-blend-mode:screen" opacity="0.3">
<path d="M71.1542 67.6147L50.8712 106.13L45.1945 107.938C41.7875 108.998 38.1177 108.823 34.8262 107.444L52.7504 73.3121L71.1542 67.6147Z" fill="white"/>
</g>
<g style="mix-blend-mode:screen" opacity="0.3">
<path d="M84.928 65.8196L66.2002 101.434L56.5059 104.439L76.7759 65.9367C79.4316 65.1508 82.251 65.1103 84.928 65.8196Z" fill="white"/>
</g>
</svg>
