<svg width="157" height="157" viewBox="0 0 157 157" fill="none" xmlns="http://www.w3.org/2000/svg">
<path d="M104.532 20.7074L108.244 27.6099C109.144 29.2838 108.517 31.3699 106.844 32.2699L87.2793 42.7907C86.5446 43.186 85.7345 43.2875 84.9756 43.1332C84.0035 42.9407 83.1241 42.3289 82.619 41.3897L78.9071 34.4872C78.0072 32.8136 78.6342 30.7272 80.3079 29.8272L99.8722 19.3064C101.546 18.4067 103.632 19.0337 104.532 20.7074Z" fill="#FC09B2"/>
<g opacity="0.25">
<path d="M104.533 20.7075L108.245 27.61C109.145 29.2839 108.518 31.37 106.844 32.27L87.2799 42.7908C86.5452 43.1861 85.7351 43.2876 84.9762 43.1334C84.7287 38.6677 86.3251 34.0715 89.5273 30.9266C92.227 28.2723 96.0808 26.3098 97.006 22.6363C97.1624 22.0135 97.2209 21.3769 97.2203 20.7326L99.8728 19.3061C101.547 18.4068 103.633 19.0339 104.533 20.7075Z" fill="#000E3F"/>
</g>
<path d="M85.6512 43.6528C85.3955 43.6528 85.1397 43.6273 84.8868 43.5761C83.747 43.3501 82.7749 42.631 82.2227 41.6038L78.5111 34.7013C78.0186 33.7857 77.9122 32.733 78.2115 31.7373C78.5111 30.7417 79.1802 29.922 80.0958 29.4298L99.6598 18.909C101.549 17.8925 103.914 18.6033 104.931 20.4937L108.643 27.3962C109.659 29.2863 108.949 31.6512 107.058 32.6677L87.4941 43.1882C86.9241 43.4948 86.2893 43.6528 85.6512 43.6528ZM101.498 19.3478C101.02 19.3478 100.536 19.4625 100.087 19.7041L80.523 30.225C79.8195 30.6034 79.3056 31.2326 79.0759 31.997C78.846 32.7618 78.9278 33.5704 79.3059 34.2735L83.0175 41.176C83.4416 41.965 84.1876 42.517 85.064 42.6908C85.7527 42.8303 86.4445 42.7276 87.0664 42.3934L106.631 31.8729C108.083 31.0921 108.628 29.2759 107.848 27.824L104.136 20.9215C103.597 19.9188 102.564 19.3478 101.498 19.3478Z" fill="#000E3F"/>
<path d="M5.46573 73.9808L9.17761 80.8833C10.0776 82.5572 12.164 83.1843 13.8379 82.284L33.4019 71.7632C34.1366 71.3679 34.668 70.7482 34.9581 70.0303C35.3335 69.1132 35.3077 68.0421 34.803 67.1031L31.0911 60.2007C30.1911 58.5267 28.1047 57.8996 26.4311 58.7999L6.86677 69.3205C5.19282 70.2204 4.56574 72.3068 5.46573 73.9808Z" fill="#FC09B2"/>
<g opacity="0.25">
<path d="M5.46574 73.9808L9.17762 80.8833C10.0776 82.5572 12.164 83.1843 13.8379 82.284L33.4019 71.7632C34.1366 71.3679 34.668 70.7482 34.9581 70.0304C31.3692 67.3617 26.6543 66.1593 22.265 67.0967C18.5621 67.8854 14.8002 70.0184 11.2254 68.7648C10.6194 68.552 10.0561 68.25 9.51892 67.894L6.86647 69.3202C5.19283 70.2205 4.56575 72.3069 5.46574 73.9808Z" fill="#000E3F"/>
</g>
<path d="M12.2138 83.1473C11.8376 83.1473 11.4592 83.0921 11.0885 82.9808C10.0928 82.6812 9.27314 82.0124 8.78098 81.0968L5.0691 74.1943C4.05259 72.3038 4.76369 69.939 6.65382 68.9228L26.2178 58.4023C27.1337 57.9101 28.1861 57.8043 29.1818 58.1024C30.1774 58.402 30.9971 59.0711 31.4893 59.9867L35.2011 66.8892C35.7534 67.9164 35.8175 69.1237 35.3762 70.2015C35.0398 71.035 34.4146 71.7317 33.6164 72.1606L14.0524 82.6812C13.4775 82.9903 12.8486 83.1473 12.2138 83.1473ZM5.86391 73.7665L9.5758 80.669C9.95419 81.3724 10.5834 81.8861 11.3479 82.116C12.1126 82.3457 12.9212 82.2641 13.6244 81.8857L33.1884 71.3652C33.8099 71.031 34.2769 70.5109 34.5397 69.8611C34.8789 69.0323 34.8298 68.1053 34.4057 67.3163L30.6938 60.4139C30.3154 59.7107 29.6862 59.1965 28.9214 58.9668C28.157 58.7368 27.3484 58.819 26.6449 59.1968L7.08097 69.7173C6.37754 70.0957 5.86361 70.725 5.63393 71.4894C5.40426 72.2548 5.48582 73.0634 5.86391 73.7665Z" fill="#000E3F"/>
<path d="M113.547 102.054C96.2555 105.092 80.4092 113.665 68.3171 126.392C50.6191 145.02 19.043 141.016 7.02824 117.345C4.35587 112.077 3.05541 106.543 2.95053 101.094C2.60158 83.2722 15.0101 66.3815 33.8765 62.8947C51.3436 59.6636 67.2788 51.1304 79.5926 38.326C96.682 20.5479 126.33 23.8817 139.18 44.7955C139.409 45.1638 139.632 45.5404 139.847 45.9215C152.963 68.984 138.918 97.5886 113.547 102.054Z" fill="#00D5FE"/>
<g opacity="0.25">
<path d="M113.548 102.054C96.2561 105.093 80.4098 113.666 68.3177 126.392C50.6197 145.02 19.0437 141.016 7.02888 117.346C4.35651 112.078 3.05604 106.543 2.95117 101.095C4.63708 101.295 6.20126 102.203 7.59862 103.195C14.1405 107.846 18.6806 114.769 24.5696 120.226C31.9956 127.108 43.4835 131.086 51.7647 123.203C54.9347 120.19 57.1174 116.32 59.5932 112.718C68.2239 100.145 81.2629 90.6037 95.9031 85.9642C103.689 83.5004 111.098 83.3961 119.103 82.7237C126.293 82.1162 136.767 72.6245 138.499 62.0288C139.366 56.7248 138.384 50.4442 139.181 44.7959C139.41 45.1642 139.633 45.5407 139.848 45.9219C152.964 68.9843 138.918 97.589 113.548 102.054Z" fill="#4217A6"/>
</g>
<path d="M56.0276 123.216L117.729 90.0357C119.087 89.3055 119.596 87.6129 118.866 86.2551L95.5048 42.8136C94.7747 41.4558 93.082 40.9471 91.7242 41.6772L30.0226 74.8576C28.6648 75.5877 28.1561 77.2803 28.8862 78.6381L52.247 122.08C52.9774 123.437 54.6698 123.946 56.0276 123.216Z" fill="#FC09B2"/>
<path d="M93.3403 47.9275L113.406 85.242C113.652 85.6995 113.682 86.2165 113.524 86.6737C113.388 87.0935 113.089 87.4612 112.672 87.6856L56.8565 117.7C56.6118 117.832 56.3527 117.899 56.0902 117.911C55.8093 117.927 55.5266 117.873 55.2702 117.762C54.917 117.605 54.6091 117.331 54.4126 116.966L34.3466 79.6513C34.1654 79.3143 34.1035 78.9491 34.1381 78.5996C34.2025 78.0267 34.5334 77.4969 35.0792 77.2034L90.8942 47.1888C91.4361 46.8975 92.0542 46.9119 92.5614 47.172C92.731 47.2566 92.8874 47.3639 93.0238 47.5028C93.1456 47.6233 93.2538 47.7671 93.3403 47.9275Z" fill="#915EFD"/>
<path d="M133.836 54.1722C134.218 51.432 132.306 48.9009 129.566 48.5188C126.826 48.1368 124.295 50.0484 123.913 52.7885C123.53 55.5287 125.442 58.0597 128.182 58.4418C130.922 58.8239 133.453 56.9123 133.836 54.1722Z" fill="#FFCF00"/>
<path d="M116.986 61.6804C114.549 62.9907 113.636 66.0283 114.946 68.4651C116.256 70.9017 119.294 71.8149 121.73 70.5046C124.167 69.1943 125.08 66.1568 123.77 63.7202C122.46 61.2833 119.422 60.3701 116.986 61.6804Z" fill="#FFCF00"/>
<path d="M53.5173 93.0788C53.4529 92.9967 53.4333 92.8878 53.4645 92.7881L53.9555 91.2279C54.0343 90.9771 53.7914 90.7444 53.5443 90.8345L52.0074 91.3938C51.9093 91.4294 51.7998 91.4147 51.7148 91.3543L50.3825 90.4052C50.1682 90.2525 49.8719 90.412 49.8811 90.6748L49.9382 92.3095C49.9419 92.414 49.8937 92.5134 49.81 92.5756L48.4957 93.5495C48.2845 93.7062 48.3443 94.0371 48.5972 94.1098L50.1694 94.5605C50.27 94.5893 50.3497 94.6657 50.3828 94.7647L50.9029 96.3154C50.9866 96.5647 51.3199 96.6101 51.4671 96.3921L52.3818 95.0361C52.4404 94.9496 52.5376 94.8972 52.6418 94.8963L54.2774 94.881C54.5405 94.8785 54.6865 94.5755 54.5246 94.3683L53.5173 93.0788Z" fill="#FFCF00"/>
<path d="M74.8711 100.428C74.8067 100.346 74.7871 100.237 74.8184 100.138L75.3093 98.5776C75.3884 98.3267 75.1452 98.094 74.8981 98.1841L73.3612 98.7435C73.2631 98.779 73.1536 98.7643 73.0684 98.7036L71.736 97.7548C71.5217 97.6021 71.2255 97.7616 71.2347 98.0244L71.2917 99.6591C71.2954 99.7633 71.2472 99.863 71.1635 99.9253L69.8493 100.899C69.638 101.056 69.6978 101.386 69.9508 101.459L71.5229 101.91C71.6235 101.939 71.7032 102.015 71.7363 102.114L72.2564 103.665C72.3401 103.914 72.6734 103.959 72.8206 103.741L73.7353 102.385C73.7936 102.299 73.8911 102.247 73.9953 102.246L75.631 102.23C75.8941 102.228 76.04 101.925 75.8781 101.718L74.8711 100.428Z" fill="#FFCF00"/>
<path d="M83.2598 77.0844C83.1954 77.0019 83.1758 76.8934 83.207 76.7937L83.698 75.2335C83.7768 74.9827 83.5339 74.7499 83.2865 74.8401L81.7496 75.3997C81.6515 75.4353 81.542 75.4206 81.4567 75.3598L80.1247 74.4111C79.9103 74.2584 79.6141 74.4178 79.6233 74.6806L79.6804 76.3153C79.684 76.4199 79.6359 76.5193 79.5522 76.5815L78.2379 77.5554C78.0266 77.7121 78.0864 78.0429 78.3394 78.1156L79.9119 78.5664C80.0121 78.5952 80.0922 78.6716 80.1253 78.7706L80.6454 80.3213C80.7291 80.5706 81.0624 80.616 81.2096 80.3979L82.1243 79.042C82.1825 78.9552 82.2801 78.9031 82.3843 78.9022L84.0199 78.8868C84.283 78.8844 84.429 78.5814 84.2671 78.3741L83.2598 77.0844Z" fill="#FFCF00"/>
<path d="M105.777 83.8086C105.713 83.7262 105.693 83.6176 105.725 83.5179L106.216 81.9578C106.294 81.7066 106.051 81.4742 105.804 81.5643L104.267 82.1236C104.169 82.1592 104.06 82.1445 103.975 82.0838L102.642 81.1347C102.428 80.982 102.132 81.1415 102.141 81.4043L102.198 83.039C102.202 83.1432 102.154 83.2429 102.07 83.3051L100.756 84.279C100.544 84.4357 100.604 84.7666 100.857 84.8393L102.429 85.29C102.53 85.3188 102.609 85.3952 102.643 85.4942L103.163 87.0449C103.246 87.2942 103.58 87.3396 103.727 87.1216L104.642 85.7656C104.7 85.6791 104.797 85.6267 104.902 85.6258L106.537 85.6104C106.8 85.608 106.946 85.305 106.784 85.0977L105.777 83.8086Z" fill="#FFCF00"/>
<g opacity="0.5">
<path d="M133.283 51.1003C132.068 48.8425 129.361 47.8892 127.034 48.8128C128.033 49.2393 128.899 50.0044 129.455 51.0375C130.764 53.4719 129.85 56.5129 127.415 57.8219C127.244 57.9139 127.067 57.9958 126.885 58.0672C128.239 58.6572 129.836 58.6412 131.243 57.8848C133.677 56.576 134.594 53.54 133.283 51.1003Z" fill="#FD8A02"/>
<path d="M117.522 61.4302C118.521 61.8567 119.387 62.6218 119.943 63.6548C121.252 66.0893 120.338 69.1302 117.904 70.4393C117.732 70.5313 117.555 70.6131 117.373 70.6846C118.727 71.2745 120.325 71.2586 121.732 70.5021C124.166 69.1931 125.083 66.157 123.771 63.7177C122.556 61.4596 119.849 60.5063 117.522 61.4302Z" fill="#FD8A02"/>
</g>
<path d="M125.351 39.7196C124.458 38.0592 122.388 37.4367 120.727 38.3296C119.067 39.2226 118.444 41.2927 119.338 42.9532C120.231 44.6136 122.301 45.2361 123.961 44.3432C125.622 43.4502 126.244 41.3801 125.351 39.7196Z" fill="#4217A6"/>
<path d="M111.214 50.947C109.553 51.84 108.931 53.9101 109.824 55.5706C110.717 57.231 112.787 57.8532 114.447 56.9603C116.108 56.0673 116.73 53.9972 115.837 52.3367C114.944 50.6763 112.874 50.0538 111.214 50.947Z" fill="#4217A6"/>
<path d="M27.8244 94.423C27.4585 94.3196 27.0847 94.231 26.7116 94.1623C24.0015 93.6539 21.1013 94.0338 18.4807 95.4428C12.3847 98.7208 10.0972 106.32 13.3754 112.416C14.4631 114.439 16.0214 116.037 17.8487 117.155C18.6211 117.63 19.4402 118.017 20.293 118.314C23.4943 119.428 27.132 119.246 30.3505 117.515C36.4425 114.239 38.73 106.64 35.452 100.544C33.7772 97.4305 30.9785 95.314 27.8244 94.423Z" fill="#4217A6"/>
<path d="M89.5533 82.598C89.507 82.8105 89.5428 83.023 89.6403 83.1981C89.7569 83.4085 89.958 83.5679 90.211 83.6234L92.5504 84.1343C93.0158 84.2358 93.474 83.942 93.5758 83.4766L94.2602 80.3424L90.2377 79.4639L89.5533 82.598Z" fill="#FF8EDE"/>
<path d="M97.7848 69.1641L91.6934 67.8354C91.7262 67.7695 91.7657 67.7103 91.8117 67.6511L94.8772 64.1054C95.351 63.5593 96.2454 63.7503 96.4429 64.4476L97.752 68.9469C97.7716 69.0193 97.7848 69.0917 97.7848 69.1641Z" fill="#FF8EDE"/>
<g opacity="0.5">
<path d="M94.2602 80.3432L93.5757 83.4774C93.4742 83.9429 93.0158 84.2367 92.5507 84.1352L90.2113 83.6243C89.9583 83.5691 89.7575 83.4093 89.6406 83.199C91.0772 82.8804 92.3973 81.6572 93.06 80.0811L94.2602 80.3432Z" fill="#FC09B2"/>
</g>
<path d="M31.7916 98.8103C31.618 98.4874 31.2041 98.3843 30.8993 98.588L26.3769 101.609C26.0522 101.825 25.6103 101.693 25.4591 101.333L23.3519 96.3191C23.2099 95.9812 22.8079 95.8392 22.485 96.0128L16.7426 99.1007C16.4197 99.2742 16.3167 99.6882 16.5203 99.9927L19.541 104.515C19.7578 104.84 19.625 105.281 19.2653 105.433L14.2517 107.54C13.9138 107.682 13.7718 108.084 13.9454 108.407L17.0336 114.149C17.2071 114.472 17.6208 114.575 17.9256 114.372L22.4479 111.351C22.7724 111.134 23.2142 111.267 23.3657 111.627L25.4729 116.64C25.6149 116.978 26.0172 117.12 26.3398 116.947L32.0823 113.859C32.4052 113.685 32.5082 113.272 32.3046 112.967L29.2839 108.445C29.0671 108.12 29.1999 107.678 29.5598 107.527L34.5734 105.42C34.9113 105.278 35.0533 104.876 34.8798 104.553L31.7916 98.8103Z" fill="#FC09B2"/>
<path d="M77.5311 69.0347C75.8928 68.9856 73.8088 70.1735 73.4038 71.8377C72.8782 73.9964 76.1623 74.4144 78.3419 72.2746C79.9328 70.7126 79.153 69.0834 77.5311 69.0347Z" fill="#FC09B2"/>
<path d="M91.3092 62.201C89.6972 61.6223 87.5578 62.7072 86.6964 64.1015C85.8436 65.482 86.774 67.0302 88.9539 66.5629C91.9403 65.9227 93.4005 62.9516 91.3092 62.201Z" fill="#FC09B2"/>
<path d="M93.3154 81.581L90.5787 80.9833C90.4014 80.941 90.226 81.0572 90.1874 81.2345C90.1484 81.4117 90.261 81.5871 90.4385 81.6257L93.1753 82.2234C93.1989 82.2289 93.2225 82.231 93.2455 82.231C93.3967 82.231 93.5332 82.1259 93.5663 81.9726C93.6055 81.7947 93.4933 81.6193 93.3154 81.581Z" fill="#FC09B2"/>
<path d="M93.1006 82.5727L90.3638 81.975C90.1875 81.9343 90.0112 82.0489 89.9725 82.2259C89.9336 82.4034 90.0461 82.5788 90.2237 82.6175L92.9604 83.2151C92.9838 83.2206 93.0077 83.2228 93.0307 83.2228C93.1818 83.2228 93.3183 83.1179 93.3514 82.964C93.3907 82.7867 93.2784 82.6113 93.1006 82.5727Z" fill="#FC09B2"/>
<path d="M97.7858 69.1639C97.7922 69.2427 97.7857 69.3219 97.7661 69.4007L95.5231 79.6823C95.4111 80.1757 94.9245 80.4848 94.4311 80.3796L94.26 80.3401L90.2409 79.4652L90.0698 79.4257C89.5764 79.3205 89.2605 78.8335 89.366 78.3402L91.6158 68.0521C91.629 67.9797 91.6618 67.9009 91.6946 67.835L97.7858 69.1639Z" fill="#FC09B2"/>
<path d="M60.5227 69.4192C60.0885 69.2852 59.6065 69.3223 59.1772 69.5532L45.428 76.9469C44.5691 77.4087 44.2505 78.4804 44.7102 79.3353C44.9411 79.7646 45.3229 80.0612 45.7549 80.1909C46.187 80.3209 46.669 80.2838 47.0983 80.0529L60.8475 72.6592C61.7064 72.1974 62.0271 71.1296 61.5653 70.271C61.3366 69.8454 60.9548 69.5489 60.5227 69.4192Z" fill="#00D5FE"/>
<path d="M94.4373 69.8742C93.3429 69.6353 92.2607 70.3296 92.0219 71.4237C91.7824 72.5202 92.4766 73.6023 93.571 73.8412C94.6676 74.0807 95.7497 73.3865 95.9892 72.2899C96.2281 71.1958 95.5338 70.1134 94.4373 69.8742Z" fill="#00D5FE"/>
<path d="M88.8714 61.567C89.9165 60.3974 90.1762 58.6511 89.3915 57.1918C88.9061 56.29 88.0981 55.6313 87.1174 55.3366C86.1365 55.0419 85.0997 55.1474 84.1979 55.6328C83.2955 56.1176 82.6377 56.9253 82.3424 57.9066C82.1916 58.4089 82.1474 58.9259 82.2035 59.4321C81.3465 59.3545 80.1392 59.4177 78.8749 60.0362C77.3923 60.7617 76.55 61.907 76.1103 62.7169C74.9426 61.746 73.2564 61.521 71.8397 62.2836C70.9372 62.769 70.2783 63.577 69.9842 64.5573C69.6895 65.5386 69.7947 66.5756 70.2798 67.4775C71.2819 69.3391 73.6118 70.0382 75.4731 69.0367C75.8729 68.8218 76.225 68.5433 76.5184 68.2146C76.8876 67.8016 77.1648 67.3091 77.3286 66.763C77.6232 65.782 77.5184 64.7447 77.0329 63.8431C76.9695 63.7248 76.8999 63.6113 76.826 63.5025C77.1317 62.8374 77.8535 61.6418 79.3113 60.9285C80.5648 60.3156 81.7512 60.3517 82.4678 60.4658C82.5184 60.5882 82.5746 60.7087 82.638 60.8267C83.6401 62.6883 85.97 63.3878 87.8316 62.386C88.2345 62.1689 88.5829 61.8898 88.8714 61.567ZM76.3777 66.4769C76.1593 67.2036 75.6709 67.8028 75.0024 68.1622C73.6228 68.9049 71.8964 68.386 71.154 67.0065C70.794 66.3383 70.7165 65.5698 70.9345 64.8428C71.0559 64.4377 71.2614 64.0731 71.5349 63.7668C71.7526 63.523 72.0136 63.3166 72.3095 63.1572C73.689 62.4148 75.4154 62.9333 76.1581 64.3132C76.5181 64.9814 76.596 65.7498 76.3777 66.4769ZM83.5126 60.3554C83.1529 59.6872 83.075 58.9188 83.2933 58.1921C83.5123 57.4644 84.0007 56.8658 84.668 56.5071C85.3365 56.1474 86.1049 56.0695 86.8317 56.2878C87.5584 56.5062 88.157 56.9943 88.5166 57.6628C89.2593 59.0427 88.7396 60.7694 87.3609 61.5118C85.9816 62.2538 84.2553 61.7353 83.5126 60.3554Z" fill="white"/>
<path d="M45.428 76.9472C44.5691 77.409 44.2505 78.4807 44.7102 79.3356C44.9411 79.7649 45.3229 80.0614 45.7549 80.1911C46.187 80.3211 46.669 80.284 47.0983 80.0531L56.8504 74.809L56.6287 70.9238L45.428 76.9472Z" fill="white"/>
<path d="M88.4977 71.1507L86.6256 75.0653C86.2377 75.8733 86.8756 76.7962 87.7691 76.7199L89.7595 76.5466L91.1682 70.0955L90.8113 70.0177C89.8717 69.8122 88.9123 70.2817 88.4977 71.1507Z" fill="white"/>
<path d="M99.3081 73.5108C99.2934 72.5479 98.617 71.7215 97.6777 71.5164L97.3208 71.4385L95.9121 77.8896L97.6489 78.8767C98.4296 79.3188 99.394 78.7457 99.3781 77.8494L99.3081 73.5108Z" fill="white"/>
<path opacity="0.25" d="M125.348 39.7173C126.242 41.3799 125.618 43.4488 123.958 44.3408C123 44.8563 121.911 44.867 120.988 44.465C121.113 44.4162 121.233 44.3607 121.35 44.2979C123.009 43.4058 123.632 41.3333 122.74 39.6743C122.361 38.9703 121.771 38.449 121.09 38.1583C122.676 37.5291 124.521 38.1785 125.348 39.7173Z" fill="#000E3F"/>
<path opacity="0.25" d="M115.836 52.3344C116.731 53.9971 116.106 56.066 114.447 56.958C113.488 57.4734 112.4 57.4842 111.477 57.0822C111.601 57.0334 111.721 56.9779 111.838 56.915C113.497 56.023 114.12 53.9504 113.228 52.2915C112.849 51.5878 112.259 51.0662 111.578 50.7755C113.164 50.1463 115.009 50.7957 115.836 52.3344Z" fill="#000E3F"/>
<g opacity="0.25">
<path d="M35.4501 100.545C38.7281 106.641 36.4406 114.24 30.3485 117.516C27.13 119.247 23.4923 119.428 20.291 118.315C33.2132 110.672 29.6669 99.6713 26.7096 94.1631C27.0828 94.2315 27.4563 94.3204 27.8224 94.4237C30.9765 95.3139 33.7752 97.4306 35.4501 100.545Z" fill="#000E3F"/>
</g>
<g opacity="0.25">
<path d="M113.522 86.6728C113.386 87.0926 113.087 87.4602 112.67 87.6847L56.8545 117.699C56.6098 117.831 56.3507 117.898 56.0882 117.91C55.8074 117.926 55.5246 117.872 55.2683 117.761C54.915 117.604 54.6072 117.33 54.4106 116.965L34.3447 79.6504C34.1634 79.3134 34.1015 78.9482 34.1361 78.5986C34.4946 78.6593 34.854 78.7403 35.2155 78.8357C43.4749 80.9852 46.9954 89.3307 51.2421 95.9198C53.4717 99.3929 56.8337 104.74 61.218 105.668C65.266 106.528 69.5372 103.176 73.1485 101.425C94.8258 90.8802 100.306 87.4572 108.642 86.777C110.266 86.6492 111.896 86.6108 113.522 86.6728Z" fill="#000E3F"/>
</g>
<path opacity="0.25" d="M95.9893 72.2888C95.7498 73.3854 94.6677 74.0796 93.5712 73.8401C92.9315 73.7006 92.4286 73.2722 92.168 72.7212C92.2817 72.7705 92.4029 72.808 92.5283 72.8356C93.6248 73.075 94.707 72.3808 94.9464 71.2843C95.0458 70.8295 94.9838 70.3797 94.8017 69.9902C95.6818 70.3628 96.2003 71.3223 95.9893 72.2888Z" fill="#000E3F"/>
<g opacity="0.25">
<path d="M97.2562 71.7246L95.5184 79.6822C95.4108 80.1753 94.9242 80.4875 94.4311 80.3799L90.0645 79.4262C89.5715 79.3186 89.2593 78.8319 89.3669 78.3389L89.6533 77.028C89.9232 77.0356 90.1952 77.0752 90.457 77.1301C91.1871 77.2831 91.9277 77.5315 92.659 77.4039C93.8111 77.2058 94.5814 76.1451 95.0579 75.1047C95.535 74.0624 95.8775 72.9104 96.7128 72.1134C96.8707 71.961 97.0553 71.8298 97.2562 71.7246Z" fill="#000E3F"/>
</g>
<path opacity="0.75" d="M9.51869 97.247C8.24552 87.5514 14.4887 75.2943 25.8675 70.6184C26.2199 70.4736 26.6228 70.6417 26.7675 70.994C26.9822 71.5165 26.4879 71.8679 26.5173 71.8265C19.0485 76.9962 13.5391 83.5141 11.4373 93.368C10.9538 95.4949 10.7968 97.2841 10.8026 97.2292C10.7658 97.5843 10.4481 97.8422 10.093 97.8054C9.78915 97.7741 9.55671 97.5368 9.51869 97.247Z" fill="white"/>
<path d="M140.241 45.6986C140.023 45.3119 139.796 44.9299 139.565 44.5582C133.342 34.4305 122.91 27.8822 110.944 26.5931C99.0216 25.3092 87.4778 29.4709 79.2672 38.0124C67.0031 50.7652 51.2786 59.2156 33.7943 62.4501C24.7275 64.1259 16.5801 69.0582 10.8529 76.3388C5.29202 83.409 2.32527 92.2034 2.49944 101.102C2.60983 106.836 3.9983 112.37 6.62591 117.549C12.3448 128.816 22.7846 136.323 35.2689 138.147C37.1388 138.42 39.0099 138.554 40.8706 138.554C51.3222 138.554 61.4073 134.32 68.6446 126.702C80.6339 114.084 96.6084 105.488 113.625 102.498C125.826 100.351 136.29 92.3111 141.615 80.9917C146.995 69.5574 146.494 56.6932 140.241 45.6986ZM140.798 80.6075C135.598 91.6616 125.381 99.5125 113.469 101.609C96.2634 104.632 80.1117 113.323 67.9902 126.08C59.6661 134.842 47.4827 139.02 35.3992 137.254C23.209 135.473 13.0151 128.142 7.43084 117.141C4.86518 112.084 3.50952 106.682 3.40189 101.085C3.23201 92.3939 6.13007 83.8039 11.5628 76.8975C17.1538 69.7895 25.1077 64.974 33.9586 63.3381C51.6297 60.069 67.5223 51.5282 79.9179 38.6382C86.9774 31.2945 96.5627 27.2671 106.701 27.2671C108.074 27.2671 109.458 27.3413 110.848 27.4906C122.533 28.75 132.72 35.1428 138.797 45.0332C139.023 45.396 139.243 45.767 139.455 46.1439C145.562 56.8809 146.051 69.4421 140.798 80.6075Z" fill="#000E3F"/>
<path d="M44.8699 120.11C44.539 119.495 43.7687 119.263 43.1533 119.594C42.5379 119.925 42.3064 120.696 42.6372 121.311C42.9684 121.927 43.7387 122.158 44.3541 121.827C44.9695 121.496 45.201 120.726 44.8699 120.11Z" fill="#000E3F"/>
<path d="M39.9949 122.731C39.664 122.116 38.8937 121.884 38.2783 122.216C37.6629 122.546 37.4314 123.317 37.7622 123.932C38.0934 124.548 38.8637 124.779 39.4791 124.448C40.0942 124.117 40.3257 123.347 39.9949 122.731Z" fill="#000E3F"/>
<path d="M35.1196 125.353C34.7887 124.737 34.0187 124.506 33.4033 124.836C32.7879 125.167 32.5564 125.938 32.8872 126.553C33.2184 127.169 33.9887 127.4 34.6041 127.069C35.2195 126.739 35.4507 125.968 35.1196 125.353Z" fill="#000E3F"/>
<path d="M47.0224 124.115C46.6912 123.499 45.921 123.267 45.3055 123.598C44.6901 123.929 44.4586 124.699 44.7898 125.315C45.1206 125.93 45.8909 126.162 46.5063 125.831C47.1218 125.5 47.3533 124.73 47.0224 124.115Z" fill="#000E3F"/>
<path d="M42.1474 126.736C41.8162 126.12 41.046 125.888 40.4305 126.219C39.8151 126.55 39.5836 127.321 39.9148 127.936C40.2456 128.552 41.0159 128.783 41.6313 128.452C42.2465 128.121 42.4783 127.351 42.1474 126.736Z" fill="#000E3F"/>
<path d="M35.5576 128.84C34.9422 129.171 34.7106 129.942 35.0415 130.557C35.3724 131.173 36.1427 131.404 36.7581 131.073C37.3735 130.742 37.605 129.972 37.2739 129.357C36.9433 128.741 36.1733 128.509 35.5576 128.84Z" fill="#000E3F"/>
<path d="M47.4579 127.602C46.8424 127.933 46.6109 128.703 46.9421 129.319C47.273 129.934 48.0433 130.166 48.6587 129.835C49.2741 129.504 49.5056 128.734 49.1748 128.118C48.8439 127.502 48.0736 127.271 47.4579 127.602Z" fill="#000E3F"/>
<path d="M42.5848 130.223C41.9694 130.554 41.7379 131.324 42.0691 131.94C42.3999 132.555 43.1702 132.787 43.7856 132.456C44.4011 132.125 44.6326 131.355 44.3017 130.739C43.9705 130.124 43.2003 129.892 42.5848 130.223Z" fill="#000E3F"/>
<path d="M28.5301 127.458C27.9147 127.788 27.6832 128.559 28.0144 129.174C28.3452 129.79 29.1155 130.021 29.7309 129.69C30.3464 129.359 30.5779 128.589 30.2467 127.973C29.9159 127.358 29.1456 127.127 28.5301 127.458Z" fill="#000E3F"/>
<path d="M123.522 77.8133C123.191 77.1979 122.421 76.9664 121.806 77.2976C121.19 77.6284 120.959 78.3987 121.29 79.0142C121.621 79.6299 122.391 79.8614 123.006 79.5305C123.622 79.1991 123.853 78.4288 123.522 77.8133Z" fill="#000E3F"/>
<path d="M128.397 75.1922C128.066 74.5771 127.296 74.3453 126.681 74.6764C126.065 75.0073 125.834 75.7776 126.165 76.393C126.496 77.0087 127.266 77.2402 127.881 76.9094C128.497 76.5779 128.728 75.8079 128.397 75.1922Z" fill="#000E3F"/>
<path d="M133.272 72.5711C132.941 71.956 132.171 71.7242 131.556 72.0553C130.94 72.3862 130.709 73.1565 131.04 73.7719C131.371 74.3876 132.141 74.6192 132.756 74.2883C133.371 73.9568 133.603 73.1868 133.272 72.5711Z" fill="#000E3F"/>
<path d="M125.677 81.8176C125.346 81.2018 124.576 80.9703 123.96 81.3015C123.344 81.6323 123.113 82.4026 123.444 83.0184C123.775 83.6335 124.545 83.8653 125.161 83.5341C125.776 83.203 126.008 82.4327 125.677 81.8176Z" fill="#000E3F"/>
<path d="M130.55 79.1966C130.219 78.5808 129.448 78.3493 128.833 78.6802C128.217 79.011 127.986 79.7813 128.317 80.3971C128.648 81.0122 129.418 81.244 130.034 80.9128C130.649 80.582 130.881 79.8117 130.55 79.1966Z" fill="#000E3F"/>
<path d="M133.708 76.0591C133.092 76.3899 132.861 77.1602 133.192 77.776C133.523 78.3914 134.293 78.6229 134.909 78.292C135.524 77.9612 135.756 77.1909 135.425 76.5755C135.094 75.9597 134.323 75.7282 133.708 76.0591Z" fill="#000E3F"/>
<path d="M126.112 85.3052C125.497 85.6361 125.265 86.4064 125.596 87.0221C125.927 87.6376 126.698 87.8691 127.313 87.5379C127.928 87.207 128.16 86.4368 127.829 85.8213C127.498 85.2056 126.728 84.9744 126.112 85.3052Z" fill="#000E3F"/>
<path d="M130.987 82.6841C130.372 83.015 130.14 83.7852 130.471 84.401C130.802 85.0161 131.573 85.2476 132.188 84.9167C132.803 84.5859 133.035 83.8156 132.704 83.2002C132.373 82.5847 131.603 82.3532 130.987 82.6841Z" fill="#000E3F"/>
<path d="M136.429 69.434C135.813 69.7649 135.582 70.5352 135.913 71.1506C136.244 71.7663 137.014 71.9979 137.629 71.667C138.245 71.3361 138.476 70.5658 138.145 69.9501C137.814 69.335 137.044 69.1032 136.429 69.434Z" fill="#000E3F"/>
<path d="M122.35 45.2003C122.968 45.2003 123.594 45.0522 124.174 44.74C126.051 43.7306 126.757 41.382 125.748 39.5054C125.259 38.5959 124.445 37.9317 123.456 37.6342C122.467 37.3368 121.422 37.4429 120.513 37.9317C119.604 38.4208 118.939 39.2346 118.642 40.2232C118.345 41.2118 118.451 42.2572 118.939 43.1666C119.637 44.4625 120.972 45.2003 122.35 45.2003ZM119.507 40.4826C119.734 39.7246 120.244 39.1012 120.941 38.7265C121.378 38.4913 121.857 38.3717 122.34 38.3717C122.626 38.3717 122.914 38.414 123.196 38.4984C123.954 38.7262 124.578 39.2355 124.953 39.9325C125.727 41.371 125.185 43.1709 123.747 43.9446C122.308 44.7189 120.508 44.177 119.734 42.7386C119.36 42.0419 119.279 41.2406 119.507 40.4826Z" fill="#000E3F"/>
<path d="M123.642 51.9031C123.222 53.3002 123.371 54.7769 124.062 56.0615C124.753 57.346 125.903 58.2849 127.299 58.7047C127.819 58.8608 128.351 58.9384 128.879 58.9384C129.769 58.9384 130.652 58.7182 131.458 58.2846C134.11 56.8584 135.107 53.5409 133.681 50.8887C132.99 49.6042 131.84 48.6653 130.444 48.2455C129.047 47.8254 127.57 47.975 126.285 48.6656C125.001 49.3568 124.062 50.5064 123.642 51.9031ZM126.713 49.461C127.386 49.0989 128.122 48.9149 128.865 48.9149C129.306 48.9149 129.749 48.9796 130.183 49.1102C131.349 49.4607 132.309 50.2445 132.886 51.3165C134.076 53.5298 133.244 56.2994 131.03 57.4898C128.816 58.6802 126.047 57.8476 124.857 55.634C124.28 54.5617 124.155 53.329 124.506 52.1631C124.857 50.9973 125.64 50.0375 126.713 49.461Z" fill="#000E3F"/>
<path d="M112.838 57.8176C113.456 57.8176 114.081 57.6692 114.662 57.3573C116.539 56.3476 117.245 53.999 116.236 52.1224C115.747 51.2132 114.933 50.5487 113.944 50.2516C112.955 49.9538 111.91 50.0602 111.001 50.549C109.124 51.5582 108.418 53.9067 109.427 55.784C110.125 57.0798 111.46 57.8176 112.838 57.8176ZM111.429 51.3438C112.125 50.9691 112.927 50.8878 113.685 51.1157C114.443 51.3435 115.066 51.8525 115.441 52.5495C115.816 53.2465 115.897 54.0478 115.669 54.8055C115.441 55.5635 114.932 56.1872 114.235 56.5619C112.797 57.3362 110.996 56.7944 110.223 55.3559C109.449 53.9171 109.99 52.1175 111.429 51.3438Z" fill="#000E3F"/>
<path d="M114.549 68.6791C115.24 69.9636 116.389 70.9026 117.786 71.3223C118.306 71.4784 118.837 71.556 119.365 71.556C120.256 71.556 121.138 71.3358 121.945 70.9022C123.229 70.2114 124.168 69.0615 124.588 67.6647C125.008 66.2677 124.859 64.7909 124.168 63.5061C122.742 60.8542 119.423 59.8577 116.772 61.2829C114.12 62.7091 113.123 66.0273 114.549 68.6791ZM117.2 62.0781C117.884 61.7098 118.622 61.535 119.351 61.535C120.976 61.535 122.551 62.4049 123.373 63.9338C123.949 65.0062 124.074 66.2389 123.724 67.4047C123.373 68.5709 122.589 69.5306 121.517 70.1071C120.445 70.6842 119.212 70.8081 118.047 70.4579C116.88 70.1074 115.921 69.3237 115.344 68.2516C114.153 66.038 114.986 63.2684 117.2 62.0781Z" fill="#000E3F"/>
<path d="M35.849 100.331C34.1686 97.2061 31.3622 94.9538 27.9465 93.9888C27.555 93.8784 27.1667 93.7874 26.7945 93.7193C23.8967 93.1753 20.868 93.6469 18.2668 95.0458C11.9601 98.4373 9.58735 106.326 12.9776 112.63C14.0658 114.653 15.669 116.352 17.6121 117.54C18.4079 118.029 19.2594 118.433 20.1444 118.741C21.5261 119.222 22.9682 119.459 24.407 119.459C26.5357 119.459 28.6576 118.938 30.5637 117.913C36.8682 114.523 39.2392 106.636 35.849 100.331ZM30.1363 117.118C27.1631 118.717 23.6293 118.997 20.4406 117.888C19.6176 117.602 18.8246 117.226 18.0837 116.77C16.2758 115.665 14.7849 114.085 13.7724 112.203C10.6177 106.336 12.8258 98.9966 18.6943 95.8409C20.4587 94.8922 22.4341 94.4019 24.4199 94.4019C25.1586 94.4019 25.8988 94.4699 26.6298 94.607C26.976 94.6705 27.3366 94.7548 27.7012 94.8578C30.8789 95.7554 33.4903 97.8513 35.0539 100.759C38.2083 106.625 36.0023 113.963 30.1363 117.118Z" fill="#000E3F"/>
<path d="M35.2768 104.339L32.189 98.5967C32.0461 98.3312 31.7962 98.1368 31.5036 98.0638C31.2099 97.9914 30.8995 98.0454 30.6487 98.2128L26.1264 101.233C26.0684 101.272 26.0114 101.263 25.9829 101.255C25.954 101.246 25.9022 101.222 25.8752 101.158L23.7683 96.1442C23.6512 95.8664 23.4212 95.6496 23.1369 95.549C22.8533 95.4491 22.5374 95.4733 22.2716 95.6156L16.5291 98.7034C16.2636 98.8463 16.0692 99.0956 15.9965 99.3885C15.9235 99.6813 15.9778 99.9932 16.1455 100.244L19.1662 104.766C19.2049 104.824 19.196 104.881 19.1874 104.909C19.1788 104.938 19.1549 104.99 19.0905 105.017L14.0772 107.124C13.7991 107.241 13.582 107.471 13.4811 107.755C13.3805 108.039 13.4048 108.355 13.5477 108.621L16.6358 114.363C16.7787 114.629 17.0286 114.823 17.3212 114.896C17.6131 114.969 17.9253 114.914 18.1761 114.747L22.6981 111.726C22.7558 111.687 22.8128 111.696 22.8413 111.705C22.8698 111.713 22.9223 111.738 22.9493 111.802L25.0562 116.815C25.1733 117.093 25.4033 117.31 25.6876 117.411C25.8032 117.451 25.924 117.472 26.0445 117.472C26.2199 117.472 26.3953 117.428 26.5529 117.344L32.2954 114.256C32.5609 114.113 32.7553 113.864 32.828 113.571C32.901 113.278 32.8467 112.967 32.679 112.716L29.6583 108.194C29.6196 108.136 29.6282 108.079 29.6371 108.05C29.6457 108.022 29.6696 107.97 29.7337 107.943L34.747 105.836C35.0251 105.719 35.2422 105.489 35.3428 105.205C35.444 104.921 35.4197 104.605 35.2768 104.339ZM34.4921 104.904C34.4829 104.93 34.4584 104.978 34.398 105.004L29.3844 107.111C29.0882 107.235 28.8653 107.483 28.773 107.791C28.6804 108.099 28.7297 108.428 28.9082 108.695L31.9286 113.217C31.9651 113.272 31.9593 113.326 31.9522 113.353C31.9458 113.38 31.9256 113.43 31.8679 113.461L26.1258 116.549C26.0675 116.581 26.0151 116.569 25.9887 116.559C25.962 116.55 25.9139 116.526 25.8884 116.465L23.7815 111.452C23.657 111.156 23.4089 110.933 23.1014 110.84C22.9999 110.81 22.8953 110.795 22.792 110.795C22.5822 110.795 22.3758 110.856 22.1968 110.976L17.6747 113.997C17.6202 114.033 17.5659 114.027 17.5395 114.02C17.5122 114.013 17.4619 113.993 17.431 113.936L14.3428 108.193C14.3118 108.135 14.3228 108.083 14.3324 108.056C14.3416 108.03 14.3661 107.982 14.4268 107.956L19.4401 105.849C19.7363 105.725 19.9592 105.477 20.0518 105.169C20.1444 104.861 20.0951 104.532 19.9166 104.265L16.8962 99.7427C16.8594 99.6881 16.8655 99.6341 16.8726 99.6068C16.879 99.5798 16.8992 99.5292 16.9569 99.4986L22.699 96.4107C22.7573 96.3797 22.8097 96.3911 22.8361 96.4003C22.8628 96.4095 22.9109 96.434 22.9364 96.4944L25.0433 101.508C25.1675 101.804 25.4156 102.027 25.7228 102.119C26.0307 102.211 26.36 102.163 26.6277 101.984L31.1498 98.9635C31.2043 98.9267 31.258 98.9328 31.285 98.9402C31.3123 98.9472 31.3626 98.9669 31.3935 99.0245L34.4814 104.767C34.5127 104.825 34.5016 104.877 34.4921 104.904Z" fill="#000E3F"/>
<path d="M95.9013 42.6001C95.4907 41.8371 94.8082 41.2797 93.9787 41.0304C93.1502 40.7811 92.2726 40.8697 91.5096 41.28L29.808 74.46C28.2331 75.3073 27.641 77.2771 28.4879 78.852L51.8487 122.294C52.4335 123.381 53.554 124 54.7103 124C55.2282 124 55.7532 123.876 56.2407 123.614L117.942 90.4335C119.517 89.5866 120.109 87.6167 119.262 86.0418L95.9013 42.6001ZM117.515 89.6384L55.813 122.819C54.676 123.43 53.2547 123.002 52.6439 121.866L29.283 78.4243C28.6719 77.2879 29.0994 75.8663 30.2355 75.2551L91.9368 42.0751C92.2824 41.8893 92.6605 41.7948 93.0422 41.7948C93.2685 41.7948 93.496 41.8279 93.719 41.8948C94.3175 42.0748 94.8103 42.4771 95.1062 43.0275L118.467 86.469C119.078 87.6054 118.651 89.0273 117.515 89.6384Z" fill="#000E3F"/>
<path d="M93.7376 47.7126C93.6318 47.5157 93.4984 47.337 93.3454 47.1849C93.1813 47.0187 92.9857 46.8782 92.7674 46.7694C92.1105 46.433 91.3308 46.4407 90.6804 46.7902L34.8656 76.8051C34.2128 77.1559 33.7731 77.8075 33.6891 78.5545C33.644 79.0114 33.7341 79.4643 33.9494 79.8645L54.0153 117.179C54.2521 117.619 54.6329 117.972 55.091 118.175C55.379 118.3 55.6881 118.364 55.9876 118.364C56.029 118.364 56.0698 118.363 56.1106 118.36C56.451 118.345 56.7739 118.256 57.0704 118.097L112.885 88.0821C113.398 87.8065 113.777 87.3554 113.951 86.8197C114.154 86.2313 114.1 85.5781 113.804 85.0271L93.7376 47.7126ZM113.095 86.5333C112.991 86.8547 112.764 87.1224 112.458 87.2873L56.6423 117.302C56.4663 117.397 56.2737 117.45 56.0631 117.459C55.8592 117.471 55.6476 117.432 55.4535 117.348C55.1812 117.227 54.9527 117.016 54.8105 116.751L34.7442 79.4367C34.6142 79.1951 34.5599 78.9203 34.5866 78.6487C34.6366 78.2028 34.9009 77.8106 35.2928 77.5999L91.1075 47.5854C91.3056 47.4786 91.5233 47.4253 91.7423 47.4253C91.9532 47.4253 92.1648 47.4753 92.3595 47.5749C92.4951 47.6424 92.607 47.7224 92.7054 47.8218C92.7989 47.9147 92.8787 48.0217 92.9421 48.1401L113.008 85.4545C113.188 85.7891 113.22 86.1696 113.095 86.5333Z" fill="#000E3F"/>
<path d="M75.2613 64.6127C74.5032 63.9755 73.4726 64.0709 72.8443 64.6219C71.7699 65.5646 72.4147 67.3415 73.7695 67.5338C75.4541 67.7727 76.5955 65.7341 75.2613 64.6127Z" fill="#000E3F"/>
<path d="M87.5132 60.1374C88.0992 58.9007 86.9714 57.3834 85.5927 57.7609C84.7866 57.982 84.1392 58.7894 84.2533 59.7731C84.4545 61.5044 86.7849 61.6749 87.5132 60.1374Z" fill="#000E3F"/>
<path d="M94.0115 74.1495C93.8471 74.1495 93.6816 74.1317 93.5175 74.0962C92.9199 73.9655 92.4087 73.6098 92.0781 73.0947C91.7479 72.5792 91.6378 71.9659 91.7684 71.3677C91.8991 70.77 92.2545 70.2592 92.7696 69.9283C93.2845 69.5977 93.8965 69.4873 94.4951 69.618C95.7302 69.8881 96.5155 71.1113 96.2463 72.3455C96.1157 72.9441 95.76 73.4556 95.2442 73.7861C94.8707 74.0256 94.4454 74.1495 94.0115 74.1495ZM94.0038 70.3416C93.7174 70.3416 93.4363 70.4235 93.1891 70.5821C92.8484 70.8007 92.6132 71.1386 92.5271 71.5336C92.4406 71.9291 92.5133 72.3351 92.7316 72.6758C92.9499 73.0165 93.2878 73.2517 93.6828 73.3378C94.0774 73.4237 94.484 73.3516 94.8253 73.1333C95.166 72.9147 95.4012 72.5761 95.4877 72.1803C95.6658 71.3646 95.1464 70.5557 94.3295 70.3775C94.2213 70.353 94.1121 70.3416 94.0038 70.3416Z" fill="#000E3F"/>
<path d="M84.2769 64.5561C84.3291 64.0615 84.2368 63.5512 83.951 63.0517C83.6916 62.5933 83.2399 62.3612 82.6199 62.5252C80.6052 63.0622 78.6896 64.4368 78.2677 64.9691C77.5962 65.81 78.4501 66.7587 79.2517 67.2309C79.4032 67.3232 84.07 66.5045 84.2769 64.5561Z" fill="#000E3F"/>
<path d="M61.9642 70.0568C61.6839 69.5362 61.2187 69.1562 60.657 68.9876C60.0909 68.8134 59.4899 68.8729 58.9643 69.1553L45.2152 76.5487C44.6939 76.829 44.3133 77.296 44.1431 77.8633C43.9736 78.43 44.034 79.0282 44.3136 79.5483C44.5945 80.0711 45.0606 80.4526 45.6258 80.6224C45.8355 80.6856 46.0498 80.7166 46.263 80.7166C46.6248 80.7166 46.9839 80.6267 47.3129 80.4498L61.062 73.0564C62.1377 72.4778 62.5425 71.1322 61.9642 70.0568ZM60.6346 72.2613L46.8854 79.6547C46.5754 79.8215 46.2197 79.8577 45.8858 79.7577C45.5515 79.6574 45.2759 79.4308 45.1088 79.1205C44.9432 78.8126 44.9073 78.4582 45.0079 78.1224C45.1088 77.786 45.3341 77.5094 45.6426 77.3435L59.3918 69.9501C59.5856 69.8456 59.7968 69.7928 60.01 69.7928C60.1384 69.7928 60.2675 69.8121 60.3939 69.8508C60.7278 69.951 61.0029 70.1761 61.1688 70.484C61.5116 71.1215 61.2718 71.9185 60.6346 72.2613Z" fill="#000E3F"/>
<path d="M51.8005 84.5903C51.786 84.5526 51.7646 84.5127 51.7459 84.4781C51.5975 84.5829 50.5518 85.0306 50.4439 85.1401L50.4417 85.1352C49.9965 84.2723 49.4289 83.3236 48.9916 82.4512C48.7601 82.4729 48.294 82.737 48.1895 82.863C48.9597 84.2478 49.2648 84.7565 50.0066 86.2784L50.0538 86.3676C51.6665 85.5326 51.8667 85.3676 52.013 85.3078C52.1519 85.233 52.1804 85.2496 51.8995 84.7866C51.8642 84.7347 51.8302 84.6575 51.8005 84.5903Z" fill="#000E3F"/>
<path d="M54.1136 83.3067C53.6696 83.5652 53.2366 83.7468 52.7991 83.9816L52.7917 83.9801C52.6908 83.8289 52.5268 83.5717 52.4572 83.3586C52.4979 83.2672 52.8549 83.1448 53.029 82.9814C52.8929 82.7397 52.8024 82.5009 52.6479 82.2957L52.6451 82.2908C52.4391 82.396 52.233 82.5125 52.0263 82.6042L52.0187 82.6021C51.8782 82.4475 51.8104 82.2154 51.7013 82.0237L51.7034 82.0158L51.7178 82.0078C52.1343 81.7337 52.616 81.5702 52.9873 81.2492L52.9852 81.2437C52.8595 81.0106 52.7666 80.7533 52.6056 80.539C52.5896 80.5092 51.3146 81.221 50.5664 81.6742C51.1128 82.8462 51.7681 83.9215 52.3878 85.0736C53.0572 84.7838 53.7509 84.3469 54.4288 83.9884C54.377 83.7609 54.2485 83.5223 54.1191 83.3169L54.1136 83.3067Z" fill="#000E3F"/>
<path d="M54.3001 79.6399C54.2946 79.6426 54.293 79.6503 54.2958 79.6552C54.45 80.2884 54.7852 81.005 55.1084 82.2138C54.2682 81.2825 53.7809 80.2578 53.5927 80.0266C53.4749 80.0578 52.9404 80.3261 52.9141 80.4555L52.9168 80.4604C53.6282 81.5573 54.4283 82.5928 55.3031 83.5051C55.4267 83.4836 55.5929 83.4008 55.7373 83.3235C55.8762 83.249 55.9841 83.1644 56.0393 83.135C55.7373 81.8118 55.4488 80.5969 55.0388 79.2998C54.7895 79.3832 54.5503 79.5697 54.3001 79.6399Z" fill="#000E3F"/>
<path d="M58.8652 80.7654L58.8597 80.755C58.4157 81.0135 57.9827 81.195 57.5452 81.4299L57.5378 81.4284C57.4369 81.2772 57.2735 81.0199 57.2036 80.8068C57.2443 80.7154 57.6013 80.5931 57.7754 80.4296C57.6399 80.188 57.5494 79.9491 57.3943 79.744L57.3921 79.7391C57.1855 79.8442 56.98 79.9608 56.7727 80.0525L56.7651 80.0503C56.6246 79.8958 56.5569 79.6636 56.4489 79.472L56.4498 79.464L56.4652 79.456C56.8807 79.1819 57.3633 79.0185 57.7347 78.6974L57.7313 78.6919C57.6056 78.4589 57.5123 78.2016 57.3523 77.9872C57.3369 77.9575 56.0607 78.6692 55.3125 79.1224C55.8589 80.2944 56.5148 81.3698 57.1346 82.5218C57.804 82.2321 58.4973 81.7951 59.1759 81.4366C59.1231 81.2091 58.9953 80.9705 58.8652 80.7654Z" fill="#000E3F"/>
<path d="M61.2751 79.4943C61.2613 79.4563 61.2398 79.4167 61.2211 79.3821C61.0733 79.4872 60.0276 79.9346 59.9185 80.0441L59.9163 80.0392C59.4723 79.1766 58.9035 78.2276 58.4668 77.3555C58.235 77.3769 57.7686 77.6413 57.6641 77.767C58.4343 79.1521 58.7394 79.6605 59.4812 81.1823L59.5297 81.2716C61.142 80.4366 61.3413 80.2716 61.4885 80.2115C61.6274 80.137 61.6559 80.1536 61.375 79.6902C61.3401 79.6387 61.3051 79.5611 61.2751 79.4943Z" fill="#000E3F"/>
<path d="M61.5839 75.6012C61.5664 75.6628 61.4781 76.7983 61.5784 77.032C61.6109 77.0921 62.2192 76.925 62.2787 76.8925C62.3879 76.8339 62.2726 76.5245 62.3453 76.5046C62.3686 76.5371 62.3793 76.557 62.398 76.591C62.7424 77.2322 63.0196 77.89 63.3639 78.5302L63.623 79.0123L63.6258 79.0172C63.7678 78.9595 63.9674 78.8783 64.1314 78.7903C64.2553 78.7234 64.4292 78.6179 64.3866 78.5379C64.3194 78.4263 64.2553 78.3076 64.1937 78.1929C63.7852 77.4331 63.4449 76.6686 63.0367 75.9088C62.8874 75.6306 62.7353 75.3599 62.5636 75.0879C62.3762 75.1695 62.2042 75.255 62.0313 75.3485C61.877 75.4319 61.7357 75.5141 61.5839 75.6012Z" fill="#000E3F"/>
<path d="M59.2813 106.35C59.0431 106.274 58.7895 106.403 58.7128 106.64L58.278 107.982C58.201 108.219 58.3311 108.474 58.5684 108.551C58.6147 108.565 58.6616 108.573 58.7076 108.573C58.8983 108.573 59.0753 108.451 59.1372 108.26L59.572 106.918C59.6487 106.681 59.5187 106.427 59.2813 106.35Z" fill="#000E3F"/>
<path d="M85.0811 90.3477L82.287 89.8203C82.0414 89.7746 81.8059 89.9353 81.7599 90.18C81.7136 90.425 81.8749 90.6611 82.1196 90.7074L84.914 91.2348C84.9422 91.24 84.9704 91.2428 84.9983 91.2428C85.2111 91.2428 85.4003 91.0916 85.4414 90.8751C85.4874 90.6301 85.3261 90.394 85.0811 90.3477Z" fill="#000E3F"/>
<path d="M61.0341 100.94C60.7955 100.863 60.5422 100.993 60.4656 101.231L59.5886 103.936C59.5116 104.173 59.6416 104.428 59.8789 104.504C59.9252 104.519 59.9722 104.527 60.0182 104.527C60.2086 104.527 60.3858 104.405 60.4478 104.214L61.3248 101.509C61.4014 101.272 61.2714 101.017 61.0341 100.94Z" fill="#000E3F"/>
<path d="M62.7879 95.5297C62.5503 95.4534 62.2961 95.5828 62.2194 95.8201L61.3424 98.5253C61.2655 98.7623 61.3958 99.0172 61.6328 99.0938C61.6791 99.1085 61.726 99.1159 61.772 99.1159C61.9625 99.1159 62.1394 98.9945 62.2016 98.8034L63.0786 96.0982C63.155 95.8612 63.025 95.6067 62.7879 95.5297Z" fill="#000E3F"/>
<path d="M64.5419 90.1187C64.3042 90.042 64.05 90.172 63.9734 90.4091L63.0964 93.1143C63.0194 93.3516 63.1494 93.6061 63.3868 93.6828C63.4331 93.6975 63.48 93.7049 63.526 93.7049C63.7164 93.7049 63.8936 93.5834 63.9556 93.3924L64.8326 90.6872C64.9089 90.4499 64.7789 90.1953 64.5419 90.1187Z" fill="#000E3F"/>
<path d="M68.3137 87.1816L67.4714 87.0224C66.675 86.8719 65.8425 87.1052 65.24 87.6455C65.0541 87.812 65.0388 88.0972 65.2053 88.283C65.2945 88.3824 65.4175 88.433 65.5417 88.433C65.6487 88.433 65.7566 88.3949 65.8428 88.3177C66.2375 87.9638 66.7799 87.8102 67.3033 87.9095L68.1463 88.0687C68.3916 88.1138 68.6274 87.9537 68.6737 87.709C68.7197 87.464 68.5587 87.2279 68.3137 87.1816Z" fill="#000E3F"/>
<path d="M73.9043 88.2372L71.1096 87.7097C70.8646 87.6647 70.6284 87.8247 70.5821 88.0694C70.5358 88.3144 70.6971 88.5506 70.9418 88.5965L73.7366 89.124C73.7648 89.1292 73.793 89.1319 73.8209 89.1319C74.0337 89.1319 74.2232 88.9808 74.264 88.764C74.3103 88.5196 74.149 88.2835 73.9043 88.2372Z" fill="#000E3F"/>
<path d="M89.9281 89.0566C89.6913 88.9775 89.4359 89.1054 89.3571 89.3418L89.2673 89.611C89.0535 90.2786 88.4639 90.7434 87.7656 90.7953C87.517 90.8137 87.3305 91.0302 87.3489 91.2788C87.3664 91.5162 87.5645 91.6968 87.7984 91.6968C87.8098 91.6968 87.8211 91.6965 87.8322 91.6956C88.8996 91.6161 89.8002 90.906 90.1249 89.8916L90.2132 89.6276C90.2924 89.3915 90.1645 89.1357 89.9281 89.0566Z" fill="#000E3F"/>
<path d="M79.4919 89.2919L76.6972 88.7645C76.4518 88.7191 76.216 88.8795 76.17 89.1242C76.1237 89.3692 76.285 89.6053 76.5297 89.6516L79.3244 90.179C79.3527 90.1843 79.3809 90.187 79.4088 90.187C79.6216 90.187 79.8111 90.0358 79.8519 89.8194C79.8979 89.5744 79.7366 89.3382 79.4919 89.2919Z" fill="#000E3F"/>
<path d="M91.2794 85.0128C91.043 84.9334 90.7873 85.0615 90.7085 85.298L90.2617 86.6358C90.1826 86.8723 90.3105 87.128 90.5469 87.2068C90.5944 87.2228 90.6425 87.2304 90.6898 87.2304C90.8787 87.2304 91.0547 87.1108 91.1178 86.9219L91.5646 85.5841C91.6437 85.3476 91.5159 85.0919 91.2794 85.0128Z" fill="#000E3F"/>
<path d="M97.8567 71.0998L98.2075 69.4939C98.2075 69.4936 98.2075 69.4933 98.2075 69.493C98.232 69.3805 98.2421 69.2597 98.2375 69.1533C98.2351 69.0438 98.217 68.9316 98.1845 68.8233L96.8788 64.3215C96.739 63.8395 96.3477 63.474 95.858 63.3679C95.3698 63.2621 94.863 63.4317 94.5379 63.8104L91.4761 67.3561C91.3985 67.4447 91.3357 67.5391 91.293 67.6271C91.2924 67.6287 91.2921 67.6302 91.2915 67.6317C91.2909 67.6333 91.2894 67.6348 91.2884 67.6363C91.2869 67.6397 91.2875 67.6437 91.286 67.6474C91.2375 67.7452 91.1977 67.8513 91.1741 67.9583L90.8233 69.5645C89.7 69.3599 88.5863 69.918 88.092 70.9554L86.2197 74.8691C85.9667 75.3962 86.0139 75.9981 86.3457 76.4789C86.6511 76.9211 87.1368 77.1747 87.6667 77.1747C87.7139 77.1747 87.7615 77.1728 87.8096 77.1686L89.1889 77.0483L88.9282 78.2424C88.8506 78.599 88.916 78.9639 89.1128 79.2709C89.2591 79.4987 89.4652 79.6738 89.7077 79.7808L89.1137 82.5013C89.0451 82.8147 89.0926 83.1398 89.2468 83.4167C89.4302 83.7478 89.7473 83.9836 90.1158 84.064L92.4558 84.5751C92.5497 84.5954 92.6432 84.6055 92.7355 84.6055C93.3389 84.6055 93.8838 84.1857 94.0182 83.5724L94.6124 80.8507C94.6176 80.8507 94.6232 80.8525 94.6284 80.8525C95.2561 80.8525 95.8227 80.4162 95.9619 79.7787L96.2229 78.584L97.4268 79.2681C97.4268 79.2684 97.4271 79.2684 97.4271 79.2687C97.677 79.4101 97.9493 79.4809 98.2219 79.4809C98.5049 79.4809 98.7876 79.4043 99.044 79.2519C99.5466 78.9529 99.8403 78.4258 99.8302 77.8416L99.7603 73.5033C99.7422 72.3543 98.9627 71.3813 97.8567 71.0998ZM95.3358 64.3047C95.3462 64.2982 95.3566 64.2927 95.3671 64.2875C95.399 64.2719 95.4309 64.2596 95.4615 64.2528C95.4676 64.2513 95.4741 64.2489 95.4799 64.2476C95.5143 64.2412 95.5461 64.24 95.5753 64.2406C95.6118 64.2415 95.6449 64.2455 95.6663 64.2501C95.747 64.2676 95.9423 64.3341 96.0116 64.573L97.1701 68.5673L92.503 67.548L95.2217 64.3994C95.2582 64.3571 95.2968 64.328 95.3358 64.3047ZM87.732 76.2692C87.4717 76.2879 87.2347 76.1775 87.0887 75.9662C86.943 75.7552 86.9222 75.4909 87.0335 75.2591L88.9062 71.3442C89.1803 70.769 89.7506 70.4197 90.3655 70.4197C90.4535 70.4197 90.5424 70.4267 90.6313 70.4415L89.3903 76.1247L87.732 76.2692ZM93.1353 83.3799C93.0869 83.6007 92.8695 83.7408 92.6478 83.6929L90.3078 83.1818C90.1907 83.1563 90.0944 83.0843 90.0352 82.9779C89.9877 82.8926 89.9736 82.7923 89.995 82.6939L90.5829 80.0007L90.8355 80.0559L93.7235 80.6866L93.1353 83.3799ZM94.5296 79.9387L94.3573 79.901H94.357L93.6109 79.7382L90.1631 78.9851C90.0423 78.959 89.9392 78.887 89.8724 78.783C89.8058 78.6794 89.7838 78.5558 89.8101 78.435L90.7843 73.9734L91.6104 70.1903C91.6104 70.19 91.6104 70.1897 91.6104 70.1894L92.009 68.3637L97.2787 69.5145L95.0791 79.5852C95.0252 79.8348 94.7765 79.9936 94.5296 79.9387ZM98.5822 78.4761C98.3614 78.6073 98.0952 78.6104 97.8717 78.4831L96.4241 77.6604L97.6653 71.9771C98.3608 72.1676 98.8462 72.7888 98.8573 73.5174L98.9272 77.857C98.9315 78.1133 98.8027 78.3448 98.5822 78.4761Z" fill="#000E3F"/>
<path d="M84.2755 64.5558C84.0682 66.5042 81.6111 68.1576 79.6894 67.448C79.5508 67.3953 79.4015 67.3229 79.25 67.2306C79.4306 66.1788 80.0801 65.2184 81.0935 64.6732C82.1199 64.1206 83.2909 64.1142 84.2755 64.5558Z" fill="#FF8EDE"/>
<path d="M6.63509 55.7087C7.14902 54.9372 7.6191 54.296 7.75494 53.6864C7.88956 53.0814 7.13185 52.6948 6.74732 53.1133C6.11779 53.7978 5.541 55.1973 5.30519 55.1519C5.07276 55.1074 5.11814 54.7925 5.0792 54.5852C4.86302 53.4332 4.82622 52.7135 4.5484 51.9849C4.33743 51.432 3.41598 51.6749 3.38685 52.1903C3.35894 52.688 3.51257 53.2142 3.90783 55.6937C4.03877 56.5155 3.27308 56.0114 2.2762 55.5784C1.71044 55.3328 0.886807 55.238 0.732567 55.8326C0.605004 56.3229 1.05423 56.5296 1.51573 56.7461C3.94555 57.8859 3.91734 57.4505 0.963467 58.8518C0.420713 59.1091 -0.224152 59.4728 0.0766624 60.014C0.383303 60.5659 1.00486 60.2041 2.29582 59.6675C2.46539 59.5969 2.61411 59.47 2.78706 59.4136C3.16944 59.2888 3.5003 59.0217 3.92071 59.0057C4.07188 59.477 3.69318 59.8085 3.5923 60.2139C3.43039 60.8637 2.9738 61.2341 3.23383 61.8968C3.33503 62.1549 3.63737 62.2761 3.86797 62.1313C4.99272 61.4245 4.91882 59.3673 5.62931 60.3936C6.54709 61.7198 6.71083 62.0605 7.20146 62.5309C7.66479 62.9749 8.32468 62.5162 8.0993 61.9213C7.72551 60.9348 6.41308 59.3823 6.57714 59.156C6.74824 58.9199 8.84996 60.228 9.56044 60.129C10.0741 60.0575 10.2265 59.5743 9.92013 59.2385C9.45435 58.7282 9.11428 58.6733 7.50319 57.9212C7.37808 57.8626 7.20176 57.8138 7.23304 57.6311C7.26095 57.4673 7.43082 57.4259 7.56667 57.3809C8.25507 57.1542 9.81404 56.6664 9.88334 56.633C10.5399 56.3174 10.2504 55.2221 9.47673 55.4414C6.78811 56.2024 6.12392 56.6823 6.6541 55.721C6.64766 55.717 6.64153 55.7127 6.63509 55.7087Z" fill="#FD8A02"/>
<path d="M26.8819 36.1285C27.5884 34.9991 28.6175 33.5821 27.7157 33.1108C27.0874 32.7824 26.7703 33.3622 26.3634 34.0362C26.1304 34.4223 25.5885 35.5832 25.3806 35.5495C25.0964 35.5032 25.2377 35.3339 24.7266 32.9823C24.5769 32.2939 24.3785 31.5083 23.7101 31.7266C22.7975 32.0247 23.1075 32.316 23.8391 36.1981C24.0112 37.1106 23.1412 36.5725 22.0153 36.1208C21.3762 35.8644 20.4548 35.7853 20.3011 36.4532C20.1742 37.0054 20.6854 37.2219 21.2036 37.4473C23.9502 38.6423 23.9054 38.1569 20.6541 39.814C20.057 40.1182 19.349 40.5444 19.7016 41.1387C20.3103 42.165 22.9569 39.9587 23.9578 39.8922C24.1415 40.4131 23.7297 40.7949 23.6297 41.2506C23.4696 41.9807 22.9717 42.4066 23.2829 43.1395C23.6073 43.903 24.4221 43.2054 24.7698 42.4367C25.6664 40.4555 25.2748 40.6094 27.1435 43.087C27.5176 43.5829 28.0269 44.1609 28.5194 43.7905C29.0496 43.3912 28.6326 42.758 28.2358 42.1496C26.4741 39.45 26.0565 39.5147 29.4409 40.8274C30.9354 41.4073 31.5732 40.0774 29.6304 39.2902C26.7443 38.1207 26.9724 38.3136 29.9551 37.2658C30.2357 37.1673 31.2166 36.9834 30.8557 36.1045C30.7226 35.7807 30.4249 35.621 30.0431 35.7409C27.0705 36.674 26.3423 37.2336 26.9031 36.1419C26.8964 36.1376 26.8893 36.1331 26.8819 36.1285Z" fill="#FD8A02"/>
<path d="M144.936 111.622C145.643 110.492 146.672 109.075 145.77 108.604C145.141 108.275 144.824 108.855 144.417 109.529C144.184 109.915 143.643 111.076 143.435 111.043C143.15 110.996 143.292 110.827 142.781 108.475C142.631 107.787 142.433 107.002 141.764 107.22C140.852 107.518 141.162 107.809 141.894 111.691C142.066 112.604 141.195 112.066 140.07 111.614C139.431 111.358 138.509 111.278 138.356 111.947C138.229 112.499 138.74 112.715 139.258 112.941C142.005 114.136 141.96 113.65 138.709 115.307C138.112 115.612 137.404 116.038 137.756 116.632C138.365 117.658 141.012 115.452 142.013 115.386C142.196 115.907 141.784 116.288 141.684 116.744C141.524 117.474 141.026 117.9 141.338 118.633C141.662 119.396 142.477 118.699 142.825 117.93C143.721 115.949 143.33 116.102 145.199 118.58C145.573 119.076 146.082 119.654 146.574 119.284C147.105 118.884 146.688 118.251 146.291 117.643C144.529 114.943 144.112 115.008 147.496 116.32C148.991 116.9 149.629 115.57 147.686 114.783C144.8 113.614 145.028 113.807 148.011 112.759C148.291 112.66 149.272 112.476 148.911 111.598C148.778 111.274 148.48 111.114 148.098 111.234C145.126 112.167 144.398 112.727 144.959 111.635C144.95 111.631 144.943 111.626 144.936 111.622Z" fill="#FD8A02"/>
<path d="M52.9067 43.8592C53.6929 43.6457 54.3746 43.4936 54.8167 43.1686C55.2556 42.8463 54.978 42.1524 54.4816 42.2067C53.6699 42.2956 52.4783 42.8877 52.3486 42.7215C52.2207 42.5578 52.4326 42.3756 52.5268 42.2162C53.0496 41.3291 53.4418 40.8314 53.6791 40.1887C53.8594 39.7008 53.1091 39.3289 52.792 39.6533C52.4863 39.9661 52.2857 40.3996 51.111 42.2723C50.7225 42.8917 50.5075 42.1156 50.0982 41.2524C49.866 40.7627 49.3757 40.2243 48.9299 40.5281C48.5613 40.7796 48.741 41.1776 48.9197 41.5854C49.8682 43.7442 50.1015 43.44 47.3369 42.6593C46.8291 42.5161 46.1922 42.3836 46.0781 42.9156C45.9585 43.4728 46.6334 43.5955 47.7468 43.9693C47.8999 44.0208 48.0716 44.0226 48.2185 44.0852C48.5435 44.2238 48.9167 44.2382 49.2043 44.4706C49.032 44.8702 48.5895 44.8705 48.2884 45.0802C47.8054 45.4163 47.2893 45.3976 47.0781 45.9863C46.9959 46.2157 47.1259 46.4708 47.362 46.5082C48.5141 46.691 49.6554 45.2869 49.5321 46.377C49.3423 48.0531 49.0749 49.0932 49.7566 49.1625C50.2763 49.2156 50.3741 48.6262 50.4698 48.0626C50.896 45.5546 50.613 45.3626 51.8733 47.943C52.4102 49.0426 53.5206 48.6789 52.8049 47.1559C51.7614 44.9346 51.7939 45.1719 54.075 46.1596C54.2234 46.2237 54.3666 46.3062 54.5212 46.3488C55.1375 46.5196 55.5803 45.6279 54.9412 45.3255C52.7313 44.2783 51.9999 44.2112 52.9122 43.8785C52.9101 43.8724 52.9082 43.8656 52.9067 43.8592Z" fill="#FD8A02"/>
<path d="M113.916 117.711C114.725 118.163 115.399 118.583 116.018 118.672C116.632 118.76 116.959 117.975 116.512 117.624C115.781 117.048 114.342 116.58 114.369 116.342C114.396 116.107 114.713 116.128 114.917 116.073C116.048 115.769 116.763 115.678 117.469 115.345C118.004 115.092 117.691 114.192 117.175 114.202C116.676 114.213 116.163 114.406 113.721 114.99C112.912 115.184 113.356 114.382 113.711 113.355C113.913 112.772 113.944 111.943 113.339 111.835C112.841 111.746 112.669 112.209 112.489 112.686C111.539 115.196 111.97 115.135 110.347 112.297C110.049 111.776 109.636 111.16 109.12 111.502C108.593 111.85 109.001 112.442 109.636 113.688C109.719 113.852 109.857 113.99 109.926 114.158C110.08 114.53 110.371 114.839 110.42 115.257C109.962 115.444 109.602 115.092 109.19 115.022C108.53 114.91 108.126 114.484 107.484 114.794C107.235 114.914 107.137 115.225 107.299 115.444C108.09 116.511 110.136 116.279 109.167 117.066C107.915 118.083 107.588 118.272 107.157 118.798C106.75 119.294 107.258 119.917 107.833 119.646C108.788 119.198 110.236 117.77 110.474 117.917C110.722 118.069 109.579 120.265 109.733 120.966C109.843 121.472 110.337 121.587 110.648 121.256C111.121 120.753 111.15 120.41 111.776 118.746C111.825 118.616 111.86 118.437 112.045 118.454C112.21 118.469 112.265 118.635 112.32 118.768C112.599 119.437 113.205 120.953 113.243 121.02C113.608 121.651 114.678 121.278 114.4 120.523C113.435 117.901 112.906 117.275 113.905 117.731C113.908 117.724 113.912 117.717 113.916 117.711Z" fill="#FD8A02"/>
<path d="M153.928 91.2606C154.791 91.7123 155.882 92.3829 156.175 91.6991C156.379 91.2226 155.938 91.0242 155.424 90.7653C155.13 90.6169 154.253 90.287 154.266 90.1337C154.284 89.9239 154.415 90.0174 156.101 89.513C156.594 89.3652 157.156 89.1766 156.959 88.7017C156.691 88.0531 156.496 88.2957 153.707 89.0466C153.051 89.2232 153.395 88.5588 153.661 87.713C153.812 87.2328 153.818 86.5567 153.323 86.4822C152.913 86.4209 152.784 86.8051 152.648 87.1957C151.932 89.2647 152.283 89.2049 150.893 86.928C150.637 86.5101 150.287 86.0176 149.874 86.308C149.16 86.8091 150.916 88.6146 151.021 89.3404C150.651 89.5035 150.35 89.2248 150.012 89.1776C149.471 89.1015 149.133 88.7627 148.616 89.0307C148.078 89.3097 148.632 89.8647 149.212 90.0751C150.707 90.6175 150.572 90.3406 148.871 91.842C148.531 92.1425 148.138 92.546 148.436 92.8842C148.756 93.2485 149.194 92.9088 149.616 92.5856C151.485 91.1499 151.414 90.8494 150.647 93.3899C150.308 94.5116 151.313 94.9022 151.778 93.442C152.469 91.2725 152.341 91.4498 153.272 93.5653C153.36 93.7643 153.548 94.469 154.169 94.1565C154.397 94.0415 154.497 93.8152 154.388 93.5438C153.542 91.4292 153.093 90.9297 153.92 91.2774C153.923 91.2716 153.926 91.2661 153.928 91.2606Z" fill="#FD8A02"/>
</svg>
