<svg width="129" height="71" viewBox="0 0 129 71" fill="none" xmlns="http://www.w3.org/2000/svg">
<path d="M30.2807 2.58721L30.1607 3.47722L29.7107 6.56719C29.6686 6.84193 29.5203 7.0892 29.2977 7.25567C29.0752 7.42213 28.7961 7.49449 28.5207 7.4572L19.5207 6.15722C19.246 6.11515 18.9987 5.96683 18.8322 5.74425C18.6658 5.52167 18.5934 5.24264 18.6307 4.96721L19.0407 2.12719L19.2107 0.987234C19.2236 0.848735 19.2653 0.714427 19.333 0.592947C19.4008 0.471466 19.4931 0.365489 19.6042 0.281728C19.7152 0.197968 19.8425 0.138264 19.978 0.106496C20.1134 0.0747289 20.254 0.07158 20.3907 0.097219L29.3907 1.39721C29.5302 1.40995 29.6655 1.45187 29.7878 1.52025C29.9101 1.58863 30.0166 1.68192 30.1005 1.79412C30.1844 1.90631 30.2438 2.03494 30.2748 2.17156C30.3059 2.30818 30.3079 2.44977 30.2807 2.58721Z" fill="#F5DF53"/>
<g style="mix-blend-mode:multiply" opacity="0.3">
<path d="M30.2811 2.58728L29.8311 5.68726C29.8171 5.8259 29.7742 5.96013 29.7053 6.08124C29.6363 6.20234 29.5428 6.30765 29.4308 6.3905C29.3187 6.47336 29.1906 6.53194 29.0546 6.56238C28.9186 6.59282 28.7778 6.59445 28.6411 6.56726L19.6411 5.26727C19.5045 5.24767 19.3731 5.20136 19.2544 5.13092C19.1357 5.06049 19.0321 4.96734 18.9494 4.85681C18.8667 4.74629 18.8067 4.62051 18.7726 4.48676C18.7386 4.353 18.7313 4.21386 18.7511 4.07727L19.1611 1.2373C22.9006 1.35538 26.622 1.80715 30.2811 2.58728Z" fill="#3C3C3C"/>
</g>
<path d="M98.0698 2.50713L98.1998 3.39715L98.6398 6.48717C98.6819 6.76191 98.8301 7.00912 99.0527 7.17559C99.2753 7.34205 99.5544 7.41441 99.8298 7.37713L108.83 6.07714C109.105 6.03508 109.352 5.88681 109.518 5.66424C109.685 5.44166 109.757 5.16257 109.72 4.88714L109.31 2.04717L109.14 0.907156C109.127 0.768657 109.085 0.634349 109.017 0.512868C108.95 0.391388 108.857 0.285411 108.746 0.20165C108.635 0.11789 108.508 0.0581858 108.372 0.0264183C108.237 -0.00534924 108.097 -0.0084981 107.96 0.0171409L98.9598 1.31713C98.8203 1.32987 98.685 1.3718 98.5627 1.44018C98.4405 1.50855 98.3339 1.60191 98.25 1.7141C98.1661 1.8263 98.1067 1.95486 98.0756 2.09148C98.0446 2.2281 98.0426 2.36969 98.0698 2.50713Z" fill="#F5DF53"/>
<g style="mix-blend-mode:multiply" opacity="0.3">
<path d="M98.0703 2.58728L98.5203 5.68726C98.5624 5.962 98.7106 6.20927 98.9332 6.37573C99.1558 6.5422 99.4349 6.61456 99.7103 6.57727L108.71 5.26727C108.849 5.25436 108.983 5.21272 109.105 5.14496C109.226 5.0772 109.332 4.98483 109.416 4.87378C109.5 4.76273 109.559 4.63542 109.591 4.5C109.623 4.36458 109.626 4.224 109.6 4.08728L109.19 1.2373C105.451 1.36036 101.73 1.81207 98.0703 2.58728Z" fill="#3C3C3C"/>
</g>
<path d="M120.76 70.2872C108.52 70.4572 110.97 67.1372 102.05 63.6372C93.4504 60.2672 72.0504 59.8172 64.5504 59.7972C57.8704 59.7972 35.2104 60.1472 26.3004 63.6372C17.3904 67.1272 19.8304 70.4572 7.59044 70.2772C-4.64956 70.0972 1.59044 33.3872 1.59044 33.3872C1.82044 30.6772 3.11044 26.4772 4.90044 22.0172C6.53371 17.9574 8.4311 14.009 10.5804 10.1972C13.2304 5.5572 15.8604 2.19723 17.5004 2.09723C21.7904 1.91723 28.3404 2.79723 34.9804 4.53723C41.6204 6.27723 64.5904 6.43719 64.5904 6.43719C64.5904 6.43719 86.5904 6.2572 93.2704 4.5072C99.9504 2.7572 106.46 1.8872 110.75 2.0672C111.108 2.09215 111.452 2.20932 111.75 2.40722C114.99 4.35722 120.44 14.4072 123.75 23.0372C125.153 26.3431 126.127 29.8145 126.65 33.3672C126.65 33.3672 133 70.1072 120.76 70.2872Z" fill="#3B4885"/>
<g style="mix-blend-mode:multiply" opacity="0.5">
<path d="M109.73 17.587C105.22 10.247 64.1797 11.527 64.1797 11.527C64.1797 11.527 23.1797 10.247 18.6197 17.587C14.0597 24.927 23.1997 50.457 31.9397 52.587C40.6797 54.717 64.1797 54.217 64.1797 54.217C64.1797 54.217 87.6698 54.687 96.4098 52.587C105.15 50.487 114.24 24.887 109.73 17.587Z" fill="#3C3C3C"/>
</g>
<path d="M96.0013 15.2666H32.3613V49.0166H96.0013V15.2666Z" fill="url(#paint0_linear_821_17517)"/>
<g style="mix-blend-mode:multiply" opacity="0.3">
<path d="M118.031 26.5867C118.031 26.5867 118.031 26.5067 118.031 26.4667C117.873 25.5537 117.444 24.7091 116.8 24.0423C116.157 23.3755 115.328 22.9173 114.421 22.7267L106.771 21.1367L100.211 43.7767L108.351 46.5367C108.668 46.6961 109.004 46.8137 109.351 46.8867C110.547 47.1352 111.793 46.8987 112.815 46.2294C113.836 45.56 114.551 44.5124 114.801 43.3167C114.895 42.7876 114.895 42.2459 114.801 41.7167C114.801 41.7167 114.801 41.6468 114.801 41.6068C114.628 40.6295 114.148 39.7328 113.431 39.0468C114.166 38.7776 114.82 38.3262 115.332 37.735C115.845 37.1438 116.199 36.4321 116.361 35.6667C116.467 35.14 116.484 34.5991 116.411 34.0667C116.411 34.0667 116.411 33.9867 116.411 33.9467C116.248 33.0288 115.816 32.1797 115.171 31.5067C115.868 31.2212 116.485 30.7695 116.968 30.1908C117.451 29.6121 117.785 28.9241 117.941 28.1867C118.06 27.6622 118.091 27.1213 118.031 26.5867Z" fill="#3C3C3C"/>
</g>
<path d="M117.18 25.2868C117.18 25.2868 117.18 25.2068 117.18 25.1768C117.023 24.2619 116.596 23.4151 115.952 22.7464C115.308 22.0778 114.478 21.618 113.57 21.4268L105.88 19.8368C104.683 19.5881 103.436 19.8243 102.412 20.4935C101.389 21.1626 100.672 22.2103 100.42 23.4068C100.227 24.3594 100.335 25.3486 100.73 26.2368C100.951 26.7258 101.255 27.1725 101.63 27.5567C100.934 27.8443 100.319 28.2984 99.8398 28.879C99.3604 29.4596 99.0308 30.149 98.8799 30.8868C98.6772 31.8389 98.7859 32.8311 99.1899 33.7168C99.4338 34.2531 99.7726 34.7409 100.19 35.1568C99.4567 35.4266 98.804 35.8783 98.2933 36.4695C97.7825 37.0608 97.4304 37.7721 97.27 38.5368C97.0665 39.4889 97.1752 40.4813 97.58 41.3668C98.0097 42.3108 98.7416 43.0848 99.66 43.5668C100.032 43.76 100.429 43.9014 100.84 43.9868L108.5 45.5768C109.696 45.8252 110.942 45.5888 111.964 44.9194C112.985 44.2501 113.7 43.2025 113.95 42.0068C114.044 41.4776 114.044 40.9359 113.95 40.4068C113.95 40.4068 113.95 40.3368 113.95 40.2968C113.777 39.3196 113.297 38.4229 112.58 37.7368C113.315 37.4676 113.969 37.0162 114.481 36.425C114.994 35.8338 115.348 35.1222 115.51 34.3568C115.599 33.8272 115.599 33.2864 115.51 32.7568C115.51 32.7568 115.51 32.6768 115.51 32.6368C115.347 31.7188 114.915 30.8698 114.27 30.1968C114.967 29.9113 115.585 29.4595 116.067 28.8808C116.55 28.3022 116.884 27.6141 117.04 26.8768C117.175 26.3583 117.222 25.8209 117.18 25.2868Z" fill="#F5DF53"/>
<g style="mix-blend-mode:multiply" opacity="0.3">
<path d="M108.11 24.3471C108.118 25.0757 107.87 25.784 107.408 26.3475C106.946 26.911 106.3 27.2938 105.584 27.4287C104.868 27.5635 104.127 27.4418 103.492 27.0849C102.857 26.728 102.367 26.1588 102.11 25.4771V25.4071C101.945 24.939 101.893 24.4382 101.96 23.9462C102.027 23.4543 102.21 22.9854 102.495 22.5786C102.78 22.1717 103.157 21.8387 103.596 21.6071C104.036 21.3756 104.524 21.2521 105.02 21.2471C105.304 21.2463 105.587 21.2867 105.86 21.3671C106.53 21.5586 107.117 21.9665 107.53 22.5271C107.911 23.0573 108.114 23.6944 108.11 24.3471Z" fill="#363A4D"/>
</g>
<path d="M107.88 24.1571C107.876 24.834 107.637 25.4884 107.204 26.0085C106.771 26.5287 106.17 26.8822 105.505 27.0085C104.84 27.1349 104.152 27.0264 103.558 26.7014C102.965 26.3765 102.502 25.8553 102.25 25.2271C102.256 25.2042 102.256 25.1801 102.25 25.1571C102.137 24.8358 102.08 24.4977 102.08 24.1571C102.08 23.3853 102.387 22.6452 102.932 22.0994C103.478 21.5537 104.218 21.2471 104.99 21.2471C105.254 21.2478 105.516 21.2849 105.77 21.3571C106.401 21.5347 106.953 21.9185 107.34 22.4471C107.699 22.9445 107.888 23.544 107.88 24.1571Z" fill="#5A6080"/>
<g style="mix-blend-mode:multiply" opacity="0.15">
<path d="M107.88 24.1573C107.885 24.8446 107.647 25.5113 107.207 26.0395C106.767 26.5677 106.154 26.9231 105.478 27.0429C104.801 27.1627 104.104 27.039 103.509 26.6939C102.915 26.3488 102.462 25.8044 102.23 25.1573C102.591 25.6569 103.101 26.0292 103.686 26.2206C104.272 26.4121 104.903 26.4128 105.489 26.2227C106.075 26.0326 106.585 25.6614 106.947 25.1627C107.308 24.6639 107.502 24.0633 107.5 23.4473C107.498 23.1061 107.437 22.7679 107.32 22.4473C107.686 22.9422 107.883 23.5419 107.88 24.1573Z" fill="#363A4D"/>
</g>
<g style="mix-blend-mode:screen" opacity="0.25">
<path d="M104.59 21.897C104.921 22.0964 105.159 22.4188 105.253 22.7937C105.347 23.1686 105.288 23.5654 105.09 23.897C104.71 24.667 103.87 25.3771 103.09 24.9771C102.748 24.75 102.507 24.3994 102.417 23.9987C102.328 23.5979 102.397 23.178 102.61 22.827C102.779 22.4651 103.07 22.1739 103.432 22.004C103.793 21.8342 104.203 21.7963 104.59 21.897Z" fill="white"/>
</g>
<g style="mix-blend-mode:screen" opacity="0.35">
<path d="M103.79 21.9972C103.93 22.1472 103.85 22.4572 103.61 22.6872C103.37 22.9172 102.99 23.0973 102.82 22.9073C102.65 22.7173 102.82 22.4173 103.07 22.2073C103.32 21.9973 103.64 21.8472 103.79 21.9972Z" fill="white"/>
</g>
<g style="mix-blend-mode:multiply" opacity="0.15">
<path d="M107.88 24.1574C107.876 24.8343 107.637 25.4887 107.204 26.0089C106.771 26.529 106.17 26.8825 105.505 27.0089C104.84 27.1352 104.152 27.0267 103.558 26.7017C102.965 26.3768 102.502 25.8556 102.25 25.2274C102.763 25.5883 103.359 25.8156 103.982 25.8889C104.605 25.9622 105.237 25.8792 105.82 25.6474C106.233 25.3838 106.568 25.0152 106.791 24.5794C107.014 24.1436 107.117 23.6563 107.09 23.1674C107.012 22.7863 106.852 22.4268 106.62 22.1142C106.389 21.8016 106.092 21.5433 105.75 21.3574C106.38 21.5351 106.933 21.9188 107.32 22.4474C107.686 22.9423 107.882 23.542 107.88 24.1574Z" fill="#363A4D"/>
</g>
<g style="mix-blend-mode:multiply" opacity="0.3">
<path d="M115.72 25.9467C115.729 26.6753 115.48 27.3835 115.018 27.9471C114.556 28.5106 113.911 28.8934 113.194 29.0282C112.478 29.1631 111.738 29.0414 111.102 28.6846C110.467 28.3277 109.978 27.7584 109.721 27.0767C109.717 27.0535 109.717 27.0299 109.721 27.0067C109.548 26.5387 109.491 26.0358 109.555 25.5411C109.619 25.0463 109.801 24.5743 110.087 24.1655C110.373 23.7567 110.754 23.4232 111.197 23.1936C111.64 22.9639 112.132 22.8449 112.63 22.8467C112.912 22.8451 113.191 22.8856 113.46 22.9667C114.133 23.1517 114.722 23.561 115.13 24.1267C115.521 24.6527 115.728 25.2919 115.72 25.9467Z" fill="#363A4D"/>
</g>
<path d="M115.45 25.7567C115.45 26.4348 115.213 27.0917 114.781 27.6138C114.348 28.1358 113.746 28.4904 113.08 28.6161C112.413 28.7418 111.724 28.6307 111.131 28.3022C110.537 27.9736 110.077 27.4482 109.83 26.8167C109.826 26.7969 109.826 26.7764 109.83 26.7567C109.71 26.437 109.649 26.0982 109.65 25.7567C109.65 24.9849 109.957 24.2447 110.503 23.699C111.048 23.1532 111.789 22.8467 112.56 22.8467C113.019 22.8466 113.471 22.9553 113.88 23.1639C114.288 23.3725 114.642 23.6751 114.91 24.0467C115.267 24.545 115.456 25.1438 115.45 25.7567Z" fill="#5A6080"/>
<g style="mix-blend-mode:multiply" opacity="0.15">
<path d="M115.451 25.7568C115.449 26.4392 115.207 27.0993 114.768 27.6216C114.329 28.144 113.72 28.4955 113.049 28.6146C112.377 28.7338 111.684 28.613 111.092 28.2734C110.501 27.9338 110.047 27.397 109.811 26.7568C110.172 27.2522 110.681 27.6205 111.265 27.8093C111.849 27.9981 112.477 27.9977 113.06 27.808C113.644 27.6184 114.152 27.2493 114.513 26.7534C114.874 26.2575 115.069 25.6603 115.071 25.0469C115.073 24.7053 115.012 24.3663 114.891 24.0469C115.254 24.5428 115.451 25.1418 115.451 25.7568Z" fill="#363A4D"/>
</g>
<g style="mix-blend-mode:screen" opacity="0.25">
<path d="M112.21 23.4972C112.541 23.6965 112.779 24.019 112.873 24.3939C112.967 24.7688 112.908 25.1655 112.71 25.4972C112.33 26.2572 111.48 26.9672 110.71 26.5772C110.364 26.3534 110.119 26.0034 110.028 25.6018C109.936 25.2002 110.005 24.7788 110.22 24.4272C110.391 24.0645 110.684 23.773 111.047 23.6032C111.411 23.4334 111.822 23.3959 112.21 23.4972Z" fill="white"/>
</g>
<g style="mix-blend-mode:screen" opacity="0.35">
<path d="M111.4 23.5869C111.54 23.7469 111.47 24.0569 111.22 24.2869C110.97 24.5169 110.61 24.6868 110.43 24.5068C110.25 24.3268 110.43 24.0169 110.68 23.7969C110.93 23.5769 111.26 23.4369 111.4 23.5869Z" fill="white"/>
</g>
<g style="mix-blend-mode:multiply" opacity="0.15">
<path d="M115.45 25.757C115.45 26.4352 115.213 27.0921 114.78 27.6141C114.347 28.1362 113.746 28.4908 113.079 28.6165C112.413 28.7422 111.724 28.6311 111.13 28.3026C110.537 27.974 110.077 27.4486 109.83 26.817C110.343 27.1795 110.937 27.4086 111.561 27.4837C112.184 27.5588 112.816 27.4774 113.4 27.247C113.812 26.9814 114.147 26.6107 114.368 26.173C114.589 25.7354 114.69 25.2466 114.66 24.757C114.582 24.3784 114.423 24.0212 114.194 23.7103C113.964 23.3995 113.669 23.1424 113.33 22.957C113.957 23.1374 114.505 23.5208 114.89 24.0471C115.254 24.5429 115.45 25.142 115.45 25.757Z" fill="#363A4D"/>
</g>
<g style="mix-blend-mode:multiply" opacity="0.3">
<path d="M114.171 33.4272C114.179 34.1558 113.93 34.864 113.468 35.4275C113.006 35.991 112.361 36.3738 111.645 36.5087C110.929 36.6435 110.188 36.5219 109.553 36.165C108.917 35.8081 108.428 35.2388 108.171 34.5571V34.4872C108.005 34.0191 107.954 33.5183 108.021 33.0263C108.088 32.5344 108.271 32.0655 108.556 31.6586C108.84 31.2518 109.218 30.9188 109.657 30.6872C110.096 30.4556 110.584 30.3322 111.081 30.3271C111.364 30.3273 111.647 30.3643 111.921 30.4371C112.587 30.6251 113.171 31.0298 113.581 31.5872C113.969 32.1216 114.176 32.7666 114.171 33.4272Z" fill="#363A4D"/>
</g>
<path d="M113.88 33.237C113.88 33.9152 113.643 34.572 113.21 35.0941C112.777 35.6162 112.176 35.9707 111.509 36.0964C110.843 36.2221 110.153 36.1111 109.56 35.7825C108.967 35.454 108.507 34.9286 108.26 34.297V34.227C108.146 33.906 108.088 33.5677 108.09 33.227C108.091 32.6136 108.286 32.0163 108.647 31.5204C109.008 31.0246 109.517 30.6555 110.1 30.4658C110.684 30.2762 111.312 30.2757 111.895 30.4645C112.479 30.6533 112.988 31.0216 113.35 31.517C113.705 32.0193 113.891 32.6219 113.88 33.237Z" fill="#5A6080"/>
<g style="mix-blend-mode:multiply" opacity="0.15">
<path d="M113.88 33.2371C113.885 33.9244 113.647 34.5912 113.207 35.1193C112.767 35.6475 112.154 36.0029 111.478 36.1227C110.801 36.2425 110.104 36.1189 109.509 35.7737C108.915 35.4286 108.462 34.8843 108.23 34.2371C108.59 34.736 109.099 35.108 109.684 35.2997C110.268 35.4914 110.898 35.4929 111.484 35.3041C112.069 35.1152 112.58 34.7457 112.942 34.2485C113.305 33.7514 113.5 33.1523 113.5 32.5371C113.498 32.196 113.437 31.8578 113.32 31.5371C113.682 32.0302 113.878 32.6255 113.88 33.2371Z" fill="#363A4D"/>
</g>
<g style="mix-blend-mode:screen" opacity="0.25">
<path d="M110.65 30.977C110.981 31.1763 111.22 31.4988 111.314 31.8737C111.407 32.2486 111.349 32.6453 111.15 32.977C110.77 33.737 109.93 34.4469 109.15 34.0569C108.808 33.8299 108.567 33.4793 108.478 33.0786C108.388 32.6778 108.457 32.258 108.67 31.907C108.838 31.5437 109.129 31.2513 109.491 31.0812C109.853 30.9111 110.264 30.8742 110.65 30.977Z" fill="white"/>
</g>
<g style="mix-blend-mode:screen" opacity="0.35">
<path d="M109.881 31.0675C110.021 31.2175 109.941 31.5375 109.701 31.7575C109.461 31.9775 109.091 32.1676 108.911 31.9876C108.731 31.8076 108.911 31.4876 109.161 31.2776C109.411 31.0676 109.701 30.9175 109.881 31.0675Z" fill="white"/>
</g>
<g style="mix-blend-mode:multiply" opacity="0.15">
<path d="M113.88 33.2375C113.88 33.9157 113.643 34.5726 113.21 35.0947C112.777 35.6167 112.176 35.9712 111.509 36.0969C110.843 36.2226 110.153 36.1116 109.56 35.7831C108.967 35.4545 108.507 34.9291 108.26 34.2975C108.77 34.66 109.363 34.8891 109.985 34.9642C110.607 35.0393 111.237 34.958 111.82 34.7275C112.233 34.4624 112.569 34.092 112.792 33.6545C113.015 33.2169 113.118 32.7279 113.09 32.2375C113.012 31.8578 112.851 31.4997 112.62 31.1887C112.388 30.8776 112.091 30.6212 111.75 30.4375C112.38 30.6151 112.933 30.9989 113.32 31.5275C113.684 32.0234 113.88 32.6225 113.88 33.2375Z" fill="#363A4D"/>
</g>
<g style="mix-blend-mode:multiply" opacity="0.3">
<path d="M106.511 31.8275C106.519 32.5561 106.27 33.2644 105.808 33.8279C105.346 34.3914 104.701 34.7742 103.984 34.9091C103.268 35.0439 102.528 34.9223 101.892 34.5654C101.257 34.2085 100.768 33.6392 100.511 32.9575V32.8875C100.345 32.4194 100.294 31.9186 100.361 31.4266C100.427 30.9347 100.611 30.4658 100.895 30.059C101.18 29.6521 101.558 29.3191 101.997 29.0875C102.436 28.856 102.924 28.7326 103.421 28.7276C103.705 28.7267 103.988 28.7671 104.261 28.8475C104.93 29.039 105.517 29.4469 105.931 30.0075C106.311 30.5377 106.514 31.1748 106.511 31.8275Z" fill="#363A4D"/>
</g>
<path d="M106.241 31.6375C106.243 32.3165 106.008 32.975 105.576 33.4989C105.144 34.0228 104.542 34.379 103.875 34.506C103.208 34.633 102.518 34.5227 101.924 34.1943C101.329 33.8658 100.869 33.3399 100.621 32.7075V32.6375C100.508 32.3162 100.451 31.9781 100.451 31.6375C100.451 30.8657 100.758 30.1256 101.303 29.5798C101.849 29.0341 102.589 28.7275 103.361 28.7275C103.625 28.7283 103.887 28.7653 104.141 28.8375C104.772 29.0152 105.324 29.3989 105.711 29.9276C106.066 30.4261 106.252 31.0255 106.241 31.6375Z" fill="#5A6080"/>
<g style="mix-blend-mode:multiply" opacity="0.15">
<path d="M106.24 31.6367C106.245 32.324 106.006 32.9908 105.566 33.5189C105.126 34.0471 104.514 34.4026 103.837 34.5223C103.16 34.6421 102.463 34.5185 101.869 34.1734C101.274 33.8283 100.821 33.2839 100.59 32.6367C100.95 33.1363 101.46 33.5087 102.045 33.7001C102.631 33.8916 103.262 33.8923 103.848 33.7022C104.434 33.5121 104.944 33.1409 105.306 32.6422C105.667 32.1434 105.861 31.5428 105.86 30.9268C105.857 30.5856 105.796 30.2474 105.68 29.9268C106.046 30.4217 106.242 31.0213 106.24 31.6367Z" fill="#363A4D"/>
</g>
<g style="mix-blend-mode:screen" opacity="0.25">
<path d="M102.99 29.3775C103.321 29.5768 103.56 29.8993 103.653 30.2742C103.747 30.6491 103.688 31.0458 103.49 31.3775C103.11 32.1475 102.27 32.8475 101.49 32.4575C101.148 32.2305 100.907 31.8799 100.818 31.4791C100.728 31.0784 100.797 30.6585 101.01 30.3075C101.18 29.9456 101.47 29.6544 101.832 29.4845C102.194 29.3146 102.603 29.2768 102.99 29.3775Z" fill="white"/>
</g>
<g style="mix-blend-mode:screen" opacity="0.35">
<path d="M102.191 29.4767C102.331 29.6267 102.251 29.9367 102.011 30.1667C101.771 30.3967 101.391 30.5767 101.221 30.3867C101.051 30.1967 101.221 29.8967 101.471 29.6867C101.721 29.4767 102.041 29.3267 102.191 29.4767Z" fill="white"/>
</g>
<g style="mix-blend-mode:multiply" opacity="0.15">
<path d="M106.241 31.6369C106.243 32.3159 106.008 32.9744 105.576 33.4983C105.144 34.0222 104.542 34.3784 103.875 34.5054C103.208 34.6324 102.518 34.5221 101.924 34.1937C101.329 33.8652 100.868 33.3393 100.621 32.7069C101.133 33.0677 101.726 33.2951 102.348 33.3685C102.97 33.4418 103.6 33.3588 104.181 33.1269C104.594 32.8633 104.929 32.4948 105.152 32.059C105.375 31.6231 105.478 31.1358 105.451 30.6469C105.373 30.2658 105.213 29.9064 104.981 29.5938C104.75 29.2811 104.453 29.0228 104.111 28.8369C104.742 29.0145 105.294 29.3983 105.681 29.9269C106.047 30.4218 106.243 31.0215 106.241 31.6369Z" fill="#363A4D"/>
</g>
<g style="mix-blend-mode:multiply" opacity="0.3">
<path d="M104.881 39.4868C104.889 40.2154 104.641 40.9235 104.179 41.4871C103.717 42.0506 103.071 42.4334 102.355 42.5682C101.639 42.7031 100.898 42.5814 100.263 42.2245C99.6278 41.8677 99.1385 41.2985 98.8812 40.6168V40.5468C98.7609 40.2063 98.7 39.8478 98.7012 39.4868C98.6999 39.0801 98.7788 38.6772 98.9335 38.3011C99.0882 37.9251 99.3156 37.5833 99.6027 37.2953C99.8897 37.0073 100.231 36.7788 100.606 36.6229C100.982 36.467 101.385 36.3867 101.791 36.3867C102.075 36.3876 102.357 36.4245 102.631 36.4967C103.304 36.6879 103.892 37.1002 104.301 37.6667C104.682 38.1969 104.885 38.8341 104.881 39.4868Z" fill="#363A4D"/>
</g>
<path d="M104.64 39.2967C104.64 39.9748 104.403 40.6317 103.97 41.1538C103.537 41.6759 102.935 42.0303 102.269 42.156C101.603 42.2817 100.913 42.1707 100.32 41.8422C99.7266 41.5137 99.2668 40.9882 99.0197 40.3567C99.023 40.3334 99.023 40.3099 99.0197 40.2867C98.9055 39.9657 98.8479 39.6273 98.8496 39.2867C98.8481 38.8376 98.951 38.3943 99.1501 37.9917C99.3491 37.5891 99.6389 37.2382 99.9967 36.9668C100.354 36.6953 100.77 36.5106 101.212 36.4273C101.653 36.344 102.108 36.3643 102.54 36.4867C103.172 36.6607 103.726 37.0452 104.11 37.5766C104.466 38.0786 104.651 38.6814 104.64 39.2967Z" fill="#5A6080"/>
<g style="mix-blend-mode:multiply" opacity="0.15">
<path d="M104.64 39.2967C104.638 39.9791 104.397 40.6391 103.958 41.1615C103.519 41.6839 102.91 42.0353 102.238 42.1544C101.566 42.2736 100.874 42.1528 100.282 41.8132C99.69 41.4737 99.2363 40.9369 99 40.2967C99.3599 40.7956 99.8687 41.1676 100.453 41.3593C101.038 41.551 101.668 41.5525 102.253 41.3636C102.839 41.1748 103.349 40.8052 103.712 40.3081C104.074 39.811 104.269 39.2118 104.27 38.5967C104.267 38.2555 104.206 37.9174 104.09 37.5967C104.449 38.0907 104.642 38.686 104.64 39.2967Z" fill="#363A4D"/>
</g>
<g style="mix-blend-mode:screen" opacity="0.25">
<path d="M101.4 37.0375C101.731 37.2369 101.97 37.5593 102.064 37.9342C102.157 38.3091 102.099 38.7059 101.9 39.0375C101.52 39.7975 100.67 40.5076 99.9003 40.1176C99.5582 39.8905 99.3171 39.5399 99.2277 39.1391C99.1382 38.7383 99.2072 38.3185 99.4203 37.9675C99.5881 37.6043 99.8787 37.3118 100.241 37.1417C100.603 36.9716 101.014 36.9347 101.4 37.0375Z" fill="white"/>
</g>
<g style="mix-blend-mode:screen" opacity="0.35">
<path d="M100.601 37.1271C100.741 37.2771 100.661 37.5971 100.421 37.8171C100.181 38.0371 99.801 38.2272 99.631 38.0472C99.461 37.8672 99.631 37.5471 99.881 37.3371C100.131 37.1271 100.451 36.9771 100.601 37.1271Z" fill="white"/>
</g>
<g style="mix-blend-mode:multiply" opacity="0.15">
<path d="M104.64 39.2971C104.639 39.9753 104.403 40.6322 103.97 41.1542C103.537 41.6763 102.935 42.0308 102.269 42.1565C101.602 42.2822 100.913 42.1712 100.32 41.8427C99.7265 41.5141 99.2666 40.9887 99.0195 40.3571C99.5321 40.7196 100.127 40.9487 100.75 41.0238C101.373 41.0989 102.006 41.0175 102.59 40.7871C103.003 40.523 103.339 40.1526 103.56 39.7145C103.782 39.2765 103.882 38.787 103.849 38.2971C103.775 37.9172 103.617 37.5586 103.387 37.2473C103.157 36.936 102.861 36.6797 102.52 36.4971C103.152 36.6711 103.706 37.0556 104.09 37.5871C104.45 38.0839 104.643 38.6831 104.64 39.2971Z" fill="#363A4D"/>
</g>
<g style="mix-blend-mode:multiply" opacity="0.3">
<path d="M112.57 41.0776C112.578 41.8062 112.33 42.5144 111.868 43.0779C111.406 43.6414 110.76 44.0242 110.044 44.1591C109.328 44.294 108.587 44.1723 107.952 43.8154C107.317 43.4585 106.827 42.8893 106.57 42.2076C106.564 42.1846 106.564 42.1605 106.57 42.1376C106.397 41.6695 106.34 41.1667 106.404 40.6719C106.468 40.1771 106.651 39.7052 106.937 39.2964C107.223 38.8876 107.604 38.5541 108.046 38.3244C108.489 38.0948 108.981 37.9758 109.48 37.9776C109.761 37.976 110.041 38.0164 110.31 38.0976C110.981 38.2862 111.569 38.6947 111.98 39.2576C112.37 39.7836 112.577 40.4228 112.57 41.0776Z" fill="#363A4D"/>
</g>
<path d="M112.3 40.8875C112.302 41.5665 112.067 42.225 111.635 42.7489C111.203 43.2728 110.601 43.629 109.934 43.756C109.267 43.883 108.577 43.7727 107.982 43.4443C107.388 43.1158 106.927 42.5899 106.68 41.9575C106.677 41.9343 106.677 41.9107 106.68 41.8875C106.559 41.5681 106.498 41.2291 106.5 40.8875C106.503 40.1165 106.81 39.3779 107.355 38.8328C107.9 38.2876 108.639 37.9802 109.41 37.9775C109.869 37.9775 110.321 38.0861 110.729 38.2947C111.138 38.5033 111.491 38.8059 111.76 39.1776C112.119 39.6749 112.308 40.2744 112.3 40.8875Z" fill="#5A6080"/>
<g style="mix-blend-mode:multiply" opacity="0.15">
<path d="M112.3 40.8867C112.298 41.5691 112.057 42.2292 111.618 42.7515C111.179 43.2739 110.57 43.6254 109.898 43.7445C109.226 43.8636 108.534 43.7428 107.942 43.4033C107.35 43.0637 106.896 42.5269 106.66 41.8867C106.927 42.2601 107.28 42.564 107.689 42.7728C108.098 42.9816 108.551 43.0893 109.01 43.0867C109.782 43.0867 110.522 42.7802 111.068 42.2344C111.614 41.6887 111.92 40.9485 111.92 40.1768C111.923 39.8351 111.862 39.4958 111.74 39.1768C112.106 39.6717 112.302 40.2713 112.3 40.8867Z" fill="#363A4D"/>
</g>
<g style="mix-blend-mode:screen" opacity="0.25">
<path d="M109.061 38.5871C109.392 38.7864 109.631 39.1088 109.725 39.4837C109.818 39.8586 109.76 40.2554 109.561 40.5871C109.181 41.3571 108.331 42.0671 107.561 41.6671C107.216 41.4433 106.971 41.0933 106.879 40.6917C106.788 40.2901 106.857 39.8686 107.071 39.517C107.243 39.1543 107.535 38.8628 107.899 38.693C108.262 38.5232 108.673 38.4857 109.061 38.5871Z" fill="white"/>
</g>
<g style="mix-blend-mode:screen" opacity="0.35">
<path d="M108.25 38.7273C108.4 38.8773 108.32 39.1873 108.07 39.4173C107.82 39.6473 107.46 39.8272 107.28 39.6372C107.1 39.4472 107.28 39.1472 107.54 38.9372C107.8 38.7272 108.11 38.5873 108.25 38.7273Z" fill="white"/>
</g>
<g style="mix-blend-mode:multiply" opacity="0.15">
<path d="M112.3 40.8869C112.302 41.5659 112.067 42.2244 111.635 42.7483C111.203 43.2722 110.601 43.6284 109.934 43.7554C109.267 43.8824 108.576 43.7721 107.982 43.4437C107.388 43.1152 106.927 42.5893 106.68 41.9569C107.193 42.3186 107.788 42.5465 108.411 42.6198C109.035 42.6932 109.667 42.6096 110.25 42.3769C110.662 42.1136 110.996 41.7448 111.218 41.3087C111.439 40.8726 111.54 40.3851 111.51 39.8969C111.433 39.5165 111.275 39.1573 111.045 38.8447C110.815 38.532 110.52 38.2734 110.18 38.0869C110.806 38.2672 111.355 38.6507 111.74 39.1769C112.105 39.6718 112.302 40.2715 112.3 40.8869Z" fill="#363A4D"/>
</g>
<g style="mix-blend-mode:screen" opacity="0.1">
<path d="M13.2798 18.7471C16.2798 18.7471 20.2798 24.3771 20.2798 30.8271C20.2798 37.2771 20.0298 50.9971 15.0198 50.9471C10.0098 50.8971 8.25977 35.3771 8.25977 30.3371C8.25977 25.2971 10.2598 18.7471 13.2798 18.7471Z" fill="white"/>
</g>
<g style="mix-blend-mode:multiply" opacity="0.3">
<path d="M20.6297 42.9869C26.263 42.9869 30.8297 38.4202 30.8297 32.7869C30.8297 27.1536 26.263 22.5869 20.6297 22.5869C14.9964 22.5869 10.4297 27.1536 10.4297 32.7869C10.4297 38.4202 14.9964 42.9869 20.6297 42.9869Z" fill="#3C3C3C"/>
</g>
<g style="mix-blend-mode:multiply" opacity="0.15">
<path d="M25.0663 42.6547C30.2708 40.499 32.7422 34.5323 30.5864 29.3278C28.4306 24.1233 22.464 21.6518 17.2595 23.8076C12.055 25.9633 9.58354 31.93 11.7393 37.1345C13.8951 42.339 19.8618 44.8105 25.0663 42.6547Z" fill="#3C3C3C"/>
</g>
<path d="M27.316 39.4673C31.0065 35.7769 31.0065 29.7934 27.316 26.103C23.6256 22.4125 17.6422 22.4125 13.9517 26.103C10.2612 29.7934 10.2612 35.7769 13.9517 39.4673C17.6422 43.1578 23.6256 43.1578 27.316 39.4673Z" fill="#F5DF53"/>
<g style="mix-blend-mode:multiply" opacity="0.25">
<path d="M29.1298 29.6971L23.5397 30.0071L23.8398 24.2872C23.8398 24.1758 23.7955 24.0689 23.7167 23.9902C23.638 23.9114 23.5311 23.8672 23.4197 23.8672H17.8798C17.8251 23.8672 17.7709 23.8781 17.7205 23.8993C17.6701 23.9205 17.6244 23.9516 17.5862 23.9908C17.548 24.0299 17.5181 24.0763 17.498 24.1272C17.478 24.1781 17.4685 24.2325 17.4698 24.2872L17.8398 30.1271L12.1797 29.6971C12.1251 29.6958 12.0707 29.7055 12.0198 29.7255C11.9689 29.7455 11.9225 29.7755 11.8834 29.8137C11.8442 29.8519 11.8131 29.8975 11.7919 29.9479C11.7706 29.9983 11.7597 30.0525 11.7598 30.1072V35.4672C11.7597 35.5219 11.7706 35.576 11.7919 35.6264C11.8131 35.6768 11.8442 35.7225 11.8834 35.7607C11.9225 35.7989 11.9689 35.8289 12.0198 35.8489C12.0707 35.8689 12.1251 35.8785 12.1797 35.8771L17.8898 35.4672L17.4698 41.2872C17.4685 41.3418 17.478 41.3962 17.498 41.4471C17.5181 41.498 17.548 41.5444 17.5862 41.5836C17.6244 41.6227 17.6701 41.6538 17.7205 41.675C17.7709 41.6963 17.8251 41.7072 17.8798 41.7072H23.4698C23.5812 41.7072 23.688 41.6629 23.7667 41.5842C23.8455 41.5054 23.8898 41.3986 23.8898 41.2872L23.3497 35.4971L29.1797 35.8771C29.2885 35.8771 29.3928 35.834 29.4697 35.7571C29.5466 35.6802 29.5898 35.5759 29.5898 35.4672V30.1072C29.5902 30.0489 29.5782 29.9911 29.5545 29.9378C29.5308 29.8845 29.4961 29.8368 29.4526 29.798C29.409 29.7592 29.3577 29.7302 29.3021 29.7128C29.2464 29.6954 29.1876 29.69 29.1298 29.6971Z" fill="#520000"/>
</g>
<path d="M28.7197 30.5869H22.8796V24.9669C22.8796 24.8555 22.8354 24.7486 22.7567 24.6699C22.6779 24.5911 22.571 24.5469 22.4597 24.5469H18.7496C18.6949 24.5469 18.6408 24.5578 18.5904 24.579C18.54 24.6002 18.4943 24.6313 18.4561 24.6705C18.4179 24.7096 18.3879 24.756 18.3679 24.8069C18.3479 24.8578 18.3383 24.9122 18.3397 24.9669V30.5869H12.5197C12.465 30.5855 12.4106 30.5952 12.3597 30.6152C12.3088 30.6352 12.2624 30.6652 12.2233 30.7034C12.1841 30.7416 12.153 30.7872 12.1318 30.8376C12.1105 30.888 12.0996 30.9421 12.0996 30.9968V34.5869C12.0996 34.6982 12.1439 34.8051 12.2227 34.8839C12.3014 34.9626 12.4083 35.0068 12.5197 35.0068H18.3397V40.5869C18.3383 40.6415 18.3479 40.6959 18.3679 40.7468C18.3879 40.7977 18.4179 40.8441 18.4561 40.8832C18.4943 40.9224 18.54 40.9535 18.5904 40.9747C18.6408 40.996 18.6949 41.0069 18.7496 41.0068H22.4597C22.571 41.0068 22.6779 40.9626 22.7567 40.8839C22.8354 40.8051 22.8796 40.6982 22.8796 40.5869V34.9869H28.6996C28.7543 34.9869 28.8085 34.9759 28.8589 34.9547C28.9093 34.9335 28.955 34.9024 28.9932 34.8633C29.0314 34.8241 29.0614 34.7777 29.0814 34.7268C29.1014 34.6759 29.111 34.6215 29.1096 34.5668V31.0068C29.1124 30.8998 29.0731 30.7959 29.0002 30.7174C28.9274 30.6389 28.8267 30.592 28.7197 30.5869Z" fill="#484D66"/>
<g style="mix-blend-mode:multiply" opacity="0.15">
<path d="M21.471 26.7066H19.791L20.631 25.0166L21.471 26.7066Z" fill="#3C3C3C"/>
</g>
<g style="mix-blend-mode:multiply" opacity="0.15">
<path d="M19.791 38.707H21.471L20.631 40.397L19.791 38.707Z" fill="#3C3C3C"/>
</g>
<g style="mix-blend-mode:multiply" opacity="0.15">
<path d="M26.6309 33.5472V31.8672L28.3208 32.7072L26.6309 33.5472Z" fill="#3C3C3C"/>
</g>
<g style="mix-blend-mode:multiply" opacity="0.15">
<path d="M14.6314 31.8672V33.5472L12.9414 32.7072L14.6314 31.8672Z" fill="#3C3C3C"/>
</g>
<path d="M20.6299 23.8567C22.3961 23.8567 24.1227 24.3804 25.5912 25.3616C27.0597 26.3429 28.2043 27.7376 28.8802 29.3693C29.5561 31.0011 29.7329 32.7966 29.3884 34.5288C29.0438 36.2611 28.1933 37.8523 26.9444 39.1011C25.6955 40.35 24.1043 41.2005 22.3721 41.5451C20.6398 41.8897 18.8443 41.7128 17.2126 41.0369C15.5808 40.361 14.1861 39.2165 13.2049 37.7479C12.2237 36.2794 11.7 34.5529 11.7 32.7867C11.7052 30.4199 12.6477 28.1516 14.3213 26.478C15.9948 24.8045 18.2632 23.862 20.6299 23.8567ZM20.6299 23.3467C18.7601 23.3447 16.9316 23.8975 15.376 24.9351C13.8205 25.9727 12.6077 27.4486 11.8912 29.1757C11.1747 30.9029 10.9867 32.8038 11.351 34.6378C11.7153 36.4719 12.6156 38.1566 13.9378 39.4788C15.26 40.801 16.9448 41.7012 18.7788 42.0656C20.6129 42.4299 22.5137 42.2419 24.2409 41.5254C25.9681 40.8089 27.4439 39.5962 28.4815 38.0406C29.5191 36.485 30.0719 34.6566 30.07 32.7867C30.07 30.283 29.0754 27.8819 27.3051 26.1116C25.5347 24.3412 23.1336 23.3467 20.6299 23.3467Z" fill="#F5DF53"/>
<g style="mix-blend-mode:screen" opacity="0.1">
<path d="M20.9704 3.72751C24.1104 3.48751 35.7104 6.27748 39.5604 6.56748C43.4104 6.85748 83.7904 6.45751 83.7904 8.78751C83.7904 11.1175 43.2304 10.5075 38.2504 10.8575C33.2704 11.2075 21.2504 14.4675 17.4204 13.8575C13.5904 13.2475 14.3204 8.78751 15.0804 7.41751C15.6916 6.37284 16.5465 5.4916 17.5722 4.84903C18.5978 4.20647 19.7638 3.82168 20.9704 3.72751Z" fill="white"/>
</g>
<g style="mix-blend-mode:screen" opacity="0.25">
<path d="M65.7396 49.0166H49.8396L39.5996 15.2666H55.4896L65.7396 49.0166Z" fill="white"/>
</g>
<g style="mix-blend-mode:screen" opacity="0.25">
<path d="M79.7211 49.0166H72.8611L62.6211 15.2666H69.4711L79.7211 49.0166Z" fill="white"/>
</g>
<g style="mix-blend-mode:screen" opacity="0.25">
<path d="M92.2897 49.0166H88.1797L77.9297 15.2666H82.0397L92.2897 49.0166Z" fill="white"/>
</g>
<g style="mix-blend-mode:multiply" opacity="0.2">
<path d="M120.76 70.2866C108.52 70.4566 110.97 67.1366 102.05 63.6366C93.4504 60.2666 72.0504 59.8166 64.5504 59.7966C57.8704 59.7966 35.2104 60.1466 26.3004 63.6366C17.3904 67.1266 19.8304 70.4566 7.59044 70.2766C-4.64956 70.0966 1.59044 33.3866 1.59044 33.3866C1.82044 30.6766 3.11044 26.4766 4.90044 22.0166C3.83044 33.0166 2.58045 54.1966 8.16045 59.1666C15.8104 65.9866 27.5204 56.8966 62.5704 56.7266C97.6204 56.5566 114.22 66.1666 121.57 57.7766C125.96 52.7766 125.13 35.8966 123.73 23.0366C125.133 26.3425 126.107 29.8139 126.63 33.3666C126.63 33.3666 133 70.1066 120.76 70.2866Z" fill="#3C3C3C"/>
</g>
<g style="mix-blend-mode:multiply" opacity="0.3">
<path d="M120.76 70.2872C108.52 70.4572 110.97 67.1372 102.05 63.6372C93.4504 60.2672 72.0504 59.8172 64.5504 59.7972C57.8704 59.7972 35.2104 60.1472 26.3004 63.6372C17.3904 67.1272 19.8304 70.4572 7.59044 70.2772C-4.64956 70.0972 1.59044 33.3872 1.59044 33.3872C1.82044 30.6772 3.11044 26.4772 4.90044 22.0172C6.53371 17.9574 8.4311 14.009 10.5804 10.1972C9.18043 17.2872 7.37045 27.0372 7.16045 31.0972C6.81045 37.8172 8.39045 53.5772 15.1604 56.1972C21.9304 58.8172 36.7504 54.8372 63.2904 55.0072C89.8304 55.1772 108.4 60.0072 114.69 55.3072C120.98 50.6072 121.82 40.3072 120.77 29.2372C120.04 21.5372 114.77 9.23723 111.67 2.40723C114.91 4.35723 120.36 14.4072 123.67 23.0372C125.073 26.3432 126.047 29.8146 126.57 33.3672C126.57 33.3672 133 70.1072 120.76 70.2872Z" fill="#3C3C3C"/>
</g>
<g style="mix-blend-mode:screen" opacity="0.4">
<g style="mix-blend-mode:screen" opacity="0.4">
<path d="M17.4199 4.5874C18.9766 4.37099 20.5495 4.29403 22.1199 4.35742C23.695 4.41344 25.2649 4.5704 26.8199 4.82739L27.9799 5.03741L29.14 5.28741C29.53 5.36741 29.9099 5.47738 30.2899 5.56738L30.8599 5.71741L31.4199 5.85742C32.9299 6.19742 34.48 6.40741 36.03 6.59741C39.13 6.94741 42.2499 7.20741 45.3699 7.40741C48.4899 7.60741 51.6199 7.7774 54.7499 7.8974C57.8799 8.0174 61.01 8.12738 64.14 8.18738C67.27 8.24738 70.4 8.2774 73.53 8.2774C76.66 8.2774 79.7899 8.22742 82.9199 8.10742C86.0499 7.98742 89.1699 7.8074 92.2899 7.4574C89.1999 7.9974 86.0699 8.30741 82.9399 8.53741C79.8099 8.76741 76.67 8.88739 73.53 8.94739C70.39 9.00739 67.2599 9.02739 64.1199 8.94739C60.9799 8.86739 57.85 8.8274 54.71 8.7074C48.44 8.4274 42.1699 8.0474 35.9399 7.2074C35.1599 7.0974 34.3799 6.97741 33.6099 6.84741L32.4399 6.62738L31.8799 6.5874L31.59 6.51739L31.2999 6.43738L30.7299 6.2774L30.1699 6.11743C29.7899 6.01743 29.4199 5.89737 29.0399 5.80737L27.91 5.5274L26.77 5.2774C25.2371 4.97391 23.6878 4.7602 22.1299 4.63739C21.3499 4.63739 20.5699 4.53741 19.7899 4.53741C18.9996 4.51347 18.2085 4.53015 17.4199 4.5874Z" fill="white"/>
</g>
</g>
<defs>
<linearGradient id="paint0_linear_821_17517" x1="32.3613" y1="32.1366" x2="96.0013" y2="32.1366" gradientUnits="userSpaceOnUse">
<stop stop-color="#405191"/>
<stop offset="0.98" stop-color="#3A4166"/>
</linearGradient>
</defs>
</svg>
