<svg width="147" height="85" viewBox="0 0 147 85" fill="none" xmlns="http://www.w3.org/2000/svg">
<path d="M111.282 6.35868L92.4023 7.70865C92.4023 7.70865 93.0923 3.48869 95.0023 1.36869C95.2592 1.08162 95.5555 0.832447 95.8824 0.628665C98.4724 -0.971335 109.162 0.898686 110.092 1.86869C110.218 2.00927 110.323 2.16764 110.402 2.33869C110.894 3.62739 111.191 4.98233 111.282 6.35868Z" fill="#484D66"/>
<path d="M54.4325 7.70888L35.5625 6.3589C35.6484 4.9529 35.9556 3.56924 36.4725 2.2589C36.5481 2.1195 36.6386 1.98875 36.7425 1.86891C37.6725 0.868911 48.3625 -0.971109 50.9525 0.628891C51.3061 0.848351 51.6232 1.12167 51.8925 1.43892C53.7825 3.57892 54.4325 7.70888 54.4325 7.70888Z" fill="#484D66"/>
<g style="mix-blend-mode:multiply" opacity="0.3">
<path d="M51.8925 2.19886C53.7625 4.32886 54.4325 8.45884 54.4325 8.45884L35.5625 7.10886C35.6484 5.70286 35.9556 4.3192 36.4725 3.00885C41.0619 2.24883 45.7116 1.91408 50.3625 2.00885C50.876 2.04013 51.387 2.10359 51.8925 2.19886Z" fill="#363A4D"/>
</g>
<g style="mix-blend-mode:multiply" opacity="0.3">
<path d="M111.282 7.10877L92.4023 8.45874C92.4023 8.45874 93.0923 4.23876 95.0023 2.12876C95.3323 2.07876 95.6823 2.04878 96.0623 2.02878C100.865 1.92685 105.667 2.28178 110.402 3.08878C110.894 4.37748 111.191 5.73242 111.282 7.10877Z" fill="#363A4D"/>
</g>
<path d="M146.432 55.2392C146.182 73.3792 138.692 84.7792 129.532 84.7792C120.372 84.7792 109.382 63.5293 102.862 61.1993C96.3417 58.8693 81.1017 56.9892 73.2117 56.9692C65.3217 56.9492 50.0817 58.8693 43.5617 61.1993C37.0417 63.5293 26.0617 84.7992 16.9017 84.7992C7.74172 84.7992 0.241722 73.3992 0.00172164 55.2593C-0.0682784 50.4393 2.00172 44.7192 5.22172 38.8792C10.0917 29.9492 17.4817 20.7592 23.4317 14.1692C26.2717 11.0392 28.7817 8.48921 30.5417 6.83921C31.2882 6.09085 32.1091 5.42071 32.9917 4.83921C35.6417 3.53921 46.5017 2.67924 50.3617 2.93924C54.2217 3.19924 54.7917 4.23921 58.1717 7.33921C61.5517 10.4392 73.1717 10.3392 73.1717 10.3392C73.1717 10.3392 84.8417 10.3992 88.1717 7.33921C91.5017 4.27921 92.1117 3.19924 95.9717 2.93924C99.6617 2.68924 109.762 3.46922 112.972 4.66922C113.105 4.71797 113.235 4.77473 113.362 4.83921C115.377 6.36812 117.245 8.08225 118.942 9.9592C125.192 16.3892 135.082 27.8492 141.122 38.9592C144.382 44.6992 146.492 50.4292 146.432 55.2392Z" fill="#484D66"/>
<g style="mix-blend-mode:screen" opacity="0.05">
<path d="M99.1217 8.79913C103.942 5.30913 116.582 13.6291 124.062 23.5991C131.542 33.5691 140.422 50.9091 132.332 59.5991C124.242 68.2891 107.722 47.5291 103.042 37.1491C98.3617 26.7691 94.2917 12.2491 99.1217 8.79913Z" fill="white"/>
</g>
<g style="mix-blend-mode:screen" opacity="0.05">
<path d="M50.6024 17.2987C47.6024 21.7887 48.2424 40.1587 53.9224 45.8787C59.6024 51.5987 82.3224 52.3887 88.5124 46.5687C94.7024 40.7487 95.8324 20.7887 93.1724 16.9687C90.5124 13.1487 53.5924 12.7987 50.6024 17.2987Z" fill="white"/>
</g>
<g style="mix-blend-mode:multiply" opacity="0.3">
<path d="M116.601 35.7991C116.595 36.7405 116.262 37.6504 115.659 38.3733C115.056 39.0961 114.22 39.587 113.295 39.7618C112.37 39.9367 111.413 39.7847 110.588 39.3318C109.763 38.8789 109.121 38.1532 108.771 37.2791C108.77 37.2458 108.77 37.2124 108.771 37.1791C108.614 36.7359 108.533 36.2694 108.531 35.7991C108.531 34.7336 108.951 33.711 109.7 32.9529C110.448 32.1948 111.466 31.7623 112.531 31.7491C113.172 31.7445 113.804 31.8938 114.375 32.1844C114.946 32.475 115.438 32.8985 115.811 33.4191C116.323 34.1073 116.6 34.9416 116.601 35.7991Z" fill="#363A4D"/>
</g>
<path d="M116.371 35.7988C116.366 36.6879 116.051 37.5474 115.482 38.2301C114.912 38.9128 114.123 39.3761 113.249 39.5404C112.375 39.7048 111.472 39.56 110.693 39.1309C109.914 38.7019 109.309 38.0152 108.981 37.1888V37.1088C108.771 36.5309 108.703 35.9109 108.782 35.3011C108.862 34.6914 109.088 34.1098 109.44 33.6057C109.792 33.1015 110.261 32.6896 110.806 32.4047C111.35 32.1197 111.956 31.9702 112.571 31.9688C112.91 31.9712 113.246 32.0217 113.571 32.1188C114.401 32.3464 115.128 32.851 115.631 33.5488C116.11 34.2011 116.37 34.9892 116.371 35.7988Z" fill="#65A831"/>
<g style="mix-blend-mode:multiply" opacity="0.15">
<path d="M116.371 35.7988C116.365 36.6949 116.046 37.5607 115.468 38.2454C114.89 38.9301 114.09 39.3905 113.207 39.5463C112.325 39.7021 111.415 39.5434 110.638 39.0981C109.86 38.6527 109.263 37.9488 108.951 37.1088C109.497 37.8486 110.29 38.3676 111.186 38.5711C112.082 38.7746 113.022 38.649 113.833 38.2172C114.645 37.7855 115.274 37.0763 115.606 36.2193C115.937 35.3622 115.95 34.4144 115.641 33.5488C116.117 34.2024 116.373 34.9904 116.371 35.7988Z" fill="#363A4D"/>
</g>
<g style="mix-blend-mode:screen" opacity="0.2">
<path d="M112.113 32.7988C112.54 33.0601 112.848 33.4792 112.97 33.9657C113.092 34.4521 113.017 34.9668 112.762 35.3988C112.262 36.3988 111.153 37.3288 110.113 36.8188C109.66 36.5217 109.341 36.0607 109.221 35.5329C109.102 35.0051 109.192 34.4516 109.473 33.9888C109.702 33.5114 110.093 33.1303 110.576 32.9126C111.059 32.6949 111.603 32.6546 112.113 32.7988Z" fill="white"/>
</g>
<g style="mix-blend-mode:screen" opacity="0.35">
<path d="M111.052 32.9191C111.242 33.1191 111.132 33.5291 110.812 33.8291C110.492 34.1291 110.002 34.3591 109.812 34.1191C109.622 33.8791 109.812 33.4691 110.142 33.1991C110.472 32.9291 110.862 32.7191 111.052 32.9191Z" fill="white"/>
</g>
<g style="mix-blend-mode:multiply" opacity="0.15">
<path d="M116.372 35.7991C116.367 36.6882 116.053 37.5478 115.483 38.2305C114.914 38.9131 114.124 39.3764 113.25 39.5408C112.377 39.7051 111.473 39.5603 110.694 39.1313C109.915 38.7022 109.31 38.0156 108.982 37.1891C109.655 37.6676 110.437 37.9695 111.256 38.0674C112.075 38.1652 112.906 38.0558 113.672 37.7491C114.215 37.4037 114.655 36.919 114.947 36.3457C115.239 35.7724 115.372 35.1313 115.332 34.4891C115.232 33.9899 115.024 33.5188 114.721 33.1092C114.419 32.6996 114.03 32.3616 113.582 32.1191C114.412 32.3468 115.139 32.8514 115.642 33.5491C116.118 34.2027 116.374 34.9907 116.372 35.7991Z" fill="#363A4D"/>
</g>
<g style="mix-blend-mode:screen" opacity="0.05">
<path d="M40.1911 12.7185C33.5811 9.28851 24.3711 12.4585 14.8111 28.6085C5.25108 44.7585 13.0911 59.4585 17.0211 62.1485C20.9511 64.8385 31.6611 57.4085 41.2611 42.2685C50.8611 27.1285 46.7811 16.1385 40.1911 12.7185Z" fill="white"/>
</g>
<g style="mix-blend-mode:multiply" opacity="0.1">
<path d="M146.432 55.2389C146.182 73.3789 138.692 84.7789 129.532 84.7789C120.372 84.7789 109.382 63.5289 102.862 61.1989C96.3417 58.8689 81.1017 56.9889 73.2117 56.9689C65.3217 56.9489 50.0817 58.8689 43.5617 61.1989C37.0417 63.5289 26.0617 84.7989 16.9017 84.7989C7.74172 84.7989 0.241722 73.3989 0.00172164 55.2589C-0.0682784 50.4389 2.00172 44.7189 5.22172 38.8789C4.54172 45.2789 3.85172 53.1589 4.12172 56.8789C4.62172 63.7389 9.73172 75.9589 17.1217 75.7089C24.5117 75.4589 45.3117 47.1489 45.3117 47.1489C45.3117 47.1489 51.5417 53.0689 73.2417 53.0489C94.9417 53.0289 101.182 47.1489 101.182 47.1489C101.182 47.1489 122.012 75.4589 129.362 75.7089C136.712 75.9589 141.842 63.7089 142.362 56.8789C142.632 53.1389 141.942 45.2689 141.262 38.8789C144.382 44.6989 146.492 50.4289 146.432 55.2389Z" fill="#363A4D"/>
</g>
<g style="mix-blend-mode:multiply" opacity="0.3">
<path d="M116.601 20.0091C116.607 20.9572 116.281 21.8774 115.678 22.6094C115.075 23.3414 114.235 23.8388 113.304 24.0149C112.372 24.191 111.408 24.0346 110.58 23.5731C109.752 23.1116 109.112 22.3741 108.771 21.4891V21.3991C108.614 20.9525 108.533 20.4826 108.531 20.0091C108.534 18.9444 108.954 17.9232 109.703 17.1657C110.451 16.4081 111.467 15.9748 112.531 15.9591C113.172 15.9545 113.804 16.1038 114.375 16.3945C114.946 16.6851 115.438 17.1085 115.811 17.6291C116.323 18.3173 116.6 19.1516 116.601 20.0091Z" fill="#363A4D"/>
</g>
<path d="M116.372 20.0095C116.369 20.8994 116.056 21.7605 115.487 22.4449C114.918 23.1294 114.129 23.5944 113.255 23.76C112.38 23.9257 111.475 23.7817 110.696 23.3527C109.916 22.9238 109.31 22.2366 108.982 21.4094V21.3195C108.771 20.7422 108.703 20.1225 108.782 19.5132C108.862 18.9038 109.088 18.3227 109.44 17.8192C109.793 17.3157 110.261 16.9046 110.806 16.6209C111.352 16.3372 111.957 16.1892 112.572 16.1895C112.91 16.1937 113.246 16.2407 113.572 16.3295C114.399 16.5615 115.125 17.0651 115.632 17.7595C116.113 18.4108 116.372 19.1996 116.372 20.0095Z" fill="#04ABCD"/>
<g style="mix-blend-mode:multiply" opacity="0.15">
<path d="M116.371 20.0086C116.379 20.9122 116.066 21.7892 115.488 22.4839C114.911 23.1786 114.105 23.6461 113.215 23.8032C112.326 23.9603 111.409 23.7969 110.628 23.342C109.847 22.8871 109.253 22.1702 108.951 21.3186C109.489 22.0724 110.283 22.6051 111.184 22.8176C112.085 23.0301 113.033 22.9079 113.851 22.4738C114.669 22.0397 115.302 21.3233 115.631 20.4578C115.96 19.5923 115.964 18.6366 115.641 17.7686C116.117 18.4184 116.373 19.2032 116.371 20.0086Z" fill="#363A4D"/>
</g>
<g style="mix-blend-mode:screen" opacity="0.25">
<path d="M112.112 17.0389C112.538 17.302 112.844 17.721 112.965 18.2067C113.087 18.6924 113.014 19.2063 112.762 19.6389C112.262 20.6389 111.152 21.5789 110.112 21.0589C109.66 20.7636 109.341 20.3045 109.222 19.7783C109.102 19.2521 109.192 18.7001 109.472 18.2389C109.701 17.761 110.091 17.379 110.574 17.1596C111.056 16.9402 111.601 16.8975 112.112 17.0389Z" fill="white"/>
</g>
<g style="mix-blend-mode:screen" opacity="0.35">
<path d="M111.052 17.1689C111.242 17.3689 111.132 17.7689 110.812 18.0789C110.492 18.3889 110.002 18.6089 109.812 18.3689C109.622 18.1289 109.812 17.7189 110.142 17.4389C110.472 17.1589 110.862 16.9689 111.052 17.1689Z" fill="white"/>
</g>
<g style="mix-blend-mode:multiply" opacity="0.15">
<path d="M116.372 20.0091C116.37 20.899 116.057 21.7602 115.488 22.4446C114.919 23.129 114.13 23.594 113.255 23.7596C112.381 23.9253 111.476 23.7813 110.696 23.3524C109.917 22.9234 109.311 22.2363 108.982 21.4091C109.657 21.8817 110.439 22.1801 111.257 22.2778C112.075 22.3755 112.905 22.2694 113.672 21.9691C114.215 21.6212 114.655 21.1347 114.947 20.5598C115.239 19.9849 115.372 19.3426 115.332 18.6991C115.231 18.2004 115.022 17.7298 114.72 17.3204C114.417 16.911 114.029 16.5727 113.582 16.3291C114.41 16.5611 115.136 17.0648 115.642 17.7591C116.12 18.4117 116.376 19.2003 116.372 20.0091Z" fill="#363A4D"/>
</g>
<g style="mix-blend-mode:multiply" opacity="0.3">
<path d="M65.3612 25.9088C65.3308 26.5844 65.073 27.2299 64.6297 27.7406C64.1864 28.2513 63.5835 28.5972 62.9189 28.7223C62.2543 28.8473 61.567 28.7441 60.9684 28.4295C60.3698 28.1148 59.895 27.6071 59.6212 26.9888V26.9188C59.5093 26.5972 59.4518 26.2593 59.4512 25.9188C59.4557 25.4617 59.5646 25.0116 59.7695 24.6031C59.9745 24.1945 60.2701 23.8381 60.6339 23.5612C60.9976 23.2844 61.4198 23.0942 61.8682 23.0054C62.3166 22.9166 62.7794 22.9314 63.2212 23.0488C63.8645 23.2332 64.4277 23.6274 64.8212 24.1688C65.1815 24.6767 65.3707 25.2861 65.3612 25.9088Z" fill="#363A4D"/>
</g>
<path d="M65.1926 25.9086C65.1926 26.6512 64.8976 27.3634 64.3725 27.8885C63.8474 28.4137 63.1352 28.7086 62.3926 28.7086C61.8282 28.707 61.2771 28.5367 60.8102 28.2195C60.3434 27.9024 59.982 27.4528 59.7726 26.9286C59.7769 26.9089 59.7769 26.8884 59.7726 26.8687C59.6183 26.4443 59.5686 25.9889 59.6276 25.5413C59.6867 25.0936 59.8527 24.6667 60.1118 24.2968C60.3708 23.9269 60.7151 23.6249 61.1156 23.4163C61.5162 23.2078 61.961 23.0988 62.4126 23.0986C62.6698 23.0994 62.9257 23.1365 63.1726 23.2086C63.7801 23.3779 64.3124 23.7481 64.6826 24.2587C65.0247 24.7399 65.2035 25.3182 65.1926 25.9086Z" fill="#5A6080"/>
<g style="mix-blend-mode:multiply" opacity="0.15">
<path d="M65.192 25.9088C65.1944 26.5677 64.9652 27.2065 64.5445 27.7136C64.1237 28.2207 63.5381 28.5639 62.89 28.683C62.2419 28.8021 61.5726 28.6897 60.999 28.3654C60.4254 28.041 59.984 27.5255 59.752 26.9088C60.1011 27.3873 60.5926 27.7433 61.1562 27.9258C61.7198 28.1084 62.3266 28.108 62.89 27.925C63.4534 27.742 63.9446 27.3857 64.2934 26.9069C64.6421 26.428 64.8306 25.8512 64.832 25.2588C64.8373 24.9178 64.7797 24.5788 64.6619 24.2588C65.0112 24.7376 65.197 25.3161 65.192 25.9088Z" fill="#363A4D"/>
</g>
<g style="mix-blend-mode:screen" opacity="0.25">
<path d="M62.0717 23.7286C62.3844 23.9196 62.6098 24.2255 62.6995 24.5807C62.7893 24.9359 62.7362 25.3121 62.5517 25.6287C62.1817 26.3687 61.3717 27.0487 60.5517 26.6287C60.2208 26.4114 59.987 26.0744 59.8993 25.6884C59.8117 25.3024 59.877 24.8975 60.0817 24.5587C60.2587 24.2046 60.557 23.926 60.9223 23.7736C61.2877 23.6213 61.6956 23.6053 62.0717 23.7286Z" fill="white"/>
</g>
<g style="mix-blend-mode:screen" opacity="0.35">
<path d="M61.2917 23.7993C61.4317 23.9393 61.3517 24.2393 61.1217 24.4593C60.8917 24.6793 60.5317 24.8593 60.3617 24.6793C60.1917 24.4993 60.3617 24.1993 60.6017 23.9993C60.8417 23.7993 61.1517 23.6693 61.2917 23.7993Z" fill="white"/>
</g>
<g style="mix-blend-mode:multiply" opacity="0.15">
<path d="M65.1915 25.909C65.1915 26.6516 64.8965 27.3638 64.3714 27.8889C63.8463 28.414 63.1341 28.709 62.3915 28.709C61.8271 28.7074 61.276 28.5371 60.8091 28.2199C60.3423 27.9027 59.9809 27.4532 59.7715 26.929C60.2653 27.2786 60.8386 27.4993 61.4394 27.5709C62.0402 27.6425 62.6494 27.5627 63.2115 27.339C63.6099 27.086 63.9332 26.7309 64.1478 26.3105C64.3623 25.8902 64.4603 25.4201 64.4315 24.949C64.3572 24.5835 64.2042 24.2385 63.9832 23.938C63.7621 23.6375 63.4783 23.3887 63.1515 23.209C63.759 23.3783 64.2913 23.7484 64.6615 24.259C65.0107 24.7379 65.1966 25.3164 65.1915 25.909Z" fill="#363A4D"/>
</g>
<g style="mix-blend-mode:multiply" opacity="0.3">
<path d="M84.1212 25.9089C84.0908 26.5845 83.833 27.23 83.3897 27.7407C82.9464 28.2514 82.3435 28.5974 81.6789 28.7224C81.0143 28.8475 80.327 28.7443 79.7284 28.4296C79.1298 28.115 78.655 27.6073 78.3812 26.989C78.3845 26.9657 78.3845 26.9422 78.3812 26.9189C78.2614 26.5992 78.2004 26.2604 78.2012 25.9189C78.2012 25.1233 78.5172 24.3602 79.0799 23.7976C79.6425 23.235 80.4055 22.9189 81.2012 22.9189C81.4749 22.9197 81.7472 22.9567 82.0112 23.0289C82.6529 23.2168 83.215 23.6103 83.6112 24.1489C83.9606 24.668 84.1389 25.2834 84.1212 25.9089Z" fill="#363A4D"/>
</g>
<path d="M83.9621 25.9091C83.9528 26.5589 83.7185 27.1853 83.2992 27.6818C82.8798 28.1783 82.3014 28.5141 81.6623 28.632C81.0232 28.7499 80.363 28.6427 79.7941 28.3286C79.2252 28.0144 78.7827 27.5127 78.5421 26.9091C78.5378 26.8893 78.5378 26.8688 78.5421 26.8491C78.3881 26.4255 78.3383 25.9711 78.3968 25.5242C78.4554 25.0773 78.6205 24.651 78.8784 24.2813C79.1363 23.9117 79.4793 23.6095 79.8785 23.4002C80.2777 23.191 80.7214 23.0809 81.1721 23.0791C81.4294 23.0791 81.6854 23.1161 81.9321 23.1891C82.5421 23.3531 83.076 23.7244 83.4421 24.2391C83.7919 24.7246 83.9744 25.3107 83.9621 25.9091Z" fill="#5A6080"/>
<g style="mix-blend-mode:multiply" opacity="0.15">
<path d="M83.9615 25.9088C83.9639 26.5677 83.7348 27.2065 83.314 27.7136C82.8932 28.2207 82.3076 28.5639 81.6595 28.683C81.0115 28.8021 80.3421 28.6897 79.7685 28.3654C79.1949 28.041 78.7535 27.5255 78.5215 26.9088C78.8686 27.3894 79.3593 27.7476 79.923 27.9315C80.4867 28.1154 81.0942 28.1156 81.658 27.9321C82.2218 27.7486 82.7128 27.3909 83.0603 26.9105C83.4078 26.43 83.5938 25.8517 83.5915 25.2588C83.5968 24.9178 83.5392 24.5788 83.4215 24.2588C83.7743 24.7364 83.9636 25.315 83.9615 25.9088Z" fill="#363A4D"/>
</g>
<g style="mix-blend-mode:screen" opacity="0.25">
<path d="M80.8317 23.7292C81.1464 23.9183 81.3735 24.2242 81.4635 24.5802C81.5534 24.9362 81.4988 25.3133 81.3117 25.6292C80.9517 26.3692 80.1317 27.0492 79.3717 26.6292C79.0388 26.4137 78.8033 26.0765 78.7155 25.6898C78.6277 25.3031 78.6945 24.8973 78.9017 24.5592C79.0753 24.2168 79.3636 23.9462 79.7163 23.7945C80.069 23.6429 80.4637 23.6197 80.8317 23.7292Z" fill="white"/>
</g>
<g style="mix-blend-mode:screen" opacity="0.35">
<path d="M80.0515 23.7993C80.1915 23.9393 80.1215 24.2393 79.8815 24.4593C79.6415 24.6793 79.2915 24.8593 79.1215 24.6793C78.9515 24.4993 79.1215 24.1993 79.3615 23.9993C79.6015 23.7993 79.9215 23.6693 80.0515 23.7993Z" fill="white"/>
</g>
<g style="mix-blend-mode:multiply" opacity="0.15">
<path d="M83.961 25.9094C83.9517 26.5592 83.7174 27.1857 83.298 27.6822C82.8787 28.1787 82.3003 28.5145 81.6612 28.6324C81.0221 28.7503 80.3619 28.6431 79.793 28.3289C79.2241 28.0148 78.7816 27.5131 78.541 26.9094C79.0344 27.2599 79.6078 27.481 80.2088 27.5527C80.8097 27.6243 81.4191 27.5441 81.981 27.3195C82.3779 27.065 82.7001 26.7095 82.9145 26.2896C83.1288 25.8696 83.2277 25.4002 83.201 24.9294C83.125 24.5632 82.9702 24.2179 82.7475 23.9175C82.5247 23.617 82.2393 23.3686 81.911 23.1895C82.521 23.3535 83.0549 23.7247 83.421 24.2394C83.7779 24.7225 83.9675 25.3088 83.961 25.9094Z" fill="#363A4D"/>
</g>
<g style="mix-blend-mode:multiply" opacity="0.3">
<path d="M76.3612 20.1094C76.3304 21.0175 75.9913 21.8881 75.3997 22.5778C74.8081 23.2676 73.9994 23.7353 73.1065 23.9041C72.2137 24.0729 71.2899 23.9327 70.4874 23.5065C69.6849 23.0804 69.0514 22.3936 68.6912 21.5594V21.4694C68.5329 21.0334 68.4517 20.5732 68.4512 20.1094C68.4512 19.0485 68.8726 18.0311 69.6227 17.2809C70.3729 16.5308 71.3903 16.1094 72.4512 16.1094C72.8124 16.1096 73.1721 16.1567 73.5212 16.2494C74.3809 16.4931 75.1343 17.0176 75.6612 17.7394C76.1426 18.4339 76.388 19.2647 76.3612 20.1094Z" fill="#363A4D"/>
</g>
<path d="M76.0108 19.8887C76.0103 20.7619 75.7051 21.6076 75.1478 22.2799C74.5905 22.9522 73.816 23.4089 72.958 23.5712C72.1 23.7336 71.2122 23.5915 70.4478 23.1693C69.6834 22.7471 69.0903 22.0714 68.7708 21.2587V21.1687C68.6259 20.7574 68.5515 20.3247 68.5508 19.8887C68.5534 18.8976 68.9483 17.9478 69.6491 17.247C70.3499 16.5462 71.2997 16.1513 72.2908 16.1486C72.6292 16.145 72.9663 16.1922 73.2908 16.2887C74.0956 16.5178 74.8 17.0109 75.2908 17.6887C75.7574 18.3274 76.0095 19.0977 76.0108 19.8887Z" fill="#A3A3A3"/>
<g style="mix-blend-mode:multiply" opacity="0.15">
<path d="M76.0122 19.8895C76.0091 20.769 75.697 21.6195 75.1304 22.2922C74.5637 22.965 73.7787 23.4171 72.9124 23.5696C72.0462 23.7221 71.1539 23.5653 70.3916 23.1265C69.6293 22.6878 69.0455 21.9951 68.7422 21.1694C69.2075 21.8075 69.8623 22.2825 70.6134 22.5266C71.3644 22.7706 72.1734 22.7712 72.9249 22.5285C73.6764 22.2858 74.332 21.812 74.7984 21.1747C75.2648 20.5374 75.5181 19.7691 75.5222 18.9794C75.5231 18.5392 75.4452 18.1023 75.2922 17.6895C75.7588 18.3282 76.0109 19.0984 76.0122 19.8895Z" fill="#363A4D"/>
</g>
<g style="mix-blend-mode:screen" opacity="0.25">
<path d="M71.8326 16.9795C72.2511 17.2367 72.553 17.6468 72.6743 18.1228C72.7956 18.5988 72.7269 19.1033 72.4826 19.5294C71.9926 20.5294 70.9026 21.4195 69.8826 20.9195C69.4402 20.6285 69.1275 20.1776 69.01 19.6613C68.8926 19.1449 68.9795 18.6031 69.2526 18.1494C69.4775 17.6831 69.859 17.3105 70.3305 17.0967C70.802 16.8829 71.3336 16.8414 71.8326 16.9795Z" fill="white"/>
</g>
<g style="mix-blend-mode:screen" opacity="0.35">
<path d="M70.7812 17.099C70.9612 17.299 70.8612 17.6991 70.5512 17.9891C70.2412 18.2791 69.7612 18.519 69.5512 18.279C69.3412 18.039 69.5512 17.6491 69.8712 17.3691C70.1912 17.0891 70.6112 16.909 70.7812 17.099Z" fill="white"/>
</g>
<g style="mix-blend-mode:multiply" opacity="0.15">
<path d="M76.0115 19.8891C76.011 20.7623 75.7058 21.608 75.1485 22.2803C74.5912 22.9526 73.8167 23.4093 72.9587 23.5717C72.1007 23.734 71.2129 23.5919 70.4485 23.1697C69.6841 22.7475 69.091 22.0718 68.7715 21.2591C69.4311 21.7239 70.1959 22.0174 70.9971 22.1134C71.7982 22.2094 72.6107 22.1048 73.3615 21.8091C73.8939 21.4696 74.3258 20.9938 74.6124 20.4311C74.899 19.8684 75.0299 19.2394 74.9915 18.6091C74.892 18.1201 74.6864 17.6589 74.3892 17.258C74.092 16.8571 73.7105 16.5264 73.2715 16.2891C74.0763 16.5182 74.7807 17.0113 75.2715 17.6891C75.7452 18.3254 76.0044 19.0958 76.0115 19.8891Z" fill="#363A4D"/>
</g>
<g style="mix-blend-mode:multiply" opacity="0.3">
<path d="M124.472 27.6595C124.557 28.6465 124.272 29.6299 123.673 30.4191C123.074 31.2083 122.204 31.7472 121.231 31.9314C120.257 32.1157 119.25 31.9321 118.404 31.4163C117.558 30.9005 116.934 30.0892 116.652 29.1395C116.648 29.1096 116.648 29.0794 116.652 29.0495C116.495 28.6028 116.414 28.133 116.412 27.6595C116.415 26.5947 116.835 25.5736 117.583 24.8161C118.332 24.0585 119.347 23.6252 120.412 23.6095C121.053 23.6049 121.685 23.7542 122.256 24.0448C122.826 24.3354 123.319 24.7588 123.692 25.2795C124.2 25.9688 124.474 26.8031 124.472 27.6595Z" fill="#363A4D"/>
</g>
<path d="M124.253 27.6589C124.25 28.5488 123.937 29.41 123.368 30.0944C122.799 30.7788 122.01 31.2438 121.135 31.4095C120.261 31.5751 119.356 31.4311 118.576 31.0021C117.797 30.5732 117.191 29.8861 116.863 29.0589V28.9689C116.652 28.3916 116.583 27.772 116.663 27.1627C116.743 26.5533 116.969 25.9722 117.321 25.4687C117.673 24.9652 118.142 24.5541 118.687 24.2704C119.232 23.9867 119.838 23.8386 120.453 23.8389C120.79 23.8431 121.126 23.8902 121.453 23.9789C122.279 24.213 123.004 24.7162 123.513 25.4089C123.994 26.0602 124.253 26.849 124.253 27.6589Z" fill="#E83C4A"/>
<g style="mix-blend-mode:multiply" opacity="0.15">
<path d="M124.252 27.6589C124.26 28.5625 123.947 29.4396 123.369 30.1343C122.791 30.829 121.986 31.2964 121.096 31.4535C120.206 31.6106 119.29 31.4472 118.509 30.9923C117.728 30.5374 117.134 29.8205 116.832 28.9689C117.37 29.7227 118.163 30.2554 119.065 30.4679C119.966 30.6804 120.914 30.5583 121.732 30.1242C122.55 29.6901 123.182 28.9737 123.512 28.1082C123.841 27.2426 123.845 26.287 123.522 25.4189C123.998 26.0688 124.254 26.8536 124.252 27.6589Z" fill="#A80000"/>
</g>
<g style="mix-blend-mode:screen" opacity="0.25">
<path d="M119.981 24.6887C120.411 24.9484 120.721 25.3667 120.844 25.8533C120.968 26.3399 120.895 26.8555 120.641 27.2887C120.141 28.2887 119.031 29.2287 117.981 28.7087C117.529 28.4135 117.21 27.9536 117.093 27.4268C116.975 26.9 117.068 26.3481 117.351 25.8887C117.579 25.4116 117.967 25.0298 118.448 24.8104C118.929 24.591 119.472 24.5479 119.981 24.6887Z" fill="white"/>
</g>
<g style="mix-blend-mode:screen" opacity="0.25">
<path d="M118.921 24.7992C119.111 24.9992 119.011 25.4092 118.691 25.7092C118.371 26.0092 117.881 26.2493 117.691 26.0093C117.501 25.7693 117.691 25.3593 118.021 25.0793C118.351 24.7993 118.781 24.6092 118.921 24.7992Z" fill="white"/>
</g>
<g style="mix-blend-mode:multiply" opacity="0.15">
<path d="M124.251 27.6585C124.248 28.5484 123.936 29.4096 123.367 30.0941C122.798 30.7785 122.009 31.2435 121.134 31.4091C120.26 31.5748 119.355 31.4307 118.575 31.0018C117.796 30.5728 117.19 29.8857 116.861 29.0585C117.536 29.5311 118.318 29.8295 119.136 29.9272C119.954 30.0249 120.784 29.9189 121.551 29.6185C122.093 29.2692 122.532 28.7823 122.823 28.2078C123.115 27.6333 123.249 26.9917 123.211 26.3485C123.106 25.8512 122.896 25.3823 122.594 24.9734C122.292 24.5645 121.906 24.2253 121.461 23.9785C122.288 24.2126 123.013 24.7159 123.521 25.4085C123.999 26.0611 124.255 26.8497 124.251 27.6585Z" fill="#A80000"/>
</g>
<g style="mix-blend-mode:multiply" opacity="0.3">
<path d="M108.492 27.6594C108.498 28.6075 108.171 29.5278 107.569 30.2598C106.966 30.9918 106.126 31.4891 105.194 31.6652C104.263 31.8413 103.299 31.6849 102.471 31.2234C101.642 30.7618 101.002 30.0244 100.662 29.1395V29.0494C100.5 28.604 100.419 28.1333 100.422 27.6594C100.422 26.5939 100.842 25.5713 101.59 24.8132C102.339 24.0551 103.357 23.6226 104.422 23.6094C104.791 23.6074 105.158 23.6579 105.512 23.7595C106.392 24.0052 107.164 24.5407 107.702 25.2794C108.214 25.9676 108.491 26.8019 108.492 27.6594Z" fill="#363A4D"/>
</g>
<path d="M108.263 27.6589C108.26 28.5488 107.947 29.41 107.378 30.0944C106.809 30.7788 106.02 31.2438 105.145 31.4095C104.271 31.5751 103.366 31.4311 102.587 31.0021C101.807 30.5732 101.201 29.8861 100.873 29.0589C100.877 29.029 100.877 28.9987 100.873 28.9689C100.724 28.5479 100.647 28.1052 100.643 27.6589C100.645 26.8524 100.903 26.0674 101.378 25.4156C101.853 24.7639 102.521 24.2789 103.288 24.0295C104.055 23.7801 104.881 23.7792 105.649 24.0269C106.416 24.2746 107.086 24.7582 107.563 25.4089C108.03 26.0651 108.275 26.8534 108.263 27.6589Z" fill="#FFE019"/>
<g style="mix-blend-mode:multiply" opacity="0.1">
<path d="M108.262 27.6589C108.27 28.5625 107.957 29.4396 107.379 30.1343C106.801 30.829 105.996 31.2964 105.106 31.4535C104.216 31.6106 103.3 31.4472 102.519 30.9923C101.738 30.5374 101.144 29.8205 100.842 28.9689C101.38 29.7227 102.173 30.2554 103.075 30.4679C103.976 30.6804 104.924 30.5583 105.742 30.1242C106.56 29.6901 107.192 28.9737 107.521 28.1082C107.851 27.2426 107.854 26.287 107.532 25.4189C108.008 26.0688 108.263 26.8536 108.262 27.6589Z" fill="#520000"/>
</g>
<g style="mix-blend-mode:screen" opacity="0.25">
<path d="M104.001 24.6893C104.43 24.9489 104.74 25.3673 104.864 25.8539C104.988 26.3404 104.915 26.8561 104.661 27.2892C104.161 28.2892 103.041 29.2292 102.001 28.7092C101.551 28.4123 101.234 27.9532 101.114 27.4278C100.995 26.9023 101.083 26.3512 101.361 25.8893C101.59 25.4114 101.98 25.0293 102.463 24.81C102.946 24.5906 103.49 24.5479 104.001 24.6893Z" fill="white"/>
</g>
<g style="mix-blend-mode:screen" opacity="0.55">
<path d="M102.942 24.7992C103.132 24.9992 103.032 25.4092 102.712 25.7092C102.392 26.0092 101.902 26.2493 101.712 26.0093C101.522 25.7693 101.712 25.3593 102.042 25.0793C102.372 24.7993 102.782 24.6092 102.942 24.7992Z" fill="white"/>
</g>
<g style="mix-blend-mode:multiply" opacity="0.1">
<path d="M108.261 27.6585C108.258 28.5484 107.945 29.4096 107.377 30.0941C106.808 30.7785 106.018 31.2435 105.144 31.4091C104.27 31.5748 103.365 31.4307 102.585 31.0018C101.805 30.5728 101.199 29.8857 100.871 29.0585C101.546 29.5311 102.328 29.8295 103.146 29.9272C103.964 30.0249 104.794 29.9189 105.561 29.6185C106.106 29.2719 106.548 28.7859 106.841 28.2109C107.135 27.636 107.27 26.993 107.231 26.3485C107.126 25.8498 106.915 25.3798 106.611 24.9707C106.307 24.5616 105.918 24.2231 105.471 23.9785C106.299 24.2105 107.024 24.7142 107.531 25.4085C108.009 26.0611 108.265 26.8497 108.261 27.6585Z" fill="#520000"/>
</g>
<g style="mix-blend-mode:multiply" opacity="0.15">
<path d="M146.432 55.2394C146.182 73.3794 138.692 84.7794 129.532 84.7794C120.372 84.7794 109.382 63.5295 102.862 61.1995C96.3417 58.8695 81.1017 56.9894 73.2117 56.9694C65.3217 56.9494 50.0817 58.8695 43.5617 61.1995C37.0417 63.5295 26.0617 84.7994 16.9017 84.7994C7.74172 84.7994 0.241722 73.3995 0.00172164 55.2595C-0.0682784 50.4395 2.00172 44.7195 5.22172 38.8795C10.0917 29.9495 17.4817 20.7594 23.4317 14.1694C19.6017 22.3394 11.1617 31.6994 8.36172 42.3094C5.65172 52.5394 9.69172 71.9894 16.3617 71.7294C23.0317 71.4694 45.7817 39.7994 45.7817 39.7994C45.7817 39.7994 53.7817 49.3295 73.2117 49.3295C92.6417 49.3295 101.092 39.5695 101.092 39.5695C101.092 39.5695 118.862 70.1895 128.092 67.4495C137.322 64.7095 140.522 52.6995 136.822 39.5695C133.182 26.6495 119.462 10.4094 119.032 9.89941C125.282 16.3294 135.172 27.7894 141.212 38.8994C144.382 44.6994 146.492 50.4294 146.432 55.2394Z" fill="#363A4D"/>
</g>
<g style="mix-blend-mode:multiply" opacity="0.3">
<path d="M64.8318 39.869H59.8318V34.799C59.8318 34.6531 59.7739 34.5132 59.6707 34.4101C59.5676 34.307 59.4277 34.249 59.2818 34.249H54.1918C54.0459 34.249 53.906 34.307 53.8029 34.4101C53.6997 34.5132 53.6418 34.6531 53.6418 34.799V39.859H48.6418C48.4959 39.859 48.356 39.9169 48.2529 40.0201C48.1497 40.1232 48.0918 40.2631 48.0918 40.409V45.279C48.0944 45.4231 48.1535 45.5605 48.2564 45.6615C48.3592 45.7625 48.4976 45.8191 48.6418 45.819H53.6418V50.889C53.6418 51.0349 53.6997 51.1747 53.8029 51.2779C53.906 51.381 54.0459 51.439 54.1918 51.439H59.2818C59.4277 51.439 59.5676 51.381 59.6707 51.2779C59.7739 51.1747 59.8318 51.0349 59.8318 50.889V45.799H64.8318C64.976 45.799 65.1143 45.7425 65.2172 45.6415C65.3201 45.5405 65.3792 45.4032 65.3818 45.259V40.389C65.3741 40.2484 65.3128 40.1161 65.2105 40.0193C65.1082 39.9226 64.9726 39.8688 64.8318 39.869Z" fill="#363A4D"/>
</g>
<path d="M63.5724 40.2093H58.4824V35.1193C58.4824 34.9735 58.4245 34.8336 58.3213 34.7304C58.2182 34.6273 58.0783 34.5693 57.9324 34.5693H54.9324C54.7866 34.5693 54.6467 34.6273 54.5435 34.7304C54.4404 34.8336 54.3824 34.9735 54.3824 35.1193V40.2093H49.2824C49.1366 40.2093 48.9967 40.2673 48.8935 40.3704C48.7904 40.4736 48.7324 40.6135 48.7324 40.7593V43.7593C48.735 43.9035 48.7941 44.0408 48.897 44.1418C48.9999 44.2428 49.1383 44.2993 49.2824 44.2993H54.3824V49.3993C54.3824 49.5452 54.4404 49.6851 54.5435 49.7882C54.6467 49.8914 54.7866 49.9493 54.9324 49.9493H57.9324C58.0783 49.9493 58.2182 49.8914 58.3213 49.7882C58.4245 49.6851 58.4824 49.5452 58.4824 49.3993V44.2993H63.5724C63.6442 44.3006 63.7155 44.2877 63.7821 44.2611C63.8488 44.2346 63.9095 44.195 63.9607 44.1447C64.012 44.0944 64.0526 44.0345 64.0804 43.9683C64.1081 43.9021 64.1224 43.8311 64.1224 43.7593V40.7593C64.1224 40.6135 64.0645 40.4736 63.9613 40.3704C63.8582 40.2673 63.7183 40.2093 63.5724 40.2093Z" fill="#484D66"/>
<g style="mix-blend-mode:screen" opacity="0.4">
<g style="mix-blend-mode:screen" opacity="0.4">
<path d="M49.2812 40.6094L50.6813 40.5494H52.0912C53.0312 40.5494 53.9613 40.5494 54.9013 40.5494L54.7812 40.6694C54.7812 39.7894 54.7812 38.9094 54.7812 38.0294C54.7812 37.1494 54.7812 36.2694 54.8712 35.3994C54.8712 36.2694 54.9413 37.1494 54.9613 38.0294C54.9813 38.9094 54.9613 39.7894 54.9613 40.6694V40.7894H54.8412C53.9012 40.7894 52.9713 40.7894 52.0312 40.7894H50.6212L49.2812 40.6094Z" fill="white"/>
</g>
</g>
<g style="mix-blend-mode:screen" opacity="0.4">
<g style="mix-blend-mode:screen" opacity="0.4">
<path d="M54.7824 44.6895C54.9421 46.1785 54.9421 47.6804 54.7824 49.1694C54.609 47.6811 54.609 46.1778 54.7824 44.6895Z" fill="white"/>
</g>
</g>
<g style="mix-blend-mode:multiply" opacity="0.15">
<path d="M113.051 4.61884C108.681 4.67884 99.0515 5.00883 95.8215 6.72883C91.5515 8.96883 86.8215 14.2688 72.8715 14.4888C58.9215 14.7088 54.3815 7.71884 50.8715 6.48884C48.2615 5.54884 36.3415 6.36886 30.5215 6.82886C31.2679 6.08051 32.0888 5.41036 32.9715 4.82886C35.6215 3.52886 46.4815 2.66884 50.3415 2.92884C54.2015 3.18884 54.7715 4.22886 58.1515 7.32886C61.5315 10.4289 73.1515 10.3289 73.1515 10.3289C73.1515 10.3289 84.8215 10.3889 88.1515 7.32886C91.4815 4.26886 92.0915 3.18884 95.9515 2.92884C99.7815 2.63884 109.851 3.41884 113.051 4.61884Z" fill="#363A4D"/>
</g>
<g style="mix-blend-mode:screen" opacity="0.25">
<path d="M23.3523 62.9288C27.0523 61.5488 30.0023 58.6888 32.5523 55.6788C35.8848 51.7408 38.7319 47.4164 41.0323 42.7988C38.9265 47.034 36.181 50.9196 32.8923 54.3188C30.5404 56.9354 27.5993 58.9544 24.3123 60.2088C18.1023 62.2988 14.3123 59.3988 10.6023 54.8788C7.88231 56.2688 12.3423 61.3188 13.7523 62.2388C15.1955 63.0739 16.8097 63.57 18.4728 63.6895C20.136 63.8091 21.8045 63.5489 23.3523 62.9288Z" fill="white"/>
</g>
<g style="mix-blend-mode:screen" opacity="0.25">
<path d="M136.522 51.1992C136.688 53.4412 136.461 55.6949 135.852 57.8591C135.539 58.9401 135.014 59.9483 134.309 60.8254C133.603 61.7025 132.731 62.4311 131.742 62.9691C129.832 63.9091 127.612 63.8691 125.482 63.7991C129.952 62.2491 132.952 57.7991 133.892 53.1691C134.832 48.5391 134.022 43.7191 132.842 39.1691C131.912 35.5691 130.102 31.5891 130.002 27.8691C134.282 34.5091 136.232 43.3692 136.522 51.1992Z" fill="white"/>
</g>
<g style="mix-blend-mode:multiply" opacity="0.3">
<path d="M22.3727 29.2994C21.6182 27.0125 21.6816 24.5346 22.5519 22.2892C23.4222 20.0439 25.0455 18.1706 27.1441 16.9896C29.2427 15.8086 31.6864 15.3933 34.0574 15.8146C36.4284 16.2359 38.5794 17.4677 40.1427 19.2994L40.3027 19.4994C41.8875 21.4486 42.7117 23.9063 42.6225 26.4168C42.5332 28.9273 41.5365 31.3203 39.8172 33.152C38.0979 34.9836 35.7727 36.1295 33.2729 36.3773C30.773 36.6251 28.2681 35.9579 26.2227 34.4994C24.4176 33.2211 23.0686 31.399 22.3727 29.2994Z" fill="#363A4D"/>
</g>
<path d="M22.6626 28.5293C21.9319 26.3664 21.9783 24.0165 22.794 21.8842C23.6096 19.7519 25.1434 17.9709 27.1311 16.8479C29.1188 15.725 31.4358 15.3305 33.6831 15.7323C35.9305 16.1341 37.9673 17.3071 39.4426 19.0493C39.4426 19.1093 39.5426 19.1693 39.5926 19.2293C40.3049 20.1278 40.8564 21.1428 41.2226 22.2293C41.8885 24.1886 41.9171 26.3084 41.3043 28.2849C40.6915 30.2615 39.4688 31.9933 37.8113 33.2323C36.1538 34.4712 34.1466 35.1537 32.0775 35.1819C30.0083 35.2101 27.9833 34.5826 26.2926 33.3893C24.5937 32.1996 23.3213 30.496 22.6626 28.5293Z" fill="#484D66"/>
<path d="M29.3522 18.6188C29.9682 18.3824 30.6146 18.2342 31.2722 18.1788C32.8939 18.0217 34.5206 18.4239 35.8822 19.3188C37.0403 20.0699 37.957 21.1394 38.5222 22.3988L38.6722 22.7788C39.2468 24.279 39.3055 25.9279 38.8388 27.4652C38.3721 29.0024 37.4067 30.3404 36.095 31.268C34.7833 32.1956 33.2001 32.6599 31.5952 32.5876C29.9903 32.5153 28.4552 31.9106 27.2322 30.8688C26.9977 30.6745 26.7772 30.464 26.5722 30.2388L26.4622 30.1088C25.9069 29.4714 25.47 28.74 25.1722 27.9488C24.4922 26.1571 24.5504 24.1689 25.334 22.4199C26.1175 20.671 27.5625 19.3041 29.3522 18.6188Z" fill="#5A6080"/>
<g style="mix-blend-mode:screen" opacity="0.4">
<g style="mix-blend-mode:screen" opacity="0.4">
<path d="M34.2625 17.2788C32.7934 16.9301 31.2564 16.9959 29.8225 17.4688C28.3904 17.8786 27.0862 18.646 26.0325 19.6988C25.008 20.7779 24.314 22.1277 24.0325 23.5888C23.8756 24.3152 23.7918 25.0556 23.7825 25.7988C23.7627 26.5551 23.8129 27.3117 23.9325 28.0588C23.5056 26.5745 23.4066 25.0151 23.6425 23.4888C23.7697 22.7187 23.9984 21.9689 24.3225 21.2588C24.6626 20.5502 25.1114 19.899 25.6525 19.3288C26.7515 18.2205 28.136 17.4383 29.6525 17.0688C30.4056 16.869 31.1835 16.778 31.9625 16.7988C32.7513 16.8235 33.5297 16.9859 34.2625 17.2788Z" fill="white"/>
</g>
</g>
<g style="mix-blend-mode:multiply" opacity="0.15">
<path d="M29.3526 18.6188C29.9687 18.3824 30.6151 18.2342 31.2726 18.1788C32.8944 18.0217 34.5211 18.4239 35.8826 19.3188C37.0408 20.0699 37.9575 21.1394 38.5226 22.3988C38.3226 22.2388 33.8226 18.6888 28.9926 21.8288C24.1626 24.9688 27.2426 30.8788 27.2426 30.8788C27.0082 30.6845 26.7876 30.474 26.5826 30.2488L26.4726 30.1188C25.9173 29.4815 25.4804 28.7499 25.1826 27.9588C24.4991 26.1671 24.5542 24.1774 25.336 22.4264C26.1178 20.6753 27.5623 19.306 29.3526 18.6188Z" fill="#363A4D"/>
</g>
<g style="mix-blend-mode:multiply" opacity="0.3">
<path d="M78.7016 45.7388C78.0875 43.9444 78.1202 41.9918 78.7938 40.2189C79.4674 38.4461 80.7396 36.9645 82.3902 36.0306C84.0409 35.0967 85.9661 34.7693 87.8327 35.1049C89.6992 35.4406 91.3897 36.4183 92.6116 37.8688L92.7316 38.0288C93.3236 38.7677 93.7837 39.6034 94.0916 40.4988C94.7812 42.5384 94.6337 44.7683 93.6814 46.6992C92.729 48.6302 91.0496 50.1045 89.0116 50.7988C88.3126 51.0441 87.5815 51.1855 86.8416 51.2188C85.0143 51.3247 83.2054 50.8064 81.7116 49.7488C80.3044 48.7692 79.2493 47.3635 78.7016 45.7388Z" fill="#363A4D"/>
</g>
<path d="M78.9318 45.1287C78.3565 43.4369 78.39 41.5973 79.0264 39.9276C79.6628 38.2578 80.8623 36.8626 82.4177 35.983C83.9731 35.1033 85.7869 34.7944 87.5458 35.1094C89.3048 35.4245 90.8985 36.3438 92.0519 37.7087L92.1719 37.8587C92.9428 38.8208 93.4708 39.9543 93.7112 41.1635C93.9516 42.3726 93.8974 43.622 93.5532 44.8058C93.2089 45.9896 92.5847 47.0731 91.7334 47.9648C90.882 48.8565 89.8285 49.5301 88.6619 49.9287C88.0163 50.1501 87.3433 50.2813 86.6619 50.3187C84.9378 50.4157 83.2317 49.9257 81.8218 48.9287C80.4744 48.0064 79.4607 46.6736 78.9318 45.1287Z" fill="#484D66"/>
<path d="M84.1619 37.3793C84.6462 37.192 85.1546 37.0741 85.6719 37.0292C86.9377 36.914 88.2056 37.2274 89.2719 37.9192C90.1798 38.5078 90.8958 39.349 91.3319 40.3392L91.4519 40.6393C91.8982 41.8126 91.9419 43.1011 91.5758 44.3019C91.2098 45.5028 90.455 46.5478 89.43 47.2727C88.4051 47.9977 87.1682 48.3613 85.914 48.3063C84.6598 48.2514 83.4595 47.781 82.5019 46.9692C82.3189 46.8165 82.1452 46.6528 81.9819 46.4792L81.8919 46.3793C81.4655 45.8764 81.1274 45.305 80.8919 44.6892C80.3582 43.2861 80.4027 41.7286 81.0157 40.3583C81.6287 38.9879 82.7602 37.9166 84.1619 37.3793Z" fill="#5A6080"/>
<g style="mix-blend-mode:screen" opacity="0.4">
<g style="mix-blend-mode:screen" opacity="0.4">
<path d="M88.0123 36.3287C86.8604 36.0767 85.6619 36.1388 84.5423 36.5087C83.4326 36.8398 82.4225 37.4411 81.6023 38.2587C80.818 39.096 80.2814 40.1345 80.0523 41.2587C79.8203 42.4144 79.7832 43.6007 79.9423 44.7686C79.5856 43.6104 79.4967 42.3863 79.6823 41.1887C79.7698 40.58 79.9449 39.9871 80.2023 39.4287C80.4708 38.8673 80.8251 38.3511 81.2523 37.8986C82.1264 37.0235 83.2279 36.4105 84.4323 36.1287C85.6154 35.8027 86.8728 35.8729 88.0123 36.3287Z" fill="white"/>
</g>
</g>
<g style="mix-blend-mode:multiply" opacity="0.15">
<path d="M84.161 37.3793C84.6453 37.192 85.1537 37.0741 85.671 37.0292C86.9368 36.914 88.2047 37.2274 89.271 37.9192C90.1789 38.5078 90.8949 39.349 91.331 40.3392C91.181 40.2092 87.661 37.4293 83.881 39.8893C80.101 42.3493 82.511 46.9692 82.511 46.9692C82.328 46.8165 82.1543 46.6528 81.991 46.4792L81.901 46.3793C81.4746 45.8764 81.1365 45.305 80.901 44.6892C80.3668 43.2874 80.4099 41.7309 81.0209 40.3608C81.6319 38.9907 82.7611 37.9186 84.161 37.3793Z" fill="#363A4D"/>
</g>
</svg>
