<svg width="156" height="119" viewBox="0 0 156 119" fill="none" xmlns="http://www.w3.org/2000/svg">
<path d="M148.188 60.044L144.236 57.0801L132.854 72.2561L136.806 75.22L148.188 60.044Z" fill="#CCCCCC"/>
<g style="mix-blend-mode:multiply" opacity="0.15">
<path d="M145.712 62.4334L141.773 59.4521L136.933 65.8471L140.873 68.8283L145.712 62.4334Z" fill="#3C3C3C"/>
</g>
<g style="mix-blend-mode:multiply" opacity="0.15">
<path d="M138.784 72.5753L134.832 69.6113L132.588 72.6033L136.54 75.5673L138.784 72.5753Z" fill="#3C3C3C"/>
</g>
<path d="M154.036 61.5595C152.83 63.1617 151.096 64.2851 149.14 64.7308C147.185 65.1765 145.135 64.9156 143.354 63.9943C141.572 63.0731 140.175 61.551 139.408 59.6978C138.642 57.8446 138.556 55.7799 139.166 53.8695C139.252 53.5833 139.355 53.3028 139.476 53.0295C139.74 52.4183 140.075 51.8409 140.476 51.3095C141.836 49.5138 143.854 48.3314 146.085 48.022C148.316 47.7126 150.579 48.3016 152.376 49.6595C153.158 50.2278 153.835 50.9283 154.376 51.7295C155.356 53.1955 155.853 54.9305 155.799 56.6925C155.745 58.4546 155.143 60.156 154.076 61.5595H154.036Z" fill="#5A6080"/>
<path d="M147.154 63.5407L140.289 58.3447L136.252 63.6792L143.117 68.8752L147.154 63.5407Z" fill="#5A6080"/>
<g style="mix-blend-mode:multiply" opacity="0.15">
<path d="M154.036 61.5595C152.83 63.1617 151.096 64.2851 149.14 64.7308C147.185 65.1764 145.135 64.9155 143.354 63.9943C141.572 63.0731 140.175 61.551 139.408 59.6978C138.642 57.8446 138.556 55.7798 139.166 53.8695C139.191 54.0927 139.235 54.3135 139.296 54.5295C139.366 54.7495 139.446 54.9795 139.536 55.1995C140.223 56.7997 141.282 58.2124 142.626 59.3195C144.164 60.8045 146.209 61.6483 148.346 61.6795C151.676 61.5095 154.256 58.2695 154.566 54.9495C154.66 53.8707 154.582 52.784 154.336 51.7295C155.315 53.1954 155.813 54.9304 155.759 56.6925C155.705 58.4546 155.103 60.156 154.036 61.5595Z" fill="#3C3C3C"/>
</g>
<g style="mix-blend-mode:multiply" opacity="0.15">
<path d="M154.036 61.5593C152.83 63.1615 151.096 64.2849 149.14 64.7306C147.185 65.1762 145.135 64.9153 143.354 63.9941C141.572 63.0729 140.175 61.5508 139.408 59.6976C138.642 57.8444 138.556 55.7796 139.166 53.8693C139.252 53.5831 139.355 53.3025 139.476 53.0293C139.392 53.7518 139.412 54.4826 139.536 55.1993C139.536 55.4693 139.636 55.7393 139.706 56.0193C140.191 57.668 141.106 59.1578 142.357 60.3354C143.609 61.513 145.151 62.3359 146.826 62.7193C147.829 62.9648 148.874 62.9852 149.886 62.7793C151.801 62.1894 153.472 60.9925 154.646 59.3693C155.004 58.9691 155.338 58.5484 155.646 58.1093C155.378 59.3666 154.828 60.5464 154.036 61.5593Z" fill="#3C3C3C"/>
</g>
<g style="mix-blend-mode:screen" opacity="0.2">
<path d="M143.066 49.8099C142.341 50.2651 141.737 50.8897 141.306 51.6299C140.906 52.2716 140.731 53.0276 140.806 53.7799C140.951 54.5103 141.298 55.1856 141.806 55.7299C142.978 57.1675 144.629 58.1335 146.456 58.4499C147.361 58.5879 148.285 58.5105 149.154 58.2238C150.023 57.937 150.812 57.4492 151.456 56.7999C152.626 55.5399 153.366 52.7199 152.456 51.1199C151.546 49.5199 148.346 48.9699 146.616 48.9299C145.372 48.8716 144.139 49.1774 143.066 49.8099Z" fill="white"/>
</g>
<g style="mix-blend-mode:screen" opacity="0.4">
<path d="M141.975 51.3996C141.865 51.5948 141.807 51.8153 141.807 52.0396C141.807 52.2639 141.865 52.4843 141.975 52.6796C142.161 52.863 142.395 52.9896 142.65 53.0446C142.905 53.0995 143.17 53.0804 143.415 52.9896C144.029 52.8802 144.596 52.5914 145.045 52.1596C145.266 51.9408 145.424 51.6667 145.503 51.366C145.583 51.0652 145.58 50.7488 145.495 50.4496C144.675 48.2296 142.445 50.1996 141.975 51.3996Z" fill="white"/>
</g>
<g style="mix-blend-mode:screen" opacity="0.4">
<path d="M150.246 50.6999C150.365 50.649 150.461 50.5565 150.516 50.4399C150.54 50.3481 150.54 50.2517 150.516 50.1599C150.166 49.1599 147.946 47.8199 147.356 49.3399C146.766 50.8599 149.416 51.1299 150.246 50.6999Z" fill="white"/>
</g>
<path d="M140.835 92.3501C139.355 98.0301 137.495 104.1 136.905 105.02C136.495 105.65 126.745 105.97 114.905 106.13C107.705 106.23 99.715 106.27 92.555 106.28H89.095C80.045 106.28 72.925 106.28 71.485 106.28H60.435H56.795C50.245 106.28 42.335 106.28 34.715 106.21C20.055 106.08 6.51499 105.76 6.03499 105.02C4.96499 103.37 -0.165011 85.0801 0.034989 82.3101C0.034989 82.0001 0.465013 81.4701 1.18501 80.7901C2.08742 79.9525 3.03193 79.1615 4.01497 78.4201C7.12497 76.0101 11.655 72.9001 16.065 69.9801C18.915 68.0801 21.715 66.2701 24.065 64.7801C26.165 63.4301 27.875 62.3401 28.905 61.7001L29.965 61.0301L71.205 58.1201H71.475H71.745L112.975 61.0101C112.975 61.0101 116.195 63.0101 120.515 65.8001L124.945 68.6901C127.555 70.4001 130.285 72.2301 132.815 73.9801C135.985 76.1801 138.815 78.2501 140.685 79.8201C142.035 80.9701 142.865 81.8201 142.905 82.2901C142.975 83.5201 142.025 87.8001 140.835 92.3501Z" fill="#989DB3"/>
<g style="mix-blend-mode:multiply" opacity="0.15">
<path d="M140.835 92.35C139.355 98.03 137.495 104.1 136.905 105.02C136.495 105.65 126.745 105.97 114.905 106.13C107.705 106.23 99.715 106.27 92.555 106.28H89.095C80.045 106.28 72.925 106.28 71.485 106.28H60.435H56.795C50.245 106.28 42.335 106.28 34.715 106.21C20.055 106.08 6.51499 105.76 6.03499 105.02C4.96499 103.37 -0.165011 85.08 0.034989 82.31C0.034989 82 0.465013 81.47 1.18501 80.79C1.76501 81.94 2.18502 83.22 2.62502 84.01C4.35835 87.2834 6.22499 90.48 8.22499 93.6C9.64067 96.0768 11.5139 98.2622 13.745 100.04C17.575 102.75 22.565 103.04 27.255 103.19L59.585 104.35C72.405 104.82 85.465 105.26 97.825 101.84C100.655 101.07 103.475 100.08 106.395 100.05C108.369 100.12 110.331 100.381 112.255 100.83C118.755 102.07 125.745 102.7 131.785 99.99C135.426 98.2911 138.549 95.6543 140.835 92.35Z" fill="#3C3C3C"/>
</g>
<g style="mix-blend-mode:multiply" opacity="0.15">
<path d="M124.976 68.6896L120.546 65.7996C116.226 63.0196 113.006 61.0096 113.006 61.0096L71.7662 58.0996H71.4962H71.2262L29.9762 61.0096L28.9162 61.6796C27.9162 62.3196 26.1762 63.4096 24.0762 64.7596C21.7362 66.2496 18.9362 68.0596 16.0762 69.9596C17.6732 83.0434 23.6259 95.2094 32.9762 104.5C33.5562 105.08 34.1462 105.64 34.7362 106.19C42.3562 106.26 50.2662 106.27 56.8162 106.26H60.4562H71.5062C72.9462 106.26 80.0662 106.26 89.1162 106.26H92.5762C99.7362 106.26 107.726 106.26 114.926 106.11C115.496 105.59 116.056 105.05 116.606 104.5C124.963 96.1877 130.625 85.5533 132.856 73.9796C130.276 72.2296 127.546 70.3996 124.976 68.6896ZM62.0662 101.28C57.8762 105.77 49.7662 101.08 49.2462 100.77C42.8505 96.4573 37.6354 90.6131 34.0762 83.7696C34.0162 83.5996 30.7362 75.2596 34.3562 73.0196C37.9762 70.7796 58.7562 71.2196 63.2462 76.7096C67.7362 82.1996 66.3562 96.6296 62.0262 101.28H62.0662ZM99.9562 101.01C100.025 100.927 100.089 100.84 100.146 100.75C99.9662 100.86 91.5862 105.87 87.2962 101.28C83.0062 96.6896 81.6562 82.2096 86.1462 76.7096C90.6362 71.2096 111.366 70.7096 115.026 73.0196C118.686 75.3296 115.376 83.5996 115.306 83.7696L115.556 83.6896C111.908 90.7041 106.523 96.667 99.9162 101.01H99.9562Z" fill="#3C3C3C"/>
</g>
<g style="mix-blend-mode:multiply" opacity="0.15">
<path d="M136.906 104.999C135.906 106.579 75.9056 106.239 71.4556 106.219C67.0056 106.199 7.03565 106.579 6.00565 104.999C4.97565 103.419 -0.19435 85.0594 0.00564958 82.2894C0.00564958 81.6694 1.60565 80.2394 4.00565 78.3994C7.31565 84.8694 12.5956 93.2494 19.4156 97.8894C31.5756 106.159 116.646 103.229 127.976 97.8894C135.466 94.3494 139.086 85.4394 140.676 79.8194C142.026 80.9694 142.856 81.8194 142.896 82.2894C143.106 85.0594 137.976 103.349 136.906 104.999Z" fill="#3C3C3C"/>
</g>
<path d="M123.835 40.9496L120.975 77.3496L112.275 80.2597C112.275 80.2597 115.665 71.7596 111.995 69.4996C109.255 67.7996 96.9248 67.6397 88.9948 69.9797C86.3548 70.7597 84.2148 71.8197 83.0848 73.1997C82.2201 74.3243 81.5785 75.6039 81.1948 76.9696C79.1948 83.6096 80.6948 93.9697 84.1948 97.7597C88.4848 102.36 96.8648 97.3396 97.0448 97.2396C92.0448 104.24 73.8248 107.62 71.6848 107.98H71.5848H71.4848C69.3548 107.62 51.0848 104.28 46.1348 97.2396C46.3148 97.3396 54.6948 102.36 58.9748 97.7597C62.9148 93.5297 64.3548 81.2096 61.2048 74.8896C60.9134 74.2853 60.5509 73.7179 60.1248 73.1997C59.4479 72.4186 58.6173 71.7854 57.6848 71.3397C50.6848 67.6297 34.4448 67.5196 31.2448 69.4996C27.5848 71.7596 30.9748 80.2597 30.9748 80.2597C30.9748 80.2597 22.2748 77.2596 22.2748 77.3496C22.2748 77.4396 19.3848 40.9896 19.3848 40.9896L32.0348 36.1396C31.7548 36.6296 27.8648 49.3496 32.0348 52.5596C35.8848 55.5596 54.4548 43.7696 68.2148 41.3896C68.9848 41.2496 69.7448 41.1497 70.4848 41.0797C70.8132 41.0091 71.149 40.9789 71.4848 40.9896H71.6848C72.0206 40.9794 72.3563 41.0096 72.6848 41.0797C75.907 41.4606 79.0787 42.1881 82.1448 43.2496C94.4948 47.2496 107.925 55.0096 111.145 52.5596C115.325 49.3496 111.435 36.6296 111.145 36.1396L123.835 40.9496Z" fill="#484D66"/>
<g style="mix-blend-mode:multiply" opacity="0.15">
<path d="M91.9161 59.8094C91.9119 63.3959 90.8926 66.9079 88.9761 69.9394C86.3361 70.7194 84.1962 71.7794 83.0662 73.1594C82.2015 74.284 81.5599 75.5637 81.1762 76.9294C77.9796 78.4801 74.4135 79.1071 70.8797 78.7396C67.3459 78.3721 63.9851 77.0247 61.1762 74.8494C60.8848 74.245 60.5222 73.6777 60.0961 73.1594C59.4193 72.3783 58.5886 71.7451 57.6561 71.2994C55.7492 68.7912 54.496 65.8481 54.0093 62.7351C53.5226 59.6221 53.8177 56.4369 54.8681 53.4663C55.9185 50.4957 57.6911 47.833 60.0264 45.7178C62.3617 43.6027 65.1864 42.1015 68.2462 41.3494C69.0162 41.2094 69.7761 41.1094 70.5161 41.0394C70.8445 40.9688 71.1804 40.9386 71.5161 40.9494H71.7161C72.0519 40.9391 72.3876 40.9693 72.7161 41.0394C75.9383 41.4203 79.1101 42.1479 82.1762 43.2094C85.1307 44.8584 87.5912 47.2666 89.3035 50.1849C91.0158 53.1032 91.9178 56.4258 91.9161 59.8094Z" fill="#3C3C3C"/>
</g>
<path d="M84.5871 71.989C91.6868 64.8893 91.6868 53.3783 84.5871 46.2786C77.4873 39.1789 65.9764 39.1789 58.8767 46.2786C51.7769 53.3783 51.777 64.8893 58.8767 71.989C65.9764 79.0887 77.4874 79.0887 84.5871 71.989Z" fill="#CCCCCC"/>
<g style="mix-blend-mode:multiply" opacity="0.3">
<path d="M70.605 81.7997C70.605 82.2399 70.4302 82.6622 70.1188 82.9735C69.8075 83.2848 69.3853 83.4597 68.945 83.4597C68.6116 83.4582 68.2862 83.3576 68.0102 83.1706C67.7342 82.9836 67.52 82.7187 67.395 82.4097C67.3264 82.2276 67.2925 82.0343 67.2951 81.8397C67.2951 81.3994 67.4699 80.9772 67.7813 80.6659C68.0926 80.3546 68.5148 80.1797 68.955 80.1797C69.1074 80.1834 69.2587 80.207 69.405 80.2497C69.7631 80.3501 70.0767 80.5686 70.2951 80.8697C70.4914 81.1405 70.5996 81.4652 70.605 81.7997Z" fill="#363A4D"/>
</g>
<path d="M70.5063 81.7996C70.4996 82.1577 70.3697 82.5026 70.1387 82.7763C69.9077 83.05 69.5896 83.236 69.2377 83.3028C68.8858 83.3697 68.5217 83.3134 68.2064 83.1435C67.8911 82.9735 67.6439 82.7003 67.5063 82.3696C67.4425 82.1966 67.4086 82.0139 67.4063 81.8296C67.4062 81.6239 67.4469 81.4202 67.5259 81.2303C67.605 81.0403 67.7208 80.8679 67.8667 80.7229C68.0126 80.5779 68.1858 80.4632 68.3762 80.3854C68.5666 80.3076 68.7706 80.2682 68.9763 80.2696C69.1184 80.2691 69.2599 80.2894 69.3962 80.3296C69.7347 80.4203 70.0315 80.6252 70.2363 80.9096C70.4147 81.1719 70.5089 81.4823 70.5063 81.7996Z" fill="#04ABCD"/>
<g style="mix-blend-mode:multiply" opacity="0.15">
<path d="M70.5059 81.7999C70.4928 82.1556 70.3584 82.4961 70.1251 82.7649C69.8918 83.0337 69.5736 83.2147 69.2233 83.2778C68.873 83.3408 68.5116 83.2822 68.1992 83.1116C67.8868 82.941 67.6422 82.6687 67.5059 82.3399C67.649 82.5406 67.838 82.7043 68.0571 82.8174C68.2763 82.9304 68.5192 82.9896 68.7658 82.9899C68.972 82.9899 69.1762 82.9493 69.3666 82.8704C69.5571 82.7915 69.7302 82.6758 69.876 82.53C70.0218 82.3843 70.1374 82.2112 70.2163 82.0207C70.2952 81.8302 70.3358 81.6261 70.3358 81.4199C70.3335 81.2355 70.2997 81.0529 70.2358 80.8799C70.4202 81.1506 70.5147 81.4725 70.5059 81.7999Z" fill="#363A4D"/>
</g>
<g style="mix-blend-mode:screen" opacity="0.25">
<path d="M68.7649 80.5901C68.9399 80.6961 69.0664 80.8666 69.1169 81.0648C69.1674 81.2631 69.1379 81.4733 69.0349 81.6501C68.8249 82.0601 68.3749 82.4401 67.9449 82.2301C67.7592 82.111 67.6279 81.9236 67.5793 81.7084C67.5306 81.4932 67.5686 81.2675 67.6849 81.0801C67.7766 80.8828 67.936 80.7249 68.1341 80.635C68.3323 80.5451 68.556 80.5292 68.7649 80.5901Z" fill="white"/>
</g>
<g style="mix-blend-mode:screen" opacity="0.35">
<path d="M68.3261 80.6398C68.4061 80.7198 68.3261 80.8899 68.2361 81.0099C68.1461 81.1299 67.9061 81.2299 67.8061 81.1299C67.7061 81.0299 67.8061 80.8598 67.9461 80.7498C68.0861 80.6398 68.2561 80.5598 68.3261 80.6398Z" fill="white"/>
</g>
<g style="mix-blend-mode:multiply" opacity="0.15">
<path d="M70.5059 81.7995C70.4991 82.1576 70.3693 82.5025 70.1383 82.7763C69.9073 83.05 69.5892 83.2359 69.2373 83.3028C68.8854 83.3696 68.5212 83.3134 68.2059 83.1434C67.8906 82.9735 67.6435 82.7002 67.5059 82.3695C67.7803 82.5671 68.1004 82.6918 68.4362 82.732C68.7719 82.7722 69.1125 82.7266 69.4258 82.5995C69.6484 82.4596 69.8291 82.2622 69.9488 82.0281C70.0685 81.794 70.1227 81.5319 70.1058 81.2695C70.0693 81.0592 69.9856 80.8599 69.8608 80.6867C69.7361 80.5135 69.5737 80.3708 69.3858 80.2695C69.7243 80.3603 70.0211 80.5651 70.2258 80.8495C70.4199 81.1274 70.5182 81.4609 70.5059 81.7995Z" fill="#363A4D"/>
</g>
<g style="mix-blend-mode:multiply" opacity="0.3">
<path d="M76.345 81.7997C76.3428 82.1844 76.2071 82.5563 75.961 82.852C75.7149 83.1476 75.3738 83.3487 74.9959 83.4207C74.618 83.4927 74.2269 83.4313 73.8893 83.2469C73.5517 83.0625 73.2886 82.7666 73.145 82.4097C73.0764 82.2276 73.0425 82.0343 73.0451 81.8397C73.045 81.4012 73.2186 80.9804 73.5277 80.6694C73.8369 80.3584 74.2565 80.1823 74.695 80.1797C74.9574 80.1861 75.2149 80.2515 75.4486 80.3709C75.6823 80.4903 75.8862 80.6608 76.0451 80.8697C76.2378 81.1417 76.3425 81.4663 76.345 81.7997Z" fill="#363A4D"/>
</g>
<path d="M76.2561 81.7995C76.2493 82.1577 76.1195 82.5025 75.8885 82.7763C75.6575 83.05 75.3394 83.2359 74.9875 83.3028C74.6356 83.3696 74.2714 83.3134 73.9561 83.1434C73.6408 82.9735 73.3937 82.7002 73.2561 82.3695C73.1955 82.196 73.165 82.0134 73.166 81.8295C73.166 81.4158 73.3304 81.019 73.623 80.7264C73.9155 80.4339 74.3123 80.2695 74.726 80.2695C74.8715 80.2691 75.0163 80.2893 75.156 80.3295C75.4945 80.4203 75.7913 80.6252 75.9961 80.9095C76.1709 81.173 76.2616 81.4834 76.2561 81.7995Z" fill="#04ABCD"/>
<g style="mix-blend-mode:multiply" opacity="0.15">
<path d="M76.2559 81.7999C76.2333 82.15 76.0942 82.4825 75.8606 82.7442C75.627 83.006 75.3125 83.182 74.9672 83.2442C74.6219 83.3063 74.2658 83.251 73.9556 83.0871C73.6454 82.9232 73.3991 82.6602 73.2559 82.3399C73.4506 82.6079 73.7251 82.8074 74.0402 82.9098C74.3552 83.0123 74.6945 83.0125 75.0096 82.9104C75.3248 82.8083 75.5996 82.6092 75.7947 82.3415C75.9898 82.0737 76.0952 81.7512 76.0958 81.4199C76.0935 81.2355 76.0597 81.0529 75.9958 80.8799C76.1767 81.1518 76.2676 81.4736 76.2559 81.7999Z" fill="#363A4D"/>
</g>
<g style="mix-blend-mode:screen" opacity="0.25">
<path d="M74.5149 80.5902C74.6017 80.6426 74.6774 80.7116 74.7375 80.7933C74.7976 80.8749 74.841 80.9677 74.8652 81.0662C74.8893 81.1647 74.8938 81.267 74.8783 81.3672C74.8628 81.4674 74.8277 81.5636 74.7749 81.6502C74.5749 82.0602 74.1149 82.4402 73.6949 82.2302C73.5092 82.1111 73.3779 81.9237 73.3293 81.7085C73.2806 81.4933 73.3186 81.2676 73.4349 81.0802C73.525 80.8815 73.6841 80.7223 73.8828 80.6322C74.0815 80.542 74.3061 80.5271 74.5149 80.5902Z" fill="white"/>
</g>
<g style="mix-blend-mode:screen" opacity="0.35">
<path d="M74.0761 80.6398C74.1561 80.7198 74.0761 80.8899 73.9861 81.0099C73.8961 81.1299 73.6561 81.2299 73.5561 81.1299C73.4561 81.0299 73.5561 80.8598 73.6961 80.7498C73.8361 80.6398 73.9761 80.5598 74.0761 80.6398Z" fill="white"/>
</g>
<g style="mix-blend-mode:multiply" opacity="0.15">
<path d="M76.2559 81.7995C76.2491 82.1576 76.1193 82.5025 75.8883 82.7763C75.6573 83.05 75.3392 83.2359 74.9873 83.3028C74.6354 83.3696 74.2712 83.3134 73.9559 83.1434C73.6406 82.9735 73.3935 82.7002 73.2559 82.3695C73.5292 82.5653 73.8475 82.6891 74.1813 82.7293C74.5152 82.7695 74.8538 82.7248 75.1658 82.5995C75.39 82.4612 75.5719 82.2641 75.6918 82.0296C75.8117 81.7951 75.8649 81.5322 75.8458 81.2695C75.8097 81.0604 75.7272 80.862 75.6044 80.6889C75.4815 80.5159 75.3214 80.3726 75.1358 80.2695C75.4743 80.3603 75.7711 80.5651 75.9758 80.8495C76.1699 81.1274 76.2682 81.4609 76.2559 81.7995Z" fill="#363A4D"/>
</g>
<g style="mix-blend-mode:multiply" opacity="0.3">
<path d="M70.605 88.09C70.6064 88.4783 70.4716 88.8548 70.224 89.154C69.9764 89.4532 69.6318 89.6562 69.2501 89.7275C68.8683 89.7989 68.4736 89.7341 68.1347 89.5445C67.7958 89.355 67.534 89.0526 67.395 88.69C67.3264 88.5079 67.2925 88.3145 67.2951 88.12C67.2951 87.6797 67.4699 87.2575 67.7813 86.9462C68.0926 86.6349 68.5148 86.46 68.955 86.46C69.107 86.4602 69.2583 86.4804 69.405 86.52C69.7611 86.6246 70.0735 86.8422 70.2951 87.14C70.4929 87.4176 70.6011 87.7491 70.605 88.09Z" fill="#363A4D"/>
</g>
<path d="M70.5063 88.0896C70.4996 88.4477 70.3697 88.7926 70.1387 89.0663C69.9077 89.34 69.5896 89.526 69.2377 89.5928C68.8858 89.6597 68.5217 89.6034 68.2064 89.4335C67.8911 89.2635 67.6439 88.9903 67.5063 88.6596C67.4414 88.4903 67.4075 88.3108 67.4062 88.1296C67.4063 87.7132 67.5717 87.3138 67.8661 87.0194C68.1605 86.725 68.5599 86.5596 68.9763 86.5596C69.1184 86.5592 69.2599 86.5794 69.3962 86.6196C69.7341 86.7173 70.0297 86.9249 70.2363 87.2096C70.4139 87.4685 70.5081 87.7756 70.5063 88.0896Z" fill="#04ABCD"/>
<g style="mix-blend-mode:multiply" opacity="0.15">
<path d="M70.5059 88.0899C70.4907 88.4448 70.3548 88.7839 70.1208 89.0512C69.8867 89.3184 69.5684 89.4978 69.2186 89.5596C68.8688 89.6214 68.5084 89.5619 68.197 89.3911C67.8855 89.2202 67.6417 88.9482 67.5059 88.6199C67.6479 88.8219 67.8366 88.9865 68.056 89.0997C68.2754 89.2129 68.5189 89.2713 68.7658 89.2699C68.9715 89.2712 69.1755 89.2319 69.3659 89.1541C69.5563 89.0762 69.7294 88.9615 69.8754 88.8166C70.0213 88.6716 70.1371 88.4991 70.2161 88.3092C70.2951 88.1193 70.3358 87.9156 70.3358 87.7099C70.3335 87.5255 70.2997 87.3429 70.2358 87.1699C70.4214 87.44 70.516 87.7623 70.5059 88.0899Z" fill="#363A4D"/>
</g>
<g style="mix-blend-mode:screen" opacity="0.25">
<path d="M68.766 86.8695C68.9417 86.9773 69.0684 87.1496 69.1188 87.3495C69.1693 87.5495 69.1395 87.7612 69.036 87.9395C68.826 88.3495 68.376 88.7295 67.946 88.5195C67.7616 88.3968 67.6318 88.2077 67.5833 87.9916C67.5349 87.7756 67.5717 87.5491 67.686 87.3595C67.7809 87.1649 67.9406 87.0094 68.1378 86.92C68.3349 86.8306 68.5571 86.8127 68.766 86.8695Z" fill="white"/>
</g>
<g style="mix-blend-mode:screen" opacity="0.35">
<path d="M68.3261 86.9202C68.4061 87.0002 68.3261 87.1702 68.2361 87.3002C68.1461 87.4302 67.9061 87.5102 67.8061 87.4102C67.7061 87.3102 67.8061 87.1502 67.9461 87.0402C68.0861 86.9302 68.2561 86.8402 68.3261 86.9202Z" fill="white"/>
</g>
<g style="mix-blend-mode:multiply" opacity="0.15">
<path d="M70.5059 88.0898C70.4991 88.4479 70.3693 88.7928 70.1383 89.0665C69.9073 89.3403 69.5892 89.5262 69.2373 89.593C68.8854 89.6599 68.5212 89.6036 68.2059 89.4337C67.8906 89.2638 67.6435 88.9905 67.5059 88.6598C67.7803 88.8573 68.1004 88.9821 68.4362 89.0223C68.7719 89.0625 69.1125 89.0169 69.4258 88.8898C69.6477 88.7467 69.8277 88.5473 69.9471 88.3118C70.0666 88.0764 70.1214 87.8134 70.1058 87.5498C70.0693 87.3395 69.9856 87.1402 69.8608 86.967C69.7361 86.7938 69.5737 86.6511 69.3858 86.5498C69.7237 86.6475 70.0193 86.8551 70.2258 87.1398C70.4212 87.417 70.5197 87.751 70.5059 88.0898Z" fill="#363A4D"/>
</g>
<g style="mix-blend-mode:multiply" opacity="0.3">
<path d="M76.345 88.09C76.3406 88.4738 76.2032 88.8442 75.9563 89.1382C75.7094 89.4321 75.3684 89.6314 74.9911 89.7022C74.6138 89.7729 74.2237 89.7107 73.8871 89.5262C73.5505 89.3416 73.2883 89.0461 73.145 88.69C73.0764 88.5079 73.0425 88.3146 73.0451 88.12C73.0437 87.9025 73.0854 87.6868 73.1677 87.4855C73.2501 87.2842 73.3714 87.1011 73.5248 86.9468C73.6781 86.7925 73.8604 86.6701 74.0613 86.5865C74.2621 86.503 74.4775 86.46 74.695 86.46C74.8471 86.4589 74.9986 86.4791 75.145 86.52C75.5054 86.6213 75.822 86.8394 76.0451 87.14C76.24 87.4185 76.3447 87.7501 76.345 88.09Z" fill="#363A4D"/>
</g>
<path d="M76.2561 88.0896C76.2494 88.4477 76.1196 88.7926 75.8886 89.0663C75.6576 89.34 75.3395 89.526 74.9876 89.5928C74.6357 89.6597 74.2715 89.6034 73.9562 89.4335C73.6409 89.2635 73.3937 88.9903 73.2561 88.6596C73.1947 88.4897 73.1642 88.3102 73.1661 88.1296C73.1648 87.9239 73.2041 87.7199 73.2819 87.5295C73.3598 87.3391 73.4745 87.1659 73.6195 87.02C73.7645 86.8741 73.9369 86.7583 74.1268 86.6793C74.3167 86.6002 74.5204 86.5596 74.7261 86.5596C74.8715 86.5592 75.0163 86.5794 75.1561 86.6196C75.494 86.7173 75.7896 86.9249 75.9961 87.2096C76.1702 87.4697 76.2609 87.7766 76.2561 88.0896Z" fill="#04ABCD"/>
<g style="mix-blend-mode:multiply" opacity="0.15">
<path d="M76.2559 88.0899C76.2314 88.4393 76.0909 88.7704 75.8566 89.0307C75.6223 89.291 75.3076 89.4655 74.9628 89.5264C74.6179 89.5873 74.2626 89.5312 73.9533 89.367C73.644 89.2027 73.3985 88.9398 73.2559 88.6199C73.4501 88.8872 73.7237 89.0864 74.0378 89.1891C74.3518 89.2919 74.6903 89.2929 75.0049 89.1921C75.3196 89.0913 75.5945 88.8937 75.7903 88.6276C75.9862 88.3615 76.0931 88.0403 76.0958 87.7099C76.0935 87.5255 76.0597 87.3429 75.9958 87.1699C76.1779 87.4412 76.269 87.7634 76.2559 88.0899Z" fill="#363A4D"/>
</g>
<g style="mix-blend-mode:screen" opacity="0.25">
<path d="M74.516 86.8694C74.6921 86.9771 74.8183 87.1501 74.8671 87.3507C74.9158 87.5512 74.883 87.7629 74.776 87.9394C74.576 88.3494 74.116 88.7294 73.696 88.5194C73.5116 88.3967 73.3818 88.2076 73.3333 87.9916C73.2849 87.7755 73.3217 87.549 73.436 87.3594C73.5293 87.1635 73.6889 87.0068 73.8865 86.9172C74.0842 86.8275 74.3071 86.8106 74.516 86.8694Z" fill="white"/>
</g>
<g style="mix-blend-mode:screen" opacity="0.35">
<path d="M74.0761 86.9202C74.1561 87.0002 74.0761 87.1702 73.9861 87.3002C73.8961 87.4302 73.6561 87.5102 73.5561 87.4102C73.4561 87.3102 73.5561 87.1502 73.6961 87.0402C73.8361 86.9302 73.9761 86.8402 74.0761 86.9202Z" fill="white"/>
</g>
<g style="mix-blend-mode:multiply" opacity="0.15">
<path d="M76.2559 88.0898C76.2491 88.4479 76.1193 88.7928 75.8883 89.0665C75.6573 89.3403 75.3392 89.5262 74.9873 89.593C74.6354 89.6599 74.2712 89.6036 73.9559 89.4337C73.6406 89.2638 73.3935 88.9905 73.2559 88.6598C73.5292 88.8556 73.8475 88.9793 74.1813 89.0195C74.5152 89.0597 74.8538 89.0151 75.1658 88.8898C75.3892 88.7483 75.5703 88.5491 75.69 88.3133C75.8097 88.0774 75.8635 87.8137 75.8458 87.5498C75.8097 87.3407 75.7272 87.1423 75.6044 86.9692C75.4815 86.7962 75.3214 86.6528 75.1358 86.5498C75.4737 86.6475 75.7693 86.8551 75.9758 87.1398C76.1712 87.417 76.2697 87.751 76.2559 88.0898Z" fill="#363A4D"/>
</g>
<g style="mix-blend-mode:multiply" opacity="0.3">
<path d="M70.605 94.3503C70.6088 94.7395 70.4757 95.1176 70.2289 95.4187C69.9821 95.7197 69.6374 95.9244 69.255 95.9971C68.8726 96.0697 68.4769 96.0057 68.1369 95.8162C67.7969 95.6267 67.5343 95.3237 67.395 94.9603C67.3264 94.7782 67.2925 94.5848 67.2951 94.3903C67.295 94.1727 67.338 93.9574 67.4216 93.7565C67.5051 93.5557 67.6276 93.3733 67.7819 93.22C67.9361 93.0666 68.1192 92.9453 68.3206 92.863C68.5219 92.7806 68.7375 92.7389 68.955 92.7403C69.107 92.7405 69.2583 92.7607 69.405 92.8003C69.7631 92.9007 70.0767 93.1192 70.2951 93.4203C70.4914 93.6911 70.5996 94.0158 70.605 94.3503Z" fill="#363A4D"/>
</g>
<path d="M70.5063 94.3501C70.5018 94.7091 70.3735 95.0554 70.1433 95.3309C69.9131 95.6063 69.5949 95.7939 69.2425 95.862C68.89 95.9302 68.5249 95.8747 68.2086 95.7049C67.8923 95.5352 67.6443 95.2615 67.5063 94.9301C67.4425 94.7571 67.4086 94.5745 67.4063 94.3901C67.4062 94.1844 67.4469 93.9807 67.5259 93.7908C67.605 93.6009 67.7208 93.4285 67.8667 93.2835C68.0126 93.1385 68.1858 93.0238 68.3762 92.946C68.5666 92.8682 68.7706 92.8288 68.9763 92.8301C69.1184 92.8297 69.2599 92.8499 69.3962 92.8901C69.7347 92.9808 70.0315 93.1857 70.2363 93.4701C70.4127 93.7296 70.5068 94.0363 70.5063 94.3501Z" fill="#04ABCD"/>
<g style="mix-blend-mode:multiply" opacity="0.15">
<path d="M70.5059 94.3497C70.4928 94.7054 70.3584 95.0459 70.1251 95.3147C69.8918 95.5835 69.5736 95.7645 69.2233 95.8276C68.873 95.8906 68.5116 95.832 68.1992 95.6614C67.8868 95.4908 67.6422 95.2185 67.5059 94.8897C67.6985 95.1598 67.9723 95.3615 68.2874 95.4654C68.6025 95.5693 68.9426 95.57 69.2582 95.4674C69.5737 95.3648 69.8484 95.1643 70.0422 94.895C70.236 94.6256 70.3388 94.3015 70.3358 93.9697C70.3335 93.7853 70.2997 93.6027 70.2358 93.4297C70.4202 93.7004 70.5147 94.0223 70.5059 94.3497Z" fill="#363A4D"/>
</g>
<g style="mix-blend-mode:screen" opacity="0.25">
<path d="M68.7649 93.1594C68.9399 93.2654 69.0664 93.4359 69.1169 93.6342C69.1674 93.8325 69.1379 94.0427 69.0349 94.2194C68.8249 94.6294 68.3749 95.0094 67.9449 94.7994C67.7592 94.6803 67.6279 94.4929 67.5793 94.2777C67.5306 94.0626 67.5686 93.8369 67.6849 93.6494C67.7782 93.4535 67.9378 93.2969 68.1354 93.2072C68.3331 93.1175 68.556 93.1006 68.7649 93.1594Z" fill="white"/>
</g>
<g style="mix-blend-mode:screen" opacity="0.35">
<path d="M68.3261 93.21C68.4061 93.29 68.3261 93.46 68.2361 93.58C68.1461 93.7 67.9061 93.8 67.8061 93.7C67.7061 93.6 67.8061 93.44 67.9461 93.32C68.0861 93.2 68.2561 93.13 68.3261 93.21Z" fill="white"/>
</g>
<g style="mix-blend-mode:multiply" opacity="0.15">
<path d="M70.5059 94.3493C70.5013 94.7083 70.3731 95.0547 70.1429 95.3301C69.9127 95.6055 69.5945 95.7931 69.2421 95.8613C68.8896 95.9294 68.5245 95.8739 68.2082 95.7041C67.8919 95.5344 67.6439 95.2607 67.5059 94.9293C67.7812 95.1252 68.1017 95.2482 68.4375 95.2866C68.7733 95.3251 69.1133 95.2779 69.4258 95.1493C69.6484 95.0094 69.8291 94.812 69.9488 94.5779C70.0685 94.3438 70.1227 94.0817 70.1058 93.8193C70.0693 93.609 69.9856 93.4098 69.8608 93.2365C69.7361 93.0633 69.5737 92.9206 69.3858 92.8193C69.7243 92.9101 70.0211 93.115 70.2258 93.3993C70.4199 93.6772 70.5182 94.0107 70.5059 94.3493Z" fill="#363A4D"/>
</g>
<g style="mix-blend-mode:multiply" opacity="0.3">
<path d="M76.345 94.3502C76.3428 94.7349 76.2071 95.1069 75.961 95.4025C75.7149 95.6982 75.3738 95.8992 74.9959 95.9713C74.618 96.0433 74.2269 95.9819 73.8893 95.7975C73.5517 95.6131 73.2886 95.3171 73.145 94.9602C73.0764 94.7781 73.0425 94.5848 73.0451 94.3902C73.0451 93.9526 73.2189 93.533 73.5283 93.2235C73.8378 92.9141 74.2574 92.7402 74.695 92.7402C74.9577 92.7394 75.2168 92.8006 75.4514 92.9188C75.6859 93.0369 75.8894 93.2087 76.0451 93.4203C76.2378 93.6923 76.3425 94.0169 76.345 94.3502Z" fill="#363A4D"/>
</g>
<path d="M76.2561 94.3501C76.2515 94.709 76.1233 95.0554 75.8931 95.3308C75.6629 95.6063 75.3447 95.7939 74.9923 95.862C74.6398 95.9302 74.2747 95.8747 73.9584 95.7049C73.6421 95.5351 73.3941 95.2615 73.2561 94.9301C73.1955 94.7565 73.165 94.5739 73.166 94.3901C73.166 94.1852 73.2064 93.9824 73.2848 93.7931C73.3632 93.6038 73.4781 93.4319 73.623 93.287C73.7678 93.1421 73.9398 93.0272 74.1291 92.9488C74.3183 92.8704 74.5212 92.8301 74.726 92.8301C74.8715 92.8297 75.0163 92.8499 75.156 92.8901C75.4945 92.9808 75.7913 93.1857 75.9961 93.4701C76.169 93.7307 76.2596 94.0373 76.2561 94.3501Z" fill="#04ABCD"/>
<g style="mix-blend-mode:multiply" opacity="0.15">
<path d="M76.2559 94.3497C76.2333 94.6998 76.0942 95.0323 75.8606 95.294C75.627 95.5558 75.3125 95.7318 74.9672 95.794C74.6219 95.8561 74.2658 95.8009 73.9556 95.6369C73.6454 95.473 73.3991 95.21 73.2559 94.8897C73.4506 95.1576 73.7251 95.3572 74.0402 95.4596C74.3552 95.5621 74.6945 95.5623 75.0096 95.4602C75.3248 95.3581 75.5996 95.159 75.7947 94.8913C75.9898 94.6235 76.0952 94.301 76.0958 93.9697C76.0935 93.7853 76.0597 93.6027 75.9958 93.4297C76.1767 93.7016 76.2676 94.0234 76.2559 94.3497Z" fill="#363A4D"/>
</g>
<g style="mix-blend-mode:screen" opacity="0.25">
<path d="M74.5149 93.1594C74.6017 93.2118 74.6774 93.2808 74.7375 93.3625C74.7976 93.4442 74.841 93.5369 74.8652 93.6354C74.8893 93.7339 74.8938 93.8362 74.8783 93.9364C74.8628 94.0367 74.8277 94.1328 74.7749 94.2194C74.5749 94.6294 74.1149 95.0094 73.6949 94.7994C73.5092 94.6803 73.3779 94.4929 73.3293 94.2777C73.2806 94.0626 73.3186 93.8369 73.4349 93.6495C73.5266 93.4522 73.686 93.2942 73.8841 93.2044C74.0823 93.1145 74.306 93.0985 74.5149 93.1594Z" fill="white"/>
</g>
<g style="mix-blend-mode:screen" opacity="0.35">
<path d="M74.0761 93.21C74.1561 93.29 74.0761 93.46 73.9861 93.58C73.8961 93.7 73.6561 93.8 73.5561 93.7C73.4561 93.6 73.5561 93.44 73.6961 93.32C73.8361 93.2 73.9761 93.13 74.0761 93.21Z" fill="white"/>
</g>
<g style="mix-blend-mode:multiply" opacity="0.15">
<path d="M76.2559 94.3493C76.2513 94.7083 76.1231 95.0547 75.8929 95.3301C75.6627 95.6055 75.3445 95.7931 74.9921 95.8613C74.6396 95.9294 74.2745 95.8739 73.9582 95.7041C73.6419 95.5344 73.3939 95.2607 73.2559 94.9293C73.5301 95.1235 73.8489 95.2455 74.1827 95.2839C74.5165 95.3224 74.8546 95.2761 75.1658 95.1493C75.39 95.011 75.5719 94.8139 75.6918 94.5794C75.8117 94.3449 75.8649 94.082 75.8458 93.8193C75.8097 93.6102 75.7272 93.4118 75.6044 93.2387C75.4815 93.0657 75.3214 92.9224 75.1358 92.8193C75.4743 92.9101 75.7711 93.115 75.9758 93.3993C76.1699 93.6772 76.2682 94.0107 76.2559 94.3493Z" fill="#363A4D"/>
</g>
<g style="mix-blend-mode:multiply" opacity="0.3">
<path d="M93.5062 49.5695V50.4295C93.5118 50.5154 93.4835 50.6002 93.4275 50.6656C93.3714 50.731 93.292 50.7718 93.2062 50.7795H90.2062C90.1404 50.7745 90.0777 50.75 90.026 50.709C89.9743 50.668 89.936 50.6124 89.9162 50.5495C89.9107 50.513 89.9107 50.476 89.9162 50.4395V49.5795C89.9107 49.4935 89.9389 49.4088 89.995 49.3434C90.051 49.278 90.1304 49.2371 90.2162 49.2295H93.2162H93.2962C93.3636 49.2554 93.4206 49.3027 93.4585 49.3641C93.4964 49.4255 93.5132 49.4977 93.5062 49.5695Z" fill="#3C3C3C"/>
</g>
<path d="M93.336 49.6594V50.3494C93.336 50.4236 93.3065 50.4948 93.254 50.5474C93.2015 50.5999 93.1303 50.6294 93.056 50.6294H90.356C90.2992 50.6305 90.2436 50.6137 90.1969 50.5814C90.1502 50.5491 90.1149 50.5029 90.096 50.4494C90.0904 50.4163 90.0904 50.3825 90.096 50.3494V49.6794C90.096 49.6431 90.1033 49.6071 90.1175 49.5737C90.1317 49.5403 90.1524 49.51 90.1786 49.4848C90.2047 49.4596 90.2357 49.4399 90.2696 49.427C90.3035 49.414 90.3397 49.408 90.376 49.4094H93.156C93.2072 49.4289 93.2515 49.463 93.2835 49.5074C93.3155 49.5518 93.3337 49.6047 93.336 49.6594Z" fill="#04ABCD"/>
<g style="mix-blend-mode:multiply" opacity="0.15">
<path d="M93.3357 49.6599V50.3499C93.3357 50.4242 93.3062 50.4954 93.2537 50.5479C93.2012 50.6004 93.13 50.6299 93.0557 50.6299H90.3557C90.299 50.6311 90.2433 50.6143 90.1966 50.582C90.1499 50.5497 90.1146 50.5034 90.0957 50.4499C91.0971 50.5208 92.1032 50.4806 93.0957 50.3299C93.2357 50.1799 93.1757 49.6899 93.0957 49.4199C93.1565 49.4281 93.2129 49.4561 93.2562 49.4994C93.2996 49.5428 93.3275 49.5992 93.3357 49.6599Z" fill="#A80000"/>
</g>
<g style="mix-blend-mode:multiply" opacity="0.15">
<path d="M93.3357 49.6602V50.3502C93.3357 50.4244 93.3062 50.4956 93.2537 50.5481C93.2012 50.6007 93.13 50.6302 93.0557 50.6302H90.3557C90.299 50.6313 90.2433 50.6145 90.1966 50.5822C90.1499 50.5499 90.1146 50.5037 90.0957 50.4502C91.0635 50.4305 92.0289 50.347 92.9857 50.2002C93.0757 50.1102 92.9857 49.6602 92.9857 49.4102H93.1157C93.1743 49.4228 93.2273 49.4539 93.2669 49.4989C93.3065 49.5439 93.3306 49.6004 93.3357 49.6602Z" fill="#A80000"/>
</g>
<g style="mix-blend-mode:screen" opacity="0.3">
<path d="M90.3466 49.6094C90.2837 49.6986 90.25 49.8052 90.25 49.9144C90.25 50.0235 90.2837 50.1301 90.3466 50.2194C91.1013 50.274 91.8601 50.2133 92.5966 50.0394C92.6253 50.0114 92.6481 49.978 92.6637 49.941C92.6793 49.9041 92.6873 49.8644 92.6873 49.8243C92.6873 49.7843 92.6793 49.7446 92.6637 49.7077C92.6481 49.6707 92.6253 49.6373 92.5966 49.6094C91.8504 49.5013 91.0927 49.5013 90.3466 49.6094Z" fill="white"/>
</g>
<g style="mix-blend-mode:screen" opacity="0.3">
<path d="M90.3359 49.7497C90.3359 49.8497 90.576 49.8497 90.676 49.8497C90.776 49.8497 91.0159 49.8497 91.0159 49.7197C91.0159 49.5897 90.816 49.6097 90.676 49.6197C90.536 49.6297 90.3359 49.6497 90.3359 49.7497Z" fill="white"/>
</g>
<g style="mix-blend-mode:multiply" opacity="0.3">
<path d="M52.975 49.5695V50.4295C52.9806 50.5154 52.9523 50.6002 52.8963 50.6656C52.8402 50.731 52.7608 50.7718 52.675 50.7795H49.675C49.6092 50.7745 49.5464 50.75 49.4947 50.709C49.443 50.668 49.4048 50.6124 49.385 50.5495C49.3795 50.513 49.3795 50.476 49.385 50.4395V49.5795C49.3794 49.4935 49.4077 49.4088 49.4638 49.3434C49.5198 49.278 49.5992 49.2371 49.685 49.2295H52.685H52.765C52.8323 49.2554 52.8894 49.3027 52.9273 49.3641C52.9653 49.4255 52.982 49.4977 52.975 49.5695Z" fill="#3C3C3C"/>
</g>
<path d="M52.8457 49.6594V50.3494C52.8457 50.4236 52.8162 50.4948 52.7637 50.5474C52.7112 50.5999 52.64 50.6294 52.5658 50.6294H49.8658C49.809 50.6305 49.7533 50.6137 49.7066 50.5814C49.66 50.5491 49.6247 50.5029 49.6058 50.4494C49.6002 50.4163 49.6002 50.3825 49.6058 50.3494V49.6794C49.6057 49.6431 49.6131 49.6071 49.6272 49.5737C49.6414 49.5403 49.6622 49.51 49.6883 49.4848C49.7145 49.4596 49.7454 49.4399 49.7793 49.427C49.8133 49.414 49.8494 49.408 49.8857 49.4094H52.6658C52.7169 49.4289 52.7612 49.463 52.7932 49.5074C52.8252 49.5518 52.8435 49.6047 52.8457 49.6594Z" fill="#04ABCD"/>
<g style="mix-blend-mode:multiply" opacity="0.15">
<path d="M52.8455 49.6599V50.3499C52.8455 50.4242 52.8159 50.4954 52.7634 50.5479C52.7109 50.6004 52.6398 50.6299 52.5655 50.6299H49.8655C49.8087 50.6311 49.753 50.6143 49.7064 50.582C49.6597 50.5497 49.6244 50.5034 49.6055 50.4499C50.6068 50.5208 51.613 50.4806 52.6055 50.3299C52.7455 50.1799 52.6955 49.6899 52.6055 49.4199C52.6662 49.4281 52.7226 49.4561 52.766 49.4994C52.8093 49.5428 52.8373 49.5992 52.8455 49.6599Z" fill="#A80000"/>
</g>
<g style="mix-blend-mode:multiply" opacity="0.15">
<path d="M52.8455 49.6602V50.3502C52.8455 50.4244 52.8159 50.4956 52.7634 50.5481C52.7109 50.6007 52.6398 50.6302 52.5655 50.6302H49.8655C49.8087 50.6313 49.753 50.6145 49.7064 50.5822C49.6597 50.5499 49.6244 50.5037 49.6055 50.4502C50.5733 50.4305 51.5387 50.347 52.4955 50.2002C52.5855 50.1102 52.5455 49.6602 52.4955 49.4102H52.6255C52.6841 49.4228 52.7371 49.4539 52.7767 49.4989C52.8163 49.5439 52.8404 49.6004 52.8455 49.6602Z" fill="#A80000"/>
</g>
<g style="mix-blend-mode:screen" opacity="0.3">
<path d="M49.8563 49.6094C49.7935 49.6986 49.7598 49.8052 49.7598 49.9144C49.7598 50.0235 49.7935 50.1301 49.8563 50.2194C50.6111 50.274 51.3698 50.2133 52.1063 50.0394C52.1351 50.0114 52.1579 49.978 52.1735 49.941C52.1891 49.9041 52.1971 49.8644 52.1971 49.8243C52.1971 49.7843 52.1891 49.7446 52.1735 49.7077C52.1579 49.6707 52.1351 49.6373 52.1063 49.6094C51.3602 49.5013 50.6024 49.5013 49.8563 49.6094Z" fill="white"/>
</g>
<g style="mix-blend-mode:screen" opacity="0.3">
<path d="M49.8457 49.7497C49.8457 49.8497 50.0857 49.8497 50.1857 49.8497C50.2857 49.8497 50.5257 49.8497 50.5257 49.7197C50.5257 49.5897 50.3257 49.6097 50.1857 49.6197C50.0457 49.6297 49.8457 49.6497 49.8457 49.7497Z" fill="white"/>
</g>
<path d="M71.7263 118.26C58.0462 118.261 44.7892 113.518 34.214 104.84C23.6388 96.1615 16.3998 84.085 13.7305 70.6679C11.0611 57.2508 13.1265 43.3232 19.5748 31.2583C26.0231 19.1933 36.4553 9.7374 49.0939 4.50182C61.7324 -0.733763 75.7953 -1.42512 88.8865 2.54555C101.978 6.51622 113.287 14.9032 120.888 26.2776C128.488 37.6519 131.91 51.3097 130.569 64.924C129.229 78.5382 123.209 91.2665 113.536 100.94C108.058 106.448 101.543 110.814 94.366 113.787C87.1893 116.76 79.4943 118.281 71.7263 118.26ZM71.7263 13.26C62.6536 13.258 53.7841 15.9466 46.2395 20.9856C38.695 26.0247 32.8141 33.1879 29.3408 41.5694C25.8675 49.9509 24.9577 59.1741 26.7265 68.0727C28.4953 76.9712 32.8631 85.1454 39.2778 91.5615C45.6924 97.9775 53.8657 102.347 62.7638 104.118C71.662 105.889 80.8855 104.981 89.2677 101.509C97.6499 98.0378 104.814 92.1586 109.855 84.6151C114.896 77.0716 117.586 68.2027 117.586 59.13C117.57 46.9711 112.734 35.3147 104.137 26.7161C95.5406 18.1175 83.8852 13.2785 71.7263 13.26Z" fill="#484D66"/>
<g style="mix-blend-mode:multiply" opacity="0.15">
<g style="mix-blend-mode:multiply" opacity="0.15">
<path d="M25.8567 59.1298C25.8523 49.1292 29.117 39.4014 35.1534 31.4281C41.1898 23.4549 49.667 17.6733 59.2936 14.9643C68.9203 12.2552 79.1686 12.7672 88.4774 16.4221C97.7861 20.0771 105.645 26.6747 110.857 35.2098C108.249 29.5332 104.508 24.4492 99.8654 20.2699C95.2223 16.0905 89.7743 12.9038 83.8555 10.9052C77.9368 8.90672 71.6722 8.13851 65.4459 8.64774C59.2197 9.15697 53.1631 10.9329 47.6478 13.8666C42.1324 16.8003 37.2746 20.8299 33.3723 25.7082C29.47 30.5865 26.6056 36.2106 24.9547 42.2355C23.3037 48.2605 22.9011 54.5592 23.7716 60.7453C24.6421 66.9314 26.7672 72.8744 30.0167 78.2098C27.2703 72.2242 25.8512 65.7154 25.8567 59.1298Z" fill="#3C3C3C"/>
</g>
<g style="mix-blend-mode:multiply" opacity="0.15">
<path d="M122.606 28.96C128.562 41.5554 129.881 55.8492 126.33 69.3219C122.779 82.7946 114.587 94.5814 103.196 102.605C91.8051 110.628 77.9478 114.373 64.0662 113.179C50.1846 111.986 37.1699 105.93 27.3161 96.08C23.8233 92.5898 20.7767 88.6799 18.2461 84.44C21.6679 91.6732 26.5215 98.1372 32.5133 103.441C38.5051 108.744 45.5105 112.777 53.1057 115.295C60.7009 117.814 68.728 118.765 76.7015 118.092C84.6749 117.418 92.4289 115.135 99.4944 111.379C106.56 107.622 112.79 102.472 117.807 96.2389C122.825 90.0057 126.526 82.8195 128.687 75.1149C130.847 67.4102 131.422 59.3474 130.377 51.4142C129.332 43.4809 126.688 35.8421 122.606 28.96Z" fill="#3C3C3C"/>
</g>
</g>
<path d="M79.0363 66.4382C83.0704 62.4041 83.0704 55.8635 79.0363 51.8294C75.0022 47.7952 68.4616 47.7952 64.4275 51.8294C60.3934 55.8635 60.3933 62.4041 64.4275 66.4382C68.4616 70.4723 75.0022 70.4723 79.0363 66.4382Z" fill="#04ABCD"/>
<g style="mix-blend-mode:multiply" opacity="0.15">
<path d="M63.486 61.5294C63.4818 59.5578 64.0419 57.6262 65.1001 55.9627C66.1584 54.2992 67.6706 52.9733 69.4581 52.1416C71.2457 51.3098 73.2339 51.007 75.188 51.2689C77.1421 51.5308 78.9805 52.3464 80.486 53.6194C79.6893 52.3609 78.6299 51.2895 77.3804 50.4788C76.1309 49.668 74.7208 49.1371 73.2469 48.9224C71.773 48.7076 70.27 48.8142 68.8412 49.2347C67.4123 49.6553 66.0912 50.3798 64.9686 51.3588C63.846 52.3377 62.9484 53.5478 62.3373 54.9061C61.7261 56.2645 61.416 57.7389 61.4281 59.2284C61.4402 60.7178 61.7742 62.187 62.4073 63.5352C63.0404 64.8835 63.9576 66.0789 65.096 67.0394C64.0505 65.3913 63.4924 63.4811 63.486 61.5294Z" fill="#363A4D"/>
</g>
<g style="mix-blend-mode:screen" opacity="0.4">
<g style="mix-blend-mode:screen" opacity="0.4">
<path d="M80.4647 53.6193C79.6148 52.4142 78.5297 51.3937 77.2747 50.6193C76.0285 49.8538 74.6348 49.3597 73.1847 49.1693C72.4636 49.0894 71.7358 49.0894 71.0147 49.1693C70.2958 49.2271 69.5852 49.3612 68.8947 49.5693C67.5052 49.9742 66.2239 50.6849 65.1447 51.6493C64.0524 52.5992 63.1752 53.771 62.5716 55.0868C61.9681 56.4025 61.6521 57.8318 61.6447 59.2793C61.6374 60.7502 61.9389 62.2063 62.5297 63.5534C63.1205 64.9004 63.9876 66.1084 65.0747 67.0993C63.2856 65.678 62.0199 63.7021 61.4768 61.4827C60.9337 59.2632 61.144 56.9261 62.0747 54.8393C62.6993 53.4383 63.6205 52.1896 64.7747 51.1793C65.9278 50.1621 67.2948 49.4171 68.7747 48.9993C69.5124 48.7928 70.27 48.6654 71.0347 48.6193C71.7931 48.5708 72.5546 48.6077 73.3047 48.7293C74.8049 48.9676 76.2322 49.5408 77.4804 50.4064C78.7286 51.272 79.7657 52.4078 80.5147 53.7293L80.4647 53.6193Z" fill="white"/>
</g>
</g>
<g style="mix-blend-mode:screen" opacity="0.8">
<g style="mix-blend-mode:screen" opacity="0.8">
<path d="M86.2061 49.2195C85.5168 48.1606 84.7045 47.1872 83.7861 46.3195C82.8743 45.4643 81.8678 44.7161 80.7861 44.0894C79.6989 43.4715 78.5534 42.9623 77.3661 42.5695C76.1734 42.1949 74.9479 41.9338 73.7061 41.7895C71.2291 41.4875 68.7161 41.7193 66.3361 42.4695C63.9688 43.2456 61.801 44.5327 59.9861 46.2394C58.171 47.9438 56.7364 50.0122 55.7761 52.3094C54.3107 55.7915 53.9527 59.6403 54.7506 63.3329C55.5485 67.0256 57.4638 70.3831 60.2361 72.9495C58.2752 71.3096 56.6952 69.2621 55.6061 66.9495C54.5171 64.6268 53.921 62.1037 53.8556 59.5392C53.7902 56.9748 54.2569 54.4246 55.2261 52.0494C56.2088 49.6675 57.6845 47.5204 59.5561 45.7495C61.4352 43.9884 63.6897 42.6772 66.1497 41.915C68.6096 41.1528 71.2106 40.9594 73.7562 41.3494C76.2943 41.68 78.736 42.5347 80.9261 43.8595C82.0161 44.5322 83.0231 45.3311 83.9261 46.2394C84.8056 47.1354 85.5713 48.1363 86.2061 49.2195Z" fill="white"/>
</g>
</g>
<g style="mix-blend-mode:multiply" opacity="0.25">
<path d="M73.1057 44.09C73.1057 44.3629 73.0247 44.6297 72.8731 44.8567C72.7214 45.0836 72.5059 45.2605 72.2538 45.365C72.0016 45.4694 71.7242 45.4967 71.4565 45.4435C71.1888 45.3902 70.9429 45.2588 70.7499 45.0658C70.5569 44.8728 70.4255 44.6269 70.3722 44.3592C70.319 44.0915 70.3463 43.8141 70.4507 43.5619C70.5552 43.3097 70.7321 43.0942 70.959 42.9426C71.186 42.7909 71.4527 42.71 71.7257 42.71C71.9073 42.7087 72.0873 42.7435 72.2553 42.8123C72.4234 42.8812 72.576 42.9828 72.7044 43.1112C72.8329 43.2396 72.9345 43.3923 73.0033 43.5603C73.0722 43.7284 73.107 43.9084 73.1057 44.09Z" fill="#363A4D"/>
</g>
<g style="mix-blend-mode:multiply" opacity="0.15">
<path d="M70.6255 44.4096C70.626 44.1479 70.701 43.8918 70.8415 43.6711C70.9821 43.4505 71.1825 43.2743 71.4194 43.1632C71.6563 43.0521 71.9199 43.0106 72.1795 43.0436C72.4391 43.0766 72.6839 43.1827 72.8854 43.3496C72.7864 43.166 72.647 43.0073 72.4778 42.8854C72.3086 42.7635 72.114 42.6815 71.9085 42.6456C71.703 42.6097 71.4921 42.6208 71.2915 42.6782C71.091 42.7355 70.9061 42.8376 70.7507 42.9767C70.5953 43.1158 70.4734 43.2883 70.3943 43.4813C70.3151 43.6742 70.2807 43.8826 70.2937 44.0908C70.3067 44.299 70.3667 44.5015 70.4692 44.6831C70.5717 44.8648 70.7139 45.0208 70.8854 45.1396C70.7308 44.9261 70.6406 44.6727 70.6255 44.4096Z" fill="#363A4D"/>
</g>
<g style="mix-blend-mode:screen" opacity="0.8">
<g style="mix-blend-mode:screen" opacity="0.8">
<path d="M72.8859 43.35C72.7689 43.188 72.6196 43.052 72.4476 42.9505C72.2755 42.849 72.0843 42.7841 71.8859 42.76C71.696 42.7373 71.5034 42.755 71.3207 42.8119C71.1381 42.8687 70.9695 42.9635 70.8259 43.09C70.6815 43.2141 70.5649 43.3673 70.4839 43.5397C70.4029 43.712 70.3593 43.8996 70.3559 44.09C70.3592 44.2785 70.4008 44.4643 70.4781 44.6362C70.5555 44.8081 70.6671 44.9625 70.806 45.09C70.6505 44.9716 70.5226 44.8208 70.4311 44.6482C70.3396 44.4755 70.2866 44.2851 70.2759 44.09C70.2702 43.8841 70.3103 43.6795 70.3933 43.4909C70.4763 43.3024 70.6002 43.1347 70.756 43C70.9116 42.8671 71.0938 42.769 71.2903 42.7121C71.4869 42.6552 71.6934 42.6408 71.8959 42.67C72.096 42.7088 72.2863 42.787 72.4559 42.9C72.6338 43.0126 72.7815 43.1671 72.8859 43.35Z" fill="white"/>
</g>
</g>
<g style="mix-blend-mode:multiply" opacity="0.25">
<path d="M73.1057 72.7198C73.1057 72.9928 73.0247 73.2596 72.8731 73.4865C72.7214 73.7135 72.5059 73.8903 72.2538 73.9948C72.0016 74.0992 71.7242 74.1266 71.4565 74.0733C71.1888 74.0201 70.9429 73.8886 70.7499 73.6956C70.5569 73.5027 70.4255 73.2568 70.3722 72.9891C70.319 72.7214 70.3463 72.4439 70.4507 72.1917C70.5552 71.9396 70.7321 71.724 70.959 71.5724C71.186 71.4208 71.4527 71.3398 71.7257 71.3398C72.0917 71.3398 72.4427 71.4852 72.7015 71.744C72.9603 72.0028 73.1057 72.3538 73.1057 72.7198Z" fill="#363A4D"/>
</g>
<g style="mix-blend-mode:multiply" opacity="0.15">
<path d="M70.6255 73.0395C70.626 72.7778 70.701 72.5217 70.8415 72.301C70.9821 72.0803 71.1825 71.9042 71.4194 71.7931C71.6563 71.682 71.9199 71.6405 72.1795 71.6735C72.4391 71.7065 72.6839 71.8126 72.8854 71.9795C72.7864 71.7959 72.647 71.6372 72.4778 71.5153C72.3086 71.3933 72.114 71.3114 71.9085 71.2755C71.703 71.2396 71.4921 71.2507 71.2915 71.3081C71.091 71.3654 70.9061 71.4675 70.7507 71.6066C70.5953 71.7457 70.4734 71.9182 70.3943 72.1112C70.3151 72.3041 70.2807 72.5125 70.2937 72.7207C70.3067 72.9289 70.3667 73.1314 70.4692 73.313C70.5717 73.4947 70.7139 73.6507 70.8854 73.7695C70.7308 73.5559 70.6406 73.3026 70.6255 73.0395Z" fill="#363A4D"/>
</g>
<g style="mix-blend-mode:screen" opacity="0.8">
<g style="mix-blend-mode:screen" opacity="0.8">
<path d="M72.8855 71.9795C72.7697 71.8172 72.6206 71.6815 72.4481 71.5814C72.2757 71.4814 72.0838 71.4194 71.8855 71.3995C71.6961 71.3729 71.5034 71.3877 71.3203 71.443C71.1373 71.4982 70.9684 71.5926 70.8255 71.7195C70.6815 71.844 70.5653 71.9973 70.4843 72.1696C70.4034 72.3418 70.3595 72.5292 70.3555 72.7195C70.3588 72.908 70.4003 73.0938 70.4777 73.2657C70.555 73.4376 70.6666 73.592 70.8055 73.7195C70.6496 73.6015 70.5213 73.4509 70.4297 73.2782C70.3381 73.1054 70.2855 72.9147 70.2755 72.7195C70.2732 72.5093 70.3186 72.3014 70.4083 72.1113C70.498 71.9213 70.6295 71.754 70.7932 71.6222C70.9568 71.4903 71.1483 71.3972 71.353 71.35C71.5578 71.3028 71.7706 71.3026 71.9755 71.3495C72.1761 71.3804 72.3674 71.4556 72.5355 71.5695C72.6797 71.68 72.799 71.8197 72.8855 71.9795Z" fill="white"/>
</g>
</g>
<g style="mix-blend-mode:multiply" opacity="0.25">
<path d="M86.0362 59.7795C85.7633 59.7795 85.4965 59.6986 85.2696 59.547C85.0426 59.3953 84.8657 59.1798 84.7613 58.9276C84.6568 58.6755 84.6295 58.398 84.6828 58.1303C84.736 57.8626 84.8674 57.6167 85.0604 57.4237C85.2534 57.2307 85.4993 57.0993 85.767 57.046C86.0347 56.9928 86.3121 57.0201 86.5643 57.1246C86.8165 57.229 87.0321 57.4059 87.1837 57.6328C87.3353 57.8598 87.4162 58.1266 87.4162 58.3995C87.4176 58.5811 87.3828 58.7612 87.3139 58.9292C87.245 59.0972 87.1434 59.2499 87.015 59.3783C86.8866 59.5067 86.7339 59.6083 86.5659 59.6772C86.3979 59.7461 86.2178 59.7809 86.0362 59.7795Z" fill="#363A4D"/>
</g>
<g style="mix-blend-mode:multiply" opacity="0.15">
<path d="M85.7163 57.3496C85.9798 57.3485 86.238 57.423 86.4606 57.564C86.6831 57.7051 86.8606 57.9069 86.972 58.1457C87.0835 58.3844 87.1243 58.6501 87.0897 58.9112C87.055 59.1724 86.9462 59.4182 86.7763 59.6196C86.9712 59.4925 87.1317 59.3192 87.2434 59.115C87.3551 58.9109 87.4145 58.6823 87.4163 58.4496C87.4132 58.1686 87.3244 57.8953 87.1617 57.6662C86.9991 57.4371 86.7705 57.2631 86.5063 57.1674C86.2421 57.0718 85.955 57.059 85.6834 57.1309C85.4118 57.2027 85.1686 57.3558 84.9863 57.5696C85.2025 57.4255 85.4565 57.3489 85.7163 57.3496Z" fill="#363A4D"/>
</g>
<g style="mix-blend-mode:screen" opacity="0.8">
<g style="mix-blend-mode:screen" opacity="0.8">
<path d="M86.7751 59.5695C86.9371 59.4525 87.0731 59.3032 87.1746 59.1311C87.2762 58.9591 87.341 58.7679 87.3652 58.5695C87.3874 58.378 87.3695 58.184 87.3127 57.9998C87.2559 57.8156 87.1613 57.6452 87.0352 57.4995C86.9105 57.3564 86.757 57.2414 86.5846 57.1621C86.4122 57.0828 86.2249 57.041 86.0352 57.0395C85.8468 57.0434 85.6611 57.0852 85.4893 57.1625C85.3174 57.2399 85.163 57.3511 85.0352 57.4895C85.1521 57.3325 85.3025 57.2036 85.4755 57.1119C85.6484 57.0202 85.8396 56.9682 86.0352 56.9595C86.2401 56.9539 86.4438 56.993 86.632 57.0742C86.8203 57.1554 86.9886 57.2766 87.1252 57.4295C87.2583 57.587 87.3565 57.7709 87.4134 57.9692C87.4703 58.1674 87.4845 58.3754 87.4551 58.5795C87.4143 58.779 87.3363 58.969 87.2252 59.1395C87.1062 59.3122 86.953 59.4585 86.7751 59.5695Z" fill="white"/>
</g>
</g>
<g style="mix-blend-mode:multiply" opacity="0.25">
<path d="M57.4054 59.7795C57.1324 59.7795 56.8656 59.6986 56.6387 59.547C56.4118 59.3953 56.2349 59.1798 56.1304 58.9276C56.026 58.6755 55.9987 58.398 56.0519 58.1303C56.1052 57.8626 56.2365 57.6167 56.4295 57.4237C56.6225 57.2307 56.8685 57.0993 57.1361 57.046C57.4038 56.9928 57.6813 57.0201 57.9335 57.1246C58.1857 57.229 58.4012 57.4059 58.5528 57.6328C58.7045 57.8598 58.7854 58.1266 58.7854 58.3995C58.7854 58.7655 58.64 59.1165 58.3812 59.3753C58.1224 59.6341 57.7714 59.7795 57.4054 59.7795Z" fill="#363A4D"/>
</g>
<g style="mix-blend-mode:multiply" opacity="0.15">
<path d="M57.0854 57.3496C57.3489 57.3485 57.6072 57.423 57.8297 57.564C58.0522 57.7051 58.2297 57.9069 58.3412 58.1457C58.4527 58.3844 58.4935 58.6501 58.4588 58.9112C58.4241 59.1724 58.3154 59.4182 58.1454 59.6196C58.3404 59.4925 58.5009 59.3192 58.6125 59.115C58.7242 58.9109 58.7836 58.6823 58.7855 58.4496C58.7823 58.1686 58.6935 57.8953 58.5309 57.6662C58.3683 57.4371 58.1396 57.2631 57.8754 57.1674C57.6113 57.0718 57.3242 57.059 57.0526 57.1309C56.7809 57.2027 56.5378 57.3558 56.3555 57.5696C56.5716 57.4255 56.8257 57.3489 57.0854 57.3496Z" fill="#363A4D"/>
</g>
<g style="mix-blend-mode:screen" opacity="0.8">
<g style="mix-blend-mode:screen" opacity="0.8">
<path d="M58.1465 59.5699C58.3088 59.4542 58.4445 59.3051 58.5446 59.1326C58.6446 58.9601 58.7066 58.7683 58.7265 58.5699C58.7521 58.3798 58.7368 58.1865 58.6818 58.0027C58.6268 57.8189 58.5333 57.649 58.4074 57.5042C58.2816 57.3595 58.1263 57.2432 57.952 57.1631C57.7777 57.0831 57.5883 57.0411 57.3965 57.0399C57.208 57.0432 57.0221 57.0848 56.8502 57.1622C56.6783 57.2395 56.5239 57.351 56.3965 57.4899C56.5129 57.3325 56.6632 57.2031 56.8363 57.1114C57.0094 57.0196 57.2008 56.9679 57.3965 56.9599C57.6023 56.9523 57.8072 56.9908 57.9962 57.0727C58.1852 57.1545 58.3534 57.2776 58.4886 57.433C58.6239 57.5883 58.7226 57.772 58.7776 57.9704C58.8326 58.1689 58.8425 58.3772 58.8065 58.5799C58.7737 58.7801 58.6987 58.971 58.5865 59.1399C58.4704 59.3116 58.3208 59.4579 58.1465 59.5699Z" fill="white"/>
</g>
</g>
<g style="mix-blend-mode:multiply" opacity="0.25">
<path d="M80.8749 69.5002C80.6802 69.3079 80.5471 69.0621 80.4926 68.7939C80.438 68.5258 80.4644 68.2475 80.5684 67.9944C80.6723 67.7412 80.8492 67.5247 81.0765 67.3724C81.3038 67.22 81.5712 67.1387 81.8449 67.1387C82.1185 67.1387 82.3859 67.22 82.6132 67.3724C82.8405 67.5247 83.0174 67.7412 83.1214 67.9944C83.2254 68.2475 83.2517 68.5258 83.1971 68.7939C83.1426 69.0621 83.0095 69.3079 82.8149 69.5002C82.5566 69.7555 82.208 69.8987 81.8449 69.8987C81.4817 69.8987 81.1332 69.7555 80.8749 69.5002Z" fill="#363A4D"/>
</g>
<g style="mix-blend-mode:multiply" opacity="0.15">
<path d="M82.3949 67.5201C82.5803 67.7056 82.7091 67.94 82.7661 68.1959C82.8231 68.4518 82.806 68.7187 82.7168 68.9653C82.6276 69.2119 82.47 69.4279 82.2625 69.5882C82.0549 69.7484 81.806 69.8462 81.5449 69.8701C81.7706 69.9226 82.0059 69.9161 82.2283 69.8513C82.4508 69.7865 82.6528 69.6656 82.8149 69.5001C83.0144 69.3002 83.1477 69.0438 83.1969 68.7657C83.2461 68.4876 83.2087 68.2011 83.0898 67.9448C82.971 67.6886 82.7764 67.475 82.5323 67.3329C82.2882 67.1908 82.0064 67.127 81.7249 67.1501C81.9785 67.2084 82.2106 67.3365 82.3949 67.5201Z" fill="#363A4D"/>
</g>
<g style="mix-blend-mode:screen" opacity="0.8">
<g style="mix-blend-mode:screen" opacity="0.8">
<path d="M81.5449 69.8701C81.737 69.9048 81.9341 69.8987 82.1237 69.8522C82.3132 69.8057 82.4908 69.7198 82.6449 69.6001C82.799 69.4811 82.9254 69.3301 83.0152 69.1574C83.105 68.9847 83.1561 68.7945 83.1649 68.6001C83.1789 68.4082 83.1522 68.2155 83.0867 68.0346C83.0213 67.8537 82.9184 67.6886 82.7849 67.5501C82.6468 67.4106 82.4814 67.3013 82.299 67.229C82.1165 67.1567 81.921 67.123 81.7249 67.1301C81.925 67.1046 82.1283 67.1237 82.3202 67.186C82.5121 67.2482 82.6878 67.352 82.8349 67.4901C82.9834 67.6328 83.0995 67.8058 83.1754 67.9973C83.2513 68.1888 83.2852 68.3943 83.2749 68.6001C83.2538 68.7981 83.1912 68.9895 83.0913 69.1617C82.9914 69.334 82.8563 69.4834 82.6949 69.6001C82.5319 69.7203 82.3435 69.8018 82.1442 69.8382C81.9449 69.8746 81.7399 69.865 81.5449 69.8101V69.8701Z" fill="white"/>
</g>
</g>
<g style="mix-blend-mode:multiply" opacity="0.25">
<path d="M60.6261 49.2499C60.4401 49.0543 60.3155 48.8084 60.2678 48.5426C60.2201 48.2769 60.2514 48.003 60.3579 47.7549C60.4643 47.5068 60.6412 47.2953 60.8666 47.1467C61.092 46.9981 61.3561 46.9189 61.6261 46.9189C61.8961 46.9189 62.1602 46.9981 62.3856 47.1467C62.611 47.2953 62.7879 47.5068 62.8943 47.7549C63.0008 48.003 63.0321 48.2769 62.9844 48.5426C62.9367 48.8084 62.8122 49.0543 62.6261 49.2499C62.4988 49.3881 62.3441 49.4984 62.172 49.5738C61.9999 49.6493 61.814 49.6882 61.6261 49.6882C61.4382 49.6882 61.2523 49.6493 61.0802 49.5738C60.908 49.4984 60.7535 49.3881 60.6261 49.2499Z" fill="#363A4D"/>
</g>
<g style="mix-blend-mode:multiply" opacity="0.15">
<path d="M62.1449 47.2801C62.4032 47.5389 62.5483 47.8895 62.5483 48.2551C62.5483 48.6207 62.4032 48.9714 62.1449 49.2301C61.9176 49.458 61.6159 49.5964 61.2949 49.6201C61.5785 49.6775 61.873 49.6435 62.1362 49.5232C62.3993 49.4028 62.6175 49.2022 62.7596 48.9502C62.9018 48.6982 62.9604 48.4076 62.9272 48.1202C62.8941 47.8327 62.7707 47.5632 62.5749 47.3501C62.4344 47.2066 62.2637 47.0962 62.0751 47.027C61.8866 46.9578 61.6849 46.9315 61.4849 46.9501C61.7316 46.9957 61.9604 47.1101 62.1449 47.2801Z" fill="#363A4D"/>
</g>
<g style="mix-blend-mode:screen" opacity="0.8">
<g style="mix-blend-mode:screen" opacity="0.8">
<path d="M61.2949 49.6201C61.487 49.6548 61.6841 49.6487 61.8737 49.6022C62.0632 49.5557 62.2408 49.4698 62.3949 49.3501C62.5513 49.2327 62.68 49.0821 62.7716 48.9093C62.8632 48.7364 62.9156 48.5455 62.9249 48.3501C62.9318 48.1656 62.9006 47.9817 62.8336 47.8097C62.7665 47.6377 62.6648 47.4813 62.5349 47.3501C62.4052 47.2162 62.2498 47.1099 62.0779 47.0377C61.906 46.9656 61.7213 46.9289 61.5349 46.9301C61.7351 46.9018 61.9392 46.9195 62.1315 46.9819C62.3239 47.0442 62.4994 47.1497 62.6449 47.2901C62.7937 47.4322 62.9094 47.6053 62.9838 47.7971C63.0581 47.989 63.0892 48.1949 63.0749 48.4001C63.0525 48.5978 62.9895 48.7887 62.8896 48.9609C62.7898 49.133 62.6555 49.2825 62.4949 49.4001C62.3324 49.5193 62.1439 49.5982 61.9449 49.6301C61.7313 49.6856 61.5067 49.6822 61.2949 49.6201Z" fill="white"/>
</g>
</g>
<g style="mix-blend-mode:multiply" opacity="0.25">
<path d="M60.6263 67.5499C60.8219 67.3639 61.0678 67.2393 61.3336 67.1916C61.5993 67.1439 61.8732 67.1753 62.1213 67.2817C62.3695 67.3881 62.5809 67.565 62.7295 67.7905C62.8781 68.0159 62.9573 68.2799 62.9573 68.5499C62.9573 68.8199 62.8781 69.084 62.7295 69.3094C62.5809 69.5348 62.3695 69.7117 62.1213 69.8181C61.8732 69.9246 61.5993 69.9559 61.3336 69.9082C61.0678 69.8606 60.8219 69.736 60.6263 69.5499C60.4907 69.421 60.3828 69.2659 60.309 69.094C60.2353 68.9221 60.1973 68.737 60.1973 68.5499C60.1973 68.3629 60.2353 68.1778 60.309 68.0058C60.3828 67.8339 60.4907 67.6788 60.6263 67.5499Z" fill="#363A4D"/>
</g>
<g style="mix-blend-mode:multiply" opacity="0.15">
<path d="M62.6056 69.0797C62.4195 69.2655 62.1843 69.3942 61.9276 69.4507C61.6708 69.5073 61.4033 69.4893 61.1564 69.399C60.9095 69.3087 60.6936 69.1497 60.534 68.9408C60.3744 68.7318 60.2778 68.4817 60.2556 68.2197C60.2111 68.414 60.2091 68.6156 60.2499 68.8107C60.2907 69.0058 60.3733 69.1898 60.492 69.3499C60.6107 69.51 60.7627 69.6425 60.9374 69.7383C61.1122 69.8341 61.3057 69.8909 61.5045 69.9048C61.7033 69.9187 61.9028 69.8894 62.0892 69.8188C62.2756 69.7482 62.4446 69.6381 62.5843 69.496C62.7241 69.354 62.8315 69.1833 62.899 68.9958C62.9666 68.8082 62.9927 68.6083 62.9756 68.4097C62.9149 68.6623 62.7871 68.8939 62.6056 69.0797Z" fill="#363A4D"/>
</g>
<g style="mix-blend-mode:screen" opacity="0.8">
<g style="mix-blend-mode:screen" opacity="0.8">
<path d="M60.2553 68.2197C60.2206 68.4118 60.2266 68.609 60.2731 68.7985C60.3196 68.988 60.4056 69.1656 60.5253 69.3197C60.6417 69.4686 60.7882 69.5913 60.9551 69.6799C61.122 69.7686 61.3056 69.8212 61.4941 69.8344C61.6827 69.8476 61.8719 69.8211 62.0495 69.7565C62.2271 69.692 62.3892 69.5909 62.5253 69.4597C62.6644 69.3235 62.7737 69.1598 62.846 68.979C62.9183 68.7982 62.9521 68.6043 62.9452 68.4097C62.9714 68.6099 62.9526 68.8133 62.8904 69.0053C62.8281 69.1973 62.7239 69.373 62.5853 69.5197C62.4432 69.6686 62.2701 69.7843 62.0782 69.8587C61.8863 69.933 61.6803 69.9641 61.475 69.9498C61.2697 69.9354 61.0701 69.876 60.8904 69.7758C60.7107 69.6755 60.5553 69.5369 60.4353 69.3697C60.317 69.2056 60.2351 69.0181 60.1952 68.8197C60.1747 68.6177 60.1952 68.4137 60.2553 68.2197Z" fill="white"/>
</g>
</g>
<g style="mix-blend-mode:multiply" opacity="0.25">
<path d="M81.8448 49.6594C82.607 49.6594 83.2249 49.0416 83.2249 48.2794C83.2249 47.5173 82.607 46.8994 81.8448 46.8994C81.0827 46.8994 80.4648 47.5173 80.4648 48.2794C80.4648 49.0416 81.0827 49.6594 81.8448 49.6594Z" fill="#363A4D"/>
</g>
<g style="mix-blend-mode:multiply" opacity="0.15">
<path d="M82.8455 48.8295C82.7189 48.9583 82.5679 49.0606 82.4014 49.1304C82.2349 49.2003 82.0561 49.2362 81.8755 49.2362C81.6949 49.2362 81.5161 49.2003 81.3496 49.1304C81.183 49.0606 81.0321 48.9583 80.9055 48.8295C80.6732 48.6043 80.531 48.302 80.5055 47.9795C80.467 48.1708 80.4697 48.3682 80.5136 48.5584C80.5576 48.7486 80.6417 48.9272 80.7602 49.0823C80.8788 49.2374 81.0291 49.3653 81.2011 49.4575C81.3732 49.5498 81.5629 49.6042 81.7577 49.6171C81.9525 49.6301 82.1478 49.6012 82.3305 49.5326C82.5132 49.4639 82.6791 49.3569 82.8172 49.2189C82.9552 49.0809 83.0621 48.915 83.1308 48.7323C83.1995 48.5496 83.2284 48.3543 83.2155 48.1595C83.161 48.4145 83.0323 48.6476 82.8455 48.8295Z" fill="#363A4D"/>
</g>
<g style="mix-blend-mode:screen" opacity="0.8">
<g style="mix-blend-mode:screen" opacity="0.8">
<path d="M80.5064 47.9795C80.4716 48.1715 80.4777 48.3687 80.5242 48.5582C80.5707 48.7478 80.6566 48.9254 80.7763 49.0795C80.8946 49.2257 81.0417 49.3461 81.2085 49.433C81.3753 49.5199 81.5582 49.5715 81.7459 49.5846C81.9335 49.5978 82.1218 49.5721 82.2991 49.5093C82.4764 49.4465 82.6388 49.3478 82.7763 49.2195C82.914 49.0806 83.0214 48.9147 83.092 48.7323C83.1625 48.5499 83.1947 48.3549 83.1864 48.1595C83.2154 48.3597 83.1981 48.564 83.1356 48.7564C83.0732 48.9489 82.9674 49.1244 82.8263 49.2695C82.6858 49.4206 82.5135 49.5385 82.3218 49.6147C82.1302 49.6908 81.9239 49.7234 81.7181 49.71C81.5123 49.6966 81.312 49.6376 81.1318 49.5372C80.9516 49.4367 80.796 49.2975 80.6763 49.1295C80.5652 48.9589 80.4871 48.769 80.4463 48.5695C80.4206 48.3708 80.4412 48.1689 80.5064 47.9795Z" fill="white"/>
</g>
</g>
<g style="mix-blend-mode:multiply" opacity="0.3">
<path d="M41.416 67.0996C45.282 67.0996 48.416 63.9656 48.416 60.0996C48.416 56.2336 45.282 53.0996 41.416 53.0996C37.55 53.0996 34.416 56.2336 34.416 60.0996C34.416 63.9656 37.55 67.0996 41.416 67.0996Z" fill="#3C3C3C"/>
</g>
<path d="M48.0247 60.1002C48.0247 61.4076 47.637 62.6855 46.9107 63.7726C46.1844 64.8596 45.152 65.7068 43.9442 66.2071C42.7364 66.7074 41.4073 66.8383 40.1251 66.5832C38.8429 66.3282 37.6652 65.6986 36.7407 64.7742C35.8163 63.8498 35.1868 62.672 34.9317 61.3898C34.6767 60.1076 34.8075 58.7785 35.3078 57.5707C35.8081 56.3629 36.6554 55.3305 37.7424 54.6042C38.8294 53.8779 40.1073 53.4902 41.4147 53.4902C43.1678 53.4902 44.849 54.1866 46.0886 55.4263C47.3282 56.6659 48.0247 58.3472 48.0247 60.1002Z" fill="#5A6080"/>
<g style="mix-blend-mode:multiply" opacity="0.3">
<path d="M103.646 67.0996C107.512 67.0996 110.646 63.9656 110.646 60.0996C110.646 56.2336 107.512 53.0996 103.646 53.0996C99.7805 53.0996 96.6465 56.2336 96.6465 60.0996C96.6465 63.9656 99.7805 67.0996 103.646 67.0996Z" fill="#3C3C3C"/>
</g>
<path d="M110.256 60.1002C110.258 61.41 109.871 62.6909 109.145 63.7808C108.419 64.8708 107.385 65.7209 106.176 66.2235C104.966 66.726 103.635 66.8586 102.35 66.6043C101.065 66.35 99.8849 65.7202 98.9581 64.7948C98.0313 63.8694 97.3998 62.6898 97.1436 61.4054C96.8873 60.121 97.0178 58.7894 97.5186 57.5792C98.0193 56.369 98.8678 55.3345 99.9567 54.6066C101.046 53.8788 102.326 53.4902 103.636 53.4902C104.504 53.4889 105.365 53.6589 106.168 53.9905C106.971 54.3221 107.701 54.8088 108.316 55.4227C108.931 56.0367 109.419 56.7658 109.751 57.5684C110.084 58.371 110.256 59.2314 110.256 60.1002Z" fill="#5A6080"/>
<g style="mix-blend-mode:multiply" opacity="0.3">
<path d="M43.096 57.5796L41.646 59.3496C41.6189 59.3849 41.5841 59.4134 41.5442 59.4331C41.5043 59.4527 41.4604 59.463 41.416 59.463C41.3715 59.463 41.3276 59.4527 41.2877 59.4331C41.2479 59.4134 41.2131 59.3849 41.186 59.3496L39.726 57.6096C39.6731 57.5333 39.6452 57.4425 39.646 57.3496V54.7596C39.6356 54.7103 39.6363 54.6594 39.648 54.6104C39.6598 54.5614 39.6823 54.5156 39.7138 54.4764C39.7454 54.4372 39.7853 54.4055 39.8306 54.3835C39.876 54.3616 39.9256 54.35 39.976 54.3496H42.896C42.9407 54.3534 42.9842 54.366 43.0241 54.3866C43.0639 54.4073 43.0992 54.4357 43.128 54.4701C43.1568 54.5045 43.1785 54.5442 43.1919 54.587C43.2053 54.6299 43.2101 54.6749 43.206 54.7196V57.3496C43.1961 57.4364 43.1574 57.5174 43.096 57.5796Z" fill="#3C3C3C"/>
</g>
<path d="M42.9765 57.47L41.6165 59.09C41.5912 59.1213 41.5592 59.1466 41.5229 59.1639C41.4866 59.1813 41.4468 59.1903 41.4065 59.1903C41.3662 59.1903 41.3265 59.1813 41.2902 59.1639C41.2538 59.1466 41.2218 59.1213 41.1965 59.09L39.8365 57.47C39.7853 57.4042 39.7573 57.3234 39.7565 57.24V54.83C39.7538 54.7893 39.7592 54.7484 39.7723 54.7098C39.7854 54.6711 39.806 54.6354 39.833 54.6048C39.8599 54.5741 39.8926 54.5491 39.9293 54.5311C39.9659 54.5131 40.0058 54.5025 40.0465 54.5H42.7665C42.8072 54.5025 42.8471 54.5131 42.8837 54.5311C42.9204 54.5491 42.9531 54.5741 42.9801 54.6048C43.007 54.6354 43.0276 54.6711 43.0407 54.7098C43.0538 54.7484 43.0592 54.7893 43.0565 54.83V57.24C43.0558 57.3234 43.0277 57.4042 42.9765 57.47Z" fill="#989DB3"/>
<g style="mix-blend-mode:multiply" opacity="0.3">
<path d="M39.7249 62.6298L41.1849 60.8798C41.2131 60.8462 41.2482 60.8192 41.288 60.8006C41.3277 60.7821 41.371 60.7725 41.4149 60.7725C41.4587 60.7725 41.502 60.7821 41.5418 60.8006C41.5815 60.8192 41.6167 60.8462 41.6449 60.8798L43.0949 62.6298C43.154 62.6996 43.186 62.7884 43.1849 62.8798V65.4799C43.1905 65.5684 43.1611 65.6557 43.1032 65.723C43.0452 65.7902 42.9633 65.8322 42.8749 65.8399H39.9749C39.8864 65.8322 39.8045 65.7902 39.7465 65.723C39.6886 65.6557 39.6593 65.5684 39.6649 65.4799V62.8798C39.6595 62.7924 39.6804 62.7053 39.7249 62.6298Z" fill="#3C3C3C"/>
</g>
<path d="M39.8464 62.7294L41.2063 61.1194C41.2305 61.0863 41.2621 61.0594 41.2986 61.0409C41.3351 61.0224 41.3754 61.0127 41.4164 61.0127C41.4573 61.0127 41.4977 61.0224 41.5342 61.0409C41.5707 61.0594 41.6022 61.0863 41.6264 61.1194L42.9864 62.7294C43.0397 62.7979 43.0679 62.8826 43.0664 62.9694V65.3494C43.072 65.4327 43.0447 65.5149 42.9905 65.5784C42.9363 65.6419 42.8595 65.6818 42.7763 65.6894H40.0564C39.9732 65.6818 39.8964 65.6419 39.8422 65.5784C39.788 65.5149 39.7608 65.4327 39.7663 65.3494V62.9494C39.7692 62.8695 39.7972 62.7925 39.8464 62.7294Z" fill="#989DB3"/>
<g style="mix-blend-mode:multiply" opacity="0.3">
<path d="M43.9754 61.7893L42.1954 60.3493C42.1601 60.3222 42.1316 60.2874 42.1119 60.2475C42.0923 60.2076 42.082 60.1638 42.082 60.1193C42.082 60.0748 42.0923 60.031 42.1119 59.9911C42.1316 59.9512 42.1601 59.9164 42.1954 59.8893L43.9454 58.4393C44.0147 58.3794 44.1038 58.3473 44.1954 58.3493H46.7954C46.884 58.3437 46.9712 58.3731 47.0385 58.431C47.1058 58.4889 47.1477 58.5709 47.1554 58.6593V61.5793C47.1478 61.6686 47.1062 61.7515 47.0392 61.8111C46.9722 61.8706 46.885 61.9022 46.7954 61.8993H44.1954C44.1127 61.8854 44.0361 61.8471 43.9754 61.7893Z" fill="#3C3C3C"/>
</g>
<path d="M44.0449 61.67L42.4349 60.3499C42.4018 60.3258 42.3749 60.2942 42.3564 60.2577C42.3378 60.2212 42.3281 60.1809 42.3281 60.1399C42.3281 60.099 42.3378 60.0587 42.3564 60.0222C42.3749 59.9857 42.4018 59.9541 42.4349 59.9299L44.0449 58.5699C44.1107 58.5188 44.1915 58.4907 44.2748 58.4899H46.6849C46.7256 58.4872 46.7665 58.4926 46.8051 58.5057C46.8438 58.5188 46.8794 58.5395 46.9101 58.5664C46.9408 58.5933 46.9658 58.6261 46.9838 58.6627C47.0017 58.6994 47.0123 58.7392 47.0148 58.7799V61.4999C47.0123 61.5407 47.0017 61.5805 46.9838 61.6172C46.9658 61.6538 46.9408 61.6865 46.9101 61.7135C46.8794 61.7404 46.8438 61.7611 46.8051 61.7742C46.7665 61.7873 46.7256 61.7927 46.6849 61.7899H44.2748C44.1865 61.7782 44.1051 61.7357 44.0449 61.67Z" fill="#989DB3"/>
<g style="mix-blend-mode:multiply" opacity="0.3">
<path d="M38.8857 58.4198L40.6357 59.8698C40.6694 59.8979 40.6964 59.9331 40.715 59.9728C40.7335 60.0126 40.7432 60.0559 40.7432 60.0998C40.7432 60.1436 40.7335 60.1869 40.715 60.2267C40.6964 60.2664 40.6694 60.3016 40.6357 60.3298L38.8857 61.7898C38.8143 61.846 38.7266 61.8776 38.6357 61.8798H36.0358C35.9462 61.8826 35.859 61.8511 35.792 61.7915C35.725 61.732 35.6834 61.6491 35.6758 61.5598V58.6398C35.6834 58.5513 35.7254 58.4694 35.7927 58.4115C35.8599 58.3535 35.9472 58.3242 36.0358 58.3298H38.6357C38.7273 58.3278 38.8164 58.3598 38.8857 58.4198Z" fill="#3C3C3C"/>
</g>
<path d="M38.7847 58.5299L40.3947 59.8899C40.4277 59.9141 40.4546 59.9457 40.4731 59.9822C40.4917 60.0186 40.5014 60.059 40.5014 60.0999C40.5014 60.1409 40.4917 60.1812 40.4731 60.2177C40.4546 60.2542 40.4277 60.2858 40.3947 60.3099L38.7847 61.6699C38.7162 61.7232 38.6315 61.7515 38.5447 61.7499H36.1447C36.0613 61.7555 35.9792 61.7283 35.9156 61.6741C35.8521 61.6199 35.8123 61.5431 35.8047 61.4599V58.7399C35.8123 58.6568 35.8521 58.5799 35.9156 58.5258C35.9792 58.4716 36.0613 58.4444 36.1447 58.4499H38.5447C38.6315 58.4484 38.7162 58.4766 38.7847 58.5299Z" fill="#989DB3"/>
<g style="mix-blend-mode:multiply" opacity="0.3">
<path d="M105.496 56.7999C105.503 57.1828 105.375 57.5559 105.133 57.8529C104.891 58.1499 104.552 58.3517 104.176 58.4225C103.799 58.4932 103.41 58.4283 103.077 58.2392C102.744 58.0502 102.488 57.7493 102.356 57.3899C102.292 57.21 102.259 57.0208 102.256 56.8299C102.251 56.577 102.306 56.3265 102.417 56.0991C102.528 55.8717 102.691 55.6737 102.893 55.5214C103.095 55.3692 103.33 55.267 103.579 55.2233C103.828 55.1796 104.084 55.1955 104.326 55.2699C104.677 55.3634 104.984 55.5754 105.196 55.8699C105.394 56.1394 105.499 56.4657 105.496 56.7999Z" fill="#363A4D"/>
</g>
<path d="M105.356 56.7C105.399 57.084 105.295 57.4701 105.065 57.7806C104.835 58.0912 104.496 58.3032 104.116 58.3741C103.736 58.445 103.344 58.3695 103.017 58.1629C102.691 57.9562 102.454 57.6336 102.356 57.26C102.291 57.0942 102.257 56.9179 102.256 56.74C102.258 56.335 102.42 55.9474 102.707 55.661C102.993 55.3746 103.381 55.2126 103.786 55.21C103.925 55.2095 104.063 55.2297 104.196 55.27C104.529 55.3609 104.821 55.5618 105.026 55.84C105.219 56.0875 105.334 56.3869 105.356 56.7Z" fill="#989DB3"/>
<g style="mix-blend-mode:multiply" opacity="0.15">
<path d="M105.355 56.6998C105.424 57.0976 105.333 57.5066 105.1 57.8366C104.867 58.1667 104.513 58.3909 104.115 58.4598C103.718 58.5288 103.309 58.4369 102.979 58.2043C102.649 57.9718 102.424 57.6176 102.355 57.2198C102.493 57.4182 102.677 57.5801 102.891 57.6916C103.106 57.8031 103.344 57.8608 103.585 57.8598C103.991 57.8598 104.38 57.6986 104.667 57.4117C104.954 57.1248 105.115 56.7356 105.115 56.3298C105.117 56.1493 105.086 55.9699 105.025 55.7998C105.226 56.0584 105.341 56.3729 105.355 56.6998Z" fill="#363A4D"/>
</g>
<g style="mix-blend-mode:screen" opacity="0.25">
<path d="M103.656 55.5094C103.816 55.6142 103.931 55.7745 103.979 55.9593C104.027 56.1441 104.005 56.3401 103.916 56.5094C103.716 56.9094 103.266 57.2894 102.856 57.0794C102.676 56.9605 102.548 56.7769 102.5 56.5664C102.451 56.356 102.486 56.1351 102.596 55.9494C102.695 55.7655 102.855 55.6213 103.048 55.5412C103.241 55.4611 103.456 55.4498 103.656 55.5094Z" fill="white"/>
</g>
<g style="mix-blend-mode:screen" opacity="0.35">
<path d="M103.226 55.5599C103.306 55.6399 103.226 55.8099 103.136 55.9299C103.046 56.0499 102.816 56.1399 102.726 56.0399C102.636 55.9399 102.726 55.7899 102.856 55.6799C102.986 55.5699 103.156 55.4799 103.226 55.5599Z" fill="white"/>
</g>
<g style="mix-blend-mode:multiply" opacity="0.15">
<path d="M105.355 56.6997C105.398 57.0837 105.294 57.4698 105.065 57.7803C104.835 58.0909 104.496 58.3029 104.116 58.3738C103.736 58.4447 103.343 58.3692 103.017 58.1626C102.69 57.9559 102.454 57.6334 102.355 57.2597C102.625 57.4471 102.937 57.5651 103.263 57.6035C103.589 57.6419 103.92 57.5994 104.225 57.4797C104.442 57.3421 104.617 57.1488 104.734 56.9201C104.85 56.6914 104.902 56.4357 104.885 56.1797C104.852 55.971 104.771 55.7726 104.65 55.5994C104.529 55.4262 104.37 55.2827 104.185 55.1797C104.519 55.2706 104.811 55.4715 105.015 55.7497C105.23 56.0207 105.349 56.3544 105.355 56.6997Z" fill="#363A4D"/>
</g>
<g style="mix-blend-mode:multiply" opacity="0.3">
<path d="M105.496 63.3999C105.493 63.7767 105.359 64.1408 105.118 64.4302C104.876 64.7196 104.542 64.9165 104.172 64.9872C103.802 65.0579 103.418 64.9982 103.087 64.8182C102.756 64.6382 102.498 64.349 102.356 63.9998C102.292 63.8199 102.258 63.6307 102.256 63.4399C102.257 63.189 102.317 62.942 102.429 62.7178C102.542 62.4937 102.704 62.2986 102.905 62.1476C103.105 61.9966 103.338 61.894 103.584 61.8475C103.83 61.8011 104.084 61.8121 104.326 61.8799C104.677 61.9774 104.984 62.1928 105.196 62.4899C105.388 62.7545 105.493 63.0727 105.496 63.3999Z" fill="#363A4D"/>
</g>
<path d="M105.356 63.3501C105.399 63.7341 105.295 64.1202 105.065 64.4307C104.835 64.7413 104.496 64.9533 104.116 65.0242C103.736 65.0951 103.344 65.0197 103.017 64.813C102.691 64.6063 102.454 64.2838 102.356 63.9101C102.292 63.7406 102.258 63.5612 102.256 63.3801C102.259 62.976 102.421 62.5895 102.707 62.3047C102.994 62.0199 103.382 61.8601 103.786 61.8601C103.922 61.8448 104.06 61.8448 104.196 61.8601C104.53 61.9543 104.822 62.1587 105.026 62.4401C105.231 62.6997 105.347 63.019 105.356 63.3501Z" fill="#989DB3"/>
<g style="mix-blend-mode:multiply" opacity="0.15">
<path d="M105.355 63.35C105.386 63.7296 105.274 64.1071 105.041 64.4085C104.809 64.71 104.472 64.9138 104.097 64.98C103.722 65.0463 103.335 64.9703 103.013 64.7668C102.691 64.5634 102.457 64.2472 102.355 63.88C102.496 64.0753 102.68 64.2344 102.894 64.3439C103.108 64.4535 103.345 64.5104 103.585 64.51C103.991 64.51 104.38 64.3488 104.667 64.0618C104.954 63.7749 105.115 63.3857 105.115 62.98C105.116 62.8027 105.086 62.6266 105.025 62.46C105.227 62.7141 105.343 63.0258 105.355 63.35Z" fill="#363A4D"/>
</g>
<g style="mix-blend-mode:screen" opacity="0.25">
<path d="M103.656 62.1202C103.818 62.2234 103.934 62.3838 103.982 62.5692C104.03 62.7546 104.007 62.9514 103.916 63.1202C103.716 63.5202 103.266 63.8902 102.856 63.6802C102.676 63.5613 102.548 63.3776 102.5 63.1672C102.451 62.9568 102.486 62.7358 102.596 62.5502C102.697 62.3681 102.857 62.226 103.05 62.1478C103.243 62.0695 103.457 62.0598 103.656 62.1202Z" fill="white"/>
</g>
<g style="mix-blend-mode:screen" opacity="0.35">
<path d="M103.226 62.1701C103.306 62.2501 103.226 62.4101 103.136 62.5301C103.046 62.6501 102.816 62.7401 102.726 62.6501C102.636 62.5601 102.726 62.3901 102.856 62.2801C102.986 62.1701 103.156 62.0901 103.226 62.1701Z" fill="white"/>
</g>
<g style="mix-blend-mode:multiply" opacity="0.15">
<path d="M105.355 63.3501C105.398 63.7341 105.294 64.1202 105.065 64.4307C104.835 64.7413 104.496 64.9533 104.116 65.0242C103.736 65.0951 103.343 65.0197 103.017 64.813C102.69 64.6063 102.454 64.2837 102.355 63.9101C102.625 64.0975 102.937 64.2155 103.263 64.2539C103.589 64.2923 103.92 64.2497 104.225 64.1301C104.442 63.9925 104.617 63.7992 104.734 63.5705C104.85 63.3418 104.902 63.086 104.885 62.8301C104.852 62.6214 104.771 62.423 104.65 62.2498C104.529 62.0766 104.37 61.9331 104.185 61.8301C104.52 61.9243 104.812 62.1287 105.015 62.4101C105.231 62.6765 105.351 63.0075 105.355 63.3501Z" fill="#363A4D"/>
</g>
<g style="mix-blend-mode:multiply" opacity="0.3">
<path d="M101.377 59.9102C101.371 60.2863 101.236 60.6488 100.994 60.9365C100.752 61.2242 100.417 61.4193 100.048 61.4888C99.6781 61.5582 99.2959 61.4977 98.9658 61.3176C98.6357 61.1374 98.3781 60.8487 98.2365 60.5002C98.176 60.3232 98.1455 60.1373 98.1465 59.9502C98.1448 59.699 98.2016 59.4509 98.3124 59.2253C98.4231 58.9998 98.5847 58.8032 98.7845 58.6509C98.9843 58.4986 99.2168 58.3949 99.4636 58.3479C99.7104 58.3009 99.9647 58.312 100.207 58.3802C100.559 58.4808 100.869 58.6953 101.087 58.9902C101.272 59.2617 101.372 59.5817 101.377 59.9102Z" fill="#363A4D"/>
</g>
<path d="M101.226 59.8093C101.226 60.2125 101.065 60.5991 100.78 60.8841C100.495 61.1692 100.109 61.3293 99.7055 61.3293C99.394 61.3269 99.0905 61.2299 98.8352 61.0514C98.5799 60.8729 98.3848 60.6211 98.2755 60.3293C98.2151 60.1627 98.1846 59.9866 98.1856 59.8093C98.1843 59.608 98.2229 59.4085 98.2993 59.2223C98.3757 59.036 98.4884 58.8668 98.6307 58.7245C98.773 58.5822 98.9423 58.4695 99.1285 58.3931C99.3147 58.3167 99.5143 58.278 99.7155 58.2793C99.8544 58.2789 99.9926 58.2991 100.126 58.3393C100.455 58.433 100.743 58.6335 100.946 58.9093C101.131 59.1724 101.229 59.4873 101.226 59.8093Z" fill="#989DB3"/>
<g style="mix-blend-mode:multiply" opacity="0.15">
<path d="M101.227 59.8102C101.254 60.1885 101.139 60.5635 100.906 60.8623C100.672 61.1612 100.336 61.3625 99.9618 61.4273C99.588 61.4921 99.2035 61.4157 98.8829 61.213C98.5622 61.0102 98.3283 60.6956 98.2266 60.3302C98.3693 60.5251 98.5559 60.6837 98.7714 60.7931C98.9868 60.9026 99.2249 60.9598 99.4666 60.9602C99.667 60.9602 99.8655 60.9205 100.051 60.8435C100.236 60.7665 100.404 60.6536 100.545 60.5114C100.686 60.3692 100.798 60.2005 100.874 60.0149C100.95 59.8293 100.988 59.6306 100.987 59.4302C100.988 59.2529 100.957 59.0768 100.897 58.9102C101.1 59.1671 101.216 59.4826 101.227 59.8102Z" fill="#363A4D"/>
</g>
<g style="mix-blend-mode:screen" opacity="0.25">
<path d="M99.5259 58.6201C99.6855 58.7248 99.8005 58.8852 99.8486 59.07C99.8966 59.2548 99.8743 59.4508 99.7859 59.6201C99.5859 60.0201 99.146 60.3901 98.726 60.1901C98.5474 60.0697 98.4218 59.8853 98.3753 59.675C98.3288 59.4647 98.3648 59.2445 98.476 59.0601C98.5734 58.8769 98.7312 58.7331 98.9225 58.6529C99.1139 58.5728 99.327 58.5611 99.5259 58.6201Z" fill="white"/>
</g>
<g style="mix-blend-mode:screen" opacity="0.35">
<path d="M99.1049 58.6701C99.1749 58.7501 99.1049 58.9101 99.0149 59.0301C98.9249 59.1501 98.6849 59.2501 98.5949 59.1501C98.5049 59.0501 98.5949 58.8901 98.7249 58.7801C98.8549 58.6701 99.0249 58.5901 99.1049 58.6701Z" fill="white"/>
</g>
<g style="mix-blend-mode:multiply" opacity="0.15">
<path d="M101.225 59.8096C101.225 60.2127 101.065 60.5993 100.78 60.8844C100.495 61.1694 100.109 61.3296 99.7054 61.3296C99.3938 61.3271 99.0904 61.2302 98.8351 61.0517C98.5798 60.8731 98.3846 60.6213 98.2754 60.3296C98.5442 60.5186 98.8555 60.6385 99.1816 60.6786C99.5078 60.7187 99.8388 60.6778 100.145 60.5596C100.364 60.4208 100.541 60.2262 100.659 59.9959C100.777 59.7655 100.831 59.5078 100.815 59.2496C100.775 59.0511 100.691 58.864 100.57 58.7016C100.449 58.5391 100.294 58.4053 100.115 58.3096C100.444 58.4032 100.733 58.6038 100.935 58.8796C101.131 59.1497 101.233 59.4763 101.225 59.8096Z" fill="#363A4D"/>
</g>
<g style="mix-blend-mode:multiply" opacity="0.3">
<path d="M109.566 59.9094C109.561 60.2854 109.425 60.648 109.183 60.9357C108.941 61.2234 108.607 61.4185 108.237 61.4879C107.868 61.5574 107.485 61.4969 107.155 61.3167C106.825 61.1366 106.568 60.8478 106.426 60.4994C106.365 60.3224 106.335 60.1365 106.336 59.9494C106.336 59.5188 106.506 59.1057 106.81 58.8003C107.113 58.4949 107.525 58.322 107.956 58.3194C108.105 58.3183 108.253 58.3385 108.396 58.3794C108.75 58.4778 109.06 58.6927 109.276 58.9894C109.461 59.2608 109.562 59.5809 109.566 59.9094Z" fill="#363A4D"/>
</g>
<path d="M109.415 59.8093C109.415 60.2125 109.255 60.5991 108.97 60.8841C108.685 61.1692 108.298 61.3293 107.895 61.3293C107.583 61.3269 107.28 61.2299 107.025 61.0514C106.769 60.8729 106.574 60.6211 106.465 60.3293C106.405 60.1627 106.374 59.9866 106.375 59.8093C106.374 59.608 106.412 59.4085 106.489 59.2223C106.565 59.036 106.678 58.8668 106.82 58.7245C106.963 58.5822 107.132 58.4695 107.318 58.3931C107.504 58.3167 107.704 58.278 107.905 58.2793C108.044 58.2789 108.182 58.2991 108.315 58.3393C108.644 58.433 108.933 58.6335 109.135 58.9093C109.325 59.1705 109.423 59.4867 109.415 59.8093Z" fill="#989DB3"/>
<g style="mix-blend-mode:multiply" opacity="0.15">
<path d="M109.416 59.8102C109.443 60.1885 109.329 60.5635 109.095 60.8623C108.861 61.1612 108.525 61.3625 108.151 61.4273C107.777 61.4921 107.393 61.4157 107.072 61.213C106.752 61.0102 106.518 60.6956 106.416 60.3302C106.606 60.5925 106.874 60.788 107.181 60.8884C107.489 60.9889 107.821 60.9891 108.129 60.889C108.437 60.789 108.705 60.5938 108.895 60.3317C109.085 60.0696 109.187 59.7539 109.186 59.4302C109.184 59.2523 109.15 59.0762 109.086 58.9102C109.293 59.1649 109.41 59.4817 109.416 59.8102Z" fill="#363A4D"/>
</g>
<g style="mix-blend-mode:screen" opacity="0.25">
<path d="M107.716 58.6201C107.876 58.7248 107.991 58.8852 108.039 59.07C108.087 59.2548 108.064 59.4508 107.976 59.6201C107.786 60.0201 107.336 60.3901 106.916 60.1901C106.739 60.0681 106.615 59.8838 106.569 59.6742C106.523 59.4646 106.557 59.2452 106.666 59.0601C106.763 58.8769 106.921 58.7331 107.113 58.6529C107.304 58.5728 107.517 58.5611 107.716 58.6201Z" fill="white"/>
</g>
<g style="mix-blend-mode:screen" opacity="0.35">
<path d="M107.296 58.6701C107.366 58.7501 107.296 58.9101 107.206 59.0301C107.116 59.1501 106.876 59.2501 106.786 59.1501C106.696 59.0501 106.786 58.8901 106.916 58.7801C107.046 58.6701 107.216 58.5901 107.296 58.6701Z" fill="white"/>
</g>
<g style="mix-blend-mode:multiply" opacity="0.15">
<path d="M109.415 59.8096C109.415 60.2127 109.255 60.5993 108.97 60.8844C108.685 61.1694 108.298 61.3296 107.895 61.3296C107.583 61.3271 107.28 61.2302 107.025 61.0517C106.769 60.8731 106.574 60.6213 106.465 60.3296C106.735 60.5203 107.048 60.6411 107.376 60.6812C107.704 60.7214 108.037 60.6796 108.345 60.5596C108.561 60.4196 108.737 60.2245 108.853 59.9942C108.969 59.7639 109.021 59.5069 109.005 59.2496C108.964 59.0511 108.881 58.864 108.76 58.7016C108.639 58.5391 108.483 58.4053 108.305 58.3096C108.634 58.4032 108.922 58.6038 109.125 58.8796C109.324 59.1476 109.427 59.4756 109.415 59.8096Z" fill="#363A4D"/>
</g>
<g style="mix-blend-mode:screen" opacity="0.4">
<g style="mix-blend-mode:screen" opacity="0.4">
<path d="M27.4458 91.0801C23.3559 86.1126 20.2014 80.4441 18.1358 74.3501C17.1048 71.2963 16.3452 68.1574 15.8658 64.9701C15.7858 64.5701 15.7558 64.1701 15.6958 63.7701L15.5558 62.5701C15.4758 61.7701 15.4258 60.9601 15.3558 60.1601C15.2858 59.3601 15.3558 58.5401 15.2758 57.7401C15.1958 56.9401 15.2758 56.1201 15.2758 55.3101V54.7101V54.1001L15.3458 52.8901C15.3458 52.4901 15.3458 52.0801 15.4358 51.6801L15.5758 50.4801L15.7158 49.2701C15.7658 48.8701 15.8458 48.4701 15.9058 48.0701C16.0558 47.2801 16.1658 46.4701 16.3558 45.6801C17.0105 42.505 17.951 39.3957 19.1658 36.3901C21.6308 30.3681 25.1264 24.8218 29.4958 20.0001C33.9284 15.2342 39.1691 11.2901 44.9758 8.3501C47.8633 6.87537 50.8749 5.65734 53.9758 4.7101C57.0785 3.7749 60.2627 3.13538 63.4858 2.8001L64.6858 2.6601L65.8958 2.5901L67.1058 2.51011C67.5058 2.51011 67.9158 2.51011 68.3158 2.51011C69.9302 2.46501 71.5457 2.50506 73.1558 2.6301L74.3658 2.7201L75.5658 2.8501C76.3658 2.9301 77.1658 3.0701 77.9558 3.1801C78.3558 3.1801 78.7558 3.3201 79.1458 3.3901L80.3358 3.6101L81.5158 3.8801C81.9058 3.9701 82.2958 4.0501 82.6858 4.1601C85.7772 4.97151 88.7893 6.05922 91.6858 7.4101C93.1358 8.1101 94.5658 8.8201 95.9358 9.6401C97.3058 10.4601 98.6458 11.3401 99.9358 12.2501C98.5658 11.4201 97.1958 10.6201 95.7658 9.9201C94.3358 9.2201 92.8958 8.5501 91.4358 7.9201C88.5007 6.73649 85.4697 5.80643 82.3758 5.1401C76.2345 3.80219 69.9081 3.53493 63.6758 4.3501C62.1258 4.5401 60.5858 4.8501 59.0558 5.1801L56.7758 5.7301L54.5158 6.4001C51.5346 7.35349 48.6434 8.5682 45.8758 10.0301C40.3259 12.9405 35.3273 16.7986 31.1058 21.4301C25.8225 27.2466 21.8486 34.129 19.4524 41.6125C17.0562 49.0961 16.2935 57.0066 17.2158 64.8101C17.5804 67.9418 18.2128 71.0364 19.1058 74.0601C20.9144 80.16 23.7335 85.9131 27.4458 91.0801Z" fill="white"/>
</g>
</g>
</svg>
