<svg width="149" height="106" viewBox="0 0 149 106" fill="none" xmlns="http://www.w3.org/2000/svg">
<path d="M143.379 97.1976C142.471 99.1991 141.188 101.008 139.599 102.528C132.529 109.028 122.369 104.028 117.949 101.078C112.649 97.5476 98.1792 91.1576 76.2792 90.8376C54.3892 91.1576 39.9091 97.5476 34.6191 101.078C30.9891 103.498 23.5192 107.288 17.0492 104.998C14.0492 103.948 11.2792 101.588 9.18916 97.1976C5.48916 89.4076 8.80916 78.1276 15.1892 68.1976C20.1892 60.3976 27.0191 53.3876 33.8391 49.4576C49.3792 40.5176 67.8992 40.7476 76.2892 40.7476C84.6792 40.7476 103.209 40.5176 118.749 49.4576C125.399 53.2876 132.089 60.0676 137.039 67.6476C143.629 77.7076 147.139 89.2576 143.379 97.1976Z" fill="#E83C4A"/>
<g style="mix-blend-mode:multiply" opacity="0.15">
<path d="M139.601 102.537C132.531 109.037 122.371 104.037 117.951 101.087C112.651 97.5572 98.1805 91.1672 76.2805 90.8472C54.3905 91.1672 39.9105 97.5572 34.6205 101.087C30.9905 103.507 23.5205 107.297 17.0505 105.007C13.3305 92.7972 20.4005 73.6272 20.8105 72.5472C20.5505 73.3872 17.1305 84.7372 22.2605 88.7172C27.5905 92.8472 35.3405 92.2472 42.0405 88.4872C48.7405 84.7272 55.6805 69.2272 55.6805 69.2272C55.6805 69.2272 56.2205 80.0472 61.6805 82.7172C67.1405 85.3872 87.4205 85.2572 90.4005 82.0372C93.3805 78.8172 95.2105 67.3672 95.2105 67.3672C95.2105 67.3672 100.481 80.6472 107.981 84.4572C117.321 89.2072 124.181 91.0072 130.781 87.5172C137.221 84.1072 135.621 75.8072 135.551 75.4372C135.741 75.9072 140.821 91.7372 139.601 102.537Z" fill="#A80000"/>
</g>
<g style="mix-blend-mode:multiply" opacity="0.25">
<path d="M143.381 97.1977C136.781 111.088 123.251 104.618 117.951 101.078C112.651 97.5377 98.1806 91.1577 76.2806 90.8377C54.3906 91.1577 39.9106 97.5477 34.6206 101.078C29.3306 104.608 15.7806 111.078 9.19064 97.1977C5.50064 89.4077 8.81064 78.1277 15.1906 68.1977C12.8006 77.6377 9.81064 93.7477 15.7906 98.6577C24.4306 105.758 34.7906 94.8177 44.2006 91.5177C53.6106 88.2177 70.7106 86.6977 78.2006 86.6977C85.6906 86.6977 104.201 89.0077 113.401 93.2477C122.601 97.4877 129.071 105.178 137.401 97.6377C143.221 92.3777 139.681 76.6377 137.021 67.6377C143.631 77.7077 147.141 89.2577 143.381 97.1977Z" fill="#A80000"/>
</g>
<path d="M94.9203 66.2674C95.3857 67.9477 95.9809 69.5893 96.7003 71.1774C98.8003 75.8974 103.01 82.8174 110.6 86.5574C122.6 92.4774 129.93 88.7474 132.81 86.5574C135.49 84.5074 139.41 77.4874 130.5 65.1974C129.887 64.3374 129.22 63.4574 128.5 62.5574C127.379 61.3086 126.144 60.1669 124.81 59.1474C115.91 52.2974 103.9 51.1474 97.9903 56.5374C96.6719 57.7488 95.6945 59.2849 95.1557 60.9924C94.617 62.6998 94.5358 64.5188 94.9203 66.2674Z" fill="#BF1D2A"/>
<path d="M94.9203 66.2674C95.2476 67.9887 95.8485 69.6464 96.7003 71.1774C98.3727 74.1371 100.64 76.7181 103.36 78.7574C112.26 85.6074 124.27 86.7574 130.18 81.3574C134.51 77.3574 134.37 71.0174 130.5 65.1974C129.9 64.269 129.232 63.3866 128.5 62.5574C127.379 61.3086 126.144 60.1669 124.81 59.1474C115.91 52.2974 103.9 51.1474 97.9903 56.5374C96.6719 57.7488 95.6945 59.2849 95.1557 60.9924C94.617 62.6998 94.5358 64.5188 94.9203 66.2674Z" fill="#E83C4A"/>
<g style="mix-blend-mode:multiply" opacity="0.15">
<path d="M94.9203 66.2674C95.2476 67.9887 95.8485 69.6464 96.7003 71.1774C98.3727 74.1371 100.64 76.7181 103.36 78.7574C112.26 85.6074 124.27 86.7574 130.18 81.3574C134.51 77.3574 134.37 71.0174 130.5 65.1974C129.9 64.269 129.232 63.3866 128.5 62.5574C127.379 61.3086 126.144 60.1669 124.81 59.1474C115.91 52.2974 103.9 51.1474 97.9903 56.5374C96.6719 57.7488 95.6945 59.2849 95.1557 60.9924C94.617 62.6998 94.5358 64.5188 94.9203 66.2674Z" fill="#A80000"/>
</g>
<path d="M128.958 77.1075C132.342 70.9574 127.699 61.9078 118.588 56.8946C109.476 51.8814 99.3467 52.8031 95.9629 58.9532C92.5791 65.1032 97.2222 74.1529 106.334 79.166C115.445 84.1792 125.574 83.2576 128.958 77.1075Z" fill="#F5626E"/>
<path d="M55.4705 61.097C55.5637 62.8377 55.5202 64.5831 55.3405 66.317C54.8405 71.457 53.0505 79.317 47.0405 85.317C37.5205 94.757 29.4005 93.537 25.9805 92.317C22.7805 91.227 16.8405 85.817 21.3905 71.317C21.7005 70.317 22.0705 69.267 22.4905 68.177C23.1566 66.6341 23.9668 65.1576 24.9105 63.767C31.1705 54.447 42.1905 49.527 49.5205 52.767C51.1571 53.5097 52.569 54.6709 53.6136 56.1333C54.6583 57.5958 55.2987 59.308 55.4705 61.097Z" fill="#BF1D2A"/>
<path d="M55.47 61.0973C55.7096 62.8329 55.6657 64.5958 55.34 66.3173C54.6948 69.6547 53.3633 72.8216 51.43 75.6173C45.16 84.9373 34.14 89.8573 26.82 86.6173C21.46 84.2373 19.57 78.1373 21.39 71.3873C21.6746 70.3137 22.0424 69.2638 22.49 68.2473C23.1561 66.7044 23.9663 65.2279 24.91 63.8373C31.17 54.5173 42.19 49.5973 49.52 52.8373C51.1471 53.5741 52.5526 54.7245 53.5966 56.1738C54.6406 57.6231 55.2865 59.3206 55.47 61.0973Z" fill="#E83C4A"/>
<g style="mix-blend-mode:multiply" opacity="0.15">
<path d="M55.47 61.0973C55.7096 62.8329 55.6657 64.5958 55.34 66.3173C54.6948 69.6547 53.3633 72.8216 51.43 75.6173C45.16 84.9373 34.14 89.8573 26.82 86.6173C21.46 84.2373 19.57 78.1373 21.39 71.3873C21.6746 70.3137 22.0424 69.2638 22.49 68.2473C23.1561 66.7044 23.9663 65.2279 24.91 63.8373C31.17 54.5173 42.19 49.5973 49.52 52.8373C51.1471 53.5741 52.5526 54.7245 53.5966 56.1738C54.6406 57.6231 55.2865 59.3206 55.47 61.0973Z" fill="#A80000"/>
</g>
<path d="M48.7278 76.9734C55.7777 69.3282 57.3094 59.2729 52.149 54.5143C46.9886 49.7558 37.0902 52.0959 30.0403 59.7411C22.9904 67.3863 21.4587 77.4416 26.6192 82.2001C31.7796 86.9587 41.678 84.6186 48.7278 76.9734Z" fill="#F5626E"/>
<g style="mix-blend-mode:screen" opacity="0.1">
<path d="M54.8203 49.2175C54.8203 53.2175 60.3503 53.7875 61.7603 58.5175C63.1703 63.2475 62.3103 71.3875 64.3503 73.4275C66.3903 75.4675 71.9603 72.6975 75.4203 72.4275C78.8803 72.1575 83.7703 74.4275 86.6003 72.5275C89.4303 70.6275 88.2103 59.9875 89.7803 56.8775C91.3503 53.7675 95.7003 51.6875 96.0103 48.5475C96.3203 45.4075 79.5703 43.7275 75.6503 43.7275C71.7303 43.7275 54.8203 45.1775 54.8203 49.2175Z" fill="white"/>
</g>
<g style="mix-blend-mode:multiply" opacity="0.35">
<path d="M81.1503 79.1274C81.1503 80.3774 79.0103 81.3974 76.3603 81.3974C73.7103 81.3974 71.5703 80.3974 71.5703 79.1274C71.5703 77.8574 73.7203 76.8574 76.3603 76.8574C79.0003 76.8574 81.1503 77.8774 81.1503 79.1274Z" fill="#A80000"/>
</g>
<g style="mix-blend-mode:multiply" opacity="0.35">
<path d="M81.4804 79.397C81.4804 80.647 79.3304 81.657 76.6904 81.657C74.0504 81.657 71.9004 80.657 71.9004 79.397C71.9004 78.137 74.0404 77.127 76.6904 77.127C79.3404 77.127 81.4804 78.137 81.4804 79.397Z" fill="#A80000"/>
</g>
<path d="M80.98 79.1272C80.98 80.2272 78.91 81.1272 76.36 81.1272C75.231 81.1494 74.1089 80.9454 73.06 80.5272C72.5942 80.3511 72.1906 80.0415 71.9 79.6372C71.8049 79.4838 71.7531 79.3076 71.75 79.1272C71.75 78.0272 73.82 77.1272 76.36 77.1272C77.2072 77.1214 78.0513 77.2291 78.87 77.4472C79.3147 77.572 79.7416 77.7535 80.14 77.9872C80.3647 78.0911 80.5595 78.2501 80.7063 78.4494C80.8532 78.6486 80.9473 78.8818 80.98 79.1272Z" fill="#363A4D"/>
<g style="mix-blend-mode:multiply" opacity="0.3">
<path d="M80.9804 79.1273C80.9804 80.2273 78.9104 81.1273 76.3604 81.1273C74.2204 81.1273 72.3604 80.4973 71.9004 79.6373C73.3149 80.2107 74.8353 80.4765 76.3604 80.4173C77.5104 80.4173 79.3604 80.0973 79.6704 79.1273C79.9804 78.1573 78.9304 77.4873 78.8804 77.4473C80.1404 77.8073 80.9804 78.4273 80.9804 79.1273Z" fill="#3C3C3C"/>
</g>
<g style="mix-blend-mode:screen" opacity="0.15">
<path d="M74.9797 77.6371C74.3997 77.7671 72.7797 78.2371 72.9097 79.0271C73.0397 79.8171 75.2097 79.4371 75.3997 79.3871C75.5897 79.3371 77.3297 78.7771 77.1897 78.1171C77.0497 77.4571 75.5597 77.5371 74.9797 77.6371Z" fill="white"/>
</g>
<g style="mix-blend-mode:screen" opacity="0.15">
<path d="M73.4797 78.0269C73.2397 78.0269 72.5796 78.2869 72.6296 78.5369C72.6796 78.7869 73.5596 78.6069 73.6296 78.5869C73.6996 78.5669 74.4196 78.3269 74.3696 78.1069C74.3196 77.8869 73.7197 77.9669 73.4797 78.0269Z" fill="white"/>
</g>
<g style="mix-blend-mode:multiply" opacity="0.3">
<path d="M80.9806 79.1273C80.9806 80.2273 78.9106 81.1273 76.3606 81.1273C75.2315 81.1496 74.1095 80.9456 73.0605 80.5273C74.2606 80.7494 75.4805 80.8466 76.7006 80.8173C78.8906 80.7673 79.8405 79.8773 80.1805 79.3373C80.3449 78.9023 80.3449 78.4223 80.1805 77.9873C80.3977 78.0964 80.5845 78.2576 80.7241 78.4566C80.8637 78.6555 80.9518 78.886 80.9806 79.1273Z" fill="#3C3C3C"/>
</g>
<g style="mix-blend-mode:multiply" opacity="0.35">
<path d="M81.1503 70.5376C81.1503 71.7876 79.0103 72.7976 76.3603 72.7976C73.7103 72.7976 71.5703 71.7976 71.5703 70.5376C71.5703 69.2776 73.7203 68.2676 76.3603 68.2676C79.0003 68.2676 81.1503 69.3176 81.1503 70.5376Z" fill="#A80000"/>
</g>
<g style="mix-blend-mode:multiply" opacity="0.35">
<path d="M81.4804 70.8274C81.4804 72.0774 79.3304 73.0974 76.6904 73.0974C74.0504 73.0974 71.9004 72.0974 71.9004 70.8274C71.9004 69.5574 74.0404 68.5674 76.6904 68.5674C79.3404 68.5674 81.4804 69.5374 81.4804 70.8274Z" fill="#A80000"/>
</g>
<path d="M80.98 70.5373C80.98 71.6373 78.91 72.5373 76.36 72.5373C75.2299 72.5617 74.1067 72.3541 73.06 71.9273C72.5921 71.7551 72.1875 71.4447 71.9 71.0373C71.8038 70.8882 71.7518 70.7148 71.75 70.5373C71.75 69.4273 73.82 68.5373 76.36 68.5373C77.2072 68.5316 78.0513 68.6392 78.87 68.8573C79.3163 68.9778 79.7437 69.1595 80.14 69.3973C80.3664 69.4989 80.5626 69.6572 80.7098 69.8569C80.857 70.0567 80.9501 70.291 80.98 70.5373Z" fill="#363A4D"/>
<g style="mix-blend-mode:multiply" opacity="0.3">
<path d="M80.9804 70.5374C80.9804 71.6374 78.9104 72.5374 76.3604 72.5374C74.2204 72.5374 72.3604 71.8974 71.9004 71.0374C73.3149 71.6108 74.8353 71.8767 76.3604 71.8174C77.5104 71.8174 79.3604 71.4974 79.6704 70.5374C79.9804 69.5774 78.9304 68.8974 78.8804 68.8574C80.1404 69.2474 80.9804 69.8574 80.9804 70.5374Z" fill="#3C3C3C"/>
</g>
<g style="mix-blend-mode:screen" opacity="0.15">
<path d="M74.9797 69.0776C74.3997 69.1976 72.7797 69.6776 72.9097 70.4576C73.0397 71.2376 75.2097 70.8676 75.3997 70.8276C75.5897 70.7876 77.3297 70.2176 77.1897 69.5576C77.0497 68.8976 75.5597 68.9576 74.9797 69.0776Z" fill="white"/>
</g>
<g style="mix-blend-mode:screen" opacity="0.15">
<path d="M73.4797 69.457C73.2397 69.517 72.5796 69.727 72.6296 69.977C72.6796 70.227 73.5596 70.037 73.6296 69.977C73.6996 69.917 74.4196 69.717 74.3696 69.507C74.3196 69.297 73.7197 69.397 73.4797 69.457Z" fill="white"/>
</g>
<g style="mix-blend-mode:multiply" opacity="0.3">
<path d="M80.9806 70.5375C80.9806 71.6375 78.9106 72.5375 76.3606 72.5375C75.2304 72.5618 74.1073 72.3542 73.0605 71.9275C74.2598 72.1554 75.4803 72.2526 76.7006 72.2175C78.8906 72.2175 79.8405 71.2875 80.1805 70.7475C80.3449 70.3125 80.3449 69.8325 80.1805 69.3975C80.3994 69.5043 80.5876 69.6649 80.7275 69.8643C80.8674 70.0637 80.9545 70.2953 80.9806 70.5375Z" fill="#3C3C3C"/>
</g>
<g style="mix-blend-mode:multiply" opacity="0.35">
<path d="M81.1503 61.9973C81.1503 63.2573 79.0103 64.2673 76.3603 64.2673C73.7103 64.2673 71.5703 63.2673 71.5703 61.9973C71.5703 60.7273 73.7203 59.7373 76.3603 59.7373C79.0003 59.7373 81.1503 60.7473 81.1503 61.9973Z" fill="#A80000"/>
</g>
<g style="mix-blend-mode:multiply" opacity="0.35">
<path d="M81.4804 62.2671C81.4804 63.5171 79.3304 64.5371 76.6904 64.5371C74.0504 64.5371 71.9004 63.5371 71.9004 62.2671C71.9004 60.9971 74.0404 59.9971 76.6904 59.9971C79.3404 59.9971 81.4804 61.0171 81.4804 62.2671Z" fill="#A80000"/>
</g>
<path d="M80.98 61.9977C80.98 63.1077 78.91 63.9977 76.36 63.9977C75.2303 64.017 74.1082 63.8096 73.06 63.3877C72.5921 63.2154 72.1875 62.9051 71.9 62.4977C71.8049 62.3443 71.7531 62.1681 71.75 61.9877C71.75 60.8877 73.82 59.9877 76.36 59.9877C77.208 59.9801 78.0528 60.0911 78.87 60.3177C79.3177 60.4338 79.7458 60.6158 80.14 60.8577C80.3664 60.9592 80.5626 61.1176 80.7098 61.3173C80.857 61.517 80.9501 61.7514 80.98 61.9977Z" fill="#363A4D"/>
<g style="mix-blend-mode:multiply" opacity="0.3">
<path d="M80.9804 61.9974C80.9804 63.1074 78.9104 63.9974 76.3604 63.9974C74.2204 63.9974 72.3604 63.3574 71.9004 62.4974C73.3149 63.0708 74.8353 63.3367 76.3604 63.2774C77.5104 63.2774 79.3604 62.9574 79.6704 61.9874C79.9804 61.0174 78.9304 60.3574 78.8804 60.3174C80.1404 60.6774 80.9804 61.2974 80.9804 61.9974Z" fill="#3C3C3C"/>
</g>
<g style="mix-blend-mode:screen" opacity="0.15">
<path d="M74.9797 60.5372C74.3997 60.6572 72.7797 61.1272 72.9097 61.9172C73.0397 62.7072 75.2097 62.3272 75.3997 62.2872C75.5897 62.2472 77.3297 61.6772 77.1897 61.0172C77.0497 60.3572 75.5597 60.3872 74.9797 60.5372Z" fill="white"/>
</g>
<g style="mix-blend-mode:screen" opacity="0.15">
<path d="M73.4797 60.8974C73.2397 60.9574 72.5796 61.1574 72.6296 61.4174C72.6796 61.6774 73.5596 61.4774 73.6296 61.4174C73.6996 61.3574 74.4196 61.1574 74.3696 60.9474C74.3196 60.7374 73.7197 60.8374 73.4797 60.8974Z" fill="white"/>
</g>
<g style="mix-blend-mode:multiply" opacity="0.3">
<path d="M80.9806 61.9974C80.9806 63.1074 78.9106 63.9974 76.3606 63.9974C75.2308 64.0168 74.1087 63.8093 73.0605 63.3874C74.2598 63.6153 75.4803 63.7126 76.7006 63.6774C78.8906 63.6774 79.8405 62.7374 80.1805 62.2074C80.3449 61.7724 80.3449 61.2924 80.1805 60.8574C80.3994 60.9643 80.5876 61.1249 80.7275 61.3243C80.8674 61.5236 80.9545 61.7553 80.9806 61.9974Z" fill="#3C3C3C"/>
</g>
<g style="mix-blend-mode:screen" opacity="0.15">
<path d="M97.1897 59.2975C99.7097 55.5675 107.37 54.7775 113.19 60.0275C119.01 65.2775 121.93 72.8875 119.27 76.6275C116.61 80.3675 106.79 77.5175 102.15 74.3175C97.5097 71.1175 94.6597 63.0175 97.1897 59.2975Z" fill="white"/>
</g>
<path d="M129.06 26.9472L129.78 27.6272C129.823 27.6658 129.878 27.6873 129.935 27.6873C129.993 27.6873 130.048 27.6658 130.09 27.6272L130.34 27.3772L131.04 26.6172L131.99 25.6172L133.17 24.3772L133.93 23.5772L134.17 23.3172C134.24 23.2472 134.17 23.1072 134.1 23.0072L133.39 22.3272C133.29 22.2372 133.14 22.2072 133.08 22.3272L132.08 23.3972L132.02 23.4572L129.97 25.6172L129.03 26.6172C128.93 26.7072 128.96 26.8472 129.06 26.9472Z" fill="#242733"/>
<path d="M131.25 29.0274L131.97 29.7074C132.014 29.7468 132.071 29.7685 132.13 29.7685C132.189 29.7685 132.246 29.7468 132.29 29.7074L132.52 29.4574L133.33 28.6074L136.12 25.6674L136.34 25.4274C136.371 25.3778 136.382 25.3181 136.371 25.2605C136.36 25.2028 136.327 25.1517 136.28 25.1174L135.56 24.4274C135.45 24.3274 135.31 24.3074 135.25 24.4274L135.01 24.6774L132.64 27.1574L131.4 28.4674L131.16 28.7174C131.12 28.7874 131.15 28.9274 131.25 29.0274Z" fill="#242733"/>
<path d="M130.269 27.5372C130.254 27.5894 130.254 27.645 130.269 27.6972C130.279 27.7385 130.3 27.7764 130.329 27.8072L131.049 28.4772C131.078 28.5071 131.112 28.5309 131.149 28.5472C131.197 28.5612 131.247 28.5621 131.294 28.5497C131.342 28.5374 131.385 28.5123 131.419 28.4772L132.659 27.1672L135.029 24.6872C135.051 24.6473 135.063 24.6026 135.063 24.5572C135.063 24.5117 135.051 24.467 135.029 24.4272C135.019 24.3888 134.999 24.3542 134.969 24.3272L134.249 23.6472C134.221 23.6201 134.187 23.5996 134.149 23.5872C134.095 23.5673 134.034 23.5673 133.979 23.5872L133.879 23.6572L133.119 24.4572L131.939 25.6972L130.999 26.6972L130.289 27.4572C130.278 27.4824 130.271 27.5095 130.269 27.5372Z" fill="#242733"/>
<path d="M132.469 29.7671C132.479 29.8084 132.5 29.8463 132.529 29.877L133.249 30.5571C133.285 30.5664 133.323 30.5664 133.359 30.5571C133.385 30.5662 133.413 30.5662 133.439 30.5571C133.482 30.5672 133.526 30.5672 133.569 30.5571L134.139 29.9571L135.369 28.6671L137.179 26.7571C137.202 26.7334 137.219 26.705 137.229 26.6739C137.24 26.6427 137.243 26.6096 137.239 26.5771V26.4971C137.222 26.46 137.198 26.4262 137.169 26.3971L136.459 25.7171C136.428 25.6877 136.39 25.667 136.349 25.6571C136.308 25.6418 136.263 25.6394 136.22 25.6501C136.177 25.6608 136.138 25.6841 136.109 25.7171L133.319 28.6571L132.509 29.5071C132.479 29.5424 132.459 29.5854 132.452 29.6314C132.445 29.6773 132.451 29.7243 132.469 29.7671Z" fill="#242733"/>
<g style="mix-blend-mode:multiply" opacity="0.3">
<path d="M131.16 28.537C131.207 28.551 131.257 28.5519 131.305 28.5396C131.352 28.5272 131.396 28.5021 131.43 28.467L132.67 27.157L135.04 24.677C135.062 24.6372 135.074 24.5924 135.074 24.547C135.074 24.5015 135.062 24.4568 135.04 24.417L132.53 27.057L131.16 28.537Z" fill="#242733"/>
</g>
<g style="mix-blend-mode:multiply" opacity="0.3">
<path d="M133.359 30.6069C133.385 30.616 133.413 30.616 133.439 30.6069C133.482 30.6171 133.527 30.6171 133.569 30.6069L134.139 30.0069L135.369 28.7169L137.179 26.8069C137.202 26.7832 137.219 26.7548 137.23 26.7237C137.24 26.6925 137.243 26.6594 137.239 26.6269V26.5469L134.139 29.8169L133.359 30.6069Z" fill="#242733"/>
</g>
<g style="mix-blend-mode:multiply" opacity="0.3">
<path d="M132.47 29.7675L133.33 28.8575L136.39 25.6375C136.348 25.6223 136.303 25.6199 136.26 25.6306C136.218 25.6413 136.179 25.6646 136.15 25.6975L133.36 28.6375L132.55 29.4875C132.509 29.52 132.479 29.5645 132.465 29.6147C132.45 29.6649 132.452 29.7183 132.47 29.7675Z" fill="#242733"/>
</g>
<g style="mix-blend-mode:multiply" opacity="0.3">
<path d="M130.269 27.5374C130.254 27.5896 130.254 27.6452 130.269 27.6974L131.139 26.7774L131.919 25.9574L133.279 24.5374L134.209 23.5374C134.155 23.5175 134.094 23.5175 134.039 23.5374L133.939 23.6074L133.179 24.4074L131.999 25.6474L131.059 26.6474L130.349 27.4074C130.309 27.4403 130.281 27.4862 130.269 27.5374Z" fill="#242733"/>
</g>
<path d="M133.21 31.3775L133.99 34.6775C134.017 34.7965 134.08 34.9045 134.17 34.9875L139.33 39.8875C139.447 39.9994 139.603 40.0618 139.765 40.0618C139.927 40.0618 140.083 39.9994 140.2 39.8875L141.02 39.0275L142.58 37.3675L146.04 33.7275L146.86 32.8675C146.917 32.8116 146.963 32.7447 146.994 32.6709C147.025 32.597 147.041 32.5177 147.041 32.4375C147.041 32.3573 147.025 32.278 146.994 32.2041C146.963 32.1303 146.917 32.0634 146.86 32.0075L141.7 27.0975C141.613 27.0173 141.506 26.9621 141.39 26.9375L138.05 26.3275C137.949 26.3114 137.846 26.3192 137.748 26.3505C137.651 26.3818 137.563 26.4356 137.49 26.5075L137.24 26.7775L135.43 28.6875L134.2 29.9775L133.63 30.5875L133.38 30.8575C133.313 30.9249 133.263 31.0071 133.233 31.0974C133.204 31.1876 133.196 31.2836 133.21 31.3775Z" fill="#242733"/>
<path d="M141.02 39.0077L141.33 39.3077L143.62 41.4877C143.646 41.5143 143.677 41.5355 143.711 41.5499C143.745 41.5643 143.782 41.5718 143.82 41.5718C143.857 41.5718 143.894 41.5643 143.928 41.5499C143.962 41.5355 143.993 41.5143 144.02 41.4877L148.67 36.5877C148.696 36.5617 148.717 36.5306 148.732 36.4962C148.746 36.4619 148.754 36.425 148.754 36.3877C148.754 36.3505 148.746 36.3136 148.732 36.2793C148.717 36.2449 148.696 36.2138 148.67 36.1877L146.37 34.0077L146.03 33.6777L142.57 37.3177L141.02 39.0077Z" fill="#989898"/>
<g style="mix-blend-mode:multiply" opacity="0.3">
<path d="M141.02 39.0073L141.04 39.0273H141.05L141.36 39.3273L146.4 34.0273L146.06 33.6973L142.6 37.3373L141.02 39.0073Z" fill="#242733"/>
</g>
<g style="mix-blend-mode:screen" opacity="0.7">
<g style="mix-blend-mode:screen" opacity="0.7">
<path d="M144.141 40.8573C144.451 40.4673 144.781 40.0873 145.141 39.7073L146.141 38.5973C146.481 38.2273 146.821 37.8673 147.141 37.5073C147.461 37.1473 147.851 36.7873 148.211 36.4473C147.901 36.8373 147.571 37.2173 147.211 37.5973C146.851 37.9773 146.541 38.3373 146.211 38.7073C145.881 39.0773 145.521 39.4473 145.211 39.7973C144.901 40.1473 144.511 40.5373 144.141 40.8573Z" fill="white"/>
</g>
</g>
<path d="M79.2004 34.9469V35.9469C79.2004 36.0969 79.1204 36.2169 79.0204 36.2169H73.0804C72.9804 36.2169 72.9004 36.0969 72.9004 35.9569V34.9569C72.9004 34.8169 72.9804 34.6969 73.0904 34.6969H77.5104H79.0004C79.1204 34.6869 79.2004 34.8069 79.2004 34.9469Z" fill="#242733"/>
<path d="M79.2002 37.967V38.967C79.2002 39.107 79.1102 39.227 79.0102 39.227H73.4301H73.0901C72.9901 39.227 72.9102 39.117 72.9102 38.967V37.967C72.9102 37.827 72.9901 37.707 73.0901 37.707H79.0302C79.1102 37.707 79.2002 37.827 79.2002 37.967Z" fill="#242733"/>
<path d="M78.9296 37.4468C78.9399 37.4828 78.9399 37.5209 78.9296 37.5568C78.9104 37.5989 78.8793 37.6345 78.8403 37.6593C78.8013 37.6842 78.7559 37.6972 78.7097 37.6968H73.4597C73.4111 37.6955 73.3637 37.6819 73.3218 37.6575C73.2799 37.633 73.2447 37.5984 73.2196 37.5568C73.2148 37.517 73.2148 37.4767 73.2196 37.4368V36.4368C73.2106 36.3973 73.2106 36.3563 73.2196 36.3168C73.2456 36.2708 73.2837 36.2328 73.3297 36.2068C73.3658 36.1979 73.4035 36.1979 73.4396 36.2068H78.6896C78.729 36.1967 78.7703 36.1967 78.8096 36.2068C78.8344 36.2169 78.8569 36.2318 78.8758 36.2507C78.8947 36.2696 78.9096 36.2921 78.9197 36.3168C78.9287 36.3563 78.9287 36.3973 78.9197 36.4368L78.9296 37.4468Z" fill="#242733"/>
<path d="M78.9304 39.477V40.477C78.9352 40.5169 78.9352 40.5571 78.9304 40.597C78.8838 40.6412 78.8242 40.6692 78.7604 40.677H73.4404C73.3991 40.6671 73.3611 40.6464 73.3304 40.617C73.3052 40.5987 73.2847 40.5747 73.2704 40.547C73.2659 40.5071 73.2659 40.4669 73.2704 40.427V39.427C73.2614 39.3875 73.2614 39.3465 73.2704 39.307C73.2932 39.2656 73.3263 39.2308 73.3667 39.2063C73.4071 39.1817 73.4532 39.1682 73.5004 39.167C73.5004 39.167 73.5004 39.167 73.5004 39.167H78.7504C78.8176 39.1696 78.8812 39.1981 78.9278 39.2466C78.9744 39.2951 79.0005 39.3597 79.0004 39.427L78.9304 39.477Z" fill="#242733"/>
<g style="mix-blend-mode:multiply" opacity="0.3">
<path d="M78.8994 37.5371C78.8802 37.5792 78.8492 37.6148 78.8101 37.6396C78.7711 37.6644 78.7257 37.6775 78.6794 37.6771H73.4294C73.3809 37.6757 73.3335 37.6622 73.2916 37.6377C73.2497 37.6133 73.2145 37.5787 73.1895 37.5371H78.8994Z" fill="#242733"/>
</g>
<g style="mix-blend-mode:multiply" opacity="0.3">
<path d="M78.9002 40.5871C78.8536 40.6313 78.794 40.6593 78.7302 40.6671H73.4102C73.3689 40.6572 73.3309 40.6365 73.3002 40.6071L73.2402 40.5371H78.9502L78.9002 40.5871Z" fill="#242733"/>
</g>
<g style="mix-blend-mode:multiply" opacity="0.3">
<path d="M78.8994 39.3568H73.1895C73.2122 39.3154 73.2454 39.2806 73.2858 39.2561C73.3261 39.2315 73.3722 39.218 73.4195 39.2168H78.6695C78.7167 39.218 78.7628 39.2315 78.8032 39.2561C78.8435 39.2806 78.8767 39.3154 78.8994 39.3568Z" fill="#242733"/>
</g>
<g style="mix-blend-mode:multiply" opacity="0.3">
<path d="M78.8992 36.3373H73.1992C73.2252 36.2913 73.2632 36.2533 73.3092 36.2273C73.3453 36.2185 73.3831 36.2185 73.4192 36.2273H78.6692C78.7086 36.2172 78.7499 36.2172 78.7892 36.2273C78.814 36.2374 78.8365 36.2523 78.8553 36.2712C78.8742 36.2901 78.8891 36.3126 78.8992 36.3373Z" fill="#242733"/>
</g>
<g style="mix-blend-mode:multiply" opacity="0.3">
<path d="M129.059 26.9475L129.779 27.6275C129.821 27.6662 129.877 27.6876 129.934 27.6876C129.991 27.6876 130.047 27.6662 130.089 27.6275L130.339 27.3775C130.307 27.404 130.283 27.4385 130.269 27.4775C130.254 27.5297 130.254 27.5853 130.269 27.6375C130.279 27.6789 130.3 27.7168 130.329 27.7475L131.049 28.4175C131.077 28.4475 131.111 28.4713 131.149 28.4875C131.196 28.5015 131.246 28.5024 131.294 28.4901C131.341 28.4778 131.385 28.4527 131.419 28.4175L131.179 28.6675C131.109 28.7375 131.179 28.8775 131.239 28.9775L131.959 29.6575C132.003 29.6969 132.06 29.7187 132.119 29.7187C132.178 29.7187 132.235 29.6969 132.279 29.6575L132.509 29.4075C132.477 29.4419 132.456 29.4844 132.447 29.5304C132.438 29.5763 132.442 29.6239 132.459 29.6675C132.469 29.7089 132.49 29.7468 132.519 29.7775L133.239 30.4575C133.275 30.4668 133.313 30.4668 133.349 30.4575C133.375 30.4667 133.403 30.4667 133.429 30.4575C133.472 30.4677 133.516 30.4677 133.559 30.4575L133.309 30.7275C133.24 30.8011 133.189 30.8908 133.163 30.9886C133.137 31.0863 133.136 31.1891 133.159 31.2875L133.939 34.5875C133.967 34.7066 134.029 34.8146 134.119 34.8975L139.279 39.7975C139.396 39.9094 139.552 39.9718 139.714 39.9718C139.876 39.9718 140.032 39.9094 140.149 39.7975L140.969 38.9375L142.519 37.2475C141.532 37.8057 140.398 38.0498 139.269 37.9475C137.819 37.6475 135.539 34.9475 134.919 34.1075C134.299 33.2675 134.169 30.6075 134.129 29.8475C134.129 29.7275 134.129 29.6575 134.129 29.6575C134.049 29.6575 133.269 29.8275 133.129 29.6575C133.106 29.3647 133.151 29.0706 133.259 28.7975L133.349 28.5675H133.269C133.019 28.6475 132.269 28.8875 132.099 28.6375C131.929 28.3875 132.369 27.5175 132.609 27.0675C132.657 26.9902 132.701 26.9101 132.739 26.8275C132.668 26.8746 132.595 26.918 132.519 26.9575C132.119 27.1975 131.339 27.6275 131.219 27.3375C131.194 27.1828 131.222 27.0241 131.299 26.8875C131.463 26.5398 131.653 26.2054 131.869 25.8875L132.189 25.4275L131.939 25.6075C131.545 25.8922 131.11 26.1148 130.649 26.2675C130.574 26.3045 130.492 26.3238 130.409 26.3238C130.326 26.3238 130.244 26.3045 130.169 26.2675C130.079 26.1975 130.089 26.0475 130.169 25.8775C130.673 25.0228 131.285 24.2364 131.989 23.5375L132.049 23.4775C131.375 24.0372 130.66 24.5453 129.909 24.9975C129.73 25.0952 129.532 25.1564 129.329 25.1775L129.939 25.6975L128.999 26.6975C128.929 26.7075 128.959 26.8475 129.059 26.9475Z" fill="#242733"/>
</g>
<g style="mix-blend-mode:screen" opacity="0.15">
<path d="M137.82 28.5375C138.88 27.8175 141.73 28.5375 142.98 30.1775C144.23 31.8175 144.5 34.0475 143.08 35.3375C141.66 36.6275 138.6 35.1275 137.35 33.4675C136.836 32.7218 136.601 31.8186 136.687 30.9169C136.773 30.0152 137.174 29.1727 137.82 28.5375Z" fill="#242733"/>
</g>
<path d="M103.219 5.23718C94.1492 2.72718 77.5492 3.90719 67.4692 6.54719C66.7192 5.95719 65.9292 5.39719 65.1092 4.86719C59.7199 1.45011 53.415 -0.238623 47.0392 0.0271826C38.8892 0.307183 33.4892 3.10719 30.3992 5.40719C26.7492 8.12719 24.3992 11.6372 24.2492 14.5672C23.9292 21.0572 26.3092 25.3372 31.1192 26.9472C36.7292 28.8172 44.1192 26.4372 47.4892 23.0472C48.0092 22.5272 48.5892 21.8972 49.2592 21.1572C52.7092 17.3872 58.4692 11.0772 66.7492 8.67718L67.0292 8.59718C69.5877 10.6483 71.6234 13.2769 72.9692 16.2672C75.7592 22.9272 75.1192 35.2672 75.1192 35.3872L76.9692 35.4872C76.9692 35.4172 76.9692 35.1372 76.9692 34.6872C76.9692 34.5272 76.9692 34.3472 76.9692 34.1472C77.0592 30.6672 77.0492 21.3272 74.6292 15.5472C73.3525 12.6852 71.4889 10.1232 69.1592 8.02718C79.0892 5.68718 94.4892 4.76718 102.679 7.02718C111.819 9.53718 124.899 19.4572 130.469 25.3372L131.819 24.0672C126.109 18.0272 112.639 7.83718 103.219 5.23718ZM47.8892 19.9072C47.2292 20.6272 46.6592 21.2472 46.1692 21.7372C43.2492 24.6772 36.5892 26.8172 31.7092 25.1872C27.7092 23.8472 25.8292 20.3072 26.0992 14.6572C26.3092 10.3172 33.5092 2.33718 47.0992 1.88718H48.0992C54.2089 1.87132 60.1755 3.73567 65.1892 7.22719C56.9892 9.94719 51.3292 16.1372 47.8892 19.9072Z" fill="#242733"/>
<g style="mix-blend-mode:multiply" opacity="0.3">
<path d="M79.0192 36.1975H78.6692C78.7085 36.1873 78.7498 36.1873 78.7892 36.1975C78.8139 36.2076 78.8364 36.2225 78.8553 36.2414C78.8742 36.2603 78.8891 36.2827 78.8991 36.3075C78.9081 36.347 78.9081 36.388 78.8991 36.4275V37.4275C78.9094 37.4634 78.9094 37.5016 78.8991 37.5375C78.8799 37.5796 78.8488 37.6151 78.8098 37.64C78.7708 37.6648 78.7254 37.6778 78.6791 37.6775H79.0192C79.1092 37.6775 79.1992 37.7975 79.1992 37.9375V38.9375C79.1992 39.0775 79.1092 39.1975 79.0092 39.1975H78.6791C78.7463 39.2001 78.81 39.2286 78.8566 39.2771C78.9032 39.3256 78.9292 39.3902 78.9291 39.4575V40.4575C78.934 40.4974 78.934 40.5376 78.9291 40.5775C78.8825 40.6217 78.8229 40.6497 78.7592 40.6575H73.4192L75.1692 40.5175C76.5792 40.3975 78.3592 40.2375 78.4792 40.1675C78.5992 40.0975 78.4792 39.3875 78.4792 39.2975H73.1491L74.9291 39.1675C76.4091 39.0475 78.2992 38.8775 78.4792 38.8075C78.6592 38.7375 78.4792 37.7475 78.4792 37.6575H73.3691L75.1692 37.5175C76.2842 37.4605 77.3937 37.3234 78.4892 37.1075C78.6492 36.9375 78.4892 36.2975 78.4892 36.2975H73.1191C73.1191 36.2975 73.8592 36.2475 74.7992 36.1575C76.1005 36.076 77.396 35.9191 78.6791 35.6875C78.8891 35.5775 78.8491 35.0575 78.7791 34.6875H78.9091C79.0091 34.6875 79.0891 34.8075 79.0891 34.9475V35.9475C79.1991 36.0775 79.1192 36.1975 79.0192 36.1975Z" fill="#242733"/>
</g>
<g style="mix-blend-mode:multiply" opacity="0.3">
<path d="M77.0199 34.1475C77.0199 34.3475 77.0199 34.5275 77.0199 34.6875H75.1699C75.7232 34.6837 76.2751 34.6336 76.8199 34.5375C76.9284 34.4336 76.9989 34.2962 77.0199 34.1475Z" fill="#242733"/>
</g>
<g style="mix-blend-mode:multiply" opacity="0.3">
<path d="M0 73.9277L0.0899963 74.0677L0 73.9277Z" fill="#3C3C3C"/>
</g>
<g style="mix-blend-mode:screen" opacity="0.15">
<path d="M50.9397 57.3478C48.9397 53.3478 41.4197 51.5578 34.9397 56.0078C28.4597 60.4578 24.6197 67.6278 26.7697 71.6878C28.9197 75.7478 39.0297 74.1778 44.0497 71.5978C49.0697 69.0178 52.9597 61.3678 50.9397 57.3478Z" fill="white"/>
</g>
<path d="M40.4507 75.7969C45.8244 75.7969 50.1807 71.4406 50.1807 66.0669C50.1807 60.6932 45.8244 56.3369 40.4507 56.3369C35.077 56.3369 30.7207 60.6932 30.7207 66.0669C30.7207 71.4406 35.077 75.7969 40.4507 75.7969Z" fill="#BF1D2A"/>
<g style="mix-blend-mode:screen" opacity="0.2">
<g style="mix-blend-mode:screen" opacity="0.2">
<path d="M40.1501 56.2274C39.162 56.3162 38.1882 56.5244 37.2501 56.8474C36.3363 57.1939 35.4748 57.665 34.6901 58.2474C33.9223 58.8281 33.2479 59.5228 32.6901 60.3074C32.4001 60.6941 32.1394 61.1019 31.9101 61.5274L31.6001 62.1774C31.5451 62.2837 31.4983 62.394 31.4602 62.5074L31.3401 62.8474C30.7031 64.6859 30.6162 66.6703 31.0901 68.5574C31.5965 70.4746 32.6368 72.2085 34.0901 73.5574C32.8259 72.6728 31.7994 71.4899 31.1016 70.1136C30.4039 68.7373 30.0565 67.2101 30.0901 65.6674C30.1137 64.6455 30.2959 63.6334 30.6301 62.6674L30.7701 62.3074C30.8116 62.184 30.8617 62.0637 30.9201 61.9474L31.2601 61.2474C31.5129 60.7981 31.7969 60.367 32.1101 59.9574C32.7363 59.1355 33.4971 58.4255 34.3601 57.8574C35.209 57.2852 36.1442 56.853 37.1301 56.5774C38.1126 56.3052 39.1314 56.1871 40.1501 56.2274Z" fill="white"/>
</g>
</g>
<g style="mix-blend-mode:multiply" opacity="0.2">
<path d="M32.4409 67.7377C32.4381 65.9036 32.9544 64.1062 33.93 62.5531C34.9056 61 36.3007 59.7546 37.9542 58.9608C39.6076 58.167 41.4519 57.8573 43.2739 58.0673C45.096 58.2773 46.8214 58.9986 48.2509 60.1477C47.4281 59.0334 46.3769 58.1076 45.1675 57.4322C43.9582 56.7569 42.6186 56.3475 41.2383 56.2315C39.858 56.1154 38.4689 56.2955 37.1638 56.7595C35.8587 57.2235 34.6677 57.9609 33.6704 58.9222C32.6732 59.8835 31.8927 61.0467 31.3812 62.3339C30.8697 63.6212 30.6388 65.0028 30.7042 66.3864C30.7696 67.77 31.1296 69.1237 31.7602 70.357C32.3908 71.5902 33.2775 72.6747 34.3609 73.5377C33.1109 71.8627 32.4373 69.8277 32.4409 67.7377Z" fill="#3C3C3C"/>
</g>
<g style="mix-blend-mode:multiply" opacity="0.25">
<path d="M47.0492 62.9174H42.9892V58.7674C42.9892 58.648 42.9418 58.5336 42.8574 58.4492C42.773 58.3648 42.6585 58.3174 42.5392 58.3174H38.3592C38.2398 58.3174 38.1253 58.3648 38.041 58.4492C37.9566 58.5336 37.9091 58.648 37.9091 58.7674V62.9174H33.8192C33.6998 62.9174 33.5853 62.9648 33.5009 63.0492C33.4166 63.1336 33.3691 63.248 33.3691 63.3674V67.3674C33.3718 67.485 33.4203 67.5969 33.5044 67.6791C33.5885 67.7614 33.7015 67.8074 33.8192 67.8074H37.8792V71.9674C37.8792 72.0867 37.9266 72.2012 38.011 72.2856C38.0953 72.37 38.2098 72.4174 38.3292 72.4174H42.5092C42.6285 72.4174 42.743 72.37 42.8274 72.2856C42.9118 72.2012 42.9592 72.0867 42.9592 71.9674V67.8074H47.0192C47.1368 67.8074 47.2498 67.7614 47.3339 67.6791C47.418 67.5969 47.4665 67.485 47.4691 67.3674V63.3674C47.4694 63.2531 47.4261 63.1429 47.3481 63.0593C47.2701 62.9758 47.1632 62.925 47.0492 62.9174Z" fill="#A80000"/>
</g>
<path d="M46.0199 63.1974H41.8199V59.0174C41.8199 58.898 41.7724 58.7836 41.688 58.6992C41.6037 58.6148 41.4892 58.5674 41.3698 58.5674H38.9199C38.8005 58.5674 38.686 58.6148 38.6017 58.6992C38.5173 58.7836 38.4698 58.898 38.4698 59.0174V63.1974H34.2899C34.1705 63.1974 34.056 63.2448 33.9716 63.3292C33.8873 63.4136 33.8398 63.528 33.8398 63.6474V66.1274C33.8398 66.2467 33.8873 66.3612 33.9716 66.4456C34.056 66.53 34.1705 66.5774 34.2899 66.5774H38.4698V70.7574C38.4698 70.8767 38.5173 70.9912 38.6017 71.0756C38.686 71.16 38.8005 71.2074 38.9199 71.2074H41.3899C41.5092 71.2074 41.6236 71.16 41.708 71.0756C41.7924 70.9912 41.8398 70.8767 41.8398 70.7574V66.5374H46.0199C46.1392 66.5374 46.2537 66.49 46.338 66.4056C46.4224 66.3212 46.4698 66.2067 46.4698 66.0874V63.6074C46.4598 63.4951 46.408 63.3907 46.3247 63.3147C46.2414 63.2388 46.1326 63.1969 46.0199 63.1974Z" fill="#363A4D"/>
<g style="mix-blend-mode:screen" opacity="0.4">
<g style="mix-blend-mode:screen" opacity="0.4">
<path d="M34.2891 63.537L35.4491 63.477H36.5991H38.899L38.8191 63.537C38.8191 62.817 38.8191 62.097 38.8191 61.377C38.8191 60.647 38.819 59.927 38.899 59.207C38.949 59.927 38.9691 60.647 38.9891 61.377C39.0091 62.107 38.9891 62.817 38.9891 63.537V63.647H38.869C38.109 63.647 37.3391 63.647 36.5691 63.647H35.4191L34.2891 63.537Z" fill="white"/>
</g>
</g>
<g style="mix-blend-mode:screen" opacity="0.4">
<g style="mix-blend-mode:screen" opacity="0.4">
<path d="M38.8209 66.877C38.9809 68.0951 38.9809 69.3288 38.8209 70.547C38.6743 69.328 38.6743 68.0959 38.8209 66.877Z" fill="white"/>
</g>
</g>
<path d="M40.8304 60.4473H39.6504L40.2404 59.2773L40.8304 60.4473Z" fill="#B8BBCC"/>
<path d="M40.8304 69.0576H39.6504L40.2404 70.2376L40.8304 69.0576Z" fill="#B8BBCC"/>
<path d="M44.5508 65.337V64.167L45.7208 64.757L44.5508 65.337Z" fill="#B8BBCC"/>
<path d="M35.9398 65.337V64.167L34.7598 64.757L35.9398 65.337Z" fill="#B8BBCC"/>
<g style="mix-blend-mode:multiply" opacity="0.3">
<path d="M105.89 67.057C105.874 67.8926 105.571 68.6974 105.032 69.3361C104.493 69.9748 103.751 70.4086 102.93 70.5646C102.109 70.7206 101.259 70.5893 100.524 70.1928C99.7879 69.7962 99.2111 69.1586 98.89 68.387C98.8857 68.3572 98.8857 68.3269 98.89 68.297C98.6887 67.7483 98.6229 67.159 98.6982 66.5794C98.7735 65.9998 98.9877 65.4469 99.3224 64.9678C99.6572 64.4887 100.103 64.0975 100.621 63.8275C101.14 63.5575 101.715 63.4167 102.3 63.417C102.638 63.4155 102.975 63.4627 103.3 63.557C104.101 63.7721 104.806 64.2513 105.3 64.917C105.713 65.5524 105.919 66.2999 105.89 67.057Z" fill="#363A4D"/>
</g>
<path d="M105.69 67.057C105.693 67.8591 105.416 68.637 104.905 69.2556C104.395 69.8742 103.683 70.2943 102.895 70.4429C102.107 70.5915 101.292 70.4592 100.591 70.069C99.8903 69.6788 99.3484 69.0553 99.0597 68.307V68.227C98.9181 67.8533 98.8469 67.4567 98.8497 67.057C98.8497 66.1473 99.2111 65.2749 99.8543 64.6317C100.498 63.9884 101.37 63.627 102.28 63.627C102.594 63.6249 102.907 63.6653 103.21 63.747C103.954 63.9562 104.606 64.4108 105.06 65.037C105.475 65.6281 105.696 66.3344 105.69 67.057Z" fill="#363A4D"/>
<g style="mix-blend-mode:multiply" opacity="0.15">
<path d="M105.689 67.0569C105.693 67.8664 105.41 68.6511 104.891 69.2723C104.372 69.8935 103.65 70.3111 102.853 70.4511C102.056 70.5912 101.234 70.4447 100.535 70.0377C99.8349 69.6306 99.3017 68.9892 99.0293 68.2269C99.4536 68.8139 100.053 69.2516 100.741 69.4772C101.429 69.7028 102.171 69.7047 102.861 69.4827C103.55 69.2606 104.152 68.826 104.579 68.2411C105.006 67.6563 105.237 66.9512 105.239 66.2269C105.241 65.8241 105.17 65.4243 105.029 65.0469C105.454 65.6315 105.685 66.3344 105.689 67.0569Z" fill="#363A4D"/>
</g>
<g style="mix-blend-mode:screen" opacity="0.15">
<path d="M101.82 64.3875C102.205 64.6202 102.483 64.9952 102.594 65.4314C102.704 65.8675 102.638 66.3296 102.41 66.7175C101.96 67.6275 100.96 68.4575 100.03 67.9975C99.6241 67.731 99.3369 67.3178 99.2288 66.8443C99.1207 66.3708 99.2 65.8738 99.4502 65.4575C99.6528 65.0259 100.003 64.681 100.438 64.4848C100.872 64.2886 101.362 64.2541 101.82 64.3875Z" fill="white"/>
</g>
<g style="mix-blend-mode:screen" opacity="0.15">
<path d="M100.91 64.5377C101.08 64.7177 100.99 65.0877 100.7 65.3577C100.41 65.6277 99.9804 65.8377 99.7704 65.6177C99.5604 65.3977 99.7704 65.0377 100.07 64.7877C100.37 64.5377 100.74 64.3177 100.91 64.5377Z" fill="white"/>
</g>
<g style="mix-blend-mode:multiply" opacity="0.15">
<path d="M105.691 67.0571C105.694 67.8591 105.416 68.637 104.906 69.2556C104.395 69.8742 103.684 70.2943 102.896 70.4429C102.108 70.5915 101.293 70.4592 100.592 70.069C99.8911 69.6788 99.3493 69.0553 99.0605 68.3071C99.6634 68.734 100.363 69.0034 101.097 69.0907C101.831 69.178 102.574 69.0805 103.261 68.8071C103.75 68.4972 104.147 68.062 104.41 67.5467C104.674 67.0315 104.795 66.4549 104.761 65.8771C104.665 65.4297 104.474 65.0081 104.202 64.6407C103.929 64.2733 103.581 63.9685 103.181 63.7471C103.925 63.9562 104.577 64.4108 105.031 65.0371C105.457 65.6245 105.688 66.3312 105.691 67.0571Z" fill="#363A4D"/>
</g>
<g style="mix-blend-mode:multiply" opacity="0.3">
<path d="M115.681 63.7476C115.665 64.5832 115.362 65.3879 114.823 66.0266C114.284 66.6654 113.542 67.0991 112.721 67.2551C111.9 67.4111 111.05 67.2799 110.315 66.8833C109.579 66.4868 109.002 65.8492 108.681 65.0776V64.9976C108.536 64.5967 108.462 64.1738 108.461 63.7476C108.464 62.7839 108.848 61.8606 109.531 61.1802C110.213 60.4997 111.137 60.1176 112.101 60.1176C112.439 60.1126 112.776 60.1563 113.101 60.2476C113.906 60.4601 114.612 60.944 115.101 61.6176C115.513 62.249 115.716 62.9943 115.681 63.7476Z" fill="#363A4D"/>
</g>
<path d="M115.481 63.7475C115.487 64.5505 115.211 65.33 114.701 65.9504C114.191 66.5708 113.48 66.9927 112.691 67.1426C111.902 67.2925 111.086 67.1609 110.384 66.7708C109.682 66.3806 109.14 65.7567 108.851 65.0075V64.9275C108.714 64.5491 108.643 64.15 108.641 63.7475C108.643 62.8369 109.007 61.9645 109.652 61.3216C110.297 60.6786 111.17 60.3175 112.081 60.3175C112.392 60.3144 112.702 60.3582 113.001 60.4475C113.735 60.6606 114.376 61.1151 114.821 61.7375C115.253 62.3183 115.484 63.0237 115.481 63.7475Z" fill="#363A4D"/>
<g style="mix-blend-mode:multiply" opacity="0.15">
<path d="M115.48 63.7468C115.486 64.5572 115.206 65.3436 114.687 65.9666C114.169 66.5896 113.447 67.009 112.649 67.1504C111.851 67.2918 111.029 67.146 110.328 66.739C109.627 66.332 109.093 65.69 108.82 64.9268C109.245 65.5139 109.844 65.9516 110.532 66.1772C111.22 66.4027 111.962 66.4046 112.652 66.1826C113.341 65.9606 113.943 65.526 114.37 64.9411C114.797 64.3563 115.028 63.6511 115.03 62.9268C115.033 62.5272 114.962 62.1305 114.82 61.7568C115.248 62.3321 115.48 63.0299 115.48 63.7468Z" fill="#363A4D"/>
</g>
<g style="mix-blend-mode:screen" opacity="0.15">
<path d="M111.649 61.0877C112.035 61.3204 112.312 61.6954 112.423 62.1316C112.533 62.5677 112.467 63.0298 112.239 63.4177C111.789 64.3177 110.789 65.1577 109.859 64.6877C109.454 64.4231 109.167 64.0116 109.059 63.5397C108.951 63.0679 109.03 62.5725 109.279 62.1577C109.482 61.7261 109.832 61.3812 110.267 61.185C110.701 60.9888 111.192 60.9543 111.649 61.0877Z" fill="white"/>
</g>
<g style="mix-blend-mode:screen" opacity="0.15">
<path d="M110.699 61.1969C110.869 61.3769 110.779 61.7369 110.489 62.0069C110.199 62.2769 109.769 62.4869 109.559 62.2769C109.349 62.0669 109.559 61.6969 109.859 61.4469C110.159 61.1969 110.529 61.0169 110.699 61.1969Z" fill="white"/>
</g>
<g style="mix-blend-mode:multiply" opacity="0.15">
<path d="M115.48 63.7473C115.486 64.5502 115.21 65.3297 114.7 65.9501C114.19 66.5705 113.479 66.9924 112.69 67.1423C111.901 67.2922 111.085 67.1607 110.383 66.7705C109.681 66.3804 109.139 65.7564 108.85 65.0073C109.452 65.4342 110.153 65.7036 110.886 65.7909C111.62 65.8782 112.363 65.7807 113.05 65.5073C113.539 65.1974 113.936 64.7622 114.199 64.2469C114.463 63.7317 114.584 63.1551 114.55 62.5773C114.457 62.1287 114.268 61.7057 113.995 61.3379C113.722 60.97 113.372 60.6661 112.97 60.4473C113.715 60.6543 114.368 61.1093 114.82 61.7373C115.252 62.318 115.483 63.0235 115.48 63.7473Z" fill="#363A4D"/>
</g>
<g style="mix-blend-mode:multiply" opacity="0.3">
<path d="M125.4 60.4477C125.384 61.2833 125.081 62.088 124.542 62.7267C124.003 63.3654 123.261 63.7992 122.44 63.9552C121.619 64.1112 120.769 63.9799 120.033 63.5834C119.298 63.1869 118.721 62.5493 118.4 61.7777V61.6877C118.198 61.1381 118.133 60.548 118.208 59.9676C118.284 59.3872 118.499 58.8337 118.835 58.3543C119.171 57.875 119.618 57.484 120.138 57.2147C120.657 56.9454 121.234 56.8057 121.82 56.8077C122.158 56.806 122.495 56.8532 122.82 56.9477C123.623 57.1575 124.329 57.6379 124.82 58.3077C125.233 58.9425 125.436 59.6912 125.4 60.4477Z" fill="#363A4D"/>
</g>
<path d="M125.189 60.4476C125.193 61.2496 124.915 62.0276 124.405 62.6461C123.894 63.2647 123.183 63.6848 122.395 63.8334C121.607 63.982 120.791 63.8497 120.091 63.4595C119.39 63.0693 118.848 62.4459 118.559 61.6976V61.6176C118.426 61.242 118.358 60.8462 118.359 60.4476C118.358 59.9968 118.446 59.5502 118.618 59.1334C118.79 58.7167 119.042 58.338 119.361 58.0193C119.68 57.7005 120.058 57.4479 120.475 57.276C120.892 57.1041 121.339 57.0163 121.789 57.0176C122.103 57.0168 122.416 57.0571 122.719 57.1376C123.464 57.3468 124.116 57.8013 124.569 58.4276C124.982 59.0195 125.199 59.726 125.189 60.4476Z" fill="#363A4D"/>
<g style="mix-blend-mode:multiply" opacity="0.15">
<path d="M125.189 60.4475C125.193 61.257 124.91 62.0418 124.391 62.6629C123.872 63.2841 123.15 63.7017 122.353 63.8418C121.556 63.9818 120.734 63.8354 120.035 63.4283C119.335 63.0213 118.802 62.3798 118.529 61.6175C118.954 62.2046 119.553 62.6422 120.241 62.8678C120.929 63.0934 121.671 63.0953 122.361 62.8733C123.05 62.6512 123.652 62.2166 124.079 61.6318C124.506 61.0469 124.737 60.3418 124.739 59.6175C124.74 59.2157 124.672 58.8168 124.539 58.4375C124.961 59.0231 125.188 59.726 125.189 60.4475Z" fill="#363A4D"/>
</g>
<g style="mix-blend-mode:screen" opacity="0.15">
<path d="M121.36 57.7776C121.746 58.0121 122.024 58.3889 122.134 58.8267C122.244 59.2645 122.178 59.7281 121.95 60.1175C121.51 61.0175 120.51 61.8476 119.57 61.3876C119.165 61.1195 118.88 60.7055 118.774 60.2322C118.668 59.7588 118.749 59.2627 119 58.8475C119.202 58.4181 119.551 58.0747 119.983 57.8787C120.415 57.6826 120.904 57.6468 121.36 57.7776Z" fill="white"/>
</g>
<g style="mix-blend-mode:screen" opacity="0.15">
<path d="M120.41 57.8874C120.58 58.0674 120.49 58.4373 120.21 58.7073C119.93 58.9773 119.48 59.1873 119.27 58.9673C119.06 58.7473 119.27 58.3874 119.57 58.1374C119.87 57.8874 120.24 57.7074 120.41 57.8874Z" fill="white"/>
</g>
<g style="mix-blend-mode:multiply" opacity="0.15">
<path d="M125.191 60.4477C125.194 61.2497 124.916 62.0277 124.406 62.6462C123.895 63.2648 123.184 63.6849 122.396 63.8335C121.608 63.9821 120.793 63.8498 120.092 63.4596C119.391 63.0694 118.849 62.446 118.561 61.6977C119.164 62.1272 119.866 62.398 120.602 62.4854C121.337 62.5728 122.083 62.4738 122.771 62.1977C123.258 61.8866 123.653 61.4509 123.915 60.9357C124.177 60.4205 124.296 59.8446 124.261 59.2677C124.168 58.8203 123.98 58.3982 123.709 58.0304C123.438 57.6627 123.091 57.3582 122.691 57.1377C123.435 57.3469 124.087 57.8015 124.541 58.4277C124.964 59.016 125.191 59.7228 125.191 60.4477Z" fill="#363A4D"/>
</g>
<g style="mix-blend-mode:multiply" opacity="0.3">
<path d="M110.23 76.2275C110.264 77.4155 109.873 78.5763 109.127 79.5021C108.382 80.4279 107.332 81.058 106.164 81.2794C104.997 81.5009 103.788 81.2993 102.756 80.7107C101.724 80.1221 100.935 79.1851 100.53 78.0675V77.9475C100.333 77.3955 100.232 76.8138 100.23 76.2275C100.23 74.9015 100.757 73.6297 101.695 72.692C102.633 71.7543 103.904 71.2275 105.23 71.2275C105.69 71.229 106.148 71.2929 106.59 71.4175C107.677 71.7217 108.628 72.3842 109.29 73.2975C109.904 74.1511 110.233 75.1763 110.23 76.2275Z" fill="#363A4D"/>
</g>
<path d="M109.951 76.2273C109.955 77.3349 109.571 78.409 108.866 79.2631C108.161 80.1172 107.179 80.6974 106.091 80.903C105.002 81.1086 103.876 80.9265 102.908 80.3884C101.94 79.8503 101.191 78.9902 100.791 77.9573C100.794 77.9207 100.794 77.8839 100.791 77.8473C100.533 77.1308 100.451 76.3628 100.552 75.608C100.653 74.8531 100.933 74.1336 101.371 73.5101C101.808 72.8866 102.389 72.3773 103.064 72.0253C103.739 71.6732 104.489 71.4887 105.251 71.4873C105.684 71.4861 106.115 71.5467 106.531 71.6673C107.557 71.957 108.455 72.5841 109.081 73.4473C109.658 74.2585 109.963 75.2319 109.951 76.2273Z" fill="#363A4D"/>
<g style="mix-blend-mode:multiply" opacity="0.15">
<path d="M109.95 76.2273C109.954 77.3444 109.562 78.4269 108.846 79.2838C108.129 80.1407 107.132 80.7168 106.032 80.9105C104.932 81.1043 103.798 80.9032 102.832 80.3427C101.866 79.7822 101.128 78.8984 100.75 77.8473C101.337 78.6589 102.167 79.2635 103.119 79.5744C104.072 79.8853 105.098 79.8864 106.051 79.5776C107.004 79.2688 107.835 78.666 108.424 77.8556C109.013 77.0453 109.33 76.0691 109.33 75.0673C109.331 74.5142 109.233 73.9655 109.04 73.4473C109.631 74.2535 109.95 75.2274 109.95 76.2273Z" fill="#363A4D"/>
</g>
<g style="mix-blend-mode:screen" opacity="0.15">
<path d="M104.669 72.5372C105.199 72.8608 105.581 73.3795 105.732 73.9816C105.884 74.5838 105.793 75.2214 105.479 75.7572C104.859 77.0072 103.479 78.1572 102.189 77.5172C100.899 76.8772 100.829 75.1772 101.399 74.0172C101.969 72.8572 103.609 72.0172 104.669 72.5372Z" fill="white"/>
</g>
<g style="mix-blend-mode:screen" opacity="0.15">
<path d="M103.349 72.6977C103.589 72.9477 103.459 73.4577 103.069 73.8277C102.679 74.1977 102.069 74.4877 101.779 74.1877C101.489 73.8877 101.779 73.3877 102.189 73.0477C102.599 72.7077 103.119 72.4577 103.349 72.6977Z" fill="white"/>
</g>
<g style="mix-blend-mode:multiply" opacity="0.15">
<path d="M109.949 76.227C109.953 77.3346 109.569 78.4087 108.864 79.2628C108.159 80.1169 107.177 80.6972 106.089 80.9027C105 81.1083 103.874 80.9262 102.906 80.3881C101.938 79.85 101.189 78.9899 100.789 77.957C101.622 78.5489 102.591 78.9221 103.606 79.0427C104.621 79.1632 105.65 79.0272 106.599 78.647C107.268 78.2242 107.811 77.6305 108.173 76.9273C108.535 76.2241 108.703 75.4368 108.659 74.647C108.509 73.077 107.289 72.357 106.489 71.707C107.515 71.9967 108.413 72.6238 109.039 73.487C109.622 74.2823 109.941 75.2408 109.949 76.227Z" fill="#363A4D"/>
</g>
<g style="mix-blend-mode:multiply" opacity="0.3">
<path d="M120.25 72.8872C120.276 74.0701 119.881 75.2239 119.137 76.1435C118.392 77.063 117.346 77.6888 116.184 77.9095C115.021 78.1303 113.818 77.9316 112.788 77.3489C111.759 76.7663 110.969 75.8373 110.56 74.7272L110.51 74.6072C110.312 74.0552 110.211 73.4735 110.21 72.8872C110.194 71.8184 110.521 70.7725 111.143 69.9032C111.765 69.0338 112.649 68.3866 113.666 68.0567C114.682 67.7267 115.778 67.7313 116.792 68.0697C117.806 68.4082 118.685 69.0627 119.3 69.9372C119.921 70.7951 120.253 71.8281 120.25 72.8872Z" fill="#363A4D"/>
</g>
<path d="M119.969 72.8875C119.967 73.9906 119.581 75.0584 118.876 75.9072C118.172 76.756 117.193 77.3325 116.11 77.5374C115.026 77.7423 113.904 77.5628 112.939 77.0298C111.973 76.4969 111.223 75.6438 110.819 74.6175C110.819 74.6175 110.819 74.5475 110.819 74.5075C110.633 73.9877 110.538 73.4396 110.539 72.8875C110.539 71.6322 111.037 70.428 111.924 69.5394C112.811 68.6508 114.014 68.1502 115.269 68.1475C115.702 68.1449 116.133 68.2056 116.549 68.3275C117.578 68.6166 118.48 69.2436 119.109 70.1075C119.683 70.9196 119.984 71.8931 119.969 72.8875Z" fill="#363A4D"/>
<g style="mix-blend-mode:multiply" opacity="0.15">
<path d="M119.97 72.8877C119.95 73.984 119.551 75.0396 118.84 75.8745C118.13 76.7095 117.151 77.2722 116.072 77.4668C114.993 77.6613 113.88 77.4758 112.922 76.9417C111.965 76.4076 111.222 75.558 110.82 74.5377C111.406 75.3515 112.234 75.9583 113.187 76.2706C114.139 76.5829 115.166 76.5845 116.12 76.2752C117.073 75.9659 117.904 75.3617 118.492 74.5497C119.08 73.7378 119.394 72.7601 119.39 71.7577C119.39 71.2057 119.295 70.6578 119.11 70.1377C119.678 70.9414 119.979 71.9035 119.97 72.8877Z" fill="#363A4D"/>
</g>
<g style="mix-blend-mode:screen" opacity="0.15">
<path d="M114.691 69.2071C115.221 69.5308 115.602 70.0494 115.754 70.6516C115.905 71.2538 115.814 71.8913 115.501 72.4271C114.891 73.6771 113.501 74.8271 112.211 74.1871C110.921 73.5471 110.851 71.8471 111.421 70.6871C111.991 69.5271 113.631 68.6771 114.691 69.2071Z" fill="white"/>
</g>
<g style="mix-blend-mode:screen" opacity="0.15">
<path d="M113.381 69.3569C113.611 69.6069 113.481 70.1169 113.091 70.4869C112.701 70.8569 112.091 71.1469 111.801 70.8469C111.511 70.5469 111.801 70.0469 112.211 69.7069C112.621 69.3669 113.141 69.1169 113.381 69.3569Z" fill="white"/>
</g>
<g style="mix-blend-mode:multiply" opacity="0.15">
<path d="M119.97 72.8872C119.969 73.9902 119.582 75.0581 118.878 75.9068C118.173 76.7556 117.195 77.3321 116.111 77.537C115.027 77.7419 113.906 77.5625 112.94 77.0295C111.974 76.4965 111.225 75.6434 110.82 74.6172C111.654 75.209 112.622 75.5823 113.637 75.7028C114.652 75.8234 115.681 75.6874 116.63 75.3072C117.297 74.8829 117.84 74.2888 118.202 73.586C118.564 72.8831 118.732 72.0967 118.69 71.3072C118.53 69.7372 117.32 69.0172 116.51 68.3672C117.539 68.6563 118.441 69.2833 119.07 70.1472C119.651 70.9433 119.966 71.902 119.97 72.8872Z" fill="#363A4D"/>
</g>
<g style="mix-blend-mode:multiply" opacity="0.3">
<path d="M129.97 69.717C130.003 70.9049 129.612 72.0658 128.867 72.9915C128.122 73.9173 127.071 74.5474 125.904 74.7689C124.736 74.9903 123.528 74.7887 122.496 74.2001C121.463 73.6116 120.674 72.6745 120.27 71.557C120.27 71.557 120.27 71.477 120.27 71.437C120.068 70.8862 119.966 70.3036 119.97 69.717C119.946 68.6465 120.266 67.5966 120.884 66.7219C121.501 65.8472 122.383 65.1938 123.4 64.8579C124.417 64.522 125.514 64.5213 126.532 64.856C127.549 65.1907 128.431 65.843 129.05 66.717C129.671 67.5923 129.993 68.6441 129.97 69.717Z" fill="#363A4D"/>
</g>
<path d="M129.68 69.7175C129.678 70.8206 129.292 71.8885 128.587 72.7372C127.883 73.586 126.904 74.1625 125.821 74.3674C124.737 74.5723 123.615 74.3928 122.65 73.8599C121.684 73.3269 120.934 72.4738 120.53 71.4476C120.53 71.4476 120.53 71.3776 120.53 71.3376C120.344 70.8177 120.249 70.2696 120.25 69.7175C120.25 68.4604 120.749 67.2548 121.638 66.3659C122.527 65.4769 123.733 64.9776 124.99 64.9776C125.423 64.9763 125.854 65.0369 126.27 65.1575C127.296 65.4472 128.194 66.0743 128.82 66.9375C129.394 67.7496 129.695 68.7231 129.68 69.7175Z" fill="#363A4D"/>
<g style="mix-blend-mode:multiply" opacity="0.15">
<path d="M129.68 69.7175C129.677 70.8298 129.283 71.9056 128.567 72.7567C127.851 73.6078 126.859 74.18 125.763 74.3731C124.668 74.5662 123.539 74.3679 122.575 73.8129C121.611 73.258 120.873 72.3817 120.49 71.3375C121.078 72.1491 121.907 72.7538 122.859 73.0647C123.812 73.3755 124.838 73.3767 125.791 73.0679C126.744 72.7591 127.575 72.1562 128.164 71.3459C128.753 70.5355 129.07 69.5594 129.07 68.5575C129.072 68.0045 128.973 67.4557 128.78 66.9375C129.369 67.7447 129.684 68.7186 129.68 69.7175Z" fill="#363A4D"/>
</g>
<g style="mix-blend-mode:screen" opacity="0.15">
<path d="M124.4 66.0372C124.93 66.361 125.312 66.8789 125.465 67.4804C125.618 68.082 125.53 68.7196 125.22 69.2572C124.6 70.5072 123.22 71.6572 121.93 71.0172C120.64 70.3772 120.56 68.6772 121.14 67.5172C121.72 66.3572 123.34 65.5372 124.4 66.0372Z" fill="white"/>
</g>
<g style="mix-blend-mode:screen" opacity="0.15">
<path d="M123.089 66.1869C123.329 66.4369 123.199 66.947 122.799 67.317C122.399 67.687 121.799 67.977 121.519 67.677C121.239 67.377 121.519 66.877 121.919 66.537C122.319 66.197 122.819 65.9469 123.089 66.1869Z" fill="white"/>
</g>
<g style="mix-blend-mode:multiply" opacity="0.15">
<path d="M129.679 69.7173C129.678 70.8203 129.291 71.8882 128.587 72.7369C127.882 73.5857 126.904 74.1622 125.82 74.3671C124.736 74.572 123.615 74.3925 122.649 73.8596C121.683 73.3266 120.934 72.4735 120.529 71.4473C121.363 72.0391 122.331 72.4124 123.346 72.5329C124.361 72.6535 125.39 72.5174 126.339 72.1373C127.006 71.7129 127.549 71.1189 127.911 70.4161C128.273 69.7132 128.441 68.9268 128.399 68.1373C128.239 66.5673 127.029 65.8473 126.229 65.1973C127.264 65.4683 128.177 66.0816 128.819 66.9373C129.393 67.7493 129.695 68.7228 129.679 69.7173Z" fill="#363A4D"/>
</g>
<g style="mix-blend-mode:screen" opacity="0.5">
<g style="mix-blend-mode:screen" opacity="0.5">
<path d="M17.9902 67.8072C18.755 65.9898 19.7461 64.2763 20.9402 62.7072C22.1109 61.1151 23.4085 59.6202 24.8202 58.2372C27.6731 55.486 30.8576 53.1009 34.3002 51.1372C37.7502 49.1832 41.3803 47.5657 45.1402 46.3072L46.5502 45.8372L47.9802 45.4172C48.9202 45.1272 49.8902 44.8972 50.8402 44.6372C51.7902 44.3772 52.7602 44.1872 53.7302 43.9672C54.7002 43.7472 55.6602 43.5672 56.6302 43.3872C60.5237 42.705 64.4537 42.2509 68.4002 42.0272C70.4002 41.9372 72.3402 41.8672 74.3102 41.8872C75.3102 41.8872 76.3102 41.8872 77.3102 41.8872L78.7802 41.9472C79.2802 41.9472 79.7802 41.9472 80.2602 42.0272C82.2602 42.1339 84.2235 42.3006 86.1502 42.5272C88.1002 42.7472 90.0502 43.0272 91.9902 43.3472C93.9302 43.6672 95.8602 44.0672 97.7702 44.5072C99.6802 44.9472 101.58 45.4572 103.45 46.0672C102.45 45.8372 101.53 45.6472 100.57 45.4572C99.6102 45.2672 98.6502 45.1072 97.6802 44.9472C95.7502 44.6372 93.8202 44.3572 91.8802 44.1372C88.0002 43.6772 84.1002 43.4072 80.2102 43.2872C72.4238 43.0432 64.633 43.5994 56.9602 44.9472C53.1368 45.6102 49.3643 46.5391 45.6702 47.7272C43.8202 48.3072 42.0002 48.9872 40.2102 49.7272L38.8702 50.2972L37.5602 50.9072L36.9002 51.2172L36.2502 51.5472C35.8202 51.7672 35.3802 51.9772 34.9602 52.2072C33.2368 53.1094 31.5673 54.1111 29.9602 55.2072C28.3557 56.2946 26.8226 57.4837 25.3702 58.7672C23.9061 60.0514 22.5421 61.4454 21.2902 62.9372C20.6577 63.6762 20.0636 64.4472 19.5102 65.2472C18.939 66.0606 18.4309 66.9164 17.9902 67.8072Z" fill="white"/>
</g>
</g>
</svg>
