<svg width="144" height="90" viewBox="0 0 144 90" fill="none" xmlns="http://www.w3.org/2000/svg">
<path d="M140.865 37.8C140.931 50.8705 135.956 63.4634 126.975 72.96C122.626 77.5565 117.413 81.2503 111.635 83.83C105.654 86.4866 99.1797 87.8497 92.6353 87.83H51.8953C45.351 87.8497 38.8763 86.4866 32.8953 83.83C28.2968 81.7796 24.0512 79.0155 20.3153 75.64C19.3153 74.79 18.4453 73.89 17.5553 72.96C9.00205 63.9271 4.06901 52.0643 3.69531 39.63C3.69531 39.0167 3.69531 38.4067 3.69531 37.8L3.84534 23.59V22.91L3.99533 9.01002V6.69999C4.01377 4.91663 4.73518 3.2126 6.00281 1.95808C7.27044 0.703557 8.98187 -8.65693e-05 10.7653 8.76776e-06H23.8653C24.7599 0.00129319 25.6454 0.179604 26.4708 0.524667C27.2961 0.86973 28.0451 1.37472 28.6744 2.01054C29.3037 2.64635 29.8009 3.40042 30.1375 4.22929C30.474 5.05816 30.6432 5.94545 30.6353 6.84L30.4853 21.68V24.51L30.3453 37.8C30.3453 37.91 30.3453 38.01 30.3453 38.11C30.4653 48.94 37.4053 58.03 46.7153 60.54C48.301 60.968 49.9332 61.1997 51.5753 61.23H92.5853C93.5629 61.2328 94.5392 61.1593 95.5053 61.01C106.035 59.46 114.175 49.64 114.175 37.8L113.775 22.08L113.715 19.75L113.495 9.12L113.435 6.94001C113.413 6.03676 113.571 5.1381 113.901 4.29701C114.231 3.45591 114.726 2.68938 115.357 2.04261C115.988 1.39584 116.742 0.881912 117.575 0.531106C118.407 0.180301 119.302 -0.000276141 120.205 8.76776e-06H133.295C135.001 -0.00273877 136.644 0.640351 137.895 1.8C138.56 2.41376 139.095 3.155 139.468 3.97959C139.841 4.80419 140.044 5.69532 140.065 6.60001L140.375 18.84L140.475 22.62L140.865 37.8Z" fill="#484D66"/>
<g style="mix-blend-mode:multiply" opacity="0.3">
<path d="M140.866 37.8005C140.932 50.871 135.957 63.4639 126.976 72.9605C122.627 77.5571 117.415 81.2508 111.636 83.8305C105.655 86.4872 99.1808 87.8503 92.6364 87.8305H51.8964C45.352 87.8503 38.8773 86.4872 32.8964 83.8305C28.2979 81.7801 24.0522 79.016 20.3164 75.6405C27.3864 78.8905 34.5964 80.2406 43.1664 80.8206C51.7364 81.4006 61.0964 80.7505 72.4464 80.7305C84.7664 80.7305 93.4464 81.1905 101.346 79.8605C109.246 78.5305 118.386 75.1205 126.586 64.5205C131.677 57.7382 135.118 49.8635 136.636 41.5205C136.636 41.5205 135.006 43.9005 127.036 44.4205C119.066 44.9405 114.206 37.7705 114.206 37.7705L113.806 22.0505L113.746 19.7206L140.356 18.8105L140.456 22.5905L140.866 37.8005Z" fill="#3C3C3C"/>
</g>
<g style="mix-blend-mode:multiply" opacity="0.3">
<path d="M84.4851 61.2305V84.1205C84.4812 85.494 83.9925 86.8221 83.1051 87.8705H58.5851L58.4351 87.6905C57.6397 86.6703 57.2069 85.4141 57.2051 84.1205V61.2305H84.4851Z" fill="#3C3C3C"/>
</g>
<path d="M83.5864 35.4907V83.4907C83.5864 85.0316 82.9743 86.5094 81.8847 87.599C80.7951 88.6886 79.3173 89.3007 77.7764 89.3007H63.8764C62.4639 89.3034 61.0988 88.7915 60.0364 87.8607L59.8664 87.6907C59.2962 87.1501 58.8425 86.4987 58.5329 85.7765C58.2234 85.0542 58.0647 84.2764 58.0664 83.4907V35.4907C58.0664 33.9498 58.6785 32.472 59.7681 31.3824C60.8577 30.2928 62.3355 29.6807 63.8764 29.6807H77.8164C79.3504 29.6912 80.8179 30.308 81.8988 31.3965C82.9798 32.4849 83.5864 33.9567 83.5864 35.4907Z" fill="#CCCCCC"/>
<g style="mix-blend-mode:multiply" opacity="0.3">
<path d="M84.4864 63.3704V84.1204C84.4825 85.4939 83.9938 86.822 83.1064 87.8704H81.6464C80.589 88.8029 79.2263 89.3153 77.8164 89.3104H63.8764C62.4639 89.3131 61.0988 88.8012 60.0364 87.8704L59.8664 87.7003C69.3564 87.8103 78.6464 86.8604 79.9164 83.0404C81.6364 77.8804 82.1164 67.2603 81.3264 61.2303C81.2488 59.9528 80.9999 58.6916 80.5864 57.4803C77.7664 57.4803 74.6964 59.1204 70.8464 59.1504C64.9064 59.1504 60.8464 57.6104 58.0664 55.8304V49.4904L83.5864 41.8604V61.2303H84.3564L84.4864 63.3704Z" fill="#3C3C3C"/>
</g>
<g style="mix-blend-mode:multiply" opacity="0.3">
<path d="M140.476 22.6205L113.826 22.1205L113.496 9.12054C117.115 5.80766 121.871 4.01689 126.776 4.12054C137.036 4.22054 136.516 8.63054 138.236 7.12054C139.956 5.61054 137.896 1.81055 137.896 1.81055C138.561 2.42431 139.096 3.16552 139.469 3.99011C139.841 4.81471 140.045 5.70584 140.066 6.61053L140.476 22.6205Z" fill="#3C3C3C"/>
</g>
<g style="mix-blend-mode:multiply" opacity="0.3">
<path d="M30.5854 6.84055L30.4054 24.5106L3.77539 23.5905L3.92538 9.01056C7.62462 5.89817 12.2913 4.16938 17.1254 4.12054C27.3754 4.22054 26.8654 8.63054 28.5854 7.12054C30.3054 5.61054 28.2454 1.81055 28.2454 1.81055C28.3434 1.90146 28.4645 1.96371 28.5954 1.99054C29.2333 2.62573 29.738 3.38193 30.0797 4.21478C30.4214 5.04763 30.5933 5.94035 30.5854 6.84055Z" fill="#3C3C3C"/>
</g>
<g style="mix-blend-mode:multiply" opacity="0.3">
<path d="M51.5861 61.2307C28.8161 61.0107 27.5861 40.2907 27.5861 40.2907C24.6847 42.6861 21.0283 43.9758 17.2661 43.9307C11.5261 43.9307 6.76609 42.1307 3.74609 39.6307C3.74609 39.0173 3.74609 38.4073 3.74609 37.8007L3.89609 23.5907V22.9107L30.5561 21.6807V24.5107L30.4161 37.8007C30.4161 37.9107 30.4161 38.0107 30.4161 38.1107C30.5361 48.9407 37.4761 58.0307 46.7861 60.5407C48.3523 60.9638 49.9641 61.1955 51.5861 61.2307Z" fill="#3C3C3C"/>
</g>
<path d="M34.5854 23.1204C34.5854 27.6848 32.7722 32.0622 29.5447 35.2897C26.3172 38.5172 21.9398 40.3304 17.3754 40.3304H16.9054H16.4254C16.1054 40.3304 15.7854 40.3304 15.4754 40.2504C15.1654 40.1704 14.8254 40.1804 14.4754 40.1204L14.0354 40.0404H13.8454C10.009 39.2501 6.55815 37.1718 4.06542 34.1504L3.94539 34.0004C1.03199 30.4677 -0.358716 25.9224 0.079181 21.3643C0.517078 16.8062 2.74773 12.6088 6.28041 9.69542C9.8131 6.78202 14.3584 5.39128 18.9165 5.82918C23.4746 6.26708 27.672 8.49773 30.5854 12.0304C31.3077 12.8837 31.941 13.8085 32.4754 14.7904L32.5954 15.0204L32.8354 15.4904L32.9554 15.7204C32.9879 15.8023 33.0246 15.8824 33.0654 15.9604C33.0654 16.0404 33.1354 16.1304 33.1754 16.2104C33.2154 16.2904 33.2354 16.3604 33.2754 16.4404L33.4254 16.8104L33.5454 17.1304C33.5454 17.2304 33.6154 17.3404 33.6554 17.4404L33.7354 17.6804C33.8254 17.9404 33.8954 18.2004 33.9754 18.4704C33.9754 18.5704 34.0254 18.6704 34.0554 18.7704C34.0854 18.8704 34.1254 19.0504 34.1554 19.1904C34.1854 19.3304 34.2054 19.4104 34.2254 19.5104C34.2292 19.5436 34.2292 19.5772 34.2254 19.6104C34.2254 19.7504 34.2854 19.8904 34.3054 20.0304L34.3654 20.4004C34.3709 20.4569 34.3709 20.5139 34.3654 20.5704C34.3703 20.667 34.3703 20.7638 34.3654 20.8604C34.3654 21.0104 34.3654 21.1504 34.3654 21.3004C34.3654 21.4504 34.3654 21.5404 34.3654 21.6604C34.3654 21.9904 34.3654 22.3204 34.4154 22.6604L34.5854 23.1204Z" fill="#81D63E"/>
<path d="M143.985 23.12C143.981 26.5789 142.937 29.9567 140.986 32.8133C139.036 35.67 136.271 37.8731 133.05 39.1358C129.83 40.3984 126.304 40.662 122.932 39.8922C119.56 39.1224 116.498 37.355 114.145 34.82C112.558 33.1255 111.331 31.1277 110.536 28.9468C109.742 26.7659 109.396 24.4468 109.521 22.129C109.645 19.8112 110.237 17.5425 111.26 15.4592C112.284 13.3758 113.718 11.5209 115.477 10.0059C117.235 8.49089 119.282 7.34703 121.494 6.64306C123.705 5.9391 126.037 5.68959 128.347 5.90948C130.658 6.12937 132.9 6.81412 134.94 7.92263C136.979 9.03114 138.773 10.5405 140.215 12.36C140.835 13.1283 141.384 13.9518 141.855 14.82C143.262 17.3594 143.995 20.2169 143.985 23.12Z" fill="#81D63E"/>
<path d="M89.6562 37.5902C89.6582 40.1596 89.133 42.702 88.113 45.0602C87.093 47.4184 85.6 49.5422 83.7263 51.3002L83.4562 51.5502L82.6063 52.2802L82.3162 52.5102C82.227 52.5825 82.1336 52.6493 82.0363 52.7102L81.7963 52.8802C81.2773 53.2412 80.7398 53.575 80.1862 53.8802L79.9662 54.0002L79.7462 54.1202L79.4562 54.2702L79.2263 54.3902L79.1362 54.4402L78.8463 54.5702L78.5062 54.7302L78.1563 54.8802L77.4562 55.1602L77.0963 55.2902L76.7462 55.4102L76.3762 55.5202L76.0463 55.6202H75.9163L75.6462 55.6902C75.2762 55.7902 74.8962 55.8702 74.5162 55.9502L74.1362 56.0202L73.7562 56.0802L73.3762 56.1302H73.0562H72.9362H72.4863H71.9562H71.5062H69.9962H69.4863H69.0963H68.6862H68.5862H68.1862L67.8962 56.0802H67.6663L67.3362 56.0202L66.9562 55.9402L66.7162 55.8902L66.1962 55.7602L65.9263 55.6902L65.4962 55.5602L65.2562 55.4902L64.9163 55.3802C64.4663 55.2302 64.0162 55.0602 63.5762 54.8702L63.3062 54.7502L62.8162 54.5202L62.5662 54.4002L62.4662 54.3502L61.9662 54.0902L61.4962 53.8302L61.0262 53.5502L60.5463 53.2502L60.1763 52.9902L59.9863 52.8602L59.5062 52.5002L59.1962 52.2602L59.1462 52.2102L58.8062 51.9302L58.7162 51.8502C58.5862 51.7402 58.4462 51.6302 58.3262 51.5102C57.1898 50.4826 56.1825 49.3208 55.3262 48.0502C53.6947 45.6084 52.6575 42.8184 52.2979 39.9037C51.9382 36.989 52.266 34.0306 53.255 31.2654C54.244 28.5001 55.8668 26.0049 57.9934 23.9794C60.12 21.954 62.6912 20.4546 65.5013 19.6014C68.3115 18.7482 71.2823 18.5648 74.176 19.0659C77.0697 19.5671 79.8059 20.7388 82.1655 22.4873C84.525 24.2359 86.4423 26.5126 87.7639 29.1352C89.0855 31.7578 89.7747 34.6534 89.7762 37.5902H89.6562Z" fill="#81D63E"/>
<g style="mix-blend-mode:multiply" opacity="0.2">
<path d="M83.5052 37.5906C83.5081 39.3213 83.1544 41.0341 82.4662 42.6221C81.778 44.2101 80.7701 45.6393 79.5052 46.8206L79.3252 46.9906L78.7552 47.4806L78.5552 47.6306C78.4961 47.6828 78.4326 47.7296 78.3652 47.7706L78.2052 47.8906C77.8552 48.1406 77.4852 48.3706 77.1152 48.5906L76.9652 48.6706L76.8152 48.7506L76.6252 48.8506L76.4752 48.9306H76.4052L76.2152 49.0206L75.9852 49.1206L75.7552 49.2306L75.2752 49.4106L75.0352 49.5006L74.7952 49.5806L74.5552 49.6606L74.3252 49.7206H74.2452L74.0552 49.7706L73.2952 49.9406L73.0452 49.9906H72.7852H72.5352H72.3152H72.2352H71.9352H71.5852H70.2652H69.9252H69.6552H69.3752H69.1052H68.9052H68.7552H68.5352L68.2752 49.9406H68.1152L67.7652 49.8506H67.5852L67.2952 49.7706L67.1352 49.7206L66.9052 49.6406C66.6052 49.5406 66.3052 49.4306 66.0052 49.3006L65.8252 49.2206L65.4952 49.0706L65.3252 48.9806H65.2552L64.9152 48.8006L64.6052 48.6306L64.2852 48.4406L63.9652 48.2306L63.7152 48.0606L63.5952 47.9706L63.2652 47.7306L63.0552 47.5606L62.8252 47.3706L62.7652 47.3106L62.4952 47.0806C61.7371 46.3873 61.0655 45.605 60.4952 44.7506C59.3972 43.1056 58.7 41.2262 58.4593 39.2631C58.2186 37.3 58.4413 35.3078 59.1093 33.4462C59.7774 31.5847 60.8722 29.9056 62.3062 28.5435C63.7402 27.1814 65.4734 26.1741 67.3668 25.6026C69.2602 25.0311 71.2612 24.9111 73.2093 25.2523C75.1575 25.5935 76.9986 26.3864 78.585 27.5674C80.1715 28.7484 81.4592 30.2847 82.3448 32.0531C83.2305 33.8215 83.6896 35.7728 83.6852 37.7506L83.5052 37.5906Z" fill="#3C3C3C"/>
</g>
<path d="M81.9447 37.5904C81.9434 38.5766 81.8123 39.5584 81.5547 40.5104C81.0202 42.4899 79.943 44.2806 78.4447 45.6804L78.2848 45.8303C78.1248 45.9803 77.9548 46.1204 77.7848 46.2604L77.6048 46.3903L77.4447 46.5104L77.3047 46.6103C76.9947 46.8303 76.6747 47.0403 76.3047 47.2303L76.1748 47.3004L76.0448 47.3704L75.8847 47.4604L75.7447 47.5204L75.5748 47.6004L75.3747 47.6904L75.1648 47.7804L74.7547 47.9503L74.5448 48.0204L74.3248 48.0904L74.1148 48.1604L73.9248 48.2204H73.8448H73.6847L73.0148 48.3804H72.7948H72.5647H72.3448H72.1548H72.0848H71.8147H71.5047H70.3448H70.0448H69.8147H69.5748H69.5248H69.2948H69.1148H68.9848H68.7948H68.5647H68.4248L68.1148 48.3004H67.9648L67.7048 48.2303H67.5748L67.3648 48.1604C67.0948 48.0704 66.8348 47.9703 66.5748 47.8603L66.4148 47.7904L66.1247 47.6604L65.9848 47.5803C65.9654 47.5872 65.9442 47.5872 65.9248 47.5803L65.6247 47.4304L65.3548 47.2704L65.0748 47.1004L64.7948 46.9203L64.5748 46.7704L64.4648 46.6904L64.1847 46.4803L63.9947 46.3303L63.7948 46.1604H63.7447L63.5148 45.9503C62.8472 45.3595 62.256 44.6876 61.7547 43.9503C60.7921 42.5093 60.1802 40.8628 59.9682 39.1428C59.7561 37.4227 59.9497 35.6769 60.5336 34.0452C61.1174 32.4134 62.0752 30.9411 63.3303 29.746C64.5854 28.5509 66.1029 27.6663 67.7612 27.163C69.4196 26.6597 71.1727 26.5517 72.8803 26.8476C74.5879 27.1436 76.2025 27.8353 77.5948 28.8673C78.987 29.8993 80.1183 31.243 80.898 32.7907C81.6777 34.3385 82.0841 36.0473 82.0848 37.7804L81.9447 37.5904Z" fill="#CCCCCC"/>
<g style="mix-blend-mode:multiply" opacity="0.3">
<path d="M17.3655 36.0104C24.5066 36.0104 30.2955 30.2214 30.2955 23.0804C30.2955 15.9393 24.5066 10.1504 17.3655 10.1504C10.2245 10.1504 4.43555 15.9393 4.43555 23.0804C4.43555 30.2214 10.2245 36.0104 17.3655 36.0104Z" fill="#484D66"/>
</g>
<path d="M29.6554 23.1205C29.6844 26.0633 28.6564 28.9187 26.7584 31.1678C24.8604 33.4168 22.2184 34.9101 19.3126 35.3763C16.4069 35.8424 13.4303 35.2504 10.9241 33.7078C8.41788 32.1653 6.54835 29.7747 5.65541 26.9705C4.82841 24.467 4.82841 21.764 5.65541 19.2605C6.54855 16.4555 8.41888 14.0641 10.9262 12.5216C13.4335 10.979 16.4112 10.3877 19.3177 10.8552C22.2241 11.3226 24.8662 12.8178 26.7634 15.0688C28.6606 17.3197 29.6868 20.1769 29.6554 23.1205Z" fill="#484D66"/>
<g style="mix-blend-mode:multiply" opacity="0.2">
<path d="M126.775 34.5504C133.109 34.5504 138.245 29.4151 138.245 23.0804C138.245 16.7456 133.109 11.6104 126.775 11.6104C120.44 11.6104 115.305 16.7456 115.305 23.0804C115.305 29.4151 120.44 34.5504 126.775 34.5504Z" fill="#3C3C3C"/>
</g>
<path d="M137.096 23.1202C137.098 24.2212 136.922 25.3152 136.576 26.3602C136.068 27.8901 135.209 29.2801 134.068 30.4191C132.927 31.5581 131.536 32.4146 130.005 32.9202C127.901 33.6138 125.63 33.6138 123.526 32.9202C121.997 32.4126 120.608 31.5552 119.469 30.4164C118.331 29.2776 117.473 27.8887 116.966 26.3602C116.272 24.2559 116.272 21.9846 116.966 19.8802C117.471 18.3496 118.328 16.9583 119.467 15.8176C120.606 14.6768 121.996 13.8182 123.526 13.3102C125.63 12.6166 127.901 12.6166 130.005 13.3102C131.538 13.8162 132.93 14.674 134.071 15.8149C135.212 16.9558 136.07 18.3481 136.576 19.8802C136.924 20.9249 137.099 22.0192 137.096 23.1202Z" fill="#484D66"/>
<g style="mix-blend-mode:screen" opacity="0.15">
<path d="M63.5847 25.6599C67.7647 23.6599 77.0547 20.1199 80.0347 26.1399C83.0147 32.1599 76.2847 36.6999 71.2248 39.1399C66.1648 41.5799 58.0647 43.5798 55.5347 38.4199C53.0047 33.2599 59.4147 27.6299 63.5847 25.6599Z" fill="white"/>
</g>
<g style="mix-blend-mode:screen" opacity="0.15">
<path d="M121.466 9.51072C125.866 8.11072 135.626 6.0407 138.526 14.7007C141.426 23.3607 134.276 27.3907 128.946 29.0907C123.616 30.7907 115.146 31.2207 112.696 23.8107C110.246 16.4007 117.076 10.9207 121.466 9.51072Z" fill="white"/>
</g>
<g style="mix-blend-mode:screen" opacity="0.15">
<path d="M65.9754 25.9307C67.8454 25.9307 71.8654 26.1107 71.9754 27.7607C72.0854 29.4107 68.7754 29.7007 66.5054 29.7007C64.2354 29.7007 60.9154 29.3107 60.8754 27.9107C60.8354 26.5107 64.1054 25.9307 65.9754 25.9307Z" fill="#3C3C3C"/>
</g>
<g style="mix-blend-mode:screen" opacity="0.15">
<path d="M57.2547 30.9201C57.5414 30.8766 57.834 30.8959 58.1124 30.9768C58.3909 31.0576 58.6484 31.198 58.8672 31.3882C59.0859 31.5785 59.2608 31.814 59.3795 32.0786C59.4982 32.3431 59.5579 32.6302 59.5547 32.9201C59.593 33.208 59.5653 33.5009 59.4734 33.7765C59.3816 34.052 59.2281 34.303 59.0246 34.5103C58.8212 34.7176 58.5731 34.8758 58.2994 34.9728C58.0256 35.0698 57.7333 35.1031 57.4447 35.0701C57.1681 35.0937 56.8896 35.0595 56.627 34.9696C56.3644 34.8797 56.1234 34.7361 55.9193 34.548C55.7151 34.3599 55.5524 34.1313 55.4414 33.8769C55.3305 33.6225 55.2737 33.3477 55.2747 33.0701C55.2557 32.5234 55.4528 31.9911 55.8234 31.5887C56.194 31.1863 56.7083 30.9461 57.2547 30.9201Z" fill="#3C3C3C"/>
</g>
<g style="mix-blend-mode:multiply" opacity="0.15">
<path d="M88.9962 42.54C88.0877 45.8931 86.2628 48.9265 83.7262 51.3L83.4562 51.55L82.6062 52.28L82.3162 52.51C82.227 52.5823 82.1335 52.6491 82.0362 52.71L81.7962 52.88C81.2772 53.241 80.7398 53.5748 80.1862 53.88L79.9662 54L79.7462 54.12L79.4562 54.27L79.2262 54.39L79.1362 54.44L78.8462 54.57L78.5062 54.73L78.1562 54.88L77.4562 55.16L77.0962 55.29L76.7462 55.41L76.3762 55.52L76.0462 55.62H75.9162L75.6462 55.69C75.2762 55.79 74.8962 55.87 74.5162 55.95L74.1362 56.02L73.7562 56.08L73.3762 56.13H73.0562H72.9362H72.4862H71.9562H71.5062H69.9962H69.4862H69.0962H68.6862H68.5862H68.1862L67.8962 56.08H67.6662L67.3362 56.02L66.9562 55.94L66.7162 55.89L66.1962 55.76L65.9262 55.69L65.4962 55.56L65.2562 55.49L64.9162 55.38C64.4662 55.23 64.0162 55.06 63.5762 54.87L63.3062 54.75L62.8162 54.52L62.5662 54.4L62.4662 54.35L61.9662 54.09L61.4962 53.83L61.0262 53.55L60.5462 53.25L60.1762 52.99L59.9862 52.86L59.5062 52.5L59.1962 52.26L59.1462 52.21L58.8062 51.93L58.7162 51.85C58.5862 51.74 58.4462 51.63 58.3262 51.51C60.9562 52.85 65.6962 55.56 74.8462 53.81C81.5262 52.5 86.1262 46.05 88.9962 42.54Z" fill="#3C3C3C"/>
</g>
<g style="mix-blend-mode:multiply" opacity="0.3">
<path d="M49.5856 45.3406C49.577 45.3112 49.577 45.2799 49.5856 45.2506C49.4956 45.1206 49.5156 45.1206 49.5856 45.3406Z" fill="#3C3C3C"/>
</g>
<g style="mix-blend-mode:multiply" opacity="0.15">
<path d="M89.6562 37.5904C89.6582 40.1597 89.1329 42.7021 88.1129 45.0603C87.0929 47.4185 85.5999 49.5423 83.7262 51.3004L83.4562 51.5504L82.6062 52.2804L82.3162 52.5104C82.227 52.5827 82.1335 52.6495 82.0362 52.7104L81.7962 52.8804C81.2772 53.2414 80.7398 53.5751 80.1862 53.8804L79.9662 54.0004L79.7462 54.1204L79.4562 54.2704L79.2262 54.3904L79.1362 54.4404L78.8462 54.5704L78.5062 54.7304L78.1562 54.8804L77.4562 55.1604L77.0962 55.2904L76.7462 55.4104L76.3762 55.5204L76.0462 55.6204H75.9162L75.6462 55.6904C75.2762 55.7904 74.8962 55.8704 74.5162 55.9504L74.1362 56.0204L73.7562 56.0804L73.3762 56.1304H73.0562H72.9362H72.4862H71.9562H71.5062H69.9962H69.4862H69.0962H68.6862H68.5862H68.1862L67.8962 56.0804H67.6662L67.3362 56.0204L66.9562 55.9404L66.7162 55.8904L66.1962 55.7604L65.9262 55.6904L65.4962 55.5604L65.2562 55.4904L64.9162 55.3804C64.4662 55.2304 64.0162 55.0604 63.5762 54.8704L63.3062 54.7504L62.8162 54.5204L62.5662 54.4004L62.4662 54.3504L61.9662 54.0904L61.4962 53.8304L61.0262 53.5504L60.5462 53.2504L60.1762 52.9904L59.9862 52.8604L59.5062 52.5004L59.1962 52.2604L59.1462 52.2104L58.8062 51.9304L58.7162 51.8504C58.5862 51.7404 58.4462 51.6304 58.3262 51.5104C57.1898 50.4828 56.1824 49.3209 55.3262 48.0504C58.7325 49.3181 62.2041 50.403 65.7262 51.3004C69.9362 52.3004 78.3962 52.7504 83.8462 43.9304C87.7862 37.5704 85.1062 28.1504 83.3162 23.4004C85.325 25.1757 86.9303 27.3607 88.0239 29.8083C89.1175 32.256 89.6741 34.9096 89.6562 37.5904Z" fill="#3C3C3C"/>
</g>
<g style="mix-blend-mode:multiply" opacity="0.2">
<path d="M143.985 23.1201C143.981 26.579 142.937 29.9568 140.986 32.8134C139.036 35.6701 136.271 37.8732 133.05 39.1358C129.83 40.3985 126.304 40.6621 122.932 39.8923C119.56 39.1225 116.498 37.355 114.145 34.8201C114.145 34.8201 130.225 42.1101 137.805 32.3301C140.007 29.5406 141.397 26.1977 141.823 22.669C142.248 19.1404 141.691 15.5629 140.215 12.3301C140.835 13.0984 141.384 13.9218 141.855 14.7901C143.267 17.3384 144 20.2068 143.985 23.1201Z" fill="#3C3C3C"/>
</g>
<g style="mix-blend-mode:multiply" opacity="0.2">
<path d="M143.985 23.1206C143.981 26.5795 142.937 29.9572 140.986 32.8139C139.036 35.6706 136.271 37.8737 133.05 39.1363C129.83 40.3989 126.304 40.6625 122.932 39.8928C119.56 39.123 116.498 37.3555 114.145 34.8206C114.305 34.9006 121.345 38.9206 126.775 38.8206C132.205 38.7206 137.125 36.7206 140.865 30.5406C144.605 24.3606 141.925 15.0806 141.865 14.8506C143.263 17.382 143.993 20.2285 143.985 23.1206Z" fill="#3C3C3C"/>
</g>
<g style="mix-blend-mode:multiply" opacity="0.3">
<path d="M34.5858 23.1206C34.5858 27.685 32.7727 32.0624 29.5452 35.2899C26.3177 38.5174 21.9402 40.3306 17.3759 40.3306H16.9059H16.4258C16.1158 40.3306 15.7959 40.3306 15.4759 40.2506C15.1559 40.1706 14.8259 40.1706 14.4759 40.1206L14.0359 40.0406H13.8459C10.0095 39.2503 6.55859 37.172 4.06586 34.1506L3.50586 33.8206L3.94583 34.0006C6.59583 35.0006 20.0858 39.7106 26.8958 30.9106C33.7058 22.1106 31.1858 13.8306 30.5458 12.1406C31.2681 12.9939 31.9014 13.9187 32.4359 14.9006L32.5558 15.1306L32.7958 15.6006L32.9158 15.8306C32.9483 15.9125 32.9851 15.9926 33.0258 16.0706C33.0258 16.1506 33.0958 16.2406 33.1358 16.3206C33.1758 16.4006 33.1958 16.4706 33.2358 16.5506L33.3858 16.9206L33.5059 17.2406C33.5059 17.3406 33.5758 17.4506 33.6158 17.5506L33.6958 17.7906C33.7858 18.0506 33.8559 18.3106 33.9359 18.5806C33.9359 18.6806 33.9858 18.7806 34.0158 18.8806C34.0458 18.9806 34.0858 19.1606 34.1158 19.3006C34.1458 19.4406 34.1659 19.5206 34.1859 19.6206C34.1897 19.6539 34.1897 19.6874 34.1859 19.7206C34.1859 19.8606 34.2458 20.0006 34.2658 20.1406L34.3258 20.5107C34.3313 20.5672 34.3313 20.6241 34.3258 20.6806C34.3307 20.7772 34.3307 20.874 34.3258 20.9706C34.3258 21.1206 34.3258 21.2606 34.3258 21.4106C34.3258 21.5606 34.3258 21.6506 34.3258 21.7706C34.3258 22.1006 34.3259 22.4306 34.3759 22.7706L34.5858 23.1206Z" fill="#3C3C3C"/>
</g>
<g style="mix-blend-mode:multiply" opacity="0.3">
<path d="M34.5864 23.1204C34.5864 27.6848 32.7732 32.0622 29.5457 35.2897C26.3182 38.5172 21.9408 40.3304 17.3764 40.3304H16.9064H16.4264C16.1064 40.3304 15.7864 40.3304 15.4764 40.2504C15.1664 40.1704 14.8264 40.1804 14.4764 40.1204L14.0364 40.0404H13.8464C10.01 39.2501 6.55914 37.1718 4.06641 34.1504C6.06641 35.3004 12.7264 38.9704 17.3464 38.8704C22.7764 38.7404 27.6964 36.7704 31.4364 30.5904C35.1764 24.4104 32.5064 15.1304 32.4364 14.9004L32.5564 15.1304L32.7964 15.6004L32.9164 15.8304C32.9489 15.9122 32.9856 15.9923 33.0264 16.0704C33.0264 16.1504 33.0964 16.2404 33.1364 16.3204C33.1764 16.4004 33.1964 16.4704 33.2364 16.5504L33.3864 16.9204L33.5064 17.2404C33.5064 17.3404 33.5764 17.4504 33.6164 17.5504L33.6964 17.7904C33.7864 18.0504 33.8564 18.3104 33.9364 18.5804C33.9364 18.6804 33.9864 18.7804 34.0164 18.8804C34.0464 18.9804 34.0864 19.1604 34.1164 19.3004C34.1464 19.4404 34.1664 19.5204 34.1864 19.6204C34.1902 19.6536 34.1902 19.6872 34.1864 19.7204C34.1864 19.8604 34.2464 20.0004 34.2664 20.1404L34.3264 20.5104C34.3319 20.5669 34.3319 20.6239 34.3264 20.6804C34.3312 20.777 34.3312 20.8738 34.3264 20.9704C34.3264 21.1204 34.3264 21.2604 34.3264 21.4104C34.3264 21.5604 34.3264 21.6504 34.3264 21.7704C34.3264 22.1004 34.3264 22.4304 34.3764 22.7704L34.5864 23.1204Z" fill="#3C3C3C"/>
</g>
<g style="mix-blend-mode:screen" opacity="0.15">
<path d="M2.74618 26.3701C1.37618 24.5801 -1.25383 18.5101 6.92618 11.9201C15.1062 5.33009 19.9262 9.9201 21.5262 12.0201C23.1262 14.1201 25.0762 21.2101 17.5862 26.9301C10.0962 32.6501 4.11618 28.1201 2.74618 26.3701Z" fill="white"/>
</g>
<g style="mix-blend-mode:screen" opacity="0.05">
<path d="M23.6349 49.0302C27.6349 51.4302 29.1649 57.8601 34.0549 61.9801C38.9449 66.1001 45.7149 65.7902 49.1449 68.8302C52.5749 71.8702 51.9349 76.0002 46.9149 77.5402C41.8949 79.0802 29.2949 74.4501 25.1749 70.9801C21.0549 67.5101 13.4649 58.2402 13.3549 53.3502C13.2449 48.4602 19.6749 46.6302 23.6349 49.0302Z" fill="white"/>
</g>
<g style="mix-blend-mode:screen" opacity="0.05">
<path d="M117.585 46.4599C114.635 48.7999 113.475 55.0699 109.835 59.0799C106.195 63.0899 101.155 62.79 98.6052 65.76C96.0552 68.73 96.5352 72.76 100.265 74.25C103.995 75.74 113.375 71.25 116.435 67.85C119.495 64.45 125.155 55.4299 125.235 50.6699C125.315 45.9099 120.585 44.1199 117.585 46.4599Z" fill="white"/>
</g>
<g style="mix-blend-mode:screen" opacity="0.25">
<path d="M70.8945 60.96C65.7245 60.96 59.8145 61.13 59.8145 73.61C59.8145 86.09 66.7345 86.61 70.8945 86.61C75.0545 86.61 79.8945 80.61 79.8945 73.78C79.8945 66.95 76.0645 60.96 70.8945 60.96Z" fill="white"/>
</g>
<g style="mix-blend-mode:screen" opacity="0.65">
<path d="M59.4863 68.4107C59.6463 66.0207 60.2162 60.8907 62.3862 60.9607C64.5562 61.0307 64.6862 65.2307 64.5062 68.1307C64.3262 71.0307 63.5063 75.2507 61.6663 75.1307C59.8263 75.0107 59.3363 70.8107 59.4863 68.4107Z" fill="white"/>
</g>
<g style="mix-blend-mode:screen" opacity="0.65">
<path d="M61.6546 77.8506C62.6046 77.8506 63.3746 78.9206 63.3646 80.2206C63.3546 81.5206 62.7646 83.0606 61.6046 83.0506C60.4446 83.0406 59.8046 81.6406 59.8146 80.4306C59.8246 79.2206 60.7046 77.8406 61.6546 77.8506Z" fill="white"/>
</g>
<g style="mix-blend-mode:multiply" opacity="0.3">
<path d="M64.6548 39.6901C64.1735 38.2561 64.2065 36.6993 64.7482 35.287C65.29 33.8747 66.3065 32.6951 67.6234 31.9508C68.9403 31.2066 70.4753 30.9442 71.9646 31.2087C73.4539 31.4732 74.8047 32.248 75.7848 33.4001L75.8848 33.5201C76.5353 34.3381 76.9797 35.3004 77.1805 36.326C77.3812 37.3516 77.3325 38.4105 77.0384 39.4133C76.7444 40.4162 76.2135 41.3336 75.4907 42.0884C74.7678 42.8431 73.8741 43.4131 72.8848 43.7501C72.322 43.9369 71.7369 44.0478 71.1448 44.0801C69.684 44.1625 68.2385 43.7464 67.0449 42.9001C65.9265 42.1121 65.0891 40.9875 64.6548 39.6901Z" fill="#363A4D"/>
</g>
<path d="M64.8448 39.2006C64.3826 37.8476 64.4078 36.3755 64.9162 35.0391C65.4247 33.7027 66.3843 32.5862 67.629 31.8825C68.8737 31.1789 70.3252 30.9325 71.7324 31.186C73.1396 31.4395 74.4139 32.1769 75.3348 33.2706L75.4348 33.3906C75.8699 33.9503 76.208 34.579 76.4348 35.2507C76.9566 36.7917 76.8466 38.4766 76.1288 39.9367C75.4109 41.3967 74.1438 42.5129 72.6048 43.0407C72.0753 43.2199 71.5233 43.3242 70.9648 43.3507C69.5861 43.4317 68.221 43.0401 67.0948 42.2406C66.0402 41.4928 65.2519 40.4277 64.8448 39.2006Z" fill="#484D66"/>
<path d="M69.0248 33C69.4109 32.8549 69.8143 32.7607 70.2248 32.72C71.2416 32.6298 72.2592 32.8833 73.1148 33.44C73.8429 33.9068 74.4169 34.5782 74.7648 35.37L74.8648 35.61C75.2224 36.5488 75.2577 37.5799 74.9652 38.541C74.6728 39.5021 74.0691 40.3387 73.2493 40.9193C72.4294 41.4998 71.4398 41.7914 70.4361 41.7481C69.4324 41.7048 68.4716 41.329 67.7048 40.68C67.5561 40.5596 67.4189 40.4257 67.2948 40.28L67.2148 40.2C66.7418 39.6483 66.4079 38.9914 66.2409 38.2842C66.0739 37.5769 66.0788 36.84 66.255 36.135C66.4312 35.4301 66.7738 34.7776 67.2539 34.2321C67.734 33.6867 68.3378 33.2642 69.0148 33H69.0248Z" fill="#5A6080"/>
<g style="mix-blend-mode:screen" opacity="0.4">
<g style="mix-blend-mode:screen" opacity="0.4">
<path d="M72.1052 32.1202C71.1824 31.9135 70.2204 31.9654 69.3252 32.2702C68.4383 32.5306 67.6305 33.0084 66.9752 33.6602C66.3432 34.3347 65.9135 35.1732 65.7352 36.0802C65.5484 37.0054 65.5213 37.9558 65.6552 38.8902C65.3703 37.9615 65.2985 36.9805 65.4452 36.0202C65.5158 35.5354 65.6574 35.0637 65.8652 34.6202C66.0747 34.1692 66.3587 33.7568 66.7052 33.4002C67.4034 32.7 68.283 32.2082 69.2451 31.9802C70.1889 31.72 71.1913 31.769 72.1052 32.1202Z" fill="white"/>
</g>
</g>
<g style="mix-blend-mode:multiply" opacity="0.15">
<path d="M69.0255 33C69.4116 32.8549 69.815 32.7607 70.2255 32.72C71.2423 32.6298 72.2599 32.8833 73.1155 33.44C73.8436 33.9068 74.4176 34.5782 74.7655 35.37C73.9257 34.6962 72.8975 34.2997 71.8228 34.2353C70.7481 34.1708 69.6798 34.4415 68.7655 35.01C65.6755 37.01 67.6755 40.67 67.6755 40.67C67.5269 40.5495 67.3896 40.4157 67.2655 40.27L67.1855 40.19C66.7125 39.6383 66.3786 38.9814 66.2116 38.2742C66.0446 37.567 66.0495 36.83 66.2257 36.125C66.4019 35.4201 66.7445 34.7676 67.2246 34.2221C67.7048 33.6767 68.3086 33.2542 68.9855 32.99L69.0255 33Z" fill="#363A4D"/>
</g>
<g style="mix-blend-mode:multiply" opacity="0.3">
<path d="M27.8362 19.2706H21.5062V12.8006C21.5062 12.6149 21.4324 12.4369 21.3011 12.3056C21.1699 12.1743 20.9918 12.1006 20.8062 12.1006H14.3062C14.1205 12.1006 13.9425 12.1743 13.8112 12.3056C13.6799 12.4369 13.6062 12.6149 13.6062 12.8006V19.2706H7.27618C7.09053 19.2706 6.91249 19.3443 6.78122 19.4756C6.64994 19.6069 6.57617 19.7849 6.57617 19.9706V26.1806C6.57617 26.3662 6.64994 26.5443 6.78122 26.6755C6.91249 26.8068 7.09053 26.8806 7.27618 26.8806H13.5862V33.3506C13.5862 33.5362 13.6599 33.7143 13.7912 33.8456C13.9225 33.9768 14.1005 34.0506 14.2862 34.0506H20.7862C20.9718 34.0506 21.1499 33.9768 21.2812 33.8456C21.4124 33.7143 21.4862 33.5362 21.4862 33.3506V26.8806H27.8162C28.0018 26.8806 28.1799 26.8068 28.3112 26.6755C28.4424 26.5443 28.5162 26.3662 28.5162 26.1806V19.9706C28.5162 19.7883 28.4452 19.6133 28.3183 19.4825C28.1913 19.3518 28.0183 19.2758 27.8362 19.2706Z" fill="#363A4D"/>
</g>
<path d="M26.2358 19.7002H19.7159V13.1902C19.7159 13.0046 19.6421 12.8265 19.5108 12.6953C19.3796 12.564 19.2015 12.4902 19.0158 12.4902H15.1658C14.9802 12.4902 14.8021 12.564 14.6709 12.6953C14.5396 12.8265 14.4659 13.0046 14.4659 13.1902V19.7002H7.95584C7.77099 19.7028 7.59446 19.7774 7.46375 19.9081C7.33303 20.0388 7.25845 20.2154 7.25586 20.4002V24.2502C7.25586 24.4359 7.3296 24.6139 7.46088 24.7452C7.59215 24.8765 7.77019 24.9502 7.95584 24.9502H14.4659V31.4702C14.4684 31.6551 14.543 31.8316 14.6737 31.9623C14.8045 32.0931 14.981 32.1676 15.1658 32.1702H19.0158C19.2015 32.1702 19.3796 32.0965 19.5108 31.9652C19.6421 31.8339 19.7159 31.6559 19.7159 31.4702V24.9502H26.2358C26.4215 24.9502 26.5996 24.8765 26.7308 24.7452C26.8621 24.6139 26.9359 24.4359 26.9359 24.2502V20.4002C26.9333 20.2154 26.8587 20.0388 26.728 19.9081C26.5972 19.7774 26.4207 19.7028 26.2358 19.7002Z" fill="#CCCCCC"/>
<g style="mix-blend-mode:multiply" opacity="0.4">
<path d="M18.1464 15.4101H16.3164L17.2364 13.5801L18.1464 15.4101Z" fill="#3C3C3C"/>
</g>
<g style="mix-blend-mode:multiply" opacity="0.4">
<path d="M18.1464 28.8301H16.3164L17.2364 30.6601L18.1464 28.8301Z" fill="#3C3C3C"/>
</g>
<g style="mix-blend-mode:multiply" opacity="0.4">
<path d="M23.9355 23.0402V21.2002L25.7655 22.1202L23.9355 23.0402Z" fill="#3C3C3C"/>
</g>
<g style="mix-blend-mode:multiply" opacity="0.4">
<path d="M10.5255 23.0402V21.2002L8.68555 22.1202L10.5255 23.0402Z" fill="#3C3C3C"/>
</g>
<g style="mix-blend-mode:screen" opacity="0.7">
<g style="mix-blend-mode:screen" opacity="0.7">
<path d="M73.9663 27.7206C73.0272 27.454 72.0515 27.3392 71.0763 27.3806C70.1083 27.4127 69.1494 27.5776 68.2263 27.8706C67.7622 28.0024 67.3078 28.1661 66.8663 28.3606C66.4163 28.5506 65.9862 28.7606 65.5562 28.9906C64.7124 29.4502 63.9325 30.0183 63.2363 30.6806C62.5414 31.3422 61.9633 32.1164 61.5263 32.9706C61.0864 33.824 60.7859 34.7423 60.6363 35.6906C60.483 36.6494 60.4495 37.6235 60.5363 38.5906C60.6044 39.5625 60.789 40.5227 61.0863 41.4506C60.8971 40.9964 60.7433 40.5284 60.6262 40.0506C60.507 39.576 60.4136 39.0953 60.3463 38.6106C60.2127 37.615 60.2127 36.6061 60.3463 35.6106C60.5971 33.6164 61.5214 31.7677 62.9663 30.3706C63.6867 29.682 64.5016 29.0995 65.3863 28.6406C65.8246 28.4064 66.2752 28.1961 66.7363 28.0106L67.4263 27.7506L68.1463 27.5406C69.1002 27.2759 70.0863 27.1447 71.0763 27.1506C72.0646 27.1787 73.0413 27.3714 73.9663 27.7206Z" fill="white"/>
</g>
</g>
<g style="mix-blend-mode:screen" opacity="0.7">
<g style="mix-blend-mode:screen" opacity="0.7">
<path d="M77.7247 20.99C76.0079 20.5193 74.2433 20.2442 72.4647 20.17C70.702 20.0864 68.9366 20.2616 67.2247 20.69C66.8047 20.79 66.3847 20.92 65.9647 21.06C65.7647 21.12 65.5547 21.21 65.3547 21.29L64.7347 21.53C63.9247 21.86 63.1347 22.25 62.3547 22.66C60.8097 23.4865 59.389 24.5267 58.1347 25.75C56.8896 26.9653 55.8734 28.3948 55.1347 29.97C54.3851 31.5477 53.8955 33.2361 53.6847 34.97C53.4697 36.7235 53.4697 38.4966 53.6847 40.25C53.8774 42.0216 54.2562 43.7678 54.8147 45.46C54.1057 43.8078 53.602 42.0749 53.3147 40.3C53.0098 38.5202 52.9392 36.7082 53.1047 34.91C53.1047 34.45 53.2147 34.01 53.2847 33.56C53.3547 33.11 53.4647 32.67 53.5847 32.23C53.8129 31.3453 54.1174 30.4821 54.4947 29.65C55.2675 27.9888 56.3347 26.4811 57.6447 25.2C58.9523 23.9296 60.442 22.8613 62.0647 22.03C62.865 21.608 63.6899 21.2341 64.5347 20.91C64.7447 20.82 64.9547 20.75 65.1747 20.67L65.8147 20.45C66.2547 20.32 66.6947 20.2 67.1347 20.11C68.9045 19.7294 70.7222 19.6215 72.5247 19.79C74.3024 19.9648 76.0502 20.3681 77.7247 20.99Z" fill="white"/>
</g>
</g>
<g style="mix-blend-mode:screen" opacity="0.7">
<g style="mix-blend-mode:screen" opacity="0.7">
<path d="M133.586 7.84022C131.961 7.33486 130.283 7.02272 128.586 6.91023C126.905 6.80472 125.219 6.95988 123.586 7.37022C123.176 7.48022 122.776 7.60022 122.376 7.74022C121.976 7.88022 121.586 8.04022 121.206 8.21022C120.427 8.54391 119.669 8.92462 118.936 9.35023C117.476 10.1818 116.157 11.2381 115.026 12.4802C113.892 13.7173 112.994 15.1508 112.376 16.7102C111.754 18.2773 111.373 19.9293 111.246 21.6102C111.171 22.4547 111.151 23.3031 111.186 24.1502C111.207 24.9998 111.274 25.8477 111.386 26.6902C111.496 27.5402 111.646 28.3802 111.836 29.2202C111.926 29.6302 112.026 30.0502 112.136 30.4602C112.246 30.8702 112.366 31.2902 112.516 31.7002C112.164 30.9113 111.867 30.0994 111.626 29.2702C111.386 28.4402 111.186 27.6002 111.016 26.7502C110.691 25.0439 110.57 23.3051 110.656 21.5702C110.693 20.6964 110.8 19.8269 110.976 18.9702C111.149 18.1082 111.393 17.2619 111.706 16.4402C112.339 14.7935 113.271 13.2781 114.456 11.9702C115.647 10.6725 117.042 9.57805 118.586 8.73021C119.348 8.30544 120.137 7.92809 120.946 7.60023C121.346 7.43023 121.756 7.29021 122.176 7.14021C122.596 6.99021 123.016 6.90021 123.446 6.80021C125.152 6.42296 126.911 6.33843 128.646 6.55021C130.343 6.75684 132.004 7.19074 133.586 7.84022Z" fill="white"/>
</g>
</g>
<g style="mix-blend-mode:screen" opacity="0.7">
<g style="mix-blend-mode:screen" opacity="0.7">
<path d="M24.0161 7.83995C22.3917 7.33459 20.7135 7.02244 19.0161 6.90996C17.3356 6.80445 15.649 6.95961 14.0161 7.36995C13.6061 7.47995 13.2061 7.59994 12.8061 7.73994C12.4061 7.87994 12.016 8.03994 11.636 8.20994C10.857 8.54363 10.0989 8.92435 9.36606 9.34996C7.9065 10.1816 6.587 11.2378 5.45606 12.4799C4.32276 13.717 3.42473 15.1505 2.80606 16.7099C2.18468 18.277 1.8037 19.929 1.67606 21.6099C1.59229 22.4438 1.56223 23.2822 1.58606 24.1199C1.60757 24.9696 1.67435 25.8174 1.78607 26.66C1.89607 27.51 2.04605 28.35 2.23605 29.19C2.32605 29.6 2.42607 30.0199 2.53607 30.4299C2.64607 30.8399 2.76605 31.2599 2.91605 31.6699C2.56476 30.881 2.26742 30.0691 2.02606 29.2399C1.78606 28.4099 1.58605 27.57 1.41605 26.72C1.09105 25.0137 0.970216 23.2748 1.05606 21.54C1.09302 20.6661 1.20003 19.7967 1.37607 18.94C1.54903 18.0779 1.79318 17.2317 2.10605 16.41C2.73952 14.7633 3.67184 13.2478 4.85605 11.94C6.04706 10.6422 7.44211 9.54778 8.98605 8.69993C9.74877 8.27517 10.5369 7.89781 11.3461 7.56996C11.7461 7.39996 12.1661 7.25994 12.5761 7.10994C12.9861 6.95994 13.4161 6.86994 13.8461 6.76994C15.5527 6.39269 17.3111 6.30815 19.0461 6.51994C20.7547 6.73354 22.4266 7.17758 24.0161 7.83995Z" fill="white"/>
</g>
</g>
<g style="mix-blend-mode:multiply" opacity="0.3">
<path d="M131.156 32.12C131.155 33.1929 130.779 34.2317 130.093 35.0572C129.408 35.8828 128.456 36.4433 127.401 36.6424C126.347 36.8414 125.256 36.6664 124.317 36.1475C123.378 35.6287 122.649 34.7985 122.256 33.7999C122.259 33.7633 122.259 33.7266 122.256 33.69C122.079 33.1854 121.988 32.6547 121.986 32.12C121.983 31.1458 122.288 30.1955 122.859 29.4061C123.43 28.6167 124.237 28.029 125.163 27.7276C126.09 27.4262 127.088 27.4267 128.014 27.7291C128.94 28.0314 129.746 28.62 130.316 29.41C130.878 30.2007 131.172 31.1502 131.156 32.12Z" fill="#363A4D"/>
</g>
<path d="M130.896 32.1207C130.897 33.1345 130.543 34.1166 129.897 34.8974C129.25 35.6783 128.351 36.2088 127.355 36.3973C126.359 36.5859 125.328 36.4206 124.441 35.9301C123.554 35.4396 122.866 34.6545 122.496 33.7107V33.6107C122.249 32.9505 122.165 32.2402 122.252 31.5406C122.34 30.841 122.595 30.173 122.998 29.5939C123.4 29.0148 123.936 28.5418 124.561 28.2156C125.186 27.8893 125.881 27.7195 126.586 27.7207C126.981 27.7228 127.375 27.7766 127.756 27.8807C128.697 28.1457 129.521 28.7199 130.096 29.5107C130.644 30.2684 130.925 31.1862 130.896 32.1207Z" fill="#CCCCCC"/>
<g style="mix-blend-mode:multiply" opacity="0.15">
<path d="M130.895 32.1203C130.89 33.1395 130.528 34.1248 129.872 34.9043C129.215 35.6838 128.306 36.208 127.302 36.3853C126.298 36.5627 125.264 36.3821 124.38 35.8749C123.496 35.3677 122.818 34.5662 122.465 33.6103C123.004 34.3533 123.765 34.9066 124.638 35.1909C125.511 35.4751 126.452 35.4757 127.326 35.1927C128.199 34.9096 128.961 34.3574 129.501 33.6151C130.042 32.8728 130.334 31.9786 130.335 31.0603C130.334 30.5515 130.243 30.047 130.065 29.5703C130.611 30.3078 130.902 31.2028 130.895 32.1203Z" fill="#363A4D"/>
</g>
<g style="mix-blend-mode:screen" opacity="0.2">
<path d="M126.055 28.6903C126.301 28.8383 126.515 29.0334 126.686 29.2644C126.856 29.4954 126.979 29.7578 127.048 30.0366C127.117 30.3154 127.13 30.6049 127.086 30.8887C127.043 31.1725 126.944 31.445 126.795 31.6903C126.235 32.8303 124.965 33.8903 123.795 33.3003C123.279 32.9658 122.914 32.4432 122.778 31.8436C122.641 31.2441 122.744 30.6151 123.065 30.0903C123.585 28.9903 125.075 28.2103 126.055 28.6903Z" fill="white"/>
</g>
<g style="mix-blend-mode:screen" opacity="0.35">
<path d="M124.846 28.83C125.066 29.06 124.946 29.52 124.586 29.83C124.226 30.14 123.666 30.43 123.406 30.16C123.146 29.89 123.406 29.42 123.776 29.11C124.146 28.8 124.636 28.6 124.846 28.83Z" fill="white"/>
</g>
<g style="mix-blend-mode:multiply" opacity="0.15">
<path d="M130.896 32.1207C130.897 33.1344 130.543 34.1166 129.897 34.8974C129.25 35.6782 128.351 36.2088 127.355 36.3973C126.359 36.5859 125.328 36.4206 124.441 35.9301C123.554 35.4395 122.866 34.6545 122.496 33.7107C123.262 34.251 124.15 34.5916 125.081 34.7017C126.012 34.8117 126.955 34.6876 127.826 34.3407C128.443 33.9466 128.943 33.3949 129.276 32.7427C129.608 32.0905 129.76 31.3614 129.716 30.6307C129.599 30.0625 129.359 29.5267 129.013 29.0605C128.668 28.5943 128.225 28.2087 127.716 27.9307C128.657 28.1956 129.481 28.7698 130.056 29.5607C130.608 30.2996 130.903 31.1986 130.896 32.1207Z" fill="#363A4D"/>
</g>
<g style="mix-blend-mode:multiply" opacity="0.3">
<path d="M131.156 14.12C131.155 15.1929 130.779 16.2317 130.093 17.0572C129.408 17.8828 128.456 18.4433 127.401 18.6424C126.347 18.8414 125.256 18.6664 124.317 18.1475C123.378 17.6287 122.649 16.7985 122.256 15.7999C122.26 15.7634 122.26 15.7265 122.256 15.69C122.079 15.1854 121.988 14.6547 121.986 14.12C121.983 13.1458 122.288 12.1955 122.859 11.4061C123.43 10.6167 124.237 10.029 125.163 9.72762C126.09 9.42623 127.088 9.42674 128.014 9.72909C128.94 10.0314 129.746 10.62 130.316 11.41C130.878 12.2007 131.172 13.1502 131.156 14.12Z" fill="#363A4D"/>
</g>
<path d="M130.895 14.1205C130.896 15.1343 130.542 16.1164 129.896 16.8972C129.249 17.6781 128.35 18.2086 127.354 18.3972C126.358 18.5857 125.328 18.4204 124.44 17.9299C123.553 17.4394 122.865 16.6544 122.495 15.7105V15.6105C122.258 14.953 122.182 14.2482 122.274 13.5553C122.367 12.8624 122.624 12.2019 123.025 11.6294C123.426 11.0569 123.959 10.5891 124.578 10.2656C125.198 9.94211 125.886 9.77229 126.585 9.77051C126.981 9.77256 127.374 9.82636 127.755 9.93051C128.696 10.1955 129.521 10.7697 130.095 11.5605C130.629 12.3061 130.91 13.2035 130.895 14.1205Z" fill="#04ABCD"/>
<g style="mix-blend-mode:multiply" opacity="0.15">
<path d="M130.895 14.1205C130.89 15.1397 130.528 16.1251 129.872 16.9045C129.215 17.684 128.306 18.2082 127.302 18.3856C126.298 18.563 125.264 18.3823 124.38 17.8752C123.496 17.368 122.818 16.5665 122.465 15.6105C123.004 16.3536 123.765 16.9069 124.638 17.1911C125.511 17.4753 126.452 17.476 127.326 17.1929C128.199 16.9099 128.961 16.3577 129.501 15.6154C130.042 14.8731 130.334 13.9788 130.335 13.0605C130.333 12.5486 130.242 12.0409 130.065 11.5605C130.61 12.3024 130.901 13.2002 130.895 14.1205Z" fill="#363A4D"/>
</g>
<g style="mix-blend-mode:screen" opacity="0.25">
<path d="M126.055 10.7801C126.301 10.928 126.515 11.1231 126.686 11.3541C126.856 11.5851 126.979 11.8476 127.048 12.1263C127.117 12.4051 127.13 12.6947 127.086 12.9785C127.043 13.2623 126.944 13.5347 126.795 13.7801C126.235 14.9201 124.965 15.9801 123.795 15.3901C123.279 15.0555 122.914 14.5329 122.778 13.9334C122.641 13.3339 122.744 12.7048 123.065 12.1801C123.585 11.1201 125.075 10.2901 126.055 10.7801Z" fill="white"/>
</g>
<g style="mix-blend-mode:screen" opacity="0.35">
<path d="M124.846 10.9198C125.066 11.1498 124.946 11.6098 124.586 11.9198C124.226 12.2298 123.666 12.5299 123.406 12.2599C123.146 11.9899 123.406 11.5198 123.776 11.1998C124.146 10.8798 124.636 10.6898 124.846 10.9198Z" fill="white"/>
</g>
<g style="mix-blend-mode:multiply" opacity="0.15">
<path d="M130.896 14.1207C130.897 15.1344 130.543 16.1166 129.897 16.8974C129.25 17.6782 128.351 18.2088 127.355 18.3973C126.359 18.5859 125.328 18.4206 124.441 17.9301C123.554 17.4395 122.866 16.6545 122.496 15.7107C123.262 16.251 124.15 16.5916 125.081 16.7017C126.012 16.8117 126.955 16.6876 127.826 16.3407C128.443 15.9466 128.943 15.3949 129.276 14.7427C129.608 14.0905 129.76 13.3614 129.716 12.6307C129.599 12.0625 129.359 11.5267 129.013 11.0605C128.668 10.5943 128.225 10.2087 127.716 9.93066C128.657 10.1956 129.481 10.7698 130.056 11.5607C130.604 12.3013 130.899 13.1992 130.896 14.1207Z" fill="#363A4D"/>
</g>
<g style="mix-blend-mode:multiply" opacity="0.3">
<path d="M140.115 22.85C140.116 23.9239 139.742 24.9642 139.057 25.7915C138.372 26.6188 137.42 27.1812 136.365 27.3815C135.31 27.5818 134.219 27.4076 133.278 26.8888C132.338 26.37 131.609 25.5393 131.215 24.54C131.215 24.54 131.215 24.47 131.215 24.43C130.961 23.7341 130.878 22.9871 130.975 22.2525C131.071 21.5178 131.343 20.8172 131.768 20.2104C132.193 19.6036 132.759 19.1085 133.416 18.7672C134.074 18.4258 134.805 18.2484 135.545 18.25C135.968 18.2504 136.388 18.3075 136.795 18.42C137.794 18.6985 138.669 19.3086 139.275 20.15C139.833 20.9392 140.127 21.884 140.115 22.85Z" fill="#363A4D"/>
</g>
<path d="M139.855 22.8499C139.856 23.8636 139.502 24.8458 138.856 25.6266C138.209 26.4075 137.31 26.938 136.314 27.1265C135.318 27.3151 134.288 27.1498 133.401 26.6593C132.513 26.1687 131.825 25.3837 131.455 24.4399C131.454 24.4066 131.454 24.3732 131.455 24.3399C131.281 23.8626 131.193 23.358 131.195 22.8499C131.195 22.2791 131.308 21.7139 131.527 21.1867C131.745 20.6595 132.066 20.1806 132.47 19.7775C132.874 19.3744 133.354 19.0549 133.881 18.8374C134.409 18.6199 134.975 18.5086 135.545 18.5099C135.944 18.5069 136.342 18.5608 136.725 18.6699C137.667 18.9334 138.492 19.5079 139.065 20.2999C139.59 21.0457 139.867 21.938 139.855 22.8499Z" fill="#E83C4A"/>
<g style="mix-blend-mode:multiply" opacity="0.15">
<path d="M139.856 22.8499C139.858 23.8739 139.499 24.8658 138.841 25.651C138.184 26.4361 137.271 26.9642 136.262 27.1423C135.254 27.3203 134.215 27.1369 133.328 26.6242C132.442 26.1116 131.765 25.3027 131.416 24.3398C132.034 25.1739 132.93 25.7594 133.942 25.9905C134.954 26.2216 136.016 26.0832 136.935 25.6002C137.854 25.1172 138.57 24.3214 138.953 23.3567C139.337 22.392 139.362 21.322 139.026 20.3398C139.557 21.0698 139.847 21.9472 139.856 22.8499Z" fill="#A80000"/>
</g>
<g style="mix-blend-mode:screen" opacity="0.25">
<path d="M135.005 19.4706C135.252 19.6177 135.467 19.8121 135.639 20.0428C135.81 20.2735 135.934 20.5357 136.004 20.8146C136.074 21.0934 136.087 21.3832 136.045 21.6674C136.002 21.9516 135.903 22.2246 135.755 22.4706C135.185 23.6206 133.925 24.6706 132.755 24.0906C131.585 23.5106 131.505 21.9306 132.025 20.8706C132.545 19.8106 134.035 18.9906 135.005 19.4706Z" fill="white"/>
</g>
<g style="mix-blend-mode:screen" opacity="0.25">
<path d="M133.805 19.62C134.015 19.84 133.905 20.31 133.535 20.62C133.165 20.93 132.615 21.23 132.355 20.95C132.095 20.67 132.355 20.22 132.735 19.9C133.115 19.58 133.585 19.39 133.805 19.62Z" fill="white"/>
</g>
<g style="mix-blend-mode:multiply" opacity="0.15">
<path d="M139.855 22.8499C139.856 23.8637 139.502 24.8458 138.856 25.6267C138.209 26.4075 137.31 26.938 136.314 27.1266C135.318 27.3151 134.287 27.1499 133.4 26.6593C132.513 26.1688 131.825 25.3838 131.455 24.4399C132.22 24.9811 133.108 25.323 134.039 25.4348C134.97 25.5465 135.913 25.4245 136.785 25.0799C137.402 24.6859 137.902 24.1342 138.235 23.482C138.567 22.8297 138.719 22.1006 138.675 21.3699C138.535 19.9199 137.415 19.2599 136.675 18.6699C137.617 18.9334 138.442 19.508 139.015 20.2999C139.558 21.0398 139.852 21.9325 139.855 22.8499Z" fill="#A80000"/>
</g>
<g style="mix-blend-mode:multiply" opacity="0.3">
<path d="M121.945 22.85C121.946 23.9239 121.572 24.9642 120.887 25.7915C120.202 26.6188 119.25 27.1812 118.195 27.3815C117.14 27.5818 116.049 27.4076 115.108 26.8888C114.168 26.37 113.439 25.5393 113.046 24.54C113.046 24.54 113.046 24.47 113.046 24.43C112.791 23.7341 112.708 22.9871 112.805 22.2525C112.901 21.5178 113.173 20.8172 113.598 20.2104C114.023 19.6036 114.589 19.1085 115.247 18.7672C115.904 18.4258 116.635 18.2484 117.375 18.25C117.798 18.2504 118.218 18.3075 118.625 18.42C119.624 18.6985 120.499 19.3086 121.106 20.15C121.663 20.9392 121.957 21.884 121.945 22.85Z" fill="#363A4D"/>
</g>
<path d="M121.685 22.8499C121.686 23.8636 121.332 24.8458 120.686 25.6266C120.039 26.4075 119.14 26.938 118.144 27.1265C117.148 27.3151 116.118 27.1498 115.231 26.6593C114.343 26.1687 113.655 25.3837 113.285 24.4399C113.284 24.4066 113.284 24.3732 113.285 24.3399C113.116 23.8613 113.028 23.3576 113.025 22.8499C113.025 22.2791 113.138 21.7139 113.357 21.1867C113.575 20.6595 113.896 20.1806 114.3 19.7775C114.704 19.3744 115.184 19.0549 115.711 18.8374C116.239 18.6199 116.805 18.5086 117.375 18.5099C117.774 18.5069 118.172 18.5608 118.555 18.6699C119.497 18.9334 120.322 19.5079 120.895 20.2999C121.42 21.0457 121.696 21.938 121.685 22.8499Z" fill="#FFE019"/>
<g style="mix-blend-mode:multiply" opacity="0.1">
<path d="M121.686 22.8499C121.688 23.8739 121.329 24.8658 120.672 25.651C120.014 26.4361 119.101 26.9642 118.092 27.1423C117.084 27.3203 116.045 27.1369 115.159 26.6242C114.272 26.1116 113.595 25.3027 113.246 24.3398C113.864 25.1739 114.76 25.7594 115.772 25.9905C116.784 26.2216 117.846 26.0832 118.765 25.6002C119.684 25.1172 120.4 24.3214 120.783 23.3567C121.167 22.392 121.193 21.322 120.856 20.3398C121.387 21.0698 121.677 21.9472 121.686 22.8499Z" fill="#520000"/>
</g>
<g style="mix-blend-mode:screen" opacity="0.25">
<path d="M116.835 19.4706C117.082 19.6177 117.297 19.8121 117.469 20.0428C117.64 20.2735 117.764 20.5357 117.834 20.8146C117.904 21.0934 117.917 21.3832 117.875 21.6674C117.832 21.9516 117.733 22.2246 117.585 22.4706C117.015 23.6206 115.755 24.6706 114.585 24.0906C113.415 23.5106 113.335 21.9306 113.855 20.8706C114.375 19.8106 115.865 18.9906 116.835 19.4706Z" fill="white"/>
</g>
<g style="mix-blend-mode:screen" opacity="0.55">
<path d="M115.635 19.62C115.845 19.84 115.735 20.31 115.365 20.62C114.995 20.93 114.445 21.23 114.185 20.95C113.925 20.67 114.185 20.22 114.565 19.9C114.945 19.58 115.415 19.39 115.635 19.62Z" fill="white"/>
</g>
<g style="mix-blend-mode:multiply" opacity="0.1">
<path d="M121.685 22.85C121.686 23.8637 121.332 24.8459 120.686 25.6267C120.039 26.4076 119.14 26.9381 118.144 27.1266C117.148 27.3152 116.117 27.1499 115.23 26.6594C114.343 26.1688 113.655 25.3838 113.285 24.44C114.044 24.9826 114.925 25.3288 115.849 25.4474C116.774 25.5661 117.714 25.4536 118.585 25.12C119.202 24.7259 119.702 24.1742 120.035 23.522C120.367 22.8698 120.519 22.1406 120.475 21.41C120.335 19.96 119.215 19.3 118.475 18.71C119.417 18.9735 120.242 19.548 120.815 20.34C121.36 21.0651 121.665 21.9429 121.685 22.85Z" fill="#520000"/>
</g>
</svg>
