<svg width="150" height="150" viewBox="0 0 150 150" fill="none" xmlns="http://www.w3.org/2000/svg">
<g clip-path="url(#clip0_821_17904)">
<path fill-rule="evenodd" clip-rule="evenodd" d="M148.183 95.8242C144.27 84.1916 138.916 77.3323 138.916 77.3323L139.89 82.57C135.841 78.6178 130.719 75.672 124.788 74.1849L46.7775 55.4323C28.4019 51.1198 10.9604 62.1515 5.96553 81.2364C4.71455 86.0179 4.47344 90.8209 5.10977 95.3932L2.26562 93.2847C2.26562 93.2847 4.76816 103.891 11.5185 111.185C15.8588 117.042 22.1055 121.462 29.7171 123.372C56.0175 129.975 82.3949 136.283 108.815 142.399C127.036 146.618 144.47 134.754 148.995 115.568C150.62 108.681 150.224 101.889 148.183 95.8242Z" fill="#FD6085"/>
<path fill-rule="evenodd" clip-rule="evenodd" d="M120.021 64.52L42.0088 45.7683C23.6338 41.4558 6.1922 52.4866 1.19767 71.5724C-3.67616 90.2052 6.73712 109.135 24.9492 113.708C51.2493 120.312 77.6268 126.62 104.046 132.735C122.268 136.954 139.701 125.09 144.227 105.903C148.656 87.1299 138.091 69.0531 120.021 64.52Z" fill="#FFA4AC"/>
<path fill-rule="evenodd" clip-rule="evenodd" d="M116.236 21.5C114.839 15.2782 109.459 11.2912 103.834 9.0816C98.6597 7.04781 92.7681 6.45982 87.2524 6.87349C84.1413 7.10699 84.1176 11.9782 87.2524 11.7432C97.1392 10.9994 114.222 14.5466 111.616 28.0135C109.539 38.752 95.5279 37.4193 88.295 42.991C85.6818 45.004 83.9398 47.7356 83.4435 51.0242C83.2457 52.3355 83.7526 53.6375 85.1445 54.0198C86.3081 54.3403 87.9414 53.6348 88.1389 52.3206C88.4963 49.9572 89.2671 48.478 91.0387 46.9824C92.4488 45.792 94.7831 44.8794 96.7191 44.2018C101.701 42.4598 106.835 41.2296 111.087 37.9446C115.999 34.1489 117.554 27.359 116.236 21.5Z" fill="#074785"/>
<path d="M74.6406 53.6113C75.5195 50.9289 75.8945 47.4979 79.0085 46.539C81.5553 45.7425 84.1147 46.423 86.6755 47.1036C89.2372 47.7842 92.5261 48.4483 93.7226 51.3783C94.8883 54.015 93.5324 55.7661 92.8981 58" fill="#F9D555"/>
<path d="M125.001 47.8795C124.514 47.3891 123.539 40.5281 122.653 40.5843C121.764 40.6406 120.991 47.4445 120.576 47.8921C119.744 48.7913 113.654 49.427 113.705 50.2998C113.757 51.171 119.735 51.5818 120.579 52.4302C121.05 52.9057 122.041 59.7843 122.929 59.7295C123.816 59.6768 124.575 52.8908 125.006 52.4264C125.809 51.5595 131.944 50.8875 131.896 50.0141C131.847 49.1402 125.814 48.701 125.001 47.8795Z" fill="#A089E4"/>
<path d="M60.7787 30.8883C60.2918 30.397 59.3162 23.5363 58.4306 23.5931C57.5414 23.6479 56.7689 30.4533 56.354 30.9009C55.522 31.7992 49.4318 32.4358 49.4827 33.3086C49.534 34.1793 55.5126 34.5891 56.3567 35.4393C56.8275 35.9142 57.8186 42.7922 58.7063 42.738C59.594 42.6853 60.3528 35.8999 60.7831 35.4358C61.587 34.5686 67.7224 33.8968 67.674 33.0226C67.6242 32.1484 61.592 31.7092 60.7787 30.8883Z" fill="#A089E4"/>
<path fill-rule="evenodd" clip-rule="evenodd" d="M134.8 104.978C131.676 117.418 119.059 124.968 106.619 121.842C94.1823 118.719 86.6311 106.102 89.7562 93.6619C92.8804 81.223 105.497 73.6735 117.938 76.798C130.375 79.9231 137.926 92.5393 134.8 104.978Z" fill="#074785"/>
<path fill-rule="evenodd" clip-rule="evenodd" d="M56.6413 85.7469C53.5147 98.1837 40.8992 105.737 28.4603 102.612C16.0212 99.485 8.47193 86.868 11.5956 74.4298C14.7204 61.9894 27.3374 54.4408 39.7771 57.5659C52.2142 60.6916 59.7655 73.3071 56.6413 85.7469Z" fill="#074785"/>
<path fill-rule="evenodd" clip-rule="evenodd" d="M80.8735 118.132C80.4581 119.717 78.8362 120.662 77.2527 120.246L69.4278 118.185C67.8452 117.77 66.8992 116.148 67.3146 114.564L68.2322 111.083C68.6482 109.502 70.2692 108.554 71.8539 108.971L79.6764 111.03C81.2611 111.447 82.2068 113.068 81.7902 114.652L80.8735 118.132Z" fill="#FD6085"/>
<path fill-rule="evenodd" clip-rule="evenodd" d="M64.1611 113.735C63.7424 115.319 62.122 116.264 60.5385 115.849L52.7148 113.789C51.1301 113.373 50.1832 111.751 50.6004 110.167L51.5154 106.689C51.9328 105.104 53.5538 104.159 55.1385 104.576L62.9622 106.634C64.5454 107.052 65.4926 108.673 65.076 110.256L64.1611 113.735Z" fill="#FD6085"/>
<path fill-rule="evenodd" clip-rule="evenodd" d="M36.5995 73.1966C35.9351 75.8369 33.1782 77.4186 30.4381 76.7304C27.7006 76.042 26.0163 73.3425 26.6796 70.7032C27.344 68.0644 30.0997 66.4827 32.8396 67.1723C35.5788 67.8599 37.2616 70.5573 36.5995 73.1966Z" fill="#7BECE2"/>
<path fill-rule="evenodd" clip-rule="evenodd" d="M30.7715 87.8477C30.1088 90.4879 27.3505 92.0706 24.6124 91.3821C21.8723 90.6936 20.1895 87.9957 20.8539 85.3554C21.5163 82.7167 24.2738 81.1349 27.013 81.8231C29.7526 82.5116 31.4354 85.2075 30.7715 87.8477Z" fill="#7BECE2"/>
<path fill-rule="evenodd" clip-rule="evenodd" d="M48.1182 85.081C47.4549 87.7206 44.6969 89.3038 41.958 88.6168C39.2175 87.9269 37.5362 85.2298 38.1992 82.5887C38.8616 79.9499 41.6205 78.3667 44.3588 79.0558C47.0984 79.7437 48.7806 82.4413 48.1182 85.081Z" fill="#7BECE2"/>
<path d="M38.0166 106.78C32.8094 109.35 24.5362 106.81 20.1224 103.557C17.6453 101.732 14.8507 105.596 17.326 107.421C23.0512 111.639 33.2357 114.455 39.9397 111.145C42.6947 109.786 40.7749 105.419 38.0166 106.78Z" fill="white"/>
<path d="M14.2282 97.3267C11.7365 95.5228 8.93925 99.3868 11.4312 101.191C13.9232 102.994 16.7205 99.1308 14.2282 97.3267Z" fill="white"/>
<path d="M62.5405 55.8786C58.1882 54.7574 54.5838 57.7307 53.1933 62.3409C52.4829 64.7013 55.7079 65.8846 56.4216 63.5154C57.2 60.932 58.6347 59.1695 61.1867 59.4862C63.9904 59.8343 64.811 62.3857 63.7452 65.0913C62.8408 67.3905 66.0725 68.5539 66.9749 66.2658C68.8121 61.595 66.9286 57.0062 62.5405 55.8786Z" fill="#074785"/>
<path d="M97.2622 64.321C92.8756 63.3401 89.3435 66.4204 88.0718 71.066C87.4211 73.4449 90.6803 74.5234 91.334 72.1359C92.0462 69.5326 93.436 67.7288 96.0007 67.9644C98.8158 68.2228 99.7041 70.7449 98.7074 73.4792C97.8604 75.8027 101.126 76.8607 101.968 74.5491C103.688 69.8294 101.683 65.3104 97.2622 64.321Z" fill="#074785"/>
<path d="M83.2497 74.84C83.5672 73.8442 83.4237 72.7883 82.5029 72.3202C81.7479 71.9384 80.4928 72.2824 80.1741 73.2796C79.7173 74.7155 78.9082 77.2069 77.2907 77.4363C75.0011 77.7609 74.6238 74.6871 74.8693 72.8718C75.1977 70.4402 71.8157 69.8408 71.484 72.2932C70.9359 76.3464 72.2469 80.4662 76.2046 81.1743C79.7698 81.8121 82.1879 78.1737 83.2497 74.84Z" fill="#074785"/>
<path fill-rule="evenodd" clip-rule="evenodd" d="M18.6814 58.6538C24.8053 53.1369 34.9798 51.7851 42.3749 55.3175C44.8602 56.504 46.7498 52.6638 44.2552 51.472C34.9995 47.0508 23.0431 49.0025 15.4751 55.8208C13.4273 57.6656 16.6552 60.4796 18.6814 58.6538Z" fill="white"/>
<path fill-rule="evenodd" clip-rule="evenodd" d="M9.51772 64.0708C11.5849 65.8975 14.4185 62.6912 12.3504 60.864C10.2833 59.0367 7.44937 62.243 9.51772 64.0708Z" fill="white"/>
<path fill-rule="evenodd" clip-rule="evenodd" d="M48.2109 59.0538C50.279 60.8811 53.112 57.6742 51.0445 55.8476C48.9767 54.0198 46.1428 57.2266 48.2109 59.0538Z" fill="white"/>
<path fill-rule="evenodd" clip-rule="evenodd" d="M126.568 121.318C120.614 127.019 110.485 128.68 102.986 125.374C100.467 124.264 98.6948 128.159 101.224 129.275C110.61 133.412 122.501 131.098 129.859 124.052C131.849 122.145 128.537 119.432 126.568 121.318Z" fill="white"/>
<path fill-rule="evenodd" clip-rule="evenodd" d="M135.561 115.626C133.44 113.862 130.705 117.152 132.827 118.917C134.949 120.679 137.685 117.389 135.561 115.626Z" fill="white"/>
<path fill-rule="evenodd" clip-rule="evenodd" d="M97.04 121.817C94.9183 120.053 92.1837 123.344 94.3057 125.107C96.4282 126.87 99.1631 123.579 97.04 121.817Z" fill="white"/>
<path fill-rule="evenodd" clip-rule="evenodd" d="M131.812 76.6167C131.081 76.4773 130.615 75.8052 130.747 75.0807C130.879 74.3509 131.581 73.8734 132.313 74.0152C133.04 74.1555 133.507 74.8352 133.373 75.5585C133.235 76.3012 132.558 76.7606 131.812 76.6167Z" fill="white"/>
<path fill-rule="evenodd" clip-rule="evenodd" d="M64.8394 83.5622C64.109 83.4204 63.6426 82.7486 63.7741 82.0252C63.9065 81.2949 64.6085 80.8159 65.3403 80.9588C66.0672 81.1003 66.5342 81.7794 66.4 82.5013C66.2614 83.2455 65.5847 83.706 64.8394 83.5622Z" fill="white"/>
<path fill-rule="evenodd" clip-rule="evenodd" d="M140.707 102.439C139.977 102.299 139.51 101.626 139.641 100.903C139.774 100.172 140.476 99.6942 141.208 99.8366C141.935 99.9761 142.402 100.657 142.268 101.379C142.13 102.123 141.453 102.581 140.707 102.439Z" fill="white"/>
<path fill-rule="evenodd" clip-rule="evenodd" d="M112.031 70.4378C111.3 70.2969 110.834 69.6242 110.966 68.9003C111.098 68.1699 111.8 67.6921 112.532 67.8348C113.259 67.9763 113.726 68.6554 113.592 69.3781C113.454 70.1211 112.776 70.5808 112.031 70.4378Z" fill="white"/>
<path fill-rule="evenodd" clip-rule="evenodd" d="M83.1543 90.9008C82.4236 90.7614 81.9572 90.0873 82.0885 89.3639C82.2212 88.6341 82.9232 88.1551 83.655 88.2975C84.3821 88.4384 84.8491 89.119 84.7147 89.8415C84.5767 90.5841 83.8996 91.0441 83.1543 90.9008Z" fill="white"/>
<path fill-rule="evenodd" clip-rule="evenodd" d="M123.119 97.8278C121.484 97.2639 119.831 96.7559 118.016 96.1685C118.365 95.0906 118.641 94.2442 118.914 93.3943C119.191 92.5359 119.5 91.6846 119.731 90.8139C120.423 88.2185 119.249 85.8437 116.953 85.1262C114.646 84.4037 112.351 85.6808 111.455 88.2155C111.033 89.4073 109.895 92.054 109.405 93.5019C108.301 93.0328 105.866 92.2178 104.715 91.8659C101.876 90.9952 99.6721 91.967 98.8638 94.425C98.0675 96.8525 99.2968 99.0114 102.043 99.9483C103.668 100.502 105.309 101.011 107.101 101.592C106.516 103.399 106.016 104.932 105.522 106.467C104.614 109.298 105.606 111.74 107.997 112.569C110.484 113.43 112.786 112.094 113.797 109.166C114.323 107.638 114.799 106.092 115.384 104.284C117.248 104.888 118.835 105.422 120.436 105.915C123.137 106.751 125.342 105.781 126.171 103.423C127.032 100.973 125.845 98.7688 123.119 97.8278Z" fill="#F9D555"/>
<path fill-rule="evenodd" clip-rule="evenodd" d="M67.4471 100.883C67.1444 102.047 66.2588 102.251 65.4786 101.335L60.5749 95.5821C59.7947 94.6674 60.0748 93.5638 61.1972 93.132L68.3418 90.3778C69.4636 89.9456 70.1348 90.5445 69.8315 91.709L67.4471 100.883Z" fill="white"/>
<path fill-rule="evenodd" clip-rule="evenodd" d="M73.0863 92.5608C73.3893 91.3968 74.265 91.2017 75.0325 92.1281L80.0007 98.117C80.7683 99.0425 80.4721 100.136 79.3418 100.548L72.1943 103.153C71.0637 103.564 70.3869 102.949 70.6893 101.785L73.0863 92.5608Z" fill="white"/>
</g>
<defs>
<clipPath id="clip0_821_17904">
<rect width="150" height="150" fill="white"/>
</clipPath>
</defs>
</svg>
